G04 Layer_Physical_Order=2*
G04 Layer_Color=39107*
%FSLAX25Y25*%
%MOIN*%
G70*
G01*
G75*
%ADD43C,0.04921*%
%ADD46C,0.06890*%
%ADD48C,0.10827*%
%ADD49C,0.02953*%
%ADD50C,0.01772*%
%ADD51C,0.01969*%
G36*
X198000Y2000D02*
X188387D01*
X188226Y2473D01*
X188340Y2560D01*
X189113Y3568D01*
X189599Y4741D01*
X189764Y6000D01*
X189599Y7259D01*
X189113Y8432D01*
X188340Y9440D01*
X187332Y10213D01*
X186159Y10699D01*
X185786Y10748D01*
Y11252D01*
X186159Y11301D01*
X187332Y11787D01*
X188340Y12560D01*
X189113Y13568D01*
X189599Y14741D01*
X189764Y16000D01*
X189599Y17259D01*
X189113Y18432D01*
X188340Y19440D01*
X187332Y20213D01*
X186159Y20699D01*
X185786Y20748D01*
Y21252D01*
X186159Y21301D01*
X187332Y21787D01*
X188340Y22560D01*
X189113Y23568D01*
X189599Y24741D01*
X189764Y26000D01*
X189599Y27259D01*
X189113Y28432D01*
X188340Y29440D01*
X187332Y30213D01*
X186159Y30699D01*
X185786Y30748D01*
Y31252D01*
X186159Y31301D01*
X187332Y31787D01*
X188340Y32560D01*
X189113Y33568D01*
X189599Y34741D01*
X189764Y36000D01*
X189599Y37259D01*
X189113Y38432D01*
X188340Y39440D01*
X187332Y40213D01*
X186159Y40699D01*
X185786Y40748D01*
Y41252D01*
X186159Y41301D01*
X187332Y41787D01*
X188340Y42560D01*
X189113Y43568D01*
X189599Y44741D01*
X189764Y46000D01*
X189599Y47259D01*
X189113Y48432D01*
X188340Y49440D01*
X187332Y50213D01*
X186159Y50699D01*
X185786Y50748D01*
Y51252D01*
X186159Y51301D01*
X187332Y51787D01*
X188340Y52560D01*
X189113Y53568D01*
X189599Y54741D01*
X189764Y56000D01*
X189599Y57259D01*
X189113Y58432D01*
X188340Y59440D01*
X187332Y60213D01*
X186159Y60699D01*
X185786Y60748D01*
Y61252D01*
X186159Y61301D01*
X187332Y61787D01*
X188340Y62560D01*
X189113Y63568D01*
X189599Y64741D01*
X189764Y66000D01*
X189599Y67259D01*
X189113Y68432D01*
X188340Y69440D01*
X187332Y70213D01*
X186159Y70699D01*
X185786Y70748D01*
Y71252D01*
X186159Y71301D01*
X187332Y71787D01*
X188340Y72560D01*
X189113Y73568D01*
X189599Y74741D01*
X189764Y76000D01*
X189599Y77259D01*
X189113Y78432D01*
X188340Y79440D01*
X187332Y80213D01*
X186159Y80699D01*
X185786Y80748D01*
Y81252D01*
X186159Y81301D01*
X187332Y81787D01*
X188340Y82560D01*
X189113Y83568D01*
X189599Y84741D01*
X189764Y86000D01*
X189599Y87259D01*
X189113Y88432D01*
X188340Y89440D01*
X187332Y90213D01*
X186159Y90699D01*
X184900Y90864D01*
X183641Y90699D01*
X182468Y90213D01*
X181460Y89440D01*
X180687Y88432D01*
X180201Y87259D01*
X180152Y86886D01*
X179648D01*
X179599Y87259D01*
X179113Y88432D01*
X178340Y89440D01*
X177332Y90213D01*
X176159Y90699D01*
X176254Y91177D01*
X179723D01*
Y100823D01*
X170077D01*
Y97719D01*
X169577Y97619D01*
X169569Y97638D01*
X169049Y98317D01*
X168370Y98837D01*
X167580Y99164D01*
X166732Y99276D01*
X165884Y99164D01*
X165094Y98837D01*
X164416Y98317D01*
X163895Y97638D01*
X163623Y96982D01*
X163027Y96735D01*
X162349Y96214D01*
X161828Y95536D01*
X161516Y94783D01*
X160764Y94471D01*
X160085Y93950D01*
X159564Y93272D01*
X159263Y92544D01*
X159192Y92535D01*
X158401Y92207D01*
X157723Y91687D01*
X157202Y91008D01*
X156918Y90321D01*
X156534Y90271D01*
X155744Y89943D01*
X155065Y89423D01*
X154545Y88744D01*
X154218Y87954D01*
X154191Y87753D01*
X153876Y87712D01*
X153086Y87384D01*
X152408Y86864D01*
X151887Y86185D01*
X151560Y85395D01*
X151448Y84547D01*
X151560Y83699D01*
X151887Y82909D01*
X152408Y82231D01*
X153086Y81710D01*
X153876Y81383D01*
X154724Y81271D01*
X155572Y81383D01*
X156362Y81710D01*
X157041Y82231D01*
X157562Y82909D01*
X157889Y83699D01*
X157915Y83900D01*
X158230Y83942D01*
X159020Y84269D01*
X159698Y84790D01*
X160219Y85468D01*
X160503Y86155D01*
X160887Y86206D01*
X161677Y86533D01*
X162356Y87054D01*
X162876Y87732D01*
X163178Y88460D01*
X163250Y88469D01*
X164040Y88797D01*
X164718Y89317D01*
X165239Y89996D01*
X165550Y90749D01*
X166303Y91061D01*
X166982Y91581D01*
X167502Y92260D01*
X167774Y92916D01*
X168370Y93163D01*
X169049Y93683D01*
X169569Y94362D01*
X169577Y94381D01*
X170077Y94281D01*
Y91177D01*
X173546D01*
X173641Y90699D01*
X172468Y90213D01*
X171460Y89440D01*
X170687Y88432D01*
X170201Y87259D01*
X170036Y86000D01*
X170201Y84741D01*
X170687Y83568D01*
X171460Y82560D01*
X172468Y81787D01*
X173641Y81301D01*
X174014Y81252D01*
Y80748D01*
X173641Y80699D01*
X172468Y80213D01*
X171460Y79440D01*
X170687Y78432D01*
X170201Y77259D01*
X170036Y76000D01*
X170201Y74741D01*
X170687Y73568D01*
X171460Y72560D01*
X172468Y71787D01*
X173641Y71301D01*
X174014Y71252D01*
Y70748D01*
X173641Y70699D01*
X172468Y70213D01*
X171460Y69440D01*
X170687Y68432D01*
X170201Y67259D01*
X170036Y66000D01*
X170201Y64741D01*
X170687Y63568D01*
X171460Y62560D01*
X172468Y61787D01*
X173641Y61301D01*
X174014Y61252D01*
Y60748D01*
X173641Y60699D01*
X172468Y60213D01*
X171460Y59440D01*
X170687Y58432D01*
X170201Y57259D01*
X170036Y56000D01*
X170201Y54741D01*
X170687Y53568D01*
X171460Y52560D01*
X172468Y51787D01*
X173641Y51301D01*
X174014Y51252D01*
Y50748D01*
X173641Y50699D01*
X172468Y50213D01*
X171460Y49440D01*
X170687Y48432D01*
X170201Y47259D01*
X170036Y46000D01*
X170201Y44741D01*
X170687Y43568D01*
X171460Y42560D01*
X172468Y41787D01*
X173641Y41301D01*
X174014Y41252D01*
Y40748D01*
X173641Y40699D01*
X172468Y40213D01*
X171460Y39440D01*
X170687Y38432D01*
X170201Y37259D01*
X170036Y36000D01*
X170201Y34741D01*
X170687Y33568D01*
X171460Y32560D01*
X172468Y31787D01*
X173641Y31301D01*
X174014Y31252D01*
Y30748D01*
X173641Y30699D01*
X172606Y30270D01*
X172075Y30473D01*
X172062Y30572D01*
X171735Y31362D01*
X171214Y32041D01*
X170536Y32561D01*
X169746Y32889D01*
X168898Y33000D01*
X168050Y32889D01*
X167260Y32561D01*
X166581Y32041D01*
X166060Y31362D01*
X165733Y30572D01*
X165622Y29724D01*
X165733Y28877D01*
X166060Y28086D01*
X166581Y27408D01*
X167260Y26887D01*
X168050Y26560D01*
X168898Y26448D01*
X169603Y26541D01*
X170063Y26210D01*
X170036Y26000D01*
X170201Y24741D01*
X170687Y23568D01*
X171460Y22560D01*
X172468Y21787D01*
X173641Y21301D01*
X174014Y21252D01*
Y20748D01*
X173641Y20699D01*
X172468Y20213D01*
X171460Y19440D01*
X170687Y18432D01*
X170201Y17259D01*
X170036Y16000D01*
X170201Y14741D01*
X170687Y13568D01*
X171460Y12560D01*
X172468Y11787D01*
X173641Y11301D01*
X174014Y11252D01*
Y10748D01*
X173641Y10699D01*
X172468Y10213D01*
X171460Y9440D01*
X170687Y8432D01*
X170201Y7259D01*
X170036Y6000D01*
X170201Y4741D01*
X170687Y3568D01*
X171460Y2560D01*
X171573Y2473D01*
X171413Y2000D01*
X18387D01*
X18226Y2473D01*
X18340Y2560D01*
X19113Y3568D01*
X19599Y4741D01*
X19764Y6000D01*
X19599Y7259D01*
X19113Y8432D01*
X18340Y9440D01*
X17332Y10213D01*
X16159Y10699D01*
X15786Y10748D01*
Y11252D01*
X16159Y11301D01*
X17332Y11787D01*
X18340Y12560D01*
X19113Y13568D01*
X19599Y14741D01*
X19764Y16000D01*
X19599Y17259D01*
X19113Y18432D01*
X18340Y19440D01*
X17332Y20213D01*
X16159Y20699D01*
X15786Y20748D01*
Y21252D01*
X16159Y21301D01*
X17332Y21787D01*
X18340Y22560D01*
X19113Y23568D01*
X19599Y24741D01*
X19764Y26000D01*
X19599Y27259D01*
X19113Y28432D01*
X18340Y29440D01*
X17332Y30213D01*
X16159Y30699D01*
X15786Y30748D01*
Y31252D01*
X16159Y31301D01*
X17332Y31787D01*
X18340Y32560D01*
X19113Y33568D01*
X19599Y34741D01*
X19764Y36000D01*
X19599Y37259D01*
X19113Y38432D01*
X18340Y39440D01*
X17332Y40213D01*
X16159Y40699D01*
X15786Y40748D01*
Y41252D01*
X16159Y41301D01*
X17332Y41787D01*
X18340Y42560D01*
X19113Y43568D01*
X19599Y44741D01*
X19764Y46000D01*
X19599Y47259D01*
X19113Y48432D01*
X18340Y49440D01*
X17332Y50213D01*
X16159Y50699D01*
X15786Y50748D01*
Y51252D01*
X16159Y51301D01*
X17332Y51787D01*
X18340Y52560D01*
X19113Y53568D01*
X19599Y54741D01*
X19764Y56000D01*
X19599Y57259D01*
X19113Y58432D01*
X18340Y59440D01*
X17332Y60213D01*
X16159Y60699D01*
X15786Y60748D01*
Y61252D01*
X16159Y61301D01*
X17332Y61787D01*
X18340Y62560D01*
X19113Y63568D01*
X19599Y64741D01*
X19764Y66000D01*
X19599Y67259D01*
X19113Y68432D01*
X18340Y69440D01*
X17332Y70213D01*
X16159Y70699D01*
X15786Y70748D01*
Y71252D01*
X16159Y71301D01*
X17332Y71787D01*
X18340Y72560D01*
X19113Y73568D01*
X19599Y74741D01*
X19764Y76000D01*
X19599Y77259D01*
X19113Y78432D01*
X18340Y79440D01*
X17332Y80213D01*
X16159Y80699D01*
X14900Y80864D01*
X13641Y80699D01*
X12468Y80213D01*
X11460Y79440D01*
X10687Y78432D01*
X10201Y77259D01*
X10152Y76886D01*
X9648D01*
X9599Y77259D01*
X9113Y78432D01*
X8340Y79440D01*
X7332Y80213D01*
X6159Y80699D01*
X5786Y80748D01*
Y81252D01*
X6159Y81301D01*
X7332Y81787D01*
X8340Y82560D01*
X9113Y83568D01*
X9599Y84741D01*
X9764Y86000D01*
X9599Y87259D01*
X9113Y88432D01*
X8340Y89440D01*
X7332Y90213D01*
X6159Y90699D01*
X6254Y91177D01*
X9723D01*
Y94646D01*
X10201Y94741D01*
X10687Y93568D01*
X11460Y92560D01*
X12468Y91787D01*
X13641Y91301D01*
X14900Y91136D01*
X16159Y91301D01*
X17332Y91787D01*
X18340Y92560D01*
X19113Y93568D01*
X19599Y94741D01*
X19764Y96000D01*
X19599Y97259D01*
X19113Y98432D01*
X18340Y99440D01*
X17332Y100213D01*
X16159Y100699D01*
X14900Y100864D01*
X13641Y100699D01*
X12468Y100213D01*
X11460Y99440D01*
X10687Y98432D01*
X10201Y97259D01*
X9723Y97354D01*
Y100823D01*
X77D01*
Y91177D01*
X3546D01*
X3641Y90699D01*
X2468Y90213D01*
X1460Y89440D01*
X687Y88432D01*
X201Y87259D01*
X35Y86000D01*
X201Y84741D01*
X687Y83568D01*
X1460Y82560D01*
X2468Y81787D01*
X3641Y81301D01*
X4014Y81252D01*
Y80748D01*
X3641Y80699D01*
X2468Y80213D01*
X1460Y79440D01*
X687Y78432D01*
X201Y77259D01*
X35Y76000D01*
X201Y74741D01*
X687Y73568D01*
X1460Y72560D01*
X2468Y71787D01*
X3641Y71301D01*
X4014Y71252D01*
Y70748D01*
X3641Y70699D01*
X2468Y70213D01*
X1460Y69440D01*
X687Y68432D01*
X201Y67259D01*
X35Y66000D01*
X201Y64741D01*
X687Y63568D01*
X1460Y62560D01*
X2468Y61787D01*
X3641Y61301D01*
X4014Y61252D01*
Y60748D01*
X3641Y60699D01*
X2468Y60213D01*
X1460Y59440D01*
X687Y58432D01*
X201Y57259D01*
X35Y56000D01*
X201Y54741D01*
X687Y53568D01*
X1460Y52560D01*
X2468Y51787D01*
X3641Y51301D01*
X4014Y51252D01*
Y50748D01*
X3641Y50699D01*
X2468Y50213D01*
X1460Y49440D01*
X687Y48432D01*
X201Y47259D01*
X35Y46000D01*
X201Y44741D01*
X687Y43568D01*
X1460Y42560D01*
X2468Y41787D01*
X3641Y41301D01*
X4014Y41252D01*
Y40748D01*
X3641Y40699D01*
X2468Y40213D01*
X1460Y39440D01*
X687Y38432D01*
X201Y37259D01*
X35Y36000D01*
X201Y34741D01*
X687Y33568D01*
X1460Y32560D01*
X2468Y31787D01*
X3641Y31301D01*
X4014Y31252D01*
Y30748D01*
X3641Y30699D01*
X2468Y30213D01*
X1460Y29440D01*
X687Y28432D01*
X201Y27259D01*
X35Y26000D01*
X201Y24741D01*
X687Y23568D01*
X1460Y22560D01*
X2468Y21787D01*
X3641Y21301D01*
X4014Y21252D01*
Y20748D01*
X3641Y20699D01*
X2468Y20213D01*
X1460Y19440D01*
X687Y18432D01*
X201Y17259D01*
X35Y16000D01*
X201Y14741D01*
X687Y13568D01*
X1460Y12560D01*
X2468Y11787D01*
X3641Y11301D01*
X4014Y11252D01*
Y10748D01*
X3641Y10699D01*
X2468Y10213D01*
X1460Y9440D01*
X687Y8432D01*
X201Y7259D01*
X35Y6000D01*
X201Y4741D01*
X687Y3568D01*
X1460Y2560D01*
X1574Y2473D01*
X1413Y2000D01*
X-8000D01*
Y238000D01*
X2163D01*
X2262Y237500D01*
X1908Y237353D01*
X1106Y236738D01*
X490Y235936D01*
X103Y235002D01*
X-28Y234000D01*
X103Y232998D01*
X490Y232064D01*
X539Y232000D01*
X490Y231936D01*
X103Y231002D01*
X-28Y230000D01*
X103Y228998D01*
X490Y228064D01*
X539Y228000D01*
X490Y227936D01*
X103Y227002D01*
X-28Y226000D01*
X103Y224998D01*
X490Y224064D01*
X539Y224000D01*
X490Y223936D01*
X103Y223002D01*
X-28Y222000D01*
X103Y220998D01*
X490Y220064D01*
X535Y220006D01*
X160Y219102D01*
X28Y218100D01*
X160Y217098D01*
X547Y216164D01*
X1162Y215362D01*
X1964Y214747D01*
X2898Y214360D01*
X3900Y214228D01*
X4902Y214360D01*
X5672Y214679D01*
X6441Y214360D01*
X7443Y214228D01*
X8445Y214360D01*
X9058Y214614D01*
X9911Y214260D01*
X10913Y214128D01*
X11915Y214260D01*
X12685Y214579D01*
X13455Y214260D01*
X14457Y214128D01*
X15459Y214260D01*
X16228Y214579D01*
X16998Y214260D01*
X18000Y214128D01*
X19002Y214260D01*
X19800Y214591D01*
X20598Y214260D01*
X21600Y214128D01*
X22602Y214260D01*
X23536Y214647D01*
X23560Y214666D01*
X24298Y214360D01*
X25300Y214228D01*
X26302Y214360D01*
X27236Y214747D01*
X28038Y215362D01*
X28653Y216164D01*
X29040Y217098D01*
X29172Y218100D01*
X29162Y218178D01*
X29789Y218260D01*
X30722Y218647D01*
X31524Y219262D01*
X32140Y220064D01*
X32526Y220998D01*
X32658Y222000D01*
X32526Y223002D01*
X32140Y223936D01*
X32090Y224000D01*
X32140Y224064D01*
X32526Y224998D01*
X32658Y226000D01*
X32526Y227002D01*
X32140Y227936D01*
X32090Y228000D01*
X32140Y228064D01*
X32526Y228998D01*
X32658Y230000D01*
X32526Y231002D01*
X32140Y231936D01*
X32090Y232000D01*
X32140Y232064D01*
X32526Y232998D01*
X32658Y234000D01*
X32526Y235002D01*
X32140Y235936D01*
X31524Y236738D01*
X30722Y237353D01*
X30368Y237500D01*
X30467Y238000D01*
X160320D01*
X160419Y237500D01*
X160064Y237353D01*
X159262Y236738D01*
X158647Y235936D01*
X158260Y235002D01*
X158128Y234000D01*
X158260Y232998D01*
X158647Y232064D01*
X158696Y232000D01*
X158647Y231936D01*
X158260Y231002D01*
X158128Y230000D01*
X158260Y228998D01*
X158647Y228064D01*
X158696Y228000D01*
X158647Y227936D01*
X158260Y227002D01*
X158128Y226000D01*
X158260Y224998D01*
X158647Y224064D01*
X158696Y224000D01*
X158647Y223936D01*
X158260Y223002D01*
X158128Y222000D01*
X158260Y220998D01*
X158647Y220064D01*
X159262Y219262D01*
X160064Y218647D01*
X160998Y218260D01*
X161737Y218163D01*
X161728Y218100D01*
X161860Y217098D01*
X162247Y216164D01*
X162862Y215362D01*
X163664Y214747D01*
X164598Y214360D01*
X165600Y214228D01*
X166602Y214360D01*
X167372Y214679D01*
X168141Y214360D01*
X169143Y214228D01*
X170145Y214360D01*
X170915Y214679D01*
X171685Y214360D01*
X172687Y214228D01*
X173689Y214360D01*
X174458Y214679D01*
X175228Y214360D01*
X176230Y214228D01*
X177232Y214360D01*
X177844Y214614D01*
X178698Y214260D01*
X179700Y214128D01*
X180702Y214260D01*
X181472Y214579D01*
X182241Y214260D01*
X183243Y214128D01*
X184245Y214260D01*
X185015Y214579D01*
X185784Y214260D01*
X186787Y214128D01*
X187789Y214260D01*
X188723Y214647D01*
X189524Y215262D01*
X190140Y216064D01*
X190526Y216998D01*
X190658Y218000D01*
X190526Y219002D01*
X190140Y219936D01*
X190135Y219941D01*
X190153Y219964D01*
X190540Y220898D01*
X190672Y221900D01*
X190540Y222902D01*
X190153Y223836D01*
X190065Y223950D01*
X190153Y224064D01*
X190540Y224998D01*
X190672Y226000D01*
X190540Y227002D01*
X190153Y227936D01*
X190104Y228000D01*
X190153Y228064D01*
X190540Y228998D01*
X190672Y230000D01*
X190540Y231002D01*
X190153Y231936D01*
X190104Y232000D01*
X190153Y232064D01*
X190540Y232998D01*
X190672Y234000D01*
X190540Y235002D01*
X190153Y235936D01*
X189538Y236738D01*
X188736Y237353D01*
X188381Y237500D01*
X188480Y238000D01*
X198000D01*
Y2000D01*
D02*
G37*
%LPC*%
G36*
X150591Y50820D02*
X149589Y50689D01*
X148655Y50302D01*
X147853Y49687D01*
X147238Y48885D01*
X146851Y47951D01*
X146719Y46949D01*
X146851Y45947D01*
X147238Y45013D01*
X147766Y44324D01*
X147261Y43666D01*
X146934Y42875D01*
X146822Y42028D01*
X146934Y41180D01*
X147261Y40389D01*
X147782Y39711D01*
X148460Y39190D01*
X149250Y38863D01*
X150098Y38752D01*
X150946Y38863D01*
X151736Y39190D01*
X152415Y39711D01*
X152936Y40389D01*
X153118Y40830D01*
X153691Y40906D01*
X153928Y40597D01*
X154606Y40076D01*
X155396Y39749D01*
X156244Y39637D01*
X157092Y39749D01*
X157882Y40076D01*
X158561Y40597D01*
X159081Y41275D01*
X159408Y42066D01*
X159520Y42913D01*
X159408Y43761D01*
X159081Y44551D01*
X158561Y45230D01*
X157882Y45750D01*
X157092Y46078D01*
X156244Y46189D01*
X155396Y46078D01*
X154796Y45829D01*
X154367Y46149D01*
X154359Y46163D01*
X154462Y46949D01*
X154330Y47951D01*
X153944Y48885D01*
X153328Y49687D01*
X152526Y50302D01*
X151593Y50689D01*
X150591Y50820D01*
D02*
G37*
G36*
X96358Y46765D02*
X95510Y46653D01*
X94720Y46326D01*
X94042Y45805D01*
X93521Y45127D01*
X93194Y44337D01*
X93082Y43489D01*
X93194Y42641D01*
X93521Y41851D01*
X94042Y41172D01*
X94720Y40652D01*
X95510Y40325D01*
X96358Y40213D01*
X97206Y40325D01*
X97996Y40652D01*
X98287Y40875D01*
X98595Y40472D01*
X99274Y39952D01*
X100064Y39625D01*
X100912Y39513D01*
X101760Y39625D01*
X102550Y39952D01*
X103228Y40472D01*
X103749Y41151D01*
X104076Y41941D01*
X104188Y42789D01*
X104076Y43637D01*
X103749Y44427D01*
X103228Y45105D01*
X102550Y45626D01*
X101760Y45953D01*
X100912Y46065D01*
X100064Y45953D01*
X99274Y45626D01*
X98984Y45403D01*
X98675Y45805D01*
X97996Y46326D01*
X97206Y46653D01*
X96358Y46765D01*
D02*
G37*
G36*
X87205Y47764D02*
X86357Y47653D01*
X85567Y47325D01*
X84888Y46805D01*
X84368Y46126D01*
X84040Y45336D01*
X83929Y44488D01*
X84040Y43640D01*
X84368Y42850D01*
X84888Y42172D01*
X85567Y41651D01*
X86357Y41324D01*
X87205Y41212D01*
X88053Y41324D01*
X88843Y41651D01*
X89521Y42172D01*
X90042Y42850D01*
X90369Y43640D01*
X90481Y44488D01*
X90369Y45336D01*
X90042Y46126D01*
X89521Y46805D01*
X88843Y47325D01*
X88053Y47653D01*
X87205Y47764D01*
D02*
G37*
G36*
X165256Y47075D02*
X164408Y46964D01*
X163618Y46636D01*
X162939Y46116D01*
X162419Y45437D01*
X162092Y44647D01*
X161980Y43799D01*
X162092Y42951D01*
X162419Y42161D01*
X162939Y41483D01*
X163618Y40962D01*
X164408Y40635D01*
X165256Y40523D01*
X166104Y40635D01*
X166894Y40962D01*
X167572Y41483D01*
X168093Y42161D01*
X168420Y42951D01*
X168532Y43799D01*
X168420Y44647D01*
X168093Y45437D01*
X167572Y46116D01*
X166894Y46636D01*
X166104Y46964D01*
X165256Y47075D01*
D02*
G37*
G36*
X96457Y38611D02*
X95609Y38499D01*
X94819Y38172D01*
X94140Y37651D01*
X93620Y36973D01*
X93292Y36182D01*
X93181Y35335D01*
X93292Y34487D01*
X93620Y33697D01*
X94140Y33018D01*
X94819Y32498D01*
X95609Y32170D01*
X96457Y32059D01*
X97305Y32170D01*
X98095Y32498D01*
X98773Y33018D01*
X99294Y33697D01*
X99621Y34487D01*
X99733Y35335D01*
X99621Y36182D01*
X99294Y36973D01*
X98773Y37651D01*
X98095Y38172D01*
X97305Y38499D01*
X96457Y38611D01*
D02*
G37*
G36*
X25197Y38020D02*
X24349Y37909D01*
X23559Y37581D01*
X22880Y37061D01*
X22360Y36382D01*
X22032Y35592D01*
X21921Y34744D01*
X22032Y33896D01*
X22360Y33106D01*
X22880Y32428D01*
X23559Y31907D01*
X24349Y31580D01*
X25197Y31468D01*
X26045Y31580D01*
X26835Y31907D01*
X27513Y32428D01*
X28034Y33106D01*
X28361Y33896D01*
X28473Y34744D01*
X28361Y35592D01*
X28034Y36382D01*
X27513Y37061D01*
X26835Y37581D01*
X26045Y37909D01*
X25197Y38020D01*
D02*
G37*
G36*
X136221Y44713D02*
X135373Y44601D01*
X134582Y44274D01*
X133904Y43753D01*
X133383Y43075D01*
X133056Y42285D01*
X132944Y41437D01*
X133056Y40589D01*
X133383Y39799D01*
X133904Y39121D01*
X134582Y38600D01*
X135373Y38273D01*
X136221Y38161D01*
X137068Y38273D01*
X137858Y38600D01*
X138537Y39121D01*
X139058Y39799D01*
X139385Y40589D01*
X139497Y41437D01*
X139385Y42285D01*
X139058Y43075D01*
X138537Y43753D01*
X137858Y44274D01*
X137068Y44601D01*
X136221Y44713D01*
D02*
G37*
G36*
X123819Y38611D02*
X122971Y38499D01*
X122181Y38172D01*
X121502Y37651D01*
X120982Y36973D01*
X120654Y36182D01*
X120543Y35335D01*
X120654Y34487D01*
X120982Y33697D01*
X121502Y33018D01*
X122181Y32498D01*
X122971Y32170D01*
X123819Y32059D01*
X124667Y32170D01*
X125457Y32498D01*
X126135Y33018D01*
X126656Y33697D01*
X126983Y34487D01*
X127095Y35335D01*
X126983Y36182D01*
X126656Y36973D01*
X126135Y37651D01*
X125457Y38172D01*
X124667Y38499D01*
X123819Y38611D01*
D02*
G37*
G36*
X52559Y44620D02*
X51557Y44488D01*
X50623Y44101D01*
X49821Y43486D01*
X49206Y42684D01*
X48819Y41750D01*
X48308Y41698D01*
X47835Y41760D01*
X46987Y41649D01*
X46197Y41321D01*
X45518Y40801D01*
X44998Y40122D01*
X44670Y39332D01*
X44559Y38484D01*
X44670Y37636D01*
X44998Y36846D01*
X45518Y36168D01*
X46197Y35647D01*
X46987Y35320D01*
X47835Y35208D01*
X48682Y35320D01*
X49473Y35647D01*
X50151Y36168D01*
X50672Y36846D01*
X50723Y36971D01*
X51185Y37162D01*
X51557Y37008D01*
X52559Y36876D01*
X53561Y37008D01*
X54495Y37395D01*
X55297Y38010D01*
X55912Y38812D01*
X56299Y39746D01*
X56431Y40748D01*
X56299Y41750D01*
X55912Y42684D01*
X55297Y43486D01*
X54495Y44101D01*
X53561Y44488D01*
X52559Y44620D01*
D02*
G37*
G36*
X40256Y53374D02*
X39408Y53263D01*
X38618Y52936D01*
X37939Y52415D01*
X37419Y51736D01*
X37091Y50946D01*
X36980Y50098D01*
X37091Y49251D01*
X37419Y48460D01*
X37939Y47782D01*
X38618Y47261D01*
X39408Y46934D01*
X40256Y46822D01*
X41104Y46934D01*
X41894Y47261D01*
X42572Y47782D01*
X43093Y48460D01*
X43420Y49251D01*
X43532Y50098D01*
X43420Y50946D01*
X43093Y51736D01*
X42572Y52415D01*
X41894Y52936D01*
X41104Y53263D01*
X40256Y53374D01*
D02*
G37*
G36*
X59500Y52776D02*
X58652Y52664D01*
X57862Y52337D01*
X57183Y51816D01*
X56663Y51138D01*
X56336Y50348D01*
X56224Y49500D01*
X56336Y48652D01*
X56663Y47862D01*
X57183Y47183D01*
X57862Y46663D01*
X58652Y46336D01*
X59500Y46224D01*
X60348Y46336D01*
X61138Y46663D01*
X61817Y47183D01*
X62337Y47862D01*
X62664Y48652D01*
X62776Y49500D01*
X62664Y50348D01*
X62337Y51138D01*
X61817Y51816D01*
X61138Y52337D01*
X60348Y52664D01*
X59500Y52776D01*
D02*
G37*
G36*
X41634Y62331D02*
X40786Y62220D01*
X39996Y61892D01*
X39317Y61372D01*
X38797Y60693D01*
X38469Y59903D01*
X38358Y59055D01*
X38469Y58207D01*
X38797Y57417D01*
X39317Y56739D01*
X39996Y56218D01*
X40786Y55891D01*
X41634Y55779D01*
X42336Y55872D01*
X42643Y55761D01*
X42927Y55534D01*
X43193Y54891D01*
X43714Y54212D01*
X44392Y53692D01*
X45182Y53364D01*
X46030Y53253D01*
X46878Y53364D01*
X47668Y53692D01*
X48347Y54212D01*
X48867Y54891D01*
X49195Y55681D01*
X49306Y56529D01*
X49195Y57377D01*
X48867Y58167D01*
X48347Y58845D01*
X47668Y59366D01*
X46878Y59693D01*
X46030Y59805D01*
X45328Y59712D01*
X44798Y59903D01*
X44471Y60693D01*
X43950Y61372D01*
X43272Y61892D01*
X42482Y62220D01*
X41634Y62331D01*
D02*
G37*
G36*
X97523Y57561D02*
X96521Y57429D01*
X95588Y57042D01*
X94786Y56427D01*
X94170Y55625D01*
X93784Y54691D01*
X93652Y53689D01*
X93784Y52687D01*
X94170Y51753D01*
X94786Y50951D01*
X95588Y50336D01*
X96521Y49949D01*
X97523Y49817D01*
X98526Y49949D01*
X99459Y50336D01*
X100261Y50951D01*
X100876Y51753D01*
X101263Y52687D01*
X101395Y53689D01*
X101263Y54691D01*
X100876Y55625D01*
X100261Y56427D01*
X99459Y57042D01*
X98526Y57429D01*
X97523Y57561D01*
D02*
G37*
G36*
X32283Y48650D02*
X31436Y48538D01*
X30645Y48211D01*
X29967Y47690D01*
X29446Y47012D01*
X29119Y46222D01*
X29007Y45374D01*
X29119Y44526D01*
X29446Y43736D01*
X29967Y43058D01*
X30645Y42537D01*
X31436Y42210D01*
X32283Y42098D01*
X33131Y42210D01*
X33922Y42537D01*
X34600Y43058D01*
X35121Y43736D01*
X35448Y44526D01*
X35559Y45374D01*
X35448Y46222D01*
X35121Y47012D01*
X34600Y47690D01*
X33922Y48211D01*
X33131Y48538D01*
X32283Y48650D01*
D02*
G37*
G36*
X67913Y48553D02*
X67040Y48438D01*
X66226Y48100D01*
X65527Y47564D01*
X64990Y46865D01*
X64653Y46051D01*
X64538Y45177D01*
X64653Y44304D01*
X64990Y43490D01*
X65527Y42790D01*
X66226Y42254D01*
X67040Y41917D01*
X67913Y41802D01*
X68787Y41917D01*
X69601Y42254D01*
X70300Y42790D01*
X70837Y43490D01*
X71174Y44304D01*
X71289Y45177D01*
X71174Y46051D01*
X70837Y46865D01*
X70300Y47564D01*
X69601Y48100D01*
X68787Y48438D01*
X67913Y48553D01*
D02*
G37*
G36*
X24803Y50126D02*
X23955Y50015D01*
X23165Y49687D01*
X22487Y49167D01*
X21966Y48488D01*
X21639Y47698D01*
X21527Y46850D01*
X21639Y46003D01*
X21966Y45212D01*
X22487Y44534D01*
X23165Y44013D01*
X23955Y43686D01*
X24803Y43574D01*
X25651Y43686D01*
X26441Y44013D01*
X27120Y44534D01*
X27640Y45212D01*
X27968Y46003D01*
X28079Y46850D01*
X27968Y47698D01*
X27640Y48488D01*
X27120Y49167D01*
X26441Y49687D01*
X25651Y50015D01*
X24803Y50126D01*
D02*
G37*
G36*
X113189Y49339D02*
X112341Y49227D01*
X111551Y48900D01*
X110872Y48379D01*
X110352Y47701D01*
X110025Y46911D01*
X109913Y46063D01*
X110025Y45215D01*
X110352Y44425D01*
X110634Y44058D01*
X110413Y43524D01*
X110373Y43519D01*
X109582Y43191D01*
X108904Y42671D01*
X108383Y41992D01*
X108056Y41202D01*
X107944Y40354D01*
X108056Y39506D01*
X108383Y38716D01*
X108904Y38038D01*
X109582Y37517D01*
X110373Y37190D01*
X111221Y37078D01*
X112068Y37190D01*
X112858Y37517D01*
X113537Y38038D01*
X114058Y38716D01*
X114385Y39506D01*
X114497Y40354D01*
X114385Y41202D01*
X114058Y41992D01*
X113776Y42360D01*
X113997Y42893D01*
X114037Y42899D01*
X114437Y43064D01*
X114996Y42635D01*
X115786Y42308D01*
X116634Y42196D01*
X117482Y42308D01*
X118272Y42635D01*
X118950Y43156D01*
X119471Y43834D01*
X119798Y44625D01*
X119910Y45472D01*
X119798Y46320D01*
X119471Y47111D01*
X118950Y47789D01*
X118272Y48310D01*
X117482Y48637D01*
X116634Y48748D01*
X115786Y48637D01*
X115386Y48471D01*
X114827Y48900D01*
X114037Y49227D01*
X113189Y49339D01*
D02*
G37*
G36*
X145374Y19910D02*
X144526Y19798D01*
X143736Y19471D01*
X143058Y18950D01*
X142537Y18272D01*
X142210Y17482D01*
X142190Y17334D01*
X141888Y17232D01*
X141672Y17230D01*
X141195Y17853D01*
X140516Y18373D01*
X139726Y18701D01*
X138878Y18812D01*
X138030Y18701D01*
X137240Y18373D01*
X136562Y17853D01*
X136041Y17174D01*
X135714Y16384D01*
X135602Y15536D01*
X135714Y14688D01*
X136041Y13898D01*
X136562Y13220D01*
X137240Y12699D01*
X138030Y12372D01*
X138878Y12260D01*
X139726Y12372D01*
X140516Y12699D01*
X141195Y13220D01*
X141715Y13898D01*
X142043Y14688D01*
X142062Y14836D01*
X142364Y14938D01*
X142580Y14940D01*
X143058Y14317D01*
X143736Y13797D01*
X144526Y13469D01*
X145374Y13358D01*
X146222Y13469D01*
X147012Y13797D01*
X147690Y14317D01*
X148211Y14996D01*
X148538Y15786D01*
X148650Y16634D01*
X148538Y17482D01*
X148211Y18272D01*
X147690Y18950D01*
X147012Y19471D01*
X146222Y19798D01*
X145374Y19910D01*
D02*
G37*
G36*
X96161Y20599D02*
X95314Y20487D01*
X94523Y20160D01*
X93845Y19639D01*
X93324Y18961D01*
X92997Y18171D01*
X92885Y17323D01*
X92904Y17183D01*
X92574Y16807D01*
X90577D01*
X90566Y16891D01*
X90239Y17681D01*
X89718Y18360D01*
X89040Y18880D01*
X88249Y19208D01*
X87402Y19319D01*
X86554Y19208D01*
X85764Y18880D01*
X85085Y18360D01*
X84564Y17681D01*
X84237Y16891D01*
X84126Y16043D01*
X84237Y15195D01*
X84564Y14405D01*
X85085Y13727D01*
X85764Y13206D01*
X86554Y12879D01*
X87402Y12767D01*
X88249Y12879D01*
X88593Y13021D01*
X89093Y12687D01*
Y5193D01*
X100707D01*
Y6282D01*
X101207Y6518D01*
X101658Y6148D01*
X102667Y5609D01*
X103762Y5277D01*
X104900Y5165D01*
X106038Y5277D01*
X107133Y5609D01*
X108142Y6148D01*
X109026Y6874D01*
X109588Y7559D01*
X109666Y7592D01*
X110134Y7592D01*
X110212Y7559D01*
X110774Y6874D01*
X111658Y6148D01*
X112667Y5609D01*
X113762Y5277D01*
X114900Y5165D01*
X116038Y5277D01*
X117133Y5609D01*
X118142Y6148D01*
X119026Y6874D01*
X119588Y7559D01*
X119666Y7592D01*
X120134Y7592D01*
X120212Y7559D01*
X120774Y6874D01*
X121658Y6148D01*
X122667Y5609D01*
X123762Y5277D01*
X124900Y5165D01*
X126038Y5277D01*
X127133Y5609D01*
X128142Y6148D01*
X129026Y6874D01*
X129752Y7758D01*
X130291Y8767D01*
X130623Y9862D01*
X130735Y11000D01*
X130623Y12138D01*
X130291Y13233D01*
X129808Y14137D01*
X130171Y14416D01*
X130692Y15094D01*
X131019Y15884D01*
X131130Y16732D01*
X131019Y17580D01*
X130692Y18370D01*
X130171Y19049D01*
X129492Y19569D01*
X128702Y19897D01*
X127854Y20008D01*
X127006Y19897D01*
X126216Y19569D01*
X125538Y19049D01*
X125017Y18370D01*
X124690Y17580D01*
X124588Y16804D01*
X123762Y16723D01*
X122667Y16391D01*
X121658Y15852D01*
X120774Y15126D01*
X120212Y14442D01*
X120134Y14408D01*
X119666Y14408D01*
X119588Y14442D01*
X119026Y15126D01*
X118142Y15852D01*
X117133Y16391D01*
X116038Y16723D01*
X114900Y16835D01*
X113762Y16723D01*
X112667Y16391D01*
X111658Y15852D01*
X110774Y15126D01*
X110212Y14442D01*
X110134Y14408D01*
X109666Y14408D01*
X109588Y14442D01*
X109026Y15126D01*
X108142Y15852D01*
X107133Y16391D01*
X106038Y16723D01*
X104900Y16835D01*
X103762Y16723D01*
X102667Y16391D01*
X101658Y15852D01*
X101207Y15482D01*
X100707Y15718D01*
Y16807D01*
X99749D01*
X99419Y17183D01*
X99437Y17323D01*
X99326Y18171D01*
X98998Y18961D01*
X98478Y19639D01*
X97799Y20160D01*
X97009Y20487D01*
X96161Y20599D01*
D02*
G37*
G36*
X112795Y35363D02*
X111947Y35251D01*
X111157Y34924D01*
X110479Y34403D01*
X109958Y33725D01*
X109631Y32934D01*
X109519Y32087D01*
X109631Y31239D01*
X109958Y30449D01*
X110479Y29770D01*
X111157Y29250D01*
X111947Y28922D01*
X112428Y28859D01*
X112374Y28445D01*
X112485Y27597D01*
X112812Y26807D01*
X113333Y26128D01*
X114012Y25608D01*
X114802Y25280D01*
X115650Y25169D01*
X116498Y25280D01*
X117288Y25608D01*
X117966Y26128D01*
X118423Y26724D01*
X118731Y26701D01*
X118943Y26610D01*
X118981Y26318D01*
X119098Y26035D01*
X118845Y25840D01*
X118324Y25162D01*
X117997Y24372D01*
X117885Y23524D01*
X117997Y22676D01*
X118324Y21886D01*
X118845Y21207D01*
X119523Y20686D01*
X120314Y20359D01*
X121161Y20248D01*
X122009Y20359D01*
X122799Y20686D01*
X123478Y21207D01*
X123999Y21886D01*
X124326Y22676D01*
X124437Y23524D01*
X124326Y24372D01*
X124209Y24654D01*
X124462Y24849D01*
X124983Y25527D01*
X125310Y26318D01*
X125422Y27165D01*
X125310Y28013D01*
X124983Y28803D01*
X124462Y29482D01*
X123784Y30002D01*
X122994Y30330D01*
X122146Y30441D01*
X121298Y30330D01*
X120508Y30002D01*
X119829Y29482D01*
X119372Y28886D01*
X119065Y28909D01*
X118852Y29001D01*
X118814Y29293D01*
X118487Y30083D01*
X117966Y30761D01*
X117288Y31282D01*
X116498Y31609D01*
X116017Y31673D01*
X116071Y32087D01*
X115960Y32934D01*
X115632Y33725D01*
X115112Y34403D01*
X114433Y34924D01*
X113643Y35251D01*
X112795Y35363D01*
D02*
G37*
G36*
X62106Y29949D02*
X61258Y29838D01*
X60468Y29510D01*
X59790Y28990D01*
X59269Y28311D01*
X58942Y27521D01*
X58830Y26673D01*
X58942Y25825D01*
X59269Y25035D01*
X59790Y24357D01*
X60020Y24180D01*
X59564Y23587D01*
X59237Y22797D01*
X59126Y21949D01*
X59237Y21101D01*
X59564Y20311D01*
X60085Y19632D01*
X60764Y19112D01*
X61554Y18784D01*
X62402Y18673D01*
X63249Y18784D01*
X64040Y19112D01*
X64718Y19632D01*
X65239Y20311D01*
X65566Y21101D01*
X65678Y21949D01*
X65566Y22797D01*
X65239Y23587D01*
X64718Y24265D01*
X64488Y24442D01*
X64943Y25035D01*
X65271Y25825D01*
X65382Y26673D01*
X65271Y27521D01*
X64943Y28311D01*
X64423Y28990D01*
X63744Y29510D01*
X62954Y29838D01*
X62106Y29949D01*
D02*
G37*
G36*
X30413Y14004D02*
X29566Y13893D01*
X28775Y13566D01*
X28097Y13045D01*
X27576Y12366D01*
X27249Y11576D01*
X27137Y10728D01*
X27249Y9881D01*
X27576Y9090D01*
X28097Y8412D01*
X28775Y7891D01*
X29566Y7564D01*
X30413Y7452D01*
X31261Y7564D01*
X32051Y7891D01*
X32730Y8412D01*
X33250Y9090D01*
X33578Y9881D01*
X33689Y10728D01*
X33578Y11576D01*
X33250Y12366D01*
X32730Y13045D01*
X32051Y13566D01*
X31261Y13893D01*
X30413Y14004D01*
D02*
G37*
G36*
X36417Y20008D02*
X35569Y19897D01*
X34779Y19569D01*
X34101Y19049D01*
X33580Y18370D01*
X33253Y17580D01*
X33141Y16732D01*
X33253Y15884D01*
X33580Y15094D01*
X34101Y14416D01*
X34779Y13895D01*
X35569Y13568D01*
X36417Y13456D01*
X37265Y13568D01*
X38055Y13895D01*
X38593Y14308D01*
X39093Y14114D01*
Y5193D01*
X50707D01*
Y6282D01*
X51207Y6518D01*
X51658Y6148D01*
X52667Y5609D01*
X53762Y5277D01*
X54900Y5165D01*
X56038Y5277D01*
X57133Y5609D01*
X58142Y6148D01*
X59026Y6874D01*
X59752Y7758D01*
X60291Y8767D01*
X60623Y9862D01*
X60735Y11000D01*
X60623Y12138D01*
X60291Y13233D01*
X59752Y14242D01*
X59026Y15126D01*
X58142Y15852D01*
X57133Y16391D01*
X56038Y16723D01*
X54900Y16835D01*
X53762Y16723D01*
X52667Y16391D01*
X51658Y15852D01*
X51207Y15482D01*
X50707Y15718D01*
Y16807D01*
X39683D01*
X39582Y17580D01*
X39255Y18370D01*
X38734Y19049D01*
X38055Y19569D01*
X37265Y19897D01*
X36417Y20008D01*
D02*
G37*
G36*
X25000Y20205D02*
X24152Y20094D01*
X23362Y19766D01*
X22683Y19246D01*
X22163Y18567D01*
X21836Y17777D01*
X21724Y16929D01*
X21836Y16081D01*
X22163Y15291D01*
X22683Y14613D01*
X23362Y14092D01*
X24152Y13765D01*
X25000Y13653D01*
X25848Y13765D01*
X26638Y14092D01*
X27316Y14613D01*
X27837Y15291D01*
X28164Y16081D01*
X28276Y16929D01*
X28164Y17777D01*
X27837Y18567D01*
X27316Y19246D01*
X26638Y19766D01*
X25848Y20094D01*
X25000Y20205D01*
D02*
G37*
G36*
X164961Y19812D02*
X164113Y19700D01*
X163323Y19373D01*
X162644Y18852D01*
X162124Y18173D01*
X161796Y17383D01*
X161685Y16535D01*
X161796Y15687D01*
X162124Y14897D01*
X162644Y14219D01*
X163323Y13698D01*
X164113Y13371D01*
X164961Y13259D01*
X165808Y13371D01*
X166599Y13698D01*
X167277Y14219D01*
X167798Y14897D01*
X168125Y15687D01*
X168237Y16535D01*
X168125Y17383D01*
X167798Y18173D01*
X167277Y18852D01*
X166599Y19373D01*
X165808Y19700D01*
X164961Y19812D01*
D02*
G37*
G36*
X150230Y27948D02*
X149382Y27836D01*
X148592Y27509D01*
X147913Y26988D01*
X147393Y26310D01*
X147065Y25520D01*
X146954Y24672D01*
X147065Y23824D01*
X147393Y23034D01*
X147913Y22355D01*
X148592Y21835D01*
X149382Y21507D01*
X150230Y21396D01*
X151078Y21507D01*
X151868Y21835D01*
X152546Y22355D01*
X152603Y22429D01*
X153169Y22345D01*
X153589Y21798D01*
X154268Y21277D01*
X155058Y20950D01*
X155905Y20838D01*
X156753Y20950D01*
X157544Y21277D01*
X158222Y21798D01*
X158743Y22476D01*
X159070Y23266D01*
X159182Y24114D01*
X159070Y24962D01*
X158743Y25752D01*
X158222Y26431D01*
X157544Y26951D01*
X156753Y27279D01*
X155905Y27390D01*
X155058Y27279D01*
X154268Y26951D01*
X153589Y26431D01*
X153533Y26357D01*
X152966Y26441D01*
X152546Y26988D01*
X151868Y27509D01*
X151078Y27836D01*
X150230Y27948D01*
D02*
G37*
G36*
X87303Y29752D02*
X86455Y29641D01*
X85665Y29313D01*
X84987Y28793D01*
X84466Y28114D01*
X84139Y27324D01*
X84027Y26476D01*
X84139Y25629D01*
X84466Y24838D01*
X84987Y24160D01*
X85665Y23639D01*
X86455Y23312D01*
X87303Y23200D01*
X88151Y23312D01*
X88941Y23639D01*
X89620Y24160D01*
X90140Y24838D01*
X90468Y25629D01*
X90579Y26476D01*
X90468Y27324D01*
X90140Y28114D01*
X89620Y28793D01*
X88941Y29313D01*
X88151Y29641D01*
X87303Y29752D01*
D02*
G37*
G36*
X25197Y29162D02*
X24349Y29050D01*
X23559Y28723D01*
X22880Y28202D01*
X22360Y27524D01*
X22032Y26734D01*
X21921Y25886D01*
X22032Y25038D01*
X22360Y24248D01*
X22880Y23569D01*
X23559Y23049D01*
X24349Y22721D01*
X25197Y22610D01*
X26045Y22721D01*
X26835Y23049D01*
X27513Y23569D01*
X28034Y24248D01*
X28361Y25038D01*
X28473Y25886D01*
X28361Y26734D01*
X28034Y27524D01*
X27513Y28202D01*
X26835Y28723D01*
X26045Y29050D01*
X25197Y29162D01*
D02*
G37*
G36*
X87402Y37626D02*
X86554Y37515D01*
X85764Y37187D01*
X85085Y36667D01*
X84564Y35988D01*
X84237Y35198D01*
X84126Y34350D01*
X84237Y33503D01*
X84564Y32712D01*
X85085Y32034D01*
X85764Y31513D01*
X86554Y31186D01*
X87402Y31074D01*
X88249Y31186D01*
X89040Y31513D01*
X89718Y32034D01*
X90239Y32712D01*
X90566Y33503D01*
X90678Y34350D01*
X90566Y35198D01*
X90239Y35988D01*
X89718Y36667D01*
X89040Y37187D01*
X88249Y37515D01*
X87402Y37626D01*
D02*
G37*
G36*
X155850Y36642D02*
X155002Y36531D01*
X154212Y36203D01*
X153534Y35683D01*
X153013Y35004D01*
X152686Y34214D01*
X152574Y33366D01*
X152686Y32518D01*
X153013Y31728D01*
X153534Y31050D01*
X154212Y30529D01*
X155002Y30202D01*
X155850Y30090D01*
X156698Y30202D01*
X157488Y30529D01*
X158167Y31050D01*
X158687Y31728D01*
X159015Y32518D01*
X159126Y33366D01*
X159015Y34214D01*
X158687Y35004D01*
X158167Y35683D01*
X157488Y36203D01*
X156698Y36531D01*
X155850Y36642D01*
D02*
G37*
G36*
X96358Y28753D02*
X95510Y28642D01*
X94720Y28314D01*
X94042Y27794D01*
X93521Y27115D01*
X93194Y26325D01*
X93082Y25477D01*
X93194Y24629D01*
X93521Y23839D01*
X94042Y23161D01*
X94720Y22640D01*
X95510Y22313D01*
X96358Y22201D01*
X97206Y22313D01*
X97996Y22640D01*
X98675Y23161D01*
X99195Y23839D01*
X99523Y24629D01*
X99634Y25477D01*
X99523Y26325D01*
X99195Y27115D01*
X98675Y27794D01*
X97996Y28314D01*
X97206Y28642D01*
X96358Y28753D01*
D02*
G37*
G36*
X50000Y31426D02*
X49152Y31314D01*
X48362Y30987D01*
X47684Y30466D01*
X47163Y29788D01*
X46836Y28997D01*
X46724Y28150D01*
X46836Y27302D01*
X47163Y26512D01*
X47684Y25833D01*
X48362Y25313D01*
X49152Y24985D01*
X49174Y24982D01*
X49086Y24311D01*
X49198Y23463D01*
X49525Y22673D01*
X50046Y21994D01*
X50724Y21474D01*
X51514Y21147D01*
X52362Y21035D01*
X53210Y21147D01*
X54000Y21474D01*
X54679Y21994D01*
X55199Y22673D01*
X55527Y23463D01*
X55638Y24311D01*
X55527Y25159D01*
X55199Y25949D01*
X54679Y26627D01*
X54000Y27148D01*
X53210Y27475D01*
X53188Y27478D01*
X53276Y28150D01*
X53164Y28997D01*
X52837Y29788D01*
X52316Y30466D01*
X51638Y30987D01*
X50848Y31314D01*
X50000Y31426D01*
D02*
G37*
G36*
X36319Y29063D02*
X35471Y28952D01*
X34681Y28624D01*
X34002Y28104D01*
X33482Y27425D01*
X33154Y26635D01*
X33043Y25787D01*
X33154Y24939D01*
X33482Y24149D01*
X34002Y23471D01*
X34681Y22950D01*
X35471Y22623D01*
X36319Y22511D01*
X37167Y22623D01*
X37957Y22950D01*
X38635Y23471D01*
X39156Y24149D01*
X39483Y24939D01*
X39595Y25787D01*
X39483Y26635D01*
X39156Y27425D01*
X38635Y28104D01*
X37957Y28624D01*
X37167Y28952D01*
X36319Y29063D01*
D02*
G37*
G36*
X136417Y28867D02*
X135569Y28755D01*
X134779Y28428D01*
X134101Y27907D01*
X133580Y27229D01*
X133253Y26439D01*
X133141Y25591D01*
X133253Y24743D01*
X133580Y23953D01*
X134101Y23274D01*
X134779Y22753D01*
X135569Y22426D01*
X136417Y22314D01*
X137265Y22426D01*
X138055Y22753D01*
X138734Y23274D01*
X139254Y23953D01*
X139582Y24743D01*
X139693Y25591D01*
X139582Y26439D01*
X139254Y27229D01*
X138734Y27907D01*
X138055Y28428D01*
X137265Y28755D01*
X136417Y28867D01*
D02*
G37*
G36*
X157500Y76472D02*
X156498Y76340D01*
X155564Y75953D01*
X154762Y75338D01*
X154147Y74536D01*
X153760Y73602D01*
X153628Y72600D01*
X153760Y71598D01*
X154049Y70900D01*
X153760Y70202D01*
X153628Y69200D01*
X153760Y68198D01*
X154029Y67550D01*
X153760Y66902D01*
X153628Y65900D01*
X153760Y64898D01*
X154049Y64200D01*
X153760Y63502D01*
X153628Y62500D01*
X153760Y61498D01*
X154147Y60564D01*
X154762Y59762D01*
X155564Y59147D01*
X156498Y58760D01*
X157500Y58628D01*
X158502Y58760D01*
X159436Y59147D01*
X160238Y59762D01*
X160853Y60564D01*
X161240Y61498D01*
X161372Y62500D01*
X161240Y63502D01*
X160951Y64200D01*
X161240Y64898D01*
X161372Y65900D01*
X161240Y66902D01*
X160971Y67550D01*
X161240Y68198D01*
X161372Y69200D01*
X161240Y70202D01*
X160951Y70900D01*
X161240Y71598D01*
X161372Y72600D01*
X161240Y73602D01*
X160853Y74536D01*
X160238Y75338D01*
X159436Y75953D01*
X158502Y76340D01*
X157500Y76472D01*
D02*
G37*
G36*
X29429Y126701D02*
X28581Y126590D01*
X27791Y126262D01*
X27113Y125742D01*
X26592Y125063D01*
X26265Y124273D01*
X26153Y123425D01*
X26265Y122577D01*
X26592Y121787D01*
X27113Y121109D01*
X27791Y120588D01*
X28581Y120261D01*
X29429Y120149D01*
X30277Y120261D01*
X31067Y120588D01*
X31746Y121109D01*
X32266Y121787D01*
X32594Y122577D01*
X32705Y123425D01*
X32594Y124273D01*
X32266Y125063D01*
X31746Y125742D01*
X31067Y126262D01*
X30277Y126590D01*
X29429Y126701D01*
D02*
G37*
G36*
X83268Y120993D02*
X82420Y120881D01*
X81630Y120554D01*
X80951Y120033D01*
X80431Y119355D01*
X80103Y118564D01*
X79992Y117717D01*
X80103Y116869D01*
X80431Y116078D01*
X80951Y115400D01*
X81630Y114879D01*
X82420Y114552D01*
X83268Y114441D01*
X84116Y114552D01*
X84906Y114879D01*
X85584Y115400D01*
X86105Y116078D01*
X86432Y116869D01*
X86544Y117717D01*
X86432Y118564D01*
X86105Y119355D01*
X85584Y120033D01*
X84906Y120554D01*
X84116Y120881D01*
X83268Y120993D01*
D02*
G37*
G36*
X51575Y160958D02*
X50573Y160826D01*
X49803Y160508D01*
X49034Y160826D01*
X48031Y160958D01*
X47029Y160826D01*
X46260Y160508D01*
X45490Y160826D01*
X44488Y160958D01*
X43486Y160826D01*
X42717Y160508D01*
X41947Y160826D01*
X40945Y160958D01*
X39943Y160826D01*
X39009Y160440D01*
X38207Y159824D01*
X37592Y159022D01*
X37205Y158089D01*
X37073Y157087D01*
X37205Y156085D01*
X37524Y155315D01*
X37205Y154545D01*
X37073Y153543D01*
X37205Y152541D01*
X37524Y151772D01*
X37205Y151002D01*
X37073Y150000D01*
X37205Y148998D01*
X37524Y148228D01*
X37205Y147459D01*
X37073Y146457D01*
X37205Y145455D01*
X37592Y144521D01*
X38207Y143719D01*
X39009Y143104D01*
X39943Y142717D01*
X40945Y142585D01*
X41947Y142717D01*
X42717Y143036D01*
X43486Y142717D01*
X44488Y142585D01*
X45490Y142717D01*
X46260Y143036D01*
X47029Y142717D01*
X48031Y142585D01*
X49034Y142717D01*
X49803Y143036D01*
X50573Y142717D01*
X51575Y142585D01*
X52577Y142717D01*
X53511Y143104D01*
X54312Y143719D01*
X54928Y144521D01*
X55315Y145455D01*
X55446Y146457D01*
X55315Y147459D01*
X54996Y148228D01*
X55315Y148998D01*
X55446Y150000D01*
X55315Y151002D01*
X54996Y151772D01*
X55315Y152541D01*
X55446Y153543D01*
X55315Y154545D01*
X54996Y155315D01*
X55315Y156085D01*
X55446Y157087D01*
X55315Y158089D01*
X54928Y159022D01*
X54312Y159824D01*
X53511Y160440D01*
X52577Y160826D01*
X51575Y160958D01*
D02*
G37*
G36*
X85730Y160872D02*
X84728Y160740D01*
X83958Y160421D01*
X83189Y160740D01*
X82187Y160872D01*
X81185Y160740D01*
X80415Y160421D01*
X79645Y160740D01*
X78643Y160872D01*
X77641Y160740D01*
X76872Y160421D01*
X76102Y160740D01*
X75100Y160872D01*
X74098Y160740D01*
X73164Y160353D01*
X72362Y159738D01*
X71747Y158936D01*
X71360Y158002D01*
X71228Y157000D01*
X71360Y155998D01*
X71679Y155228D01*
X71360Y154459D01*
X71228Y153457D01*
X71360Y152455D01*
X71679Y151685D01*
X71360Y150916D01*
X71228Y149913D01*
X71360Y148911D01*
X71679Y148142D01*
X71360Y147372D01*
X71228Y146370D01*
X71360Y145368D01*
X71747Y144434D01*
X72362Y143632D01*
X73164Y143017D01*
X74098Y142630D01*
X75100Y142498D01*
X76102Y142630D01*
X76872Y142949D01*
X77641Y142630D01*
X78643Y142498D01*
X79645Y142630D01*
X80415Y142949D01*
X81185Y142630D01*
X82187Y142498D01*
X83189Y142630D01*
X83958Y142949D01*
X84728Y142630D01*
X85730Y142498D01*
X86732Y142630D01*
X87666Y143017D01*
X88468Y143632D01*
X89083Y144434D01*
X89470Y145368D01*
X89602Y146370D01*
X89470Y147372D01*
X89151Y148142D01*
X89470Y148911D01*
X89602Y149913D01*
X89470Y150916D01*
X89151Y151685D01*
X89470Y152455D01*
X89602Y153457D01*
X89470Y154459D01*
X89151Y155228D01*
X89470Y155998D01*
X89602Y157000D01*
X89470Y158002D01*
X89083Y158936D01*
X88468Y159738D01*
X87666Y160353D01*
X86732Y160740D01*
X85730Y160872D01*
D02*
G37*
G36*
X43500Y111976D02*
X42652Y111864D01*
X41862Y111537D01*
X41184Y111016D01*
X40663Y110338D01*
X40336Y109548D01*
X40224Y108700D01*
X40336Y107852D01*
X40663Y107062D01*
X41184Y106384D01*
X41862Y105863D01*
X42652Y105536D01*
X43500Y105424D01*
X44348Y105536D01*
X45138Y105863D01*
X45816Y106384D01*
X46337Y107062D01*
X46664Y107852D01*
X46776Y108700D01*
X46664Y109548D01*
X46337Y110338D01*
X45816Y111016D01*
X45138Y111537D01*
X44348Y111864D01*
X43500Y111976D01*
D02*
G37*
G36*
X135401Y105276D02*
X134553Y105164D01*
X133763Y104837D01*
X133084Y104316D01*
X132564Y103638D01*
X132236Y102848D01*
X132125Y102000D01*
X132236Y101152D01*
X132564Y100362D01*
X133084Y99683D01*
X133763Y99163D01*
X134553Y98836D01*
X135401Y98724D01*
X136249Y98836D01*
X137039Y99163D01*
X137717Y99683D01*
X138238Y100362D01*
X138565Y101152D01*
X138677Y102000D01*
X138565Y102848D01*
X138238Y103638D01*
X137717Y104316D01*
X137039Y104837D01*
X136249Y105164D01*
X135401Y105276D01*
D02*
G37*
G36*
X33071Y119319D02*
X32223Y119208D01*
X31433Y118880D01*
X30754Y118360D01*
X30234Y117681D01*
X29906Y116891D01*
X29795Y116043D01*
X29906Y115195D01*
X30234Y114405D01*
X30754Y113727D01*
X31433Y113206D01*
X32223Y112879D01*
X33071Y112767D01*
X33919Y112879D01*
X34709Y113206D01*
X35387Y113727D01*
X35908Y114405D01*
X36235Y115195D01*
X36347Y116043D01*
X36235Y116891D01*
X35908Y117681D01*
X35387Y118360D01*
X34709Y118880D01*
X33919Y119208D01*
X33071Y119319D01*
D02*
G37*
G36*
X105928Y118156D02*
X105080Y118044D01*
X104290Y117717D01*
X103611Y117197D01*
X103091Y116518D01*
X102891Y116037D01*
X102410Y115837D01*
X101731Y115316D01*
X101211Y114638D01*
X100883Y113848D01*
X100772Y113000D01*
X100883Y112152D01*
X101211Y111362D01*
X101731Y110684D01*
X102410Y110163D01*
X103200Y109836D01*
X104048Y109724D01*
X104896Y109836D01*
X105686Y110163D01*
X106365Y110684D01*
X106885Y111362D01*
X107085Y111843D01*
X107566Y112043D01*
X108244Y112563D01*
X108765Y113242D01*
X109092Y114032D01*
X109204Y114880D01*
X109092Y115728D01*
X108765Y116518D01*
X108244Y117197D01*
X107566Y117717D01*
X106776Y118044D01*
X105928Y118156D01*
D02*
G37*
G36*
X182030Y161302D02*
X181028Y161170D01*
X180258Y160851D01*
X179489Y161170D01*
X178487Y161302D01*
X177485Y161170D01*
X176715Y160851D01*
X175945Y161170D01*
X174943Y161302D01*
X173941Y161170D01*
X173172Y160851D01*
X172402Y161170D01*
X171400Y161302D01*
X170398Y161170D01*
X169464Y160783D01*
X168662Y160168D01*
X168047Y159366D01*
X167660Y158432D01*
X167528Y157430D01*
X167660Y156428D01*
X167979Y155658D01*
X167660Y154889D01*
X167528Y153887D01*
X167660Y152884D01*
X167979Y152115D01*
X167660Y151345D01*
X167528Y150343D01*
X167660Y149341D01*
X167979Y148572D01*
X167660Y147802D01*
X167528Y146800D01*
X167660Y145798D01*
X168047Y144864D01*
X168662Y144062D01*
X169464Y143447D01*
X170398Y143060D01*
X171400Y142928D01*
X172402Y143060D01*
X173172Y143379D01*
X173941Y143060D01*
X174943Y142928D01*
X175945Y143060D01*
X176715Y143379D01*
X177485Y143060D01*
X178487Y142928D01*
X179489Y143060D01*
X180258Y143379D01*
X181028Y143060D01*
X182030Y142928D01*
X183032Y143060D01*
X183966Y143447D01*
X184768Y144062D01*
X185383Y144864D01*
X185770Y145798D01*
X185902Y146800D01*
X185770Y147802D01*
X185451Y148572D01*
X185770Y149341D01*
X185902Y150343D01*
X185770Y151345D01*
X185451Y152115D01*
X185770Y152884D01*
X185902Y153887D01*
X185770Y154889D01*
X185451Y155658D01*
X185770Y156428D01*
X185902Y157430D01*
X185770Y158432D01*
X185383Y159366D01*
X184768Y160168D01*
X183966Y160783D01*
X183032Y161170D01*
X182030Y161302D01*
D02*
G37*
G36*
X160201Y186998D02*
X159199Y186866D01*
X158265Y186479D01*
X158233Y186454D01*
X158200Y186479D01*
X157266Y186866D01*
X156264Y186998D01*
X155262Y186866D01*
X154328Y186479D01*
X154296Y186454D01*
X154263Y186479D01*
X153329Y186866D01*
X152327Y186998D01*
X151325Y186866D01*
X150391Y186479D01*
X149589Y185864D01*
X148974Y185062D01*
X148587Y184129D01*
X148455Y183126D01*
X148467Y183038D01*
X148009Y182687D01*
X147424Y182929D01*
X146422Y183061D01*
X145420Y182929D01*
X144486Y182543D01*
X143684Y181927D01*
X143069Y181125D01*
X142682Y180192D01*
X142550Y179190D01*
X142682Y178187D01*
X143069Y177254D01*
X143684Y176452D01*
X144486Y175837D01*
X144590Y175794D01*
X144518Y175252D01*
X144650Y174250D01*
X145037Y173317D01*
X145652Y172515D01*
X145845Y172367D01*
X145715Y171884D01*
X145455Y171850D01*
X144685Y171531D01*
X143915Y171850D01*
X142913Y171982D01*
X141911Y171850D01*
X141142Y171531D01*
X140372Y171850D01*
X139370Y171982D01*
X138368Y171850D01*
X137434Y171463D01*
X136632Y170848D01*
X136017Y170046D01*
X135630Y169112D01*
X135498Y168110D01*
X135630Y167108D01*
X135949Y166339D01*
X135630Y165569D01*
X135498Y164567D01*
X135630Y163565D01*
X135949Y162795D01*
X135630Y162026D01*
X135498Y161024D01*
X135630Y160022D01*
X135949Y159252D01*
X135630Y158482D01*
X135498Y157480D01*
X135630Y156478D01*
X136017Y155544D01*
X136632Y154743D01*
X137434Y154127D01*
X138368Y153741D01*
X139370Y153609D01*
X140372Y153741D01*
X141142Y154059D01*
X141911Y153741D01*
X142913Y153609D01*
X143915Y153741D01*
X144685Y154059D01*
X145455Y153741D01*
X146457Y153609D01*
X147459Y153741D01*
X148228Y154059D01*
X148998Y153741D01*
X150000Y153609D01*
X151002Y153741D01*
X151936Y154127D01*
X152738Y154743D01*
X153353Y155544D01*
X153740Y156478D01*
X153872Y157480D01*
X153740Y158482D01*
X153421Y159252D01*
X153740Y160022D01*
X153872Y161024D01*
X153740Y162026D01*
X153421Y162795D01*
X153740Y163565D01*
X153872Y164567D01*
X153740Y165569D01*
X153421Y166339D01*
X153740Y167108D01*
X153872Y168110D01*
X153740Y169112D01*
X153353Y170046D01*
X152738Y170848D01*
X152646Y170918D01*
X152786Y171441D01*
X153329Y171513D01*
X154263Y171899D01*
X155065Y172515D01*
X155680Y173317D01*
X156067Y174250D01*
X156199Y175252D01*
X156187Y175341D01*
X156645Y175692D01*
X157231Y175450D01*
X158233Y175318D01*
X159235Y175450D01*
X160169Y175837D01*
X160201Y175862D01*
X160234Y175837D01*
X161168Y175450D01*
X162170Y175318D01*
X163172Y175450D01*
X164105Y175837D01*
X164138Y175862D01*
X164171Y175837D01*
X165105Y175450D01*
X166107Y175318D01*
X167109Y175450D01*
X167694Y175692D01*
X168152Y175341D01*
X168140Y175252D01*
X168272Y174250D01*
X168659Y173317D01*
X169274Y172515D01*
X170076Y171899D01*
X171010Y171513D01*
X172012Y171381D01*
X173014Y171513D01*
X173948Y171899D01*
X173981Y171925D01*
X174013Y171899D01*
X174947Y171513D01*
X175949Y171381D01*
X176951Y171513D01*
X177885Y171899D01*
X177918Y171925D01*
X177950Y171899D01*
X178884Y171513D01*
X179886Y171381D01*
X180888Y171513D01*
X181822Y171899D01*
X182624Y172515D01*
X183239Y173317D01*
X183626Y174250D01*
X183758Y175252D01*
X183626Y176255D01*
X183239Y177188D01*
X182624Y177990D01*
X181822Y178605D01*
X180888Y178992D01*
X179886Y179124D01*
X178884Y178992D01*
X177950Y178605D01*
X177918Y178580D01*
X177885Y178605D01*
X176951Y178992D01*
X175949Y179124D01*
X174947Y178992D01*
X174013Y178605D01*
X173981Y178580D01*
X173948Y178605D01*
X173014Y178992D01*
X172012Y179124D01*
X171010Y178992D01*
X170425Y178750D01*
X169967Y179101D01*
X169978Y179190D01*
X169846Y180192D01*
X169460Y181125D01*
X168844Y181927D01*
X168043Y182543D01*
X167109Y182929D01*
X166107Y183061D01*
X165105Y182929D01*
X164519Y182687D01*
X164061Y183038D01*
X164073Y183126D01*
X163941Y184129D01*
X163554Y185062D01*
X162939Y185864D01*
X162137Y186479D01*
X161203Y186866D01*
X160201Y186998D01*
D02*
G37*
G36*
X34217D02*
X33215Y186866D01*
X32281Y186479D01*
X32248Y186454D01*
X32216Y186479D01*
X31282Y186866D01*
X30280Y186998D01*
X29278Y186866D01*
X28344Y186479D01*
X28311Y186454D01*
X28279Y186479D01*
X27345Y186866D01*
X26343Y186998D01*
X25341Y186866D01*
X24407Y186479D01*
X23605Y185864D01*
X22990Y185062D01*
X22603Y184129D01*
X22471Y183126D01*
X22542Y182586D01*
X22438Y182543D01*
X21637Y181927D01*
X21021Y181125D01*
X20635Y180192D01*
X20503Y179190D01*
X20514Y179101D01*
X20056Y178750D01*
X19471Y178992D01*
X18469Y179124D01*
X17467Y178992D01*
X16533Y178605D01*
X15731Y177990D01*
X15116Y177188D01*
X14729Y176255D01*
X14597Y175252D01*
X14729Y174250D01*
X15116Y173317D01*
X15731Y172515D01*
X15923Y172367D01*
X15794Y171884D01*
X15533Y171850D01*
X14764Y171531D01*
X13994Y171850D01*
X12992Y171982D01*
X11990Y171850D01*
X11220Y171531D01*
X10451Y171850D01*
X9449Y171982D01*
X8447Y171850D01*
X7513Y171463D01*
X6711Y170848D01*
X6096Y170046D01*
X5709Y169112D01*
X5577Y168110D01*
X5709Y167108D01*
X6028Y166339D01*
X5709Y165569D01*
X5577Y164567D01*
X5709Y163565D01*
X6028Y162795D01*
X5709Y162026D01*
X5577Y161024D01*
X5709Y160022D01*
X6028Y159252D01*
X5709Y158482D01*
X5577Y157480D01*
X5709Y156478D01*
X6096Y155544D01*
X6711Y154743D01*
X7513Y154127D01*
X8447Y153741D01*
X9449Y153609D01*
X10451Y153741D01*
X11220Y154059D01*
X11990Y153741D01*
X12992Y153609D01*
X13994Y153741D01*
X14764Y154059D01*
X15533Y153741D01*
X16535Y153609D01*
X17537Y153741D01*
X18307Y154059D01*
X19077Y153741D01*
X20079Y153609D01*
X21081Y153741D01*
X22015Y154127D01*
X22817Y154743D01*
X23432Y155544D01*
X23819Y156478D01*
X23950Y157480D01*
X23819Y158482D01*
X23500Y159252D01*
X23819Y160022D01*
X23950Y161024D01*
X23819Y162026D01*
X23500Y162795D01*
X23819Y163565D01*
X23950Y164567D01*
X23819Y165569D01*
X23500Y166339D01*
X23819Y167108D01*
X23950Y168110D01*
X23819Y169112D01*
X23432Y170046D01*
X22817Y170848D01*
X22725Y170919D01*
X22865Y171441D01*
X23408Y171513D01*
X24342Y171899D01*
X25144Y172515D01*
X25759Y173317D01*
X26146Y174250D01*
X26278Y175252D01*
X26266Y175341D01*
X26724Y175692D01*
X27309Y175450D01*
X28311Y175318D01*
X29313Y175450D01*
X30247Y175837D01*
X31049Y176452D01*
X31664Y177254D01*
X32051Y178187D01*
X32183Y179190D01*
X32171Y179278D01*
X32629Y179629D01*
X33215Y179387D01*
X34217Y179255D01*
X35219Y179387D01*
X36153Y179773D01*
X36955Y180389D01*
X37570Y181191D01*
X37957Y182124D01*
X38089Y183126D01*
X37957Y184129D01*
X37570Y185062D01*
X36955Y185864D01*
X36153Y186479D01*
X35219Y186866D01*
X34217Y186998D01*
D02*
G37*
G36*
X152264Y230217D02*
X136713D01*
Y214665D01*
X152264D01*
Y230217D01*
D02*
G37*
G36*
X108169Y230118D02*
X92618D01*
Y214567D01*
X95313D01*
X95438Y213620D01*
X95824Y212687D01*
X96440Y211885D01*
X97242Y211270D01*
X97346Y211227D01*
X97274Y210686D01*
X97406Y209683D01*
X97793Y208750D01*
X98408Y207948D01*
X99210Y207333D01*
X100144Y206946D01*
X101146Y206814D01*
X102148Y206946D01*
X102733Y207188D01*
X103191Y206837D01*
X103180Y206749D01*
X103312Y205747D01*
X103699Y204813D01*
X104314Y204011D01*
X105116Y203396D01*
X105219Y203353D01*
X105148Y202812D01*
X105280Y201810D01*
X105667Y200876D01*
X106282Y200074D01*
X107084Y199459D01*
X108018Y199072D01*
X109020Y198940D01*
X110022Y199072D01*
X110607Y199314D01*
X111065Y198963D01*
X111054Y198875D01*
X111186Y197872D01*
X111573Y196939D01*
X112188Y196137D01*
X112990Y195522D01*
X113093Y195478D01*
X113022Y194938D01*
X113154Y193936D01*
X113541Y193002D01*
X114156Y192200D01*
X114958Y191585D01*
X115892Y191198D01*
X116894Y191066D01*
X117896Y191198D01*
X118830Y191585D01*
X118862Y191610D01*
X118895Y191585D01*
X119829Y191198D01*
X120831Y191066D01*
X121833Y191198D01*
X122767Y191585D01*
X122800Y191610D01*
X122832Y191585D01*
X123766Y191198D01*
X124768Y191066D01*
X125770Y191198D01*
X126704Y191585D01*
X127506Y192200D01*
X128121Y193002D01*
X128508Y193936D01*
X128640Y194938D01*
X128568Y195478D01*
X128672Y195522D01*
X129474Y196137D01*
X130089Y196939D01*
X130476Y197872D01*
X130608Y198875D01*
X130476Y199877D01*
X130089Y200810D01*
X129474Y201612D01*
X128672Y202227D01*
X127739Y202614D01*
X126737Y202746D01*
X125734Y202614D01*
X124801Y202227D01*
X124768Y202203D01*
X124735Y202227D01*
X123802Y202614D01*
X122800Y202746D01*
X121798Y202614D01*
X120864Y202227D01*
X120831Y202203D01*
X120798Y202227D01*
X119865Y202614D01*
X118862Y202746D01*
X117860Y202614D01*
X117275Y202372D01*
X116817Y202723D01*
X116829Y202812D01*
X116697Y203814D01*
X116310Y204747D01*
X115695Y205549D01*
X114893Y206165D01*
X114789Y206208D01*
X114860Y206749D01*
X114728Y207751D01*
X114341Y208684D01*
X113726Y209486D01*
X112924Y210102D01*
X112820Y210145D01*
X112892Y210686D01*
X112760Y211688D01*
X112373Y212621D01*
X111758Y213423D01*
X110956Y214039D01*
X110022Y214425D01*
X109020Y214557D01*
X108645Y214508D01*
X108169Y214950D01*
Y230118D01*
D02*
G37*
G36*
X55087Y176172D02*
X54085Y176040D01*
X53315Y175721D01*
X52545Y176040D01*
X51543Y176172D01*
X50541Y176040D01*
X49772Y175721D01*
X49002Y176040D01*
X48000Y176172D01*
X46998Y176040D01*
X46228Y175721D01*
X45459Y176040D01*
X44457Y176172D01*
X43455Y176040D01*
X42521Y175653D01*
X41719Y175038D01*
X41104Y174236D01*
X40717Y173302D01*
X40585Y172300D01*
X40717Y171298D01*
X41104Y170364D01*
X41719Y169562D01*
X42521Y168947D01*
X43455Y168560D01*
X44457Y168428D01*
X45459Y168560D01*
X46228Y168879D01*
X46998Y168560D01*
X48000Y168428D01*
X49002Y168560D01*
X49772Y168879D01*
X50541Y168560D01*
X51543Y168428D01*
X52545Y168560D01*
X53315Y168879D01*
X54085Y168560D01*
X55087Y168428D01*
X56089Y168560D01*
X57023Y168947D01*
X57824Y169562D01*
X58440Y170364D01*
X58826Y171298D01*
X58958Y172300D01*
X58826Y173302D01*
X58440Y174236D01*
X57824Y175038D01*
X57023Y175653D01*
X56089Y176040D01*
X55087Y176172D01*
D02*
G37*
G36*
X80709Y230156D02*
X79184Y230006D01*
X77719Y229561D01*
X76368Y228839D01*
X75184Y227867D01*
X74212Y226683D01*
X73490Y225332D01*
X73046Y223867D01*
X72895Y222342D01*
X73046Y220818D01*
X73490Y219353D01*
X74212Y218002D01*
X75184Y216818D01*
X75977Y216167D01*
X75753Y215625D01*
X75621Y214623D01*
X75753Y213620D01*
X76139Y212687D01*
X76755Y211885D01*
X77557Y211270D01*
X77661Y211227D01*
X77589Y210686D01*
X77661Y210145D01*
X77557Y210102D01*
X76755Y209486D01*
X76139Y208684D01*
X75753Y207751D01*
X75621Y206749D01*
X75753Y205747D01*
X76139Y204813D01*
X76755Y204011D01*
X77557Y203396D01*
X77661Y203353D01*
X77589Y202812D01*
X77661Y202271D01*
X77557Y202227D01*
X76755Y201612D01*
X76139Y200810D01*
X75753Y199877D01*
X75621Y198875D01*
X75753Y197872D01*
X76139Y196939D01*
X76755Y196137D01*
X77557Y195522D01*
X77661Y195478D01*
X77589Y194938D01*
X77721Y193936D01*
X78108Y193002D01*
X78723Y192200D01*
X79525Y191585D01*
X80459Y191198D01*
X81021Y191124D01*
X81242Y190590D01*
X81047Y190336D01*
X80660Y189402D01*
X80528Y188400D01*
X80660Y187398D01*
X81047Y186464D01*
X81662Y185662D01*
Y185538D01*
X81047Y184736D01*
X80660Y183802D01*
X80528Y182800D01*
X80650Y181873D01*
X80076Y181125D01*
X79690Y180192D01*
X79558Y179190D01*
X79629Y178648D01*
X79525Y178605D01*
X78723Y177990D01*
X78108Y177188D01*
X77721Y176255D01*
X77589Y175252D01*
X77612Y175080D01*
X77064Y174853D01*
X76262Y174238D01*
X75647Y173436D01*
X75260Y172502D01*
X75128Y171500D01*
X75260Y170498D01*
X75647Y169564D01*
X76262Y168762D01*
X77064Y168147D01*
X77998Y167760D01*
X79000Y167628D01*
X80002Y167760D01*
X80772Y168079D01*
X81541Y167760D01*
X82543Y167628D01*
X83545Y167760D01*
X84315Y168079D01*
X85084Y167760D01*
X86087Y167628D01*
X87089Y167760D01*
X88023Y168147D01*
X88043Y168163D01*
X88064Y168147D01*
X88998Y167760D01*
X90000Y167628D01*
X91002Y167760D01*
X91936Y168147D01*
X92738Y168762D01*
X93353Y169564D01*
X93740Y170498D01*
X93872Y171500D01*
X93740Y172502D01*
X93353Y173436D01*
X92738Y174238D01*
X91936Y174853D01*
X91002Y175240D01*
X90000Y175372D01*
X88998Y175240D01*
X88064Y174853D01*
X88043Y174837D01*
X88023Y174853D01*
X87089Y175240D01*
X86087Y175372D01*
X85330Y175272D01*
X85261Y175794D01*
X85365Y175837D01*
X86167Y176452D01*
X86782Y177254D01*
X87169Y178187D01*
X87301Y179190D01*
X87179Y180116D01*
X87753Y180864D01*
X88140Y181798D01*
X88272Y182800D01*
X88140Y183802D01*
X87753Y184736D01*
X87138Y185538D01*
Y185662D01*
X87753Y186464D01*
X88140Y187398D01*
X88272Y188400D01*
X88140Y189402D01*
X87753Y190336D01*
X87138Y191138D01*
X86336Y191753D01*
X85402Y192140D01*
X84840Y192214D01*
X84619Y192747D01*
X84814Y193002D01*
X85201Y193936D01*
X85333Y194938D01*
X85261Y195478D01*
X85365Y195522D01*
X86167Y196137D01*
X86782Y196939D01*
X87169Y197872D01*
X87301Y198875D01*
X87230Y199416D01*
X87334Y199459D01*
X88136Y200074D01*
X88751Y200876D01*
X89138Y201810D01*
X89270Y202812D01*
X89138Y203814D01*
X88751Y204747D01*
X88136Y205549D01*
X87334Y206165D01*
X87230Y206208D01*
X87301Y206749D01*
X87169Y207751D01*
X86782Y208684D01*
X86167Y209486D01*
X85365Y210102D01*
X85261Y210145D01*
X85333Y210686D01*
X85261Y211227D01*
X85365Y211270D01*
X86167Y211885D01*
X86782Y212687D01*
X87169Y213620D01*
X87301Y214623D01*
X87169Y215625D01*
X86782Y216558D01*
X86414Y217038D01*
X87205Y218002D01*
X87927Y219353D01*
X88372Y220818D01*
X88522Y222342D01*
X88372Y223867D01*
X87927Y225332D01*
X87205Y226683D01*
X86233Y227867D01*
X85049Y228839D01*
X83699Y229561D01*
X82233Y230006D01*
X80709Y230156D01*
D02*
G37*
G36*
X61024D02*
X59499Y230006D01*
X58034Y229561D01*
X56683Y228839D01*
X55499Y227867D01*
X54527Y226683D01*
X53805Y225332D01*
X53361Y223867D01*
X53211Y222342D01*
X53211Y222340D01*
X52900Y222299D01*
X51966Y221913D01*
X51164Y221297D01*
X50549Y220496D01*
X50162Y219562D01*
X50030Y218560D01*
X50101Y218019D01*
X49997Y217976D01*
X49196Y217360D01*
X48580Y216558D01*
X48194Y215625D01*
X48062Y214623D01*
X48133Y214082D01*
X48029Y214039D01*
X47227Y213423D01*
X46612Y212621D01*
X46225Y211688D01*
X46093Y210686D01*
X46225Y209683D01*
X46612Y208750D01*
X47227Y207948D01*
X48029Y207333D01*
X48133Y207290D01*
X48062Y206749D01*
X48133Y206208D01*
X48029Y206165D01*
X47227Y205549D01*
X46612Y204747D01*
X46225Y203814D01*
X46093Y202812D01*
X46225Y201810D01*
X46612Y200876D01*
X47227Y200074D01*
X48029Y199459D01*
X48963Y199072D01*
X49965Y198940D01*
X50967Y199072D01*
X51901Y199459D01*
X51933Y199484D01*
X51966Y199459D01*
X52900Y199072D01*
X53902Y198940D01*
X54904Y199072D01*
X55489Y199314D01*
X55947Y198963D01*
X55936Y198875D01*
X56007Y198334D01*
X55903Y198291D01*
X55101Y197675D01*
X54486Y196873D01*
X54099Y195940D01*
X53967Y194938D01*
X54099Y193936D01*
X54486Y193002D01*
X54803Y192588D01*
X54676Y191932D01*
X54162Y191538D01*
X53547Y190736D01*
X53160Y189802D01*
X53028Y188800D01*
X53160Y187798D01*
X53547Y186864D01*
X54162Y186062D01*
Y185938D01*
X53547Y185136D01*
X53160Y184202D01*
X53028Y183200D01*
X53160Y182198D01*
X53547Y181264D01*
X54162Y180462D01*
X54964Y179847D01*
X55898Y179460D01*
X56900Y179328D01*
X57902Y179460D01*
X58836Y179847D01*
X59638Y180462D01*
X60253Y181264D01*
X60640Y182198D01*
X60772Y183200D01*
X60640Y184202D01*
X60253Y185136D01*
X59638Y185938D01*
Y186062D01*
X60253Y186864D01*
X60640Y187798D01*
X60772Y188800D01*
X60640Y189802D01*
X60253Y190736D01*
X59936Y191149D01*
X60062Y191805D01*
X60577Y192200D01*
X61192Y193002D01*
X61579Y193936D01*
X61711Y194938D01*
X61639Y195478D01*
X61743Y195522D01*
X62545Y196137D01*
X63160Y196939D01*
X63547Y197872D01*
X63679Y198875D01*
X63608Y199416D01*
X63712Y199459D01*
X64514Y200074D01*
X65129Y200876D01*
X65516Y201810D01*
X65648Y202812D01*
X65516Y203814D01*
X65129Y204747D01*
X64514Y205549D01*
X63712Y206165D01*
X63608Y206208D01*
X63679Y206749D01*
X63608Y207290D01*
X63712Y207333D01*
X64514Y207948D01*
X65129Y208750D01*
X65516Y209683D01*
X65648Y210686D01*
X65516Y211688D01*
X65129Y212621D01*
X64514Y213423D01*
X63712Y214039D01*
X63608Y214082D01*
X63679Y214623D01*
X63628Y215007D01*
X64014Y215124D01*
X65364Y215846D01*
X66548Y216818D01*
X67520Y218002D01*
X68242Y219353D01*
X68687Y220818D01*
X68837Y222342D01*
X68687Y223867D01*
X68242Y225332D01*
X67520Y226683D01*
X66548Y227867D01*
X65364Y228839D01*
X64014Y229561D01*
X62548Y230006D01*
X61024Y230156D01*
D02*
G37*
G36*
X112957Y179124D02*
X111955Y178992D01*
X111021Y178605D01*
X110988Y178580D01*
X110956Y178605D01*
X110022Y178992D01*
X109020Y179124D01*
X108018Y178992D01*
X107084Y178605D01*
X107052Y178580D01*
X107019Y178605D01*
X106085Y178992D01*
X105083Y179124D01*
X104081Y178992D01*
X103147Y178605D01*
X103114Y178580D01*
X103082Y178605D01*
X102148Y178992D01*
X101146Y179124D01*
X100144Y178992D01*
X99210Y178605D01*
X98408Y177990D01*
X97793Y177188D01*
X97406Y176255D01*
X97274Y175252D01*
X97406Y174250D01*
X97793Y173317D01*
X98408Y172515D01*
X99210Y171899D01*
X100144Y171513D01*
X101146Y171381D01*
X102148Y171513D01*
X103082Y171899D01*
X103114Y171925D01*
X103147Y171899D01*
X104028Y171534D01*
X104173Y171168D01*
X104207Y171041D01*
X103955Y170848D01*
X103340Y170046D01*
X102953Y169112D01*
X102821Y168110D01*
X102953Y167108D01*
X103272Y166339D01*
X102953Y165569D01*
X102821Y164567D01*
X102953Y163565D01*
X103272Y162795D01*
X102953Y162026D01*
X102821Y161024D01*
X102953Y160022D01*
X103272Y159252D01*
X102953Y158482D01*
X102821Y157480D01*
X102953Y156478D01*
X103340Y155544D01*
X103955Y154743D01*
X104757Y154127D01*
X105691Y153741D01*
X106693Y153609D01*
X107695Y153741D01*
X108465Y154059D01*
X109234Y153741D01*
X110236Y153609D01*
X111238Y153741D01*
X112008Y154059D01*
X112777Y153741D01*
X113779Y153609D01*
X114782Y153741D01*
X115551Y154059D01*
X116321Y153741D01*
X117323Y153609D01*
X118325Y153741D01*
X119259Y154127D01*
X120061Y154743D01*
X120676Y155544D01*
X121063Y156478D01*
X121195Y157480D01*
X121063Y158482D01*
X120744Y159252D01*
X121063Y160022D01*
X121195Y161024D01*
X121063Y162026D01*
X120744Y162795D01*
X121063Y163565D01*
X121195Y164567D01*
X121063Y165569D01*
X120744Y166339D01*
X121063Y167108D01*
X121195Y168110D01*
X121063Y169112D01*
X120676Y170046D01*
X120061Y170848D01*
X119259Y171463D01*
X118325Y171850D01*
X117323Y171982D01*
X116321Y171850D01*
X115832Y171648D01*
X115570Y171791D01*
X115517Y172378D01*
X115695Y172515D01*
X116310Y173317D01*
X116697Y174250D01*
X116829Y175252D01*
X116697Y176255D01*
X116310Y177188D01*
X115695Y177990D01*
X114893Y178605D01*
X113959Y178992D01*
X112957Y179124D01*
D02*
G37*
G36*
X68799Y73552D02*
X67951Y73440D01*
X67161Y73113D01*
X66483Y72592D01*
X65962Y71914D01*
X65635Y71123D01*
X65523Y70276D01*
X65635Y69428D01*
X65962Y68638D01*
X66483Y67959D01*
X67161Y67439D01*
X67951Y67111D01*
X68799Y67000D01*
X69647Y67111D01*
X70437Y67439D01*
X71116Y67959D01*
X71636Y68638D01*
X71964Y69428D01*
X72075Y70276D01*
X71964Y71123D01*
X71636Y71914D01*
X71116Y72592D01*
X70437Y73113D01*
X69647Y73440D01*
X68799Y73552D01*
D02*
G37*
G36*
X31890Y67056D02*
X31042Y66944D01*
X30252Y66617D01*
X29573Y66096D01*
X29053Y65418D01*
X28505Y65403D01*
X28112Y65566D01*
X27264Y65678D01*
X26416Y65566D01*
X25626Y65239D01*
X24947Y64718D01*
X24427Y64040D01*
X24099Y63249D01*
X23988Y62402D01*
X24099Y61554D01*
X24427Y60764D01*
X24947Y60085D01*
X25626Y59564D01*
X26416Y59237D01*
X27264Y59126D01*
X28112Y59237D01*
X28902Y59564D01*
X29580Y60085D01*
X30101Y60764D01*
X30648Y60778D01*
X31042Y60615D01*
X31890Y60504D01*
X32738Y60615D01*
X33528Y60942D01*
X34206Y61463D01*
X34727Y62142D01*
X35054Y62932D01*
X35166Y63779D01*
X35054Y64627D01*
X34727Y65418D01*
X34206Y66096D01*
X33528Y66617D01*
X32738Y66944D01*
X31890Y67056D01*
D02*
G37*
G36*
X126799Y80522D02*
X125797Y80389D01*
X124863Y80003D01*
X124062Y79387D01*
X123446Y78586D01*
X123059Y77652D01*
X122928Y76650D01*
X123059Y75648D01*
X123446Y74714D01*
X124062Y73912D01*
X124863Y73297D01*
X125797Y72910D01*
X126799Y72778D01*
X127801Y72910D01*
X128735Y73297D01*
X129537Y73912D01*
X130152Y74714D01*
X130539Y75648D01*
X130671Y76650D01*
X130539Y77652D01*
X130152Y78586D01*
X129537Y79387D01*
X128735Y80003D01*
X127801Y80389D01*
X126799Y80522D01*
D02*
G37*
G36*
X46358Y76996D02*
X45510Y76885D01*
X44720Y76558D01*
X44042Y76037D01*
X43521Y75358D01*
X43194Y74568D01*
X43082Y73721D01*
X43194Y72873D01*
X43521Y72082D01*
X44042Y71404D01*
X44720Y70883D01*
X45510Y70556D01*
X46358Y70444D01*
X47206Y70556D01*
X47996Y70883D01*
X48675Y71404D01*
X49195Y72082D01*
X49523Y72873D01*
X49634Y73721D01*
X49523Y74568D01*
X49195Y75358D01*
X48675Y76037D01*
X47996Y76558D01*
X47206Y76885D01*
X46358Y76996D01*
D02*
G37*
G36*
X84842Y74344D02*
X83841Y74212D01*
X82907Y73826D01*
X82105Y73210D01*
X81489Y72408D01*
X81103Y71475D01*
X80971Y70473D01*
X81103Y69471D01*
X81340Y68898D01*
X81103Y68325D01*
X80971Y67323D01*
X81103Y66321D01*
X81489Y65387D01*
X82105Y64585D01*
X82907Y63970D01*
X83840Y63583D01*
X84842Y63451D01*
X85845Y63583D01*
X86778Y63970D01*
X87580Y64585D01*
X88196Y65387D01*
X88582Y66321D01*
X88714Y67323D01*
X88582Y68325D01*
X88345Y68898D01*
X88582Y69471D01*
X88714Y70473D01*
X88582Y71475D01*
X88196Y72408D01*
X87580Y73210D01*
X86778Y73826D01*
X85845Y74212D01*
X84842Y74344D01*
D02*
G37*
G36*
X135236Y71096D02*
X134234Y70964D01*
X133300Y70577D01*
X132499Y69962D01*
X131883Y69160D01*
X131496Y68226D01*
X131365Y67224D01*
X131496Y66222D01*
X131883Y65289D01*
X132499Y64487D01*
X133300Y63871D01*
X134234Y63485D01*
X135236Y63353D01*
X136238Y63485D01*
X137172Y63871D01*
X137974Y64487D01*
X138589Y65289D01*
X138976Y66222D01*
X139108Y67224D01*
X138976Y68226D01*
X138589Y69160D01*
X137974Y69962D01*
X137172Y70577D01*
X136238Y70964D01*
X135236Y71096D01*
D02*
G37*
G36*
X115847Y71386D02*
X114999Y71275D01*
X114208Y70947D01*
X113530Y70427D01*
X113009Y69748D01*
X112682Y68958D01*
X112570Y68110D01*
X112682Y67262D01*
X113009Y66472D01*
X113530Y65794D01*
X114208Y65273D01*
X114999Y64946D01*
X115847Y64834D01*
X116694Y64946D01*
X117484Y65273D01*
X118163Y65794D01*
X118684Y66472D01*
X119011Y67262D01*
X119123Y68110D01*
X119011Y68958D01*
X118684Y69748D01*
X118163Y70427D01*
X117484Y70947D01*
X116694Y71275D01*
X115847Y71386D01*
D02*
G37*
G36*
X126516Y71490D02*
X125514Y71358D01*
X124580Y70971D01*
X123778Y70356D01*
X123163Y69554D01*
X122776Y68620D01*
X122644Y67618D01*
X122776Y66616D01*
X123163Y65682D01*
X123778Y64880D01*
X124580Y64265D01*
X125514Y63878D01*
X126516Y63746D01*
X127518Y63878D01*
X128452Y64265D01*
X129253Y64880D01*
X129869Y65682D01*
X130255Y66616D01*
X130387Y67618D01*
X130255Y68620D01*
X129869Y69554D01*
X129253Y70356D01*
X128452Y70971D01*
X127518Y71358D01*
X126516Y71490D01*
D02*
G37*
G36*
X62598Y81130D02*
X61751Y81019D01*
X60960Y80691D01*
X60282Y80171D01*
X59761Y79492D01*
X59434Y78702D01*
X59322Y77854D01*
X59434Y77006D01*
X59761Y76216D01*
X60282Y75538D01*
X60960Y75017D01*
X61751Y74690D01*
X62598Y74578D01*
X63446Y74690D01*
X64236Y75017D01*
X64915Y75538D01*
X65436Y76216D01*
X65763Y77006D01*
X65874Y77854D01*
X65763Y78702D01*
X65436Y79492D01*
X64915Y80171D01*
X64236Y80691D01*
X63446Y81019D01*
X62598Y81130D01*
D02*
G37*
G36*
X74508Y95697D02*
X73660Y95586D01*
X72870Y95258D01*
X72191Y94738D01*
X71713Y94936D01*
X71421Y95160D01*
X70631Y95487D01*
X69784Y95599D01*
X68936Y95487D01*
X68145Y95160D01*
X67467Y94639D01*
X66946Y93961D01*
X66619Y93171D01*
X66507Y92323D01*
X66619Y91475D01*
X66946Y90685D01*
X67467Y90006D01*
X68145Y89486D01*
X68936Y89158D01*
X69784Y89047D01*
X70631Y89158D01*
X71421Y89486D01*
X71816Y89788D01*
X72100Y90006D01*
X72578Y89808D01*
X72870Y89584D01*
X73660Y89257D01*
X74508Y89145D01*
X75356Y89257D01*
X76146Y89584D01*
X76824Y90105D01*
X77345Y90783D01*
X77672Y91573D01*
X77784Y92421D01*
X77672Y93269D01*
X77345Y94059D01*
X76824Y94738D01*
X76146Y95258D01*
X75356Y95586D01*
X74508Y95697D01*
D02*
G37*
G36*
X31200Y96276D02*
X30352Y96164D01*
X29562Y95837D01*
X28883Y95316D01*
X28413Y94703D01*
X28238Y94837D01*
X27448Y95164D01*
X26600Y95276D01*
X25752Y95164D01*
X24962Y94837D01*
X24284Y94317D01*
X23763Y93638D01*
X23436Y92848D01*
X23324Y92000D01*
X23436Y91152D01*
X23763Y90362D01*
X24284Y89684D01*
X24962Y89163D01*
X25752Y88836D01*
X26600Y88724D01*
X27448Y88836D01*
X28238Y89163D01*
X28916Y89684D01*
X29387Y90297D01*
X29562Y90163D01*
X30352Y89836D01*
X31200Y89724D01*
X32048Y89836D01*
X32838Y90163D01*
X33516Y90684D01*
X34037Y91362D01*
X34364Y92152D01*
X34476Y93000D01*
X34364Y93848D01*
X34037Y94638D01*
X33516Y95316D01*
X32838Y95837D01*
X32048Y96164D01*
X31200Y96276D01*
D02*
G37*
G36*
X32000Y104276D02*
X31152Y104164D01*
X30362Y103837D01*
X29684Y103316D01*
X29163Y102638D01*
X28836Y101848D01*
X28724Y101000D01*
X28836Y100152D01*
X29163Y99362D01*
X29684Y98684D01*
X30362Y98163D01*
X31152Y97836D01*
X32000Y97724D01*
X32848Y97836D01*
X33638Y98163D01*
X34317Y98684D01*
X34837Y99362D01*
X35164Y100152D01*
X35276Y101000D01*
X35164Y101848D01*
X34837Y102638D01*
X34317Y103316D01*
X33638Y103837D01*
X32848Y104164D01*
X32000Y104276D01*
D02*
G37*
G36*
X74705Y107508D02*
X73857Y107397D01*
X73067Y107069D01*
X72388Y106549D01*
X71868Y105870D01*
X71540Y105080D01*
X71429Y104232D01*
X71540Y103384D01*
X71862Y102608D01*
X71540Y101832D01*
X71429Y100984D01*
X71540Y100136D01*
X71868Y99346D01*
X72388Y98668D01*
X73067Y98147D01*
X73857Y97820D01*
X74705Y97708D01*
X75553Y97820D01*
X76343Y98147D01*
X77021Y98668D01*
X77542Y99346D01*
X77869Y100136D01*
X77981Y100984D01*
X77869Y101832D01*
X77548Y102608D01*
X77869Y103384D01*
X77981Y104232D01*
X77869Y105080D01*
X77542Y105870D01*
X77021Y106549D01*
X76343Y107069D01*
X75553Y107397D01*
X74705Y107508D01*
D02*
G37*
G36*
X81004Y88217D02*
X80156Y88105D01*
X79366Y87778D01*
X78687Y87257D01*
X78167Y86579D01*
X77839Y85789D01*
X77744Y85060D01*
X77294Y84775D01*
X77229Y84825D01*
X76438Y85153D01*
X75590Y85264D01*
X74743Y85153D01*
X73953Y84825D01*
X73274Y84305D01*
X72753Y83626D01*
X72426Y82836D01*
X72315Y81988D01*
X72426Y81140D01*
X72753Y80350D01*
X73274Y79672D01*
X73842Y79236D01*
X73902Y78778D01*
X74230Y77988D01*
X74750Y77310D01*
X75429Y76789D01*
X76219Y76462D01*
X77067Y76350D01*
X77915Y76462D01*
X78705Y76789D01*
X79383Y77310D01*
X79904Y77988D01*
X80231Y78778D01*
X80336Y79575D01*
X80489Y79690D01*
X80820Y79834D01*
X80941Y79742D01*
X81280Y79601D01*
X81284Y79566D01*
X81612Y78775D01*
X82132Y78097D01*
X82811Y77576D01*
X83601Y77249D01*
X84449Y77137D01*
X85297Y77249D01*
X85632Y77388D01*
X86069Y76817D01*
X86748Y76297D01*
X87054Y76170D01*
X87320Y75527D01*
X87841Y74849D01*
X88520Y74328D01*
X88945Y74152D01*
X89190Y73559D01*
X89711Y72880D01*
X90390Y72360D01*
X91180Y72032D01*
X92028Y71921D01*
X92875Y72032D01*
X93666Y72360D01*
X94344Y72880D01*
X94865Y73559D01*
X95192Y74349D01*
X95304Y75197D01*
X95192Y76045D01*
X94865Y76835D01*
X94344Y77513D01*
X93666Y78034D01*
X93240Y78210D01*
X92995Y78803D01*
X92474Y79482D01*
X91795Y80002D01*
X91489Y80129D01*
X91223Y80772D01*
X90702Y81450D01*
X90024Y81971D01*
X89234Y82298D01*
X88386Y82410D01*
X87538Y82298D01*
X87203Y82160D01*
X86765Y82730D01*
X86087Y83250D01*
X85748Y83391D01*
X85743Y83427D01*
X85416Y84217D01*
X84895Y84895D01*
X84218Y85415D01*
X84168Y85789D01*
X83841Y86579D01*
X83320Y87257D01*
X82642Y87778D01*
X81852Y88105D01*
X81004Y88217D01*
D02*
G37*
G36*
X31988Y82016D02*
X31140Y81905D01*
X30350Y81577D01*
X29672Y81057D01*
X29151Y80378D01*
X28927Y79836D01*
X28210Y80133D01*
X27362Y80245D01*
X26514Y80133D01*
X25724Y79806D01*
X25046Y79285D01*
X24525Y78606D01*
X24198Y77816D01*
X24086Y76968D01*
X24198Y76121D01*
X24525Y75331D01*
X25046Y74652D01*
X25724Y74131D01*
X26514Y73804D01*
X27362Y73692D01*
X28210Y73804D01*
X29000Y74131D01*
X29679Y74652D01*
X30199Y75331D01*
X30424Y75872D01*
X31140Y75576D01*
X31988Y75464D01*
X32836Y75576D01*
X33626Y75903D01*
X34305Y76424D01*
X34825Y77102D01*
X35153Y77892D01*
X35264Y78740D01*
X35153Y79588D01*
X34825Y80378D01*
X34305Y81057D01*
X33626Y81577D01*
X32836Y81905D01*
X31988Y82016D01*
D02*
G37*
G36*
X113500Y98976D02*
X112652Y98864D01*
X111862Y98537D01*
X111184Y98017D01*
X110663Y97338D01*
X110336Y96548D01*
X110319Y96426D01*
X109852Y96364D01*
X109062Y96037D01*
X108384Y95517D01*
X107863Y94838D01*
X107536Y94048D01*
X107424Y93200D01*
X107536Y92352D01*
X107863Y91562D01*
X108384Y90883D01*
X109062Y90363D01*
X109852Y90036D01*
X110700Y89924D01*
X111548Y90036D01*
X112338Y90363D01*
X113016Y90883D01*
X113537Y91562D01*
X113864Y92352D01*
X113881Y92474D01*
X114348Y92536D01*
X115138Y92863D01*
X115816Y93384D01*
X116337Y94062D01*
X116664Y94852D01*
X116776Y95700D01*
X116664Y96548D01*
X116337Y97338D01*
X115816Y98017D01*
X115138Y98537D01*
X114348Y98864D01*
X113500Y98976D01*
D02*
G37*
G36*
X62697Y92449D02*
X61849Y92338D01*
X61059Y92010D01*
X60380Y91490D01*
X59860Y90811D01*
X59532Y90021D01*
X59421Y89173D01*
X59532Y88325D01*
X59860Y87535D01*
X60380Y86857D01*
X61059Y86336D01*
X61849Y86009D01*
X62697Y85897D01*
X63545Y86009D01*
X64335Y86336D01*
X65013Y86857D01*
X65534Y87535D01*
X65861Y88325D01*
X65973Y89173D01*
X65861Y90021D01*
X65534Y90811D01*
X65013Y91490D01*
X64335Y92010D01*
X63545Y92338D01*
X62697Y92449D01*
D02*
G37*
%LPD*%
D43*
X184900Y96000D02*
D03*
X14900Y86000D02*
D03*
D46*
X64900Y11000D02*
D03*
X134900D02*
D03*
X144900D02*
D03*
D48*
X124803Y222441D02*
D03*
D49*
X135728Y58169D02*
D03*
X110335Y61516D02*
D03*
X76476Y59941D02*
D03*
X126417Y58465D02*
D03*
X53642Y65453D02*
D03*
X62795D02*
D03*
X90354Y53642D02*
D03*
X144657Y77681D02*
D03*
X-6299Y190551D02*
D03*
X-2756D02*
D03*
X787D02*
D03*
X4331D02*
D03*
Y194095D02*
D03*
X787D02*
D03*
X-2756D02*
D03*
X-6299D02*
D03*
X4331Y197638D02*
D03*
X787D02*
D03*
X-2756D02*
D03*
X-6299D02*
D03*
X4331Y201181D02*
D03*
X787D02*
D03*
X-2756D02*
D03*
X-6299D02*
D03*
X7874Y204724D02*
D03*
X4331D02*
D03*
X787D02*
D03*
X-2756D02*
D03*
X18504D02*
D03*
X14961D02*
D03*
X11417D02*
D03*
X18504Y201181D02*
D03*
Y197638D02*
D03*
Y194095D02*
D03*
Y190551D02*
D03*
X196063Y197638D02*
D03*
X192520D02*
D03*
X188976D02*
D03*
X185433D02*
D03*
X196063Y194095D02*
D03*
X192520D02*
D03*
X188976D02*
D03*
X185433D02*
D03*
X196063Y190551D02*
D03*
X192520D02*
D03*
X188976D02*
D03*
X185433D02*
D03*
X192520Y204724D02*
D03*
X188976D02*
D03*
X185433D02*
D03*
X196063Y201181D02*
D03*
X192520D02*
D03*
X188976D02*
D03*
X185433D02*
D03*
X174803Y204724D02*
D03*
X178347D02*
D03*
X181890D02*
D03*
X174803Y190551D02*
D03*
Y194095D02*
D03*
Y197638D02*
D03*
Y201181D02*
D03*
X18330Y141000D02*
D03*
X14787D02*
D03*
X11243D02*
D03*
X7700D02*
D03*
X115930Y140300D02*
D03*
X112387D02*
D03*
X108843D02*
D03*
X105300D02*
D03*
X146430Y140700D02*
D03*
X142887D02*
D03*
X139343D02*
D03*
X135800D02*
D03*
D50*
X112205Y20965D02*
D03*
X81004Y38780D02*
D03*
X81102Y20768D02*
D03*
X119488Y50886D02*
D03*
X150197Y37992D02*
D03*
X150197Y29035D02*
D03*
X57087Y32776D02*
D03*
X110335Y102165D02*
D03*
X22539Y93110D02*
D03*
X89370Y97047D02*
D03*
X96982Y95607D02*
D03*
X83850Y103171D02*
D03*
X94095Y120276D02*
D03*
X93898Y113779D02*
D03*
X54921Y96752D02*
D03*
X123819Y40354D02*
D03*
X67028Y35827D02*
D03*
X31398Y15945D02*
D03*
X31594Y24902D02*
D03*
X118799Y37402D02*
D03*
X47600Y108900D02*
D03*
X-1004Y103328D02*
D03*
X21434Y44366D02*
D03*
Y68166D02*
D03*
X21534Y78834D02*
D03*
X39000Y93000D02*
D03*
X39640Y79500D02*
D03*
X39540Y66900D02*
D03*
X40179Y41784D02*
D03*
X164032Y102287D02*
D03*
X142000Y104700D02*
D03*
X65939Y100638D02*
D03*
X190888Y103345D02*
D03*
X136000Y112000D02*
D03*
D51*
X87215Y102869D02*
D03*
X89442Y105096D02*
D03*
X91669Y107323D02*
D03*
X93896Y109550D02*
D03*
X89442Y100642D02*
D03*
X91669Y102869D02*
D03*
X93896Y105096D02*
D03*
X96123Y107323D02*
D03*
X91669Y98415D02*
D03*
X93896Y100642D02*
D03*
X98350Y105096D02*
D03*
X93896Y96188D02*
D03*
X96123Y98415D02*
D03*
X100577Y102869D02*
D03*
X98350Y100642D02*
D03*
X96123Y102869D02*
D03*
M02*
