M48
;Layer_Color=9474304
;FILE_FORMAT=2:5
INCH,TZ
;TYPE=PLATED
T1F00S00C0.01181
T2F00S00C0.01968
T3F00S00C0.02953
T4F00S00C0.04331
T5F00S00C0.05906
%
T01
X155374Y16634
X160230Y24672
X161000Y29000
X161100Y38000
X160098Y42028
X166244Y42913
X175256Y43799
X178898Y29724
X165850Y33366
X165905Y24114
X174961Y16535
X174665Y93898
X176732Y96000
X172402Y91634
X170039Y89370
X167382Y87106
X164724Y84547
X174032Y102287
X152000Y104700
X200888Y103345
X145401Y102000
X146000Y112000
X114048Y113000
X115928Y114880
X103898Y113779
X103896Y109550
X101669Y107323
X99442Y105096
X97215Y102869
X93850Y103171
X99442Y100642
X99370Y97047
X101669Y98415
X103896Y96188
X106982Y95607
X106123Y98415
X108350Y100642
X110577Y102869
X108350Y105096
X106123Y107323
X103896Y105096
X101669Y102869
X103896Y100642
X106123Y102869
X120335Y102165
X120700Y93200
X123500Y95700
X125847Y68110
X129488Y50886
X126634Y45472
X123189Y46063
X121221Y40354
X122795Y32087
X125650Y28445
X132146Y27165
X131161Y23524
X122205Y20965
X106161Y17323
X106358Y25477
X106457Y35335
X106358Y43489
X110912Y42789
X97205Y44488
X97402Y34350
X97303Y26476
X97402Y16043
X91102Y20768
X91004Y38780
X77028Y35827
X77913Y45177
X69500Y49500
X67087Y32776
X72106Y26673
X72402Y21949
X62362Y24311
X60000Y28150
X57835Y38484
X50179Y41784
X50256Y50098
X51634Y59055
X56030Y56529
X49540Y66900
X41890Y63779
X37264Y62402
X31434Y68166
X31534Y78834
X37362Y76968
X41988Y78740
X49640Y79500
X56358Y73721
X72598Y77854
X72697Y89173
X79783Y92323
X84508Y92421
X84705Y100984
Y104232
X75939Y100638
X64921Y96752
X57600Y108900
X53500Y108700
X43071Y116043
X39429Y123425
X42000Y101000
X41200Y93000
X36600Y92000
X32539Y93110
X49000Y93000
X85590Y81988
X87067Y79626
X94449Y80413
X92579Y82579
X91004Y84941
X98386Y79134
X100157Y77165
X102028Y75197
X78799Y70276
X42283Y45374
X34803Y46850
X31434Y44366
X35197Y34744
Y25886
X41594Y24902
X46319Y25787
X46417Y16732
X41398Y15945
X40413Y10728
X35000Y16929
X137854Y16732
X148878Y15536
X147100Y25400
Y41700
X133819Y40354
Y35335
X128799Y37402
X104095Y120276
X93268Y117717
X8996Y103328
T02
X160591Y46949
X167500Y62500
Y65900
Y69200
Y72600
X154657Y77681
X136799Y76650
X136516Y67618
X145236Y67224
X145728Y58169
X136417Y58465
X120335Y61516
X107524Y53689
X100354Y53642
X94842Y67323
X94842Y70473
X86476Y59941
X72795Y65453
X63642
X62559Y40748
X61575Y146457
Y150000
Y153543
Y157087
X58031
Y153543
X54488
Y157087
X50945
Y153543
Y150000
X54488
X58031
Y146457
X54488
X50945
X28330Y141000
X24787
X21243
X17700
X19449Y157480
X22992
Y161024
X19449
Y164567
Y168110
X22992
Y164567
X26535
Y168110
X30079
Y164567
Y161024
X26535
Y157480
X30079
X28469Y175252
X32406
X34374Y179190
X38311
X40280Y183126
X44217
X36343
X28504Y190551
Y194095
Y197638
Y201181
X28504Y204724
X24961
X21417
X17874
X14331
X10787
X7244
Y201181
Y197638
X3701
Y201181
Y194095
X7244
Y190551
X3701
X10787
X14331
Y194095
X10787
Y197638
Y201181
X14331
Y197638
X13900Y218100
X17443
X20913Y218000
X24457
X28000
X31600
X35300Y218100
X35243Y222000
X31700
X28013Y221900
Y226000
X31700
X35243
X38787
Y230000
X35243
X31700
X28013
Y234000
X31700
X35243
X38787
Y222000
X13843
Y226000
Y230000
Y234000
X63902Y218560
X61933Y214623
X65870
X69807
X71776Y210686
X67839
X63902
X59965
X61933Y206749
X65870
X69807
X71776Y202812
X67839
X63902
X59965
X69807Y198875
X67839Y194938
X66900Y188800
Y183200
X65087Y172300
X61543
X58000
X54457
X89000Y171500
X92543
X96087
X100000
X91461Y175252
X93429Y179190
X94400Y182800
Y188400
X91461Y194938
X89492Y198875
X93429
X95398Y202812
X91461
X89492Y206749
X93429
X91461Y210686
X89492Y214623
X93429
X109177
X113115
X115083Y210686
X119020
X117051Y206749
X120989
X122957Y202812
X119020
X124925Y198875
X128863
X132799
X136737
X134768Y194938
X130831
X126894
X122957Y175252
X119020
X115083
X111146
X116693Y168110
X120236
Y164567
X116693
Y161024
X120236
X123779
Y164567
Y168110
X127323
Y164567
Y161024
Y157480
X123779
X120236
X116693
X115300Y140300
X118843
X122387
X125930
X145800Y140700
X149343
X149370Y157480
Y161024
Y164567
Y168110
X95730Y157000
Y153457
Y149913
Y146370
X92187
X88643
X85100
Y149913
X88643
X92187
Y153457
Y157000
X88643
Y153457
X85100
Y157000
X111146Y210686
X175600Y218100
X179143
X182687
X186230
X189700Y218000
X193243
X196787
X196800Y221900
Y226000
Y230000
Y234000
X182630
X179087
X175543
X172000
Y230000
X175543
X179087
X182630
Y226000
X179087
X175543
X172000
Y222000
X175543
X179087
X182630
X184803Y204724
X188347
X191890
X195433
X198976
X202520
X202520Y201181
Y197638
X206063
Y194095
Y190551
X202520
Y194095
X198976
X195433
Y190551
X198976
Y197638
X195433
Y201181
X198976
X206063
X184803
Y197638
Y194095
Y190551
X185343Y174800
X181800
X188887
X192430
X192030Y157430
Y153887
Y150343
Y146800
X188487
X184943
X181400
Y150343
X184943
X188487
Y153887
Y157430
X184943
Y153887
X181400
Y157430
X160000Y157480
Y161024
Y164567
Y168110
X156457
Y164567
X152913
Y168110
Y161024
X156457
Y157480
X152913
X152887Y140700
X156430
X158390Y175252
X162327
X160359Y179190
X164296
X168233
X172170
X176107
X170201Y183126
X166264
X162327
X156422Y179190
T03
X184900Y6000
X194900
Y16000
Y26000
Y36000
Y46000
Y56000
Y66000
Y76000
Y86000
Y96000
X184900
Y86000
Y76000
Y66000
Y56000
Y46000
Y36000
Y26000
Y16000
X24900
Y6000
X14900
Y16000
Y26000
X24900
Y36000
Y46000
Y56000
Y66000
Y76000
Y86000
Y96000
X14900
Y86000
Y76000
Y66000
Y56000
Y46000
Y36000
T04
X154900Y11000
X144900
X134900
X124900Y11000
X114900Y11000
X104900
X74900
X64900
X54900
T05
X71024Y222342
X90709
X110394
X134803Y222441
X154488
M30
