M48
;Layer_Color=9474304
;FILE_FORMAT=2:5
INCH,TZ
;TYPE=PLATED
T1F00S00C0.01181
T2F00S00C0.01968
T3F00S00C0.02953
T4F00S00C0.04331
T5F00S00C0.05906
%
T01
X145374Y16634
X150230Y24672
X150197Y29035
X150197Y37992
X150098Y42028
X156244Y42913
X165256Y43799
X168898Y29724
X155850Y33366
X155905Y24114
X164961Y16535
X162402Y91634
X164665Y93898
X166732Y96000
X164032Y102287
X160039Y89370
X157382Y87106
X154724Y84547
X142000Y104700
X190888Y103345
X135401Y102000
X136000Y112000
X105928Y114880
X104048Y113000
X93898Y113779
X93896Y109550
X96123Y107323
X98350Y105096
X100577Y102869
X96123Y102869
X93896Y105096
X91669Y102869
X93896Y100642
Y96188
X96982Y95607
X96123Y98415
X98350Y100642
X89442
X89370Y97047
X91669Y98415
X89442Y105096
X91669Y107323
X87215Y102869
X83850Y103171
X74705Y104232
Y100984
X74508Y92421
X69784Y92323
X62697Y89173
X62598Y77854
X68799Y70276
X77067Y79626
X75590Y81988
X82579Y82579
X81004Y84941
X84449Y80413
X88386Y79134
X90158Y77165
X92028Y75197
X115847Y68110
X119488Y50886
X116634Y45472
X113189Y46063
X111221Y40354
X112795Y32087
X115650Y28445
X122146Y27165
X121161Y23524
X112205Y20965
X96161Y17323
X96358Y25477
X96457Y35335
X96358Y43489
X100912Y42789
X87205Y44488
X87402Y34350
X87303Y26476
X87402Y16043
X81102Y20768
X81004Y38780
X67028Y35827
X67913Y45177
X59500Y49500
X57087Y32776
X62106Y26673
X62402Y21949
X52362Y24311
X50000Y28150
X47835Y38484
X40179Y41784
X40256Y50098
X41634Y59055
X46030Y56529
X39540Y66900
X31890Y63779
X27264Y62402
X21434Y68166
X21534Y78834
X27362Y76968
X31988Y78740
X39640Y79500
X46358Y73721
X39000Y93000
X31200
X26600Y92000
X22539Y93110
X32000Y101000
X33071Y116043
X29429Y123425
X43500Y108700
X47600Y108900
X54921Y96752
X65939Y100638
X83268Y117717
X94095Y120276
X110335Y102165
X110700Y93200
X113500Y95700
X118799Y37402
X123819Y35335
Y40354
X136221Y41437
X136417Y25591
X138878Y15536
X127854Y16732
X36417
X31398Y15945
X30413Y10728
X25000Y16929
X25197Y25886
X31594Y24902
X36319Y25787
X25197Y34744
X24803Y46850
X21434Y44366
X32283Y45374
X-1004Y103328
T02
X150591Y46949
X157500Y62500
Y65900
Y69200
Y72600
X144657Y77681
X126799Y76650
X126516Y67618
X135236Y67224
X135728Y58169
X126417Y58465
X110335Y61516
X97523Y53689
X90354Y53642
X84842Y67323
X84842Y70473
X76476Y59941
X62795Y65453
X53642
X52559Y40748
X51575Y146457
X48031
X44488
X40945
Y150000
X44488
X48031
X51575
Y153543
Y157087
X48031
Y153543
X44488
X40945
Y157087
X44488
X44457Y172300
X48000
X51543
X55087
X56900Y183200
Y188800
X57839Y194938
X59807Y198875
X61776Y202812
X57839
X53902
X49965
X51933Y206749
X55870
X59807
X61776Y210686
X57839
X53902
X49965
X51933Y214623
X55870
X59807
X53902Y218560
X28787Y222000
X25243
X21700
X18013Y221900
X18000Y218000
X14457
X10913
X7443Y218100
X3900
X3843Y222000
Y226000
Y230000
Y234000
X18013
X21700
X25243
X28787
Y230000
X25243
X21700
X18013
Y226000
X21700
X25243
X28787
X25300Y218100
X21600Y218000
X18504Y204724
X14961
X11417
X7874
X4331
X787
X-2756
Y201181
X-6299
Y197638
X-2756
X787
Y201181
X4331
Y197638
Y194095
X787
X-2756
X-6299
Y190551
X-2756
X787
X4331
X18504
Y194095
Y197638
Y201181
X26343Y183126
X30280
X34217
X28311Y179190
X24374
X22406Y175252
X18469
X20079Y168110
Y164567
Y161024
Y157480
X16535
X12992
X9449
Y161024
X12992
X16535
Y164567
Y168110
X12992
Y164567
X9449
Y168110
X7700Y141000
X11243
X14787
X18330
X75100Y146370
X78643
Y149913
X75100
Y153457
Y157000
X78643
Y153457
X82187
Y157000
X85730
Y153457
Y149913
X82187
Y146370
X85730
X86087Y171500
X82543
X79000
X81461Y175252
X83429Y179190
X84400Y182800
Y188400
X81461Y194938
X79492Y198875
X83429
X85398Y202812
X81461
X79492Y206749
X83429
X81461Y210686
X79492Y214623
X83429
X99177
X103114
X105083Y210686
X101146
X109020
X107052Y206749
X110988
X112957Y202812
X109020
X114926Y198875
X118862
X122800
X126737
X124768Y194938
X120831
X116894
X112957Y175252
X109020
X105083
X101146
X106693Y168110
Y164567
X110236
Y168110
X113779
Y164567
Y161024
Y157480
X110236
X106693
Y161024
X110236
X117323
Y157480
Y164567
Y168110
X139370
Y164567
Y161024
Y157480
X139343Y140700
X135800
X115930Y140300
X112387
X108843
X105300
X90000Y171500
X142913Y168110
Y164567
Y161024
Y157480
X146457
X150000
Y161024
X146457
Y164567
Y168110
X150000
Y164567
X148390Y175252
X152327
X150359Y179190
X146422
X154296
X158233
X162170
X166107
X172012Y175252
X175949
X179886
X178487Y157430
Y153887
X174943
Y157430
X171400
Y153887
Y150343
X174943
X178487
X182030
Y153887
Y157430
Y146800
X178487
X174943
X171400
X146430Y140700
X142887
X152327Y183126
X156264
X160201
X174803Y190551
Y194095
Y197638
Y201181
X174803Y204724
X178347
X181890
X185433
Y201181
X188976
X192520
X196063
Y197638
Y194095
Y190551
X192520
Y194095
X188976
Y190551
X185433
Y194095
Y197638
X188976
X192520
X192520Y204724
X188976
X186787Y218000
X183243
X179700
X176230Y218100
X172687
X169143
X165600
X165543Y222000
X162000
Y226000
X165543
X169087
X172630
Y230000
X169087
X165543
X162000
Y234000
X165543
X169087
X172630
Y222000
X169087
X186800Y221900
Y226000
Y230000
Y234000
T03
X174900Y6000
Y16000
Y26000
Y36000
Y46000
Y56000
Y66000
Y76000
Y86000
Y96000
X184900
Y86000
Y76000
Y66000
Y56000
Y46000
Y36000
Y26000
Y16000
Y6000
X14900
X4900
Y16000
Y26000
Y36000
Y46000
Y56000
Y66000
Y76000
Y86000
Y96000
X14900
Y86000
Y76000
Y66000
Y56000
Y46000
Y36000
Y26000
Y16000
T04
X144900Y11000
X134900
X124900
X114900Y11000
X104900Y11000
X94900
X64900
X54900
X44900
T05
X61024Y222342
X80709
X100394
X124803Y222441
X144488
M30
