G04 Layer_Color=65535*
%FSLAX25Y25*%
%MOIN*%
G70*
G01*
G75*
%ADD32C,0.01000*%
%ADD62C,0.00984*%
%ADD63C,0.02362*%
%ADD64C,0.00787*%
%ADD65C,0.00700*%
%ADD66C,0.00492*%
%ADD67R,0.03937X0.01969*%
G36*
X65467Y57343D02*
X63597D01*
X63406Y56779D01*
X65267D01*
X65044Y56128D01*
X63187D01*
X62801Y55000D01*
X62000D01*
X63015Y57989D01*
X65685D01*
X65467Y57343D01*
D02*
G37*
G36*
X66141Y55646D02*
X67992D01*
X67774Y55000D01*
X65121D01*
X66136Y57989D01*
X66941D01*
X66141Y55646D01*
D02*
G37*
G36*
X71637Y57343D02*
X70577D01*
X69776Y55000D01*
X68975D01*
X69771Y57343D01*
X68711D01*
X68930Y57989D01*
X71855D01*
X71637Y57343D01*
D02*
G37*
D32*
X13642Y144525D02*
X12981Y144906D01*
Y144144D01*
X13642Y144525D01*
X68420Y169709D02*
X67759Y170090D01*
Y169328D01*
X68420Y169709D01*
X102731Y169806D02*
X102070Y170187D01*
Y169424D01*
X102731Y169806D01*
X198597Y170002D02*
X197937Y170384D01*
Y169621D01*
X198597Y170002D01*
X143248Y144269D02*
X142588Y144650D01*
Y143888D01*
X143248Y144269D01*
X110866Y144171D02*
X110206Y144552D01*
Y143790D01*
X110866Y144171D01*
X181287Y126882D02*
Y133882D01*
X190287D01*
X190287Y126882D02*
X190287Y133882D01*
X181287Y114882D02*
Y122382D01*
Y114882D02*
X190287D01*
Y122382D01*
X202276Y231000D02*
X209776Y223500D01*
Y222949D02*
Y223500D01*
X194776Y190449D02*
X209776Y190449D01*
X194776Y231000D02*
X202276D01*
X209776Y190449D02*
Y222949D01*
X169224Y190449D02*
Y222949D01*
X176724Y231000D02*
X184224D01*
X169224Y190449D02*
X184224D01*
X169224Y222949D02*
Y223500D01*
X176724Y231000D01*
X70642Y74776D02*
X77642Y74776D01*
Y65776D02*
Y74776D01*
X70642Y65776D02*
X77642Y65776D01*
X58642Y74776D02*
X66142Y74776D01*
X58642Y74776D02*
X58642Y65776D01*
X66142D01*
X119472Y73189D02*
X123472D01*
X123472Y78189D01*
X119472Y78189D02*
X123472Y78189D01*
X112472Y73189D02*
X116472D01*
X112472D02*
X112472Y78189D01*
X116472D01*
X94815Y54898D02*
Y61898D01*
X85815Y54898D02*
X94815Y54898D01*
X85815Y61898D02*
X85815Y54898D01*
X94815Y66398D02*
Y73898D01*
X85815D02*
X94815D01*
X85815Y66398D02*
Y73898D01*
X92205Y43335D02*
X99205D01*
X92205D02*
Y52335D01*
X99205Y52335D01*
X103705Y43335D02*
X111205Y43335D01*
X111205Y52335D01*
X103705Y52335D02*
X111205Y52335D01*
X30102Y169925D02*
Y171725D01*
X34702D01*
X15102Y171625D02*
X19702D01*
Y169925D02*
X30102D01*
X19702D02*
Y171625D01*
X14002Y152618D02*
X15002D01*
X15002Y142972D02*
X15002Y152618D01*
X34702Y152525D02*
X35906Y152525D01*
X34702Y142972D02*
Y152525D01*
X15002Y142972D02*
X34702D01*
X35906Y152525D02*
Y157625D01*
X15102Y157736D02*
X15102Y171625D01*
X14002Y157736D02*
X15102D01*
X14002D02*
X14002Y152618D01*
X34702Y157625D02*
X35906Y157625D01*
X34702Y171725D02*
X34702Y157625D01*
X51079Y142509D02*
Y144309D01*
X46479Y142509D02*
X51079D01*
X61480Y142609D02*
X66079D01*
X51079Y144309D02*
X61480D01*
Y142609D02*
Y144309D01*
X66180Y161616D02*
X67180D01*
X66180D02*
Y171262D01*
X45276Y161709D02*
X46479D01*
Y171262D01*
X66180D01*
X45276Y156609D02*
Y161709D01*
X66079Y142609D02*
X66079Y156498D01*
X67180D01*
Y161616D01*
X45276Y156609D02*
X46479Y156609D01*
X46479Y142509D01*
X85391Y142606D02*
Y144406D01*
X80791Y142606D02*
X85391D01*
X95790Y142706D02*
X100391Y142706D01*
X85391Y144406D02*
X95790D01*
Y142706D02*
Y144406D01*
X100491Y161713D02*
X101490D01*
X100491D02*
Y171358D01*
X79587Y161806D02*
X80791D01*
Y171358D01*
X100491D01*
X79587Y156706D02*
Y161806D01*
X100391Y142706D02*
Y156595D01*
X101490D01*
Y161713D01*
X79587Y156706D02*
X80791D01*
Y142606D02*
Y156706D01*
X181257Y142802D02*
Y144602D01*
X176657Y142802D02*
X181257D01*
X191657Y142902D02*
X196257D01*
X181257Y144602D02*
X191657D01*
Y142902D02*
Y144602D01*
X196357Y161909D02*
X197357D01*
X196357D02*
Y171555D01*
X175453Y162002D02*
X176657D01*
Y171555D01*
X196357D01*
X175453Y156902D02*
Y162002D01*
X196257Y142902D02*
X196257Y156791D01*
X197357D01*
Y161909D01*
X175453Y156902D02*
X176657D01*
X176657Y142802D02*
X176657Y156902D01*
X159708Y169669D02*
Y171469D01*
X164308D01*
X144708Y171369D02*
X149308D01*
Y169669D02*
X159708D01*
X149308D02*
Y171369D01*
X143608Y152362D02*
X144608D01*
Y142717D02*
Y152362D01*
X164308Y152269D02*
X165512D01*
X164308Y142717D02*
Y152269D01*
X144608Y142717D02*
X164308D01*
X165512Y152269D02*
Y157369D01*
X144708Y157480D02*
Y171369D01*
X143608Y157480D02*
X144708D01*
X143608Y152362D02*
Y157480D01*
X164308Y157369D02*
X165512D01*
X164308D02*
Y171469D01*
X50226Y45205D02*
X58555D01*
X50226D02*
Y54205D01*
X58555D01*
X63055Y45205D02*
X70555D01*
Y54205D01*
X63055Y54205D02*
X70555Y54205D01*
X52096Y45205D02*
Y54106D01*
X42000Y92787D02*
X49000D01*
Y83787D02*
Y92787D01*
X42000Y83787D02*
X49000Y83787D01*
X30000Y92787D02*
X37500D01*
X30000Y83787D02*
Y92787D01*
Y83787D02*
X37500D01*
X42941Y78122D02*
X49941D01*
Y69122D02*
Y78122D01*
X42941Y69122D02*
X49941D01*
X30941Y78122D02*
X38441D01*
X30941Y69122D02*
Y78122D01*
Y69122D02*
X38441D01*
X70740Y96724D02*
X77740D01*
Y87724D02*
Y96724D01*
X70740Y87724D02*
X77740Y87724D01*
X58740Y96724D02*
X66240Y96724D01*
X58740Y87724D02*
Y96724D01*
Y87724D02*
X66240D01*
X70598Y85799D02*
X77598Y85799D01*
X77598Y76799D01*
X70598Y76799D02*
X77598Y76799D01*
X58598Y85799D02*
X66098Y85799D01*
X58598Y76799D02*
Y85799D01*
Y76799D02*
X66098Y76799D01*
X92303Y34280D02*
X99303D01*
X92303Y43279D02*
X92303Y34280D01*
X92303Y43279D02*
X99303Y43279D01*
X103803Y34280D02*
X111303Y34280D01*
Y43279D01*
X103803Y43279D02*
X111303Y43279D01*
X92303Y25323D02*
X99303Y25323D01*
X92303Y25323D02*
Y34323D01*
X99303D01*
X103803Y25323D02*
X111303D01*
Y34323D01*
X103803D02*
X111303D01*
X92358Y16381D02*
X99358Y16381D01*
X92358Y16381D02*
Y25381D01*
X99358Y25381D01*
X103858Y16381D02*
X111358D01*
X111358Y25381D01*
X103858D02*
X111358D01*
X114783Y117353D02*
X119732Y112404D01*
X114783Y117353D02*
X121147Y123717D01*
X126096Y118768D01*
X122914Y109222D02*
X128217Y103919D01*
X134581Y110283D01*
X129278Y115586D02*
X134581Y110283D01*
X108600Y144500D02*
X115600Y144500D01*
X115600Y135500D02*
X115600Y144500D01*
X108600Y135500D02*
X115600Y135500D01*
X96600Y144500D02*
X104100D01*
X96600Y135500D02*
X96600Y144500D01*
X96600Y135500D02*
X104100Y135500D01*
X42000Y24941D02*
X49000Y24941D01*
Y15941D02*
Y24941D01*
X42000Y15941D02*
X49000Y15941D01*
X30000Y24941D02*
X37500D01*
X30000Y15941D02*
Y24941D01*
Y15941D02*
X37500D01*
X180176Y-63D02*
Y101906D01*
X199861D01*
Y-63D02*
Y101906D01*
X180176Y-63D02*
X199861D01*
X141764Y84228D02*
X141764Y91228D01*
X132764Y84228D02*
X141764Y84228D01*
X132764Y84228D02*
Y91228D01*
X141764Y103228D02*
X141764Y95728D01*
X132764Y103228D02*
X141764Y103228D01*
X132764Y95728D02*
X132764Y103228D01*
X145354Y53571D02*
X152354Y53571D01*
X145354Y62571D02*
X145354Y53571D01*
X145354Y62571D02*
X152354D01*
X156854Y53571D02*
X164354Y53571D01*
Y62571D01*
X156854D02*
X164354D01*
X142111Y42449D02*
X149111Y42449D01*
X142111Y42449D02*
Y51449D01*
X149111D01*
X153611Y42449D02*
X161111D01*
Y51449D01*
X153611Y51449D02*
X161111Y51449D01*
X154117Y42492D02*
X161117Y42492D01*
Y33492D02*
Y42492D01*
X154117Y33492D02*
X161117D01*
X142117Y42492D02*
X149617Y42492D01*
X142117Y42492D02*
X142117Y33492D01*
X149617D01*
X154117Y33535D02*
X161117D01*
X161117Y24535D02*
X161117Y33535D01*
X154117Y24535D02*
X161117Y24535D01*
X142117Y33535D02*
X149617D01*
X142117Y24535D02*
Y33535D01*
Y24535D02*
X149617Y24535D01*
X161161Y16268D02*
X168161D01*
X161161D02*
Y25268D01*
X168161D01*
X172661Y16268D02*
X180161Y16268D01*
X180161Y25268D02*
X180161Y16268D01*
X172661Y25268D02*
X180161D01*
X161205Y25520D02*
X168205Y25520D01*
X161205Y25520D02*
Y34520D01*
X168205D01*
X172705Y25520D02*
X180206Y25520D01*
Y34520D01*
X172705Y34520D02*
X180206Y34520D01*
X161299Y35067D02*
X168299Y35067D01*
X161299Y35067D02*
Y44067D01*
X168299Y44067D01*
X172799Y35067D02*
X180299Y35067D01*
Y44067D01*
X172799D02*
X180299D01*
X41902Y33929D02*
X48902Y33929D01*
Y24929D02*
Y33929D01*
X41902Y24929D02*
X48902Y24929D01*
X29902Y33929D02*
X37402Y33929D01*
X29902Y24929D02*
Y33929D01*
Y24929D02*
X37402Y24929D01*
X41902Y63752D02*
X48902Y63752D01*
Y54752D02*
Y63752D01*
X41902Y54752D02*
X48902Y54752D01*
X29902Y63752D02*
X37402Y63752D01*
X29902Y54752D02*
Y63752D01*
Y54752D02*
X37402Y54752D01*
X41902Y42984D02*
X48902D01*
X48902Y33984D02*
X48902Y42984D01*
X41902Y33984D02*
X48902Y33984D01*
X29902Y42984D02*
X37402Y42984D01*
X29902Y33984D02*
Y42984D01*
Y33984D02*
X37402Y33984D01*
X63595Y36264D02*
X70595D01*
X63595Y45264D02*
X63595Y36264D01*
X63595Y45264D02*
X70595D01*
X75095Y36264D02*
X82595Y36264D01*
Y45264D01*
X75095D02*
X82595D01*
X41902Y54205D02*
X48902D01*
Y45205D02*
Y54205D01*
X41902Y45205D02*
X48902Y45205D01*
X29902Y54205D02*
X37402D01*
X29902Y45205D02*
Y54205D01*
Y45205D02*
X37402D01*
X21900Y133300D02*
X21900Y126300D01*
X21900Y133300D02*
X30900D01*
X30900Y126300D01*
X21900Y114300D02*
Y121800D01*
Y114300D02*
X30900D01*
Y121800D01*
X45700Y131200D02*
X45700Y138200D01*
X54700D01*
X54700Y131200D01*
X45700Y119200D02*
Y126700D01*
Y119200D02*
X54700D01*
Y126700D01*
X154500Y131400D02*
Y138400D01*
X163500D01*
Y131400D02*
Y138400D01*
X154500Y119400D02*
Y126900D01*
Y119400D02*
X163500D01*
Y126900D01*
X76268Y136332D02*
X81217Y141281D01*
X87581Y134917D01*
X82632Y129968D02*
X87581Y134917D01*
X67782Y127847D02*
X73086Y133150D01*
X67782Y127847D02*
X74146Y121483D01*
X79450Y126786D01*
X131282Y137354D02*
X136232Y132404D01*
X131282Y137354D02*
X137646Y143718D01*
X142596Y138768D01*
X139414Y129222D02*
X144718Y123918D01*
X151082Y130282D01*
X145778Y135586D02*
X151082Y130282D01*
X127326Y169571D02*
Y171371D01*
X131926D01*
X112326Y171271D02*
X116926D01*
Y169571D02*
X127326D01*
X116926D02*
Y171271D01*
X111226Y152264D02*
X112226D01*
Y142618D02*
Y152264D01*
X131926Y152171D02*
X133130D01*
X131926Y142618D02*
Y152171D01*
X112226Y142618D02*
X131926D01*
X133130Y152171D02*
Y157271D01*
X112326Y157382D02*
Y171271D01*
X111226Y157382D02*
X112326D01*
X111226Y152264D02*
Y157382D01*
X131926Y157271D02*
X133130D01*
X131926D02*
Y171371D01*
X30000Y92843D02*
X37500Y92843D01*
X30000Y92843D02*
Y101842D01*
X37500Y101842D01*
X42000Y92843D02*
X49000D01*
Y101842D01*
X42000D02*
X49000D01*
X148398Y81173D02*
X155398Y81173D01*
X155398Y72173D01*
X148398D02*
X155398D01*
X136398Y81173D02*
X143898Y81173D01*
X136398Y81173D02*
X136398Y72173D01*
X143898Y72173D01*
X33776Y231000D02*
X41276Y223500D01*
Y222949D02*
Y223500D01*
X26276Y190449D02*
X41276D01*
X26276Y231000D02*
X33776D01*
X41276Y190449D02*
Y222949D01*
X724Y190449D02*
Y222949D01*
X8224Y231000D02*
X15724D01*
X724Y190449D02*
X15724D01*
X724Y222949D02*
X724Y223500D01*
X8224Y231000D01*
X157311Y71626D02*
X165640D01*
X165640Y62626D01*
X157311D02*
X165640D01*
X145311Y71626D02*
X152811Y71626D01*
X145311Y62626D02*
X145311Y71626D01*
X145311Y62626D02*
X152811Y62626D01*
X163770Y71626D02*
X163770Y62724D01*
X10176Y-63D02*
Y101906D01*
X29861D01*
Y-63D02*
Y101906D01*
X10176Y-63D02*
X29861D01*
X154119Y24480D02*
X161119Y24480D01*
Y15480D02*
Y24480D01*
X154119Y15480D02*
X161119Y15480D01*
X142119Y24480D02*
X149619D01*
X142119Y15480D02*
X142119Y24480D01*
X142119Y15480D02*
X149619D01*
X145405Y53224D02*
Y60224D01*
X136406Y53224D02*
X145405Y53224D01*
X136406Y53224D02*
X136406Y60224D01*
X145405Y64724D02*
Y72224D01*
X136406D02*
X145405D01*
X136406Y64724D02*
X136406Y72224D01*
D62*
X123736Y105096D02*
X122998Y105522D01*
Y104670D01*
X123736Y105096D01*
X77539Y14655D02*
X76801Y15081D01*
Y14229D01*
X77539Y14655D01*
X117087Y53622D02*
X116348Y54048D01*
Y53196D01*
X117087Y53622D01*
D63*
X69567Y19694D02*
X69122Y20618D01*
X68123Y20846D01*
X67322Y20207D01*
Y19182D01*
X68123Y18543D01*
X69122Y18771D01*
X69567Y19694D01*
X126043Y48661D02*
X125599Y49585D01*
X124599Y49813D01*
X123798Y49174D01*
Y48149D01*
X124599Y47510D01*
X125599Y47738D01*
X126043Y48661D01*
D64*
X140807Y184744D02*
Y187106D01*
X150453Y184744D02*
Y187106D01*
X139530Y172925D02*
X139530Y198925D01*
X151730Y198925D01*
X151730Y172925D01*
X139530D02*
X151730D01*
X97106Y184941D02*
Y187303D01*
X106752Y184941D02*
Y187303D01*
X95829Y173122D02*
Y199122D01*
X108029D01*
Y173122D02*
Y199122D01*
X95829Y173122D02*
X108029D01*
X102713Y119642D02*
X103896Y120825D01*
X105079Y119642D01*
X85940Y102869D02*
X87123Y104052D01*
X85940Y102869D02*
X87123Y101686D01*
X102713Y86096D02*
X103896Y84913D01*
X105079Y86096D01*
X120669Y101686D02*
X121852Y102869D01*
X120669Y104052D02*
X121852Y102869D01*
X45000Y-40000D02*
Y15500D01*
X84900D01*
X45000Y-40000D02*
X84900D01*
Y15500D01*
X94979Y-39709D02*
Y15409D01*
Y-39709D02*
X165058D01*
Y15409D01*
X94979D02*
X165058D01*
X95973Y55971D02*
Y73294D01*
Y55971D02*
X116445D01*
X116445Y73294D02*
X116445Y55971D01*
X95973Y73294D02*
X116445D01*
X54291Y184941D02*
Y187303D01*
X63937Y184941D02*
Y187303D01*
X53014Y199122D02*
X53014Y173122D01*
X53014Y199122D02*
X65214D01*
X65214Y173122D02*
X65214Y199122D01*
X53014Y173122D02*
X65214D01*
X59724Y35443D02*
X72323D01*
X59724Y15757D02*
X72323D01*
X59724D02*
Y35443D01*
X72323Y15757D02*
Y35443D01*
X120925Y17953D02*
X133524D01*
X120925Y52598D02*
X133524Y52598D01*
Y17953D02*
Y52598D01*
X120925Y52598D02*
X120925Y17953D01*
X124961Y238189D02*
X124961Y209252D01*
X124961Y202756D02*
Y206496D01*
X122599Y210237D02*
X122599Y205512D01*
X124961Y202756D02*
X164331Y202756D01*
X124961Y238189D02*
X164331Y238189D01*
X122599Y205512D02*
X124961Y206496D01*
X122599Y210237D02*
X124961Y209252D01*
X164331Y202756D02*
X164331Y238189D01*
X61181Y209154D02*
Y238091D01*
Y202658D02*
Y206398D01*
X120237Y202658D02*
Y238091D01*
X61181Y238091D02*
X120237Y238091D01*
X61181Y202658D02*
X120237D01*
X58819Y205414D02*
Y210138D01*
Y205414D02*
X61181Y206398D01*
X58819Y210138D02*
X61181Y209154D01*
D65*
X117283Y67809D02*
X123583D01*
Y55604D02*
Y73320D01*
X117283Y55604D02*
Y73320D01*
Y55604D02*
X123583D01*
X117283Y73320D02*
X123583D01*
D66*
X180000Y120000D02*
X176458D01*
Y121771D01*
X177048Y122361D01*
X178229D01*
X178819Y121771D01*
Y120000D01*
Y121181D02*
X180000Y122361D01*
Y125313D02*
X176458D01*
X178229Y123542D01*
Y125904D01*
X176458Y129446D02*
X177048Y128265D01*
X178229Y127084D01*
X179410D01*
X180000Y127675D01*
Y128855D01*
X179410Y129446D01*
X178819D01*
X178229Y128855D01*
Y127084D01*
X201361Y183452D02*
X200771Y184042D01*
X199590D01*
X199000Y183452D01*
Y181090D01*
X199590Y180500D01*
X200771D01*
X201361Y181090D01*
X202542Y180500D02*
X203723D01*
X203133D01*
Y184042D01*
X202542Y183452D01*
X205494D02*
X206084Y184042D01*
X207265D01*
X207855Y183452D01*
Y182861D01*
X207265Y182271D01*
X206675D01*
X207265D01*
X207855Y181681D01*
Y181090D01*
X207265Y180500D01*
X206084D01*
X205494Y181090D01*
X55361Y237542D02*
X54181D01*
X54771D01*
Y234590D01*
X54181Y234000D01*
X53590D01*
X53000Y234590D01*
X58904Y237542D02*
X57723Y236952D01*
X56542Y235771D01*
Y234590D01*
X57133Y234000D01*
X58313D01*
X58904Y234590D01*
Y235181D01*
X58313Y235771D01*
X56542D01*
X167361Y238542D02*
X166181D01*
X166771D01*
Y235590D01*
X166181Y235000D01*
X165590D01*
X165000Y235590D01*
X170904Y238542D02*
X168542D01*
Y236771D01*
X169723Y237361D01*
X170313D01*
X170904Y236771D01*
Y235590D01*
X170313Y235000D01*
X169132D01*
X168542Y235590D01*
X51000Y56000D02*
Y59542D01*
X52771D01*
X53361Y58952D01*
Y57771D01*
X52771Y57181D01*
X51000D01*
X52181D02*
X53361Y56000D01*
X56904D02*
X54542D01*
X56904Y58361D01*
Y58952D01*
X56313Y59542D01*
X55133D01*
X54542Y58952D01*
X58084D02*
X58675Y59542D01*
X59855D01*
X60446Y58952D01*
Y58361D01*
X59855Y57771D01*
X60446Y57181D01*
Y56590D01*
X59855Y56000D01*
X58675D01*
X58084Y56590D01*
Y57181D01*
X58675Y57771D01*
X58084Y58361D01*
Y58952D01*
X58675Y57771D02*
X59855D01*
X72000Y55542D02*
Y52000D01*
X73771D01*
X74361Y52590D01*
Y54952D01*
X73771Y55542D01*
X72000D01*
X77904Y54952D02*
X77313Y55542D01*
X76133D01*
X75542Y54952D01*
Y54361D01*
X76133Y53771D01*
X77313D01*
X77904Y53181D01*
Y52590D01*
X77313Y52000D01*
X76133D01*
X75542Y52590D01*
X81446Y52000D02*
X79084D01*
X81446Y54361D01*
Y54952D01*
X80855Y55542D01*
X79675D01*
X79084Y54952D01*
X31000Y1000D02*
Y4542D01*
X32771D01*
X33361Y3952D01*
Y2771D01*
X32771Y2181D01*
X31000D01*
X32181D02*
X33361Y1000D01*
X36904Y4542D02*
X34542D01*
Y2771D01*
X35723Y3361D01*
X36313D01*
X36904Y2771D01*
Y1590D01*
X36313Y1000D01*
X35133D01*
X34542Y1590D01*
X40446Y4542D02*
X38084D01*
Y2771D01*
X39265Y3361D01*
X39855D01*
X40446Y2771D01*
Y1590D01*
X39855Y1000D01*
X38675D01*
X38084Y1590D01*
X31000Y6000D02*
Y9542D01*
X32771D01*
X33361Y8952D01*
Y7771D01*
X32771Y7181D01*
X31000D01*
X32181D02*
X33361Y6000D01*
X36313D02*
Y9542D01*
X34542Y7771D01*
X36904D01*
X40446Y9542D02*
X38084D01*
Y7771D01*
X39265Y8361D01*
X39855D01*
X40446Y7771D01*
Y6590D01*
X39855Y6000D01*
X38675D01*
X38084Y6590D01*
X127000Y57542D02*
Y54590D01*
X127590Y54000D01*
X128771D01*
X129361Y54590D01*
Y57542D01*
X130542Y56952D02*
X131132Y57542D01*
X132313D01*
X132904Y56952D01*
Y56361D01*
X132313Y55771D01*
X131723D01*
X132313D01*
X132904Y55181D01*
Y54590D01*
X132313Y54000D01*
X131132D01*
X130542Y54590D01*
X50000Y39542D02*
Y36590D01*
X50590Y36000D01*
X51771D01*
X52361Y36590D01*
Y39542D01*
X55904Y36000D02*
X53542D01*
X55904Y38361D01*
Y38952D01*
X55313Y39542D01*
X54132D01*
X53542Y38952D01*
X83185Y76279D02*
X79643D01*
Y78051D01*
X80233Y78641D01*
X81414D01*
X82004Y78051D01*
Y76279D01*
Y77460D02*
X83185Y78641D01*
X79643Y82183D02*
Y79822D01*
X81414D01*
X80824Y81002D01*
Y81593D01*
X81414Y82183D01*
X82595D01*
X83185Y81593D01*
Y80412D01*
X82595Y79822D01*
X79643Y83364D02*
Y85725D01*
X80233D01*
X82595Y83364D01*
X83185D01*
X63000Y98300D02*
Y101842D01*
X64771D01*
X65361Y101252D01*
Y100071D01*
X64771Y99481D01*
X63000D01*
X64181D02*
X65361Y98300D01*
X68904Y101842D02*
X66542D01*
Y100071D01*
X67723Y100661D01*
X68313D01*
X68904Y100071D01*
Y98890D01*
X68313Y98300D01*
X67133D01*
X66542Y98890D01*
X72446Y101842D02*
X71265Y101252D01*
X70084Y100071D01*
Y98890D01*
X70675Y98300D01*
X71855D01*
X72446Y98890D01*
Y99481D01*
X71855Y100071D01*
X70084D01*
X36000Y120000D02*
X32458D01*
Y121771D01*
X33048Y122361D01*
X34229D01*
X34819Y121771D01*
Y120000D01*
Y121181D02*
X36000Y122361D01*
X32458Y125904D02*
Y123542D01*
X34229D01*
X33639Y124723D01*
Y125313D01*
X34229Y125904D01*
X35410D01*
X36000Y125313D01*
Y124133D01*
X35410Y123542D01*
X36000Y128855D02*
X32458D01*
X34229Y127084D01*
Y129446D01*
X63800Y59700D02*
Y63242D01*
X65571D01*
X66161Y62652D01*
Y61471D01*
X65571Y60881D01*
X63800D01*
X64981D02*
X66161Y59700D01*
X69704Y63242D02*
X67342D01*
Y61471D01*
X68523Y62061D01*
X69113D01*
X69704Y61471D01*
Y60290D01*
X69113Y59700D01*
X67932D01*
X67342Y60290D01*
X70884Y59700D02*
X72065D01*
X71475D01*
Y63242D01*
X70884Y62652D01*
X60000Y125000D02*
X56458D01*
Y126771D01*
X57048Y127361D01*
X58229D01*
X58819Y126771D01*
Y125000D01*
Y126181D02*
X60000Y127361D01*
X56458Y130904D02*
Y128542D01*
X58229D01*
X57639Y129723D01*
Y130313D01*
X58229Y130904D01*
X59410D01*
X60000Y130313D01*
Y129132D01*
X59410Y128542D01*
X57048Y132084D02*
X56458Y132675D01*
Y133855D01*
X57048Y134446D01*
X59410D01*
X60000Y133855D01*
Y132675D01*
X59410Y132084D01*
X57048D01*
X81000Y122000D02*
X78495Y124505D01*
X79748Y125757D01*
X80583D01*
X81417Y124922D01*
Y124087D01*
X80165Y122835D01*
X81000Y123670D02*
X82670D01*
X84757Y125757D02*
X82252Y128262D01*
Y125757D01*
X83922Y127427D01*
X85592D02*
X86427D01*
X87262Y128262D01*
Y129097D01*
X85592Y130766D01*
X84757D01*
X83922Y129931D01*
Y129097D01*
X84340Y128679D01*
X85175D01*
X86427Y129931D01*
X131000Y131000D02*
X133505Y133505D01*
X134757Y132252D01*
Y131418D01*
X133922Y130582D01*
X133087D01*
X131835Y131835D01*
X132670Y131000D02*
Y129330D01*
X134757Y127243D02*
X137262Y129748D01*
X134757D01*
X136427Y128078D01*
X138097D02*
X138932D01*
X139766Y127243D01*
Y126408D01*
X139349Y125991D01*
X138514D01*
Y125156D01*
X138097Y124738D01*
X137262D01*
X136427Y125573D01*
Y126408D01*
X136844Y126825D01*
X137679D01*
Y127660D01*
X138097Y128078D01*
X137679Y126825D02*
X138514Y125991D01*
X168000Y125000D02*
X164458D01*
Y126771D01*
X165048Y127361D01*
X166229D01*
X166819Y126771D01*
Y125000D01*
Y126181D02*
X168000Y127361D01*
Y130313D02*
X164458D01*
X166229Y128542D01*
Y130904D01*
X164458Y132084D02*
Y134446D01*
X165048D01*
X167410Y132084D01*
X168000D01*
X52000Y61000D02*
Y64542D01*
X53771D01*
X54361Y63952D01*
Y62771D01*
X53771Y62181D01*
X52000D01*
X53181D02*
X54361Y61000D01*
X57313D02*
Y64542D01*
X55542Y62771D01*
X57904D01*
X59084Y63952D02*
X59675Y64542D01*
X60855D01*
X61446Y63952D01*
Y61590D01*
X60855Y61000D01*
X59675D01*
X59084Y61590D01*
Y63952D01*
X55177Y69291D02*
X51635D01*
Y71062D01*
X52225Y71653D01*
X53406D01*
X53996Y71062D01*
Y69291D01*
Y70472D02*
X55177Y71653D01*
X52225Y72834D02*
X51635Y73424D01*
Y74605D01*
X52225Y75195D01*
X52816D01*
X53406Y74605D01*
Y74014D01*
Y74605D01*
X53996Y75195D01*
X54587D01*
X55177Y74605D01*
Y73424D01*
X54587Y72834D01*
Y76376D02*
X55177Y76966D01*
Y78147D01*
X54587Y78737D01*
X52225D01*
X51635Y78147D01*
Y76966D01*
X52225Y76376D01*
X52816D01*
X53406Y76966D01*
Y78737D01*
X54000Y82000D02*
X50458D01*
Y83771D01*
X51048Y84361D01*
X52229D01*
X52819Y83771D01*
Y82000D01*
Y83181D02*
X54000Y84361D01*
X51048Y85542D02*
X50458Y86133D01*
Y87313D01*
X51048Y87904D01*
X51639D01*
X52229Y87313D01*
Y86723D01*
Y87313D01*
X52819Y87904D01*
X53410D01*
X54000Y87313D01*
Y86133D01*
X53410Y85542D01*
X51048Y89084D02*
X50458Y89675D01*
Y90855D01*
X51048Y91446D01*
X51639D01*
X52229Y90855D01*
X52819Y91446D01*
X53410D01*
X54000Y90855D01*
Y89675D01*
X53410Y89084D01*
X52819D01*
X52229Y89675D01*
X51639Y89084D01*
X51048D01*
X52229Y89675D02*
Y90855D01*
X31000Y11000D02*
Y14542D01*
X32771D01*
X33361Y13952D01*
Y12771D01*
X32771Y12181D01*
X31000D01*
X32181D02*
X33361Y11000D01*
X34542Y13952D02*
X35133Y14542D01*
X36313D01*
X36904Y13952D01*
Y13361D01*
X36313Y12771D01*
X35723D01*
X36313D01*
X36904Y12181D01*
Y11590D01*
X36313Y11000D01*
X35133D01*
X34542Y11590D01*
X38084Y14542D02*
X40446D01*
Y13952D01*
X38084Y11590D01*
Y11000D01*
X156000Y190000D02*
X152458D01*
Y191771D01*
X153048Y192361D01*
X154229D01*
X154819Y191771D01*
Y190000D01*
Y191181D02*
X156000Y192361D01*
X153048Y193542D02*
X152458Y194132D01*
Y195313D01*
X153048Y195904D01*
X153639D01*
X154229Y195313D01*
Y194723D01*
Y195313D01*
X154819Y195904D01*
X155410D01*
X156000Y195313D01*
Y194132D01*
X155410Y193542D01*
X153048Y197084D02*
X152458Y197675D01*
Y198855D01*
X153048Y199446D01*
X155410D01*
X156000Y198855D01*
Y197675D01*
X155410Y197084D01*
X153048D01*
X112000Y191000D02*
X108458D01*
Y192771D01*
X109048Y193361D01*
X110229D01*
X110819Y192771D01*
Y191000D01*
Y192181D02*
X112000Y193361D01*
X109048Y194542D02*
X108458Y195133D01*
Y196313D01*
X109048Y196904D01*
X109639D01*
X110229Y196313D01*
Y195723D01*
Y196313D01*
X110819Y196904D01*
X111410D01*
X112000Y196313D01*
Y195133D01*
X111410Y194542D01*
X112000Y198084D02*
Y199265D01*
Y198675D01*
X108458D01*
X109048Y198084D01*
X52000Y189000D02*
X48458D01*
Y190771D01*
X49048Y191361D01*
X50229D01*
X50819Y190771D01*
Y189000D01*
Y190181D02*
X52000Y191361D01*
X49048Y192542D02*
X48458Y193132D01*
Y194313D01*
X49048Y194904D01*
X49639D01*
X50229Y194313D01*
Y193723D01*
Y194313D01*
X50819Y194904D01*
X51410D01*
X52000Y194313D01*
Y193132D01*
X51410Y192542D01*
X52000Y198446D02*
Y196084D01*
X49639Y198446D01*
X49048D01*
X48458Y197855D01*
Y196675D01*
X49048Y196084D01*
X165800Y50400D02*
Y53942D01*
X167571D01*
X168161Y53352D01*
Y52171D01*
X167571Y51581D01*
X165800D01*
X166981D02*
X168161Y50400D01*
X171704D02*
X169342D01*
X171704Y52761D01*
Y53352D01*
X171113Y53942D01*
X169932D01*
X169342Y53352D01*
X175246Y53942D02*
X172884D01*
Y52171D01*
X174065Y52761D01*
X174655D01*
X175246Y52171D01*
Y50990D01*
X174655Y50400D01*
X173475D01*
X172884Y50990D01*
X162700Y45000D02*
Y48542D01*
X164471D01*
X165061Y47952D01*
Y46771D01*
X164471Y46181D01*
X162700D01*
X163881D02*
X165061Y45000D01*
X168604D02*
X166242D01*
X168604Y47361D01*
Y47952D01*
X168013Y48542D01*
X166832D01*
X166242Y47952D01*
X171555Y45000D02*
Y48542D01*
X169784Y46771D01*
X172146D01*
X91000Y33000D02*
X87458D01*
Y34771D01*
X88048Y35361D01*
X89229D01*
X89819Y34771D01*
Y33000D01*
Y34181D02*
X91000Y35361D01*
Y38904D02*
Y36542D01*
X88639Y38904D01*
X88048D01*
X87458Y38313D01*
Y37132D01*
X88048Y36542D01*
Y40084D02*
X87458Y40675D01*
Y41855D01*
X88048Y42446D01*
X88639D01*
X89229Y41855D01*
Y41265D01*
Y41855D01*
X89819Y42446D01*
X90410D01*
X91000Y41855D01*
Y40675D01*
X90410Y40084D01*
X91000Y11000D02*
X87458D01*
Y12771D01*
X88048Y13361D01*
X89229D01*
X89819Y12771D01*
Y11000D01*
Y12181D02*
X91000Y13361D01*
Y16904D02*
Y14542D01*
X88639Y16904D01*
X88048D01*
X87458Y16313D01*
Y15133D01*
X88048Y14542D01*
X91000Y20446D02*
Y18084D01*
X88639Y20446D01*
X88048D01*
X87458Y19855D01*
Y18675D01*
X88048Y18084D01*
X170800Y5500D02*
X167258D01*
Y7271D01*
X167848Y7861D01*
X169029D01*
X169619Y7271D01*
Y5500D01*
Y6681D02*
X170800Y7861D01*
Y9042D02*
Y10223D01*
Y9633D01*
X167258D01*
X167848Y9042D01*
X167258Y14355D02*
X167848Y13175D01*
X169029Y11994D01*
X170210D01*
X170800Y12584D01*
Y13765D01*
X170210Y14355D01*
X169619D01*
X169029Y13765D01*
Y11994D01*
X91000Y44000D02*
X87458D01*
Y45771D01*
X88048Y46361D01*
X89229D01*
X89819Y45771D01*
Y44000D01*
Y45181D02*
X91000Y46361D01*
Y47542D02*
Y48723D01*
Y48133D01*
X87458D01*
X88048Y47542D01*
X87458Y52855D02*
Y50494D01*
X89229D01*
X88639Y51675D01*
Y52265D01*
X89229Y52855D01*
X90410D01*
X91000Y52265D01*
Y51084D01*
X90410Y50494D01*
X91000Y23000D02*
X87458D01*
Y24771D01*
X88048Y25361D01*
X89229D01*
X89819Y24771D01*
Y23000D01*
Y24181D02*
X91000Y25361D01*
Y26542D02*
Y27723D01*
Y27132D01*
X87458D01*
X88048Y26542D01*
X91000Y31265D02*
X87458D01*
X89229Y29494D01*
Y31855D01*
X165800Y55000D02*
Y58542D01*
X167571D01*
X168161Y57952D01*
Y56771D01*
X167571Y56181D01*
X165800D01*
X166981D02*
X168161Y55000D01*
X169342D02*
X170523D01*
X169932D01*
Y58542D01*
X169342Y57952D01*
X172294D02*
X172884Y58542D01*
X174065D01*
X174655Y57952D01*
Y55590D01*
X174065Y55000D01*
X172884D01*
X172294Y55590D01*
Y57952D01*
X172200Y6000D02*
Y9542D01*
X173971D01*
X174561Y8952D01*
Y7771D01*
X173971Y7181D01*
X172200D01*
X173381D02*
X174561Y6000D01*
X175742Y6590D02*
X176332Y6000D01*
X177513D01*
X178104Y6590D01*
Y8952D01*
X177513Y9542D01*
X176332D01*
X175742Y8952D01*
Y8361D01*
X176332Y7771D01*
X178104D01*
X172300Y11000D02*
Y14542D01*
X174071D01*
X174661Y13952D01*
Y12771D01*
X174071Y12181D01*
X172300D01*
X173481D02*
X174661Y11000D01*
X175842Y13952D02*
X176433Y14542D01*
X177613D01*
X178204Y13952D01*
Y13361D01*
X177613Y12771D01*
X178204Y12181D01*
Y11590D01*
X177613Y11000D01*
X176433D01*
X175842Y11590D01*
Y12181D01*
X176433Y12771D01*
X175842Y13361D01*
Y13952D01*
X176433Y12771D02*
X177613D01*
X173700Y45100D02*
Y48642D01*
X175471D01*
X176061Y48052D01*
Y46871D01*
X175471Y46281D01*
X173700D01*
X174881D02*
X176061Y45100D01*
X177242Y48642D02*
X179604D01*
Y48052D01*
X177242Y45690D01*
Y45100D01*
X171000Y59500D02*
Y63042D01*
X172771D01*
X173361Y62452D01*
Y61271D01*
X172771Y60681D01*
X171000D01*
X172181D02*
X173361Y59500D01*
X176313D02*
Y63042D01*
X174542Y61271D01*
X176904D01*
X77000Y47000D02*
Y50542D01*
X78771D01*
X79361Y49952D01*
Y48771D01*
X78771Y48181D01*
X77000D01*
X78181D02*
X79361Y47000D01*
X80542Y49952D02*
X81133Y50542D01*
X82313D01*
X82904Y49952D01*
Y49361D01*
X82313Y48771D01*
X81723D01*
X82313D01*
X82904Y48181D01*
Y47590D01*
X82313Y47000D01*
X81133D01*
X80542Y47590D01*
X106850Y78542D02*
Y75000D01*
X109212D01*
X110393D02*
X111573D01*
X110983D01*
Y78542D01*
X110393Y77952D01*
X182361Y106542D02*
X181181D01*
X181771D01*
Y103590D01*
X181181Y103000D01*
X180590D01*
X180000Y103590D01*
X185313Y103000D02*
Y106542D01*
X183542Y104771D01*
X185904D01*
X12361Y106542D02*
X11181D01*
X11771D01*
Y103590D01*
X11181Y103000D01*
X10590D01*
X10000Y103590D01*
X13542Y105952D02*
X14132Y106542D01*
X15313D01*
X15904Y105952D01*
Y105361D01*
X15313Y104771D01*
X14723D01*
X15313D01*
X15904Y104181D01*
Y103590D01*
X15313Y103000D01*
X14132D01*
X13542Y103590D01*
X168361Y4542D02*
X167181D01*
X167771D01*
Y1590D01*
X167181Y1000D01*
X166590D01*
X166000Y1590D01*
X171904Y1000D02*
X169542D01*
X171904Y3361D01*
Y3952D01*
X171313Y4542D01*
X170133D01*
X169542Y3952D01*
X88361Y4542D02*
X87181D01*
X87771D01*
Y1590D01*
X87181Y1000D01*
X86590D01*
X86000Y1590D01*
X89542Y1000D02*
X90723D01*
X90132D01*
Y4542D01*
X89542Y3952D01*
X157000Y76542D02*
Y73000D01*
X158771D01*
X159361Y73590D01*
Y75952D01*
X158771Y76542D01*
X157000D01*
X162904Y75952D02*
X162313Y76542D01*
X161133D01*
X160542Y75952D01*
Y75361D01*
X161133Y74771D01*
X162313D01*
X162904Y74181D01*
Y73590D01*
X162313Y73000D01*
X161133D01*
X160542Y73590D01*
X164084Y73000D02*
X165265D01*
X164675D01*
Y76542D01*
X164084Y75952D01*
X125000Y65542D02*
Y62000D01*
X126771D01*
X127361Y62590D01*
Y64952D01*
X126771Y65542D01*
X125000D01*
X130904D02*
X128542D01*
Y63771D01*
X129723Y64361D01*
X130313D01*
X130904Y63771D01*
Y62590D01*
X130313Y62000D01*
X129132D01*
X128542Y62590D01*
X103361Y132952D02*
X102771Y133542D01*
X101590D01*
X101000Y132952D01*
Y130590D01*
X101590Y130000D01*
X102771D01*
X103361Y130590D01*
X104542Y132952D02*
X105132Y133542D01*
X106313D01*
X106904Y132952D01*
Y132361D01*
X106313Y131771D01*
X105723D01*
X106313D01*
X106904Y131181D01*
Y130590D01*
X106313Y130000D01*
X105132D01*
X104542Y130590D01*
X110446Y130000D02*
X108084D01*
X110446Y132361D01*
Y132952D01*
X109855Y133542D01*
X108675D01*
X108084Y132952D01*
X82048Y62361D02*
X81458Y61771D01*
Y60590D01*
X82048Y60000D01*
X84410D01*
X85000Y60590D01*
Y61771D01*
X84410Y62361D01*
X85000Y65904D02*
Y63542D01*
X82639Y65904D01*
X82048D01*
X81458Y65313D01*
Y64132D01*
X82048Y63542D01*
Y67084D02*
X81458Y67675D01*
Y68855D01*
X82048Y69446D01*
X82639D01*
X83229Y68855D01*
X83819Y69446D01*
X84410D01*
X85000Y68855D01*
Y67675D01*
X84410Y67084D01*
X83819D01*
X83229Y67675D01*
X82639Y67084D01*
X82048D01*
X83229Y67675D02*
Y68855D01*
X127361Y76952D02*
X126771Y77542D01*
X125590D01*
X125000Y76952D01*
Y74590D01*
X125590Y74000D01*
X126771D01*
X127361Y74590D01*
X130904Y74000D02*
X128542D01*
X130904Y76361D01*
Y76952D01*
X130313Y77542D01*
X129132D01*
X128542Y76952D01*
X134446Y77542D02*
X133265Y76952D01*
X132084Y75771D01*
Y74590D01*
X132675Y74000D01*
X133855D01*
X134446Y74590D01*
Y75181D01*
X133855Y75771D01*
X132084D01*
X136761Y114552D02*
X136171Y115142D01*
X134990D01*
X134400Y114552D01*
Y112190D01*
X134990Y111600D01*
X136171D01*
X136761Y112190D01*
X140304Y111600D02*
X137942D01*
X140304Y113961D01*
Y114552D01*
X139713Y115142D01*
X138532D01*
X137942Y114552D01*
X143255Y111600D02*
Y115142D01*
X141484Y113371D01*
X143846D01*
X127761Y82052D02*
X127171Y82642D01*
X125990D01*
X125400Y82052D01*
Y79690D01*
X125990Y79100D01*
X127171D01*
X127761Y79690D01*
X131304Y79100D02*
X128942D01*
X131304Y81461D01*
Y82052D01*
X130713Y82642D01*
X129533D01*
X128942Y82052D01*
X134846Y79100D02*
X132484D01*
X134846Y81461D01*
Y82052D01*
X134255Y82642D01*
X133075D01*
X132484Y82052D01*
X4961Y185552D02*
X4371Y186142D01*
X3190D01*
X2600Y185552D01*
Y183190D01*
X3190Y182600D01*
X4371D01*
X4961Y183190D01*
X6142Y182600D02*
X7323D01*
X6733D01*
Y186142D01*
X6142Y185552D01*
X9094Y182600D02*
X10275D01*
X9684D01*
Y186142D01*
X9094Y185552D01*
X130361Y69952D02*
X129771Y70542D01*
X128590D01*
X128000Y69952D01*
Y67590D01*
X128590Y67000D01*
X129771D01*
X130361Y67590D01*
X133904Y67000D02*
X131542D01*
X133904Y69361D01*
Y69952D01*
X133313Y70542D01*
X132132D01*
X131542Y69952D01*
X159361Y80952D02*
X158771Y81542D01*
X157590D01*
X157000Y80952D01*
Y78590D01*
X157590Y78000D01*
X158771D01*
X159361Y78590D01*
X160542Y78000D02*
X161723D01*
X161133D01*
Y81542D01*
X160542Y80952D01*
X96000Y123542D02*
Y120590D01*
X96590Y120000D01*
X97771D01*
X98361Y120590D01*
Y123542D01*
X101904D02*
X99542D01*
Y121771D01*
X100723Y122361D01*
X101313D01*
X101904Y121771D01*
Y120590D01*
X101313Y120000D01*
X100133D01*
X99542Y120590D01*
X70410Y148361D02*
X68048D01*
X67458Y147771D01*
Y146590D01*
X68048Y146000D01*
X70410D01*
X71000Y146590D01*
Y147771D01*
X69819Y147181D02*
X71000Y148361D01*
Y147771D02*
X70410Y148361D01*
X71000Y149542D02*
Y150723D01*
Y150133D01*
X67458D01*
X68048Y149542D01*
X104410Y148361D02*
X102048D01*
X101458Y147771D01*
Y146590D01*
X102048Y146000D01*
X104410D01*
X105000Y146590D01*
Y147771D01*
X103819Y147181D02*
X105000Y148361D01*
Y147771D02*
X104410Y148361D01*
X105000Y151904D02*
Y149542D01*
X102639Y151904D01*
X102048D01*
X101458Y151313D01*
Y150133D01*
X102048Y149542D01*
X38410Y164361D02*
X36048D01*
X35458Y163771D01*
Y162590D01*
X36048Y162000D01*
X38410D01*
X39000Y162590D01*
Y163771D01*
X37819Y163181D02*
X39000Y164361D01*
Y163771D02*
X38410Y164361D01*
X39000Y167313D02*
X35458D01*
X37229Y165542D01*
Y167904D01*
X168410Y164361D02*
X166048D01*
X165458Y163771D01*
Y162590D01*
X166048Y162000D01*
X168410D01*
X169000Y162590D01*
Y163771D01*
X167819Y163181D02*
X169000Y164361D01*
Y163771D02*
X168410Y164361D01*
X165458Y167904D02*
X166048Y166723D01*
X167229Y165542D01*
X168410D01*
X169000Y166132D01*
Y167313D01*
X168410Y167904D01*
X167819D01*
X167229Y167313D01*
Y165542D01*
X200410Y145361D02*
X198048D01*
X197458Y144771D01*
Y143590D01*
X198048Y143000D01*
X200410D01*
X201000Y143590D01*
Y144771D01*
X199819Y144181D02*
X201000Y145361D01*
Y144771D02*
X200410Y145361D01*
X198048Y146542D02*
X197458Y147133D01*
Y148313D01*
X198048Y148904D01*
X198639D01*
X199229Y148313D01*
Y147723D01*
Y148313D01*
X199819Y148904D01*
X200410D01*
X201000Y148313D01*
Y147133D01*
X200410Y146542D01*
X54000Y93000D02*
X50458D01*
Y94771D01*
X51048Y95361D01*
X52229D01*
X52819Y94771D01*
Y93000D01*
Y94181D02*
X54000Y95361D01*
Y98904D02*
Y96542D01*
X51639Y98904D01*
X51048D01*
X50458Y98313D01*
Y97132D01*
X51048Y96542D01*
X50458Y100084D02*
Y102446D01*
X51048D01*
X53410Y100084D01*
X54000D01*
X136410Y163361D02*
X134048D01*
X133458Y162771D01*
Y161590D01*
X134048Y161000D01*
X136410D01*
X137000Y161590D01*
Y162771D01*
X135819Y162181D02*
X137000Y163361D01*
Y162771D02*
X136410Y163361D01*
X133458Y166904D02*
Y164542D01*
X135229D01*
X134639Y165723D01*
Y166313D01*
X135229Y166904D01*
X136410D01*
X137000Y166313D01*
Y165132D01*
X136410Y164542D01*
D67*
X154488Y239173D02*
D03*
X110394Y239075D02*
D03*
M02*
