G04 Layer_Color=32896*
%FSLAX25Y25*%
%MOIN*%
G70*
G01*
G75*
%ADD32C,0.01000*%
%ADD62C,0.00984*%
%ADD64C,0.00787*%
%ADD66C,0.00492*%
%ADD103C,0.00500*%
D32*
X132348Y53445D02*
X131513Y53927D01*
Y52963D01*
X132348Y53445D01*
X85224Y61898D02*
X85224Y54898D01*
X94225Y54898D01*
Y61898D01*
X85224Y73898D02*
X85224Y66398D01*
X85224Y73898D02*
X94225Y73898D01*
X94225Y66398D01*
X75787Y54964D02*
Y61964D01*
Y54964D02*
X84787Y54965D01*
X84787Y61964D01*
X75787Y66465D02*
X75787Y73964D01*
X84787D01*
X84787Y66465D02*
X84787Y73964D01*
X60642Y65776D02*
X67642Y65776D01*
X67642Y74776D01*
X60642Y74776D02*
X67642Y74776D01*
X48642Y65776D02*
X56142Y65776D01*
X48642Y65776D02*
X48642Y74776D01*
X56142D01*
X3583Y114097D02*
Y121097D01*
X-5417D02*
X3583D01*
X-5417Y114097D02*
Y121097D01*
X3583Y102097D02*
Y109597D01*
X-5417Y102097D02*
X3583D01*
X-5417Y109597D02*
X-5417Y102097D01*
X3565Y133749D02*
X3565Y140749D01*
X-5435D02*
X3565D01*
X-5435Y133749D02*
Y140749D01*
X3565Y129249D02*
X3565Y121749D01*
X-5435Y121749D02*
X3565Y121749D01*
X-5435Y121749D02*
Y129249D01*
X40100Y101100D02*
X44100D01*
X40100D02*
X40100Y106100D01*
X44100D01*
X47100Y101100D02*
X51100D01*
Y106100D01*
X47100D02*
X51100D01*
X48740Y96724D02*
X55740D01*
X48740Y87724D02*
Y96724D01*
Y87724D02*
X55740D01*
X60240Y96724D02*
X67740D01*
Y87724D02*
Y96724D01*
X60240Y87724D02*
X67740D01*
X73165Y110363D02*
Y117363D01*
X64165Y117363D02*
X73165Y117363D01*
X64165Y110363D02*
Y117363D01*
X73164Y98363D02*
X73165Y105863D01*
X64165Y98363D02*
X73164D01*
X64165D02*
Y105863D01*
X73066Y129316D02*
X73066Y136316D01*
X64066Y136316D02*
X73066Y136316D01*
X64066Y129316D02*
Y136316D01*
X73066Y124816D02*
X73066Y117316D01*
X64066D02*
X73066D01*
X64066D02*
Y124816D01*
X21220Y86457D02*
Y93957D01*
Y86457D02*
X23720D01*
X31220D02*
X33720Y86457D01*
X26221Y96457D02*
X28721Y96457D01*
X33720Y93957D02*
X33720Y86457D01*
X39902Y82492D02*
Y86492D01*
X34902Y82492D02*
X39902D01*
X34902D02*
Y86492D01*
X39902Y89492D02*
Y93492D01*
X34902Y93492D02*
X39902Y93492D01*
X34902Y89492D02*
Y93492D01*
X48838Y85799D02*
X55839Y85799D01*
X48838Y76799D02*
Y85799D01*
Y76799D02*
X55839Y76799D01*
X60338Y85799D02*
X67839Y85799D01*
Y76799D02*
Y85799D01*
X60339Y76799D02*
X67839Y76799D01*
X21062Y70933D02*
Y78433D01*
Y70933D02*
X23562Y70933D01*
X31062D02*
X33562Y70933D01*
X26062Y80933D02*
X28562D01*
X33562Y78433D02*
X33562Y70933D01*
X21024Y56339D02*
Y63839D01*
Y56339D02*
X23524Y56339D01*
X31024Y56339D02*
X33524D01*
X26024Y66339D02*
X28524D01*
X33524Y63839D02*
X33524Y56339D01*
X19957Y54697D02*
X26957Y54697D01*
X19957Y45697D02*
Y54697D01*
Y45697D02*
X26957Y45697D01*
X31457Y54697D02*
X38957D01*
Y45697D02*
Y54697D01*
X31457Y45697D02*
X38957D01*
X39902Y37378D02*
X39902Y33378D01*
X34902D02*
X39902D01*
X34902Y37378D02*
X34902Y33378D01*
X39902Y40378D02*
X39902Y44378D01*
X34902Y44378D02*
X39902Y44378D01*
X34902Y40378D02*
X34902Y44378D01*
X22945Y25945D02*
X26945D01*
X22945D02*
Y30945D01*
X26945D01*
X29945Y25945D02*
X33945D01*
Y30945D01*
X29945D02*
X33945D01*
X22750Y18500D02*
X26750D01*
X22750D02*
Y23500D01*
X26750D01*
X29750Y18500D02*
X33750D01*
Y23500D01*
X29750D02*
X33750D01*
X39902Y56213D02*
Y60213D01*
X34902Y56213D02*
X39902D01*
X34902D02*
Y60213D01*
X39902Y63213D02*
Y67213D01*
X34902D02*
X39902D01*
X34902Y63213D02*
Y67213D01*
X40098Y68910D02*
Y72909D01*
X35098Y68910D02*
X40098D01*
X35098D02*
Y72909D01*
X40098Y75910D02*
Y79909D01*
X35098D02*
X40098D01*
X35098Y75910D02*
Y79909D01*
X55400Y15200D02*
X62400D01*
Y24200D01*
X55400D02*
X62400D01*
X43400Y15200D02*
X50900D01*
X43400D02*
Y24200D01*
X50900Y24200D01*
X57028Y24126D02*
X57028Y28126D01*
X52028Y24126D02*
X57028D01*
X52028Y28126D02*
X52028Y24126D01*
X57028Y31126D02*
Y35126D01*
X52028D02*
X57028D01*
X52028Y31126D02*
X52028Y35126D01*
X62500Y15200D02*
Y22200D01*
Y15200D02*
X71500D01*
Y22200D01*
X62500Y26700D02*
Y34200D01*
X71500Y34200D01*
X71500Y26700D02*
X71500Y34200D01*
X65495Y36264D02*
X72495Y36264D01*
Y45264D01*
X65495D02*
X72495D01*
X53495Y36264D02*
X60995Y36264D01*
X53495Y36264D02*
Y45264D01*
X60995D01*
X98800Y128400D02*
X105800Y128400D01*
Y137400D01*
X98800Y137400D02*
X105800Y137400D01*
X86800Y128400D02*
X94300D01*
X86800D02*
Y137400D01*
X94300D01*
X131850Y101000D02*
X135850D01*
X131850D02*
Y106000D01*
X135850D01*
X138850Y101000D02*
X142850D01*
Y106000D01*
X138850Y106000D02*
X142850Y106000D01*
X153300Y125900D02*
X153300Y132900D01*
X144300D02*
X153300D01*
X144300D02*
X144300Y125900D01*
X153300Y121400D02*
X153300Y113900D01*
X144300D02*
X153300D01*
X144300D02*
X144300Y121400D01*
X171800Y128700D02*
X171800Y135700D01*
X162800D02*
X171800D01*
X162800D02*
X162800Y128700D01*
X171800Y116700D02*
X171800Y124200D01*
X162800Y116700D02*
X171800D01*
X162800D02*
Y124200D01*
X195573Y134050D02*
X195573Y141050D01*
X186573D02*
X195573D01*
X186573D02*
X186573Y134050D01*
X195573Y122050D02*
Y129550D01*
X186573Y122050D02*
X195573D01*
X186573D02*
Y129550D01*
X195475Y121113D02*
X195475Y114113D01*
X186475Y121113D02*
X195475D01*
X186475Y114113D02*
Y121113D01*
X195475Y102113D02*
Y109613D01*
X186475Y102113D02*
X195475Y102113D01*
X186475Y102113D02*
X186475Y109613D01*
X171700Y117200D02*
X171700Y110200D01*
X162700Y117200D02*
X171700D01*
X162700Y110200D02*
Y117200D01*
X171700Y105700D02*
X171700Y98200D01*
X162700D02*
X171700D01*
X162700D02*
X162700Y105700D01*
X111362Y66122D02*
Y73122D01*
X102362Y73122D02*
X111362Y73122D01*
X102362Y73122D02*
X102362Y66122D01*
X111362Y54122D02*
Y61622D01*
X102362Y54122D02*
X111362Y54122D01*
X102362Y54122D02*
Y61622D01*
X93405Y54220D02*
Y61220D01*
Y54220D02*
X102406D01*
Y61220D01*
X93405Y65720D02*
Y73220D01*
X102405D01*
X102406Y65720D01*
X117842Y60716D02*
X117842Y53716D01*
X126842D01*
X126842Y60716D02*
X126842Y53716D01*
X117842Y65216D02*
Y72716D01*
X126842Y72716D01*
Y65216D02*
Y72716D01*
X110839Y46024D02*
X114839D01*
X110839D02*
X110839Y51024D01*
X114839D01*
X117839Y46024D02*
X121839Y46024D01*
Y51024D01*
X117839Y51024D02*
X121839Y51024D01*
X110110Y53469D02*
X110110Y46468D01*
X101110Y53469D02*
X110110D01*
X101110Y46468D02*
X101110Y53469D01*
X110110Y34468D02*
Y41969D01*
X101110Y34468D02*
X110110D01*
X101110D02*
Y41969D01*
X110406Y27472D02*
X110406Y34472D01*
X101406Y34472D02*
X110406Y34472D01*
X101406Y34472D02*
X101406Y27472D01*
X110406Y15472D02*
Y22972D01*
X101406Y15472D02*
X110406D01*
X101406D02*
Y22972D01*
X94303Y34378D02*
X101303D01*
X101303Y43378D01*
X94303D02*
X101303D01*
X82303Y34378D02*
X89803Y34378D01*
X82303Y34378D02*
X82303Y43378D01*
X89803Y43378D01*
X94106Y25323D02*
X101106Y25323D01*
Y34323D01*
X94106D02*
X101106D01*
X82106Y25323D02*
X89606D01*
X82106D02*
X82106Y34323D01*
X89606D01*
X94358Y16381D02*
X101358D01*
Y25381D01*
X94358D02*
X101358D01*
X82358Y16381D02*
X89858D01*
X82358Y25381D02*
X82358Y16381D01*
X82358Y25381D02*
X89858D01*
X94205Y43532D02*
X101205D01*
X101205Y52531D02*
X101205Y43532D01*
X94205Y52531D02*
X101205D01*
X82205Y43532D02*
X89705D01*
X82205Y52531D02*
X82205Y43532D01*
X82205Y52531D02*
X89705D01*
X131319Y42591D02*
X138319Y42591D01*
X131319Y33591D02*
Y42591D01*
Y33591D02*
X138319D01*
X142819Y42591D02*
X150319D01*
X150319Y33590D01*
X142819Y33591D02*
X150319Y33590D01*
X111429Y37362D02*
X115429D01*
X111429D02*
Y42362D01*
X115429D01*
X118429Y37362D02*
X122429D01*
Y42362D01*
X118429D02*
X122429D01*
X116854Y20709D02*
X120854D01*
X120854Y15709D01*
X116854D02*
X120854D01*
X109854Y20709D02*
X113854D01*
X109854D02*
X109854Y15709D01*
X113854D01*
X116854Y26024D02*
X120854D01*
X120854Y21024D02*
X120854Y26024D01*
X116854Y21024D02*
X120854D01*
X109854Y26024D02*
X113854D01*
X109854Y21024D02*
Y26024D01*
Y21024D02*
X113854D01*
X130858Y35881D02*
X130858Y28881D01*
X121858Y35881D02*
X130858D01*
X121858Y28881D02*
Y35881D01*
X130858Y16881D02*
X130858Y24381D01*
X121858Y16881D02*
X130858D01*
X121858D02*
Y24381D01*
X131319Y33437D02*
X138319D01*
X131319Y24437D02*
Y33437D01*
Y24437D02*
X138319D01*
X142819Y33437D02*
X150319Y33437D01*
Y24437D02*
Y33437D01*
X142819Y24437D02*
X150319D01*
X131319Y24480D02*
X138319Y24480D01*
X131319Y24480D02*
X131319Y15480D01*
X138319D01*
X142819Y24480D02*
X150319D01*
Y15480D02*
Y24480D01*
X142819Y15480D02*
X150319D01*
X110445Y32047D02*
X114445D01*
X110445Y37047D02*
X110445Y32047D01*
X110445Y37047D02*
X114445D01*
X117445Y32047D02*
X121445Y32047D01*
Y37047D01*
X117445D02*
X121445D01*
X62146Y24126D02*
Y28126D01*
X57146Y24126D02*
X62146Y24126D01*
X57146Y24126D02*
Y28126D01*
X62146Y31126D02*
Y35126D01*
X57146D02*
X62146D01*
X57146Y31126D02*
Y35126D01*
X20964Y32547D02*
Y40047D01*
Y32547D02*
X23464D01*
X30964Y32547D02*
X33464D01*
X25964Y42547D02*
X28464D01*
X33464Y32547D02*
X33464Y40047D01*
D62*
X55512Y126890D02*
X54774Y127316D01*
Y126464D01*
X55512Y126890D01*
X137008Y126791D02*
X136270Y127217D01*
Y126365D01*
X137008Y126791D01*
D64*
X42848Y125886D02*
X43161Y124922D01*
X43981Y124326D01*
X44995D01*
X45815Y124922D01*
X46129Y125886D01*
X124344Y125787D02*
X124657Y124823D01*
X125477Y124227D01*
X126491D01*
X127311Y124823D01*
X127625Y125787D01*
X22035Y147409D02*
X22035Y135991D01*
X38965D01*
X22035Y147409D02*
X38965D01*
X38965Y135991D01*
X155727Y136691D02*
Y148109D01*
Y136691D02*
X172656D01*
X155727Y148109D02*
X172656D01*
Y136691D02*
Y148109D01*
X46129Y125886D02*
X49409D01*
X39567D02*
X42848D01*
X39567Y106201D02*
X49409D01*
Y125886D01*
X39567Y106201D02*
Y125886D01*
X127625Y125787D02*
X130905D01*
X121063D02*
X124344D01*
X121063Y106102D02*
X130905D01*
Y125787D01*
X121063Y106102D02*
Y125787D01*
X104756Y136391D02*
Y147809D01*
X87827D02*
X104756D01*
X87827Y136391D02*
X104756D01*
X87827D02*
Y147809D01*
D66*
X50000Y48000D02*
Y51542D01*
X48229D01*
X47639Y50952D01*
Y49771D01*
X48229Y49181D01*
X50000D01*
X48819D02*
X47639Y48000D01*
X44096D02*
X46458D01*
X44096Y50361D01*
Y50952D01*
X44687Y51542D01*
X45867D01*
X46458Y50952D01*
X42916Y48590D02*
X42325Y48000D01*
X41145D01*
X40554Y48590D01*
Y50952D01*
X41145Y51542D01*
X42325D01*
X42916Y50952D01*
Y50361D01*
X42325Y49771D01*
X40554D01*
X31639Y16952D02*
X32229Y17542D01*
X33410D01*
X34000Y16952D01*
Y14590D01*
X33410Y14000D01*
X32229D01*
X31639Y14590D01*
X28096Y14000D02*
X30458D01*
X28096Y16361D01*
Y16952D01*
X28687Y17542D01*
X29868D01*
X30458Y16952D01*
X26916Y17542D02*
X24554D01*
Y16952D01*
X26916Y14590D01*
Y14000D01*
X36048Y28639D02*
X35458Y29229D01*
Y30410D01*
X36048Y31000D01*
X38410D01*
X39000Y30410D01*
Y29229D01*
X38410Y28639D01*
X39000Y25096D02*
Y27458D01*
X36639Y25096D01*
X36048D01*
X35458Y25687D01*
Y26867D01*
X36048Y27458D01*
Y23916D02*
X35458Y23325D01*
Y22145D01*
X36048Y21554D01*
X36639D01*
X37229Y22145D01*
Y22735D01*
Y22145D01*
X37819Y21554D01*
X38410D01*
X39000Y22145D01*
Y23325D01*
X38410Y23916D01*
X152000Y85542D02*
Y82590D01*
X151410Y82000D01*
X150229D01*
X149639Y82590D01*
Y85542D01*
X148458Y82000D02*
X147277D01*
X147868D01*
Y85542D01*
X148458Y84952D01*
X114000Y75000D02*
Y78542D01*
X112229D01*
X111639Y77952D01*
Y76771D01*
X112229Y76181D01*
X114000D01*
X112819D02*
X111639Y75000D01*
X108096Y78542D02*
X109277Y77952D01*
X110458Y76771D01*
Y75590D01*
X109868Y75000D01*
X108687D01*
X108096Y75590D01*
Y76181D01*
X108687Y76771D01*
X110458D01*
X106916Y77952D02*
X106325Y78542D01*
X105145D01*
X104554Y77952D01*
Y75590D01*
X105145Y75000D01*
X106325D01*
X106916Y75590D01*
Y77952D01*
X103000Y75000D02*
Y78542D01*
X101229D01*
X100639Y77952D01*
Y76771D01*
X101229Y76181D01*
X103000D01*
X101819D02*
X100639Y75000D01*
X97096Y78542D02*
X99458D01*
Y76771D01*
X98277Y77361D01*
X97687D01*
X97096Y76771D01*
Y75590D01*
X97687Y75000D01*
X98867D01*
X99458Y75590D01*
X95916D02*
X95325Y75000D01*
X94145D01*
X93554Y75590D01*
Y77952D01*
X94145Y78542D01*
X95325D01*
X95916Y77952D01*
Y77361D01*
X95325Y76771D01*
X93554D01*
X153000Y134000D02*
Y137542D01*
X151229D01*
X150639Y136952D01*
Y135771D01*
X151229Y135181D01*
X153000D01*
X151819D02*
X150639Y134000D01*
X147096Y137542D02*
X149458D01*
Y135771D01*
X148277Y136361D01*
X147687D01*
X147096Y135771D01*
Y134590D01*
X147687Y134000D01*
X148867D01*
X149458Y134590D01*
X145916Y136952D02*
X145325Y137542D01*
X144145D01*
X143554Y136952D01*
Y136361D01*
X144145Y135771D01*
X143554Y135181D01*
Y134590D01*
X144145Y134000D01*
X145325D01*
X145916Y134590D01*
Y135181D01*
X145325Y135771D01*
X145916Y136361D01*
Y136952D01*
X145325Y135771D02*
X144145D01*
X73000Y86000D02*
X69458D01*
Y84229D01*
X70048Y83639D01*
X71229D01*
X71819Y84229D01*
Y86000D01*
Y84819D02*
X73000Y83639D01*
X69458Y80096D02*
Y82458D01*
X71229D01*
X70639Y81277D01*
Y80687D01*
X71229Y80096D01*
X72410D01*
X73000Y80687D01*
Y81867D01*
X72410Y82458D01*
X70048Y78916D02*
X69458Y78325D01*
Y77145D01*
X70048Y76554D01*
X70639D01*
X71229Y77145D01*
Y77735D01*
Y77145D01*
X71819Y76554D01*
X72410D01*
X73000Y77145D01*
Y78325D01*
X72410Y78916D01*
X73000Y97000D02*
X69458D01*
Y95229D01*
X70048Y94639D01*
X71229D01*
X71819Y95229D01*
Y97000D01*
Y95819D02*
X73000Y94639D01*
X69458Y91096D02*
Y93458D01*
X71229D01*
X70639Y92277D01*
Y91687D01*
X71229Y91096D01*
X72410D01*
X73000Y91687D01*
Y92867D01*
X72410Y93458D01*
X73000Y87554D02*
Y89916D01*
X70639Y87554D01*
X70048D01*
X69458Y88145D01*
Y89325D01*
X70048Y89916D01*
X14000Y117000D02*
Y120542D01*
X12229D01*
X11639Y119952D01*
Y118771D01*
X12229Y118181D01*
X14000D01*
X12819D02*
X11639Y117000D01*
X8687D02*
Y120542D01*
X10458Y118771D01*
X8096D01*
X5145Y117000D02*
Y120542D01*
X6916Y118771D01*
X4554D01*
X78000Y114000D02*
X74458D01*
Y112229D01*
X75048Y111639D01*
X76229D01*
X76819Y112229D01*
Y114000D01*
Y112819D02*
X78000Y111639D01*
Y108687D02*
X74458D01*
X76229Y110458D01*
Y108096D01*
X75048Y106916D02*
X74458Y106325D01*
Y105145D01*
X75048Y104554D01*
X75639D01*
X76229Y105145D01*
Y105735D01*
Y105145D01*
X76819Y104554D01*
X77410D01*
X78000Y105145D01*
Y106325D01*
X77410Y106916D01*
X185000Y121000D02*
X181458D01*
Y119229D01*
X182048Y118639D01*
X183229D01*
X183819Y119229D01*
Y121000D01*
Y119819D02*
X185000Y118639D01*
Y115687D02*
X181458D01*
X183229Y117458D01*
Y115096D01*
X185000Y111554D02*
Y113916D01*
X182639Y111554D01*
X182048D01*
X181458Y112145D01*
Y113325D01*
X182048Y113916D01*
X161000Y116000D02*
X157458D01*
Y114229D01*
X158048Y113639D01*
X159229D01*
X159819Y114229D01*
Y116000D01*
Y114819D02*
X161000Y113639D01*
Y110687D02*
X157458D01*
X159229Y112458D01*
Y110096D01*
X161000Y108916D02*
Y107735D01*
Y108325D01*
X157458D01*
X158048Y108916D01*
X14000Y137000D02*
Y140542D01*
X12229D01*
X11639Y139952D01*
Y138771D01*
X12229Y138181D01*
X14000D01*
X12819D02*
X11639Y137000D01*
X10458Y139952D02*
X9867Y140542D01*
X8687D01*
X8096Y139952D01*
Y139361D01*
X8687Y138771D01*
X9277D01*
X8687D01*
X8096Y138181D01*
Y137590D01*
X8687Y137000D01*
X9867D01*
X10458Y137590D01*
X4554Y140542D02*
X5735Y139952D01*
X6916Y138771D01*
Y137590D01*
X6325Y137000D01*
X5145D01*
X4554Y137590D01*
Y138181D01*
X5145Y138771D01*
X6916D01*
X78000Y132000D02*
X74458D01*
Y130229D01*
X75048Y129639D01*
X76229D01*
X76819Y130229D01*
Y132000D01*
Y130819D02*
X78000Y129639D01*
X75048Y128458D02*
X74458Y127867D01*
Y126687D01*
X75048Y126096D01*
X75639D01*
X76229Y126687D01*
Y127277D01*
Y126687D01*
X76819Y126096D01*
X77410D01*
X78000Y126687D01*
Y127867D01*
X77410Y128458D01*
X74458Y122554D02*
Y124916D01*
X76229D01*
X75639Y123735D01*
Y123145D01*
X76229Y122554D01*
X77410D01*
X78000Y123145D01*
Y124325D01*
X77410Y124916D01*
X185000Y141000D02*
X181458D01*
Y139229D01*
X182048Y138639D01*
X183229D01*
X183819Y139229D01*
Y141000D01*
Y139819D02*
X185000Y138639D01*
X182048Y137458D02*
X181458Y136867D01*
Y135687D01*
X182048Y135096D01*
X182639D01*
X183229Y135687D01*
Y136277D01*
Y135687D01*
X183819Y135096D01*
X184410D01*
X185000Y135687D01*
Y136867D01*
X184410Y137458D01*
X185000Y132145D02*
X181458D01*
X183229Y133916D01*
Y131554D01*
X177000Y135000D02*
X173458D01*
Y133229D01*
X174048Y132639D01*
X175229D01*
X175819Y133229D01*
Y135000D01*
Y133819D02*
X177000Y132639D01*
X174048Y131458D02*
X173458Y130868D01*
Y129687D01*
X174048Y129096D01*
X174639D01*
X175229Y129687D01*
Y130277D01*
Y129687D01*
X175819Y129096D01*
X176410D01*
X177000Y129687D01*
Y130868D01*
X176410Y131458D01*
X174048Y127916D02*
X173458Y127325D01*
Y126145D01*
X174048Y125554D01*
X174639D01*
X175229Y126145D01*
Y126735D01*
Y126145D01*
X175819Y125554D01*
X176410D01*
X177000Y126145D01*
Y127325D01*
X176410Y127916D01*
X116000Y62000D02*
X112458D01*
Y60229D01*
X113048Y59639D01*
X114229D01*
X114819Y60229D01*
Y62000D01*
Y60819D02*
X116000Y59639D01*
Y56096D02*
Y58458D01*
X113639Y56096D01*
X113048D01*
X112458Y56687D01*
Y57867D01*
X113048Y58458D01*
X112458Y52554D02*
X113048Y53735D01*
X114229Y54916D01*
X115410D01*
X116000Y54325D01*
Y53145D01*
X115410Y52554D01*
X114819D01*
X114229Y53145D01*
Y54916D01*
X156000Y23000D02*
X152458D01*
Y21229D01*
X153048Y20639D01*
X154229D01*
X154819Y21229D01*
Y23000D01*
Y21819D02*
X156000Y20639D01*
Y17096D02*
Y19458D01*
X153639Y17096D01*
X153048D01*
X152458Y17687D01*
Y18868D01*
X153048Y19458D01*
X156000Y15916D02*
Y14735D01*
Y15325D01*
X152458D01*
X153048Y15916D01*
X130000Y47000D02*
X126458D01*
Y45229D01*
X127048Y44639D01*
X128229D01*
X128819Y45229D01*
Y47000D01*
Y45819D02*
X130000Y44639D01*
Y41096D02*
Y43458D01*
X127639Y41096D01*
X127048D01*
X126458Y41687D01*
Y42867D01*
X127048Y43458D01*
Y39916D02*
X126458Y39325D01*
Y38145D01*
X127048Y37554D01*
X129410D01*
X130000Y38145D01*
Y39325D01*
X129410Y39916D01*
X127048D01*
X89500Y14000D02*
X85958D01*
Y12229D01*
X86548Y11639D01*
X87729D01*
X88319Y12229D01*
Y14000D01*
Y12819D02*
X89500Y11639D01*
Y10458D02*
Y9277D01*
Y9867D01*
X85958D01*
X86548Y10458D01*
X88910Y7506D02*
X89500Y6916D01*
Y5735D01*
X88910Y5145D01*
X86548D01*
X85958Y5735D01*
Y6916D01*
X86548Y7506D01*
X87139D01*
X87729Y6916D01*
Y5145D01*
X81000Y53000D02*
X77458D01*
Y51229D01*
X78048Y50639D01*
X79229D01*
X79819Y51229D01*
Y53000D01*
Y51819D02*
X81000Y50639D01*
Y49458D02*
Y48277D01*
Y48867D01*
X77458D01*
X78048Y49458D01*
Y46506D02*
X77458Y45916D01*
Y44735D01*
X78048Y44145D01*
X78639D01*
X79229Y44735D01*
X79819Y44145D01*
X80410D01*
X81000Y44735D01*
Y45916D01*
X80410Y46506D01*
X79819D01*
X79229Y45916D01*
X78639Y46506D01*
X78048D01*
X79229Y45916D02*
Y44735D01*
X81000Y33000D02*
X77458D01*
Y31229D01*
X78048Y30639D01*
X79229D01*
X79819Y31229D01*
Y33000D01*
Y31819D02*
X81000Y30639D01*
Y29458D02*
Y28277D01*
Y28868D01*
X77458D01*
X78048Y29458D01*
X77458Y26506D02*
Y24145D01*
X78048D01*
X80410Y26506D01*
X81000D01*
X156000Y33000D02*
X152458D01*
Y31229D01*
X153048Y30639D01*
X154229D01*
X154819Y31229D01*
Y33000D01*
Y31819D02*
X156000Y30639D01*
Y29458D02*
Y28277D01*
Y28868D01*
X152458D01*
X153048Y29458D01*
Y26506D02*
X152458Y25916D01*
Y24735D01*
X153048Y24145D01*
X153639D01*
X154229Y24735D01*
Y25325D01*
Y24735D01*
X154819Y24145D01*
X155410D01*
X156000Y24735D01*
Y25916D01*
X155410Y26506D01*
X81000Y43000D02*
X77458D01*
Y41229D01*
X78048Y40639D01*
X79229D01*
X79819Y41229D01*
Y43000D01*
Y41819D02*
X81000Y40639D01*
Y39458D02*
Y38277D01*
Y38868D01*
X77458D01*
X78048Y39458D01*
X81000Y34145D02*
Y36506D01*
X78639Y34145D01*
X78048D01*
X77458Y34735D01*
Y35916D01*
X78048Y36506D01*
X81000Y23000D02*
X77458D01*
Y21229D01*
X78048Y20639D01*
X79229D01*
X79819Y21229D01*
Y23000D01*
Y21819D02*
X81000Y20639D01*
Y19458D02*
Y18277D01*
Y18868D01*
X77458D01*
X78048Y19458D01*
X81000Y16506D02*
Y15325D01*
Y15916D01*
X77458D01*
X78048Y16506D01*
X156000Y42000D02*
X152458D01*
Y40229D01*
X153048Y39639D01*
X154229D01*
X154819Y40229D01*
Y42000D01*
Y40819D02*
X156000Y39639D01*
X152458Y36096D02*
X153048Y37277D01*
X154229Y38458D01*
X155410D01*
X156000Y37868D01*
Y36687D01*
X155410Y36096D01*
X154819D01*
X154229Y36687D01*
Y38458D01*
X76000Y34000D02*
X72458D01*
Y32229D01*
X73048Y31639D01*
X74229D01*
X74819Y32229D01*
Y34000D01*
Y32819D02*
X76000Y31639D01*
X72458Y28096D02*
Y30458D01*
X74229D01*
X73639Y29277D01*
Y28687D01*
X74229Y28096D01*
X75410D01*
X76000Y28687D01*
Y29868D01*
X75410Y30458D01*
X66000Y46000D02*
Y49542D01*
X64229D01*
X63639Y48952D01*
Y47771D01*
X64229Y47181D01*
X66000D01*
X64819D02*
X63639Y46000D01*
X60096D02*
X62458D01*
X60096Y48361D01*
Y48952D01*
X60687Y49542D01*
X61867D01*
X62458Y48952D01*
X42000Y15500D02*
Y19042D01*
X40229D01*
X39639Y18452D01*
Y17271D01*
X40229Y16681D01*
X42000D01*
X40819D02*
X39639Y15500D01*
X38458D02*
X37277D01*
X37868D01*
Y19042D01*
X38458Y18452D01*
X18800Y62842D02*
Y59300D01*
X17029D01*
X16439Y59890D01*
Y62252D01*
X17029Y62842D01*
X18800D01*
X13487Y59300D02*
Y62842D01*
X15258Y61071D01*
X12896D01*
X19300Y83042D02*
Y79500D01*
X17529D01*
X16939Y80090D01*
Y82452D01*
X17529Y83042D01*
X19300D01*
X15758Y82452D02*
X15168Y83042D01*
X13987D01*
X13396Y82452D01*
Y81861D01*
X13987Y81271D01*
X14577D01*
X13987D01*
X13396Y80681D01*
Y80090D01*
X13987Y79500D01*
X15168D01*
X15758Y80090D01*
X19600Y92642D02*
Y89100D01*
X17829D01*
X17239Y89690D01*
Y92052D01*
X17829Y92642D01*
X19600D01*
X13696Y89100D02*
X16058D01*
X13696Y91461D01*
Y92052D01*
X14287Y92642D01*
X15468D01*
X16058Y92052D01*
X17900Y43042D02*
Y39500D01*
X16129D01*
X15539Y40090D01*
Y42452D01*
X16129Y43042D01*
X17900D01*
X14358Y39500D02*
X13177D01*
X13768D01*
Y43042D01*
X14358Y42452D01*
X98639Y126952D02*
X99229Y127542D01*
X100410D01*
X101000Y126952D01*
Y124590D01*
X100410Y124000D01*
X99229D01*
X98639Y124590D01*
X97458Y126952D02*
X96868Y127542D01*
X95687D01*
X95096Y126952D01*
Y126361D01*
X95687Y125771D01*
X96277D01*
X95687D01*
X95096Y125181D01*
Y124590D01*
X95687Y124000D01*
X96868D01*
X97458Y124590D01*
X93916Y124000D02*
X92735D01*
X93325D01*
Y127542D01*
X93916Y126952D01*
X71639Y57952D02*
X72229Y58542D01*
X73410D01*
X74000Y57952D01*
Y55590D01*
X73410Y55000D01*
X72229D01*
X71639Y55590D01*
X70458Y57952D02*
X69867Y58542D01*
X68687D01*
X68096Y57952D01*
Y57361D01*
X68687Y56771D01*
X69277D01*
X68687D01*
X68096Y56181D01*
Y55590D01*
X68687Y55000D01*
X69867D01*
X70458Y55590D01*
X66916Y57952D02*
X66325Y58542D01*
X65145D01*
X64554Y57952D01*
Y55590D01*
X65145Y55000D01*
X66325D01*
X66916Y55590D01*
Y57952D01*
X88639Y77952D02*
X89229Y78542D01*
X90410D01*
X91000Y77952D01*
Y75590D01*
X90410Y75000D01*
X89229D01*
X88639Y75590D01*
X85096Y75000D02*
X87458D01*
X85096Y77361D01*
Y77952D01*
X85687Y78542D01*
X86867D01*
X87458Y77952D01*
X83916Y75590D02*
X83325Y75000D01*
X82145D01*
X81554Y75590D01*
Y77952D01*
X82145Y78542D01*
X83325D01*
X83916Y77952D01*
Y77361D01*
X83325Y76771D01*
X81554D01*
X70048Y72639D02*
X69458Y73229D01*
Y74410D01*
X70048Y75000D01*
X72410D01*
X73000Y74410D01*
Y73229D01*
X72410Y72639D01*
X73000Y69096D02*
Y71458D01*
X70639Y69096D01*
X70048D01*
X69458Y69687D01*
Y70868D01*
X70048Y71458D01*
X69458Y65554D02*
Y67916D01*
X71229D01*
X70639Y66735D01*
Y66145D01*
X71229Y65554D01*
X72410D01*
X73000Y66145D01*
Y67325D01*
X72410Y67916D01*
X58639Y104952D02*
X59229Y105542D01*
X60410D01*
X61000Y104952D01*
Y102590D01*
X60410Y102000D01*
X59229D01*
X58639Y102590D01*
X55096Y102000D02*
X57458D01*
X55096Y104361D01*
Y104952D01*
X55687Y105542D01*
X56867D01*
X57458Y104952D01*
X53916Y102000D02*
X52735D01*
X53325D01*
Y105542D01*
X53916Y104952D01*
X139639Y98952D02*
X140229Y99542D01*
X141410D01*
X142000Y98952D01*
Y96590D01*
X141410Y96000D01*
X140229D01*
X139639Y96590D01*
X136096Y96000D02*
X138458D01*
X136096Y98361D01*
Y98952D01*
X136687Y99542D01*
X137867D01*
X138458Y98952D01*
X134916D02*
X134325Y99542D01*
X133145D01*
X132554Y98952D01*
Y96590D01*
X133145Y96000D01*
X134325D01*
X134916Y96590D01*
Y98952D01*
X42048Y63639D02*
X41458Y64229D01*
Y65410D01*
X42048Y66000D01*
X44410D01*
X45000Y65410D01*
Y64229D01*
X44410Y63639D01*
X45000Y62458D02*
Y61277D01*
Y61867D01*
X41458D01*
X42048Y62458D01*
X44410Y59506D02*
X45000Y58916D01*
Y57735D01*
X44410Y57145D01*
X42048D01*
X41458Y57735D01*
Y58916D01*
X42048Y59506D01*
X42639D01*
X43229Y58916D01*
Y57145D01*
X42048Y75639D02*
X41458Y76229D01*
Y77410D01*
X42048Y78000D01*
X44410D01*
X45000Y77410D01*
Y76229D01*
X44410Y75639D01*
X45000Y74458D02*
Y73277D01*
Y73867D01*
X41458D01*
X42048Y74458D01*
Y71506D02*
X41458Y70916D01*
Y69735D01*
X42048Y69145D01*
X42639D01*
X43229Y69735D01*
X43819Y69145D01*
X44410D01*
X45000Y69735D01*
Y70916D01*
X44410Y71506D01*
X43819D01*
X43229Y70916D01*
X42639Y71506D01*
X42048D01*
X43229Y70916D02*
Y69735D01*
X42048Y89639D02*
X41458Y90229D01*
Y91410D01*
X42048Y92000D01*
X44410D01*
X45000Y91410D01*
Y90229D01*
X44410Y89639D01*
X45000Y88458D02*
Y87277D01*
Y87867D01*
X41458D01*
X42048Y88458D01*
X41458Y85506D02*
Y83145D01*
X42048D01*
X44410Y85506D01*
X45000D01*
X42048Y42639D02*
X41458Y43229D01*
Y44410D01*
X42048Y45000D01*
X44410D01*
X45000Y44410D01*
Y43229D01*
X44410Y42639D01*
X45000Y41458D02*
Y40277D01*
Y40867D01*
X41458D01*
X42048Y41458D01*
X41458Y36145D02*
X42048Y37325D01*
X43229Y38506D01*
X44410D01*
X45000Y37916D01*
Y36735D01*
X44410Y36145D01*
X43819D01*
X43229Y36735D01*
Y38506D01*
X165639Y151952D02*
X166229Y152542D01*
X167410D01*
X168000Y151952D01*
Y149590D01*
X167410Y149000D01*
X166229D01*
X165639Y149590D01*
X164458Y149000D02*
X163277D01*
X163867D01*
Y152542D01*
X164458Y151952D01*
X159145Y152542D02*
X161506D01*
Y150771D01*
X160325Y151361D01*
X159735D01*
X159145Y150771D01*
Y149590D01*
X159735Y149000D01*
X160916D01*
X161506Y149590D01*
X32630Y133352D02*
X33220Y133942D01*
X34401D01*
X34991Y133352D01*
Y130990D01*
X34401Y130400D01*
X33220D01*
X32630Y130990D01*
X31449Y130400D02*
X30268D01*
X30859D01*
Y133942D01*
X31449Y133352D01*
X26726Y130400D02*
Y133942D01*
X28497Y132171D01*
X26136D01*
X98639Y151952D02*
X99229Y152542D01*
X100410D01*
X101000Y151952D01*
Y149590D01*
X100410Y149000D01*
X99229D01*
X98639Y149590D01*
X97458Y149000D02*
X96277D01*
X96868D01*
Y152542D01*
X97458Y151952D01*
X92145Y149000D02*
X94506D01*
X92145Y151361D01*
Y151952D01*
X92735Y152542D01*
X93916D01*
X94506Y151952D01*
X140639Y51952D02*
X141229Y52542D01*
X142410D01*
X143000Y51952D01*
Y49590D01*
X142410Y49000D01*
X141229D01*
X140639Y49590D01*
X139458Y49000D02*
X138277D01*
X138867D01*
Y52542D01*
X139458Y51952D01*
X136506D02*
X135916Y52542D01*
X134735D01*
X134145Y51952D01*
Y49590D01*
X134735Y49000D01*
X135916D01*
X136506Y49590D01*
Y51952D01*
X118639Y29952D02*
X119229Y30542D01*
X120410D01*
X121000Y29952D01*
Y27590D01*
X120410Y27000D01*
X119229D01*
X118639Y27590D01*
X117458D02*
X116867Y27000D01*
X115687D01*
X115096Y27590D01*
Y29952D01*
X115687Y30542D01*
X116867D01*
X117458Y29952D01*
Y29361D01*
X116867Y28771D01*
X115096D01*
X140639Y46952D02*
X141229Y47542D01*
X142410D01*
X143000Y46952D01*
Y44590D01*
X142410Y44000D01*
X141229D01*
X140639Y44590D01*
X139458Y46952D02*
X138867Y47542D01*
X137687D01*
X137096Y46952D01*
Y46361D01*
X137687Y45771D01*
X137096Y45181D01*
Y44590D01*
X137687Y44000D01*
X138867D01*
X139458Y44590D01*
Y45181D01*
X138867Y45771D01*
X139458Y46361D01*
Y46952D01*
X138867Y45771D02*
X137687D01*
X126639Y51952D02*
X127229Y52542D01*
X128410D01*
X129000Y51952D01*
Y49590D01*
X128410Y49000D01*
X127229D01*
X126639Y49590D01*
X125458Y52542D02*
X123096D01*
Y51952D01*
X125458Y49590D01*
Y49000D01*
X118639Y13952D02*
X119229Y14542D01*
X120410D01*
X121000Y13952D01*
Y11590D01*
X120410Y11000D01*
X119229D01*
X118639Y11590D01*
X115096Y14542D02*
X116277Y13952D01*
X117458Y12771D01*
Y11590D01*
X116867Y11000D01*
X115687D01*
X115096Y11590D01*
Y12181D01*
X115687Y12771D01*
X117458D01*
X48639Y27952D02*
X49229Y28542D01*
X50410D01*
X51000Y27952D01*
Y25590D01*
X50410Y25000D01*
X49229D01*
X48639Y25590D01*
X45096Y28542D02*
X47458D01*
Y26771D01*
X46277Y27361D01*
X45687D01*
X45096Y26771D01*
Y25590D01*
X45687Y25000D01*
X46867D01*
X47458Y25590D01*
X48639Y32952D02*
X49229Y33542D01*
X50410D01*
X51000Y32952D01*
Y30590D01*
X50410Y30000D01*
X49229D01*
X48639Y30590D01*
X45687Y30000D02*
Y33542D01*
X47458Y31771D01*
X45096D01*
X124639Y76952D02*
X125229Y77542D01*
X126410D01*
X127000Y76952D01*
Y74590D01*
X126410Y74000D01*
X125229D01*
X124639Y74590D01*
X123458Y76952D02*
X122868Y77542D01*
X121687D01*
X121096Y76952D01*
Y76361D01*
X121687Y75771D01*
X122277D01*
X121687D01*
X121096Y75181D01*
Y74590D01*
X121687Y74000D01*
X122868D01*
X123458Y74590D01*
X45000Y130542D02*
Y127590D01*
X44410Y127000D01*
X43229D01*
X42639Y127590D01*
Y130542D01*
X39687Y127000D02*
Y130542D01*
X41458Y128771D01*
X39096D01*
X131000Y130542D02*
Y127590D01*
X130410Y127000D01*
X129229D01*
X128639Y127590D01*
Y130542D01*
X125096D02*
X126277Y129952D01*
X127458Y128771D01*
Y127590D01*
X126867Y127000D01*
X125687D01*
X125096Y127590D01*
Y128181D01*
X125687Y128771D01*
X127458D01*
D103*
X134646Y55020D02*
X151772Y55020D01*
X151772Y80807D02*
X151772Y55020D01*
X134646Y80807D02*
X151772D01*
X134646Y55020D02*
X134646Y80807D01*
M02*
