G04 Layer_Physical_Order=1*
G04 Layer_Color=255*
%FSLAX25Y25*%
%MOIN*%
G70*
G01*
G75*
%ADD10R,0.05000X0.06000*%
G04:AMPARAMS|DCode=11|XSize=78.74mil|YSize=177.16mil|CornerRadius=3.94mil|HoleSize=0mil|Usage=FLASHONLY|Rotation=180.000|XOffset=0mil|YOffset=0mil|HoleType=Round|Shape=RoundedRectangle|*
%AMROUNDEDRECTD11*
21,1,0.07874,0.16929,0,0,180.0*
21,1,0.07087,0.17716,0,0,180.0*
1,1,0.00787,-0.03543,0.08465*
1,1,0.00787,0.03543,0.08465*
1,1,0.00787,0.03543,-0.08465*
1,1,0.00787,-0.03543,-0.08465*
%
%ADD11ROUNDEDRECTD11*%
%ADD12R,0.06000X0.05000*%
%ADD13R,0.02756X0.03150*%
%ADD14R,0.10433X0.09449*%
%ADD15R,0.02953X0.03937*%
%ADD16R,0.17953X0.17126*%
%ADD17R,0.01949X0.03543*%
G04:AMPARAMS|DCode=18|XSize=60mil|YSize=50mil|CornerRadius=0mil|HoleSize=0mil|Usage=FLASHONLY|Rotation=135.000|XOffset=0mil|YOffset=0mil|HoleType=Round|Shape=Rectangle|*
%AMROTATEDRECTD18*
4,1,4,0.03889,-0.00354,0.00354,-0.03889,-0.03889,0.00354,-0.00354,0.03889,0.03889,-0.00354,0.0*
%
%ADD18ROTATEDRECTD18*%

G04:AMPARAMS|DCode=19|XSize=60mil|YSize=50mil|CornerRadius=0mil|HoleSize=0mil|Usage=FLASHONLY|Rotation=45.000|XOffset=0mil|YOffset=0mil|HoleType=Round|Shape=Rectangle|*
%AMROTATEDRECTD19*
4,1,4,-0.00354,-0.03889,-0.03889,-0.00354,0.00354,0.03889,0.03889,0.00354,-0.00354,-0.03889,0.0*
%
%ADD19ROTATEDRECTD19*%

G04:AMPARAMS|DCode=20|XSize=108.27mil|YSize=108.27mil|CornerRadius=5.41mil|HoleSize=0mil|Usage=FLASHONLY|Rotation=225.000|XOffset=0mil|YOffset=0mil|HoleType=Round|Shape=RoundedRectangle|*
%AMROUNDEDRECTD20*
21,1,0.10827,0.09744,0,0,225.0*
21,1,0.09744,0.10827,0,0,225.0*
1,1,0.01083,-0.06890,0.00000*
1,1,0.01083,0.00000,0.06890*
1,1,0.01083,0.06890,0.00000*
1,1,0.01083,0.00000,-0.06890*
%
%ADD20ROUNDEDRECTD20*%
G04:AMPARAMS|DCode=21|XSize=11.81mil|YSize=33.47mil|CornerRadius=2.95mil|HoleSize=0mil|Usage=FLASHONLY|Rotation=225.000|XOffset=0mil|YOffset=0mil|HoleType=Round|Shape=RoundedRectangle|*
%AMROUNDEDRECTD21*
21,1,0.01181,0.02756,0,0,225.0*
21,1,0.00591,0.03347,0,0,225.0*
1,1,0.00591,-0.01183,0.00766*
1,1,0.00591,-0.00766,0.01183*
1,1,0.00591,0.01183,-0.00766*
1,1,0.00591,0.00766,-0.01183*
%
%ADD21ROUNDEDRECTD21*%
G04:AMPARAMS|DCode=22|XSize=11.81mil|YSize=33.47mil|CornerRadius=2.95mil|HoleSize=0mil|Usage=FLASHONLY|Rotation=315.000|XOffset=0mil|YOffset=0mil|HoleType=Round|Shape=RoundedRectangle|*
%AMROUNDEDRECTD22*
21,1,0.01181,0.02756,0,0,315.0*
21,1,0.00591,0.03347,0,0,315.0*
1,1,0.00591,-0.00766,-0.01183*
1,1,0.00591,-0.01183,-0.00766*
1,1,0.00591,0.00766,0.01183*
1,1,0.00591,0.01183,0.00766*
%
%ADD22ROUNDEDRECTD22*%
%ADD23R,0.04800X0.03600*%
%ADD24R,0.07087X0.15748*%
%ADD25R,0.06890X0.02559*%
%ADD26R,0.07087X0.02362*%
%ADD27C,0.01155*%
%ADD28C,0.03000*%
%ADD29C,0.06000*%
%ADD30C,0.02000*%
%ADD31C,0.01181*%
%ADD32C,0.01000*%
%ADD33C,0.01772*%
%ADD34C,0.03937*%
%ADD35C,0.01200*%
%ADD36C,0.00600*%
%ADD37C,0.02500*%
%ADD38C,0.01575*%
%ADD39C,0.01800*%
%ADD40C,0.01100*%
%ADD41C,0.05000*%
%ADD42C,0.01116*%
%ADD43C,0.04921*%
%ADD44R,0.04921X0.04921*%
%ADD45R,0.06890X0.06890*%
%ADD46C,0.06890*%
%ADD47R,0.10827X0.10827*%
%ADD48C,0.10827*%
%ADD49C,0.02953*%
%ADD50C,0.01772*%
%ADD51C,0.01969*%
G36*
X106981Y26256D02*
X106997Y26177D01*
X107015Y26110D01*
X107037Y26057D01*
X107060Y26017D01*
X105656D01*
X105680Y26057D01*
X105701Y26110D01*
X105720Y26177D01*
X105736Y26258D01*
X105750Y26353D01*
X105756Y26426D01*
X105761Y26485D01*
X105779Y27282D01*
X105781Y27920D01*
X106936D01*
X106981Y26256D01*
D02*
G37*
G36*
X35820Y26665D02*
X35835Y26586D01*
X35854Y26519D01*
X35875Y26465D01*
X35899Y26426D01*
X34495D01*
X34519Y26465D01*
X34540Y26519D01*
X34558Y26586D01*
X34575Y26667D01*
X34588Y26761D01*
X34590Y26782D01*
X34600Y26893D01*
X34617Y27691D01*
X34619Y28329D01*
X35774D01*
X35820Y26665D01*
D02*
G37*
G36*
X73899Y22739D02*
X73789Y22627D01*
X73525Y22318D01*
X73457Y22224D01*
X73401Y22136D01*
X73355Y22051D01*
X73319Y21972D01*
X73294Y21897D01*
X73279Y21827D01*
X72279Y22826D01*
X72350Y22841D01*
X72425Y22866D01*
X72504Y22902D01*
X72588Y22948D01*
X72677Y23005D01*
X72771Y23072D01*
X72972Y23238D01*
X73079Y23337D01*
X73191Y23446D01*
X73899Y22739D01*
D02*
G37*
G36*
X27409Y25859D02*
X27591Y25021D01*
X27664Y24775D01*
X27853Y24386D01*
X28130Y23916D01*
X28469Y23419D01*
X28868Y22896D01*
X29853Y21772D01*
X30437Y21170D01*
X29730Y20463D01*
X29128Y21047D01*
X27481Y22431D01*
X26984Y22770D01*
X26514Y23047D01*
X26125Y23236D01*
X25879Y23309D01*
X25041Y23491D01*
X24583Y23560D01*
X27340Y26317D01*
X27409Y25859D01*
D02*
G37*
G36*
X17406Y25882D02*
X17588Y25080D01*
X17619Y24979D01*
X17638Y24927D01*
X17838Y24503D01*
X18090Y24059D01*
X18396Y23598D01*
X18756Y23117D01*
X19634Y22100D01*
X20152Y21564D01*
X19336Y20748D01*
X18800Y21267D01*
X17783Y22144D01*
X17302Y22504D01*
X16840Y22810D01*
X16397Y23062D01*
X15972Y23262D01*
X15921Y23281D01*
X15820Y23312D01*
X15430Y23411D01*
X14583Y23560D01*
X17340Y26317D01*
X17406Y25882D01*
D02*
G37*
G36*
X131587Y28542D02*
X132113Y28076D01*
X132148Y28057D01*
X132173Y28051D01*
X131260Y27138D01*
X131254Y27163D01*
X131235Y27198D01*
X131204Y27243D01*
X131162Y27298D01*
X131041Y27438D01*
X130655Y27840D01*
X131471Y28656D01*
X131587Y28542D01*
D02*
G37*
G36*
X182776Y30048D02*
X184026Y28973D01*
X184284Y28796D01*
X184520Y28655D01*
X184734Y28551D01*
X184926Y28484D01*
X185096Y28453D01*
X182820Y27315D01*
X182881Y27453D01*
X182901Y27611D01*
X182880Y27789D01*
X182818Y27987D01*
X182716Y28205D01*
X182573Y28443D01*
X182389Y28700D01*
X182164Y28978D01*
X181592Y29592D01*
X182408Y30408D01*
X182776Y30048D01*
D02*
G37*
G36*
X168894Y27532D02*
X168955Y27531D01*
X169111Y27517D01*
X169154Y27509D01*
X169193Y27499D01*
X169227Y27487D01*
X169256Y27473D01*
X169281Y27457D01*
X169302Y27440D01*
X167985Y27123D01*
X167577Y27544D01*
X168894Y27532D01*
D02*
G37*
G36*
X71548Y28050D02*
X72074Y27584D01*
X72109Y27565D01*
X72133Y27559D01*
X71221Y26646D01*
X71214Y26671D01*
X71196Y26706D01*
X71165Y26751D01*
X71122Y26806D01*
X71001Y26946D01*
X70615Y27348D01*
X71432Y28164D01*
X71548Y28050D01*
D02*
G37*
G36*
X97926Y27255D02*
X97942Y27176D01*
X97960Y27109D01*
X97981Y27056D01*
X98005Y27017D01*
X96601D01*
X96625Y27056D01*
X96646Y27109D01*
X96665Y27176D01*
X96681Y27257D01*
X96694Y27352D01*
X96702Y27438D01*
X96706Y27484D01*
X96724Y28281D01*
X96726Y28920D01*
X97881D01*
X97926Y27255D01*
D02*
G37*
G36*
X149286Y17436D02*
X148005Y17084D01*
X147597Y17492D01*
X149230D01*
X149286Y17436D01*
D02*
G37*
G36*
X155997Y17413D02*
X156012Y17334D01*
X156031Y17267D01*
X156052Y17213D01*
X156076Y17174D01*
X154672D01*
X154696Y17213D01*
X154717Y17267D01*
X154736Y17334D01*
X154752Y17414D01*
X154765Y17509D01*
X154767Y17527D01*
X154777Y17641D01*
X154795Y18439D01*
X154797Y19077D01*
X155951D01*
X155997Y17413D01*
D02*
G37*
G36*
X158299Y18747D02*
X158312Y18737D01*
X158362Y18690D01*
X158715Y18341D01*
X158339Y17084D01*
X158265Y17162D01*
X158207Y17231D01*
X158164Y17292D01*
X158138Y17345D01*
X158127Y17390D01*
X158131Y17427D01*
X158152Y17456D01*
X158188Y17476D01*
X158239Y17488D01*
X158307Y17492D01*
X158295Y18749D01*
X158299Y18747D01*
D02*
G37*
G36*
X182336Y19388D02*
X183105Y18726D01*
X183321Y18574D01*
X183517Y18456D01*
X183693Y18372D01*
X183849Y18323D01*
X183985Y18308D01*
X184101Y18327D01*
X182572Y16799D01*
X182592Y16915D01*
X182577Y17051D01*
X182527Y17207D01*
X182444Y17383D01*
X182326Y17579D01*
X182174Y17795D01*
X181988Y18032D01*
X181512Y18564D01*
X181223Y18861D01*
X182039Y19677D01*
X182336Y19388D01*
D02*
G37*
G36*
X175583Y17314D02*
X175599Y17235D01*
X175618Y17168D01*
X175639Y17115D01*
X175663Y17076D01*
X174259D01*
X174282Y17115D01*
X174303Y17168D01*
X174322Y17235D01*
X174338Y17316D01*
X174352Y17411D01*
X174363Y17543D01*
X174381Y18340D01*
X174383Y18979D01*
X175538D01*
X175583Y17314D01*
D02*
G37*
G36*
X168949Y18280D02*
X169010Y18279D01*
X169166Y18265D01*
X169209Y18257D01*
X169248Y18247D01*
X169282Y18235D01*
X169311Y18221D01*
X169336Y18205D01*
X169357Y18188D01*
X168040Y17871D01*
X167632Y18292D01*
X168949Y18280D01*
D02*
G37*
G36*
X91682Y21446D02*
X91735Y21425D01*
X91802Y21406D01*
X91883Y21390D01*
X91978Y21376D01*
X92110Y21365D01*
X92907Y21347D01*
X93546Y21345D01*
Y20190D01*
X91881Y20145D01*
X91802Y20129D01*
X91735Y20111D01*
X91682Y20089D01*
X91643Y20066D01*
Y21470D01*
X91682Y21446D01*
D02*
G37*
G36*
X106795Y18049D02*
X106798Y18032D01*
X106800Y18023D01*
X106818Y17956D01*
X106840Y17902D01*
X106863Y17863D01*
X105459D01*
X105483Y17902D01*
X105504Y17956D01*
X105523Y18023D01*
X105539Y18103D01*
X105553Y18198D01*
X105555Y18221D01*
X105560Y18278D01*
X105578Y18860D01*
X105584Y19766D01*
X106739D01*
X106795Y18049D01*
D02*
G37*
G36*
X138432Y19176D02*
X138477Y17511D01*
X138492Y17436D01*
X138493Y17432D01*
X138512Y17365D01*
X138533Y17312D01*
X138556Y17273D01*
X137152D01*
X137176Y17312D01*
X137197Y17365D01*
X137216Y17432D01*
X137232Y17513D01*
X137246Y17608D01*
X137257Y17740D01*
X137275Y18537D01*
X137277Y19176D01*
X138432Y19176D01*
D02*
G37*
G36*
X35501Y19098D02*
X35597Y17684D01*
X35599Y17677D01*
X35629Y17596D01*
X35664Y17527D01*
X35702Y17470D01*
X34298D01*
X34336Y17527D01*
X34371Y17596D01*
X34401Y17677D01*
X34427Y17768D01*
X34448Y17863D01*
X34454Y17916D01*
X34489Y18528D01*
X34500Y19432D01*
X35500D01*
X35501Y19098D01*
D02*
G37*
G36*
X59480Y27433D02*
X59427Y27465D01*
X59364Y27493D01*
X59287Y27518D01*
X59199Y27540D01*
X59099Y27558D01*
X59008Y27569D01*
X58877Y27578D01*
X57534Y27600D01*
X57466Y28600D01*
X57797Y28602D01*
X59100Y28679D01*
X59127Y28685D01*
X59221Y28716D01*
X59304Y28751D01*
X59377Y28791D01*
X59440Y28836D01*
X59480Y27433D01*
D02*
G37*
G36*
X80575Y40457D02*
X80586Y40448D01*
X80630Y40408D01*
X80937Y40105D01*
Y38691D01*
X80571Y39044D01*
Y40459D01*
X80575Y40457D01*
D02*
G37*
G36*
X120680Y39652D02*
X120641Y39676D01*
X120588Y39697D01*
X120521Y39716D01*
X120440Y39732D01*
X120345Y39746D01*
X120213Y39757D01*
X119416Y39775D01*
X118777Y39777D01*
Y40932D01*
X120441Y40977D01*
X120521Y40993D01*
X120588Y41012D01*
X120641Y41033D01*
X120680Y41056D01*
Y39652D01*
D02*
G37*
G36*
X91584Y39458D02*
X91637Y39437D01*
X91704Y39418D01*
X91785Y39402D01*
X91879Y39388D01*
X92011Y39377D01*
X92809Y39359D01*
X93447Y39357D01*
Y38202D01*
X91783Y38157D01*
X91704Y38141D01*
X91637Y38122D01*
X91584Y38101D01*
X91544Y38078D01*
Y39481D01*
X91584Y39458D01*
D02*
G37*
G36*
X169287Y37079D02*
X169348Y37078D01*
X169505Y37064D01*
X169548Y37056D01*
X169586Y37046D01*
X169620Y37034D01*
X169650Y37020D01*
X169675Y37005D01*
X169696Y36987D01*
X168379Y36671D01*
X167971Y37091D01*
X169287Y37079D01*
D02*
G37*
G36*
X57294Y37782D02*
X57255Y37806D01*
X57202Y37827D01*
X57135Y37846D01*
X57054Y37862D01*
X56959Y37876D01*
X56827Y37887D01*
X56030Y37905D01*
X55391Y37907D01*
Y39062D01*
X57056Y39107D01*
X57135Y39123D01*
X57202Y39141D01*
X57255Y39162D01*
X57294Y39186D01*
Y37782D01*
D02*
G37*
G36*
X175934Y43220D02*
X175913Y43166D01*
X175894Y43099D01*
X175878Y43018D01*
X175865Y42924D01*
X175853Y42792D01*
X175835Y41994D01*
X175833Y41356D01*
X174678D01*
X174633Y43020D01*
X174617Y43099D01*
X174599Y43166D01*
X174578Y43220D01*
X174554Y43259D01*
X175958D01*
X175934Y43220D01*
D02*
G37*
G36*
X78640Y44499D02*
X78592Y44411D01*
X78550Y44313D01*
X78514Y44205D01*
X78501Y44156D01*
X78484Y44048D01*
X78445Y43624D01*
X78415Y42728D01*
X78413Y42361D01*
X77413D01*
X77411Y42728D01*
X77319Y44181D01*
X77313Y44205D01*
X77276Y44313D01*
X77234Y44411D01*
X77187Y44499D01*
X77134Y44577D01*
X78693D01*
X78640Y44499D01*
D02*
G37*
G36*
X27406Y45882D02*
X27588Y45080D01*
X27664Y44837D01*
X27860Y44449D01*
X28141Y43987D01*
X28484Y43496D01*
X29357Y42426D01*
X29887Y41846D01*
X30479Y41237D01*
X29663Y40420D01*
X29054Y41013D01*
X27404Y42416D01*
X26913Y42759D01*
X26451Y43040D01*
X26063Y43236D01*
X25820Y43312D01*
X25430Y43411D01*
X24583Y43560D01*
X27340Y46317D01*
X27406Y45882D01*
D02*
G37*
G36*
X134398Y41033D02*
X134452Y41012D01*
X134519Y40993D01*
X134600Y40977D01*
X134694Y40963D01*
X134826Y40952D01*
X135624Y40934D01*
X136262Y40932D01*
Y39777D01*
X134598Y39732D01*
X134519Y39716D01*
X134452Y39697D01*
X134398Y39676D01*
X134359Y39652D01*
Y41056D01*
X134398Y41033D01*
D02*
G37*
G36*
X111801Y42859D02*
X111824Y42806D01*
X111858Y42746D01*
X111904Y42677D01*
X111961Y42600D01*
X112047Y42499D01*
X112598Y41922D01*
X113048Y41469D01*
X113043Y41465D01*
X113063Y41445D01*
X113075Y39821D01*
X113067Y39827D01*
X113042Y39850D01*
X112247Y40638D01*
X112262Y40684D01*
X112231Y40653D01*
X111022Y41798D01*
X110955Y41843D01*
X110895Y41877D01*
X110842Y41899D01*
X110798Y41910D01*
X111790Y42903D01*
X111801Y42859D01*
D02*
G37*
G36*
X123474Y31507D02*
X123452Y31454D01*
X123434Y31387D01*
X123418Y31306D01*
X123404Y31211D01*
X123392Y31079D01*
X123375Y30282D01*
X123373Y29643D01*
X122218D01*
X122173Y31308D01*
X122157Y31387D01*
X122138Y31454D01*
X122117Y31507D01*
X122093Y31546D01*
X123497D01*
X123474Y31507D01*
D02*
G37*
G36*
X27406Y35882D02*
X27588Y35080D01*
X27664Y34837D01*
X27860Y34449D01*
X28141Y33987D01*
X28484Y33496D01*
X29357Y32425D01*
X29887Y31846D01*
X30479Y31237D01*
X29663Y30421D01*
X29054Y31013D01*
X27404Y32416D01*
X26913Y32759D01*
X26451Y33040D01*
X26063Y33236D01*
X25820Y33312D01*
X25430Y33411D01*
X24583Y33560D01*
X27340Y36317D01*
X27406Y35882D01*
D02*
G37*
G36*
X178272Y29098D02*
X178245Y29107D01*
X178183Y29115D01*
X178087Y29123D01*
X177093Y29145D01*
X176454Y29147D01*
Y30302D01*
X178272Y30351D01*
Y29098D01*
D02*
G37*
G36*
X74648Y27610D02*
X73928Y27116D01*
X74022Y26984D01*
X73606Y26720D01*
X73601Y26688D01*
X73590Y26644D01*
X73576Y26602D01*
X73560Y26562D01*
X73540Y26525D01*
X73517Y26489D01*
X73491Y26456D01*
X73462Y26424D01*
X73428Y26607D01*
X72894Y26267D01*
X72304Y27503D01*
X72279Y27542D01*
X72396Y27532D01*
X72523Y27545D01*
X72660Y27582D01*
X72808Y27643D01*
X72966Y27728D01*
X73134Y27837D01*
X73313Y27969D01*
X73503Y28125D01*
X73913Y28508D01*
X74648Y27610D01*
D02*
G37*
G36*
X126326Y30789D02*
X126300Y29047D01*
X125046Y29093D01*
X125070Y29133D01*
X125091Y29205D01*
X125110Y29310D01*
X125126Y29448D01*
X125159Y30057D01*
X125171Y30962D01*
X126326Y30789D01*
D02*
G37*
G36*
X35776Y36138D02*
X35819Y35525D01*
X35835Y35444D01*
X35854Y35377D01*
X35875Y35324D01*
X35899Y35284D01*
X34495D01*
X34519Y35324D01*
X34540Y35377D01*
X34558Y35444D01*
X34575Y35525D01*
X34588Y35620D01*
X34608Y35851D01*
X34619Y36302D01*
X35774D01*
X35776Y36138D01*
D02*
G37*
G36*
X107079Y36114D02*
X107095Y36034D01*
X107114Y35967D01*
X107135Y35914D01*
X107159Y35875D01*
X105755D01*
X105778Y35914D01*
X105800Y35967D01*
X105818Y36034D01*
X105834Y36115D01*
X105848Y36210D01*
X105856Y36302D01*
X105859Y36342D01*
X105877Y37139D01*
X105879Y37778D01*
X107034D01*
X107079Y36114D01*
D02*
G37*
G36*
X134398Y36013D02*
X134452Y35992D01*
X134519Y35973D01*
X134600Y35957D01*
X134694Y35943D01*
X134826Y35932D01*
X135624Y35914D01*
X136262Y35912D01*
Y34757D01*
X134598Y34712D01*
X134519Y34696D01*
X134452Y34677D01*
X134398Y34656D01*
X134359Y34633D01*
Y36037D01*
X134398Y36013D01*
D02*
G37*
G36*
X187398Y35708D02*
X187491Y35323D01*
X187640Y34917D01*
X187844Y34490D01*
X188103Y34042D01*
X188418Y33573D01*
X188788Y33083D01*
X189695Y32039D01*
X190231Y31486D01*
X189415Y30669D01*
X188861Y31205D01*
X187817Y32111D01*
X187327Y32482D01*
X186858Y32796D01*
X186410Y33056D01*
X185983Y33260D01*
X185577Y33409D01*
X185192Y33502D01*
X184828Y33540D01*
X187360Y36072D01*
X187398Y35708D01*
D02*
G37*
G36*
X166428Y32740D02*
X166477D01*
X166468Y32713D01*
X166459Y32652D01*
X166452Y32556D01*
X166430Y31561D01*
X166428Y30923D01*
X165273D01*
X165224Y32740D01*
X165273D01*
Y33085D01*
X166428D01*
Y32740D01*
D02*
G37*
G36*
X149484Y16183D02*
X148273D01*
X148278Y16196D01*
X148283Y16225D01*
X148287Y16270D01*
X148296Y16499D01*
X148301Y17027D01*
X149456D01*
X149484Y16183D01*
D02*
G37*
G36*
X203459Y66788D02*
X203527Y66779D01*
X203609Y66761D01*
X203700Y66734D01*
X203705D01*
X203709Y66729D01*
X203723Y66725D01*
X203741Y66720D01*
X203782Y66702D01*
X203837Y66679D01*
X203896Y66652D01*
X203960Y66615D01*
X204023Y66579D01*
X204082Y66533D01*
X204087Y66529D01*
X204105Y66511D01*
X204133Y66488D01*
X204164Y66456D01*
X204205Y66415D01*
X204242Y66370D01*
X204283Y66320D01*
X204319Y66265D01*
X204324Y66270D01*
X204333Y66283D01*
X204356Y66301D01*
X204383Y66324D01*
X204419Y66351D01*
X204460Y66374D01*
X204510Y66397D01*
X204565Y66411D01*
X204574D01*
X204592Y66415D01*
X204628Y66420D01*
X204679D01*
X204742Y66415D01*
X204815Y66401D01*
X204902Y66383D01*
X205002Y66356D01*
X205006D01*
X205015Y66351D01*
X205029Y66347D01*
X205047Y66338D01*
X205097Y66320D01*
X205156Y66292D01*
X205229Y66256D01*
X205302Y66215D01*
X205375Y66165D01*
X205443Y66115D01*
X205452Y66110D01*
X205470Y66088D01*
X205502Y66060D01*
X205539Y66019D01*
X205579Y65969D01*
X205625Y65915D01*
X205666Y65851D01*
X205707Y65783D01*
X205711Y65774D01*
X205720Y65751D01*
X205739Y65715D01*
X205757Y65664D01*
X205780Y65601D01*
X205798Y65532D01*
X205816Y65455D01*
X205834Y65373D01*
Y65369D01*
Y65364D01*
X205839Y65351D01*
Y65332D01*
X205843Y65287D01*
X205848Y65228D01*
X205857Y65155D01*
X205862Y65078D01*
X205866Y64986D01*
Y64895D01*
Y64268D01*
Y64263D01*
Y64258D01*
Y64245D01*
Y64227D01*
Y64177D01*
X205862Y64113D01*
X205857Y64045D01*
X205853Y63967D01*
X205843Y63885D01*
X205834Y63808D01*
Y63799D01*
X205825Y63776D01*
X205816Y63740D01*
X205802Y63694D01*
X205789Y63640D01*
X205766Y63590D01*
X205739Y63535D01*
X205707Y63485D01*
X205702Y63480D01*
X205689Y63467D01*
X205666Y63444D01*
X205639Y63421D01*
X205602Y63398D01*
X205557Y63371D01*
X205502Y63349D01*
X205443Y63335D01*
X205434D01*
X205411Y63330D01*
X205375D01*
X205325Y63335D01*
X205261Y63339D01*
X205184Y63349D01*
X205097Y63371D01*
X205002Y63398D01*
X204997D01*
X204988Y63403D01*
X204974Y63408D01*
X204956Y63417D01*
X204906Y63435D01*
X204842Y63462D01*
X204774Y63494D01*
X204701Y63535D01*
X204628Y63581D01*
X204565Y63631D01*
X204556Y63635D01*
X204538Y63653D01*
X204510Y63685D01*
X204474Y63722D01*
X204433Y63772D01*
X204392Y63822D01*
X204356Y63881D01*
X204319Y63945D01*
X204315Y63940D01*
X204301Y63931D01*
X204283Y63913D01*
X204255Y63899D01*
X204219Y63876D01*
X204183Y63858D01*
X204133Y63844D01*
X204082Y63835D01*
X204023D01*
X203978Y63840D01*
X203923Y63844D01*
X203860Y63858D01*
X203787Y63876D01*
X203700Y63899D01*
X203696D01*
X203687Y63904D01*
X203678Y63908D01*
X203659Y63913D01*
X203609Y63935D01*
X203555Y63958D01*
X203486Y63990D01*
X203418Y64031D01*
X203350Y64072D01*
X203286Y64122D01*
X203277Y64126D01*
X203259Y64145D01*
X203232Y64177D01*
X203191Y64213D01*
X203150Y64263D01*
X203109Y64318D01*
X203068Y64377D01*
X203031Y64441D01*
X203027Y64450D01*
X203018Y64472D01*
X203000Y64509D01*
X202981Y64559D01*
X202963Y64618D01*
X202941Y64686D01*
X202922Y64759D01*
X202909Y64836D01*
Y64841D01*
Y64845D01*
X202904Y64873D01*
X202900Y64918D01*
X202890Y64973D01*
X202886Y65041D01*
X202881Y65114D01*
X202877Y65196D01*
Y65282D01*
Y65915D01*
Y65919D01*
Y65924D01*
Y65937D01*
Y65956D01*
Y65997D01*
X202881Y66056D01*
X202886Y66119D01*
X202890Y66188D01*
X202909Y66333D01*
Y66342D01*
X202913Y66365D01*
X202922Y66401D01*
X202936Y66443D01*
X202954Y66492D01*
X202972Y66543D01*
X203000Y66597D01*
X203031Y66643D01*
X203036Y66647D01*
X203050Y66661D01*
X203068Y66684D01*
X203095Y66706D01*
X203132Y66729D01*
X203177Y66756D01*
X203227Y66775D01*
X203286Y66788D01*
X203295D01*
X203314Y66793D01*
X203396D01*
X203459Y66788D01*
D02*
G37*
G36*
X205866Y68567D02*
Y67698D01*
X202877Y67261D01*
Y68144D01*
X205061Y68404D01*
X202877Y70169D01*
Y71061D01*
X205866Y68567D01*
D02*
G37*
G36*
X204619Y62802D02*
Y63289D01*
X205193Y63098D01*
Y62611D01*
X205866Y62379D01*
Y61638D01*
X205193Y61870D01*
Y59854D01*
X204669Y60031D01*
X202877Y62334D01*
Y63398D01*
X204619Y62802D01*
D02*
G37*
G36*
X204315Y54958D02*
X205866Y55472D01*
Y54581D01*
X204647Y54153D01*
Y53634D01*
X205866Y53220D01*
Y52419D01*
X202877Y53434D01*
Y54239D01*
X204087Y53825D01*
Y54344D01*
X202877Y55609D01*
Y56455D01*
X204315Y54958D01*
D02*
G37*
G36*
X205866Y57934D02*
Y57133D01*
X202877Y58148D01*
Y58953D01*
X205866Y57934D01*
D02*
G37*
G36*
X152502Y91479D02*
X151928D01*
X154927Y95337D01*
X155509D01*
X152502Y91479D01*
D02*
G37*
G36*
X148225Y94973D02*
X148270D01*
X148325Y94968D01*
X148379D01*
X148498Y94955D01*
X148625Y94941D01*
X148743Y94919D01*
X148798Y94905D01*
X148853Y94891D01*
X148857D01*
X148866Y94887D01*
X148880Y94882D01*
X148898Y94877D01*
X148943Y94855D01*
X148998Y94828D01*
X149062Y94791D01*
X149126Y94746D01*
X149180Y94686D01*
X149226Y94623D01*
X149230Y94614D01*
X149239Y94591D01*
X149258Y94550D01*
X149271Y94491D01*
X149285Y94423D01*
X149294Y94341D01*
Y94245D01*
X149285Y94140D01*
Y94136D01*
Y94127D01*
X149280Y94109D01*
X149276Y94086D01*
X149271Y94059D01*
X149267Y94027D01*
X149258Y93986D01*
X149248Y93940D01*
X149235Y93890D01*
X149221Y93836D01*
X149189Y93713D01*
X149153Y93576D01*
X149103Y93422D01*
Y93417D01*
X149098Y93403D01*
X149089Y93381D01*
X149075Y93349D01*
X149066Y93312D01*
X149048Y93271D01*
X149030Y93221D01*
X149012Y93171D01*
X148966Y93058D01*
X148912Y92935D01*
X148857Y92816D01*
X148798Y92698D01*
Y92694D01*
X148789Y92684D01*
X148780Y92671D01*
X148771Y92648D01*
X148734Y92598D01*
X148689Y92530D01*
X148634Y92452D01*
X148566Y92375D01*
X148488Y92293D01*
X148407Y92220D01*
X148402D01*
X148398Y92211D01*
X148384Y92202D01*
X148366Y92189D01*
X148343Y92175D01*
X148316Y92157D01*
X148252Y92116D01*
X148170Y92075D01*
X148074Y92029D01*
X147965Y91988D01*
X147847Y91952D01*
X147842D01*
X147833Y91947D01*
X147815Y91943D01*
X147788Y91938D01*
X147756Y91934D01*
X147720Y91925D01*
X147674Y91920D01*
X147629Y91911D01*
X147569Y91902D01*
X147510Y91897D01*
X147447Y91888D01*
X147374Y91884D01*
X147219Y91874D01*
X147051Y91870D01*
X146973D01*
X146932Y91874D01*
X146887D01*
X146832Y91879D01*
X146778D01*
X146659Y91888D01*
X146537Y91906D01*
X146414Y91925D01*
X146359Y91938D01*
X146305Y91952D01*
X146300D01*
X146291Y91956D01*
X146277Y91961D01*
X146259Y91966D01*
X146213Y91988D01*
X146159Y92016D01*
X146095Y92052D01*
X146036Y92102D01*
X145977Y92157D01*
X145931Y92220D01*
X145927Y92229D01*
X145918Y92252D01*
X145900Y92293D01*
X145886Y92352D01*
X145872Y92421D01*
X145859Y92502D01*
Y92593D01*
X145868Y92698D01*
Y92703D01*
Y92712D01*
X145872Y92730D01*
X145877Y92753D01*
X145881Y92780D01*
X145890Y92816D01*
X145895Y92853D01*
X145904Y92898D01*
X145918Y92948D01*
X145931Y93003D01*
X145963Y93130D01*
X146000Y93267D01*
X146050Y93422D01*
Y93426D01*
X146054Y93440D01*
X146063Y93463D01*
X146077Y93494D01*
X146091Y93531D01*
X146104Y93572D01*
X146123Y93617D01*
X146141Y93672D01*
X146186Y93781D01*
X146241Y93904D01*
X146295Y94027D01*
X146355Y94140D01*
Y94145D01*
X146364Y94154D01*
X146373Y94168D01*
X146382Y94191D01*
X146400Y94213D01*
X146418Y94245D01*
X146464Y94313D01*
X146518Y94386D01*
X146587Y94468D01*
X146664Y94550D01*
X146746Y94623D01*
X146750D01*
X146755Y94632D01*
X146769Y94641D01*
X146787Y94655D01*
X146810Y94668D01*
X146837Y94686D01*
X146905Y94727D01*
X146983Y94768D01*
X147078Y94814D01*
X147187Y94855D01*
X147306Y94891D01*
X147310D01*
X147319Y94896D01*
X147337Y94900D01*
X147365Y94905D01*
X147397Y94909D01*
X147433Y94919D01*
X147478Y94928D01*
X147529Y94937D01*
X147583Y94941D01*
X147647Y94950D01*
X147711Y94959D01*
X147783Y94964D01*
X147938Y94973D01*
X148106Y94978D01*
X148184D01*
X148225Y94973D01*
D02*
G37*
G36*
X205866Y81002D02*
X205288Y80925D01*
Y79319D01*
X205866Y78846D01*
Y78013D01*
X202877Y80493D01*
Y81362D01*
X205866Y81812D01*
Y81002D01*
D02*
G37*
G36*
X203427Y75274D02*
X203482Y75265D01*
X203546Y75256D01*
X203618Y75238D01*
X203700Y75210D01*
X203709Y75206D01*
X203728Y75201D01*
X203764Y75188D01*
X203805Y75169D01*
X203851Y75151D01*
X203905Y75124D01*
X204010Y75065D01*
X204014Y75060D01*
X204032Y75051D01*
X204055Y75033D01*
X204087Y75010D01*
X204128Y74978D01*
X204169Y74946D01*
X204251Y74865D01*
X204255Y74860D01*
X204269Y74842D01*
X204292Y74819D01*
X204319Y74787D01*
X204351Y74746D01*
X204383Y74696D01*
X204419Y74646D01*
X204456Y74587D01*
X204460Y74578D01*
X204474Y74560D01*
X204492Y74528D01*
X204515Y74482D01*
X204542Y74428D01*
X204578Y74364D01*
X204610Y74296D01*
X204647Y74218D01*
X205238Y72953D01*
Y74673D01*
X205866Y74460D01*
Y71588D01*
X205206Y71816D01*
X204078Y74109D01*
X204073Y74114D01*
X204064Y74132D01*
X204051Y74159D01*
X204032Y74187D01*
X203992Y74259D01*
X203964Y74291D01*
X203937Y74318D01*
X203932Y74323D01*
X203923Y74332D01*
X203905Y74341D01*
X203887Y74360D01*
X203832Y74391D01*
X203764Y74423D01*
X203760D01*
X203741Y74428D01*
X203718Y74437D01*
X203691Y74441D01*
X203632D01*
X203605Y74432D01*
X203582Y74419D01*
X203577D01*
X203573Y74410D01*
X203564Y74396D01*
X203555Y74382D01*
X203546Y74355D01*
X203537Y74328D01*
X203527Y74291D01*
Y74246D01*
Y72371D01*
X202877Y72594D01*
Y74614D01*
Y74619D01*
Y74623D01*
Y74646D01*
Y74682D01*
X202881Y74733D01*
X202886Y74783D01*
X202895Y74842D01*
X202909Y74901D01*
X202922Y74955D01*
Y74960D01*
X202931Y74978D01*
X202941Y75006D01*
X202954Y75042D01*
X202972Y75078D01*
X203000Y75115D01*
X203027Y75156D01*
X203063Y75188D01*
X203068Y75192D01*
X203081Y75201D01*
X203104Y75215D01*
X203132Y75229D01*
X203172Y75247D01*
X203214Y75260D01*
X203263Y75274D01*
X203323Y75279D01*
X203382D01*
X203427Y75274D01*
D02*
G37*
G36*
X203655Y78509D02*
X203668D01*
X203687Y78505D01*
X203709Y78500D01*
X203737Y78495D01*
X203769Y78491D01*
X203809Y78482D01*
X203855Y78473D01*
X203905Y78459D01*
X203960Y78445D01*
X204082Y78413D01*
X204219Y78377D01*
X204374Y78327D01*
X204378D01*
X204392Y78322D01*
X204415Y78313D01*
X204447Y78300D01*
X204483Y78291D01*
X204524Y78272D01*
X204574Y78254D01*
X204624Y78236D01*
X204738Y78191D01*
X204861Y78136D01*
X204979Y78081D01*
X205097Y78022D01*
X205102D01*
X205111Y78013D01*
X205124Y78004D01*
X205147Y77995D01*
X205197Y77959D01*
X205265Y77913D01*
X205343Y77858D01*
X205420Y77790D01*
X205502Y77713D01*
X205575Y77631D01*
Y77626D01*
X205584Y77622D01*
X205593Y77608D01*
X205607Y77590D01*
X205620Y77567D01*
X205639Y77540D01*
X205680Y77476D01*
X205720Y77394D01*
X205766Y77299D01*
X205807Y77190D01*
X205843Y77071D01*
Y77067D01*
X205848Y77058D01*
X205853Y77039D01*
X205857Y77012D01*
X205862Y76980D01*
X205871Y76944D01*
X205875Y76898D01*
X205884Y76853D01*
X205893Y76794D01*
X205898Y76735D01*
X205907Y76671D01*
X205912Y76598D01*
X205921Y76443D01*
X205925Y76275D01*
Y76271D01*
Y76252D01*
Y76230D01*
Y76198D01*
X205921Y76157D01*
Y76111D01*
X205916Y76057D01*
Y76002D01*
X205907Y75884D01*
X205889Y75761D01*
X205871Y75638D01*
X205857Y75583D01*
X205843Y75529D01*
Y75524D01*
X205839Y75515D01*
X205834Y75502D01*
X205830Y75483D01*
X205807Y75438D01*
X205780Y75383D01*
X205743Y75319D01*
X205693Y75260D01*
X205639Y75201D01*
X205575Y75156D01*
X205566Y75151D01*
X205543Y75142D01*
X205502Y75124D01*
X205443Y75110D01*
X205375Y75097D01*
X205293Y75083D01*
X205202D01*
X205097Y75092D01*
X205083D01*
X205065Y75097D01*
X205043Y75101D01*
X205015Y75106D01*
X204979Y75115D01*
X204942Y75119D01*
X204897Y75128D01*
X204847Y75142D01*
X204792Y75156D01*
X204665Y75188D01*
X204528Y75224D01*
X204374Y75274D01*
X204369D01*
X204356Y75279D01*
X204333Y75288D01*
X204301Y75301D01*
X204264Y75315D01*
X204224Y75329D01*
X204178Y75347D01*
X204123Y75365D01*
X204014Y75410D01*
X203891Y75465D01*
X203769Y75520D01*
X203655Y75579D01*
X203650D01*
X203641Y75588D01*
X203627Y75597D01*
X203605Y75606D01*
X203582Y75624D01*
X203550Y75643D01*
X203482Y75688D01*
X203409Y75743D01*
X203327Y75811D01*
X203245Y75888D01*
X203172Y75970D01*
Y75975D01*
X203163Y75979D01*
X203154Y75993D01*
X203141Y76011D01*
X203127Y76034D01*
X203109Y76061D01*
X203068Y76129D01*
X203027Y76207D01*
X202981Y76302D01*
X202941Y76411D01*
X202904Y76530D01*
Y76534D01*
X202900Y76543D01*
X202895Y76562D01*
X202890Y76589D01*
X202886Y76621D01*
X202877Y76657D01*
X202868Y76703D01*
X202859Y76753D01*
X202854Y76807D01*
X202845Y76871D01*
X202836Y76935D01*
X202831Y77008D01*
X202822Y77162D01*
X202818Y77331D01*
Y77335D01*
Y77353D01*
Y77376D01*
Y77408D01*
X202822Y77449D01*
Y77494D01*
X202827Y77549D01*
Y77604D01*
X202840Y77722D01*
X202854Y77849D01*
X202877Y77968D01*
X202890Y78022D01*
X202904Y78077D01*
Y78081D01*
X202909Y78091D01*
X202913Y78104D01*
X202918Y78122D01*
X202941Y78168D01*
X202968Y78222D01*
X203004Y78286D01*
X203050Y78350D01*
X203109Y78404D01*
X203172Y78450D01*
X203182Y78455D01*
X203204Y78464D01*
X203245Y78482D01*
X203305Y78495D01*
X203373Y78509D01*
X203455Y78518D01*
X203550D01*
X203655Y78509D01*
D02*
G37*
G36*
X205866Y28150D02*
Y27281D01*
X202877Y26844D01*
Y27727D01*
X205061Y27986D01*
X202877Y29751D01*
Y30643D01*
X205866Y28150D01*
D02*
G37*
G36*
X203523Y33500D02*
Y31539D01*
X204082Y31348D01*
Y33305D01*
X204660Y33109D01*
Y31153D01*
X205220Y30962D01*
Y32932D01*
X205866Y32713D01*
Y29942D01*
X202877Y30957D01*
Y33723D01*
X203523Y33500D01*
D02*
G37*
G36*
X205866Y25511D02*
Y24537D01*
X203819Y23773D01*
X205866Y23081D01*
Y22335D01*
X202877Y23349D01*
Y24300D01*
X204997Y25065D01*
X202877Y25788D01*
Y26530D01*
X205866Y25511D01*
D02*
G37*
G36*
X205347Y20569D02*
Y20801D01*
X205866Y20624D01*
Y19154D01*
Y19150D01*
Y19132D01*
Y19109D01*
Y19077D01*
X205862Y19041D01*
Y19000D01*
X205853Y18918D01*
Y18913D01*
X205848Y18900D01*
Y18881D01*
X205843Y18859D01*
X205830Y18795D01*
X205816Y18727D01*
X206717Y18449D01*
Y17717D01*
X203973Y18649D01*
Y19386D01*
X204993Y19036D01*
X204997D01*
X205015Y19031D01*
X205038Y19022D01*
X205070Y19018D01*
X205138D01*
X205174Y19022D01*
X205206Y19036D01*
X205211Y19041D01*
X205216Y19050D01*
X205229Y19063D01*
X205243Y19091D01*
X205256Y19123D01*
X205265Y19173D01*
X205275Y19232D01*
X205279Y19305D01*
Y19855D01*
X203973Y20296D01*
Y21034D01*
X205347Y20569D01*
D02*
G37*
G36*
X205866Y21775D02*
Y20974D01*
X202877Y21989D01*
Y22794D01*
X205866Y21775D01*
D02*
G37*
G36*
X203527Y46882D02*
X203609Y46873D01*
X203705Y46850D01*
X203809Y46818D01*
X203814D01*
X203819Y46814D01*
X203832Y46809D01*
X203851Y46800D01*
X203901Y46782D01*
X203960Y46755D01*
X204028Y46723D01*
X204096Y46686D01*
X204169Y46641D01*
X204237Y46595D01*
X204246Y46591D01*
X204264Y46573D01*
X204296Y46545D01*
X204337Y46509D01*
X204383Y46463D01*
X204428Y46413D01*
X204474Y46359D01*
X204515Y46300D01*
X204519Y46304D01*
X204528Y46318D01*
X204547Y46336D01*
X204565Y46363D01*
X204597Y46386D01*
X204628Y46413D01*
X204669Y46432D01*
X204715Y46450D01*
X204719D01*
X204738Y46454D01*
X204765Y46459D01*
X204847D01*
X204906Y46450D01*
X204970Y46441D01*
X205043Y46418D01*
X205866Y46136D01*
Y45335D01*
X205129Y45585D01*
X205124D01*
X205106Y45594D01*
X205083Y45599D01*
X205052Y45603D01*
X205020Y45608D01*
X204988Y45613D01*
X204956Y45608D01*
X204933Y45594D01*
X204929D01*
X204924Y45585D01*
X204915Y45572D01*
X204906Y45549D01*
X204897Y45522D01*
X204888Y45481D01*
X204879Y45426D01*
Y45362D01*
Y44234D01*
X205866Y43897D01*
Y43096D01*
X202877Y44111D01*
Y45986D01*
Y45990D01*
Y45995D01*
Y46008D01*
Y46027D01*
Y46068D01*
X202881Y46122D01*
X202886Y46190D01*
X202890Y46259D01*
X202913Y46409D01*
Y46413D01*
Y46418D01*
X202918Y46441D01*
X202927Y46477D01*
X202941Y46523D01*
X202959Y46573D01*
X202981Y46627D01*
X203009Y46677D01*
X203045Y46727D01*
X203050Y46732D01*
X203063Y46750D01*
X203086Y46768D01*
X203118Y46796D01*
X203159Y46823D01*
X203209Y46850D01*
X203263Y46873D01*
X203332Y46887D01*
X203341D01*
X203364Y46891D01*
X203459D01*
X203527Y46882D01*
D02*
G37*
G36*
X205866Y51864D02*
Y51132D01*
X203891Y51801D01*
X205866Y50308D01*
Y49521D01*
X203882Y49380D01*
X205866Y48707D01*
Y47974D01*
X202877Y48989D01*
Y50058D01*
X205011Y50204D01*
X202877Y51828D01*
Y52879D01*
X205866Y51864D01*
D02*
G37*
G36*
X203523Y43383D02*
Y41422D01*
X204082Y41231D01*
Y43187D01*
X204660Y42992D01*
Y41035D01*
X205220Y40844D01*
Y42814D01*
X205866Y42596D01*
Y39825D01*
X202877Y40840D01*
Y43606D01*
X203523Y43383D01*
D02*
G37*
G36*
X203527Y36999D02*
X203609Y36990D01*
X203705Y36968D01*
X203809Y36936D01*
X203814D01*
X203819Y36931D01*
X203832Y36927D01*
X203851Y36917D01*
X203901Y36899D01*
X203960Y36872D01*
X204028Y36840D01*
X204096Y36804D01*
X204169Y36758D01*
X204237Y36713D01*
X204246Y36708D01*
X204264Y36690D01*
X204296Y36663D01*
X204337Y36626D01*
X204383Y36581D01*
X204428Y36531D01*
X204474Y36476D01*
X204515Y36417D01*
X204519Y36422D01*
X204528Y36435D01*
X204547Y36453D01*
X204565Y36481D01*
X204597Y36503D01*
X204628Y36531D01*
X204669Y36549D01*
X204715Y36567D01*
X204719D01*
X204738Y36572D01*
X204765Y36576D01*
X204847D01*
X204906Y36567D01*
X204970Y36558D01*
X205043Y36535D01*
X205866Y36253D01*
Y35452D01*
X205129Y35703D01*
X205124D01*
X205106Y35712D01*
X205083Y35716D01*
X205052Y35721D01*
X205020Y35725D01*
X204988Y35730D01*
X204956Y35725D01*
X204933Y35712D01*
X204929D01*
X204924Y35703D01*
X204915Y35689D01*
X204906Y35666D01*
X204897Y35639D01*
X204888Y35598D01*
X204879Y35543D01*
Y35480D01*
Y34351D01*
X205866Y34015D01*
Y33214D01*
X202877Y34229D01*
Y36103D01*
Y36108D01*
Y36112D01*
Y36126D01*
Y36144D01*
Y36185D01*
X202881Y36240D01*
X202886Y36308D01*
X202890Y36376D01*
X202913Y36526D01*
Y36531D01*
Y36535D01*
X202918Y36558D01*
X202927Y36595D01*
X202941Y36640D01*
X202959Y36690D01*
X202981Y36745D01*
X203009Y36795D01*
X203045Y36845D01*
X203050Y36849D01*
X203063Y36867D01*
X203086Y36886D01*
X203118Y36913D01*
X203159Y36940D01*
X203209Y36968D01*
X203263Y36990D01*
X203332Y37004D01*
X203341D01*
X203364Y37009D01*
X203459D01*
X203527Y36999D01*
D02*
G37*
G36*
X203523Y40280D02*
Y39220D01*
X205866Y38419D01*
Y37618D01*
X203523Y38414D01*
Y37354D01*
X202877Y37573D01*
Y40498D01*
X203523Y40280D01*
D02*
G37*
G36*
X160391Y94973D02*
X160437D01*
X160491Y94968D01*
X160546D01*
X160664Y94955D01*
X160792Y94941D01*
X160910Y94919D01*
X160965Y94905D01*
X161019Y94891D01*
X161024D01*
X161033Y94887D01*
X161047Y94882D01*
X161065Y94877D01*
X161110Y94855D01*
X161165Y94828D01*
X161229Y94791D01*
X161292Y94746D01*
X161347Y94686D01*
X161392Y94623D01*
X161397Y94614D01*
X161406Y94591D01*
X161424Y94550D01*
X161438Y94491D01*
X161451Y94423D01*
X161461Y94341D01*
Y94245D01*
X161451Y94140D01*
Y94136D01*
Y94127D01*
X161447Y94109D01*
X161442Y94086D01*
X161438Y94059D01*
X161433Y94027D01*
X161424Y93986D01*
X161415Y93940D01*
X161401Y93890D01*
X161388Y93836D01*
X161356Y93713D01*
X161319Y93576D01*
X161269Y93422D01*
Y93417D01*
X161265Y93403D01*
X161256Y93381D01*
X161242Y93349D01*
X161233Y93312D01*
X161215Y93271D01*
X161197Y93221D01*
X161179Y93171D01*
X161133Y93058D01*
X161078Y92935D01*
X161024Y92816D01*
X160965Y92698D01*
Y92694D01*
X160956Y92684D01*
X160946Y92671D01*
X160937Y92648D01*
X160901Y92598D01*
X160855Y92530D01*
X160801Y92452D01*
X160733Y92375D01*
X160655Y92293D01*
X160573Y92220D01*
X160569D01*
X160564Y92211D01*
X160551Y92202D01*
X160532Y92189D01*
X160510Y92175D01*
X160482Y92157D01*
X160419Y92116D01*
X160337Y92075D01*
X160241Y92029D01*
X160132Y91988D01*
X160014Y91952D01*
X160009D01*
X160000Y91947D01*
X159982Y91943D01*
X159955Y91938D01*
X159923Y91934D01*
X159886Y91925D01*
X159841Y91920D01*
X159795Y91911D01*
X159736Y91902D01*
X159677Y91897D01*
X159613Y91888D01*
X159540Y91884D01*
X159386Y91874D01*
X159217Y91870D01*
X159140D01*
X159099Y91874D01*
X159054D01*
X158999Y91879D01*
X158944D01*
X158826Y91888D01*
X158703Y91906D01*
X158580Y91925D01*
X158526Y91938D01*
X158471Y91952D01*
X158467D01*
X158458Y91956D01*
X158444Y91961D01*
X158426Y91966D01*
X158380Y91988D01*
X158326Y92016D01*
X158262Y92052D01*
X158203Y92102D01*
X158144Y92157D01*
X158098Y92220D01*
X158094Y92229D01*
X158084Y92252D01*
X158066Y92293D01*
X158053Y92352D01*
X158039Y92421D01*
X158025Y92502D01*
Y92593D01*
X158034Y92698D01*
Y92703D01*
Y92712D01*
X158039Y92730D01*
X158044Y92753D01*
X158048Y92780D01*
X158057Y92816D01*
X158062Y92853D01*
X158071Y92898D01*
X158084Y92948D01*
X158098Y93003D01*
X158130Y93130D01*
X158166Y93267D01*
X158216Y93422D01*
Y93426D01*
X158221Y93440D01*
X158230Y93463D01*
X158244Y93494D01*
X158257Y93531D01*
X158271Y93572D01*
X158289Y93617D01*
X158307Y93672D01*
X158353Y93781D01*
X158407Y93904D01*
X158462Y94027D01*
X158521Y94140D01*
Y94145D01*
X158530Y94154D01*
X158539Y94168D01*
X158549Y94191D01*
X158567Y94213D01*
X158585Y94245D01*
X158631Y94313D01*
X158685Y94386D01*
X158753Y94468D01*
X158831Y94550D01*
X158913Y94623D01*
X158917D01*
X158922Y94632D01*
X158935Y94641D01*
X158953Y94655D01*
X158976Y94668D01*
X159004Y94686D01*
X159072Y94727D01*
X159149Y94768D01*
X159245Y94814D01*
X159354Y94855D01*
X159472Y94891D01*
X159477D01*
X159486Y94896D01*
X159504Y94900D01*
X159531Y94905D01*
X159563Y94909D01*
X159600Y94919D01*
X159645Y94928D01*
X159695Y94937D01*
X159750Y94941D01*
X159813Y94950D01*
X159877Y94959D01*
X159950Y94964D01*
X160105Y94973D01*
X160273Y94978D01*
X160350D01*
X160391Y94973D01*
D02*
G37*
G36*
X163311Y98077D02*
X162628D01*
X162833Y98673D01*
X163511D01*
X163311Y98077D01*
D02*
G37*
G36*
X138416Y10766D02*
X138672Y9536D01*
X138772Y9182D01*
X139023Y8640D01*
X139405Y7969D01*
X139871Y7267D01*
X140422Y6532D01*
X141777Y4966D01*
X142582Y4135D01*
X141765Y3318D01*
X140934Y4123D01*
X139368Y5478D01*
X138633Y6029D01*
X137931Y6495D01*
X137260Y6876D01*
X136718Y7128D01*
X136364Y7228D01*
X135134Y7484D01*
X134456Y7584D01*
X138316Y11444D01*
X138416Y10766D01*
D02*
G37*
G36*
X153638Y98077D02*
X152955D01*
X153160Y98673D01*
X153838D01*
X153638Y98077D01*
D02*
G37*
G36*
X165527Y97304D02*
X164280D01*
X164262Y97299D01*
X164216Y97290D01*
X164171Y97272D01*
X164162Y97268D01*
X164143Y97249D01*
X164116Y97213D01*
X164102Y97190D01*
X164093Y97163D01*
Y97158D01*
X164089Y97149D01*
X164084Y97136D01*
Y97117D01*
Y97076D01*
Y97058D01*
X164093Y97045D01*
X164098Y97040D01*
X164121Y97031D01*
X164134Y97022D01*
X164157Y97017D01*
X164180Y97013D01*
X164894D01*
X164940Y97008D01*
X164990Y97004D01*
X165044Y96999D01*
X165094Y96990D01*
X165140Y96976D01*
X165144D01*
X165158Y96972D01*
X165181Y96963D01*
X165204Y96949D01*
X165263Y96917D01*
X165286Y96894D01*
X165308Y96867D01*
X165313Y96863D01*
X165317Y96854D01*
X165326Y96840D01*
X165336Y96822D01*
X165345Y96794D01*
X165354Y96763D01*
X165358Y96731D01*
Y96690D01*
Y96685D01*
Y96671D01*
X165354Y96649D01*
X165349Y96622D01*
X165345Y96580D01*
X165336Y96539D01*
X165322Y96494D01*
X165308Y96439D01*
Y96435D01*
X165299Y96417D01*
X165290Y96389D01*
X165276Y96358D01*
X165258Y96317D01*
X165235Y96276D01*
X165190Y96189D01*
X165185Y96185D01*
X165176Y96171D01*
X165163Y96153D01*
X165144Y96130D01*
X165117Y96098D01*
X165090Y96071D01*
X165022Y96012D01*
X165017Y96007D01*
X165003Y95998D01*
X164981Y95989D01*
X164953Y95971D01*
X164917Y95953D01*
X164876Y95934D01*
X164831Y95916D01*
X164776Y95903D01*
X164771D01*
X164753Y95898D01*
X164721Y95893D01*
X164680Y95884D01*
X164630Y95880D01*
X164576Y95871D01*
X164512Y95866D01*
X162997D01*
X163156Y96326D01*
X164453D01*
X164471Y96330D01*
X164521Y96339D01*
X164562Y96362D01*
X164567D01*
X164571Y96371D01*
X164594Y96389D01*
X164621Y96426D01*
X164644Y96480D01*
Y96485D01*
X164648Y96494D01*
X164653Y96508D01*
Y96526D01*
X164658Y96562D01*
X164653Y96580D01*
X164644Y96594D01*
X164639Y96599D01*
X164630Y96608D01*
X164621Y96612D01*
X164603Y96622D01*
X164585Y96626D01*
X164558Y96631D01*
X163839D01*
X163793Y96635D01*
X163743Y96640D01*
X163693Y96644D01*
X163638Y96653D01*
X163593Y96662D01*
X163588D01*
X163575Y96671D01*
X163552Y96676D01*
X163529Y96690D01*
X163475Y96722D01*
X163447Y96744D01*
X163425Y96767D01*
Y96772D01*
X163415Y96781D01*
X163411Y96794D01*
X163402Y96817D01*
X163393Y96844D01*
X163384Y96872D01*
X163379Y96908D01*
Y96944D01*
Y96949D01*
Y96963D01*
X163384Y96986D01*
X163388Y97017D01*
X163393Y97054D01*
X163402Y97099D01*
X163415Y97145D01*
X163429Y97199D01*
X163434Y97204D01*
X163438Y97222D01*
X163447Y97249D01*
X163461Y97281D01*
X163479Y97322D01*
X163497Y97359D01*
X163543Y97440D01*
X163547Y97445D01*
X163557Y97459D01*
X163570Y97477D01*
X163588Y97504D01*
X163616Y97531D01*
X163643Y97559D01*
X163711Y97618D01*
X163716Y97623D01*
X163729Y97632D01*
X163752Y97641D01*
X163779Y97659D01*
X163816Y97677D01*
X163857Y97691D01*
X163902Y97709D01*
X163952Y97723D01*
X163957D01*
X163980Y97727D01*
X164007Y97736D01*
X164048Y97741D01*
X164098Y97750D01*
X164157Y97754D01*
X164221Y97759D01*
X165681D01*
X165527Y97304D01*
D02*
G37*
G36*
X154957Y95866D02*
X154147D01*
X153860Y97759D01*
X154616D01*
X154752Y96449D01*
X155790Y97759D01*
X156550D01*
X154957Y95866D01*
D02*
G37*
G36*
X116029Y7745D02*
X115465Y7542D01*
X113972Y6902D01*
X113541Y6680D01*
X112779Y6221D01*
X112448Y5984D01*
X112150Y5743D01*
X111885Y5497D01*
X111068Y6314D01*
X111259Y6540D01*
X111417Y6806D01*
X111543Y7111D01*
X111637Y7455D01*
X111698Y7838D01*
X111727Y8260D01*
X111724Y8721D01*
X111688Y9222D01*
X111620Y9761D01*
X111519Y10340D01*
X116029Y7745D01*
D02*
G37*
G36*
X39873Y10026D02*
X39834Y10050D01*
X39781Y10071D01*
X39714Y10090D01*
X39633Y10106D01*
X39538Y10120D01*
X39406Y10131D01*
X38609Y10149D01*
X37970Y10151D01*
Y11306D01*
X39634Y11351D01*
X39714Y11367D01*
X39781Y11385D01*
X39834Y11407D01*
X39873Y11430D01*
Y10026D01*
D02*
G37*
G36*
X68419Y10742D02*
X68675Y9478D01*
X68828Y8914D01*
X69184Y7927D01*
X69332Y7620D01*
X69557Y7279D01*
X69960Y6748D01*
X70421Y6212D01*
X70939Y5669D01*
X70231Y4961D01*
X69688Y5479D01*
X69152Y5940D01*
X68621Y6343D01*
X68280Y6568D01*
X67973Y6716D01*
X67502Y6902D01*
X66985Y7072D01*
X65813Y7362D01*
X65158Y7481D01*
X64456Y7584D01*
X68316Y11444D01*
X68419Y10742D01*
D02*
G37*
G36*
X125344Y7584D02*
X124666Y7484D01*
X123436Y7228D01*
X123082Y7128D01*
X122540Y6876D01*
X121869Y6495D01*
X121167Y6029D01*
X120432Y5478D01*
X118866Y4123D01*
X118035Y3318D01*
X117218Y4135D01*
X118023Y4966D01*
X119378Y6532D01*
X119929Y7267D01*
X120395Y7969D01*
X120776Y8640D01*
X121028Y9182D01*
X121128Y9536D01*
X121384Y10766D01*
X121484Y11444D01*
X125344Y7584D01*
D02*
G37*
G36*
X26774Y7674D02*
X27495Y7210D01*
X27721Y7088D01*
X28130Y6947D01*
X28658Y6810D01*
X29248Y6699D01*
X29901Y6612D01*
X31392Y6512D01*
X32230Y6500D01*
Y5500D01*
X31392Y5488D01*
X29248Y5301D01*
X28658Y5190D01*
X28130Y5053D01*
X27721Y4912D01*
X27495Y4790D01*
X26774Y4326D01*
X26401Y4050D01*
Y7950D01*
X26774Y7674D01*
D02*
G37*
G36*
X165583Y94914D02*
X165665Y94909D01*
X165756Y94905D01*
X165856Y94896D01*
X165951Y94877D01*
X166042Y94859D01*
X166047D01*
X166051Y94855D01*
X166079Y94846D01*
X166120Y94832D01*
X166170Y94809D01*
X166229Y94777D01*
X166284Y94741D01*
X166334Y94691D01*
X166379Y94636D01*
X166384Y94627D01*
X166397Y94609D01*
X166411Y94573D01*
X166429Y94523D01*
X166443Y94454D01*
X166456Y94382D01*
X166461Y94291D01*
X166456Y94186D01*
Y94181D01*
Y94172D01*
X166452Y94154D01*
Y94131D01*
X166447Y94104D01*
X166443Y94068D01*
X166434Y94031D01*
X166425Y93981D01*
X166416Y93931D01*
X166402Y93876D01*
X166388Y93813D01*
X166370Y93745D01*
X166352Y93676D01*
X166329Y93599D01*
X166279Y93435D01*
Y93431D01*
X166270Y93412D01*
X166265Y93390D01*
X166252Y93358D01*
X166238Y93317D01*
X166220Y93271D01*
X166202Y93221D01*
X166179Y93162D01*
X166129Y93044D01*
X166070Y92917D01*
X166006Y92789D01*
X165942Y92671D01*
Y92666D01*
X165933Y92657D01*
X165924Y92643D01*
X165910Y92621D01*
X165874Y92571D01*
X165829Y92502D01*
X165769Y92430D01*
X165706Y92352D01*
X165633Y92279D01*
X165551Y92211D01*
X165547D01*
X165542Y92202D01*
X165528Y92198D01*
X165515Y92184D01*
X165469Y92157D01*
X165410Y92120D01*
X165337Y92084D01*
X165251Y92047D01*
X165160Y92016D01*
X165060Y91988D01*
X165055D01*
X165046Y91984D01*
X165032D01*
X165010Y91979D01*
X164987Y91975D01*
X164955Y91970D01*
X164919Y91966D01*
X164882Y91961D01*
X164787Y91947D01*
X164682Y91938D01*
X164568Y91934D01*
X164441Y91929D01*
X162971D01*
X163185Y92557D01*
X164705D01*
X164737Y92562D01*
X164773D01*
X164814Y92566D01*
X164896Y92580D01*
X164900D01*
X164914Y92584D01*
X164932Y92589D01*
X164960Y92598D01*
X165023Y92625D01*
X165092Y92666D01*
X165096Y92671D01*
X165110Y92680D01*
X165128Y92694D01*
X165151Y92716D01*
X165178Y92739D01*
X165205Y92771D01*
X165237Y92807D01*
X165269Y92848D01*
X165273Y92853D01*
X165283Y92871D01*
X165301Y92894D01*
X165319Y92930D01*
X165346Y92971D01*
X165374Y93021D01*
X165401Y93080D01*
X165433Y93148D01*
X164122D01*
X164091Y93153D01*
X164049D01*
X163999Y93158D01*
X163945Y93167D01*
X163890Y93171D01*
X163772Y93199D01*
X163658Y93230D01*
X163599Y93253D01*
X163549Y93281D01*
X163504Y93308D01*
X163463Y93344D01*
Y93349D01*
X163453Y93353D01*
X163444Y93367D01*
X163435Y93381D01*
X163422Y93403D01*
X163408Y93431D01*
X163399Y93463D01*
X163385Y93499D01*
X163376Y93544D01*
X163367Y93590D01*
X163363Y93644D01*
X163367Y93704D01*
X163372Y93767D01*
X163381Y93836D01*
X163399Y93913D01*
X163422Y93995D01*
Y93999D01*
X163426Y94004D01*
X163435Y94027D01*
X163449Y94068D01*
X163472Y94118D01*
X163494Y94172D01*
X163526Y94236D01*
X163563Y94300D01*
X163604Y94363D01*
X163608Y94372D01*
X163626Y94391D01*
X163649Y94423D01*
X163686Y94463D01*
X163726Y94513D01*
X163777Y94559D01*
X163831Y94609D01*
X163895Y94659D01*
X163904Y94664D01*
X163927Y94677D01*
X163963Y94700D01*
X164013Y94727D01*
X164077Y94759D01*
X164150Y94791D01*
X164232Y94823D01*
X164318Y94850D01*
X164322D01*
X164332Y94855D01*
X164345D01*
X164364Y94859D01*
X164386Y94868D01*
X164413Y94873D01*
X164486Y94887D01*
X164568Y94896D01*
X164668Y94909D01*
X164782Y94914D01*
X164900Y94919D01*
X165547D01*
X165583Y94914D01*
D02*
G37*
G36*
X151763Y95375D02*
X148965D01*
X149115Y95825D01*
X151918D01*
X151763Y95375D01*
D02*
G37*
G36*
X162284Y91929D02*
X161520D01*
X162320Y94291D01*
X161788D01*
X162002Y94919D01*
X163303D01*
X162284Y91929D01*
D02*
G37*
G36*
X152520Y94291D02*
X150996D01*
X150964Y94286D01*
X150927D01*
X150886Y94282D01*
X150804Y94263D01*
X150800D01*
X150786Y94259D01*
X150768Y94254D01*
X150741Y94245D01*
X150677Y94218D01*
X150604Y94177D01*
X150600Y94172D01*
X150591Y94168D01*
X150572Y94154D01*
X150550Y94136D01*
X150522Y94109D01*
X150495Y94081D01*
X150463Y94049D01*
X150431Y94008D01*
X150427Y94004D01*
X150418Y93990D01*
X150404Y93967D01*
X150386Y93936D01*
X150363Y93899D01*
X150336Y93849D01*
X150313Y93799D01*
X150286Y93740D01*
X151628D01*
X151660Y93735D01*
X151701D01*
X151751Y93731D01*
X151856Y93713D01*
X151969Y93685D01*
X152083Y93649D01*
X152133Y93622D01*
X152179Y93594D01*
X152219Y93558D01*
X152256Y93522D01*
Y93517D01*
X152265Y93512D01*
X152270Y93499D01*
X152279Y93481D01*
X152288Y93458D01*
X152301Y93431D01*
X152311Y93399D01*
X152320Y93362D01*
X152329Y93321D01*
X152333Y93271D01*
X152338Y93221D01*
X152333Y93162D01*
X152329Y93098D01*
X152320Y93035D01*
X152301Y92962D01*
X152279Y92885D01*
X152274Y92875D01*
X152265Y92848D01*
X152251Y92807D01*
X152229Y92757D01*
X152201Y92698D01*
X152165Y92634D01*
X152129Y92566D01*
X152083Y92498D01*
X152078Y92489D01*
X152060Y92471D01*
X152038Y92439D01*
X152001Y92398D01*
X151956Y92348D01*
X151906Y92298D01*
X151846Y92248D01*
X151783Y92198D01*
X151774Y92193D01*
X151751Y92175D01*
X151715Y92152D01*
X151660Y92125D01*
X151601Y92093D01*
X151528Y92061D01*
X151446Y92029D01*
X151355Y91997D01*
X151350D01*
X151346Y91993D01*
X151332D01*
X151314Y91988D01*
X151287Y91984D01*
X151260Y91975D01*
X151191Y91966D01*
X151109Y91952D01*
X151014Y91938D01*
X150905Y91934D01*
X150791Y91929D01*
X150140D01*
X150108Y91934D01*
X150026Y91938D01*
X149931Y91943D01*
X149835Y91956D01*
X149735Y91970D01*
X149644Y91988D01*
X149640D01*
X149635Y91993D01*
X149608Y92002D01*
X149567Y92016D01*
X149517Y92038D01*
X149462Y92066D01*
X149403Y92107D01*
X149353Y92152D01*
X149308Y92207D01*
X149303Y92216D01*
X149294Y92238D01*
X149276Y92275D01*
X149258Y92325D01*
X149244Y92389D01*
X149230Y92466D01*
X149221Y92557D01*
X149226Y92662D01*
Y92666D01*
Y92675D01*
X149230Y92694D01*
X149235Y92716D01*
Y92744D01*
X149244Y92780D01*
X149248Y92821D01*
X149258Y92866D01*
X149271Y92917D01*
X149285Y92971D01*
X149298Y93035D01*
X149317Y93103D01*
X149335Y93171D01*
X149358Y93249D01*
X149412Y93412D01*
Y93417D01*
X149421Y93435D01*
X149430Y93458D01*
X149440Y93490D01*
X149453Y93531D01*
X149471Y93576D01*
X149489Y93626D01*
X149512Y93685D01*
X149562Y93804D01*
X149621Y93931D01*
X149681Y94054D01*
X149744Y94172D01*
Y94177D01*
X149753Y94186D01*
X149762Y94200D01*
X149776Y94222D01*
X149813Y94272D01*
X149863Y94341D01*
X149917Y94413D01*
X149986Y94491D01*
X150063Y94564D01*
X150140Y94632D01*
X150145D01*
X150149Y94641D01*
X150163Y94650D01*
X150177Y94659D01*
X150222Y94686D01*
X150281Y94723D01*
X150354Y94759D01*
X150436Y94800D01*
X150527Y94832D01*
X150627Y94859D01*
X150632D01*
X150641Y94864D01*
X150654D01*
X150672Y94868D01*
X150700Y94873D01*
X150732Y94877D01*
X150768Y94882D01*
X150804Y94891D01*
X150896Y94900D01*
X151005Y94909D01*
X151123Y94914D01*
X151250Y94919D01*
X152734D01*
X152520Y94291D01*
D02*
G37*
G36*
X157675Y94914D02*
X157725Y94909D01*
X157784Y94900D01*
X157843Y94887D01*
X157898Y94873D01*
X157903D01*
X157921Y94864D01*
X157948Y94855D01*
X157984Y94841D01*
X158021Y94823D01*
X158057Y94796D01*
X158098Y94768D01*
X158130Y94732D01*
X158134Y94727D01*
X158144Y94714D01*
X158157Y94691D01*
X158171Y94664D01*
X158189Y94623D01*
X158203Y94582D01*
X158216Y94532D01*
X158221Y94473D01*
Y94463D01*
Y94445D01*
Y94413D01*
X158216Y94368D01*
X158207Y94313D01*
X158198Y94250D01*
X158180Y94177D01*
X158153Y94095D01*
X158148Y94086D01*
X158144Y94068D01*
X158130Y94031D01*
X158112Y93990D01*
X158094Y93945D01*
X158066Y93890D01*
X158007Y93786D01*
X158003Y93781D01*
X157993Y93763D01*
X157975Y93740D01*
X157952Y93708D01*
X157921Y93667D01*
X157889Y93626D01*
X157807Y93544D01*
X157802Y93540D01*
X157784Y93526D01*
X157761Y93503D01*
X157730Y93476D01*
X157689Y93444D01*
X157639Y93412D01*
X157589Y93376D01*
X157529Y93340D01*
X157520Y93335D01*
X157502Y93321D01*
X157470Y93303D01*
X157425Y93281D01*
X157370Y93253D01*
X157306Y93217D01*
X157238Y93185D01*
X157161Y93148D01*
X155896Y92557D01*
X157616D01*
X157402Y91929D01*
X154531D01*
X154758Y92589D01*
X157052Y93717D01*
X157056Y93722D01*
X157074Y93731D01*
X157102Y93745D01*
X157129Y93763D01*
X157202Y93804D01*
X157234Y93831D01*
X157261Y93858D01*
X157265Y93863D01*
X157275Y93872D01*
X157284Y93890D01*
X157302Y93908D01*
X157334Y93963D01*
X157366Y94031D01*
Y94036D01*
X157370Y94054D01*
X157379Y94077D01*
X157384Y94104D01*
Y94131D01*
Y94163D01*
X157375Y94191D01*
X157361Y94213D01*
Y94218D01*
X157352Y94222D01*
X157338Y94231D01*
X157325Y94240D01*
X157297Y94250D01*
X157270Y94259D01*
X157234Y94268D01*
X155314D01*
X155536Y94919D01*
X157625D01*
X157675Y94914D01*
D02*
G37*
G36*
X161072Y97754D02*
X161150Y97750D01*
X161231Y97741D01*
X161313Y97727D01*
X161391Y97714D01*
X161400D01*
X161423Y97704D01*
X161459Y97695D01*
X161500Y97682D01*
X161595Y97636D01*
X161641Y97609D01*
X161682Y97577D01*
X161686Y97572D01*
X161696Y97559D01*
X161714Y97540D01*
X161732Y97513D01*
X161750Y97481D01*
X161768Y97440D01*
X161782Y97390D01*
X161786Y97340D01*
Y97336D01*
Y97313D01*
Y97286D01*
X161782Y97245D01*
X161777Y97195D01*
X161764Y97136D01*
X161750Y97072D01*
X161727Y96999D01*
X161341Y95866D01*
X160603D01*
X160958Y96908D01*
Y96913D01*
X160963Y96931D01*
X160972Y96958D01*
X160977Y96986D01*
Y97017D01*
X160972Y97054D01*
X160968Y97081D01*
X160949Y97108D01*
X160945Y97113D01*
X160940Y97117D01*
X160922Y97127D01*
X160899Y97140D01*
X160867Y97154D01*
X160822Y97163D01*
X160763Y97167D01*
X160695Y97172D01*
X160067D01*
X159621Y95866D01*
X158884D01*
X159530Y97759D01*
X160999D01*
X161072Y97754D01*
D02*
G37*
G36*
X162592Y95866D02*
X161855D01*
X162501Y97759D01*
X163238D01*
X162592Y95866D01*
D02*
G37*
G36*
X158046Y97754D02*
X158128Y97750D01*
X158219Y97741D01*
X158306Y97727D01*
X158388Y97714D01*
X158397D01*
X158424Y97704D01*
X158460Y97695D01*
X158506Y97677D01*
X158556Y97659D01*
X158611Y97636D01*
X158656Y97604D01*
X158702Y97572D01*
X158706Y97568D01*
X158720Y97554D01*
X158733Y97536D01*
X158756Y97509D01*
X158774Y97477D01*
X158793Y97436D01*
X158806Y97386D01*
X158815Y97336D01*
Y97331D01*
Y97313D01*
Y97281D01*
X158811Y97240D01*
X158806Y97190D01*
X158793Y97131D01*
X158779Y97067D01*
X158756Y96995D01*
X158370Y95866D01*
X156731D01*
X156686Y95871D01*
X156636Y95875D01*
X156581Y95880D01*
X156531Y95889D01*
X156481Y95898D01*
X156477D01*
X156463Y95907D01*
X156440Y95912D01*
X156418Y95925D01*
X156363Y95957D01*
X156336Y95980D01*
X156313Y96003D01*
Y96007D01*
X156304Y96016D01*
X156295Y96030D01*
X156286Y96053D01*
X156277Y96080D01*
X156272Y96112D01*
X156267Y96148D01*
Y96189D01*
Y96194D01*
X156272Y96212D01*
Y96235D01*
X156281Y96267D01*
X156286Y96307D01*
X156299Y96358D01*
X156313Y96408D01*
X156331Y96467D01*
X156336Y96476D01*
X156340Y96494D01*
X156354Y96521D01*
X156368Y96558D01*
X156386Y96603D01*
X156404Y96644D01*
X156427Y96690D01*
X156449Y96731D01*
X156454Y96735D01*
X156463Y96749D01*
X156477Y96767D01*
X156495Y96790D01*
X156522Y96817D01*
X156550Y96844D01*
X156618Y96899D01*
X156622Y96904D01*
X156636Y96908D01*
X156659Y96922D01*
X156686Y96935D01*
X156718Y96949D01*
X156759Y96963D01*
X156804Y96976D01*
X156854Y96986D01*
X156859D01*
X156877Y96990D01*
X156909Y96995D01*
X156950Y96999D01*
X156995Y97004D01*
X157054Y97008D01*
X157118Y97013D01*
X158101D01*
X158106Y97031D01*
Y97035D01*
X158110Y97040D01*
X158115Y97067D01*
X158124Y97104D01*
Y97145D01*
Y97149D01*
Y97154D01*
X158119Y97172D01*
X158101Y97199D01*
X158092Y97213D01*
X158074Y97227D01*
X158065Y97231D01*
X158055Y97236D01*
X158037Y97245D01*
X158019Y97254D01*
X157992Y97259D01*
X157965Y97268D01*
X157928Y97272D01*
X157924D01*
X157910Y97277D01*
X157887D01*
X157860Y97281D01*
X157824D01*
X157778Y97286D01*
X156882D01*
X157041Y97759D01*
X157969D01*
X158046Y97754D01*
D02*
G37*
G36*
X149047Y97759D02*
X149688D01*
X149520Y97263D01*
X148878D01*
X148642Y96567D01*
Y96562D01*
X148637Y96553D01*
X148633Y96535D01*
Y96512D01*
Y96490D01*
Y96467D01*
X148642Y96444D01*
X148655Y96426D01*
X148660D01*
X148664Y96421D01*
X148678Y96412D01*
X148701Y96408D01*
X148728Y96399D01*
X148764Y96389D01*
X148805Y96385D01*
X149137D01*
X148960Y95866D01*
X148505D01*
X148446Y95871D01*
X148378Y95875D01*
X148309Y95880D01*
X148237Y95889D01*
X148173Y95898D01*
X148164D01*
X148146Y95907D01*
X148118Y95912D01*
X148082Y95925D01*
X148000Y95962D01*
X147959Y95980D01*
X147923Y96007D01*
X147918Y96012D01*
X147909Y96021D01*
X147895Y96039D01*
X147882Y96062D01*
X147863Y96089D01*
X147850Y96126D01*
X147836Y96162D01*
X147832Y96207D01*
Y96212D01*
Y96230D01*
Y96257D01*
X147836Y96289D01*
X147845Y96335D01*
X147854Y96385D01*
X147868Y96444D01*
X147886Y96508D01*
X148146Y97263D01*
X147795D01*
X147964Y97759D01*
X148314D01*
X148541Y98432D01*
X149274D01*
X149047Y97759D01*
D02*
G37*
G36*
X152919Y95866D02*
X152181D01*
X152828Y97759D01*
X153565D01*
X152919Y95866D01*
D02*
G37*
G36*
X85597Y100917D02*
X85615Y100835D01*
X85644Y100750D01*
X85684Y100661D01*
X85735Y100569D01*
X85798Y100472D01*
X85872Y100372D01*
X86054Y100161D01*
X86161Y100049D01*
X85064Y99513D01*
X84486Y100126D01*
X85590Y100994D01*
X85597Y100917D01*
D02*
G37*
G36*
X102838Y101486D02*
X102895Y101439D01*
X102949Y101400D01*
X103000Y101370D01*
X103048Y101350D01*
X103093Y101338D01*
X103135Y101335D01*
X103174Y101341D01*
X103211Y101356D01*
X103245Y101380D01*
X103096Y100068D01*
X101944Y100708D01*
X102779Y101543D01*
X102838Y101486D01*
D02*
G37*
G36*
X104353Y99133D02*
X103665Y98709D01*
X103753Y98533D01*
X102473Y97847D01*
X101991Y99345D01*
X102124Y99306D01*
X102254Y99282D01*
X102381Y99274D01*
X102506Y99281D01*
X102627Y99303D01*
X102746Y99340D01*
X102747Y99341D01*
X102849Y99401D01*
X103000Y99507D01*
X103162Y99637D01*
X103518Y99968D01*
X104353Y99133D01*
D02*
G37*
G36*
X122960Y94998D02*
X122920Y95022D01*
X122867Y95043D01*
X122800Y95061D01*
X122719Y95078D01*
X122625Y95091D01*
X122493Y95103D01*
X121695Y95121D01*
X121057Y95122D01*
Y96277D01*
X122721Y96323D01*
X122800Y96338D01*
X122867Y96357D01*
X122920Y96378D01*
X122960Y96402D01*
Y94998D01*
D02*
G37*
G36*
X177312Y96678D02*
X177365Y96657D01*
X177432Y96639D01*
X177513Y96622D01*
X177608Y96609D01*
X177740Y96597D01*
X178537Y96579D01*
X179176Y96578D01*
Y95423D01*
X177511Y95377D01*
X177432Y95362D01*
X177365Y95343D01*
X177312Y95322D01*
X177273Y95298D01*
Y96702D01*
X177312Y96678D01*
D02*
G37*
G36*
X87491Y106602D02*
X88271Y106557D01*
X88265Y106546D01*
X87818Y105611D01*
X87812Y105609D01*
X87796Y105608D01*
X87734Y105605D01*
X87309Y105602D01*
X87290Y106602D01*
X87491Y106602D01*
D02*
G37*
G36*
X124988Y111969D02*
X123992Y110990D01*
X123958Y110958D01*
X123922Y110929D01*
X123885Y110904D01*
X123846Y110883D01*
X123806Y110864D01*
X123764Y110849D01*
X123721Y110837D01*
X123676Y110829D01*
X123629Y110824D01*
X123581Y110822D01*
X124402Y111978D01*
X124988Y111969D01*
D02*
G37*
G36*
X86809Y105728D02*
X86577Y105493D01*
X85699Y104487D01*
X85689Y104470D01*
X85655Y104401D01*
X85622Y104315D01*
X85599Y104232D01*
X85587Y104153D01*
X84556Y105105D01*
X84611Y105120D01*
X84674Y105145D01*
X84742Y105181D01*
X84817Y105229D01*
X84899Y105287D01*
X84954Y105331D01*
X85070Y105432D01*
X86034Y106368D01*
X86809Y105728D01*
D02*
G37*
G36*
X119147Y104730D02*
X119168Y104710D01*
X119187Y104675D01*
X119202Y104624D01*
X119213Y104558D01*
X119221Y104478D01*
X119228Y104270D01*
X119098Y104223D01*
X120087Y103319D01*
X120347Y103080D01*
X120352Y103077D01*
X120404Y103055D01*
X120449Y103044D01*
X119456Y102051D01*
X119445Y102096D01*
X119423Y102148D01*
X119388Y102209D01*
X119343Y102277D01*
X119306Y102327D01*
X119145Y102510D01*
X118242Y103441D01*
X118981Y104180D01*
X118293Y103930D01*
X118221Y103858D01*
X118193Y103831D01*
X118168Y103810D01*
X118146Y103795D01*
X118126Y103785D01*
X118110Y103782D01*
X118097Y103784D01*
X118086Y103791D01*
X118079Y103805D01*
X118075Y103824D01*
X118073Y103849D01*
X118096Y103858D01*
X118293Y103930D01*
X119063Y104699D01*
X119094Y104725D01*
X119122Y104735D01*
X119147Y104730D01*
D02*
G37*
G36*
X93740Y104162D02*
X93807Y104117D01*
X93868Y104083D01*
X93920Y104060D01*
X93965Y104049D01*
X92972Y103057D01*
X92961Y103101D01*
X92938Y103154D01*
X92904Y103214D01*
X92858Y103283D01*
X92801Y103360D01*
X92716Y103461D01*
X92164Y104037D01*
X91714Y104490D01*
X92531Y105307D01*
X93740Y104162D01*
D02*
G37*
G36*
X173055Y92251D02*
X173116Y92243D01*
X173212Y92235D01*
X174206Y92213D01*
X174845Y92211D01*
Y91056D01*
X173028Y91007D01*
Y92261D01*
X173055Y92251D01*
D02*
G37*
G36*
X80362Y93716D02*
X80406Y93103D01*
X80422Y93023D01*
X80441Y92956D01*
X80462Y92902D01*
X80485Y92863D01*
X79081D01*
X79105Y92902D01*
X79126Y92956D01*
X79145Y93023D01*
X79161Y93103D01*
X79175Y93198D01*
X79195Y93429D01*
X79206Y93880D01*
X80361D01*
X80362Y93716D01*
D02*
G37*
G36*
X85397Y92491D02*
X85420Y92439D01*
X85454Y92378D01*
X85500Y92309D01*
X85557Y92233D01*
X85643Y92131D01*
X86194Y91555D01*
X86644Y91102D01*
X85827Y90285D01*
X84619Y91430D01*
X84551Y91475D01*
X84491Y91509D01*
X84438Y91532D01*
X84394Y91543D01*
X85386Y92536D01*
X85397Y92491D01*
D02*
G37*
G36*
X37278Y91420D02*
X37257Y91367D01*
X37238Y91300D01*
X37222Y91219D01*
X37209Y91124D01*
X37190Y90910D01*
X37178Y90161D01*
X37178Y89887D01*
X36022D01*
X35996Y90955D01*
X35978Y91219D01*
X35961Y91300D01*
X35943Y91367D01*
X35922Y91420D01*
X35898Y91460D01*
X37302D01*
X37278Y91420D01*
D02*
G37*
G36*
X116475Y92528D02*
X117743Y91421D01*
X117920Y91302D01*
X118071Y91218D01*
X118196Y91167D01*
X118296Y91150D01*
X117050Y89894D01*
X117032Y89994D01*
X116981Y90118D01*
X116894Y90269D01*
X116774Y90444D01*
X116619Y90645D01*
X116207Y91124D01*
X115331Y92031D01*
X116144Y92851D01*
X116475Y92528D01*
D02*
G37*
G36*
X65600Y96172D02*
X65578Y96119D01*
X65560Y96052D01*
X65544Y95971D01*
X65530Y95876D01*
X65518Y95745D01*
X65501Y94947D01*
X65499Y94309D01*
X64344D01*
X64299Y95973D01*
X64283Y96052D01*
X64264Y96119D01*
X64243Y96172D01*
X64219Y96212D01*
X65623D01*
X65600Y96172D01*
D02*
G37*
G36*
X99484Y96169D02*
X99440Y96158D01*
X99387Y96135D01*
X99327Y96101D01*
X99258Y96055D01*
X99181Y95998D01*
X99080Y95913D01*
X98504Y95361D01*
X98051Y94911D01*
X97234Y95728D01*
X98379Y96937D01*
X98424Y97004D01*
X98458Y97065D01*
X98481Y97117D01*
X98492Y97162D01*
X99484Y96169D01*
D02*
G37*
G36*
X107871Y95677D02*
X107894Y95625D01*
X107928Y95564D01*
X107974Y95495D01*
X108031Y95419D01*
X108116Y95317D01*
X108668Y94741D01*
X109118Y94288D01*
X108301Y93471D01*
X107092Y94616D01*
X107025Y94661D01*
X106965Y94695D01*
X106912Y94718D01*
X106868Y94729D01*
X107860Y95722D01*
X107871Y95677D01*
D02*
G37*
G36*
X119529Y95089D02*
X120563Y94164D01*
X120589Y94148D01*
X120659Y94115D01*
X120722Y94093D01*
X120779Y94082D01*
X119827Y93051D01*
X119817Y93081D01*
X119794Y93121D01*
X119760Y93171D01*
X119714Y93231D01*
X119587Y93380D01*
X119188Y93795D01*
X119190Y93797D01*
X118562Y94421D01*
X119292Y95325D01*
X119529Y95089D01*
D02*
G37*
G36*
X175288Y94544D02*
X175354Y94529D01*
X175451Y94517D01*
X175739Y94496D01*
X177002Y94475D01*
Y93320D01*
X175254Y93236D01*
Y94560D01*
X175288Y94544D01*
D02*
G37*
G36*
X94159Y117765D02*
X94181Y117708D01*
X94215Y117643D01*
X94261Y117571D01*
X94317Y117491D01*
X94370Y117428D01*
X94602Y117172D01*
X95400Y116358D01*
X94546Y115578D01*
X93567Y116530D01*
X93345Y116726D01*
X93280Y116772D01*
X93224Y116807D01*
X93177Y116829D01*
X93138Y116840D01*
X94148Y117815D01*
X94159Y117765D01*
D02*
G37*
G36*
X32000Y203600D02*
X32000Y191291D01*
X23509Y182800D01*
X2100D01*
X2100Y203616D01*
X5284Y206800D01*
X28800Y206800D01*
X32000Y203600D01*
D02*
G37*
G36*
X204583Y206500D02*
X208100Y202983D01*
X208100Y184359D01*
X207600Y183900D01*
X184500Y183900D01*
X179500Y188900D01*
Y203100D01*
X182900Y206500D01*
X204583Y206500D01*
D02*
G37*
G36*
X176732Y183465D02*
X181161Y179035D01*
X191988Y179035D01*
X195433Y175591D01*
Y166700D01*
X182795D01*
Y172935D01*
X179486D01*
X178012Y174409D01*
X168661Y174409D01*
X165905Y171653D01*
Y152756D01*
X163937Y150787D01*
X145827D01*
X145433Y151181D01*
Y162992D01*
Y166142D01*
X139528Y172047D01*
Y182283D01*
X140709Y183465D01*
X154587D01*
X160098Y188976D01*
X171220D01*
X176732Y183465D01*
D02*
G37*
G36*
X131260Y170472D02*
X132835Y168898D01*
Y151969D01*
X131653Y150787D01*
X113937D01*
X111575Y153150D01*
X111575Y166142D01*
X107638Y170079D01*
X103307Y170079D01*
X99628Y166400D01*
X86929D01*
Y172738D01*
X86378D01*
Y175591D01*
X94252Y183465D01*
X118268D01*
X131260Y170472D01*
D02*
G37*
G36*
X53012Y183465D02*
X68268Y183465D01*
X69842Y181890D01*
X69842Y170472D01*
X65770Y166400D01*
X52618D01*
Y172642D01*
X52126D01*
Y173622D01*
X50945Y174803D01*
X41890Y174803D01*
X35197Y168110D01*
X35197Y153150D01*
X34016Y151969D01*
X14724Y151969D01*
X14724Y171260D01*
X18661Y171260D01*
X30866Y183465D01*
X35886Y188484D01*
X47992Y188484D01*
X53012Y183465D01*
D02*
G37*
G36*
X42800Y236100D02*
Y216100D01*
X42700Y216000D01*
X41000Y214300D01*
X10900D01*
X10100Y215100D01*
X7700Y217500D01*
Y235500D01*
X10200Y238000D01*
X40900Y238000D01*
X42800Y236100D01*
D02*
G37*
G36*
X204900Y236600D02*
X204900Y217800D01*
X204800Y217700D01*
X203100Y216000D01*
X173000D01*
X172200Y216800D01*
X169800Y219200D01*
Y237200D01*
X170600Y238000D01*
X203500Y238000D01*
X204900Y236600D01*
D02*
G37*
G36*
X78504Y227953D02*
Y195669D01*
X71220Y188386D01*
X54291Y188386D01*
X53110Y189567D01*
X53110Y217913D01*
X65905Y230709D01*
X75748D01*
X78504Y227953D01*
D02*
G37*
G36*
X117874Y227559D02*
Y218898D01*
X134016Y202756D01*
X135197Y202756D01*
X147795D01*
X152913Y197638D01*
Y187795D01*
X152126Y187008D01*
X141102Y187008D01*
X140315Y187795D01*
X116200Y187795D01*
X114331Y189665D01*
X114331Y197669D01*
X102913Y209087D01*
X102913Y219291D01*
X102913Y227559D01*
X106063Y230709D01*
X114724D01*
X117874Y227559D01*
D02*
G37*
G36*
X98189D02*
X98189Y207874D01*
X107441Y198622D01*
X107441Y189075D01*
X105768Y187402D01*
X94252Y187401D01*
X91496Y187402D01*
X83228Y195669D01*
X83228Y227559D01*
X86378Y230709D01*
X95039D01*
X98189Y227559D01*
D02*
G37*
G36*
X38889Y122723D02*
X38843Y122752D01*
X38784Y122778D01*
X38712Y122801D01*
X38628Y122820D01*
X38530Y122837D01*
X38296Y122862D01*
X38011Y122874D01*
X37849Y122875D01*
Y123975D01*
X38011Y123977D01*
X38530Y124013D01*
X38628Y124030D01*
X38712Y124050D01*
X38784Y124072D01*
X38843Y124098D01*
X38889Y124127D01*
Y122723D01*
D02*
G37*
G36*
X76451Y127683D02*
X76533Y127661D01*
X76651Y127641D01*
X76807Y127624D01*
X77495Y127589D01*
X78516Y127577D01*
Y126423D01*
X78139Y126421D01*
X76451Y126317D01*
X76407Y126293D01*
Y126423D01*
X76241D01*
X76407Y126588D01*
Y127708D01*
X76451Y127683D01*
D02*
G37*
G36*
X52607Y121220D02*
X52617Y121207D01*
X52664Y121157D01*
X53013Y120804D01*
X51788Y120395D01*
X50971Y121224D01*
X52605D01*
X52607Y121220D01*
D02*
G37*
G36*
X104983Y120352D02*
X105005Y120306D01*
X105039Y120250D01*
X105085Y120186D01*
X105211Y120030D01*
X105296Y119938D01*
X106232Y118986D01*
X105384Y118138D01*
X104312Y119172D01*
X104184Y119286D01*
X104120Y119331D01*
X104064Y119365D01*
X104018Y119387D01*
X103980Y119397D01*
X104973Y120390D01*
X104983Y120352D01*
D02*
G37*
G36*
X183311Y118583D02*
X183307Y118581D01*
X183295Y118570D01*
X183244Y118523D01*
X182891Y118174D01*
Y119808D01*
X183311Y120216D01*
Y118583D01*
D02*
G37*
G36*
X158169Y141337D02*
X158617D01*
Y139200D01*
X145700Y139200D01*
X144200Y140700D01*
X144200Y146400D01*
X145400Y147600D01*
X158169D01*
Y141337D01*
D02*
G37*
G36*
X131798Y144812D02*
X130875Y142905D01*
X130168Y143612D01*
X131090Y145519D01*
X131798Y144812D01*
D02*
G37*
G36*
X28500Y147900D02*
Y138900D01*
X15800Y138900D01*
X14800Y139900D01*
Y146300D01*
Y147000D01*
X15700Y147900D01*
X28500Y147900D01*
D02*
G37*
G36*
X125787Y141238D02*
X127900D01*
Y139500D01*
Y138900D01*
X127100Y138100D01*
X113500D01*
X112500Y139400D01*
Y146800D01*
X113200Y147500D01*
X125787Y147500D01*
Y141238D01*
D02*
G37*
G36*
X136700Y139909D02*
X135286Y138495D01*
X134570Y139210D01*
X135985Y140624D01*
X136700Y139909D01*
D02*
G37*
G36*
X36434Y62205D02*
X37670Y61614D01*
X36952Y60486D01*
X36820Y60580D01*
X36326Y59860D01*
X35370Y60537D01*
X35585Y60759D01*
X35939Y61166D01*
X36079Y61353D01*
X36194Y61528D01*
X36284Y61691D01*
X36349Y61843D01*
X36389Y61983D01*
X36405Y62112D01*
X36395Y62229D01*
X36434Y62205D01*
D02*
G37*
G36*
X179600Y69833D02*
X180107Y69429D01*
X180620Y69086D01*
X181139Y68804D01*
X181665Y68584D01*
X182197Y68426D01*
X182736Y68329D01*
X183282Y68294D01*
X183834Y68320D01*
X184392Y68408D01*
X184233Y68147D01*
X182742Y64817D01*
X182673Y64926D01*
X182564Y65070D01*
X182230Y65461D01*
X180715Y67049D01*
X180295Y67471D01*
X180311Y67503D01*
X178555Y69211D01*
X179100Y70299D01*
X179600Y69833D01*
D02*
G37*
G36*
X51094Y58353D02*
X51054Y58377D01*
X51001Y58398D01*
X50934Y58417D01*
X50853Y58433D01*
X50758Y58447D01*
X50626Y58458D01*
X49829Y58476D01*
X49191Y58478D01*
Y59633D01*
X50855Y59678D01*
X50934Y59694D01*
X51001Y59712D01*
X51054Y59733D01*
X51094Y59757D01*
Y58353D01*
D02*
G37*
G36*
X55490Y55827D02*
X55432Y55865D01*
X55363Y55900D01*
X55283Y55930D01*
X55192Y55956D01*
X55089Y55978D01*
X54976Y55997D01*
X54717Y56021D01*
X54477Y56027D01*
X54127Y56029D01*
Y57029D01*
X54588Y57032D01*
X54976Y57061D01*
X55089Y57079D01*
X55192Y57102D01*
X55283Y57128D01*
X55363Y57158D01*
X55432Y57192D01*
X55490Y57231D01*
Y55827D01*
D02*
G37*
G36*
X122697Y71358D02*
X122894Y71161D01*
Y66535D01*
X121614Y65256D01*
X118760Y65256D01*
X116595Y63091D01*
X115709Y62205D01*
X115709Y56398D01*
X109652Y56398D01*
X109261Y56698D01*
X108524Y57003D01*
X108524Y70669D01*
X109705Y71850D01*
X122205D01*
X122697Y71358D01*
D02*
G37*
G36*
X30479Y70763D02*
X29887Y70154D01*
X28484Y68504D01*
X28141Y68013D01*
X27860Y67551D01*
X27664Y67163D01*
X27588Y66920D01*
X27489Y66530D01*
X27340Y65683D01*
X24583Y68440D01*
X25018Y68506D01*
X25820Y68688D01*
X26063Y68764D01*
X26451Y68960D01*
X26913Y69241D01*
X27404Y69584D01*
X28475Y70457D01*
X29054Y70987D01*
X29663Y71579D01*
X30479Y70763D01*
D02*
G37*
G36*
X55858Y72989D02*
X55834Y73000D01*
X55794Y73009D01*
X55738Y73018D01*
X55578Y73031D01*
X55067Y73044D01*
X54900Y73045D01*
X54898Y73058D01*
X54014Y73045D01*
X53842Y74199D01*
X54176Y74201D01*
X55597Y74296D01*
X55667Y74322D01*
X55729Y74355D01*
X55780Y74391D01*
X55858Y72989D01*
D02*
G37*
G36*
X179646Y79924D02*
X180159Y79510D01*
X180676Y79158D01*
X181198Y78867D01*
X181724Y78638D01*
X182255Y78470D01*
X182790Y78364D01*
X183330Y78319D01*
X183874Y78335D01*
X184422Y78414D01*
X184360Y78316D01*
X182711Y74876D01*
X182627Y75020D01*
X182508Y75193D01*
X182166Y75624D01*
X181685Y76169D01*
X180306Y77598D01*
X180307Y77600D01*
X178566Y79338D01*
X179138Y80399D01*
X179646Y79924D01*
D02*
G37*
G36*
X78259Y69574D02*
X78220Y69597D01*
X78166Y69618D01*
X78099Y69637D01*
X78018Y69653D01*
X77924Y69667D01*
X77792Y69678D01*
X76994Y69696D01*
X76356Y69698D01*
Y70853D01*
X78020Y70898D01*
X78099Y70914D01*
X78166Y70933D01*
X78220Y70954D01*
X78259Y70977D01*
Y69574D01*
D02*
G37*
G36*
X93120Y71084D02*
X93531Y70813D01*
X93730Y70703D01*
X93925Y70609D01*
X94116Y70533D01*
X94304Y70474D01*
X94487Y70432D01*
X94667Y70406D01*
X94842Y70398D01*
Y67398D01*
X94667Y67389D01*
X94487Y67364D01*
X94304Y67321D01*
X94116Y67262D01*
X93925Y67186D01*
X93730Y67093D01*
X93531Y66982D01*
X93327Y66855D01*
X92909Y66550D01*
Y71245D01*
X93120Y71084D01*
D02*
G37*
G36*
X127982Y69430D02*
X126838Y68221D01*
X126793Y68154D01*
X126759Y68093D01*
X126736Y68041D01*
X126725Y67996D01*
X125732Y68989D01*
X125777Y69000D01*
X125829Y69022D01*
X125890Y69056D01*
X125959Y69102D01*
X126035Y69160D01*
X126137Y69245D01*
X126713Y69796D01*
X127166Y70246D01*
X127982Y69430D01*
D02*
G37*
G36*
X28659Y58942D02*
X28463Y58726D01*
X28281Y58486D01*
X28113Y58221D01*
X27960Y57931D01*
X27821Y57616D01*
X27696Y57277D01*
X27585Y56912D01*
X27406Y56110D01*
X27339Y55671D01*
X24571Y58439D01*
X25010Y58507D01*
X25813Y58685D01*
X26177Y58796D01*
X26516Y58921D01*
X26831Y59060D01*
X27121Y59213D01*
X27386Y59381D01*
X27626Y59563D01*
X27842Y59759D01*
X28659Y58942D01*
D02*
G37*
G36*
X97827Y45267D02*
X97843Y45188D01*
X97862Y45121D01*
X97883Y45068D01*
X97907Y45028D01*
X96503D01*
X96526Y45068D01*
X96548Y45121D01*
X96566Y45188D01*
X96582Y45269D01*
X96596Y45364D01*
X96608Y45496D01*
X96625Y46293D01*
X96627Y46931D01*
X97782D01*
X97827Y45267D01*
D02*
G37*
G36*
X120534Y46233D02*
X120114Y45825D01*
X119112Y46433D01*
X119115Y46438D01*
X119126Y46451D01*
X119211Y46540D01*
X119521Y46853D01*
X120534Y46233D01*
D02*
G37*
G36*
X179575Y49780D02*
X180078Y49381D01*
X180588Y49044D01*
X181106Y48768D01*
X181632Y48553D01*
X182165Y48400D01*
X182706Y48309D01*
X183255Y48279D01*
X183811Y48311D01*
X184375Y48404D01*
X184166Y48053D01*
X182761Y44783D01*
X182703Y44869D01*
X182602Y44994D01*
X182050Y45602D01*
X180292Y47395D01*
X180316Y47446D01*
X178552Y49135D01*
X179080Y50241D01*
X179575Y49780D01*
D02*
G37*
G36*
X124357Y43631D02*
X123202Y43406D01*
X123197Y43711D01*
X123157Y44247D01*
X123123Y44476D01*
X123078Y44680D01*
X123023Y44859D01*
X122959Y45013D01*
X122884Y45141D01*
X122800Y45243D01*
X122705Y45321D01*
X123959Y45625D01*
X124357Y43631D01*
D02*
G37*
G36*
X106981Y44268D02*
X106997Y44189D01*
X107015Y44122D01*
X107037Y44069D01*
X107060Y44029D01*
X105656D01*
X105680Y44069D01*
X105701Y44122D01*
X105720Y44189D01*
X105736Y44270D01*
X105750Y44364D01*
X105761Y44496D01*
X105779Y45294D01*
X105781Y45932D01*
X106936D01*
X106981Y44268D01*
D02*
G37*
G36*
X44167Y48164D02*
X44066Y48144D01*
X43960Y48109D01*
X43848Y48061D01*
X43731Y47999D01*
X43609Y47923D01*
X43482Y47834D01*
X43211Y47614D01*
X43068Y47484D01*
X42920Y47340D01*
X41647Y48613D01*
X41791Y48761D01*
X42141Y49175D01*
X42230Y49302D01*
X42306Y49424D01*
X42368Y49541D01*
X42416Y49652D01*
X42451Y49759D01*
X42472Y49860D01*
X44167Y48164D01*
D02*
G37*
G36*
X17409Y55859D02*
X17591Y55021D01*
X17664Y54775D01*
X17853Y54386D01*
X18130Y53916D01*
X18469Y53419D01*
X18868Y52896D01*
X19853Y51772D01*
X20437Y51170D01*
X19730Y50463D01*
X19128Y51047D01*
X17481Y52431D01*
X16984Y52770D01*
X16514Y53047D01*
X16125Y53236D01*
X15879Y53309D01*
X15041Y53491D01*
X14583Y53560D01*
X17340Y56317D01*
X17409Y55859D01*
D02*
G37*
G36*
X179557Y59739D02*
X180057Y59344D01*
X180566Y59011D01*
X181082Y58739D01*
X181608Y58529D01*
X182142Y58380D01*
X182684Y58293D01*
X183235Y58268D01*
X183794Y58304D01*
X184362Y58401D01*
X184117Y57984D01*
X182776Y54757D01*
X182727Y54824D01*
X182634Y54934D01*
X181502Y56117D01*
X180291Y57337D01*
X180321Y57401D01*
X178551Y59077D01*
X179066Y60196D01*
X179557Y59739D01*
D02*
G37*
G36*
X120534Y50662D02*
X120126Y50254D01*
X119683Y51445D01*
X120091Y51853D01*
X120534Y50662D01*
D02*
G37*
G36*
X35304Y49020D02*
X35400Y47605D01*
X35402Y47598D01*
X35432Y47518D01*
X35467Y47449D01*
X35505Y47391D01*
X34101D01*
X34140Y47449D01*
X34174Y47518D01*
X34204Y47598D01*
X34231Y47689D01*
X34251Y47784D01*
X34258Y47838D01*
X34292Y48449D01*
X34303Y49353D01*
X35303D01*
X35304Y49020D01*
D02*
G37*
G36*
X50854Y50762D02*
X50923Y50728D01*
X51003Y50697D01*
X51094Y50671D01*
X51190Y50650D01*
X51243Y50644D01*
X51855Y50610D01*
X52759Y50598D01*
Y49598D01*
X52425Y49597D01*
X51011Y49502D01*
X51003Y49499D01*
X50923Y49469D01*
X50854Y49435D01*
X50796Y49396D01*
Y50800D01*
X50854Y50762D01*
D02*
G37*
G36*
X38041Y76389D02*
X38019Y76336D01*
X38001Y76269D01*
X37984Y76188D01*
X37971Y76093D01*
X37951Y75862D01*
X37940Y75411D01*
X36785D01*
X36783Y75575D01*
X36740Y76188D01*
X36724Y76269D01*
X36705Y76336D01*
X36684Y76389D01*
X36660Y76428D01*
X38064D01*
X38041Y76389D01*
D02*
G37*
G36*
X85480Y82979D02*
X85547Y82934D01*
X85608Y82900D01*
X85660Y82878D01*
X85705Y82867D01*
X84712Y81874D01*
X84701Y81918D01*
X84678Y81971D01*
X84644Y82032D01*
X84598Y82100D01*
X84541Y82177D01*
X84456Y82278D01*
X83905Y82855D01*
X83455Y83307D01*
X84271Y84124D01*
X85480Y82979D01*
D02*
G37*
G36*
X96473Y82102D02*
X96247Y81871D01*
X95591Y81110D01*
X95489Y80960D01*
X95411Y80826D01*
X95359Y80708D01*
X95342Y80648D01*
X95332Y80564D01*
X95333Y80471D01*
X94163Y81252D01*
X95005Y82267D01*
X95070Y82205D01*
X95631Y82893D01*
X96473Y82102D01*
D02*
G37*
G36*
X95119Y83532D02*
X94400Y83033D01*
X94493Y82905D01*
X93370Y82180D01*
X92759Y83430D01*
X92748Y83448D01*
X92863Y83439D01*
X92990Y83455D01*
X93130Y83496D01*
X93281Y83562D01*
X93443Y83653D01*
X93618Y83769D01*
X93804Y83909D01*
X94213Y84265D01*
X94434Y84481D01*
X95119Y83532D01*
D02*
G37*
G36*
X73221Y78633D02*
X73237Y78554D01*
X73255Y78487D01*
X73277Y78434D01*
X73300Y78395D01*
X71896Y78395D01*
X71920Y78434D01*
X71941Y78487D01*
X71960Y78554D01*
X71976Y78635D01*
X71990Y78730D01*
X72001Y78862D01*
X72019Y79659D01*
X72021Y80298D01*
X73176Y80298D01*
X73221Y78633D01*
D02*
G37*
G36*
X100467Y80399D02*
X99298Y79116D01*
X99275Y79064D01*
X99264Y79020D01*
X98272Y80012D01*
X98316Y80023D01*
X98369Y80046D01*
X98429Y80080D01*
X98498Y80126D01*
X98541Y80159D01*
X98727Y80321D01*
X99651Y81215D01*
X100467Y80399D01*
D02*
G37*
G36*
X88538Y79985D02*
X87925Y79407D01*
X87057Y80512D01*
X87134Y80518D01*
X87216Y80536D01*
X87301Y80565D01*
X87390Y80605D01*
X87483Y80657D01*
X87579Y80719D01*
X87679Y80793D01*
X87891Y80975D01*
X88002Y81083D01*
X88538Y79985D01*
D02*
G37*
G36*
X165377Y85165D02*
X165439Y85156D01*
X165535Y85149D01*
X166529Y85127D01*
X167168Y85125D01*
Y83970D01*
X165350Y83921D01*
Y85174D01*
X165377Y85165D01*
D02*
G37*
G36*
X168035Y87724D02*
X168096Y87715D01*
X168192Y87708D01*
X169187Y87686D01*
X169825Y87684D01*
Y86529D01*
X168008Y86480D01*
Y87733D01*
X168035Y87724D01*
D02*
G37*
G36*
X170692Y89987D02*
X170754Y89979D01*
X170850Y89972D01*
X171844Y89950D01*
X172483Y89948D01*
Y88793D01*
X170665Y88743D01*
Y89997D01*
X170692Y89987D01*
D02*
G37*
G36*
X73319Y89952D02*
X73335Y89873D01*
X73354Y89806D01*
X73375Y89753D01*
X73399Y89714D01*
X71995D01*
X72018Y89753D01*
X72040Y89806D01*
X72058Y89873D01*
X72075Y89954D01*
X72088Y90049D01*
X72094Y90118D01*
X72100Y90181D01*
X72117Y90978D01*
X72119Y91617D01*
X73274D01*
X73319Y89952D01*
D02*
G37*
G36*
X91584Y85619D02*
X91637Y85598D01*
X91704Y85579D01*
X91785Y85563D01*
X91879Y85549D01*
X92111Y85530D01*
X92562Y85518D01*
Y84363D01*
X92397Y84362D01*
X91785Y84319D01*
X91704Y84303D01*
X91637Y84284D01*
X91584Y84263D01*
X91544Y84239D01*
Y85643D01*
X91584Y85619D01*
D02*
G37*
G36*
X33314Y85391D02*
X31681D01*
X32089Y85799D01*
X33722D01*
X33314Y85391D01*
D02*
G37*
G36*
X180746Y90987D02*
X182396Y89584D01*
X182887Y89241D01*
X183349Y88960D01*
X183781Y88742D01*
X184184Y88586D01*
X184557Y88492D01*
X184901Y88461D01*
X182439Y85998D01*
X182408Y86343D01*
X182314Y86716D01*
X182158Y87119D01*
X181940Y87551D01*
X181659Y88013D01*
X181316Y88504D01*
X180443Y89574D01*
X179913Y90154D01*
X179321Y90763D01*
X180137Y91580D01*
X180746Y90987D01*
D02*
G37*
G36*
X29561Y81638D02*
X29061Y81108D01*
X28623Y80579D01*
X28246Y80052D01*
X27930Y79526D01*
X27676Y79001D01*
X27484Y78477D01*
X27353Y77955D01*
X27283Y77433D01*
X27276Y76959D01*
X27338Y76336D01*
X23931Y78262D01*
X24152Y78365D01*
X24381Y78488D01*
X24861Y78794D01*
X25112Y78978D01*
X25583Y79372D01*
X25960Y79715D01*
X28225Y81936D01*
X29561Y81638D01*
D02*
G37*
G36*
X101667Y77858D02*
X101552Y77742D01*
X101150Y77276D01*
X101104Y77206D01*
X101070Y77145D01*
X101047Y77091D01*
X101035Y77045D01*
X100037Y78043D01*
X100083Y78054D01*
X100137Y78078D01*
X100199Y78112D01*
X100268Y78158D01*
X100346Y78215D01*
X100524Y78365D01*
X100734Y78560D01*
X100850Y78675D01*
X101667Y77858D01*
D02*
G37*
G36*
X103792Y75674D02*
X102861Y74897D01*
X102142Y76075D01*
X102217Y76071D01*
X102294Y76077D01*
X102372Y76092D01*
X102453Y76119D01*
X102535Y76155D01*
X102619Y76202D01*
X102706Y76259D01*
X102794Y76326D01*
X102884Y76403D01*
X102975Y76491D01*
X103792Y75674D01*
D02*
G37*
G36*
X153757Y76511D02*
X153599Y76624D01*
X153433Y76724D01*
X153260Y76813D01*
X153078Y76890D01*
X152888Y76955D01*
X152691Y77009D01*
X152486Y77050D01*
X152277Y77079D01*
X151757Y77100D01*
X151405Y77104D01*
Y78259D01*
X151757Y78262D01*
X152482Y78311D01*
X152486Y78312D01*
X152691Y78353D01*
X152888Y78407D01*
X153078Y78472D01*
X153260Y78549D01*
X153433Y78638D01*
X153599Y78738D01*
X153757Y78851D01*
Y76511D01*
D02*
G37*
%LPC*%
G36*
X203696Y66024D02*
X203655D01*
X203614Y66019D01*
X203577Y66006D01*
X203550Y65983D01*
X203546Y65978D01*
X203541Y65969D01*
X203532Y65951D01*
X203518Y65928D01*
X203505Y65896D01*
X203496Y65855D01*
X203491Y65810D01*
X203486Y65760D01*
Y65023D01*
Y65018D01*
Y64996D01*
X203491Y64968D01*
X203496Y64932D01*
X203500Y64891D01*
X203514Y64845D01*
X203527Y64795D01*
X203550Y64750D01*
X203555Y64745D01*
X203564Y64732D01*
X203582Y64709D01*
X203605Y64682D01*
X203641Y64654D01*
X203682Y64622D01*
X203737Y64595D01*
X203800Y64568D01*
X203805D01*
X203814Y64563D01*
X203832Y64559D01*
X203855Y64554D01*
X203905Y64545D01*
X203955Y64541D01*
X203964D01*
X203987Y64550D01*
X204014Y64563D01*
X204042Y64582D01*
X204046Y64586D01*
X204060Y64609D01*
X204073Y64636D01*
X204087Y64677D01*
Y64682D01*
Y64686D01*
X204092Y64714D01*
X204096Y64754D01*
X204101Y64805D01*
Y65560D01*
Y65564D01*
Y65573D01*
Y65587D01*
Y65601D01*
X204096Y65646D01*
X204087Y65692D01*
Y65696D01*
X204082Y65705D01*
X204078Y65733D01*
X204060Y65774D01*
X204042Y65815D01*
Y65819D01*
X204037Y65824D01*
X204019Y65851D01*
X203992Y65883D01*
X203951Y65919D01*
X203946Y65924D01*
X203941Y65928D01*
X203928Y65937D01*
X203910Y65947D01*
X203860Y65974D01*
X203796Y66001D01*
X203787Y66006D01*
X203764Y66010D01*
X203737Y66019D01*
X203696Y66024D01*
D02*
G37*
G36*
X204806Y65674D02*
X204719D01*
X204683Y65660D01*
X204651Y65637D01*
X204647Y65633D01*
X204642Y65623D01*
X204628Y65605D01*
X204615Y65583D01*
X204606Y65551D01*
X204592Y65514D01*
X204588Y65469D01*
X204583Y65414D01*
Y64622D01*
Y64618D01*
Y64595D01*
X204588Y64568D01*
X204592Y64531D01*
X204601Y64486D01*
X204610Y64441D01*
X204628Y64390D01*
X204651Y64345D01*
X204656Y64340D01*
X204665Y64327D01*
X204683Y64304D01*
X204710Y64277D01*
X204742Y64249D01*
X204788Y64218D01*
X204842Y64190D01*
X204906Y64163D01*
X204915Y64158D01*
X204938Y64154D01*
X204970Y64145D01*
X205011Y64140D01*
X205056Y64136D01*
X205102Y64140D01*
X205138Y64149D01*
X205170Y64172D01*
X205174Y64177D01*
X205179Y64186D01*
X205193Y64208D01*
X205202Y64231D01*
X205216Y64268D01*
X205229Y64309D01*
X205234Y64354D01*
X205238Y64409D01*
Y65182D01*
Y65191D01*
Y65209D01*
X205234Y65237D01*
X205229Y65273D01*
X205220Y65319D01*
X205211Y65364D01*
X205193Y65414D01*
X205170Y65460D01*
X205165Y65464D01*
X205156Y65478D01*
X205138Y65501D01*
X205111Y65528D01*
X205074Y65560D01*
X205029Y65592D01*
X204974Y65623D01*
X204906Y65651D01*
X204897Y65655D01*
X204874Y65660D01*
X204842Y65669D01*
X204806Y65674D01*
D02*
G37*
G36*
X203418Y62470D02*
X204619Y60937D01*
Y62061D01*
X203418Y62470D01*
D02*
G37*
G36*
X147974Y94332D02*
X147847D01*
X147801Y94327D01*
X147742D01*
X147674Y94318D01*
X147606Y94309D01*
X147538Y94300D01*
X147469Y94282D01*
X147460D01*
X147442Y94272D01*
X147410Y94259D01*
X147369Y94245D01*
X147324Y94222D01*
X147274Y94195D01*
X147228Y94159D01*
X147178Y94122D01*
X147174Y94118D01*
X147160Y94104D01*
X147137Y94081D01*
X147110Y94049D01*
X147078Y94008D01*
X147042Y93963D01*
X147005Y93908D01*
X146973Y93845D01*
X146969Y93836D01*
X146960Y93813D01*
X146941Y93776D01*
X146923Y93726D01*
X146896Y93667D01*
X146869Y93594D01*
X146837Y93512D01*
X146805Y93422D01*
Y93417D01*
X146800Y93412D01*
X146796Y93399D01*
X146791Y93381D01*
X146778Y93335D01*
X146759Y93276D01*
X146737Y93208D01*
X146719Y93139D01*
X146700Y93067D01*
X146687Y92998D01*
Y92989D01*
X146682Y92971D01*
X146678Y92939D01*
Y92898D01*
Y92853D01*
Y92807D01*
X146687Y92762D01*
X146700Y92716D01*
X146705Y92712D01*
X146710Y92698D01*
X146723Y92680D01*
X146741Y92657D01*
X146769Y92634D01*
X146800Y92607D01*
X146837Y92584D01*
X146882Y92562D01*
X146887D01*
X146910Y92553D01*
X146937Y92548D01*
X146983Y92539D01*
X147037Y92530D01*
X147105Y92521D01*
X147183Y92516D01*
X147269Y92511D01*
X147310D01*
X147356Y92516D01*
X147415D01*
X147483Y92525D01*
X147551Y92534D01*
X147619Y92543D01*
X147688Y92562D01*
X147697Y92566D01*
X147715Y92571D01*
X147747Y92584D01*
X147788Y92598D01*
X147833Y92621D01*
X147879Y92648D01*
X147929Y92680D01*
X147974Y92716D01*
X147979Y92721D01*
X147993Y92734D01*
X148015Y92762D01*
X148043Y92794D01*
X148074Y92835D01*
X148111Y92880D01*
X148147Y92935D01*
X148179Y92998D01*
X148184Y93007D01*
X148193Y93030D01*
X148211Y93067D01*
X148234Y93117D01*
X148257Y93176D01*
X148288Y93249D01*
X148316Y93331D01*
X148347Y93422D01*
Y93426D01*
X148352Y93431D01*
X148357Y93444D01*
X148361Y93463D01*
X148375Y93508D01*
X148393Y93567D01*
X148416Y93635D01*
X148434Y93704D01*
X148452Y93776D01*
X148466Y93845D01*
Y93854D01*
X148470Y93872D01*
X148475Y93904D01*
Y93945D01*
Y93990D01*
Y94036D01*
X148466Y94081D01*
X148452Y94122D01*
Y94127D01*
X148443Y94140D01*
X148429Y94159D01*
X148411Y94181D01*
X148388Y94209D01*
X148357Y94236D01*
X148316Y94259D01*
X148270Y94282D01*
X148266Y94286D01*
X148247Y94291D01*
X148215Y94300D01*
X148175Y94309D01*
X148120Y94318D01*
X148052Y94322D01*
X147974Y94332D01*
D02*
G37*
G36*
X204679Y80839D02*
X203587Y80693D01*
X204679Y79815D01*
Y80839D01*
D02*
G37*
G36*
X203891Y77699D02*
X203760D01*
X203714Y77690D01*
X203673Y77676D01*
X203668D01*
X203655Y77667D01*
X203637Y77654D01*
X203614Y77636D01*
X203587Y77613D01*
X203559Y77581D01*
X203537Y77540D01*
X203514Y77494D01*
X203509Y77490D01*
X203505Y77472D01*
X203496Y77440D01*
X203486Y77399D01*
X203477Y77344D01*
X203473Y77276D01*
X203464Y77199D01*
Y77112D01*
Y77108D01*
Y77103D01*
Y77090D01*
Y77071D01*
X203468Y77026D01*
Y76967D01*
X203477Y76898D01*
X203486Y76830D01*
X203496Y76762D01*
X203514Y76694D01*
Y76684D01*
X203523Y76666D01*
X203537Y76635D01*
X203550Y76594D01*
X203573Y76548D01*
X203600Y76498D01*
X203637Y76452D01*
X203673Y76402D01*
X203678Y76398D01*
X203691Y76384D01*
X203714Y76362D01*
X203746Y76334D01*
X203787Y76302D01*
X203832Y76266D01*
X203887Y76230D01*
X203951Y76198D01*
X203960Y76193D01*
X203982Y76184D01*
X204019Y76166D01*
X204069Y76148D01*
X204128Y76120D01*
X204201Y76093D01*
X204283Y76061D01*
X204374Y76029D01*
X204378D01*
X204383Y76025D01*
X204397Y76020D01*
X204415Y76016D01*
X204460Y76002D01*
X204519Y75984D01*
X204588Y75961D01*
X204656Y75943D01*
X204729Y75925D01*
X204797Y75911D01*
X204806D01*
X204824Y75906D01*
X204856Y75902D01*
X204988D01*
X205033Y75911D01*
X205079Y75925D01*
X205083Y75929D01*
X205097Y75934D01*
X205115Y75947D01*
X205138Y75966D01*
X205161Y75993D01*
X205188Y76025D01*
X205211Y76061D01*
X205234Y76107D01*
Y76111D01*
X205243Y76134D01*
X205247Y76161D01*
X205256Y76207D01*
X205265Y76261D01*
X205275Y76330D01*
X205279Y76407D01*
X205284Y76493D01*
Y76498D01*
Y76503D01*
Y76516D01*
Y76534D01*
X205279Y76580D01*
Y76639D01*
X205270Y76707D01*
X205261Y76775D01*
X205252Y76844D01*
X205234Y76912D01*
X205229Y76921D01*
X205225Y76939D01*
X205211Y76971D01*
X205197Y77012D01*
X205174Y77058D01*
X205147Y77103D01*
X205115Y77153D01*
X205079Y77199D01*
X205074Y77203D01*
X205061Y77217D01*
X205033Y77240D01*
X205002Y77267D01*
X204961Y77299D01*
X204915Y77335D01*
X204861Y77372D01*
X204797Y77403D01*
X204788Y77408D01*
X204765Y77417D01*
X204729Y77435D01*
X204679Y77458D01*
X204619Y77481D01*
X204547Y77513D01*
X204465Y77540D01*
X204374Y77572D01*
X204369D01*
X204365Y77576D01*
X204351Y77581D01*
X204333Y77585D01*
X204287Y77599D01*
X204228Y77617D01*
X204160Y77640D01*
X204092Y77658D01*
X204019Y77676D01*
X203951Y77690D01*
X203941D01*
X203923Y77695D01*
X203891Y77699D01*
D02*
G37*
G36*
X203718Y46049D02*
X203705D01*
X203678Y46045D01*
X203641Y46036D01*
X203605Y46018D01*
X203600Y46013D01*
X203582Y45995D01*
X203564Y45968D01*
X203550Y45926D01*
Y45922D01*
X203546Y45917D01*
X203541Y45890D01*
X203537Y45845D01*
X203532Y45795D01*
Y44689D01*
X204274Y44439D01*
Y45540D01*
Y45544D01*
Y45553D01*
Y45567D01*
Y45585D01*
X204269Y45631D01*
X204260Y45681D01*
Y45685D01*
X204255Y45695D01*
X204251Y45708D01*
X204246Y45726D01*
X204228Y45767D01*
X204201Y45813D01*
Y45817D01*
X204192Y45822D01*
X204173Y45849D01*
X204137Y45886D01*
X204092Y45926D01*
X204087Y45931D01*
X204078Y45936D01*
X204064Y45945D01*
X204042Y45958D01*
X204014Y45972D01*
X203978Y45986D01*
X203941Y46004D01*
X203901Y46018D01*
X203896D01*
X203882Y46022D01*
X203860Y46031D01*
X203837Y46036D01*
X203778Y46045D01*
X203718Y46049D01*
D02*
G37*
G36*
Y36167D02*
X203705D01*
X203678Y36162D01*
X203641Y36153D01*
X203605Y36135D01*
X203600Y36130D01*
X203582Y36112D01*
X203564Y36085D01*
X203550Y36044D01*
Y36039D01*
X203546Y36035D01*
X203541Y36007D01*
X203537Y35962D01*
X203532Y35912D01*
Y34806D01*
X204274Y34556D01*
Y35657D01*
Y35662D01*
Y35671D01*
Y35684D01*
Y35703D01*
X204269Y35748D01*
X204260Y35798D01*
Y35803D01*
X204255Y35812D01*
X204251Y35825D01*
X204246Y35844D01*
X204228Y35885D01*
X204201Y35930D01*
Y35935D01*
X204192Y35939D01*
X204173Y35967D01*
X204137Y36003D01*
X204092Y36044D01*
X204087Y36048D01*
X204078Y36053D01*
X204064Y36062D01*
X204042Y36076D01*
X204014Y36089D01*
X203978Y36103D01*
X203941Y36121D01*
X203901Y36135D01*
X203896D01*
X203882Y36140D01*
X203860Y36149D01*
X203837Y36153D01*
X203778Y36162D01*
X203718Y36167D01*
D02*
G37*
G36*
X160141Y94332D02*
X160014D01*
X159968Y94327D01*
X159909D01*
X159841Y94318D01*
X159773Y94309D01*
X159704Y94300D01*
X159636Y94282D01*
X159627D01*
X159609Y94272D01*
X159577Y94259D01*
X159536Y94245D01*
X159490Y94222D01*
X159440Y94195D01*
X159395Y94159D01*
X159345Y94122D01*
X159340Y94118D01*
X159327Y94104D01*
X159304Y94081D01*
X159277Y94049D01*
X159245Y94008D01*
X159208Y93963D01*
X159172Y93908D01*
X159140Y93845D01*
X159135Y93836D01*
X159126Y93813D01*
X159108Y93776D01*
X159090Y93726D01*
X159063Y93667D01*
X159035Y93594D01*
X159004Y93512D01*
X158972Y93422D01*
Y93417D01*
X158967Y93412D01*
X158963Y93399D01*
X158958Y93381D01*
X158944Y93335D01*
X158926Y93276D01*
X158904Y93208D01*
X158885Y93139D01*
X158867Y93067D01*
X158853Y92998D01*
Y92989D01*
X158849Y92971D01*
X158844Y92939D01*
Y92898D01*
Y92853D01*
Y92807D01*
X158853Y92762D01*
X158867Y92716D01*
X158872Y92712D01*
X158876Y92698D01*
X158890Y92680D01*
X158908Y92657D01*
X158935Y92634D01*
X158967Y92607D01*
X159004Y92584D01*
X159049Y92562D01*
X159054D01*
X159076Y92553D01*
X159104Y92548D01*
X159149Y92539D01*
X159204Y92530D01*
X159272Y92521D01*
X159349Y92516D01*
X159436Y92511D01*
X159477D01*
X159522Y92516D01*
X159581D01*
X159650Y92525D01*
X159718Y92534D01*
X159786Y92543D01*
X159854Y92562D01*
X159863Y92566D01*
X159882Y92571D01*
X159914Y92584D01*
X159955Y92598D01*
X160000Y92621D01*
X160046Y92648D01*
X160096Y92680D01*
X160141Y92716D01*
X160146Y92721D01*
X160159Y92734D01*
X160182Y92762D01*
X160209Y92794D01*
X160241Y92835D01*
X160278Y92880D01*
X160314Y92935D01*
X160346Y92998D01*
X160350Y93007D01*
X160360Y93030D01*
X160378Y93067D01*
X160400Y93117D01*
X160423Y93176D01*
X160455Y93249D01*
X160482Y93331D01*
X160514Y93422D01*
Y93426D01*
X160519Y93431D01*
X160523Y93444D01*
X160528Y93463D01*
X160541Y93508D01*
X160560Y93567D01*
X160582Y93635D01*
X160601Y93704D01*
X160619Y93776D01*
X160633Y93845D01*
Y93854D01*
X160637Y93872D01*
X160642Y93904D01*
Y93945D01*
Y93990D01*
Y94036D01*
X160633Y94081D01*
X160619Y94122D01*
Y94127D01*
X160610Y94140D01*
X160596Y94159D01*
X160578Y94181D01*
X160555Y94209D01*
X160523Y94236D01*
X160482Y94259D01*
X160437Y94282D01*
X160432Y94286D01*
X160414Y94291D01*
X160382Y94300D01*
X160341Y94309D01*
X160287Y94318D01*
X160218Y94322D01*
X160141Y94332D01*
D02*
G37*
G36*
X165301Y94304D02*
X164605D01*
X164568Y94300D01*
X164527Y94291D01*
X164482Y94282D01*
X164436Y94263D01*
X164386Y94240D01*
X164341Y94209D01*
X164336Y94204D01*
X164322Y94191D01*
X164304Y94172D01*
X164277Y94140D01*
X164250Y94104D01*
X164222Y94059D01*
X164195Y94004D01*
X164172Y93945D01*
X164168Y93936D01*
X164163Y93918D01*
X164154Y93881D01*
X164150Y93845D01*
X164145Y93804D01*
Y93758D01*
X164150Y93717D01*
X164168Y93685D01*
X164172Y93681D01*
X164181Y93672D01*
X164195Y93663D01*
X164218Y93649D01*
X164245Y93631D01*
X164282Y93622D01*
X164322Y93613D01*
X164373Y93608D01*
X165596D01*
Y93613D01*
X165601Y93617D01*
X165606Y93644D01*
X165619Y93685D01*
X165628Y93735D01*
X165642Y93790D01*
X165651Y93849D01*
X165660Y93908D01*
X165665Y93963D01*
Y93967D01*
Y93986D01*
Y94008D01*
Y94040D01*
X165656Y94113D01*
X165642Y94145D01*
X165628Y94177D01*
Y94181D01*
X165619Y94191D01*
X165592Y94218D01*
X165574Y94236D01*
X165551Y94250D01*
X165519Y94268D01*
X165487Y94277D01*
X165483D01*
X165469Y94282D01*
X165451Y94286D01*
X165424Y94291D01*
X165387Y94295D01*
X165346Y94300D01*
X165301Y94304D01*
D02*
G37*
G36*
X151350Y93281D02*
X150113D01*
Y93276D01*
X150108Y93271D01*
X150104Y93244D01*
X150090Y93203D01*
X150076Y93153D01*
X150063Y93094D01*
X150049Y93030D01*
X150040Y92971D01*
X150031Y92912D01*
Y92907D01*
Y92889D01*
Y92862D01*
Y92830D01*
X150040Y92757D01*
X150049Y92721D01*
X150063Y92684D01*
X150067Y92680D01*
X150072Y92671D01*
X150081Y92657D01*
X150099Y92639D01*
X150117Y92621D01*
X150140Y92602D01*
X150172Y92584D01*
X150204Y92571D01*
X150208D01*
X150222Y92566D01*
X150245Y92562D01*
X150272Y92557D01*
X150309Y92553D01*
X150349Y92548D01*
X150395Y92543D01*
X151096D01*
X151128Y92548D01*
X151169Y92557D01*
X151214Y92566D01*
X151264Y92584D01*
X151314Y92612D01*
X151360Y92643D01*
X151364Y92648D01*
X151378Y92662D01*
X151400Y92684D01*
X151428Y92721D01*
X151455Y92762D01*
X151487Y92812D01*
X151514Y92871D01*
X151542Y92935D01*
X151546Y92944D01*
X151551Y92967D01*
X151560Y92998D01*
X151569Y93035D01*
X151573Y93080D01*
Y93121D01*
X151564Y93162D01*
X151551Y93199D01*
X151546Y93203D01*
X151542Y93212D01*
X151528Y93226D01*
X151505Y93239D01*
X151478Y93253D01*
X151442Y93267D01*
X151400Y93276D01*
X151350Y93281D01*
D02*
G37*
G36*
X157978Y96649D02*
X157182D01*
X157159Y96644D01*
X157105Y96635D01*
X157082Y96626D01*
X157059Y96612D01*
X157050Y96603D01*
X157032Y96580D01*
X157018Y96562D01*
X157004Y96539D01*
X156991Y96512D01*
X156977Y96480D01*
Y96476D01*
X156973Y96462D01*
X156968Y96449D01*
X156964Y96426D01*
X156954Y96380D01*
X156959Y96358D01*
X156964Y96339D01*
X156968Y96335D01*
X156977Y96326D01*
X156991Y96321D01*
X157009Y96312D01*
X157032Y96303D01*
X157059Y96298D01*
X157860D01*
X157978Y96649D01*
D02*
G37*
G36*
X118293Y103930D02*
D01*
D01*
D01*
D01*
D02*
G37*
%LPD*%
D10*
X185787Y119882D02*
D03*
X185787Y128882D02*
D03*
X90315Y68898D02*
D03*
X90315Y59898D02*
D03*
X137264Y98228D02*
D03*
X137264Y89228D02*
D03*
X26400Y119300D02*
D03*
X26400Y128300D02*
D03*
X50200Y124200D02*
D03*
Y133200D02*
D03*
X159000Y124400D02*
D03*
Y133400D02*
D03*
X140905Y67224D02*
D03*
Y58224D02*
D03*
D11*
X189500Y228500D02*
D03*
Y192949D02*
D03*
X21000Y228500D02*
D03*
Y192949D02*
D03*
D12*
X63642Y70276D02*
D03*
X72642D02*
D03*
X106205Y47835D02*
D03*
X97205D02*
D03*
X65555Y49705D02*
D03*
X56555D02*
D03*
X35000Y88287D02*
D03*
X44000Y88287D02*
D03*
X35941Y73622D02*
D03*
X44941Y73622D02*
D03*
X63740Y92224D02*
D03*
X72740Y92224D02*
D03*
X63598Y81299D02*
D03*
X72598D02*
D03*
X106303Y38780D02*
D03*
X97303D02*
D03*
X106303Y29823D02*
D03*
X97303D02*
D03*
X106358Y20881D02*
D03*
X97358Y20881D02*
D03*
X101600Y140000D02*
D03*
X110600Y140000D02*
D03*
X35000Y20441D02*
D03*
X44000D02*
D03*
X159354Y58071D02*
D03*
X150354Y58071D02*
D03*
X156111Y46949D02*
D03*
X147111Y46949D02*
D03*
X147117Y37992D02*
D03*
X156117Y37992D02*
D03*
X147117Y29035D02*
D03*
X156117Y29035D02*
D03*
X175161Y20768D02*
D03*
X166161Y20768D02*
D03*
X175206Y30020D02*
D03*
X166206D02*
D03*
X175299Y39567D02*
D03*
X166299D02*
D03*
X34902Y29429D02*
D03*
X43902D02*
D03*
X34902Y59252D02*
D03*
X43902D02*
D03*
X34902Y38484D02*
D03*
X43902D02*
D03*
X77595Y40764D02*
D03*
X68595Y40764D02*
D03*
X34902Y49705D02*
D03*
X43902Y49705D02*
D03*
X44000Y97342D02*
D03*
X35000D02*
D03*
X141398Y76673D02*
D03*
X150398Y76673D02*
D03*
X150311Y67126D02*
D03*
X159311Y67126D02*
D03*
X147119Y19980D02*
D03*
X156119Y19980D02*
D03*
D13*
X121122Y75689D02*
D03*
X114823Y75689D02*
D03*
D14*
X145630Y178543D02*
D03*
X145630Y193307D02*
D03*
X101929Y178740D02*
D03*
Y193504D02*
D03*
X59114Y178740D02*
D03*
Y193504D02*
D03*
D15*
X17402Y168860D02*
D03*
X32402D02*
D03*
X32402Y145923D02*
D03*
X27402Y145925D02*
D03*
X22402Y145925D02*
D03*
X17402D02*
D03*
X63779Y145374D02*
D03*
X48779Y145374D02*
D03*
Y168311D02*
D03*
X53780Y168309D02*
D03*
X58780Y168309D02*
D03*
X63779D02*
D03*
X98090Y145471D02*
D03*
X83091Y145470D02*
D03*
Y168408D02*
D03*
X88090Y168406D02*
D03*
X93090Y168406D02*
D03*
X98090D02*
D03*
X193957Y145667D02*
D03*
X178957Y145667D02*
D03*
Y168604D02*
D03*
X183957Y168602D02*
D03*
X188957Y168602D02*
D03*
X193957D02*
D03*
X147008Y168604D02*
D03*
X162008Y168604D02*
D03*
Y145667D02*
D03*
X157008Y145669D02*
D03*
X152008Y145669D02*
D03*
X147008D02*
D03*
X114626Y168506D02*
D03*
X129626Y168506D02*
D03*
Y145569D02*
D03*
X124626Y145571D02*
D03*
X119626Y145571D02*
D03*
X114626D02*
D03*
D16*
X24882Y160591D02*
D03*
X56299Y153644D02*
D03*
X90610Y153740D02*
D03*
X186476Y153937D02*
D03*
X154488Y160335D02*
D03*
X122106Y160236D02*
D03*
D17*
X15728Y155078D02*
D03*
X34035D02*
D03*
X65453Y159156D02*
D03*
X47146D02*
D03*
X99764Y159252D02*
D03*
X81457D02*
D03*
X195630Y159449D02*
D03*
X177323D02*
D03*
X145335Y154823D02*
D03*
X163642D02*
D03*
X112953Y154724D02*
D03*
X131260D02*
D03*
D18*
X127864Y110636D02*
D03*
X121500Y117000D02*
D03*
X144364Y130636D02*
D03*
X138000Y137000D02*
D03*
D19*
X74500Y128200D02*
D03*
X80864Y134564D02*
D03*
D20*
X103896Y102869D02*
D03*
D21*
X118651Y100642D02*
D03*
X117259Y99250D02*
D03*
X115867Y97858D02*
D03*
X114475Y96466D02*
D03*
X113083Y95074D02*
D03*
X111691Y93682D02*
D03*
X110299Y92290D02*
D03*
X108907Y90898D02*
D03*
X107515Y89506D02*
D03*
X106123Y88114D02*
D03*
X89141Y105096D02*
D03*
X90533Y106488D02*
D03*
X91925Y107880D02*
D03*
X93317Y109272D02*
D03*
X94709Y110664D02*
D03*
X96101Y112056D02*
D03*
X97493Y113448D02*
D03*
X98885Y114840D02*
D03*
X100277Y116232D02*
D03*
X101669Y117624D02*
D03*
D22*
X101669Y88114D02*
D03*
X100277Y89506D02*
D03*
X98885Y90898D02*
D03*
X97493Y92290D02*
D03*
X96101Y93682D02*
D03*
X94709Y95074D02*
D03*
X93317Y96466D02*
D03*
X91925Y97858D02*
D03*
X90533Y99250D02*
D03*
X89141Y100642D02*
D03*
X106123Y117624D02*
D03*
X107515Y116232D02*
D03*
X108907Y114840D02*
D03*
X110299Y113448D02*
D03*
X111691Y112056D02*
D03*
X113083Y110664D02*
D03*
X114475Y109272D02*
D03*
X115867Y107880D02*
D03*
X117259Y106488D02*
D03*
X118651Y105096D02*
D03*
D23*
X120433Y57966D02*
D03*
Y70866D02*
D03*
D24*
X112114Y64632D02*
D03*
X100303D02*
D03*
D25*
X55000Y33100D02*
D03*
X55000Y28100D02*
D03*
Y23100D02*
D03*
X55000Y18100D02*
D03*
X77047Y33100D02*
D03*
Y28100D02*
D03*
Y23100D02*
D03*
Y18100D02*
D03*
D26*
X137854Y20276D02*
D03*
Y25276D02*
D03*
X137854Y30276D02*
D03*
X137854Y35276D02*
D03*
X137854Y40276D02*
D03*
X137854Y45276D02*
D03*
X137854Y50276D02*
D03*
X116595Y20276D02*
D03*
Y25276D02*
D03*
X116595Y30276D02*
D03*
X116595Y35276D02*
D03*
Y40276D02*
D03*
Y45276D02*
D03*
Y50276D02*
D03*
D27*
X184900Y26000D02*
Y27100D01*
X182000Y30000D02*
X184900Y27100D01*
X182000Y30000D02*
Y32000D01*
X174666Y29724D02*
X178898D01*
X178862Y35138D02*
X182000Y32000D01*
X170728Y35138D02*
X178862D01*
X181631Y19269D02*
X184900Y16000D01*
X181631Y19269D02*
Y22168D01*
X178405Y25394D02*
X181631Y22168D01*
X189823Y13681D02*
Y31077D01*
X187165Y11024D02*
X189823Y13681D01*
X175705Y11024D02*
X187165D01*
X184900Y36000D02*
X189823Y31077D01*
X170531Y25394D02*
X178405D01*
X165905Y30020D02*
X170531Y25394D01*
X165850Y33366D02*
X165850Y30020D01*
Y29135D02*
Y30020D01*
X166299Y39567D02*
X170728Y35138D01*
X165961Y20768D02*
X175705Y11024D01*
X171811Y56693D02*
Y82480D01*
X169744Y84547D02*
X171811Y82480D01*
X164724Y84547D02*
X169744D01*
X174272Y64173D02*
Y84547D01*
X171713Y87106D02*
X174272Y84547D01*
X167382Y87106D02*
X171713D01*
X176535Y72047D02*
Y86221D01*
X173386Y89370D02*
X176535Y86221D01*
X170039Y89370D02*
X173386D01*
X178701Y80020D02*
Y88090D01*
X175157Y91634D02*
X178701Y88090D01*
X172402Y91634D02*
X175157D01*
X174665Y93898D02*
X177002D01*
X184900Y86000D01*
X123189Y46063D02*
X123779Y45472D01*
Y36516D02*
Y45472D01*
X122539Y35276D02*
X123779Y36516D01*
X129095Y42595D02*
Y48031D01*
X125748Y39248D02*
X129095Y42595D01*
X125748Y28543D02*
Y39248D01*
X137854Y16732D02*
X137854Y16732D01*
X159311Y58114D02*
Y67126D01*
Y58114D02*
X159354Y58071D01*
X35197Y25886D02*
Y29134D01*
X34902Y29429D02*
X35197Y29134D01*
X34114Y37697D02*
X34902Y38484D01*
X24900Y56000D02*
X28250Y59350D01*
X34071Y71752D02*
X35941Y73622D01*
X24900Y36000D02*
X31274Y29626D01*
X34244D01*
X34902Y30283D01*
X24900Y46000D02*
X30676Y40224D01*
X36236D01*
X24900Y66000D02*
X30652Y71752D01*
X34071D01*
X24900Y76000D02*
Y77794D01*
X33622Y86516D01*
X28250Y59350D02*
X33917D01*
X35941Y73622D02*
X37362Y75043D01*
Y76968D01*
X37264Y61614D02*
Y62402D01*
X34902Y59252D02*
X37264Y61614D01*
X34114Y37697D02*
X35197Y36614D01*
Y34744D02*
Y36614D01*
X14900Y26000D02*
X19744Y21156D01*
Y12500D02*
Y21156D01*
X137854Y16732D02*
Y20276D01*
X106457Y35335D02*
Y38724D01*
X106303Y38780D02*
X106402D01*
X106303Y38878D02*
X106402Y38780D01*
X106457Y38724D01*
X106752Y20487D02*
X116728D01*
X137776Y40354D02*
X137854Y40276D01*
X137854Y45276D02*
X145138D01*
X146811Y46949D01*
X114900Y9329D02*
Y11000D01*
X97358Y39665D02*
X97402Y39621D01*
X116595Y45276D02*
X118760D01*
X121614Y48130D02*
X125059D01*
X118760Y45276D02*
X121614Y48130D01*
X126634Y45472D02*
Y46555D01*
X125059Y48130D02*
X126634Y46555D01*
X91102Y29823D02*
X97303D01*
X96415Y20768D02*
X97413Y21766D01*
X98035Y38976D02*
X98188Y38823D01*
X97838Y38780D02*
X98035Y38976D01*
X91004Y38780D02*
X97838D01*
X91102Y20768D02*
X96415D01*
X97205Y44488D02*
Y47835D01*
X97303Y26476D02*
Y29823D01*
X106358Y25477D02*
Y28642D01*
Y43489D02*
Y46654D01*
X106358Y20881D02*
X106752Y20487D01*
X106161Y17323D02*
Y19897D01*
X106752Y20487D01*
X116595Y25276D02*
X121890D01*
X122795Y26181D01*
Y32087D01*
X88740Y12598D02*
Y27461D01*
X91102Y29823D01*
X88740Y12598D02*
X95433Y5906D01*
X111476D01*
X114900Y9329D01*
X85689Y11614D02*
X93957Y3347D01*
X134900Y11000D02*
X142553Y3347D01*
X158819D01*
X162953Y7480D01*
X93957Y3347D02*
X117246D01*
X124900Y11000D01*
X111811Y30276D02*
X116595D01*
X111083Y31004D02*
X111811Y30276D01*
X106402Y38780D02*
X110394D01*
X111083Y38091D01*
Y31004D02*
Y38091D01*
X137854Y30276D02*
X140177D01*
X143268Y33366D01*
X137854Y25276D02*
X142657D01*
X125256Y51870D02*
X129095Y48031D01*
X116595Y50276D02*
X119331D01*
X120925Y51870D01*
X125256D01*
X133110Y50276D02*
X137854D01*
X116595Y35276D02*
X122539D01*
X125650Y28445D02*
X125748Y28543D01*
X85689Y11614D02*
Y44882D01*
X88642Y47835D01*
X97205D01*
X175256Y39076D02*
X175299Y39032D01*
X162953Y7480D02*
Y13287D01*
X155374Y16634D02*
Y20865D01*
X162953Y13287D01*
X68595Y40764D02*
X71024Y38335D01*
Y27756D02*
X72106Y26673D01*
X71024Y27756D02*
Y38335D01*
X74321Y28100D02*
X77047D01*
X72106Y26673D02*
X72895D01*
X74321Y28100D01*
X110912Y42789D02*
X113347Y40354D01*
X115709D01*
X176732Y96000D02*
X184900D01*
X182583Y66000D02*
X184900D01*
X182445Y56000D02*
X184900D01*
X182504Y46000D02*
X184900D01*
X182720Y76000D02*
X184900D01*
X171811Y56693D02*
X182504Y46000D01*
X174272Y64173D02*
X182445Y56000D01*
X178701Y80020D02*
X182720Y76000D01*
X176535Y72047D02*
X182583Y66000D01*
X43957Y20398D02*
X44000Y20441D01*
X43957Y29287D02*
X46319Y26925D01*
Y25787D02*
Y26925D01*
X46417Y16732D02*
Y17937D01*
X43957Y20398D02*
X46417Y17937D01*
X44098Y59055D02*
X51634D01*
X43902Y59252D02*
X44098Y59055D01*
X56260Y73622D02*
X56358Y73721D01*
X44941Y73622D02*
X56260D01*
X148878Y15536D02*
Y17027D01*
X44000Y88287D02*
X48976D01*
X137264Y98228D02*
Y102264D01*
X135541Y103986D02*
X137264Y102264D01*
X128258Y103986D02*
X135541D01*
X132878Y89228D02*
X137264D01*
X19744Y12500D02*
X21614Y10630D01*
X21713Y10728D01*
X40413D01*
X43902Y38484D02*
X57835D01*
X48976Y88287D02*
X50748Y86516D01*
X106123Y88114D02*
X107736Y86501D01*
Y81791D02*
Y86501D01*
X98386Y79134D02*
X100059Y80807D01*
X106752D01*
X107736Y81791D01*
X100157Y77165D02*
X101339Y78347D01*
X102591Y75290D02*
X103384Y76083D01*
X110000D01*
X112854Y78937D01*
Y86951D01*
X108907Y90898D02*
X112854Y86951D01*
X107515Y89506D02*
X110098Y86923D01*
X101339Y78347D02*
X108622D01*
X110098Y79823D01*
Y86923D01*
X94449Y80894D02*
X101669Y88114D01*
X93349Y82579D02*
X100277Y89506D01*
X92928Y84941D02*
X98885Y90898D01*
X111691Y93682D02*
X113445Y91928D01*
Y89665D02*
Y91928D01*
X64921Y92323D02*
X65020Y92224D01*
X64921Y92323D02*
Y96752D01*
X90205Y96138D02*
X91925Y97858D01*
X91004Y84941D02*
X92928D01*
X92579Y82579D02*
X93349D01*
X94449Y80413D02*
Y80894D01*
X113083Y95074D02*
X118300Y89900D01*
X95315Y92992D02*
X96053Y93730D01*
X99370Y97047D01*
X106982Y95607D02*
X110299Y92290D01*
X90533Y106488D02*
X93850Y103171D01*
X100277Y116232D02*
X102729Y113779D01*
X103898D01*
X73823Y70276D02*
X78799D01*
X84705Y100689D02*
Y100984D01*
X93268Y117673D02*
Y117717D01*
Y117673D02*
X97493Y113448D01*
X92153Y110436D02*
X93317Y109272D01*
X50748Y86516D02*
X81063D01*
X85590Y81988D01*
X89076Y97793D02*
X90533Y99250D01*
X84705Y100689D02*
X85946Y99448D01*
X87947D01*
X89141Y100642D01*
X75510Y97793D02*
X89076D01*
X87362Y79626D02*
X88445Y80709D01*
X87067Y79626D02*
X87362D01*
X72598Y77854D02*
Y81299D01*
Y77854D02*
X72598Y77854D01*
X72697Y89173D02*
Y92181D01*
X91859Y92224D02*
X94709Y95074D01*
X84508Y92421D02*
X87756Y89173D01*
X94376D01*
X97493Y92290D01*
X86777Y94483D02*
X89035Y92224D01*
X91859D01*
X118651Y100642D02*
X119784Y99508D01*
X72697Y92181D02*
X72740Y92224D01*
Y95024D01*
X75510Y97793D01*
X115610Y75984D02*
Y87500D01*
X113445Y89665D02*
X115610Y87500D01*
X88445Y80709D02*
Y84055D01*
X82047Y90453D02*
X88445Y84055D01*
X82047Y90453D02*
Y92913D01*
X83617Y94483D01*
X86777D01*
X79783Y92323D02*
Y94095D01*
X81827Y96138D01*
X90205D01*
X151405Y77681D02*
X154657D01*
X150398Y76673D02*
X151405Y77681D01*
X107515Y116232D02*
X108679Y117396D01*
Y120219D01*
X108907Y114840D02*
X110886Y116819D01*
X115867Y107880D02*
X117355Y109369D01*
X122875D01*
X128258Y103986D01*
X118423Y107652D02*
X120655D01*
X117259Y106488D02*
X118423Y107652D01*
X118651Y103849D02*
Y105096D01*
Y103849D02*
X120335Y102165D01*
X131500Y90606D02*
X132878Y89228D01*
X131500Y90606D02*
Y96807D01*
X110299Y113448D02*
X113100Y116249D01*
X131063Y28248D02*
X132146Y27165D01*
X131063Y28248D02*
Y48228D01*
X133110Y50276D01*
X133819Y35335D02*
X137756D01*
X133819Y40354D02*
X137776D01*
X137756Y35335D02*
X137776Y35354D01*
X146122Y19783D02*
X148878Y17027D01*
X175256Y39076D02*
Y43799D01*
X174961Y16535D02*
Y20768D01*
X174371Y30020D02*
X174666Y29724D01*
X116673Y40354D02*
X121221D01*
X116595Y40276D02*
X116673Y40354D01*
X114504Y109243D02*
X116661Y111400D01*
X127000D01*
X128200Y110200D01*
X110886Y116819D02*
Y122786D01*
X35000Y88287D02*
X36600Y89887D01*
Y92000D01*
X120655Y107652D02*
X131500Y96807D01*
X125847Y68110D02*
X127900Y70164D01*
X115867Y97858D02*
X115942D01*
X117259Y99250D02*
X120808Y95700D01*
X123500D01*
X120600Y93200D02*
X120700D01*
X115942Y97858D02*
X120600Y93200D01*
X119784Y99508D02*
X124492D01*
X127900Y96100D01*
Y70164D02*
Y96100D01*
X90533Y106488D02*
X91925Y107880D01*
Y107880D01*
X84215Y110436D02*
X92153D01*
X107500Y121398D02*
X108679Y120219D01*
X110886Y122786D02*
X115100Y127000D01*
X125100D01*
X135600Y116500D01*
X165500D01*
X168000Y119000D01*
Y150464D01*
X163642Y154823D02*
X168000Y150464D01*
X78780Y105000D02*
X84215Y110436D01*
X35413Y105000D02*
X78780D01*
X27500Y112913D02*
X35413Y105000D01*
X27500Y112913D02*
Y118200D01*
X26400Y119300D02*
X27500Y118200D01*
X50200Y124200D02*
X51500Y122900D01*
X85000Y120000D02*
X89081Y115919D01*
X51500Y121500D02*
Y122900D01*
Y121500D02*
X53000Y120000D01*
X85000D01*
X75700Y127000D02*
X90600D01*
X96200Y117525D02*
X98885Y114840D01*
X96200Y117525D02*
Y121400D01*
X90600Y127000D02*
X96200Y121400D01*
X141228Y127500D02*
X144364Y130636D01*
X107500Y125000D02*
X112500Y130000D01*
X107500Y121398D02*
Y125000D01*
X112500Y130000D02*
X127000D01*
X136000Y121000D01*
X183782Y119882D02*
X185787D01*
X100000Y119292D02*
X101669Y117624D01*
X100000Y119292D02*
Y129000D01*
X118500Y123500D02*
X123500D01*
X113100Y116249D02*
Y118100D01*
X118500Y123500D01*
X123500D02*
X138500Y108500D01*
X172400D01*
X183782Y119882D01*
X100000Y129000D02*
X105000Y134000D01*
X131000D01*
X137500Y127500D01*
X141228D01*
X146900Y38209D02*
X147117Y37992D01*
X143268Y33366D02*
X145966D01*
X147117Y34517D01*
Y37992D01*
Y29035D02*
Y29735D01*
X142657Y25276D02*
X147117Y29735D01*
X147100Y25400D02*
X147117Y25417D01*
Y29035D01*
X146900Y38209D02*
X147100Y38409D01*
Y41700D01*
X155600Y121000D02*
X159000Y124400D01*
X136000Y121000D02*
X155600D01*
D28*
X145728Y58169D02*
X145827Y58071D01*
X90356Y68856D02*
X91000D01*
X112114Y64632D02*
Y69980D01*
X120335Y58064D02*
Y61516D01*
X90417Y59941D02*
X90681Y60205D01*
X86476Y59941D02*
X90417D01*
X155417Y29035D02*
X155472Y29090D01*
X155811Y46949D02*
X155811Y46949D01*
X160591D01*
X112114Y69980D02*
X113000Y70866D01*
X145827Y58071D02*
X150354D01*
X140905Y58224D02*
X145673D01*
X145728Y58169D01*
X150213Y67224D02*
X150311Y67126D01*
X64780Y70319D02*
X64823Y70276D01*
X63642Y65453D02*
Y70276D01*
X63598Y70319D02*
Y81299D01*
X121122Y71555D02*
Y76500D01*
X120433Y70866D02*
X121122Y71555D01*
X136799Y76650D02*
X141374D01*
X141398Y76673D01*
X90398Y68898D02*
X94842D01*
X140905Y67224D02*
X150213D01*
X65555Y49705D02*
X65654Y49606D01*
X43902Y49705D02*
X43957Y49650D01*
X112210Y111162D02*
X119048Y118000D01*
X121000D01*
D29*
X91000Y68856D02*
X91053Y68909D01*
X97306D01*
D30*
X120335Y58064D02*
X120433Y57966D01*
X43343Y98000D02*
X44000Y97342D01*
X43343Y98000D02*
Y98658D01*
X42000Y99000D02*
Y101000D01*
X32402Y131260D02*
Y145923D01*
X29642Y128500D02*
X32402Y131260D01*
X26400Y128300D02*
X29442D01*
X47099Y133200D02*
X50200D01*
X41299Y139000D02*
X47099Y133200D01*
X41299Y139000D02*
Y164764D01*
X44449Y167913D01*
X48382D01*
X73484Y163984D02*
X77908Y168408D01*
X73484Y141944D02*
Y163984D01*
X77908Y168408D02*
X83091D01*
X73484Y141944D02*
X80864Y134564D01*
X74500Y128200D02*
X75700Y127000D01*
X180134Y128882D02*
X185787D01*
X172900Y136116D02*
Y164800D01*
X176704Y168604D01*
X178957D01*
X161400Y137000D02*
X162008Y137608D01*
Y145667D01*
X129626Y145569D02*
X137997Y137197D01*
X172900Y136116D02*
X180134Y128882D01*
X155417Y37992D02*
X155425Y38000D01*
X161100D01*
X155417Y29035D02*
X155453Y29000D01*
X161000D01*
D31*
X102365Y97979D02*
X103936Y99551D01*
X102361Y101125D02*
X103936Y99551D01*
X48382Y167913D02*
X48779Y168311D01*
X29442Y128300D02*
X29642Y128500D01*
D32*
X73553Y23100D02*
X77047D01*
X24900Y26000D02*
X30459Y20441D01*
X55000Y28100D02*
X59950D01*
X60000Y28150D01*
X55177Y50394D02*
X55472Y50689D01*
X14900Y56000D02*
X20408Y50492D01*
X30459Y20441D02*
X35000D01*
Y16929D02*
Y20441D01*
X77595Y40764D02*
X79571D01*
X82835Y37500D01*
X77421Y40938D02*
X77595Y40764D01*
X77421Y40938D02*
X77913Y41430D01*
Y45177D01*
X64900Y11000D02*
X70585Y5315D01*
X78701D01*
X82835Y9449D01*
Y37500D01*
X50600Y28100D02*
X55000D01*
X72402Y21949D02*
X73553Y23100D01*
X49173Y26673D02*
X50600Y28100D01*
X50256Y50098D02*
X55472D01*
X55177Y50394D02*
X55472Y50098D01*
X32638Y50000D02*
X33130Y50492D01*
X20408D02*
X33130D01*
X32638Y50000D02*
X34803Y47835D01*
Y46850D02*
Y47835D01*
Y46850D02*
Y53248D01*
X36083Y54528D01*
X52126D01*
X54127Y56529D01*
X56030D01*
X24900Y6000D02*
X46118D01*
X49173Y9055D01*
Y26673D01*
X93319Y114838D02*
X96101Y112056D01*
X86476Y106102D02*
X88135D01*
X89141Y105096D01*
X84705Y104331D02*
X86476Y106102D01*
X84705Y104232D02*
Y104331D01*
X90162Y114838D02*
X93319D01*
X89081Y115919D02*
X90162Y114838D01*
D33*
X55000Y23100D02*
X61151D01*
X62362Y24311D01*
D34*
X24900Y96000D02*
X26046Y97146D01*
X35000D01*
D35*
X104095Y120276D02*
X105942Y118429D01*
Y117442D02*
Y118429D01*
D36*
X111691Y112056D02*
X112410D01*
D37*
X121024Y77362D02*
Y87133D01*
X118300Y89900D02*
X121024Y87133D01*
D38*
X77047Y33100D02*
Y35807D01*
X77028Y35827D02*
X77047Y35807D01*
D39*
X42283Y45374D02*
Y47976D01*
X43957Y49650D01*
X65654Y49606D02*
X65760Y49500D01*
X69500D01*
D40*
X36378Y112795D02*
Y122146D01*
Y112795D02*
X40020Y109153D01*
X36378Y122146D02*
X37657Y123425D01*
X39429D01*
X40020Y109153D02*
X44954D01*
X92373Y113000D02*
X94709Y110664D01*
X67392Y113000D02*
X86500D01*
D41*
X97100Y140000D02*
X101600D01*
X97100D02*
Y147250D01*
X90610Y153740D02*
X97100Y147250D01*
D42*
X86500Y113000D02*
X92373D01*
X44954Y109153D02*
X48800Y113000D01*
X67392D01*
D43*
X194900Y6000D02*
D03*
Y16000D02*
D03*
Y26000D02*
D03*
Y36000D02*
D03*
Y46000D02*
D03*
Y56000D02*
D03*
Y66000D02*
D03*
Y76000D02*
D03*
Y86000D02*
D03*
Y96000D02*
D03*
X184900Y6000D02*
D03*
Y16000D02*
D03*
Y26000D02*
D03*
Y36000D02*
D03*
Y46000D02*
D03*
Y56000D02*
D03*
Y66000D02*
D03*
Y76000D02*
D03*
Y86000D02*
D03*
X24900Y6000D02*
D03*
Y16000D02*
D03*
Y26000D02*
D03*
Y36000D02*
D03*
Y46000D02*
D03*
Y56000D02*
D03*
Y66000D02*
D03*
Y76000D02*
D03*
Y86000D02*
D03*
Y96000D02*
D03*
X14900Y6000D02*
D03*
Y16000D02*
D03*
Y26000D02*
D03*
Y36000D02*
D03*
Y46000D02*
D03*
Y56000D02*
D03*
Y66000D02*
D03*
Y76000D02*
D03*
Y86000D02*
D03*
D44*
X184900Y96000D02*
D03*
X14900D02*
D03*
D45*
X54900Y11000D02*
D03*
X104900D02*
D03*
D46*
X64900D02*
D03*
X74900D02*
D03*
X114900D02*
D03*
X124900Y11000D02*
D03*
X134900Y11000D02*
D03*
X144900D02*
D03*
X154900D02*
D03*
D47*
X154488Y222441D02*
D03*
X110394Y222342D02*
D03*
D48*
X134803Y222441D02*
D03*
X71024Y222342D02*
D03*
X90709D02*
D03*
D49*
X100000Y171500D02*
D03*
X122957Y175252D02*
D03*
X119020D02*
D03*
X115083D02*
D03*
X111146D02*
D03*
X93429Y179190D02*
D03*
X91461Y175252D02*
D03*
X44217Y183126D02*
D03*
X40280D02*
D03*
X38311Y179190D02*
D03*
X36343Y183126D02*
D03*
X34374Y179190D02*
D03*
X32406Y175252D02*
D03*
X28469D02*
D03*
X93429Y214623D02*
D03*
Y206749D02*
D03*
X95398Y202812D02*
D03*
X93429Y198875D02*
D03*
X89492Y214623D02*
D03*
X91461Y210686D02*
D03*
X89492Y206749D02*
D03*
X91461Y202812D02*
D03*
X89492Y198875D02*
D03*
X91461Y194938D02*
D03*
X69807Y214623D02*
D03*
X71776Y210686D02*
D03*
X69807Y206749D02*
D03*
X71776Y202812D02*
D03*
X69807Y198875D02*
D03*
X65870Y214623D02*
D03*
X67839Y210686D02*
D03*
X65870Y206749D02*
D03*
X67839Y202812D02*
D03*
Y194938D02*
D03*
X63902Y218560D02*
D03*
X61933Y214623D02*
D03*
X63902Y210686D02*
D03*
X61933Y206749D02*
D03*
X63902Y202812D02*
D03*
X59965Y210686D02*
D03*
Y202812D02*
D03*
X136737Y198875D02*
D03*
X132799D02*
D03*
X134768Y194938D02*
D03*
X128863Y198875D02*
D03*
X130831Y194938D02*
D03*
X124925Y198875D02*
D03*
X126894Y194938D02*
D03*
X120989Y206749D02*
D03*
X122957Y202812D02*
D03*
X119020Y210686D02*
D03*
X117051Y206749D02*
D03*
X119020Y202812D02*
D03*
X113115Y214623D02*
D03*
X115083Y210686D02*
D03*
X109177Y214623D02*
D03*
X111146Y210686D02*
D03*
X176107Y179190D02*
D03*
X172170D02*
D03*
X170201Y183126D02*
D03*
X168233Y179190D02*
D03*
X166264Y183126D02*
D03*
X164296Y179190D02*
D03*
X162327Y183126D02*
D03*
X160359Y179190D02*
D03*
X162327Y175252D02*
D03*
X156422Y179190D02*
D03*
X158390Y175252D02*
D03*
X96087Y171500D02*
D03*
X92543D02*
D03*
X89000D02*
D03*
X26535Y168110D02*
D03*
Y164567D02*
D03*
X145728Y58169D02*
D03*
X120335Y61516D02*
D03*
X86476Y59941D02*
D03*
X160591Y46949D02*
D03*
X136516Y67618D02*
D03*
X136417Y58465D02*
D03*
X145236Y67224D02*
D03*
X94842Y70473D02*
D03*
X94842Y67323D02*
D03*
X63642Y65453D02*
D03*
X72795D02*
D03*
X100354Y53642D02*
D03*
X136799Y76650D02*
D03*
X154657Y77681D02*
D03*
X3701Y190551D02*
D03*
X7244D02*
D03*
X10787D02*
D03*
X14331D02*
D03*
Y194095D02*
D03*
X10787D02*
D03*
X7244D02*
D03*
X3701D02*
D03*
X14331Y197638D02*
D03*
X10787D02*
D03*
X7244D02*
D03*
X3701D02*
D03*
X14331Y201181D02*
D03*
X10787D02*
D03*
X7244D02*
D03*
X3701D02*
D03*
X17874Y204724D02*
D03*
X14331D02*
D03*
X10787D02*
D03*
X7244D02*
D03*
X28504D02*
D03*
X24961D02*
D03*
X21417D02*
D03*
X28504Y201181D02*
D03*
Y197638D02*
D03*
Y194095D02*
D03*
Y190551D02*
D03*
X206063Y197638D02*
D03*
X202520D02*
D03*
X198976D02*
D03*
X195433D02*
D03*
X206063Y194095D02*
D03*
X202520D02*
D03*
X198976D02*
D03*
X195433D02*
D03*
X206063Y190551D02*
D03*
X202520D02*
D03*
X198976D02*
D03*
X195433D02*
D03*
X202520Y204724D02*
D03*
X198976D02*
D03*
X195433D02*
D03*
X206063Y201181D02*
D03*
X202520D02*
D03*
X198976D02*
D03*
X195433D02*
D03*
X184803Y204724D02*
D03*
X188347D02*
D03*
X191890D02*
D03*
X184803Y190551D02*
D03*
Y194095D02*
D03*
Y197638D02*
D03*
Y201181D02*
D03*
X19449Y168110D02*
D03*
X22992D02*
D03*
X30079D02*
D03*
X19449Y164567D02*
D03*
X22992D02*
D03*
X30079D02*
D03*
X19449Y161024D02*
D03*
X22992D02*
D03*
X26535D02*
D03*
X30079D02*
D03*
Y157480D02*
D03*
X26535D02*
D03*
X22992D02*
D03*
X19449D02*
D03*
X50945Y157087D02*
D03*
X54488D02*
D03*
X58031D02*
D03*
X61575D02*
D03*
X50945Y153543D02*
D03*
X54488D02*
D03*
X58031D02*
D03*
X61575D02*
D03*
X50945Y150000D02*
D03*
X54488D02*
D03*
X58031D02*
D03*
X61575D02*
D03*
Y146457D02*
D03*
X58031D02*
D03*
X54488D02*
D03*
X50945D02*
D03*
X116693Y168110D02*
D03*
X120236D02*
D03*
X123779D02*
D03*
X127323D02*
D03*
X116693Y164567D02*
D03*
X120236D02*
D03*
X123779D02*
D03*
X127323D02*
D03*
X116693Y161024D02*
D03*
X120236D02*
D03*
X123779D02*
D03*
X127323D02*
D03*
Y157480D02*
D03*
X123779D02*
D03*
X120236D02*
D03*
X116693D02*
D03*
X149370Y168110D02*
D03*
X152913D02*
D03*
X156457D02*
D03*
X160000D02*
D03*
X149370Y164567D02*
D03*
X152913D02*
D03*
X156457D02*
D03*
X160000D02*
D03*
X149370Y161024D02*
D03*
X152913D02*
D03*
X156457D02*
D03*
X160000D02*
D03*
Y157480D02*
D03*
X156457D02*
D03*
X152913D02*
D03*
X149370D02*
D03*
X28330Y141000D02*
D03*
X24787D02*
D03*
X21243D02*
D03*
X17700D02*
D03*
X125930Y140300D02*
D03*
X122387D02*
D03*
X118843D02*
D03*
X115300D02*
D03*
X156430Y140700D02*
D03*
X152887D02*
D03*
X149343D02*
D03*
X145800D02*
D03*
X107524Y53689D02*
D03*
X167500Y62500D02*
D03*
X186230Y218100D02*
D03*
X182687D02*
D03*
X179143D02*
D03*
X175600D02*
D03*
X196787Y218000D02*
D03*
X193243D02*
D03*
X189700D02*
D03*
X182630Y222000D02*
D03*
X179087D02*
D03*
X175543D02*
D03*
X172000D02*
D03*
X182630Y226000D02*
D03*
X179087D02*
D03*
X175543D02*
D03*
X172000D02*
D03*
X182630Y230000D02*
D03*
X179087D02*
D03*
X175543D02*
D03*
X172000D02*
D03*
X182630Y234000D02*
D03*
X179087D02*
D03*
X175543D02*
D03*
X172000D02*
D03*
X196800Y221900D02*
D03*
Y226000D02*
D03*
Y230000D02*
D03*
Y234000D02*
D03*
X28013D02*
D03*
Y230000D02*
D03*
Y226000D02*
D03*
Y221900D02*
D03*
X13843Y234000D02*
D03*
Y230000D02*
D03*
Y226000D02*
D03*
Y222000D02*
D03*
X20913Y218000D02*
D03*
X24457D02*
D03*
X28000D02*
D03*
X13900Y218100D02*
D03*
X17443D02*
D03*
X31700Y234000D02*
D03*
X35243D02*
D03*
X38787D02*
D03*
X31700Y230000D02*
D03*
X35243D02*
D03*
X38787D02*
D03*
X31700Y226000D02*
D03*
X35243D02*
D03*
X38787D02*
D03*
X31700Y222000D02*
D03*
X35243D02*
D03*
X38787D02*
D03*
X35300Y218100D02*
D03*
X31600Y218000D02*
D03*
X94400Y188400D02*
D03*
Y182800D02*
D03*
X65087Y172300D02*
D03*
X61543D02*
D03*
X58000D02*
D03*
X54457D02*
D03*
X181400Y146800D02*
D03*
X184943D02*
D03*
X188487D02*
D03*
X192030D02*
D03*
Y150343D02*
D03*
X188487D02*
D03*
X184943D02*
D03*
X181400D02*
D03*
X192030Y153887D02*
D03*
X188487D02*
D03*
X184943D02*
D03*
X181400D02*
D03*
X192030Y157430D02*
D03*
X188487D02*
D03*
X184943D02*
D03*
X181400D02*
D03*
X66900Y188800D02*
D03*
Y183200D02*
D03*
X85100Y146370D02*
D03*
X88643D02*
D03*
X92187D02*
D03*
X95730D02*
D03*
Y149913D02*
D03*
X92187D02*
D03*
X88643D02*
D03*
X85100D02*
D03*
X95730Y153457D02*
D03*
X92187D02*
D03*
X88643D02*
D03*
X85100D02*
D03*
X95730Y157000D02*
D03*
X92187D02*
D03*
X88643D02*
D03*
X85100D02*
D03*
X62559Y40748D02*
D03*
X167500Y72600D02*
D03*
Y69200D02*
D03*
Y65900D02*
D03*
X181800Y174800D02*
D03*
X185343D02*
D03*
X188887D02*
D03*
X192430D02*
D03*
D50*
X97402Y34350D02*
D03*
X178898Y29724D02*
D03*
X137854Y16732D02*
D03*
X60000Y28150D02*
D03*
X72106Y26673D02*
D03*
X35000Y16929D02*
D03*
X35197Y25886D02*
D03*
X37362Y76968D02*
D03*
X37264Y62402D02*
D03*
X35197Y34744D02*
D03*
X106161Y17323D02*
D03*
X155374Y16634D02*
D03*
X106457Y35335D02*
D03*
X165905Y24114D02*
D03*
X165850Y33366D02*
D03*
X62362Y24311D02*
D03*
X166244Y42913D02*
D03*
X126634Y45472D02*
D03*
X122205Y20965D02*
D03*
X122795Y32087D02*
D03*
X123189Y46063D02*
D03*
X132146Y27165D02*
D03*
X91004Y38780D02*
D03*
X91102Y20768D02*
D03*
X97402Y16043D02*
D03*
X129488Y50886D02*
D03*
X160098Y42028D02*
D03*
X160230Y24672D02*
D03*
X97205Y44488D02*
D03*
X97303Y26476D02*
D03*
X106358Y25477D02*
D03*
X125650Y28445D02*
D03*
X175256Y43799D02*
D03*
X174961Y16535D02*
D03*
X72402Y21949D02*
D03*
X67087Y32776D02*
D03*
X110912Y42789D02*
D03*
X176732Y96000D02*
D03*
X174665Y93898D02*
D03*
X164724Y84547D02*
D03*
X167382Y87106D02*
D03*
X170039Y89370D02*
D03*
X172402Y91634D02*
D03*
X125847Y68110D02*
D03*
X120335Y102165D02*
D03*
X50256Y50098D02*
D03*
X46319Y25787D02*
D03*
X46417Y16732D02*
D03*
X51634Y59055D02*
D03*
X56358Y73721D02*
D03*
X32539Y93110D02*
D03*
X56030Y56529D02*
D03*
X148878Y15536D02*
D03*
X98386Y79134D02*
D03*
X102028Y75197D02*
D03*
X100157Y77165D02*
D03*
X91004Y84941D02*
D03*
X92579Y82579D02*
D03*
X94449Y80413D02*
D03*
X40413Y10728D02*
D03*
X34803Y46850D02*
D03*
X57835Y38484D02*
D03*
X99370Y97047D02*
D03*
X106982Y95607D02*
D03*
X93850Y103171D02*
D03*
X104095Y120276D02*
D03*
X103898Y113779D02*
D03*
X43071Y116043D02*
D03*
X78799Y70276D02*
D03*
X72697Y89173D02*
D03*
X84705Y100984D02*
D03*
X93268Y117717D02*
D03*
X64921Y96752D02*
D03*
X85590Y81988D02*
D03*
X79783Y92323D02*
D03*
X87067Y79626D02*
D03*
X84705Y104232D02*
D03*
X84508Y92421D02*
D03*
X72598Y77854D02*
D03*
X133819Y35335D02*
D03*
Y40354D02*
D03*
X77028Y35827D02*
D03*
X41890Y63779D02*
D03*
X41988Y78740D02*
D03*
X41398Y15945D02*
D03*
X41594Y24902D02*
D03*
X42283Y45374D02*
D03*
X128799Y37402D02*
D03*
X121221Y40354D02*
D03*
X131161Y23524D02*
D03*
X69500Y49500D02*
D03*
X39429Y123425D02*
D03*
X36600Y92000D02*
D03*
X41200Y93000D02*
D03*
X123500Y95700D02*
D03*
X120700Y93200D02*
D03*
X53500Y108700D02*
D03*
X57600Y108900D02*
D03*
X8996Y103328D02*
D03*
X31434Y44366D02*
D03*
Y68166D02*
D03*
X31534Y78834D02*
D03*
X49000Y93000D02*
D03*
X49640Y79500D02*
D03*
X49540Y66900D02*
D03*
X50179Y41784D02*
D03*
X174032Y102287D02*
D03*
X152000Y104700D02*
D03*
X145401Y102000D02*
D03*
X114048Y113000D02*
D03*
X115928Y114880D02*
D03*
X106358Y43489D02*
D03*
X75939Y100638D02*
D03*
X42000Y101000D02*
D03*
X200888Y103345D02*
D03*
X146000Y112000D02*
D03*
X161100Y38000D02*
D03*
X161000Y29000D02*
D03*
X147100Y25400D02*
D03*
Y41700D02*
D03*
D51*
X77913Y45177D02*
D03*
X97215Y102869D02*
D03*
X99442Y105096D02*
D03*
X101669Y107323D02*
D03*
X103896Y109550D02*
D03*
X99442Y100642D02*
D03*
X101669Y102869D02*
D03*
X103896Y105096D02*
D03*
X106123Y107323D02*
D03*
X101669Y98415D02*
D03*
X103896Y100642D02*
D03*
X108350Y105096D02*
D03*
X103896Y96188D02*
D03*
X106123Y98415D02*
D03*
X110577Y102869D02*
D03*
X108350Y100642D02*
D03*
X106123Y102869D02*
D03*
M02*
