G04 Layer_Physical_Order=4*
G04 Layer_Color=16711680*
%FSLAX25Y25*%
%MOIN*%
G70*
G01*
G75*
%ADD14R,0.06000X0.05000*%
%ADD25R,0.05000X0.06000*%
%ADD26R,0.02756X0.03150*%
%ADD27C,0.01155*%
%ADD28C,0.01000*%
%ADD29C,0.01116*%
%ADD30C,0.01100*%
%ADD31C,0.02000*%
%ADD33C,0.03000*%
%ADD34C,0.05000*%
%ADD35C,0.01800*%
%ADD36C,0.01575*%
%ADD42C,0.06000*%
%ADD43R,0.10827X0.10827*%
%ADD44C,0.10827*%
%ADD45R,0.04921X0.04921*%
%ADD46C,0.04921*%
%ADD47C,0.06890*%
%ADD48R,0.06890X0.06890*%
%ADD49C,0.01969*%
%ADD50C,0.02953*%
%ADD51C,0.01772*%
%ADD52R,0.06299X0.04724*%
G04:AMPARAMS|DCode=53|XSize=129.92mil|YSize=118.11mil|CornerRadius=5.91mil|HoleSize=0mil|Usage=FLASHONLY|Rotation=90.000|XOffset=0mil|YOffset=0mil|HoleType=Round|Shape=RoundedRectangle|*
%AMROUNDEDRECTD53*
21,1,0.12992,0.10630,0,0,90.0*
21,1,0.11811,0.11811,0,0,90.0*
1,1,0.01181,0.05315,0.05906*
1,1,0.01181,0.05315,-0.05906*
1,1,0.01181,-0.05315,-0.05906*
1,1,0.01181,-0.05315,0.05906*
%
%ADD53ROUNDEDRECTD53*%
%ADD54R,0.03600X0.03600*%
%ADD55R,0.03600X0.05000*%
%ADD56R,0.03740X0.09646*%
%ADD57R,0.03150X0.02756*%
%ADD58R,0.07087X0.02362*%
G04:AMPARAMS|DCode=59|XSize=157.48mil|YSize=157.48mil|CornerRadius=7.87mil|HoleSize=0mil|Usage=FLASHONLY|Rotation=225.000|XOffset=0mil|YOffset=0mil|HoleType=Round|Shape=RoundedRectangle|*
%AMROUNDEDRECTD59*
21,1,0.15748,0.14173,0,0,225.0*
21,1,0.14173,0.15748,0,0,225.0*
1,1,0.01575,-0.10022,0.00000*
1,1,0.01575,0.00000,0.10022*
1,1,0.01575,0.10022,0.00000*
1,1,0.01575,0.00000,-0.10022*
%
%ADD59ROUNDEDRECTD59*%
%ADD60C,0.05315*%
%ADD61C,0.03500*%
G36*
X48456Y39294D02*
X48457Y39263D01*
X48473Y39184D01*
X48492Y39117D01*
X48513Y39064D01*
X48537Y39025D01*
X47133D01*
X47156Y39064D01*
X47177Y39117D01*
X47196Y39184D01*
X47212Y39265D01*
X47226Y39360D01*
X47237Y39492D01*
X47255Y40289D01*
X47257Y40928D01*
X48412D01*
X48456Y39294D01*
D02*
G37*
G36*
X136899Y40857D02*
X136878Y40804D01*
X136859Y40737D01*
X136843Y40656D01*
X136829Y40562D01*
X136818Y40430D01*
X136800Y39632D01*
X136798Y38994D01*
X135643D01*
X135598Y40658D01*
X135582Y40737D01*
X135563Y40804D01*
X135542Y40857D01*
X135519Y40897D01*
X136922D01*
X136899Y40857D01*
D02*
G37*
G36*
X111800Y41033D02*
X111853Y41012D01*
X111920Y40993D01*
X112001Y40977D01*
X112096Y40963D01*
X112327Y40943D01*
X112608Y40936D01*
X113287Y40932D01*
Y39777D01*
X112533Y39770D01*
X112001Y39732D01*
X111920Y39716D01*
X111853Y39697D01*
X111800Y39676D01*
X111761Y39652D01*
Y41056D01*
X111800Y41033D01*
D02*
G37*
G36*
X68640Y44499D02*
X68593Y44411D01*
X68550Y44313D01*
X68514Y44205D01*
X68501Y44156D01*
X68484Y44048D01*
X68445Y43624D01*
X68415Y42728D01*
X68413Y42361D01*
X67413D01*
X67411Y42728D01*
X67319Y44181D01*
X67313Y44205D01*
X67276Y44313D01*
X67234Y44411D01*
X67187Y44499D01*
X67133Y44577D01*
X68693D01*
X68640Y44499D01*
D02*
G37*
G36*
X150073Y41142D02*
X149987Y41139D01*
X149898Y41124D01*
X149833Y41106D01*
X149730Y41055D01*
X149602Y40975D01*
X149456Y40870D01*
X149113Y40586D01*
X148700Y40203D01*
X148468Y39974D01*
X148307Y39813D01*
X147439Y40578D01*
X147646Y40785D01*
D01*
X147646Y40785D01*
X147847Y40987D01*
X147864Y40972D01*
X148322Y41363D01*
X148272Y41412D01*
X149250Y42282D01*
X150073Y41142D01*
D02*
G37*
G36*
X97079Y36114D02*
X97095Y36034D01*
X97114Y35967D01*
X97135Y35914D01*
X97159Y35875D01*
X95755D01*
X95778Y35914D01*
X95800Y35967D01*
X95818Y36034D01*
X95834Y36115D01*
X95848Y36210D01*
X95859Y36342D01*
X95877Y37139D01*
X95879Y37778D01*
X97034D01*
X97079Y36114D01*
D02*
G37*
G36*
X99503Y32403D02*
X99425Y32328D01*
X99356Y32268D01*
X99294Y32223D01*
X99241Y32192D01*
X99196Y32175D01*
X99160Y32173D01*
X99131Y32186D01*
X99111Y32213D01*
X99098Y32255D01*
X99094Y32311D01*
X97778Y32299D01*
X97780Y32303D01*
X97790Y32316D01*
X97837Y32366D01*
X98186Y32719D01*
X99503Y32403D01*
D02*
G37*
G36*
X123882Y29143D02*
X124630Y28336D01*
X123940Y27779D01*
X124004Y27710D01*
X123827Y27565D01*
X123825Y27560D01*
X123812Y27530D01*
X123796Y27505D01*
X123779Y27485D01*
X123770Y27519D01*
X122982Y26873D01*
X122209Y28049D01*
X122303Y28048D01*
X122381Y28056D01*
X122447Y28074D01*
X122566Y28126D01*
X122702Y28203D01*
X122852Y28304D01*
X123019Y28430D01*
X123400Y28758D01*
X123844Y29184D01*
X123849Y29178D01*
X123882Y29210D01*
X123882Y29143D01*
D02*
G37*
G36*
X113471Y34431D02*
X113476Y33349D01*
X113476Y33304D01*
X113516Y32611D01*
X113526Y32587D01*
X112124Y32665D01*
X112161Y32716D01*
X112193Y32778D01*
X112222Y32853D01*
X112226Y32868D01*
X112240Y32929D01*
X112260Y33060D01*
X112291Y33409D01*
X112315Y34146D01*
X112316Y34449D01*
X113471Y34431D01*
D02*
G37*
G36*
X88004Y35875D02*
X88024Y35129D01*
X88040Y35050D01*
X88059Y34983D01*
X88080Y34930D01*
X88103Y34891D01*
X86700D01*
X86723Y34930D01*
X86744Y34983D01*
X86763Y35050D01*
X86779Y35131D01*
X86793Y35226D01*
X86804Y35358D01*
X86822Y36155D01*
X86824Y36794D01*
X87979D01*
X88004Y35875D01*
D02*
G37*
G36*
X157986Y34686D02*
X156842Y33477D01*
X156797Y33410D01*
X156763Y33349D01*
X156740Y33296D01*
X156729Y33252D01*
X155736Y34244D01*
X155781Y34256D01*
X155833Y34278D01*
X155894Y34312D01*
X155962Y34358D01*
X156039Y34416D01*
X156140Y34501D01*
X156717Y35052D01*
X157170Y35502D01*
X157986Y34686D01*
D02*
G37*
G36*
X155808Y44186D02*
X156132Y43905D01*
X156201Y43860D01*
X156261Y43826D01*
X156314Y43803D01*
X156358Y43792D01*
X155366Y42799D01*
X155355Y42844D01*
X155332Y42896D01*
X155298Y42957D01*
X155252Y43025D01*
X155195Y43102D01*
X155045Y43280D01*
X154839Y43497D01*
X154359Y43981D01*
X155176Y44798D01*
X155808Y44186D01*
D02*
G37*
G36*
X39843Y50882D02*
X39606Y49497D01*
X39529Y49572D01*
X39444Y49640D01*
X39432Y49648D01*
X39398Y49668D01*
X39272Y49721D01*
X39119Y49767D01*
X38939Y49806D01*
X38730Y49837D01*
X38231Y49880D01*
X37622Y49894D01*
X37649Y50894D01*
X38534Y50852D01*
X38535Y50894D01*
X39843Y50882D01*
D02*
G37*
G36*
X113329Y50074D02*
X111823Y50086D01*
X111796Y50089D01*
X111766Y50098D01*
X111733Y50112D01*
X111696Y50131D01*
X111657Y50157D01*
X111615Y50187D01*
X111521Y50266D01*
X111415Y50367D01*
X112920Y50495D01*
X113329Y50074D01*
D02*
G37*
G36*
X46532Y58698D02*
X46627Y57284D01*
X46629Y57276D01*
X46659Y57196D01*
X46694Y57127D01*
X46732Y57069D01*
X45328D01*
X45367Y57127D01*
X45401Y57196D01*
X45431Y57276D01*
X45458Y57367D01*
X45478Y57463D01*
X45485Y57516D01*
X45519Y58128D01*
X45530Y59032D01*
X46530D01*
X46532Y58698D01*
D02*
G37*
G36*
X27942Y61822D02*
X27921Y61769D01*
X27902Y61702D01*
X27886Y61621D01*
X27872Y61526D01*
X27852Y61295D01*
X27841Y60844D01*
X26686D01*
X26685Y61008D01*
X26641Y61621D01*
X26625Y61702D01*
X26607Y61769D01*
X26586Y61822D01*
X26562Y61861D01*
X27966D01*
X27942Y61822D01*
D02*
G37*
G36*
X42257Y59834D02*
X42272Y59755D01*
X42291Y59688D01*
X42312Y59635D01*
X42336Y59596D01*
X40932D01*
X40956Y59635D01*
X40977Y59688D01*
X40995Y59755D01*
X41012Y59836D01*
X41025Y59931D01*
X41037Y60062D01*
X41054Y60860D01*
X41056Y61498D01*
X42211D01*
X42257Y59834D01*
D02*
G37*
G36*
X99601Y50359D02*
X99181Y49951D01*
X98128Y50507D01*
X98131Y50512D01*
X98142Y50526D01*
X98226Y50615D01*
X98536Y50928D01*
X99601Y50359D01*
D02*
G37*
G36*
X87825Y45361D02*
X87827Y45267D01*
X87843Y45188D01*
X87862Y45121D01*
X87883Y45068D01*
X87907Y45028D01*
X86503D01*
X86526Y45068D01*
X86548Y45121D01*
X86566Y45188D01*
X86582Y45269D01*
X86596Y45364D01*
X86607Y45496D01*
X86625Y46293D01*
X86627Y46931D01*
X87782D01*
X87825Y45361D01*
D02*
G37*
G36*
X117312Y44893D02*
X117291Y44840D01*
X117272Y44773D01*
X117256Y44692D01*
X117243Y44597D01*
X117223Y44366D01*
X117211Y43915D01*
X116056D01*
X116055Y44079D01*
X116012Y44692D01*
X115995Y44773D01*
X115977Y44840D01*
X115956Y44893D01*
X115932Y44932D01*
X117336D01*
X117312Y44893D01*
D02*
G37*
G36*
X108200Y45595D02*
X108245Y45576D01*
X108298Y45544D01*
X108360Y45497D01*
X108429Y45436D01*
X108507Y45361D01*
X107162Y45072D01*
X106754Y45493D01*
X108098Y45480D01*
X108102Y45531D01*
X108115Y45568D01*
X108135Y45591D01*
X108164Y45600D01*
X108200Y45595D01*
D02*
G37*
G36*
X25304Y49020D02*
X25384Y47659D01*
X25402Y47598D01*
X25432Y47518D01*
X25467Y47449D01*
X25505Y47391D01*
X24101D01*
X24140Y47449D01*
X24174Y47518D01*
X24204Y47598D01*
X24230Y47689D01*
X24245Y47757D01*
X24255Y47837D01*
X24282Y48213D01*
X24303Y49353D01*
X25303D01*
X25304Y49020D01*
D02*
G37*
G36*
X113836Y46733D02*
X113846Y46696D01*
X113867Y46643D01*
X113891Y46603D01*
X112487D01*
X112511Y46643D01*
X112532Y46696D01*
X112550Y46763D01*
X112567Y46844D01*
X112579Y46932D01*
X112600Y47365D01*
X112611Y48506D01*
X113767D01*
X113836Y46733D01*
D02*
G37*
G36*
X116229Y29123D02*
X116282Y29102D01*
X116349Y29083D01*
X116430Y29067D01*
X116525Y29054D01*
X116657Y29042D01*
X117455Y29024D01*
X118093Y29022D01*
Y27867D01*
X116429Y27822D01*
X116349Y27806D01*
X116282Y27788D01*
X116229Y27767D01*
X116190Y27743D01*
Y29147D01*
X116229Y29123D01*
D02*
G37*
G36*
X25600Y19353D02*
X25636Y18039D01*
X25646Y17698D01*
X25647Y17687D01*
X25664Y17603D01*
X25684Y17532D01*
X25706Y17474D01*
X25732Y17429D01*
X24330Y17508D01*
X24381Y17575D01*
X24427Y17652D01*
X24467Y17738D01*
X24499Y17824D01*
X24500Y17829D01*
X24527Y17975D01*
X24549Y18151D01*
X24582Y18595D01*
X24600Y19491D01*
X25600Y19353D01*
D02*
G37*
G36*
X145990Y17644D02*
X145993Y17532D01*
X145997Y17413D01*
X146012Y17334D01*
X146031Y17267D01*
X146052Y17213D01*
X146076Y17174D01*
X144672D01*
X144696Y17213D01*
X144717Y17267D01*
X144736Y17334D01*
X144752Y17414D01*
X144765Y17509D01*
X144777Y17641D01*
X144795Y18439D01*
X144797Y19077D01*
X145951D01*
X145990Y17644D01*
D02*
G37*
G36*
X97329Y19755D02*
X97161Y18910D01*
X97159Y18902D01*
X97329Y18869D01*
X97012Y17571D01*
X95786Y18039D01*
X95678Y18065D01*
X95772Y18143D01*
X95857Y18245D01*
X95931Y18373D01*
X95996Y18527D01*
X96050Y18706D01*
X96095Y18910D01*
X96130Y19139D01*
X96155Y19394D01*
X96175Y19980D01*
X97329Y19755D01*
D02*
G37*
G36*
X63036Y21321D02*
X63008Y21265D01*
X62983Y21198D01*
X62961Y21119D01*
X62943Y21028D01*
X62928Y20925D01*
X62908Y20685D01*
X62902Y20397D01*
X62149D01*
X62205Y20200D01*
Y19700D01*
X60998Y20700D01*
X61760Y20713D01*
X61888Y20722D01*
X61875Y20925D01*
X61860Y21028D01*
X61842Y21119D01*
X61820Y21198D01*
X61795Y21265D01*
X61767Y21321D01*
X61735Y21365D01*
X63068D01*
X63036Y21321D01*
D02*
G37*
G36*
X112883Y20385D02*
X112862Y20332D01*
X112843Y20265D01*
X112827Y20184D01*
X112813Y20089D01*
X112802Y19957D01*
X112784Y19160D01*
X112782Y18521D01*
X111627D01*
X111582Y20186D01*
X111566Y20265D01*
X111548Y20332D01*
X111526Y20385D01*
X111503Y20424D01*
X112907D01*
X112883Y20385D01*
D02*
G37*
G36*
X133786Y17504D02*
X133783Y17499D01*
X133771Y17485D01*
X133686Y17395D01*
X133378Y17084D01*
X132923Y18262D01*
X133343Y18670D01*
X133786Y17504D01*
D02*
G37*
G36*
X127854Y16732D02*
X127314Y16030D01*
X127275Y16054D01*
X127222Y16075D01*
X127155Y16094D01*
X127075Y16110D01*
X125411Y16155D01*
Y17310D01*
X126049Y17312D01*
X126847Y17330D01*
X126979Y17341D01*
X127074Y17355D01*
X127155Y17371D01*
X127222Y17389D01*
X127275Y17411D01*
X127314Y17434D01*
X127854Y16732D01*
D02*
G37*
G36*
X30993Y11407D02*
X31046Y11385D01*
X31113Y11367D01*
X31194Y11351D01*
X31289Y11337D01*
X31421Y11326D01*
X32218Y11308D01*
X32857Y11306D01*
Y10151D01*
X31192Y10106D01*
X31113Y10090D01*
X31046Y10071D01*
X30993Y10050D01*
X30954Y10026D01*
Y11430D01*
X30993Y11407D01*
D02*
G37*
G36*
X128434Y17411D02*
X128487Y17389D01*
X128554Y17371D01*
X128635Y17355D01*
X128730Y17341D01*
X128862Y17330D01*
X129659Y17312D01*
X130298Y17310D01*
Y16155D01*
X128633Y16110D01*
X128554Y16094D01*
X128487Y16075D01*
X128434Y16054D01*
X128395Y16030D01*
X127854Y16732D01*
X128395Y17434D01*
X128434Y17411D01*
D02*
G37*
G36*
X38553Y18052D02*
X37409Y16843D01*
X37364Y16776D01*
X37329Y16715D01*
X37307Y16662D01*
X37296Y16618D01*
X36303Y17611D01*
X36348Y17622D01*
X36400Y17644D01*
X36461Y17679D01*
X36529Y17724D01*
X36606Y17782D01*
X36707Y17867D01*
X37284Y18418D01*
X37737Y18868D01*
X38553Y18052D01*
D02*
G37*
G36*
X88023Y16854D02*
X88024Y16822D01*
X88040Y16743D01*
X88059Y16676D01*
X88080Y16623D01*
X88103Y16584D01*
X86700D01*
X86723Y16623D01*
X86744Y16676D01*
X86763Y16743D01*
X86779Y16824D01*
X86793Y16919D01*
X86804Y17051D01*
X86809Y17267D01*
X86822Y17848D01*
X86824Y18487D01*
X87979D01*
X88023Y16854D01*
D02*
G37*
G36*
X112840Y21681D02*
X112843Y21664D01*
X112862Y21597D01*
X112883Y21544D01*
X112907Y21505D01*
X111503D01*
X111526Y21544D01*
X111548Y21597D01*
X111566Y21664D01*
X111582Y21745D01*
X111596Y21840D01*
X111604Y21928D01*
X111618Y22268D01*
X111627Y23408D01*
X112782D01*
X112840Y21681D01*
D02*
G37*
G36*
X36898Y27181D02*
X36941Y26568D01*
X36957Y26487D01*
X36976Y26420D01*
X36997Y26367D01*
X37021Y26328D01*
X35617D01*
X35641Y26367D01*
X35662Y26420D01*
X35680Y26487D01*
X35697Y26568D01*
X35710Y26663D01*
X35730Y26894D01*
X35741Y27345D01*
X36896D01*
X36898Y27181D01*
D02*
G37*
G36*
X50114Y27271D02*
X50046Y27257D01*
X49973Y27233D01*
X49896Y27198D01*
X49837Y27162D01*
X49730Y27086D01*
X49468Y26872D01*
X49143Y26575D01*
X48754Y26196D01*
X48046Y26903D01*
X48246Y27106D01*
X49013Y27986D01*
X49048Y28045D01*
X49083Y28123D01*
X49108Y28196D01*
X49122Y28264D01*
X50114Y27271D01*
D02*
G37*
G36*
X25813Y26894D02*
X25820Y26665D01*
X25835Y26586D01*
X25854Y26519D01*
X25875Y26465D01*
X25899Y26426D01*
X24495D01*
X24519Y26465D01*
X24540Y26519D01*
X24558Y26586D01*
X24575Y26667D01*
X24588Y26761D01*
X24600Y26893D01*
X24617Y27691D01*
X24619Y28329D01*
X25774D01*
X25813Y26894D01*
D02*
G37*
G36*
X115109Y27743D02*
X115070Y27767D01*
X115017Y27788D01*
X114950Y27806D01*
X114869Y27823D01*
X114774Y27836D01*
X114642Y27848D01*
X113845Y27865D01*
X113206Y27867D01*
Y29022D01*
X113279Y29024D01*
X114871Y29068D01*
X114950Y29083D01*
X115017Y29102D01*
X115070Y29123D01*
X115109Y29147D01*
Y27743D01*
D02*
G37*
G36*
X87923Y27351D02*
X87926Y27255D01*
X87942Y27176D01*
X87960Y27109D01*
X87981Y27056D01*
X88005Y27017D01*
X86601D01*
X86625Y27056D01*
X86646Y27109D01*
X86665Y27176D01*
X86681Y27257D01*
X86695Y27352D01*
X86706Y27484D01*
X86724Y28281D01*
X86726Y28920D01*
X87881D01*
X87923Y27351D01*
D02*
G37*
G36*
X137002Y26903D02*
X137040Y26371D01*
X137056Y26290D01*
X137074Y26223D01*
X137096Y26170D01*
X137119Y26131D01*
X135715D01*
X135739Y26170D01*
X135760Y26223D01*
X135779Y26290D01*
X135795Y26371D01*
X135809Y26466D01*
X135829Y26697D01*
X135836Y26979D01*
X135840Y27657D01*
X136995D01*
X137002Y26903D01*
D02*
G37*
G36*
X54275Y25122D02*
X54271Y25116D01*
X54255Y25098D01*
X53718Y24554D01*
X52408Y25470D01*
X52977Y26027D01*
X54275Y25122D01*
D02*
G37*
G36*
X120621Y22822D02*
X120582Y22845D01*
X120529Y22866D01*
X120462Y22885D01*
X120381Y22901D01*
X120286Y22915D01*
X120154Y22926D01*
X119357Y22944D01*
X118718Y22946D01*
Y24101D01*
X120382Y24146D01*
X120462Y24162D01*
X120529Y24181D01*
X120582Y24202D01*
X120621Y24226D01*
Y22822D01*
D02*
G37*
G36*
X148304Y27404D02*
X148330Y27381D01*
X148909Y26807D01*
X148910Y26808D01*
X149735Y26027D01*
X150119Y25663D01*
X150186Y25618D01*
X150247Y25584D01*
X150300Y25561D01*
X150344Y25550D01*
X149351Y24557D01*
X149340Y24602D01*
X149318Y24655D01*
X149284Y24715D01*
X149238Y24784D01*
X149180Y24860D01*
X149095Y24962D01*
X149068Y24990D01*
X148544Y25538D01*
X148094Y25991D01*
X148198Y26096D01*
X148248Y26145D01*
X148044Y26041D01*
X147636Y26461D01*
X148295Y27411D01*
X148304Y27404D01*
D02*
G37*
G36*
X61566Y25971D02*
X61527Y25995D01*
X61474Y26016D01*
X61406Y26035D01*
X61326Y26051D01*
X61320Y26052D01*
X61052Y26073D01*
X60143Y26095D01*
X59842Y26096D01*
Y27251D01*
X61499Y27341D01*
X61527Y27351D01*
X61566Y27375D01*
Y25971D01*
D02*
G37*
G36*
X156522Y25122D02*
X156528Y24893D01*
X156544Y24814D01*
X156563Y24747D01*
X156584Y24694D01*
X156607Y24655D01*
X155204D01*
X155227Y24694D01*
X155248Y24747D01*
X155267Y24814D01*
X155283Y24895D01*
X155297Y24990D01*
X155308Y25122D01*
X155326Y25919D01*
X155328Y26557D01*
X156483D01*
X156522Y25122D01*
D02*
G37*
G36*
X93000Y156400D02*
Y140200D01*
X94800Y138400D01*
Y130800D01*
X94500Y130500D01*
X89400D01*
X88600Y131300D01*
Y141800D01*
Y142800D01*
X87000Y144400D01*
X75300D01*
X74800Y144900D01*
X73800Y145900D01*
X73800Y156800D01*
X76000Y159000D01*
X90400Y159000D01*
X93000Y156400D01*
D02*
G37*
G36*
X30015Y124098D02*
X30074Y124072D01*
X30146Y124050D01*
X30231Y124030D01*
X30328Y124013D01*
X30444Y124001D01*
X30554Y123994D01*
X31895Y123975D01*
Y122875D01*
X30154Y122802D01*
X30146Y122801D01*
X30074Y122778D01*
X30015Y122752D01*
X29969Y122723D01*
Y124127D01*
X30015Y124098D01*
D02*
G37*
G36*
X104500Y146500D02*
Y142600D01*
X105100Y142000D01*
X116600D01*
X117600Y141000D01*
Y134600D01*
X117300Y134300D01*
X115600Y132600D01*
X106600D01*
X104600Y130600D01*
X98000D01*
X97800Y130800D01*
Y135500D01*
X100100Y137800D01*
Y138600D01*
Y146500D01*
X100600Y147000D01*
X104000D01*
X104500Y146500D01*
D02*
G37*
G36*
X51900Y158800D02*
X52900Y157800D01*
X52900Y145800D01*
X51000Y143900D01*
X47800D01*
X40700Y136800D01*
X38300D01*
X38100Y137000D01*
X36400Y138700D01*
Y142700D01*
Y144800D01*
X38300Y146700D01*
X39300Y147700D01*
Y158100D01*
X40000Y158800D01*
X51900Y158800D01*
D02*
G37*
G36*
X183400Y157800D02*
Y145500D01*
X182400Y144500D01*
X180600D01*
X178700Y142600D01*
Y129400D01*
X177100Y127700D01*
X161400D01*
X158700Y125000D01*
X146100D01*
Y129400D01*
X147666Y130965D01*
X154200D01*
X156035Y132800D01*
X163923Y132800D01*
X169100Y137977D01*
X169100Y146900D01*
X169700Y147500D01*
Y157200D01*
Y158000D01*
X170600Y158900D01*
X182300D01*
X183400Y157800D01*
D02*
G37*
G36*
X83890Y118496D02*
X83906Y118416D01*
X83925Y118349D01*
X83946Y118296D01*
X83970Y118257D01*
X82566D01*
X82589Y118296D01*
X82611Y118349D01*
X82629Y118416D01*
X82645Y118497D01*
X82659Y118592D01*
X82670Y118724D01*
X82688Y119521D01*
X82690Y120160D01*
X83845D01*
X83890Y118496D01*
D02*
G37*
G36*
X75594Y101054D02*
X75617Y101002D01*
X75651Y100941D01*
X75697Y100872D01*
X75754Y100796D01*
X75839Y100694D01*
X76391Y100118D01*
X76841Y99665D01*
X76024Y98848D01*
X74815Y99993D01*
X74748Y100038D01*
X74687Y100072D01*
X74635Y100095D01*
X74590Y100106D01*
X75583Y101099D01*
X75594Y101054D01*
D02*
G37*
G36*
X115636Y97019D02*
X114491Y95811D01*
X114446Y95743D01*
X114412Y95683D01*
X114390Y95630D01*
X114378Y95586D01*
X113386Y96578D01*
X113430Y96589D01*
X113483Y96612D01*
X113543Y96646D01*
X113612Y96692D01*
X113689Y96749D01*
X113790Y96835D01*
X114366Y97386D01*
X114819Y97836D01*
X115636Y97019D01*
D02*
G37*
G36*
X74606Y103352D02*
X74487Y103360D01*
X74371Y103357D01*
X74256Y103342D01*
X74144Y103316D01*
X74034Y103279D01*
X73943Y103238D01*
X73814Y103150D01*
X73670Y103039D01*
X73349Y102756D01*
X73172Y102584D01*
X72465Y103291D01*
X72909Y103663D01*
X72877Y103702D01*
X73882Y104560D01*
X74606Y103352D01*
D02*
G37*
G36*
X34945Y117927D02*
X34732Y117708D01*
X34381Y117301D01*
X34243Y117114D01*
X34130Y116938D01*
X34041Y116773D01*
X33978Y116620D01*
X33940Y116477D01*
X33926Y116345D01*
X33938Y116225D01*
X33853Y116277D01*
X32648Y116822D01*
X32894Y117224D01*
X32662Y117278D01*
X32683Y117299D01*
X32759Y117385D01*
X32758Y117386D01*
X32994D01*
X33346Y117962D01*
X33488Y117866D01*
X33972Y118588D01*
X34945Y117927D01*
D02*
G37*
G36*
X33926Y115742D02*
X33940Y115610D01*
X33978Y115467D01*
X34041Y115313D01*
X34130Y115148D01*
X34243Y114973D01*
X34381Y114786D01*
X34544Y114588D01*
X34945Y114159D01*
X33972Y113498D01*
X33488Y114221D01*
X33346Y114125D01*
X32986Y114712D01*
X32758D01*
X32662Y114808D01*
X32894Y114863D01*
X32648Y115265D01*
X33853Y115810D01*
X33938Y115862D01*
X33926Y115742D01*
D02*
G37*
G36*
X26600Y145900D02*
Y137000D01*
X26500Y136900D01*
X21000D01*
X19400Y138500D01*
X18900Y139000D01*
X6900D01*
X5800Y140100D01*
Y144500D01*
X5900D01*
X7900Y146500D01*
X26000D01*
X26600Y145900D01*
D02*
G37*
G36*
X107874Y227559D02*
Y218898D01*
X124016Y202756D01*
X125197Y202756D01*
X137795D01*
X142913Y197638D01*
Y187795D01*
X142126Y187008D01*
X131102Y187008D01*
X125610Y192500D01*
X109500D01*
X92913Y209087D01*
X92913Y219291D01*
X92913Y227559D01*
X96063Y230709D01*
X104724D01*
X107874Y227559D01*
D02*
G37*
G36*
X88189D02*
X88189Y207874D01*
X97441Y198622D01*
X97441Y189075D01*
X96331Y187965D01*
X86600D01*
X85833Y187864D01*
X85778Y187841D01*
X85779Y187840D01*
X85804Y187807D01*
X85847Y187756D01*
X86202Y187380D01*
X86661Y186916D01*
X85884Y186139D01*
X84944Y187028D01*
X85744Y187827D01*
X85297Y187642D01*
X85286Y187640D01*
X85279Y187635D01*
X85270Y187634D01*
X85260Y187627D01*
X85118Y187568D01*
X84901Y187401D01*
X84252Y187401D01*
X81496Y187402D01*
X73228Y195669D01*
X73228Y227559D01*
X76378Y230709D01*
X85039D01*
X88189Y227559D01*
D02*
G37*
G36*
X68494Y227939D02*
Y195656D01*
X61210Y188372D01*
X58519Y188372D01*
X58578Y188224D01*
X58666Y188041D01*
X58766Y187862D01*
X58881Y187687D01*
X59009Y187515D01*
X59150Y187348D01*
X59298Y187192D01*
X59337Y187153D01*
X58547Y186363D01*
X58508Y186402D01*
X58352Y186550D01*
X58185Y186691D01*
X58013Y186819D01*
X57838Y186934D01*
X57659Y187034D01*
X57476Y187122D01*
X57289Y187196D01*
X57099Y187256D01*
X56904Y187303D01*
X56705Y187337D01*
X57741Y188372D01*
X44281Y188373D01*
X43100Y189553D01*
X43100Y217900D01*
X55895Y230695D01*
X65738D01*
X68494Y227939D01*
D02*
G37*
G36*
X193400Y238100D02*
X194900Y236600D01*
X194900Y217800D01*
X194800Y217700D01*
X193100Y216000D01*
X163000D01*
X162200Y216800D01*
X159800Y219200D01*
Y237200D01*
X160700Y238100D01*
X193400Y238100D01*
D02*
G37*
G36*
X30800Y237700D02*
X31200D01*
X32800Y236100D01*
Y216100D01*
X32700Y216000D01*
X31000Y214300D01*
X900D01*
X100Y215100D01*
X-2300Y217500D01*
Y235500D01*
X-100Y237700D01*
X30800Y237700D01*
D02*
G37*
G36*
X194583Y206500D02*
X198100Y202983D01*
X198100Y184359D01*
X197600Y183900D01*
X174500Y183900D01*
X169500Y188900D01*
Y203100D01*
X172900Y206500D01*
X194583Y206500D01*
D02*
G37*
G36*
X87008Y184592D02*
X86778Y184357D01*
X86006Y183467D01*
X86004Y183465D01*
X108268D01*
X121260Y170472D01*
X122835Y168898D01*
Y151969D01*
X121653Y150787D01*
X103937D01*
X101575Y153150D01*
X101575Y166142D01*
X97638Y170079D01*
X93307Y170079D01*
X89370Y166142D01*
X76378D01*
Y170472D01*
Y175591D01*
X84252Y183465D01*
X85474D01*
X84691Y184247D01*
X84757Y184249D01*
X84842Y184276D01*
X84945Y184328D01*
X85067Y184406D01*
X85208Y184509D01*
X85545Y184792D01*
X85957Y185178D01*
X86192Y185408D01*
X87008Y184592D01*
D02*
G37*
G36*
X160200Y145800D02*
X160200Y138300D01*
X159500Y137600D01*
X149900Y137600D01*
X149000Y138500D01*
X135600D01*
X135500Y138600D01*
X134400Y139700D01*
Y145100D01*
X136000Y146700D01*
X155400Y146700D01*
X156000Y147300D01*
X158700Y147300D01*
X160200Y145800D01*
D02*
G37*
G36*
X42987Y183496D02*
X57873Y183496D01*
X56705Y184663D01*
X56904Y184697D01*
X57099Y184744D01*
X57289Y184804D01*
X57476Y184878D01*
X57659Y184966D01*
X57838Y185066D01*
X58013Y185181D01*
X58185Y185309D01*
X58352Y185450D01*
X58508Y185598D01*
X58547Y185637D01*
X59337Y184847D01*
X59298Y184808D01*
X59150Y184652D01*
X59009Y184485D01*
X58881Y184313D01*
X58766Y184138D01*
X58666Y183959D01*
X58578Y183776D01*
X58504Y183589D01*
X58444Y183398D01*
X58424Y183316D01*
X59818Y181921D01*
X59818Y170504D01*
X55487Y166173D01*
X42102D01*
Y170110D01*
Y173654D01*
X40920Y174835D01*
X31865Y174835D01*
X25172Y168142D01*
X25172Y153181D01*
X23991Y152000D01*
X4700Y152000D01*
X4700Y171291D01*
X8637Y171291D01*
X20842Y183496D01*
X25861Y188516D01*
X37968Y188516D01*
X42987Y183496D01*
D02*
G37*
G36*
X22000Y203600D02*
X22000Y191291D01*
X13509Y182800D01*
X-7900D01*
X-7900Y203616D01*
X-4716Y206800D01*
X18800Y206800D01*
X22000Y203600D01*
D02*
G37*
G36*
X166732Y183465D02*
X171161Y179035D01*
X181988Y179035D01*
X185433Y175591D01*
Y166535D01*
X172441D01*
Y169980D01*
X168012Y174409D01*
X158661Y174409D01*
X155905Y171653D01*
Y152756D01*
X153937Y150787D01*
X135827D01*
X135433Y151181D01*
Y162992D01*
X135433Y171667D01*
X129528Y177573D01*
X129528Y182283D01*
X130709Y183465D01*
X144587D01*
X150098Y188976D01*
X161220D01*
X166732Y183465D01*
D02*
G37*
G36*
X166192Y95298D02*
X166153Y95322D01*
X166100Y95343D01*
X166033Y95362D01*
X165952Y95378D01*
X165857Y95391D01*
X165725Y95403D01*
X164927Y95420D01*
X164289Y95423D01*
Y96578D01*
X164323Y96578D01*
X165953Y96623D01*
X166033Y96639D01*
X166100Y96657D01*
X166153Y96678D01*
X166192Y96702D01*
Y95298D01*
D02*
G37*
G36*
X63220Y78665D02*
X63221Y78633D01*
X63237Y78554D01*
X63256Y78487D01*
X63277Y78434D01*
X63300Y78395D01*
X61897D01*
X61920Y78434D01*
X61941Y78487D01*
X61960Y78554D01*
X61976Y78635D01*
X61990Y78730D01*
X62001Y78862D01*
X62019Y79659D01*
X62021Y80298D01*
X63176D01*
X63220Y78665D01*
D02*
G37*
G36*
X77181Y78748D02*
X77137Y78737D01*
X77084Y78714D01*
X77024Y78680D01*
X76955Y78634D01*
X76878Y78577D01*
X76701Y78427D01*
X76374Y78116D01*
X75557Y78933D01*
X75672Y79050D01*
X76075Y79514D01*
X76121Y79583D01*
X76155Y79643D01*
X76177Y79696D01*
X76188Y79740D01*
X77181Y78748D01*
D02*
G37*
G36*
X88965Y79812D02*
X89019Y79791D01*
X89086Y79772D01*
X89166Y79756D01*
X89261Y79742D01*
X89393Y79731D01*
X90191Y79713D01*
X90829Y79711D01*
Y78556D01*
X89165Y78511D01*
X89086Y78495D01*
X89019Y78477D01*
X88965Y78456D01*
X88926Y78432D01*
Y79836D01*
X88965Y79812D01*
D02*
G37*
G36*
X83934Y83330D02*
X83947Y83286D01*
X84820Y83330D01*
X85139Y82175D01*
X84807Y82173D01*
X83481Y82086D01*
X83455Y82079D01*
X83389Y82056D01*
X83310Y82020D01*
X83242Y81979D01*
X83185Y81933D01*
X83047Y83331D01*
X83934Y83330D01*
D02*
G37*
G36*
X85028Y81092D02*
X85082Y81071D01*
X85149Y81052D01*
X85229Y81036D01*
X85308Y81024D01*
X85750Y81003D01*
X86889Y80991D01*
Y79836D01*
X85110Y79764D01*
X85082Y79756D01*
X85028Y79735D01*
X84989Y79712D01*
Y81115D01*
X85028Y81092D01*
D02*
G37*
G36*
X90737Y77844D02*
X90790Y77823D01*
X90857Y77804D01*
X90938Y77788D01*
X91033Y77774D01*
X91165Y77763D01*
X91962Y77745D01*
X92601Y77743D01*
Y76588D01*
X90936Y76543D01*
X90857Y76527D01*
X90790Y76508D01*
X90737Y76487D01*
X90698Y76463D01*
Y77867D01*
X90737Y77844D01*
D02*
G37*
G36*
X70309Y70969D02*
X70194Y70852D01*
X69792Y70386D01*
X69746Y70317D01*
X69711Y70255D01*
X69688Y70201D01*
X69677Y70155D01*
X68679Y71153D01*
X68725Y71165D01*
X68779Y71188D01*
X68840Y71222D01*
X68910Y71268D01*
X68987Y71326D01*
X69166Y71475D01*
X69375Y71670D01*
X69492Y71785D01*
X70309Y70969D01*
D02*
G37*
G36*
X115306Y67408D02*
X115267Y67432D01*
X115214Y67453D01*
X115147Y67472D01*
X115066Y67488D01*
X114971Y67502D01*
X114839Y67513D01*
X114042Y67531D01*
X113403Y67533D01*
Y68688D01*
X115068Y68733D01*
X115147Y68749D01*
X115214Y68767D01*
X115267Y68788D01*
X115306Y68812D01*
Y67408D01*
D02*
G37*
G36*
X46980Y74531D02*
X46981Y74499D01*
X46997Y74420D01*
X47015Y74353D01*
X47037Y74300D01*
X47060Y74261D01*
X45656D01*
X45680Y74300D01*
X45701Y74353D01*
X45720Y74420D01*
X45736Y74501D01*
X45750Y74596D01*
X45761Y74728D01*
X45779Y75525D01*
X45781Y76164D01*
X46936D01*
X46980Y74531D01*
D02*
G37*
G36*
X28041Y76389D02*
X28019Y76336D01*
X28001Y76269D01*
X27984Y76188D01*
X27971Y76093D01*
X27959Y75961D01*
X27942Y75164D01*
X27940Y74525D01*
X26785D01*
X26740Y76190D01*
X26724Y76269D01*
X26705Y76336D01*
X26684Y76389D01*
X26660Y76428D01*
X28064D01*
X28041Y76389D01*
D02*
G37*
G36*
X92607Y75875D02*
X92660Y75854D01*
X92727Y75835D01*
X92808Y75819D01*
X92903Y75805D01*
X93035Y75794D01*
X93832Y75776D01*
X94471Y75774D01*
Y74619D01*
X92807Y74574D01*
X92727Y74558D01*
X92660Y74540D01*
X92607Y74519D01*
X92568Y74495D01*
Y75899D01*
X92607Y75875D01*
D02*
G37*
G36*
X154839Y83669D02*
X154794Y83658D01*
X154742Y83635D01*
X154681Y83601D01*
X154612Y83555D01*
X154536Y83498D01*
X154434Y83413D01*
X153858Y82861D01*
X153405Y82411D01*
X152588Y83228D01*
X152686Y83331D01*
X153006Y83669D01*
X153733Y84437D01*
X153778Y84504D01*
X153812Y84565D01*
X153835Y84617D01*
X153846Y84662D01*
X154839Y83669D01*
D02*
G37*
G36*
X58086Y95753D02*
X57775Y95424D01*
X57493Y95083D01*
X57238Y94731D01*
X57010Y94367D01*
X56810Y93993D01*
X56638Y93607D01*
X56494Y93209D01*
X56376Y92801D01*
X56287Y92381D01*
X56225Y91951D01*
X53466Y94709D01*
X53897Y94771D01*
X54317Y94861D01*
X54725Y94978D01*
X55122Y95122D01*
X55508Y95295D01*
X55883Y95495D01*
X56246Y95722D01*
X56598Y95977D01*
X56939Y96260D01*
X57269Y96570D01*
X58086Y95753D01*
D02*
G37*
G36*
X161861Y90932D02*
X161822Y90956D01*
X161769Y90977D01*
X161702Y90995D01*
X161621Y91012D01*
X161526Y91025D01*
X161394Y91037D01*
X160597Y91054D01*
X159958Y91056D01*
Y92211D01*
X161623Y92256D01*
X161702Y92272D01*
X161769Y92291D01*
X161822Y92312D01*
X161861Y92336D01*
Y90932D01*
D02*
G37*
G36*
X73978Y93810D02*
X74397Y93412D01*
X74464Y93368D01*
X74525Y93333D01*
X74578Y93311D01*
X74622Y93300D01*
X73629Y92307D01*
X73618Y92352D01*
X73596Y92404D01*
X73562Y92465D01*
X73516Y92533D01*
X73458Y92610D01*
X73373Y92711D01*
X72822Y93288D01*
X72372Y93741D01*
X73189Y94557D01*
X73978Y93810D01*
D02*
G37*
G36*
X23144Y94555D02*
X23162Y93889D01*
X23178Y93810D01*
X23197Y93743D01*
X23218Y93690D01*
X23241Y93651D01*
X21837D01*
X21861Y93690D01*
X21882Y93743D01*
X21901Y93810D01*
X21917Y93891D01*
X21931Y93986D01*
X21942Y94118D01*
X21960Y94915D01*
X21962Y95554D01*
X23117D01*
X23144Y94555D01*
D02*
G37*
G36*
X164125Y93196D02*
X164086Y93219D01*
X164033Y93240D01*
X163966Y93259D01*
X163885Y93275D01*
X163790Y93289D01*
X163658Y93300D01*
X162861Y93318D01*
X162222Y93320D01*
Y94475D01*
X163886Y94520D01*
X163966Y94536D01*
X164033Y94555D01*
X164086Y94576D01*
X164125Y94600D01*
Y93196D01*
D02*
G37*
G36*
X70462Y91743D02*
X70441Y91690D01*
X70422Y91623D01*
X70406Y91542D01*
X70392Y91447D01*
X70381Y91315D01*
X70363Y90518D01*
X70361Y89880D01*
X69206D01*
X69161Y91544D01*
X69145Y91623D01*
X69126Y91690D01*
X69105Y91743D01*
X69081Y91782D01*
X70485D01*
X70462Y91743D01*
D02*
G37*
G36*
X36852Y86197D02*
X35851Y85589D01*
X35845Y85592D01*
X35832Y85603D01*
X35742Y85688D01*
X35430Y85997D01*
X36444Y86617D01*
X36852Y86197D01*
D02*
G37*
G36*
X81752Y85434D02*
X81759Y85427D01*
X81787Y85403D01*
X81862Y85351D01*
X81975Y85297D01*
X82109Y85250D01*
X82267Y85210D01*
X82446Y85177D01*
X82649Y85152D01*
X83122Y85123D01*
X83392Y85120D01*
Y83965D01*
X82686Y84051D01*
X82681Y83965D01*
X81364Y84132D01*
X81690Y85501D01*
X81752Y85434D01*
D02*
G37*
G36*
X156842Y86404D02*
X156802Y86428D01*
X156749Y86449D01*
X156682Y86468D01*
X156601Y86484D01*
X156506Y86498D01*
X156375Y86509D01*
X155577Y86527D01*
X154938Y86529D01*
Y87684D01*
X156603Y87729D01*
X156682Y87745D01*
X156749Y87763D01*
X156802Y87785D01*
X156842Y87808D01*
Y86404D01*
D02*
G37*
G36*
X27278Y91420D02*
X27257Y91367D01*
X27239Y91300D01*
X27222Y91219D01*
X27216Y91173D01*
X27198Y90924D01*
X27178Y89651D01*
X26022D01*
X25941Y91372D01*
X25922Y91420D01*
X25898Y91460D01*
X27302D01*
X27278Y91420D01*
D02*
G37*
G36*
X159499Y88668D02*
X159460Y88692D01*
X159407Y88713D01*
X159340Y88732D01*
X159259Y88748D01*
X159164Y88762D01*
X159032Y88773D01*
X158235Y88791D01*
X157596Y88793D01*
Y89948D01*
X159260Y89993D01*
X159340Y90009D01*
X159407Y90027D01*
X159460Y90048D01*
X159499Y90072D01*
Y88668D01*
D02*
G37*
D14*
X136319Y19980D02*
D03*
X145319Y19980D02*
D03*
X136319Y28937D02*
D03*
X145319Y28937D02*
D03*
X136319Y38091D02*
D03*
X145319Y38091D02*
D03*
X96205Y48031D02*
D03*
X87205Y48031D02*
D03*
X96358Y20881D02*
D03*
X87358Y20881D02*
D03*
X96106Y29823D02*
D03*
X87106Y29823D02*
D03*
X96303Y38878D02*
D03*
X87303D02*
D03*
X100800Y132900D02*
D03*
X91800D02*
D03*
X67495Y40764D02*
D03*
X58495Y40764D02*
D03*
X57400Y19700D02*
D03*
X48400D02*
D03*
X24957Y50197D02*
D03*
X33957Y50197D02*
D03*
X53838Y81299D02*
D03*
X62839Y81299D02*
D03*
X53740Y92224D02*
D03*
X62740D02*
D03*
X62642Y70276D02*
D03*
X53642Y70276D02*
D03*
D25*
X126358Y30881D02*
D03*
Y21881D02*
D03*
X105905Y29472D02*
D03*
X105905Y20472D02*
D03*
X105610Y48469D02*
D03*
X105610Y39469D02*
D03*
X122343Y58716D02*
D03*
X122343Y67716D02*
D03*
X97905Y59220D02*
D03*
Y68220D02*
D03*
X106862Y68122D02*
D03*
X106862Y59122D02*
D03*
X167200Y112200D02*
D03*
Y103200D02*
D03*
X190975Y116113D02*
D03*
Y107113D02*
D03*
X191073Y136050D02*
D03*
X191073Y127050D02*
D03*
X167300Y130700D02*
D03*
X167300Y121700D02*
D03*
X148800Y127900D02*
D03*
X148800Y118900D02*
D03*
X67000Y20200D02*
D03*
Y29200D02*
D03*
X68566Y131316D02*
D03*
Y122316D02*
D03*
X68665Y112363D02*
D03*
Y103363D02*
D03*
X-935Y135749D02*
D03*
Y126749D02*
D03*
X-917Y116097D02*
D03*
Y107097D02*
D03*
X80287Y59964D02*
D03*
X80287Y68964D02*
D03*
X89724Y59898D02*
D03*
X89724Y68898D02*
D03*
D26*
X119095Y34547D02*
D03*
X112795Y34547D02*
D03*
X112205Y23524D02*
D03*
X118504D02*
D03*
X112205Y18209D02*
D03*
X118504D02*
D03*
X120079Y39862D02*
D03*
X113779D02*
D03*
X119488Y48524D02*
D03*
X113189D02*
D03*
X140500Y103500D02*
D03*
X134201Y103500D02*
D03*
X31399Y21000D02*
D03*
X25100D02*
D03*
X31594Y28445D02*
D03*
X25295D02*
D03*
X48750Y103600D02*
D03*
X42450Y103600D02*
D03*
D27*
X109000Y185000D02*
X124500Y169500D01*
Y124600D02*
Y169500D01*
X123345Y123445D02*
X124500Y124600D01*
X86600Y185000D02*
X109000D01*
X123995Y44795D02*
Y49795D01*
X124987Y50787D01*
X84400Y182800D02*
X86600Y185000D01*
X36042Y99905D02*
Y101958D01*
X34457Y103543D02*
X36042Y101958D01*
X7972Y103543D02*
X34457D01*
X61910Y101772D02*
Y110925D01*
X60728Y100591D02*
X61910Y101772D01*
Y110925D02*
X63347Y112363D01*
X154900Y109400D02*
X157900Y112400D01*
X154900Y104200D02*
Y109400D01*
X143655Y92955D02*
X154900Y104200D01*
X157900Y112400D02*
X165100D01*
X149100Y105100D02*
Y119853D01*
X141900Y97900D02*
X149100Y105100D01*
X115700Y97900D02*
X141900D01*
X117315Y92955D02*
X143655D01*
X112919Y88559D02*
X117315Y92955D01*
X78640Y88559D02*
X112919D01*
X118000Y91300D02*
X144500D01*
X113604Y86904D02*
X118000Y91300D01*
X79325Y86904D02*
X113604D01*
X113500Y95700D02*
X115700Y97900D01*
X148031Y120921D02*
X149100Y119853D01*
X170300Y98700D02*
X172584Y100984D01*
X151900Y98700D02*
X170300D01*
X144500Y91300D02*
X151900Y98700D01*
X172584Y100984D02*
X181791D01*
X166900Y114200D02*
Y121100D01*
X165100Y112400D02*
X166900Y114200D01*
X153939Y96000D02*
X166732D01*
X124987Y50787D02*
X157087D01*
X68566Y131316D02*
Y167366D01*
X77250Y176050D01*
X109839Y125200D02*
X111594Y123445D01*
X87995Y125200D02*
X109839D01*
X83268Y120473D02*
X87995Y125200D01*
X26600Y89651D02*
X27657Y88594D01*
X26600Y89651D02*
Y92000D01*
X116240Y123445D02*
X123345D01*
X187000Y169000D02*
X193000Y163000D01*
Y137977D02*
Y163000D01*
X191073Y136050D02*
X193000Y137977D01*
X184700Y169000D02*
X187000D01*
X49902Y49902D02*
X58169Y58169D01*
X49902Y32579D02*
Y49902D01*
X58169Y58169D02*
X69685D01*
X47835Y51181D02*
X56988Y60335D01*
X47835Y38484D02*
Y51181D01*
X56988Y60335D02*
X68405D01*
X45768Y52461D02*
X55905Y62598D01*
X45768Y32480D02*
Y52461D01*
X55905Y62598D02*
X68012D01*
X51591Y100591D02*
X60728D01*
X46358Y95358D02*
X51591Y100591D01*
X46358Y73721D02*
Y95358D01*
X43996Y35236D02*
Y95504D01*
X37697Y101803D02*
X43996Y95504D01*
X37697Y101803D02*
Y108543D01*
X96457Y48031D02*
X101772Y53347D01*
X118504Y23524D02*
X121161D01*
X113287Y40354D02*
X113779Y39862D01*
X111221Y40354D02*
X113287D01*
X6299Y105217D02*
X7972Y103543D01*
X6299Y105217D02*
Y113681D01*
X36270Y99655D02*
X41634Y94291D01*
X36270Y99655D02*
Y99677D01*
X36042Y99905D02*
X36270Y99677D01*
X34744Y108543D02*
X37697D01*
X41634Y59055D02*
Y94291D01*
X118701Y28445D02*
X121550Y31294D01*
Y36157D01*
X123483Y38091D01*
X112795Y34547D02*
X112894Y34449D01*
X100831Y34547D02*
X112795D01*
X112894Y32185D02*
Y34449D01*
X112795Y32087D02*
X112894Y32185D01*
X122802Y43602D02*
X123995Y44795D01*
X116722Y43602D02*
X122802D01*
X105807Y104823D02*
X109429Y108445D01*
X105807Y91831D02*
Y104823D01*
X104191Y90214D02*
X105807Y91831D01*
X77955Y90214D02*
X104191D01*
X109429Y108445D02*
X116240D01*
X71869Y84128D02*
X77955Y90214D01*
X185630Y116113D02*
X190975D01*
X181791Y100984D02*
X183169Y102362D01*
Y113386D01*
X185630Y115847D01*
Y116113D01*
X62598Y77854D02*
Y81059D01*
X62839Y81299D01*
X68325Y87125D02*
X69784Y88583D01*
X68325Y82874D02*
Y87125D01*
X69784Y88583D02*
Y92323D01*
X71869Y66455D02*
Y84128D01*
X73524Y83443D02*
X78640Y88559D01*
X73524Y65453D02*
Y83443D01*
X69980Y84744D02*
X77461Y92224D01*
X66751Y81299D02*
X68325Y82874D01*
X62839Y81299D02*
X66751D01*
X70768Y96161D02*
X74508Y92421D01*
X69980Y71457D02*
Y84744D01*
X68799Y70276D02*
X69980Y71457D01*
X75689Y78248D02*
X77067Y79626D01*
X75689Y64173D02*
Y78248D01*
X77461Y92224D02*
Y98228D01*
X74705Y100984D02*
X77461Y98228D01*
X57677Y96161D02*
X70768D01*
X75590Y83169D02*
X79325Y86904D01*
X75590Y81988D02*
Y83169D01*
X83268Y117717D02*
Y120473D01*
X92028Y75197D02*
X117421D01*
X122736Y80512D01*
X53740Y92224D02*
X57677Y96161D01*
X68012Y62598D02*
X71869Y66455D01*
X68405Y60335D02*
X73524Y65453D01*
X69685Y58169D02*
X75689Y64173D01*
X33071Y116043D02*
Y116870D01*
Y115217D02*
Y116043D01*
Y115217D02*
X34744Y113543D01*
X33071Y116870D02*
X34744Y118543D01*
X146726Y88787D02*
X153939Y96000D01*
X119309Y88787D02*
X146726D01*
X115064Y84542D02*
X119309Y88787D01*
X147411Y87132D02*
X154177Y93898D01*
X119994Y87132D02*
X147411D01*
X115614Y82752D02*
X119994Y87132D01*
X148097Y85477D02*
X154254Y91634D01*
X120680Y85477D02*
X148097D01*
X116300Y81097D02*
X120680Y85477D01*
X148782Y83822D02*
X154331Y89370D01*
X121365Y83822D02*
X148782D01*
X116677Y79134D02*
X121365Y83822D01*
X149468Y82167D02*
X154407Y87106D01*
X122051Y82167D02*
X149468D01*
X117049Y77165D02*
X122051Y82167D01*
X150689Y80512D02*
X154724Y84547D01*
X122736Y80512D02*
X150689D01*
X154177Y93898D02*
X164665D01*
X154254Y91634D02*
X162402D01*
X154331Y89370D02*
X160039D01*
X154407Y87106D02*
X157382D01*
X110012Y84542D02*
X115064D01*
X82752Y82752D02*
X115614D01*
X87573Y81097D02*
X116300D01*
X88386Y79134D02*
X116677D01*
X90158Y77165D02*
X117049D01*
X43012Y25689D02*
X49902Y32579D01*
X43012Y18504D02*
Y25689D01*
X35138Y10630D02*
X43012Y18504D01*
X39469Y26181D02*
X45768Y32480D01*
X39469Y19783D02*
Y26181D01*
X36417Y16732D02*
X39469Y19783D01*
X86889Y80413D02*
X87573Y81097D01*
X84449Y80413D02*
X86889D01*
X35563Y36417D02*
X36449Y35531D01*
X27776Y36417D02*
X35563D01*
X26103Y34744D02*
X27776Y36417D01*
X36449Y35531D02*
X37992D01*
X30413Y10728D02*
X35039D01*
X35138Y10630D01*
X36319Y27559D02*
X43996Y35236D01*
X110011Y84541D02*
X110012Y84542D01*
X83393Y84541D02*
X110011D01*
X83392Y84542D02*
X83393Y84541D01*
X81403Y84542D02*
X83392D01*
X81004Y84941D02*
X81403Y84542D01*
X82579Y82579D02*
X82752Y82752D01*
X111594Y123445D02*
X116240D01*
X63347Y112363D02*
X68665D01*
X22539Y93110D02*
Y96161D01*
X36319Y25787D02*
Y27559D01*
X5118Y114862D02*
X6299Y113681D01*
X317Y114862D02*
X5118D01*
X-917Y116097D02*
X317Y114862D01*
X107464Y68110D02*
X115847D01*
X107453Y68122D02*
X107464Y68110D01*
X154724Y84547D02*
X154823D01*
X127657Y44390D02*
X154768D01*
X126673Y43406D02*
X127657Y44390D01*
X154768D02*
X156244Y42913D01*
X157087Y50787D02*
X159547Y48327D01*
X125689Y38091D02*
X126673Y39075D01*
Y43406D01*
X123483Y38091D02*
X125689D01*
X115650Y28445D02*
X118701D01*
X108618D02*
X115650D01*
X108224Y28051D02*
X108618Y28445D01*
X106354Y29921D02*
X108224Y28051D01*
X136221Y38780D02*
X136614Y38386D01*
X132480Y28937D02*
X136319D01*
X131398Y27854D02*
X132480Y28937D01*
X131398Y22933D02*
Y27854D01*
X130346Y21881D02*
X131398Y22933D01*
X126358Y21881D02*
X130346D01*
X136417Y27657D02*
X137244Y28484D01*
X136555Y29173D02*
X137244Y28484D01*
X136417Y25591D02*
Y27657D01*
X132579Y33661D02*
X151279D01*
X129798Y30881D02*
X132579Y33661D01*
X126358Y30881D02*
X129798D01*
X87303Y26476D02*
Y29626D01*
X87205Y44488D02*
Y48031D01*
X87402Y34350D02*
Y37598D01*
X155905Y24114D02*
Y29035D01*
X151279Y33661D02*
X155905Y29035D01*
X147933Y26969D02*
X150230Y24672D01*
X149705Y42028D02*
X150098D01*
X146752Y39075D02*
X149705Y42028D01*
X96106Y29823D02*
X100831Y34547D01*
X87402Y16043D02*
Y19291D01*
X122146Y27165D02*
X122643D01*
X118504Y18209D02*
X120180D01*
X121657Y16732D02*
X132209D01*
X120180Y18209D02*
X121657Y16732D01*
X105905Y29472D02*
X106354Y29921D01*
X113189Y46063D02*
Y48524D01*
X112205Y20965D02*
Y23524D01*
Y18209D02*
Y20965D01*
X122643Y27165D02*
X126358Y30881D01*
X109449Y43602D02*
X116722D01*
X116634Y43690D02*
X116722Y43602D01*
X116634Y43690D02*
Y45472D01*
X105610Y47441D02*
X109449Y43602D01*
X109252Y53347D02*
X113287Y49311D01*
X101772Y53347D02*
X109252D01*
X155850Y33366D02*
X159547Y37063D01*
Y48327D01*
X105610Y47441D02*
Y48469D01*
X96205Y48031D02*
X96457D01*
X136221Y38780D02*
Y41437D01*
X136319Y38091D02*
X136614Y38386D01*
X87008Y48228D02*
X87205Y48031D01*
X96303Y38878D02*
X96457Y38724D01*
Y35335D02*
Y38724D01*
X132209Y16732D02*
X136358Y20881D01*
X145374Y16634D02*
Y20865D01*
X145358Y20881D02*
X145374Y20865D01*
X87106Y29823D02*
X87303Y29626D01*
X105020Y38878D02*
X105610Y39469D01*
X96303Y38878D02*
X105020D01*
X96752Y17323D02*
Y20487D01*
X96358Y20881D02*
X96752Y20487D01*
X96767Y20472D01*
X105905D01*
X25197Y34744D02*
X26103D01*
X27165Y58366D02*
X27362Y58563D01*
X27264Y60630D02*
Y62402D01*
Y60630D02*
X28346Y59547D01*
X27362Y58563D02*
X28346Y59547D01*
X27362Y72933D02*
Y76968D01*
X27520Y88457D02*
X27657Y88594D01*
X27520Y88457D02*
X28280Y87697D01*
X34547D02*
X37402Y84842D01*
X28280Y87697D02*
X34547D01*
X25197Y25886D02*
Y29201D01*
X27165Y71752D02*
X27461Y71457D01*
X27362Y58563D02*
X37402D01*
X27461Y71457D02*
X37402D01*
X14900Y66000D02*
X15409D01*
X59842Y26673D02*
X62106D01*
X59646Y26476D02*
X59842Y26673D01*
X-935Y116115D02*
X-917Y116097D01*
X-935Y116115D02*
Y126749D01*
X68566Y112461D02*
X68665Y112363D01*
X68566Y112461D02*
Y122316D01*
X190975Y116113D02*
X191073Y116212D01*
Y127050D01*
X105610Y48469D02*
Y49508D01*
D28*
X52138Y98638D02*
X71358D01*
X48720Y95221D02*
X52138Y98638D01*
X48720Y72047D02*
Y95221D01*
X74114Y104232D02*
X74705D01*
X72819Y102937D02*
X74114Y104232D01*
X72819Y100098D02*
Y102937D01*
X71358Y98638D02*
X72819Y100098D01*
X46030Y69357D02*
X48720Y72047D01*
X24803Y46850D02*
Y49453D01*
X24508Y49748D02*
X24803Y49453D01*
X24508Y49748D02*
X24957Y50197D01*
X46030Y56529D02*
Y69357D01*
X39469Y50394D02*
X39764Y50098D01*
X34941Y50394D02*
X39469D01*
X62402Y20397D02*
Y21949D01*
X67913Y41330D02*
Y45177D01*
X67421Y40838D02*
X67913Y41330D01*
X67421Y40838D02*
X67495Y40764D01*
X48400Y19700D02*
Y26550D01*
X25100Y16832D02*
Y21000D01*
X25000Y16929D02*
X25003D01*
X25100Y16832D01*
X48400Y26550D02*
X50000Y28150D01*
X62205Y20200D02*
X67000D01*
X57900D02*
X62205D01*
X62402Y20397D01*
X57400Y19700D02*
X57900Y20200D01*
D29*
X43384Y124700D02*
Y127384D01*
X34744Y123543D02*
X42227D01*
X43384Y124700D01*
X44900Y124600D02*
Y126756D01*
X45957Y123543D02*
X54232D01*
X44900Y124600D02*
X45957Y123543D01*
X44900Y126756D02*
X46328Y128184D01*
X55484D01*
X45700Y129700D02*
X54856D01*
X43384Y127384D02*
X45700Y129700D01*
X55484Y128184D02*
X59972Y132672D01*
X54856Y129700D02*
X58456Y133300D01*
Y167056D01*
X59972Y132672D02*
Y166428D01*
X63316Y169772D01*
Y184270D01*
X58456Y167056D02*
X61800Y170400D01*
X60828Y186758D02*
X63316Y184270D01*
X58942Y186758D02*
X60828D01*
X61800Y170400D02*
Y183642D01*
X60200Y185242D02*
X61800Y183642D01*
X56900Y188800D02*
X58942Y186758D01*
Y185242D02*
X60200D01*
X56900Y183200D02*
X58942Y185242D01*
D30*
X126028Y124972D02*
X127555Y123445D01*
X126028Y124972D02*
Y170133D01*
X109633Y186528D02*
X126028Y170133D01*
X86273Y186528D02*
X109633D01*
X127555Y123445D02*
X135728D01*
X84400Y188400D02*
X86273Y186528D01*
X34272Y123425D02*
X34597Y123100D01*
X-300Y163800D02*
X5100D01*
X-2900Y161200D02*
X-300Y163800D01*
X-2900Y137713D02*
Y161200D01*
Y137713D02*
X-935Y135749D01*
X29429Y123425D02*
X34272D01*
D31*
X48750Y103600D02*
Y107750D01*
X47600Y108900D02*
X48750Y107750D01*
X136000Y112000D02*
Y118173D01*
X135728Y118445D02*
X136000Y118173D01*
X65939Y100638D02*
X68665Y103363D01*
X134201Y103200D02*
X135401Y102000D01*
X140500Y103500D02*
X140800D01*
X142000Y104700D01*
X48843Y113543D02*
X54232D01*
X47600Y112300D02*
X48843Y113543D01*
X47600Y108900D02*
Y112300D01*
X54232Y113543D02*
Y118543D01*
X42450Y107650D02*
X43500Y108700D01*
X42450Y103600D02*
Y107650D01*
X31200Y96436D02*
X31220Y96457D01*
X31200Y93000D02*
Y96436D01*
D33*
X114100Y118500D02*
X121100D01*
X116240Y114000D02*
Y118445D01*
X121100Y118500D02*
X126300Y113300D01*
X129900Y103600D02*
X132600D01*
X126300Y107200D02*
X129900Y103600D01*
X126300Y107200D02*
Y113300D01*
X97523Y53689D02*
Y56996D01*
X87697Y68898D02*
X89724D01*
X90354Y53642D02*
Y56803D01*
X89787Y57370D02*
X90354Y56803D01*
X62642Y70276D02*
X62795Y70122D01*
Y65453D02*
Y70122D01*
X122343Y58716D02*
X122594Y58465D01*
X126417D01*
X122343Y67716D02*
X122441Y67618D01*
X126516D01*
X52559Y40748D02*
X58479D01*
X76476Y59941D02*
X79783D01*
X80047Y60205D01*
X80287Y59964D01*
X129724Y58465D02*
X130020Y58169D01*
X126417Y58465D02*
X129724D01*
X130020Y58169D02*
X135728D01*
D34*
X53642Y81102D02*
X53838Y81299D01*
X53642Y70276D02*
Y81102D01*
X53740Y81398D02*
X53838Y81299D01*
X53740Y81398D02*
Y92224D01*
D35*
X190888Y103345D02*
Y104612D01*
X164032Y102287D02*
X165298D01*
X38482Y41784D02*
X40179D01*
X38340Y65700D02*
X39540Y66900D01*
X38440Y78300D02*
X39640Y79500D01*
X37402Y91142D02*
X38060Y91800D01*
X37800D02*
X39000Y93000D01*
X37800Y91800D02*
X38060D01*
X21534Y78834D02*
X22600Y79900D01*
X21434Y68166D02*
X22500Y67100D01*
X21434Y44366D02*
X22500Y43300D01*
X-1004Y103328D02*
Y104595D01*
X32283Y43867D02*
Y45374D01*
X30964Y42547D02*
X32283Y43867D01*
X31594Y24902D02*
Y28445D01*
X31594Y28445D02*
X31594Y28445D01*
X31398Y15945D02*
Y20998D01*
X31399Y21000D01*
D36*
X118799Y37402D02*
Y39075D01*
X119193D02*
X119980Y39862D01*
X120079D01*
X67000Y29200D02*
X67028Y29228D01*
Y35827D01*
X118799Y35827D02*
Y37106D01*
X59646Y32776D02*
X59646Y32776D01*
X54528Y32776D02*
X59646D01*
X119488Y48524D02*
Y50886D01*
X119488Y48524D02*
X119488Y48524D01*
X52362Y24311D02*
X53851Y25800D01*
D42*
X82047Y68898D02*
X84842D01*
X85138D02*
X87697D01*
D43*
X100394Y222342D02*
D03*
X144488Y222441D02*
D03*
D44*
X80709Y222342D02*
D03*
X61024D02*
D03*
X124803Y222441D02*
D03*
D45*
X4900Y96000D02*
D03*
X174900D02*
D03*
D46*
X4900Y86000D02*
D03*
Y76000D02*
D03*
Y66000D02*
D03*
Y56000D02*
D03*
Y46000D02*
D03*
Y36000D02*
D03*
Y26000D02*
D03*
Y16000D02*
D03*
Y6000D02*
D03*
X14900Y96000D02*
D03*
Y86000D02*
D03*
Y76000D02*
D03*
Y66000D02*
D03*
Y56000D02*
D03*
Y46000D02*
D03*
Y36000D02*
D03*
Y26000D02*
D03*
Y16000D02*
D03*
Y6000D02*
D03*
X174900Y86000D02*
D03*
Y76000D02*
D03*
Y66000D02*
D03*
Y56000D02*
D03*
Y46000D02*
D03*
Y36000D02*
D03*
Y26000D02*
D03*
Y16000D02*
D03*
Y6000D02*
D03*
X184900Y96000D02*
D03*
Y86000D02*
D03*
Y76000D02*
D03*
Y66000D02*
D03*
Y56000D02*
D03*
Y46000D02*
D03*
Y36000D02*
D03*
Y26000D02*
D03*
Y16000D02*
D03*
Y6000D02*
D03*
D47*
X144900Y11000D02*
D03*
X134900D02*
D03*
X124900D02*
D03*
X114900Y11000D02*
D03*
X104900Y11000D02*
D03*
X64900D02*
D03*
X54900D02*
D03*
D48*
X94900D02*
D03*
X44900D02*
D03*
D49*
X96123Y102869D02*
D03*
X98350Y100642D02*
D03*
X100577Y102869D02*
D03*
X96123Y98415D02*
D03*
X93896Y96188D02*
D03*
X98350Y105096D02*
D03*
X93896Y100642D02*
D03*
X91669Y98415D02*
D03*
X96123Y107323D02*
D03*
X93896Y105096D02*
D03*
X91669Y102869D02*
D03*
X89442Y100642D02*
D03*
X93896Y109550D02*
D03*
X91669Y107323D02*
D03*
X89442Y105096D02*
D03*
X87215Y102869D02*
D03*
X67913Y45177D02*
D03*
D50*
X130500Y193543D02*
D03*
Y190000D02*
D03*
X137587Y197000D02*
D03*
X141130D02*
D03*
X134043D02*
D03*
X130500D02*
D03*
X84000Y191500D02*
D03*
Y195043D02*
D03*
X85500Y198000D02*
D03*
X89043D02*
D03*
X96130D02*
D03*
X92587D02*
D03*
X55214Y196543D02*
D03*
Y193000D02*
D03*
X51087Y200000D02*
D03*
X54630D02*
D03*
X47543D02*
D03*
X44000D02*
D03*
X157500Y65900D02*
D03*
Y69200D02*
D03*
Y72600D02*
D03*
X52559Y40748D02*
D03*
X75100Y157000D02*
D03*
X78643D02*
D03*
X82187D02*
D03*
X85730D02*
D03*
X75100Y153457D02*
D03*
X78643D02*
D03*
X82187D02*
D03*
X85730D02*
D03*
X75100Y149913D02*
D03*
X78643D02*
D03*
X82187D02*
D03*
X85730D02*
D03*
Y146370D02*
D03*
X82187D02*
D03*
X78643D02*
D03*
X75100D02*
D03*
X56900Y183200D02*
D03*
Y188800D02*
D03*
X171400Y157430D02*
D03*
X174943D02*
D03*
X178487D02*
D03*
X182030D02*
D03*
X171400Y153887D02*
D03*
X174943D02*
D03*
X178487D02*
D03*
X182030D02*
D03*
X171400Y150343D02*
D03*
X174943D02*
D03*
X178487D02*
D03*
X182030D02*
D03*
Y146800D02*
D03*
X178487D02*
D03*
X174943D02*
D03*
X171400D02*
D03*
X44457Y172300D02*
D03*
X48000D02*
D03*
X51543D02*
D03*
X55087D02*
D03*
X78757Y172400D02*
D03*
X82300D02*
D03*
X85843D02*
D03*
X89387D02*
D03*
X173557Y173500D02*
D03*
X177100D02*
D03*
X180643D02*
D03*
X184187D02*
D03*
X84400Y182800D02*
D03*
Y188400D02*
D03*
X21600Y218000D02*
D03*
X25300Y218100D02*
D03*
X28787Y222000D02*
D03*
X25243D02*
D03*
X21700D02*
D03*
X28787Y226000D02*
D03*
X25243D02*
D03*
X21700D02*
D03*
X28787Y230000D02*
D03*
X25243D02*
D03*
X21700D02*
D03*
X28787Y234000D02*
D03*
X25243D02*
D03*
X21700D02*
D03*
X7443Y218100D02*
D03*
X3900D02*
D03*
X18000Y218000D02*
D03*
X14457D02*
D03*
X10913D02*
D03*
X3843Y222000D02*
D03*
Y226000D02*
D03*
Y230000D02*
D03*
Y234000D02*
D03*
X18013Y221900D02*
D03*
Y226000D02*
D03*
Y230000D02*
D03*
Y234000D02*
D03*
X186800D02*
D03*
Y230000D02*
D03*
Y226000D02*
D03*
Y221900D02*
D03*
X162000Y234000D02*
D03*
X165543D02*
D03*
X169087D02*
D03*
X172630D02*
D03*
X162000Y230000D02*
D03*
X165543D02*
D03*
X169087D02*
D03*
X172630D02*
D03*
X162000Y226000D02*
D03*
X165543D02*
D03*
X169087D02*
D03*
X172630D02*
D03*
X162000Y222000D02*
D03*
X165543D02*
D03*
X169087D02*
D03*
X172630D02*
D03*
X179700Y218000D02*
D03*
X183243D02*
D03*
X186787D02*
D03*
X165600Y218100D02*
D03*
X169143D02*
D03*
X172687D02*
D03*
X176230D02*
D03*
X157500Y62500D02*
D03*
X97523Y53689D02*
D03*
X135800Y140700D02*
D03*
X139343D02*
D03*
X142887D02*
D03*
X146430D02*
D03*
X105300Y140300D02*
D03*
X108843D02*
D03*
X112387D02*
D03*
X115930D02*
D03*
X6700Y141000D02*
D03*
X10243D02*
D03*
X13787D02*
D03*
X17330D02*
D03*
X139370Y157480D02*
D03*
X142913D02*
D03*
X146457D02*
D03*
X150000D02*
D03*
Y161024D02*
D03*
X146457D02*
D03*
X142913D02*
D03*
X139370D02*
D03*
X150000Y164567D02*
D03*
X146457D02*
D03*
X142913D02*
D03*
X139370D02*
D03*
X150000Y168110D02*
D03*
X146457D02*
D03*
X142913D02*
D03*
X139370D02*
D03*
X106693Y157480D02*
D03*
X110236D02*
D03*
X113779D02*
D03*
X117323D02*
D03*
Y161024D02*
D03*
X113779D02*
D03*
X110236D02*
D03*
X106693D02*
D03*
X117323Y164567D02*
D03*
X113779D02*
D03*
X110236D02*
D03*
X106693D02*
D03*
X117323Y168110D02*
D03*
X113779D02*
D03*
X110236D02*
D03*
X106693D02*
D03*
X40945Y146457D02*
D03*
X44488D02*
D03*
X48031D02*
D03*
X51575D02*
D03*
Y150000D02*
D03*
X48031D02*
D03*
X44488D02*
D03*
X40945D02*
D03*
X51575Y153543D02*
D03*
X48031D02*
D03*
X44488D02*
D03*
X40945D02*
D03*
X51575Y157087D02*
D03*
X48031D02*
D03*
X44488D02*
D03*
X40945D02*
D03*
X9449Y157480D02*
D03*
X12992D02*
D03*
X16535D02*
D03*
X20079D02*
D03*
Y161024D02*
D03*
X16535D02*
D03*
X12992D02*
D03*
X9449D02*
D03*
X20079Y164567D02*
D03*
X16535D02*
D03*
X12992D02*
D03*
X9449D02*
D03*
X20079Y168110D02*
D03*
X16535D02*
D03*
X12992D02*
D03*
X9449D02*
D03*
X174803Y201181D02*
D03*
Y197638D02*
D03*
Y194095D02*
D03*
Y190551D02*
D03*
X181890Y204724D02*
D03*
X178347D02*
D03*
X174803D02*
D03*
X185433Y201181D02*
D03*
X188976D02*
D03*
X192520D02*
D03*
X196063D02*
D03*
X185433Y204724D02*
D03*
X188976D02*
D03*
X192520D02*
D03*
X185433Y190551D02*
D03*
X188976D02*
D03*
X192520D02*
D03*
X196063D02*
D03*
X185433Y194095D02*
D03*
X188976D02*
D03*
X192520D02*
D03*
X196063D02*
D03*
X185433Y197638D02*
D03*
X188976D02*
D03*
X192520D02*
D03*
X196063D02*
D03*
X18504Y190551D02*
D03*
Y194095D02*
D03*
Y197638D02*
D03*
Y201181D02*
D03*
X11417Y204724D02*
D03*
X14961D02*
D03*
X18504D02*
D03*
X-2756D02*
D03*
X787D02*
D03*
X4331D02*
D03*
X7874D02*
D03*
X-6299Y201181D02*
D03*
X-2756D02*
D03*
X787D02*
D03*
X4331D02*
D03*
X-6299Y197638D02*
D03*
X-2756D02*
D03*
X787D02*
D03*
X4331D02*
D03*
X-6299Y194095D02*
D03*
X-2756D02*
D03*
X787D02*
D03*
X4331D02*
D03*
Y190551D02*
D03*
X787D02*
D03*
X-2756D02*
D03*
X-6299D02*
D03*
X144657Y77681D02*
D03*
X126799Y76650D02*
D03*
X90354Y53642D02*
D03*
X62795Y65453D02*
D03*
X53642D02*
D03*
X84842Y67323D02*
D03*
X84842Y70473D02*
D03*
X135236Y67224D02*
D03*
X126417Y58465D02*
D03*
X126516Y67618D02*
D03*
X150591Y46949D02*
D03*
X76476Y59941D02*
D03*
X110335Y61516D02*
D03*
X135728Y58169D02*
D03*
D51*
X136000Y112000D02*
D03*
X190888Y103345D02*
D03*
X32000Y101000D02*
D03*
X65939Y100638D02*
D03*
X96358Y43489D02*
D03*
X105928Y114880D02*
D03*
X104048Y113000D02*
D03*
X135401Y102000D02*
D03*
X142000Y104700D02*
D03*
X164032Y102287D02*
D03*
X40179Y41784D02*
D03*
X39540Y66900D02*
D03*
X39640Y79500D02*
D03*
X39000Y93000D02*
D03*
X21534Y78834D02*
D03*
X21434Y68166D02*
D03*
Y44366D02*
D03*
X-1004Y103328D02*
D03*
X47600Y108900D02*
D03*
X43500Y108700D02*
D03*
X110700Y93200D02*
D03*
X113500Y95700D02*
D03*
X31200Y93000D02*
D03*
X26600Y92000D02*
D03*
X29429Y123425D02*
D03*
X59500Y49500D02*
D03*
X121161Y23524D02*
D03*
X111221Y40354D02*
D03*
X118799Y37402D02*
D03*
X32283Y45374D02*
D03*
X31594Y24902D02*
D03*
X31398Y15945D02*
D03*
X31988Y78740D02*
D03*
X31890Y63779D02*
D03*
X67028Y35827D02*
D03*
X123819Y40354D02*
D03*
Y35335D02*
D03*
X62598Y77854D02*
D03*
X74508Y92421D02*
D03*
X74705Y104232D02*
D03*
X77067Y79626D02*
D03*
X69784Y92323D02*
D03*
X75590Y81988D02*
D03*
X54921Y96752D02*
D03*
X83268Y117717D02*
D03*
X74705Y100984D02*
D03*
X62697Y89173D02*
D03*
X68799Y70276D02*
D03*
X33071Y116043D02*
D03*
X93898Y113779D02*
D03*
X94095Y120276D02*
D03*
X83850Y103171D02*
D03*
X96982Y95607D02*
D03*
X89370Y97047D02*
D03*
X47835Y38484D02*
D03*
X24803Y46850D02*
D03*
X30413Y10728D02*
D03*
X84449Y80413D02*
D03*
X82579Y82579D02*
D03*
X81004Y84941D02*
D03*
X90158Y77165D02*
D03*
X92028Y75197D02*
D03*
X88386Y79134D02*
D03*
X138878Y15536D02*
D03*
X46030Y56529D02*
D03*
X22539Y93110D02*
D03*
X46358Y73721D02*
D03*
X41634Y59055D02*
D03*
X36417Y16732D02*
D03*
X36319Y25787D02*
D03*
X40256Y50098D02*
D03*
X110335Y102165D02*
D03*
X115847Y68110D02*
D03*
X162402Y91634D02*
D03*
X160039Y89370D02*
D03*
X157382Y87106D02*
D03*
X154724Y84547D02*
D03*
X164665Y93898D02*
D03*
X166732Y96000D02*
D03*
X100912Y42789D02*
D03*
X57087Y32776D02*
D03*
X62402Y21949D02*
D03*
X164961Y16535D02*
D03*
X165256Y43799D02*
D03*
X115650Y28445D02*
D03*
X96358Y25477D02*
D03*
X87303Y26476D02*
D03*
X87205Y44488D02*
D03*
X87402Y34350D02*
D03*
X150197Y29035D02*
D03*
X150197Y37992D02*
D03*
X150230Y24672D02*
D03*
X150098Y42028D02*
D03*
X119488Y50886D02*
D03*
X87402Y16043D02*
D03*
X81102Y20768D02*
D03*
X81004Y38780D02*
D03*
X122146Y27165D02*
D03*
X113189Y46063D02*
D03*
X112795Y32087D02*
D03*
X112205Y20965D02*
D03*
X116634Y45472D02*
D03*
X156244Y42913D02*
D03*
X52362Y24311D02*
D03*
X155850Y33366D02*
D03*
X136221Y41437D02*
D03*
X155905Y24114D02*
D03*
X96457Y35335D02*
D03*
X136417Y25591D02*
D03*
X145374Y16634D02*
D03*
X96161Y17323D02*
D03*
X25197Y34744D02*
D03*
X27264Y62402D02*
D03*
X27362Y76968D02*
D03*
X25197Y25886D02*
D03*
X25000Y16929D02*
D03*
X62106Y26673D02*
D03*
X50000Y28150D02*
D03*
X127854Y16732D02*
D03*
X168898Y29724D02*
D03*
D52*
X130610Y76673D02*
D03*
X130610Y67618D02*
D03*
X130610Y58563D02*
D03*
D53*
X153051Y67618D02*
D03*
D54*
X30964Y42547D02*
D03*
X23464Y42547D02*
D03*
X31024Y66339D02*
D03*
X23524D02*
D03*
X31062Y80933D02*
D03*
X23562D02*
D03*
X31220Y96457D02*
D03*
X23720D02*
D03*
D55*
X27264Y34547D02*
D03*
X27324Y58339D02*
D03*
X27362Y72933D02*
D03*
X27520Y88457D02*
D03*
D56*
X90583Y142100D02*
D03*
X102000D02*
D03*
X169900Y142400D02*
D03*
X158483D02*
D03*
X36209Y141700D02*
D03*
X24791D02*
D03*
D57*
X59646Y32776D02*
D03*
Y26476D02*
D03*
X54528Y32776D02*
D03*
Y26476D02*
D03*
X37598Y77559D02*
D03*
X37598Y71260D02*
D03*
X37402Y64862D02*
D03*
Y58563D02*
D03*
X37402Y42028D02*
D03*
Y35728D02*
D03*
X37402Y91142D02*
D03*
Y84842D02*
D03*
D58*
X116240Y108445D02*
D03*
Y113445D02*
D03*
Y118445D02*
D03*
Y123445D02*
D03*
X135728Y108445D02*
D03*
Y113445D02*
D03*
Y118445D02*
D03*
Y123445D02*
D03*
X34744Y123543D02*
D03*
X54232D02*
D03*
X34744Y108543D02*
D03*
Y113543D02*
D03*
Y118543D02*
D03*
X54232Y108543D02*
D03*
Y113543D02*
D03*
Y118543D02*
D03*
D59*
X93896Y102869D02*
D03*
D60*
X98496Y68319D02*
X107354D01*
D61*
X58479Y40748D02*
X58495Y40764D01*
M02*
