G04 Layer_Color=32896*
%FSLAX25Y25*%
%MOIN*%
G70*
G01*
G75*
%ADD32C,0.01000*%
%ADD62C,0.00984*%
%ADD64C,0.00787*%
%ADD66C,0.00492*%
%ADD103C,0.00500*%
D32*
X142348Y53445D02*
X141513Y53927D01*
Y52963D01*
X142348Y53445D01*
X95224Y61898D02*
X95224Y54898D01*
X104225Y54898D01*
Y61898D01*
X95224Y73898D02*
X95224Y66398D01*
X95224Y73898D02*
X104225Y73898D01*
X104225Y66398D01*
X85787Y54964D02*
Y61964D01*
Y54964D02*
X94787Y54965D01*
X94787Y61964D01*
X85787Y66465D02*
X85787Y73964D01*
X94787D01*
X94787Y66465D02*
X94787Y73964D01*
X70642Y65776D02*
X77642Y65776D01*
X77642Y74776D01*
X70642Y74776D02*
X77642Y74776D01*
X58642Y65776D02*
X66142Y65776D01*
X58642Y65776D02*
X58642Y74776D01*
X66142D01*
X13583Y114097D02*
Y121097D01*
X4583D02*
X13583D01*
X4583Y114097D02*
Y121097D01*
X13583Y102097D02*
Y109597D01*
X4583Y102097D02*
X13583D01*
X4583Y109597D02*
X4583Y102097D01*
X13565Y133749D02*
X13565Y140749D01*
X4565D02*
X13565D01*
X4565Y133749D02*
Y140749D01*
X13565Y129249D02*
X13565Y121749D01*
X4565Y121749D02*
X13565Y121749D01*
X4565Y121749D02*
Y129249D01*
X50100Y101100D02*
X54100D01*
X50100D02*
X50100Y106100D01*
X54100D01*
X57100Y101100D02*
X61100D01*
Y106100D01*
X57100D02*
X61100D01*
X58740Y96724D02*
X65740D01*
X58740Y87724D02*
Y96724D01*
Y87724D02*
X65740D01*
X70240Y96724D02*
X77740D01*
Y87724D02*
Y96724D01*
X70240Y87724D02*
X77740D01*
X83165Y110363D02*
Y117363D01*
X74164Y117363D02*
X83165Y117363D01*
X74164Y110363D02*
Y117363D01*
X83165Y98363D02*
X83165Y105863D01*
X74165Y98363D02*
X83165D01*
X74165D02*
Y105863D01*
X83066Y129316D02*
X83066Y136316D01*
X74066Y136316D02*
X83066Y136316D01*
X74066Y129316D02*
Y136316D01*
X83066Y124816D02*
X83066Y117316D01*
X74066D02*
X83066D01*
X74066D02*
Y124816D01*
X31220Y86457D02*
Y93957D01*
Y86457D02*
X33720D01*
X41221D02*
X43720Y86457D01*
X36220Y96457D02*
X38721Y96457D01*
X43720Y93957D02*
X43720Y86457D01*
X49902Y82492D02*
Y86492D01*
X44902Y82492D02*
X49902D01*
X44902D02*
Y86492D01*
X49902Y89492D02*
Y93492D01*
X44902Y93492D02*
X49902Y93492D01*
X44902Y89492D02*
Y93492D01*
X58838Y85799D02*
X65839Y85799D01*
X58838Y76799D02*
Y85799D01*
Y76799D02*
X65838Y76799D01*
X70338Y85799D02*
X77838Y85799D01*
Y76799D02*
Y85799D01*
X70339Y76799D02*
X77838Y76799D01*
X31062Y70933D02*
Y78433D01*
Y70933D02*
X33562Y70933D01*
X41062D02*
X43562Y70933D01*
X36062Y80933D02*
X38562D01*
X43562Y78433D02*
X43562Y70933D01*
X31024Y56339D02*
Y63839D01*
Y56339D02*
X33524Y56339D01*
X41024Y56339D02*
X43524D01*
X36024Y66339D02*
X38524D01*
X43524Y63839D02*
X43524Y56339D01*
X29957Y54697D02*
X36957Y54697D01*
X29957Y45697D02*
Y54697D01*
Y45697D02*
X36957Y45697D01*
X41457Y54697D02*
X48957D01*
Y45697D02*
Y54697D01*
X41457Y45697D02*
X48957D01*
X49902Y37378D02*
X49902Y33378D01*
X44902D02*
X49902D01*
X44902Y37378D02*
X44902Y33378D01*
X49902Y40378D02*
X49902Y44378D01*
X44902Y44378D02*
X49902Y44378D01*
X44902Y40378D02*
X44902Y44378D01*
X32945Y25945D02*
X36945D01*
X32945D02*
Y30945D01*
X36945D01*
X39945Y25945D02*
X43945D01*
Y30945D01*
X39945D02*
X43945D01*
X32750Y18500D02*
X36750D01*
X32750D02*
Y23500D01*
X36750D01*
X39750Y18500D02*
X43750D01*
Y23500D01*
X39750D02*
X43750D01*
X49902Y56213D02*
Y60213D01*
X44902Y56213D02*
X49902D01*
X44902D02*
Y60213D01*
X49902Y63213D02*
Y67213D01*
X44902D02*
X49902D01*
X44902Y63213D02*
Y67213D01*
X50098Y68910D02*
Y72909D01*
X45098Y68910D02*
X50098D01*
X45098D02*
Y72909D01*
X50098Y75910D02*
Y79909D01*
X45098D02*
X50098D01*
X45098Y75910D02*
Y79909D01*
X65400Y15200D02*
X72400D01*
Y24200D01*
X65400D02*
X72400D01*
X53400Y15200D02*
X60900D01*
X53400D02*
Y24200D01*
X60900Y24200D01*
X67027Y24126D02*
X67028Y28126D01*
X62028Y24126D02*
X67027D01*
X62028Y28126D02*
X62028Y24126D01*
X67028Y31126D02*
Y35126D01*
X62028D02*
X67028D01*
X62028Y31126D02*
X62028Y35126D01*
X72500Y15200D02*
Y22200D01*
Y15200D02*
X81500D01*
Y22200D01*
X72500Y26700D02*
Y34200D01*
X81500Y34200D01*
X81500Y26700D02*
X81500Y34200D01*
X75495Y36264D02*
X82495Y36264D01*
Y45264D01*
X75495D02*
X82495D01*
X63495Y36264D02*
X70995Y36264D01*
X63495Y36264D02*
Y45264D01*
X70995D01*
X108800Y128400D02*
X115800Y128400D01*
Y137400D01*
X108800Y137400D02*
X115800Y137400D01*
X96800Y128400D02*
X104300D01*
X96800D02*
Y137400D01*
X104300D01*
X141850Y101000D02*
X145850D01*
X141850D02*
Y106000D01*
X145850D01*
X148850Y101000D02*
X152850D01*
Y106000D01*
X148850Y106000D02*
X152850Y106000D01*
X163300Y125900D02*
X163300Y132900D01*
X154300D02*
X163300D01*
X154300D02*
X154300Y125900D01*
X163300Y121400D02*
X163300Y113900D01*
X154300D02*
X163300D01*
X154300D02*
X154300Y121400D01*
X181800Y128700D02*
X181800Y135700D01*
X172800D02*
X181800D01*
X172800D02*
X172800Y128700D01*
X181800Y116700D02*
X181800Y124200D01*
X172800Y116700D02*
X181800D01*
X172800D02*
Y124200D01*
X205573Y134050D02*
X205573Y141050D01*
X196573D02*
X205573D01*
X196573D02*
X196573Y134050D01*
X205573Y122050D02*
Y129550D01*
X196573Y122050D02*
X205573D01*
X196573D02*
Y129550D01*
X205475Y121113D02*
X205475Y114113D01*
X196475Y121113D02*
X205475D01*
X196475Y114113D02*
Y121113D01*
X205475Y102113D02*
Y109613D01*
X196475Y102113D02*
X205475Y102113D01*
X196475Y102113D02*
X196475Y109613D01*
X181700Y117200D02*
X181700Y110200D01*
X172700Y117200D02*
X181700D01*
X172700Y110200D02*
Y117200D01*
X181700Y105700D02*
X181700Y98200D01*
X172700D02*
X181700D01*
X172700D02*
X172700Y105700D01*
X121362Y66122D02*
Y73122D01*
X112362Y73122D02*
X121362Y73122D01*
X112362Y73122D02*
X112362Y66122D01*
X121362Y54122D02*
Y61622D01*
X112362Y54122D02*
X121362Y54122D01*
X112362Y54122D02*
Y61622D01*
X103405Y54220D02*
Y61220D01*
Y54220D02*
X112406D01*
Y61220D01*
X103405Y65720D02*
Y73220D01*
X112405D01*
X112406Y65720D01*
X127842Y60716D02*
X127842Y53716D01*
X136843D01*
X136843Y60716D02*
X136843Y53716D01*
X127842Y65216D02*
Y72716D01*
X136843Y72716D01*
Y65216D02*
Y72716D01*
X120839Y46024D02*
X124839D01*
X120839D02*
X120839Y51024D01*
X124839D01*
X127839Y46024D02*
X131839Y46024D01*
Y51024D01*
X127839Y51024D02*
X131839Y51024D01*
X120110Y53469D02*
X120110Y46468D01*
X111110Y53469D02*
X120110D01*
X111110Y46468D02*
X111110Y53469D01*
X120110Y34468D02*
Y41969D01*
X111110Y34468D02*
X120110D01*
X111110D02*
Y41969D01*
X120405Y27472D02*
X120405Y34472D01*
X111406Y34472D02*
X120405Y34472D01*
X111406Y34472D02*
X111406Y27472D01*
X120405Y15472D02*
Y22972D01*
X111406Y15472D02*
X120405D01*
X111406D02*
Y22972D01*
X104303Y34378D02*
X111303D01*
X111303Y43378D01*
X104303D02*
X111303D01*
X92303Y34378D02*
X99803Y34378D01*
X92303Y34378D02*
X92303Y43378D01*
X99803Y43378D01*
X104106Y25323D02*
X111106Y25323D01*
Y34323D01*
X104106D02*
X111106D01*
X92106Y25323D02*
X99606D01*
X92106D02*
X92106Y34323D01*
X99606D01*
X104358Y16381D02*
X111358D01*
Y25381D01*
X104358D02*
X111358D01*
X92358Y16381D02*
X99858D01*
X92358Y25381D02*
X92358Y16381D01*
X92358Y25381D02*
X99858D01*
X104205Y43532D02*
X111205D01*
X111205Y52531D02*
X111205Y43532D01*
X104205Y52531D02*
X111205D01*
X92205Y43532D02*
X99705D01*
X92205Y52531D02*
X92205Y43532D01*
X92205Y52531D02*
X99705D01*
X142119Y42591D02*
X149119Y42591D01*
X142119Y33591D02*
Y42591D01*
Y33591D02*
X149119D01*
X153619Y42591D02*
X161119D01*
X161119Y33590D01*
X153619Y33591D02*
X161119Y33590D01*
X121429Y37362D02*
X125429D01*
X121429D02*
Y42362D01*
X125429D01*
X128429Y37362D02*
X132429D01*
Y42362D01*
X128429D02*
X132429D01*
X126854Y20709D02*
X130854D01*
X130854Y15709D01*
X126854D02*
X130854D01*
X119854Y20709D02*
X123854D01*
X119854D02*
X119854Y15709D01*
X123854D01*
X126854Y26024D02*
X130854D01*
X130854Y21024D02*
X130854Y26024D01*
X126854Y21024D02*
X130854D01*
X119854Y26024D02*
X123854D01*
X119854Y21024D02*
Y26024D01*
Y21024D02*
X123854D01*
X140858Y35881D02*
X140858Y28881D01*
X131858Y35881D02*
X140858D01*
X131858Y28881D02*
Y35881D01*
X140858Y16881D02*
X140858Y24381D01*
X131858Y16881D02*
X140858D01*
X131858D02*
Y24381D01*
X142119Y33437D02*
X149119D01*
X142119Y24437D02*
Y33437D01*
Y24437D02*
X149119D01*
X153619Y33437D02*
X161119Y33437D01*
Y24437D02*
Y33437D01*
X153619Y24437D02*
X161119D01*
X142119Y24480D02*
X149119Y24480D01*
X142119Y24480D02*
X142119Y15480D01*
X149119D01*
X153619Y24480D02*
X161119D01*
Y15480D02*
Y24480D01*
X153619Y15480D02*
X161119D01*
X120445Y32047D02*
X124445D01*
X120445Y37047D02*
X120445Y32047D01*
X120445Y37047D02*
X124445D01*
X127445Y32047D02*
X131445Y32047D01*
Y37047D01*
X127445D02*
X131445D01*
X72146Y24126D02*
Y28126D01*
X67146Y24126D02*
X72146Y24126D01*
X67146Y24126D02*
Y28126D01*
X72146Y31126D02*
Y35126D01*
X67146D02*
X72146D01*
X67146Y31126D02*
Y35126D01*
X30964Y32547D02*
Y40047D01*
Y32547D02*
X33464D01*
X40964Y32547D02*
X43464D01*
X35964Y42547D02*
X38464D01*
X43464Y32547D02*
X43464Y40047D01*
D62*
X65512Y126890D02*
X64774Y127316D01*
Y126464D01*
X65512Y126890D01*
X147008Y126791D02*
X146270Y127217D01*
Y126365D01*
X147008Y126791D01*
D64*
X52848Y125886D02*
X53161Y124922D01*
X53981Y124326D01*
X54995D01*
X55815Y124922D01*
X56129Y125886D01*
X134344Y125787D02*
X134657Y124823D01*
X135477Y124227D01*
X136491D01*
X137311Y124823D01*
X137625Y125787D01*
X32035Y147409D02*
X32035Y135991D01*
X48965D01*
X32035Y147409D02*
X48965D01*
X48965Y135991D01*
X165727Y136691D02*
Y148109D01*
Y136691D02*
X182656D01*
X165727Y148109D02*
X182656D01*
Y136691D02*
Y148109D01*
X56129Y125886D02*
X59409D01*
X49567D02*
X52848D01*
X49567Y106201D02*
X59409D01*
Y125886D01*
X49567Y106201D02*
Y125886D01*
X137625Y125787D02*
X140905D01*
X131063D02*
X134344D01*
X131063Y106102D02*
X140905D01*
Y125787D01*
X131063Y106102D02*
Y125787D01*
X114756Y136391D02*
Y147809D01*
X97827D02*
X114756D01*
X97827Y136391D02*
X114756D01*
X97827D02*
Y147809D01*
D66*
X62000Y48000D02*
Y51542D01*
X60229D01*
X59639Y50952D01*
Y49771D01*
X60229Y49181D01*
X62000D01*
X60819D02*
X59639Y48000D01*
X56096D02*
X58458D01*
X56096Y50361D01*
Y50952D01*
X56687Y51542D01*
X57867D01*
X58458Y50952D01*
X54916Y48590D02*
X54325Y48000D01*
X53145D01*
X52554Y48590D01*
Y50952D01*
X53145Y51542D01*
X54325D01*
X54916Y50952D01*
Y50361D01*
X54325Y49771D01*
X52554D01*
X35048Y12639D02*
X34458Y13229D01*
Y14410D01*
X35048Y15000D01*
X37410D01*
X38000Y14410D01*
Y13229D01*
X37410Y12639D01*
X38000Y9096D02*
Y11458D01*
X35639Y9096D01*
X35048D01*
X34458Y9687D01*
Y10868D01*
X35048Y11458D01*
X34458Y7916D02*
Y5554D01*
X35048D01*
X37410Y7916D01*
X38000D01*
X48048Y28639D02*
X47458Y29229D01*
Y30410D01*
X48048Y31000D01*
X50410D01*
X51000Y30410D01*
Y29229D01*
X50410Y28639D01*
X51000Y25096D02*
Y27458D01*
X48639Y25096D01*
X48048D01*
X47458Y25687D01*
Y26867D01*
X48048Y27458D01*
Y23916D02*
X47458Y23325D01*
Y22145D01*
X48048Y21554D01*
X48639D01*
X49229Y22145D01*
Y22735D01*
Y22145D01*
X49819Y21554D01*
X50410D01*
X51000Y22145D01*
Y23325D01*
X50410Y23916D01*
X162000Y85542D02*
Y82590D01*
X161410Y82000D01*
X160229D01*
X159639Y82590D01*
Y85542D01*
X158458Y82000D02*
X157277D01*
X157868D01*
Y85542D01*
X158458Y84952D01*
X124000Y75000D02*
Y78542D01*
X122229D01*
X121639Y77952D01*
Y76771D01*
X122229Y76181D01*
X124000D01*
X122819D02*
X121639Y75000D01*
X118096Y78542D02*
X119277Y77952D01*
X120458Y76771D01*
Y75590D01*
X119868Y75000D01*
X118687D01*
X118096Y75590D01*
Y76181D01*
X118687Y76771D01*
X120458D01*
X116916Y77952D02*
X116325Y78542D01*
X115145D01*
X114554Y77952D01*
Y75590D01*
X115145Y75000D01*
X116325D01*
X116916Y75590D01*
Y77952D01*
X113000Y75000D02*
Y78542D01*
X111229D01*
X110639Y77952D01*
Y76771D01*
X111229Y76181D01*
X113000D01*
X111819D02*
X110639Y75000D01*
X107096Y78542D02*
X109458D01*
Y76771D01*
X108277Y77361D01*
X107687D01*
X107096Y76771D01*
Y75590D01*
X107687Y75000D01*
X108868D01*
X109458Y75590D01*
X105916D02*
X105325Y75000D01*
X104145D01*
X103554Y75590D01*
Y77952D01*
X104145Y78542D01*
X105325D01*
X105916Y77952D01*
Y77361D01*
X105325Y76771D01*
X103554D01*
X163000Y134000D02*
Y137542D01*
X161229D01*
X160639Y136952D01*
Y135771D01*
X161229Y135181D01*
X163000D01*
X161819D02*
X160639Y134000D01*
X157096Y137542D02*
X159458D01*
Y135771D01*
X158277Y136361D01*
X157687D01*
X157096Y135771D01*
Y134590D01*
X157687Y134000D01*
X158868D01*
X159458Y134590D01*
X155916Y136952D02*
X155325Y137542D01*
X154145D01*
X153554Y136952D01*
Y136361D01*
X154145Y135771D01*
X153554Y135181D01*
Y134590D01*
X154145Y134000D01*
X155325D01*
X155916Y134590D01*
Y135181D01*
X155325Y135771D01*
X155916Y136361D01*
Y136952D01*
X155325Y135771D02*
X154145D01*
X83000Y86000D02*
X79458D01*
Y84229D01*
X80048Y83639D01*
X81229D01*
X81819Y84229D01*
Y86000D01*
Y84819D02*
X83000Y83639D01*
X79458Y80096D02*
Y82458D01*
X81229D01*
X80639Y81277D01*
Y80687D01*
X81229Y80096D01*
X82410D01*
X83000Y80687D01*
Y81867D01*
X82410Y82458D01*
X80048Y78916D02*
X79458Y78325D01*
Y77145D01*
X80048Y76554D01*
X80639D01*
X81229Y77145D01*
Y77735D01*
Y77145D01*
X81819Y76554D01*
X82410D01*
X83000Y77145D01*
Y78325D01*
X82410Y78916D01*
X90000Y97000D02*
X86458D01*
Y95229D01*
X87048Y94639D01*
X88229D01*
X88819Y95229D01*
Y97000D01*
Y95819D02*
X90000Y94639D01*
X86458Y91096D02*
Y93458D01*
X88229D01*
X87639Y92277D01*
Y91687D01*
X88229Y91096D01*
X89410D01*
X90000Y91687D01*
Y92867D01*
X89410Y93458D01*
X90000Y87554D02*
Y89916D01*
X87639Y87554D01*
X87048D01*
X86458Y88145D01*
Y89325D01*
X87048Y89916D01*
X18000Y121000D02*
X14458D01*
Y119229D01*
X15048Y118639D01*
X16229D01*
X16819Y119229D01*
Y121000D01*
Y119819D02*
X18000Y118639D01*
Y115687D02*
X14458D01*
X16229Y117458D01*
Y115096D01*
X18000Y112145D02*
X14458D01*
X16229Y113916D01*
Y111554D01*
X88000Y117000D02*
X84458D01*
Y115229D01*
X85048Y114639D01*
X86229D01*
X86819Y115229D01*
Y117000D01*
Y115819D02*
X88000Y114639D01*
Y111687D02*
X84458D01*
X86229Y113458D01*
Y111096D01*
X85048Y109916D02*
X84458Y109325D01*
Y108145D01*
X85048Y107554D01*
X85639D01*
X86229Y108145D01*
Y108735D01*
Y108145D01*
X86819Y107554D01*
X87410D01*
X88000Y108145D01*
Y109325D01*
X87410Y109916D01*
X195000Y121000D02*
X191458D01*
Y119229D01*
X192048Y118639D01*
X193229D01*
X193819Y119229D01*
Y121000D01*
Y119819D02*
X195000Y118639D01*
Y115687D02*
X191458D01*
X193229Y117458D01*
Y115096D01*
X195000Y111554D02*
Y113916D01*
X192639Y111554D01*
X192048D01*
X191458Y112145D01*
Y113325D01*
X192048Y113916D01*
X187000Y117000D02*
X183458D01*
Y115229D01*
X184048Y114639D01*
X185229D01*
X185819Y115229D01*
Y117000D01*
Y115819D02*
X187000Y114639D01*
Y111687D02*
X183458D01*
X185229Y113458D01*
Y111096D01*
X187000Y109916D02*
Y108735D01*
Y109325D01*
X183458D01*
X184048Y109916D01*
X18000Y138000D02*
X14458D01*
Y136229D01*
X15048Y135639D01*
X16229D01*
X16819Y136229D01*
Y138000D01*
Y136819D02*
X18000Y135639D01*
X15048Y134458D02*
X14458Y133868D01*
Y132687D01*
X15048Y132096D01*
X15639D01*
X16229Y132687D01*
Y133277D01*
Y132687D01*
X16819Y132096D01*
X17410D01*
X18000Y132687D01*
Y133868D01*
X17410Y134458D01*
X14458Y128554D02*
X15048Y129735D01*
X16229Y130916D01*
X17410D01*
X18000Y130325D01*
Y129145D01*
X17410Y128554D01*
X16819D01*
X16229Y129145D01*
Y130916D01*
X88000Y136000D02*
X84458D01*
Y134229D01*
X85048Y133639D01*
X86229D01*
X86819Y134229D01*
Y136000D01*
Y134819D02*
X88000Y133639D01*
X85048Y132458D02*
X84458Y131868D01*
Y130687D01*
X85048Y130096D01*
X85639D01*
X86229Y130687D01*
Y131277D01*
Y130687D01*
X86819Y130096D01*
X87410D01*
X88000Y130687D01*
Y131868D01*
X87410Y132458D01*
X84458Y126554D02*
Y128916D01*
X86229D01*
X85639Y127735D01*
Y127145D01*
X86229Y126554D01*
X87410D01*
X88000Y127145D01*
Y128325D01*
X87410Y128916D01*
X195000Y141000D02*
X191458D01*
Y139229D01*
X192048Y138639D01*
X193229D01*
X193819Y139229D01*
Y141000D01*
Y139819D02*
X195000Y138639D01*
X192048Y137458D02*
X191458Y136867D01*
Y135687D01*
X192048Y135096D01*
X192639D01*
X193229Y135687D01*
Y136277D01*
Y135687D01*
X193819Y135096D01*
X194410D01*
X195000Y135687D01*
Y136867D01*
X194410Y137458D01*
X195000Y132145D02*
X191458D01*
X193229Y133916D01*
Y131554D01*
X187000Y136000D02*
X183458D01*
Y134229D01*
X184048Y133639D01*
X185229D01*
X185819Y134229D01*
Y136000D01*
Y134819D02*
X187000Y133639D01*
X184048Y132458D02*
X183458Y131868D01*
Y130687D01*
X184048Y130096D01*
X184639D01*
X185229Y130687D01*
Y131277D01*
Y130687D01*
X185819Y130096D01*
X186410D01*
X187000Y130687D01*
Y131868D01*
X186410Y132458D01*
X184048Y128916D02*
X183458Y128325D01*
Y127145D01*
X184048Y126554D01*
X184639D01*
X185229Y127145D01*
Y127735D01*
Y127145D01*
X185819Y126554D01*
X186410D01*
X187000Y127145D01*
Y128325D01*
X186410Y128916D01*
X126000Y62000D02*
X122458D01*
Y60229D01*
X123048Y59639D01*
X124229D01*
X124819Y60229D01*
Y62000D01*
Y60819D02*
X126000Y59639D01*
Y56096D02*
Y58458D01*
X123639Y56096D01*
X123048D01*
X122458Y56687D01*
Y57867D01*
X123048Y58458D01*
X122458Y52554D02*
X123048Y53735D01*
X124229Y54916D01*
X125410D01*
X126000Y54325D01*
Y53145D01*
X125410Y52554D01*
X124819D01*
X124229Y53145D01*
Y54916D01*
X172000Y23000D02*
X168458D01*
Y21229D01*
X169048Y20639D01*
X170229D01*
X170819Y21229D01*
Y23000D01*
Y21819D02*
X172000Y20639D01*
Y17096D02*
Y19458D01*
X169639Y17096D01*
X169048D01*
X168458Y17687D01*
Y18868D01*
X169048Y19458D01*
X172000Y15916D02*
Y14735D01*
Y15325D01*
X168458D01*
X169048Y15916D01*
X140000Y47000D02*
X136458D01*
Y45229D01*
X137048Y44639D01*
X138229D01*
X138819Y45229D01*
Y47000D01*
Y45819D02*
X140000Y44639D01*
Y41096D02*
Y43458D01*
X137639Y41096D01*
X137048D01*
X136458Y41687D01*
Y42867D01*
X137048Y43458D01*
Y39916D02*
X136458Y39325D01*
Y38145D01*
X137048Y37554D01*
X139410D01*
X140000Y38145D01*
Y39325D01*
X139410Y39916D01*
X137048D01*
X99500Y14000D02*
X95958D01*
Y12229D01*
X96548Y11639D01*
X97729D01*
X98319Y12229D01*
Y14000D01*
Y12819D02*
X99500Y11639D01*
Y10458D02*
Y9277D01*
Y9867D01*
X95958D01*
X96548Y10458D01*
X98910Y7506D02*
X99500Y6916D01*
Y5735D01*
X98910Y5145D01*
X96548D01*
X95958Y5735D01*
Y6916D01*
X96548Y7506D01*
X97139D01*
X97729Y6916D01*
Y5145D01*
X89000Y53000D02*
X85458D01*
Y51229D01*
X86048Y50639D01*
X87229D01*
X87819Y51229D01*
Y53000D01*
Y51819D02*
X89000Y50639D01*
Y49458D02*
Y48277D01*
Y48867D01*
X85458D01*
X86048Y49458D01*
Y46506D02*
X85458Y45916D01*
Y44735D01*
X86048Y44145D01*
X86639D01*
X87229Y44735D01*
X87819Y44145D01*
X88410D01*
X89000Y44735D01*
Y45916D01*
X88410Y46506D01*
X87819D01*
X87229Y45916D01*
X86639Y46506D01*
X86048D01*
X87229Y45916D02*
Y44735D01*
X91000Y33000D02*
X87458D01*
Y31229D01*
X88048Y30639D01*
X89229D01*
X89819Y31229D01*
Y33000D01*
Y31819D02*
X91000Y30639D01*
Y29458D02*
Y28277D01*
Y28868D01*
X87458D01*
X88048Y29458D01*
X87458Y26506D02*
Y24145D01*
X88048D01*
X90410Y26506D01*
X91000D01*
X172000Y33000D02*
X168458D01*
Y31229D01*
X169048Y30639D01*
X170229D01*
X170819Y31229D01*
Y33000D01*
Y31819D02*
X172000Y30639D01*
Y29458D02*
Y28277D01*
Y28868D01*
X168458D01*
X169048Y29458D01*
Y26506D02*
X168458Y25916D01*
Y24735D01*
X169048Y24145D01*
X169639D01*
X170229Y24735D01*
Y25325D01*
Y24735D01*
X170819Y24145D01*
X171410D01*
X172000Y24735D01*
Y25916D01*
X171410Y26506D01*
X89000Y43000D02*
X85458D01*
Y41229D01*
X86048Y40639D01*
X87229D01*
X87819Y41229D01*
Y43000D01*
Y41819D02*
X89000Y40639D01*
Y39458D02*
Y38277D01*
Y38868D01*
X85458D01*
X86048Y39458D01*
X89000Y34145D02*
Y36506D01*
X86639Y34145D01*
X86048D01*
X85458Y34735D01*
Y35916D01*
X86048Y36506D01*
X89000Y23000D02*
X85458D01*
Y21229D01*
X86048Y20639D01*
X87229D01*
X87819Y21229D01*
Y23000D01*
Y21819D02*
X89000Y20639D01*
Y19458D02*
Y18277D01*
Y18868D01*
X85458D01*
X86048Y19458D01*
X89000Y16506D02*
Y15325D01*
Y15916D01*
X85458D01*
X86048Y16506D01*
X171000Y41000D02*
X167458D01*
Y39229D01*
X168048Y38639D01*
X169229D01*
X169819Y39229D01*
Y41000D01*
Y39819D02*
X171000Y38639D01*
X167458Y35096D02*
X168048Y36277D01*
X169229Y37458D01*
X170410D01*
X171000Y36867D01*
Y35687D01*
X170410Y35096D01*
X169819D01*
X169229Y35687D01*
Y37458D01*
X86000Y33000D02*
X82458D01*
Y31229D01*
X83048Y30639D01*
X84229D01*
X84819Y31229D01*
Y33000D01*
Y31819D02*
X86000Y30639D01*
X82458Y27096D02*
Y29458D01*
X84229D01*
X83639Y28277D01*
Y27687D01*
X84229Y27096D01*
X85410D01*
X86000Y27687D01*
Y28868D01*
X85410Y29458D01*
X76000Y46000D02*
Y49542D01*
X74229D01*
X73639Y48952D01*
Y47771D01*
X74229Y47181D01*
X76000D01*
X74819D02*
X73639Y46000D01*
X70096D02*
X72458D01*
X70096Y48361D01*
Y48952D01*
X70687Y49542D01*
X71868D01*
X72458Y48952D01*
X52000Y15500D02*
Y19042D01*
X50229D01*
X49639Y18452D01*
Y17271D01*
X50229Y16681D01*
X52000D01*
X50819D02*
X49639Y15500D01*
X48458D02*
X47277D01*
X47868D01*
Y19042D01*
X48458Y18452D01*
X28800Y62842D02*
Y59300D01*
X27029D01*
X26439Y59890D01*
Y62252D01*
X27029Y62842D01*
X28800D01*
X23487Y59300D02*
Y62842D01*
X25258Y61071D01*
X22896D01*
X29300Y83042D02*
Y79500D01*
X27529D01*
X26939Y80090D01*
Y82452D01*
X27529Y83042D01*
X29300D01*
X25758Y82452D02*
X25168Y83042D01*
X23987D01*
X23396Y82452D01*
Y81861D01*
X23987Y81271D01*
X24577D01*
X23987D01*
X23396Y80681D01*
Y80090D01*
X23987Y79500D01*
X25168D01*
X25758Y80090D01*
X29600Y92642D02*
Y89100D01*
X27829D01*
X27239Y89690D01*
Y92052D01*
X27829Y92642D01*
X29600D01*
X23696Y89100D02*
X26058D01*
X23696Y91461D01*
Y92052D01*
X24287Y92642D01*
X25468D01*
X26058Y92052D01*
X27900Y43042D02*
Y39500D01*
X26129D01*
X25539Y40090D01*
Y42452D01*
X26129Y43042D01*
X27900D01*
X24358Y39500D02*
X23177D01*
X23767D01*
Y43042D01*
X24358Y42452D01*
X108639Y126952D02*
X109229Y127542D01*
X110410D01*
X111000Y126952D01*
Y124590D01*
X110410Y124000D01*
X109229D01*
X108639Y124590D01*
X107458Y126952D02*
X106868Y127542D01*
X105687D01*
X105096Y126952D01*
Y126361D01*
X105687Y125771D01*
X106277D01*
X105687D01*
X105096Y125181D01*
Y124590D01*
X105687Y124000D01*
X106868D01*
X107458Y124590D01*
X103916Y124000D02*
X102735D01*
X103325D01*
Y127542D01*
X103916Y126952D01*
X82639Y57952D02*
X83229Y58542D01*
X84410D01*
X85000Y57952D01*
Y55590D01*
X84410Y55000D01*
X83229D01*
X82639Y55590D01*
X81458Y57952D02*
X80867Y58542D01*
X79687D01*
X79096Y57952D01*
Y57361D01*
X79687Y56771D01*
X80277D01*
X79687D01*
X79096Y56181D01*
Y55590D01*
X79687Y55000D01*
X80867D01*
X81458Y55590D01*
X77916Y57952D02*
X77325Y58542D01*
X76145D01*
X75554Y57952D01*
Y55590D01*
X76145Y55000D01*
X77325D01*
X77916Y55590D01*
Y57952D01*
X94639Y77952D02*
X95229Y78542D01*
X96410D01*
X97000Y77952D01*
Y75590D01*
X96410Y75000D01*
X95229D01*
X94639Y75590D01*
X91096Y75000D02*
X93458D01*
X91096Y77361D01*
Y77952D01*
X91687Y78542D01*
X92867D01*
X93458Y77952D01*
X89916Y75590D02*
X89325Y75000D01*
X88145D01*
X87554Y75590D01*
Y77952D01*
X88145Y78542D01*
X89325D01*
X89916Y77952D01*
Y77361D01*
X89325Y76771D01*
X87554D01*
X81048Y72639D02*
X80458Y73229D01*
Y74410D01*
X81048Y75000D01*
X83410D01*
X84000Y74410D01*
Y73229D01*
X83410Y72639D01*
X84000Y69096D02*
Y71458D01*
X81639Y69096D01*
X81048D01*
X80458Y69687D01*
Y70868D01*
X81048Y71458D01*
X80458Y65554D02*
Y67916D01*
X82229D01*
X81639Y66735D01*
Y66145D01*
X82229Y65554D01*
X83410D01*
X84000Y66145D01*
Y67325D01*
X83410Y67916D01*
X68639Y104952D02*
X69229Y105542D01*
X70410D01*
X71000Y104952D01*
Y102590D01*
X70410Y102000D01*
X69229D01*
X68639Y102590D01*
X65096Y102000D02*
X67458D01*
X65096Y104361D01*
Y104952D01*
X65687Y105542D01*
X66868D01*
X67458Y104952D01*
X63916Y102000D02*
X62735D01*
X63325D01*
Y105542D01*
X63916Y104952D01*
X149639Y98952D02*
X150229Y99542D01*
X151410D01*
X152000Y98952D01*
Y96590D01*
X151410Y96000D01*
X150229D01*
X149639Y96590D01*
X146096Y96000D02*
X148458D01*
X146096Y98361D01*
Y98952D01*
X146687Y99542D01*
X147868D01*
X148458Y98952D01*
X144916D02*
X144325Y99542D01*
X143145D01*
X142554Y98952D01*
Y96590D01*
X143145Y96000D01*
X144325D01*
X144916Y96590D01*
Y98952D01*
X54048Y64639D02*
X53458Y65229D01*
Y66410D01*
X54048Y67000D01*
X56410D01*
X57000Y66410D01*
Y65229D01*
X56410Y64639D01*
X57000Y63458D02*
Y62277D01*
Y62867D01*
X53458D01*
X54048Y63458D01*
X56410Y60506D02*
X57000Y59916D01*
Y58735D01*
X56410Y58145D01*
X54048D01*
X53458Y58735D01*
Y59916D01*
X54048Y60506D01*
X54639D01*
X55229Y59916D01*
Y58145D01*
X52048Y75639D02*
X51458Y76229D01*
Y77410D01*
X52048Y78000D01*
X54410D01*
X55000Y77410D01*
Y76229D01*
X54410Y75639D01*
X55000Y74458D02*
Y73277D01*
Y73867D01*
X51458D01*
X52048Y74458D01*
Y71506D02*
X51458Y70916D01*
Y69735D01*
X52048Y69145D01*
X52639D01*
X53229Y69735D01*
X53819Y69145D01*
X54410D01*
X55000Y69735D01*
Y70916D01*
X54410Y71506D01*
X53819D01*
X53229Y70916D01*
X52639Y71506D01*
X52048D01*
X53229Y70916D02*
Y69735D01*
X52048Y89639D02*
X51458Y90229D01*
Y91410D01*
X52048Y92000D01*
X54410D01*
X55000Y91410D01*
Y90229D01*
X54410Y89639D01*
X55000Y88458D02*
Y87277D01*
Y87867D01*
X51458D01*
X52048Y88458D01*
X51458Y85506D02*
Y83145D01*
X52048D01*
X54410Y85506D01*
X55000D01*
X52048Y42639D02*
X51458Y43229D01*
Y44410D01*
X52048Y45000D01*
X54410D01*
X55000Y44410D01*
Y43229D01*
X54410Y42639D01*
X55000Y41458D02*
Y40277D01*
Y40867D01*
X51458D01*
X52048Y41458D01*
X51458Y36145D02*
X52048Y37325D01*
X53229Y38506D01*
X54410D01*
X55000Y37916D01*
Y36735D01*
X54410Y36145D01*
X53819D01*
X53229Y36735D01*
Y38506D01*
X175639Y151952D02*
X176229Y152542D01*
X177410D01*
X178000Y151952D01*
Y149590D01*
X177410Y149000D01*
X176229D01*
X175639Y149590D01*
X174458Y149000D02*
X173277D01*
X173867D01*
Y152542D01*
X174458Y151952D01*
X169145Y152542D02*
X171506D01*
Y150771D01*
X170325Y151361D01*
X169735D01*
X169145Y150771D01*
Y149590D01*
X169735Y149000D01*
X170916D01*
X171506Y149590D01*
X42630Y133352D02*
X43220Y133942D01*
X44401D01*
X44991Y133352D01*
Y130990D01*
X44401Y130400D01*
X43220D01*
X42630Y130990D01*
X41449Y130400D02*
X40268D01*
X40859D01*
Y133942D01*
X41449Y133352D01*
X36726Y130400D02*
Y133942D01*
X38497Y132171D01*
X36136D01*
X108639Y151952D02*
X109229Y152542D01*
X110410D01*
X111000Y151952D01*
Y149590D01*
X110410Y149000D01*
X109229D01*
X108639Y149590D01*
X107458Y149000D02*
X106277D01*
X106868D01*
Y152542D01*
X107458Y151952D01*
X102145Y149000D02*
X104506D01*
X102145Y151361D01*
Y151952D01*
X102735Y152542D01*
X103916D01*
X104506Y151952D01*
X150639Y51952D02*
X151229Y52542D01*
X152410D01*
X153000Y51952D01*
Y49590D01*
X152410Y49000D01*
X151229D01*
X150639Y49590D01*
X149458Y49000D02*
X148277D01*
X148867D01*
Y52542D01*
X149458Y51952D01*
X146506D02*
X145916Y52542D01*
X144735D01*
X144145Y51952D01*
Y49590D01*
X144735Y49000D01*
X145916D01*
X146506Y49590D01*
Y51952D01*
X120048Y11639D02*
X119458Y12229D01*
Y13410D01*
X120048Y14000D01*
X122410D01*
X123000Y13410D01*
Y12229D01*
X122410Y11639D01*
Y10458D02*
X123000Y9867D01*
Y8687D01*
X122410Y8096D01*
X120048D01*
X119458Y8687D01*
Y9867D01*
X120048Y10458D01*
X120639D01*
X121229Y9867D01*
Y8096D01*
X150639Y46952D02*
X151229Y47542D01*
X152410D01*
X153000Y46952D01*
Y44590D01*
X152410Y44000D01*
X151229D01*
X150639Y44590D01*
X149458Y46952D02*
X148867Y47542D01*
X147687D01*
X147096Y46952D01*
Y46361D01*
X147687Y45771D01*
X147096Y45181D01*
Y44590D01*
X147687Y44000D01*
X148867D01*
X149458Y44590D01*
Y45181D01*
X148867Y45771D01*
X149458Y46361D01*
Y46952D01*
X148867Y45771D02*
X147687D01*
X136639Y51952D02*
X137229Y52542D01*
X138410D01*
X139000Y51952D01*
Y49590D01*
X138410Y49000D01*
X137229D01*
X136639Y49590D01*
X135458Y52542D02*
X133096D01*
Y51952D01*
X135458Y49590D01*
Y49000D01*
X128048Y11639D02*
X127458Y12229D01*
Y13410D01*
X128048Y14000D01*
X130410D01*
X131000Y13410D01*
Y12229D01*
X130410Y11639D01*
X127458Y8096D02*
X128048Y9277D01*
X129229Y10458D01*
X130410D01*
X131000Y9867D01*
Y8687D01*
X130410Y8096D01*
X129819D01*
X129229Y8687D01*
Y10458D01*
X55639Y28952D02*
X56229Y29542D01*
X57410D01*
X58000Y28952D01*
Y26590D01*
X57410Y26000D01*
X56229D01*
X55639Y26590D01*
X52096Y29542D02*
X54458D01*
Y27771D01*
X53277Y28361D01*
X52687D01*
X52096Y27771D01*
Y26590D01*
X52687Y26000D01*
X53868D01*
X54458Y26590D01*
X58639Y34952D02*
X59229Y35542D01*
X60410D01*
X61000Y34952D01*
Y32590D01*
X60410Y32000D01*
X59229D01*
X58639Y32590D01*
X55687Y32000D02*
Y35542D01*
X57458Y33771D01*
X55096D01*
X132639Y76952D02*
X133229Y77542D01*
X134410D01*
X135000Y76952D01*
Y74590D01*
X134410Y74000D01*
X133229D01*
X132639Y74590D01*
X131458Y76952D02*
X130868Y77542D01*
X129687D01*
X129096Y76952D01*
Y76361D01*
X129687Y75771D01*
X130277D01*
X129687D01*
X129096Y75181D01*
Y74590D01*
X129687Y74000D01*
X130868D01*
X131458Y74590D01*
X55000Y130542D02*
Y127590D01*
X54410Y127000D01*
X53229D01*
X52639Y127590D01*
Y130542D01*
X49687Y127000D02*
Y130542D01*
X51458Y128771D01*
X49096D01*
X141000Y130542D02*
Y127590D01*
X140410Y127000D01*
X139229D01*
X138639Y127590D01*
Y130542D01*
X135096D02*
X136277Y129952D01*
X137458Y128771D01*
Y127590D01*
X136867Y127000D01*
X135687D01*
X135096Y127590D01*
Y128181D01*
X135687Y128771D01*
X137458D01*
D103*
X144646Y55020D02*
X161772Y55020D01*
X161772Y80807D02*
X161772Y55020D01*
X144646Y80807D02*
X161772D01*
X144646Y55020D02*
X144646Y80807D01*
M02*
