G04 Layer_Color=16711935*
%FSLAX25Y25*%
%MOIN*%
G70*
G01*
G75*
%ADD69R,0.06800X0.05800*%
%ADD70R,0.03556X0.03950*%
%ADD71R,0.05800X0.06800*%
%ADD86C,0.05721*%
%ADD87R,0.05721X0.05721*%
%ADD88R,0.07690X0.07690*%
%ADD89C,0.07690*%
%ADD90R,0.11627X0.11627*%
%ADD91C,0.11627*%
%ADD92C,0.03753*%
%ADD93C,0.02572*%
%ADD94C,0.02769*%
%ADD95R,0.04540X0.10446*%
%ADD96R,0.07887X0.03162*%
%ADD97R,0.04400X0.05800*%
%ADD98R,0.04400X0.04400*%
%ADD99R,0.03950X0.03556*%
G04:AMPARAMS|DCode=100|XSize=165.48mil|YSize=165.48mil|CornerRadius=11.87mil|HoleSize=0mil|Usage=FLASHONLY|Rotation=225.000|XOffset=0mil|YOffset=0mil|HoleType=Round|Shape=RoundedRectangle|*
%AMROUNDEDRECTD100*
21,1,0.16548,0.14173,0,0,225.0*
21,1,0.14173,0.16548,0,0,225.0*
1,1,0.02375,-0.10022,0.00000*
1,1,0.02375,0.00000,0.10022*
1,1,0.02375,0.10022,0.00000*
1,1,0.02375,0.00000,-0.10022*
%
%ADD100ROUNDEDRECTD100*%
G04:AMPARAMS|DCode=101|XSize=137.92mil|YSize=126.11mil|CornerRadius=9.91mil|HoleSize=0mil|Usage=FLASHONLY|Rotation=90.000|XOffset=0mil|YOffset=0mil|HoleType=Round|Shape=RoundedRectangle|*
%AMROUNDEDRECTD101*
21,1,0.13792,0.10630,0,0,90.0*
21,1,0.11811,0.12611,0,0,90.0*
1,1,0.01981,0.05315,0.05906*
1,1,0.01981,0.05315,-0.05906*
1,1,0.01981,-0.05315,-0.05906*
1,1,0.01981,-0.05315,0.05906*
%
%ADD101ROUNDEDRECTD101*%
%ADD102R,0.07099X0.05524*%
D69*
X53642Y70276D02*
D03*
X62642Y70276D02*
D03*
X62740Y92224D02*
D03*
X53740D02*
D03*
X62839Y81299D02*
D03*
X53838Y81299D02*
D03*
X33957Y50197D02*
D03*
X24957Y50197D02*
D03*
X48400Y19700D02*
D03*
X57400D02*
D03*
X58495Y40764D02*
D03*
X67495Y40764D02*
D03*
X91800Y132900D02*
D03*
X100800D02*
D03*
X87303Y38878D02*
D03*
X96303D02*
D03*
X87106Y29823D02*
D03*
X96106Y29823D02*
D03*
X87358Y20881D02*
D03*
X96358Y20881D02*
D03*
X87205Y48031D02*
D03*
X96205Y48031D02*
D03*
X145319Y38091D02*
D03*
X136319Y38091D02*
D03*
X145319Y28937D02*
D03*
X136319Y28937D02*
D03*
X145319Y19980D02*
D03*
X136319Y19980D02*
D03*
D70*
X42450Y103600D02*
D03*
X48750Y103600D02*
D03*
X25295Y28445D02*
D03*
X31594D02*
D03*
X25100Y21000D02*
D03*
X31399D02*
D03*
X134201Y103500D02*
D03*
X140500Y103500D02*
D03*
X113189Y48524D02*
D03*
X119488D02*
D03*
X113779Y39862D02*
D03*
X120079D02*
D03*
X118504Y18209D02*
D03*
X112205D02*
D03*
X118504Y23524D02*
D03*
X112205D02*
D03*
X112795Y34547D02*
D03*
X119095Y34547D02*
D03*
D71*
X89724Y68898D02*
D03*
X89724Y59898D02*
D03*
X80287Y68964D02*
D03*
X80287Y59964D02*
D03*
X-917Y107097D02*
D03*
Y116097D02*
D03*
X-935Y126749D02*
D03*
Y135749D02*
D03*
X68665Y103363D02*
D03*
Y112363D02*
D03*
X68566Y122316D02*
D03*
Y131316D02*
D03*
X67000Y29200D02*
D03*
Y20200D02*
D03*
X148800Y118900D02*
D03*
X148800Y127900D02*
D03*
X167300Y121700D02*
D03*
X167300Y130700D02*
D03*
X191073Y127050D02*
D03*
X191073Y136050D02*
D03*
X190975Y107113D02*
D03*
Y116113D02*
D03*
X167200Y103200D02*
D03*
Y112200D02*
D03*
X106862Y59122D02*
D03*
X106862Y68122D02*
D03*
X97905Y68220D02*
D03*
Y59220D02*
D03*
X122343Y67716D02*
D03*
X122343Y58716D02*
D03*
X105610Y39469D02*
D03*
X105610Y48469D02*
D03*
X105905Y20472D02*
D03*
X105905Y29472D02*
D03*
X126358Y21881D02*
D03*
Y30881D02*
D03*
D86*
X184900Y6000D02*
D03*
Y16000D02*
D03*
Y26000D02*
D03*
Y36000D02*
D03*
Y46000D02*
D03*
Y56000D02*
D03*
Y66000D02*
D03*
Y76000D02*
D03*
Y86000D02*
D03*
Y96000D02*
D03*
X174900Y6000D02*
D03*
Y16000D02*
D03*
Y26000D02*
D03*
Y36000D02*
D03*
Y46000D02*
D03*
Y56000D02*
D03*
Y66000D02*
D03*
Y76000D02*
D03*
Y86000D02*
D03*
X14900Y6000D02*
D03*
Y16000D02*
D03*
Y26000D02*
D03*
Y36000D02*
D03*
Y46000D02*
D03*
Y56000D02*
D03*
Y66000D02*
D03*
Y76000D02*
D03*
Y86000D02*
D03*
Y96000D02*
D03*
X4900Y6000D02*
D03*
Y16000D02*
D03*
Y26000D02*
D03*
Y36000D02*
D03*
Y46000D02*
D03*
Y56000D02*
D03*
Y66000D02*
D03*
Y76000D02*
D03*
Y86000D02*
D03*
D87*
X174900Y96000D02*
D03*
X4900D02*
D03*
D88*
X44900Y11000D02*
D03*
X94900D02*
D03*
D89*
X54900D02*
D03*
X64900D02*
D03*
X104900D02*
D03*
X114900Y11000D02*
D03*
X124900Y11000D02*
D03*
X134900D02*
D03*
X144900D02*
D03*
D90*
X144488Y222441D02*
D03*
X100394Y222342D02*
D03*
D91*
X124803Y222441D02*
D03*
X61024Y222342D02*
D03*
X80709D02*
D03*
D92*
X90000Y171500D02*
D03*
X112957Y175252D02*
D03*
X109020D02*
D03*
X105083D02*
D03*
X101146D02*
D03*
X83429Y179190D02*
D03*
X81461Y175252D02*
D03*
X34217Y183126D02*
D03*
X30280D02*
D03*
X28311Y179190D02*
D03*
X26343Y183126D02*
D03*
X24374Y179190D02*
D03*
X22406Y175252D02*
D03*
X18469D02*
D03*
X83429Y214623D02*
D03*
Y206749D02*
D03*
X85398Y202812D02*
D03*
X83429Y198875D02*
D03*
X79492Y214623D02*
D03*
X81461Y210686D02*
D03*
X79492Y206749D02*
D03*
X81461Y202812D02*
D03*
X79492Y198875D02*
D03*
X81461Y194938D02*
D03*
X59807Y214623D02*
D03*
X61776Y210686D02*
D03*
X59807Y206749D02*
D03*
X61776Y202812D02*
D03*
X59807Y198875D02*
D03*
X55870Y214623D02*
D03*
X57839Y210686D02*
D03*
X55870Y206749D02*
D03*
X57839Y202812D02*
D03*
Y194938D02*
D03*
X53902Y218560D02*
D03*
X51933Y214623D02*
D03*
X53902Y210686D02*
D03*
X51933Y206749D02*
D03*
X53902Y202812D02*
D03*
X49965Y210686D02*
D03*
Y202812D02*
D03*
X126737Y198875D02*
D03*
X122800D02*
D03*
X124768Y194938D02*
D03*
X118862Y198875D02*
D03*
X120831Y194938D02*
D03*
X114926Y198875D02*
D03*
X116894Y194938D02*
D03*
X110988Y206749D02*
D03*
X112957Y202812D02*
D03*
X109020Y210686D02*
D03*
X107052Y206749D02*
D03*
X109020Y202812D02*
D03*
X103114Y214623D02*
D03*
X105083Y210686D02*
D03*
X99177Y214623D02*
D03*
X101146Y210686D02*
D03*
X179886Y175252D02*
D03*
X175949D02*
D03*
X172012D02*
D03*
X166107Y179190D02*
D03*
X162170D02*
D03*
X160201Y183126D02*
D03*
X158233Y179190D02*
D03*
X156264Y183126D02*
D03*
X154296Y179190D02*
D03*
X152327Y183126D02*
D03*
X150359Y179190D02*
D03*
X152327Y175252D02*
D03*
X146422Y179190D02*
D03*
X148390Y175252D02*
D03*
X86087Y171500D02*
D03*
X82543D02*
D03*
X79000D02*
D03*
X16535Y168110D02*
D03*
Y164567D02*
D03*
X135728Y58169D02*
D03*
X110335Y61516D02*
D03*
X76476Y59941D02*
D03*
X150591Y46949D02*
D03*
X126516Y67618D02*
D03*
X126417Y58465D02*
D03*
X135236Y67224D02*
D03*
X84842Y70473D02*
D03*
X84842Y67323D02*
D03*
X53642Y65453D02*
D03*
X62795D02*
D03*
X90354Y53642D02*
D03*
X126799Y76650D02*
D03*
X144657Y77681D02*
D03*
X-6299Y190551D02*
D03*
X-2756D02*
D03*
X787D02*
D03*
X4331D02*
D03*
Y194095D02*
D03*
X787D02*
D03*
X-2756D02*
D03*
X-6299D02*
D03*
X4331Y197638D02*
D03*
X787D02*
D03*
X-2756D02*
D03*
X-6299D02*
D03*
X4331Y201181D02*
D03*
X787D02*
D03*
X-2756D02*
D03*
X-6299D02*
D03*
X7874Y204724D02*
D03*
X4331D02*
D03*
X787D02*
D03*
X-2756D02*
D03*
X18504D02*
D03*
X14961D02*
D03*
X11417D02*
D03*
X18504Y201181D02*
D03*
Y197638D02*
D03*
Y194095D02*
D03*
Y190551D02*
D03*
X196063Y197638D02*
D03*
X192520D02*
D03*
X188976D02*
D03*
X185433D02*
D03*
X196063Y194095D02*
D03*
X192520D02*
D03*
X188976D02*
D03*
X185433D02*
D03*
X196063Y190551D02*
D03*
X192520D02*
D03*
X188976D02*
D03*
X185433D02*
D03*
X192520Y204724D02*
D03*
X188976D02*
D03*
X185433D02*
D03*
X196063Y201181D02*
D03*
X192520D02*
D03*
X188976D02*
D03*
X185433D02*
D03*
X174803Y204724D02*
D03*
X178347D02*
D03*
X181890D02*
D03*
X174803Y190551D02*
D03*
Y194095D02*
D03*
Y197638D02*
D03*
Y201181D02*
D03*
X9449Y168110D02*
D03*
X12992D02*
D03*
X20079D02*
D03*
X9449Y164567D02*
D03*
X12992D02*
D03*
X20079D02*
D03*
X9449Y161024D02*
D03*
X12992D02*
D03*
X16535D02*
D03*
X20079D02*
D03*
Y157480D02*
D03*
X16535D02*
D03*
X12992D02*
D03*
X9449D02*
D03*
X40945Y157087D02*
D03*
X44488D02*
D03*
X48031D02*
D03*
X51575D02*
D03*
X40945Y153543D02*
D03*
X44488D02*
D03*
X48031D02*
D03*
X51575D02*
D03*
X40945Y150000D02*
D03*
X44488D02*
D03*
X48031D02*
D03*
X51575D02*
D03*
Y146457D02*
D03*
X48031D02*
D03*
X44488D02*
D03*
X40945D02*
D03*
X106693Y168110D02*
D03*
X110236D02*
D03*
X113779D02*
D03*
X117323D02*
D03*
X106693Y164567D02*
D03*
X110236D02*
D03*
X113779D02*
D03*
X117323D02*
D03*
X106693Y161024D02*
D03*
X110236D02*
D03*
X113779D02*
D03*
X117323D02*
D03*
Y157480D02*
D03*
X113779D02*
D03*
X110236D02*
D03*
X106693D02*
D03*
X139370Y168110D02*
D03*
X142913D02*
D03*
X146457D02*
D03*
X150000D02*
D03*
X139370Y164567D02*
D03*
X142913D02*
D03*
X146457D02*
D03*
X150000D02*
D03*
X139370Y161024D02*
D03*
X142913D02*
D03*
X146457D02*
D03*
X150000D02*
D03*
Y157480D02*
D03*
X146457D02*
D03*
X142913D02*
D03*
X139370D02*
D03*
X18330Y141000D02*
D03*
X14787D02*
D03*
X11243D02*
D03*
X7700D02*
D03*
X115930Y140300D02*
D03*
X112387D02*
D03*
X108843D02*
D03*
X105300D02*
D03*
X146430Y140700D02*
D03*
X142887D02*
D03*
X139343D02*
D03*
X135800D02*
D03*
X97523Y53689D02*
D03*
X157500Y62500D02*
D03*
X176230Y218100D02*
D03*
X172687D02*
D03*
X169143D02*
D03*
X165600D02*
D03*
X186787Y218000D02*
D03*
X183243D02*
D03*
X179700D02*
D03*
X172630Y222000D02*
D03*
X169087D02*
D03*
X165543D02*
D03*
X162000D02*
D03*
X172630Y226000D02*
D03*
X169087D02*
D03*
X165543D02*
D03*
X162000D02*
D03*
X172630Y230000D02*
D03*
X169087D02*
D03*
X165543D02*
D03*
X162000D02*
D03*
X172630Y234000D02*
D03*
X169087D02*
D03*
X165543D02*
D03*
X162000D02*
D03*
X186800Y221900D02*
D03*
Y226000D02*
D03*
Y230000D02*
D03*
Y234000D02*
D03*
X18013D02*
D03*
Y230000D02*
D03*
Y226000D02*
D03*
Y221900D02*
D03*
X3843Y234000D02*
D03*
Y230000D02*
D03*
Y226000D02*
D03*
Y222000D02*
D03*
X10913Y218000D02*
D03*
X14457D02*
D03*
X18000D02*
D03*
X3900Y218100D02*
D03*
X7443D02*
D03*
X21700Y234000D02*
D03*
X25243D02*
D03*
X28787D02*
D03*
X21700Y230000D02*
D03*
X25243D02*
D03*
X28787D02*
D03*
X21700Y226000D02*
D03*
X25243D02*
D03*
X28787D02*
D03*
X21700Y222000D02*
D03*
X25243D02*
D03*
X28787D02*
D03*
X25300Y218100D02*
D03*
X21600Y218000D02*
D03*
X84400Y188400D02*
D03*
Y182800D02*
D03*
X55087Y172300D02*
D03*
X51543D02*
D03*
X48000D02*
D03*
X44457D02*
D03*
X171400Y146800D02*
D03*
X174943D02*
D03*
X178487D02*
D03*
X182030D02*
D03*
Y150343D02*
D03*
X178487D02*
D03*
X174943D02*
D03*
X171400D02*
D03*
X182030Y153887D02*
D03*
X178487D02*
D03*
X174943D02*
D03*
X171400D02*
D03*
X182030Y157430D02*
D03*
X178487D02*
D03*
X174943D02*
D03*
X171400D02*
D03*
X56900Y188800D02*
D03*
Y183200D02*
D03*
X75100Y146370D02*
D03*
X78643D02*
D03*
X82187D02*
D03*
X85730D02*
D03*
Y149913D02*
D03*
X82187D02*
D03*
X78643D02*
D03*
X75100D02*
D03*
X85730Y153457D02*
D03*
X82187D02*
D03*
X78643D02*
D03*
X75100D02*
D03*
X85730Y157000D02*
D03*
X82187D02*
D03*
X78643D02*
D03*
X75100D02*
D03*
X52559Y40748D02*
D03*
X157500Y72600D02*
D03*
Y69200D02*
D03*
Y65900D02*
D03*
D93*
X87402Y34350D02*
D03*
X168898Y29724D02*
D03*
X127854Y16732D02*
D03*
X50000Y28150D02*
D03*
X62106Y26673D02*
D03*
X25000Y16929D02*
D03*
X25197Y25886D02*
D03*
X27362Y76968D02*
D03*
X27264Y62402D02*
D03*
X25197Y34744D02*
D03*
X96161Y17323D02*
D03*
X145374Y16634D02*
D03*
X136417Y25591D02*
D03*
X96457Y35335D02*
D03*
X155905Y24114D02*
D03*
X136221Y41437D02*
D03*
X155850Y33366D02*
D03*
X52362Y24311D02*
D03*
X156244Y42913D02*
D03*
X116634Y45472D02*
D03*
X112205Y20965D02*
D03*
X112795Y32087D02*
D03*
X113189Y46063D02*
D03*
X122146Y27165D02*
D03*
X81004Y38780D02*
D03*
X81102Y20768D02*
D03*
X87402Y16043D02*
D03*
X119488Y50886D02*
D03*
X150098Y42028D02*
D03*
X150230Y24672D02*
D03*
X150197Y37992D02*
D03*
X150197Y29035D02*
D03*
X87205Y44488D02*
D03*
X87303Y26476D02*
D03*
X96358Y25477D02*
D03*
X115650Y28445D02*
D03*
X165256Y43799D02*
D03*
X164961Y16535D02*
D03*
X62402Y21949D02*
D03*
X57087Y32776D02*
D03*
X100912Y42789D02*
D03*
X166732Y96000D02*
D03*
X164665Y93898D02*
D03*
X154724Y84547D02*
D03*
X157382Y87106D02*
D03*
X160039Y89370D02*
D03*
X162402Y91634D02*
D03*
X115847Y68110D02*
D03*
X110335Y102165D02*
D03*
X40256Y50098D02*
D03*
X36319Y25787D02*
D03*
X36417Y16732D02*
D03*
X41634Y59055D02*
D03*
X46358Y73721D02*
D03*
X22539Y93110D02*
D03*
X46030Y56529D02*
D03*
X138878Y15536D02*
D03*
X88386Y79134D02*
D03*
X92028Y75197D02*
D03*
X90158Y77165D02*
D03*
X81004Y84941D02*
D03*
X82579Y82579D02*
D03*
X84449Y80413D02*
D03*
X30413Y10728D02*
D03*
X24803Y46850D02*
D03*
X47835Y38484D02*
D03*
X89370Y97047D02*
D03*
X96982Y95607D02*
D03*
X83850Y103171D02*
D03*
X94095Y120276D02*
D03*
X93898Y113779D02*
D03*
X33071Y116043D02*
D03*
X68799Y70276D02*
D03*
X62697Y89173D02*
D03*
X74705Y100984D02*
D03*
X83268Y117717D02*
D03*
X54921Y96752D02*
D03*
X75590Y81988D02*
D03*
X69784Y92323D02*
D03*
X77067Y79626D02*
D03*
X74705Y104232D02*
D03*
X74508Y92421D02*
D03*
X62598Y77854D02*
D03*
X123819Y35335D02*
D03*
Y40354D02*
D03*
X67028Y35827D02*
D03*
X31890Y63779D02*
D03*
X31988Y78740D02*
D03*
X31398Y15945D02*
D03*
X31594Y24902D02*
D03*
X32283Y45374D02*
D03*
X118799Y37402D02*
D03*
X111221Y40354D02*
D03*
X121161Y23524D02*
D03*
X59500Y49500D02*
D03*
X29429Y123425D02*
D03*
X26600Y92000D02*
D03*
X31200Y93000D02*
D03*
X113500Y95700D02*
D03*
X110700Y93200D02*
D03*
X43500Y108700D02*
D03*
X47600Y108900D02*
D03*
X-1004Y103328D02*
D03*
X21434Y44366D02*
D03*
Y68166D02*
D03*
X21534Y78834D02*
D03*
X39000Y93000D02*
D03*
X39640Y79500D02*
D03*
X39540Y66900D02*
D03*
X40179Y41784D02*
D03*
X164032Y102287D02*
D03*
X142000Y104700D02*
D03*
X135401Y102000D02*
D03*
X104048Y113000D02*
D03*
X105928Y114880D02*
D03*
X96358Y43489D02*
D03*
X65939Y100638D02*
D03*
X32000Y101000D02*
D03*
X190888Y103345D02*
D03*
X136000Y112000D02*
D03*
D94*
X87215Y102869D02*
D03*
X89442Y105096D02*
D03*
X91669Y107323D02*
D03*
X93896Y109550D02*
D03*
X89442Y100642D02*
D03*
X91669Y102869D02*
D03*
X93896Y105096D02*
D03*
X96123Y107323D02*
D03*
X91669Y98415D02*
D03*
X93896Y100642D02*
D03*
X98350Y105096D02*
D03*
X93896Y96188D02*
D03*
X96123Y98415D02*
D03*
X100577Y102869D02*
D03*
X98350Y100642D02*
D03*
X96123Y102869D02*
D03*
D95*
X24791Y141700D02*
D03*
X36209D02*
D03*
X158483Y142400D02*
D03*
X169900D02*
D03*
X102000Y142100D02*
D03*
X90583D02*
D03*
D96*
X54232Y118543D02*
D03*
Y113543D02*
D03*
Y108543D02*
D03*
X34744Y118543D02*
D03*
Y113543D02*
D03*
Y108543D02*
D03*
X54232Y123543D02*
D03*
X34744D02*
D03*
X135728Y123445D02*
D03*
Y118445D02*
D03*
Y113445D02*
D03*
Y108445D02*
D03*
X116240Y123445D02*
D03*
Y118445D02*
D03*
Y113445D02*
D03*
Y108445D02*
D03*
D97*
X27520Y88457D02*
D03*
X27362Y72933D02*
D03*
X27324Y58339D02*
D03*
X27264Y34547D02*
D03*
D98*
X23720Y96457D02*
D03*
X31220D02*
D03*
X23562Y80933D02*
D03*
X31062D02*
D03*
X23524Y66339D02*
D03*
X31024D02*
D03*
X23464Y42547D02*
D03*
X30964Y42547D02*
D03*
D99*
X37402Y84842D02*
D03*
Y91142D02*
D03*
X37402Y35728D02*
D03*
Y42028D02*
D03*
X37402Y58563D02*
D03*
Y64862D02*
D03*
X37598Y71260D02*
D03*
X37598Y77559D02*
D03*
X54528Y26476D02*
D03*
Y32776D02*
D03*
X59646Y26476D02*
D03*
Y32776D02*
D03*
D100*
X93896Y102869D02*
D03*
D101*
X153051Y67618D02*
D03*
D102*
X130610Y58563D02*
D03*
X130610Y67618D02*
D03*
X130610Y76673D02*
D03*
M02*
