G04 Layer_Color=8388736*
%FSLAX25Y25*%
%MOIN*%
G70*
G01*
G75*
%ADD68C,0.01969*%
%ADD69R,0.05800X0.06800*%
G04:AMPARAMS|DCode=70|XSize=86.74mil|YSize=185.17mil|CornerRadius=7.94mil|HoleSize=0mil|Usage=FLASHONLY|Rotation=180.000|XOffset=0mil|YOffset=0mil|HoleType=Round|Shape=RoundedRectangle|*
%AMROUNDEDRECTD70*
21,1,0.08674,0.16929,0,0,180.0*
21,1,0.07087,0.18517,0,0,180.0*
1,1,0.01587,-0.03543,0.08465*
1,1,0.01587,0.03543,0.08465*
1,1,0.01587,0.03543,-0.08465*
1,1,0.01587,-0.03543,-0.08465*
%
%ADD70ROUNDEDRECTD70*%
%ADD71R,0.06800X0.05800*%
%ADD72R,0.03556X0.03950*%
%ADD73R,0.11233X0.10249*%
%ADD74R,0.03753X0.04737*%
%ADD75R,0.18753X0.17926*%
%ADD76R,0.02749X0.04343*%
G04:AMPARAMS|DCode=77|XSize=68mil|YSize=58mil|CornerRadius=0mil|HoleSize=0mil|Usage=FLASHONLY|Rotation=135.000|XOffset=0mil|YOffset=0mil|HoleType=Round|Shape=Rectangle|*
%AMROTATEDRECTD77*
4,1,4,0.04455,-0.00354,0.00354,-0.04455,-0.04455,0.00354,-0.00354,0.04455,0.04455,-0.00354,0.0*
%
%ADD77ROTATEDRECTD77*%

G04:AMPARAMS|DCode=78|XSize=68mil|YSize=58mil|CornerRadius=0mil|HoleSize=0mil|Usage=FLASHONLY|Rotation=45.000|XOffset=0mil|YOffset=0mil|HoleType=Round|Shape=Rectangle|*
%AMROTATEDRECTD78*
4,1,4,-0.00354,-0.04455,-0.04455,-0.00354,0.00354,0.04455,0.04455,0.00354,-0.00354,-0.04455,0.0*
%
%ADD78ROTATEDRECTD78*%

G04:AMPARAMS|DCode=79|XSize=116.27mil|YSize=116.27mil|CornerRadius=9.41mil|HoleSize=0mil|Usage=FLASHONLY|Rotation=225.000|XOffset=0mil|YOffset=0mil|HoleType=Round|Shape=RoundedRectangle|*
%AMROUNDEDRECTD79*
21,1,0.11627,0.09744,0,0,225.0*
21,1,0.09744,0.11627,0,0,225.0*
1,1,0.01883,-0.06890,0.00000*
1,1,0.01883,0.00000,0.06890*
1,1,0.01883,0.06890,0.00000*
1,1,0.01883,0.00000,-0.06890*
%
%ADD79ROUNDEDRECTD79*%
G04:AMPARAMS|DCode=80|XSize=19.81mil|YSize=41.47mil|CornerRadius=6.95mil|HoleSize=0mil|Usage=FLASHONLY|Rotation=225.000|XOffset=0mil|YOffset=0mil|HoleType=Round|Shape=RoundedRectangle|*
%AMROUNDEDRECTD80*
21,1,0.01981,0.02756,0,0,225.0*
21,1,0.00591,0.04147,0,0,225.0*
1,1,0.01391,-0.01183,0.00766*
1,1,0.01391,-0.00766,0.01183*
1,1,0.01391,0.01183,-0.00766*
1,1,0.01391,0.00766,-0.01183*
%
%ADD80ROUNDEDRECTD80*%
G04:AMPARAMS|DCode=81|XSize=19.81mil|YSize=41.47mil|CornerRadius=6.95mil|HoleSize=0mil|Usage=FLASHONLY|Rotation=315.000|XOffset=0mil|YOffset=0mil|HoleType=Round|Shape=RoundedRectangle|*
%AMROUNDEDRECTD81*
21,1,0.01981,0.02756,0,0,315.0*
21,1,0.00591,0.04147,0,0,315.0*
1,1,0.01391,-0.00766,-0.01183*
1,1,0.01391,-0.01183,-0.00766*
1,1,0.01391,0.00766,0.01183*
1,1,0.01391,0.01183,0.00766*
%
%ADD81ROUNDEDRECTD81*%
%ADD82R,0.05600X0.04400*%
%ADD83R,0.07887X0.16548*%
%ADD84R,0.07690X0.03359*%
%ADD85R,0.07887X0.03162*%
%ADD86C,0.05721*%
%ADD87R,0.05721X0.05721*%
%ADD88R,0.07690X0.07690*%
%ADD89C,0.07690*%
%ADD90R,0.11627X0.11627*%
%ADD91C,0.11627*%
%ADD92C,0.03753*%
%ADD93C,0.02572*%
%ADD94C,0.02769*%
G36*
X203459Y66788D02*
X203527Y66779D01*
X203609Y66761D01*
X203700Y66734D01*
X203705D01*
X203709Y66729D01*
X203723Y66725D01*
X203741Y66720D01*
X203782Y66702D01*
X203837Y66679D01*
X203896Y66652D01*
X203960Y66615D01*
X204023Y66579D01*
X204082Y66533D01*
X204087Y66529D01*
X204105Y66511D01*
X204133Y66488D01*
X204164Y66456D01*
X204205Y66415D01*
X204242Y66370D01*
X204283Y66320D01*
X204319Y66265D01*
X204324Y66270D01*
X204333Y66283D01*
X204356Y66301D01*
X204383Y66324D01*
X204419Y66351D01*
X204460Y66374D01*
X204510Y66397D01*
X204565Y66411D01*
X204574D01*
X204592Y66415D01*
X204628Y66420D01*
X204679D01*
X204742Y66415D01*
X204815Y66401D01*
X204902Y66383D01*
X205002Y66356D01*
X205006D01*
X205015Y66351D01*
X205029Y66347D01*
X205047Y66338D01*
X205097Y66320D01*
X205156Y66292D01*
X205229Y66256D01*
X205302Y66215D01*
X205375Y66165D01*
X205443Y66115D01*
X205452Y66110D01*
X205470Y66088D01*
X205502Y66060D01*
X205539Y66019D01*
X205579Y65969D01*
X205625Y65915D01*
X205666Y65851D01*
X205707Y65783D01*
X205711Y65774D01*
X205720Y65751D01*
X205739Y65715D01*
X205757Y65664D01*
X205780Y65601D01*
X205798Y65532D01*
X205816Y65455D01*
X205834Y65373D01*
Y65369D01*
Y65364D01*
X205839Y65351D01*
Y65332D01*
X205843Y65287D01*
X205848Y65228D01*
X205857Y65155D01*
X205862Y65078D01*
X205866Y64986D01*
Y64895D01*
Y64268D01*
Y64263D01*
Y64258D01*
Y64245D01*
Y64227D01*
Y64177D01*
X205862Y64113D01*
X205857Y64045D01*
X205853Y63967D01*
X205843Y63885D01*
X205834Y63808D01*
Y63799D01*
X205825Y63776D01*
X205816Y63740D01*
X205802Y63694D01*
X205789Y63640D01*
X205766Y63590D01*
X205739Y63535D01*
X205707Y63485D01*
X205702Y63480D01*
X205689Y63467D01*
X205666Y63444D01*
X205639Y63421D01*
X205602Y63398D01*
X205557Y63371D01*
X205502Y63349D01*
X205443Y63335D01*
X205434D01*
X205411Y63330D01*
X205375D01*
X205325Y63335D01*
X205261Y63339D01*
X205184Y63349D01*
X205097Y63371D01*
X205002Y63398D01*
X204997D01*
X204988Y63403D01*
X204974Y63408D01*
X204956Y63417D01*
X204906Y63435D01*
X204842Y63462D01*
X204774Y63494D01*
X204701Y63535D01*
X204628Y63581D01*
X204565Y63631D01*
X204556Y63635D01*
X204538Y63653D01*
X204510Y63685D01*
X204474Y63722D01*
X204433Y63772D01*
X204392Y63822D01*
X204356Y63881D01*
X204319Y63945D01*
X204315Y63940D01*
X204301Y63931D01*
X204283Y63913D01*
X204255Y63899D01*
X204219Y63876D01*
X204183Y63858D01*
X204133Y63844D01*
X204082Y63835D01*
X204023D01*
X203978Y63840D01*
X203923Y63844D01*
X203860Y63858D01*
X203787Y63876D01*
X203700Y63899D01*
X203696D01*
X203687Y63904D01*
X203678Y63908D01*
X203659Y63913D01*
X203609Y63935D01*
X203555Y63958D01*
X203486Y63990D01*
X203418Y64031D01*
X203350Y64072D01*
X203286Y64122D01*
X203277Y64126D01*
X203259Y64145D01*
X203232Y64177D01*
X203191Y64213D01*
X203150Y64263D01*
X203109Y64318D01*
X203068Y64377D01*
X203031Y64441D01*
X203027Y64450D01*
X203018Y64472D01*
X203000Y64509D01*
X202981Y64559D01*
X202963Y64618D01*
X202941Y64686D01*
X202922Y64759D01*
X202909Y64836D01*
Y64841D01*
Y64845D01*
X202904Y64873D01*
X202900Y64918D01*
X202890Y64973D01*
X202886Y65041D01*
X202881Y65114D01*
X202877Y65196D01*
Y65282D01*
Y65915D01*
Y65919D01*
Y65924D01*
Y65937D01*
Y65956D01*
Y65997D01*
X202881Y66056D01*
X202886Y66119D01*
X202890Y66188D01*
X202909Y66333D01*
Y66342D01*
X202913Y66365D01*
X202922Y66401D01*
X202936Y66443D01*
X202954Y66492D01*
X202972Y66543D01*
X203000Y66597D01*
X203031Y66643D01*
X203036Y66647D01*
X203050Y66661D01*
X203068Y66684D01*
X203095Y66706D01*
X203132Y66729D01*
X203177Y66756D01*
X203227Y66775D01*
X203286Y66788D01*
X203295D01*
X203314Y66793D01*
X203396D01*
X203459Y66788D01*
D02*
G37*
G36*
X205866Y68567D02*
Y67698D01*
X202877Y67261D01*
Y68144D01*
X205061Y68404D01*
X202877Y70169D01*
Y71061D01*
X205866Y68567D01*
D02*
G37*
G36*
X204619Y62802D02*
Y63289D01*
X205193Y63098D01*
Y62611D01*
X205866Y62379D01*
Y61638D01*
X205193Y61870D01*
Y59854D01*
X204669Y60031D01*
X202877Y62334D01*
Y63398D01*
X204619Y62802D01*
D02*
G37*
G36*
X204315Y54958D02*
X205866Y55472D01*
Y54581D01*
X204647Y54153D01*
Y53634D01*
X205866Y53220D01*
Y52419D01*
X202877Y53434D01*
Y54239D01*
X204087Y53825D01*
Y54344D01*
X202877Y55609D01*
Y56455D01*
X204315Y54958D01*
D02*
G37*
G36*
X205866Y57934D02*
Y57133D01*
X202877Y58148D01*
Y58953D01*
X205866Y57934D01*
D02*
G37*
G36*
X152502Y91479D02*
X151928D01*
X154927Y95337D01*
X155509D01*
X152502Y91479D01*
D02*
G37*
G36*
X148225Y94973D02*
X148270D01*
X148325Y94968D01*
X148379D01*
X148498Y94955D01*
X148625Y94941D01*
X148743Y94919D01*
X148798Y94905D01*
X148853Y94891D01*
X148857D01*
X148866Y94887D01*
X148880Y94882D01*
X148898Y94877D01*
X148943Y94855D01*
X148998Y94828D01*
X149062Y94791D01*
X149126Y94746D01*
X149180Y94686D01*
X149226Y94623D01*
X149230Y94614D01*
X149239Y94591D01*
X149258Y94550D01*
X149271Y94491D01*
X149285Y94423D01*
X149294Y94341D01*
Y94245D01*
X149285Y94140D01*
Y94136D01*
Y94127D01*
X149280Y94109D01*
X149276Y94086D01*
X149271Y94059D01*
X149267Y94027D01*
X149258Y93986D01*
X149248Y93940D01*
X149235Y93890D01*
X149221Y93836D01*
X149189Y93713D01*
X149153Y93576D01*
X149103Y93422D01*
Y93417D01*
X149098Y93403D01*
X149089Y93381D01*
X149075Y93349D01*
X149066Y93312D01*
X149048Y93271D01*
X149030Y93221D01*
X149012Y93171D01*
X148966Y93058D01*
X148912Y92935D01*
X148857Y92816D01*
X148798Y92698D01*
Y92694D01*
X148789Y92684D01*
X148780Y92671D01*
X148771Y92648D01*
X148734Y92598D01*
X148689Y92530D01*
X148634Y92452D01*
X148566Y92375D01*
X148488Y92293D01*
X148407Y92220D01*
X148402D01*
X148398Y92211D01*
X148384Y92202D01*
X148366Y92189D01*
X148343Y92175D01*
X148316Y92157D01*
X148252Y92116D01*
X148170Y92075D01*
X148074Y92029D01*
X147965Y91988D01*
X147847Y91952D01*
X147842D01*
X147833Y91947D01*
X147815Y91943D01*
X147788Y91938D01*
X147756Y91934D01*
X147720Y91925D01*
X147674Y91920D01*
X147629Y91911D01*
X147569Y91902D01*
X147510Y91897D01*
X147447Y91888D01*
X147374Y91884D01*
X147219Y91874D01*
X147051Y91870D01*
X146973D01*
X146932Y91874D01*
X146887D01*
X146832Y91879D01*
X146778D01*
X146659Y91888D01*
X146537Y91906D01*
X146414Y91925D01*
X146359Y91938D01*
X146305Y91952D01*
X146300D01*
X146291Y91956D01*
X146277Y91961D01*
X146259Y91966D01*
X146213Y91988D01*
X146159Y92016D01*
X146095Y92052D01*
X146036Y92102D01*
X145977Y92157D01*
X145931Y92220D01*
X145927Y92229D01*
X145918Y92252D01*
X145900Y92293D01*
X145886Y92352D01*
X145872Y92421D01*
X145859Y92502D01*
Y92593D01*
X145868Y92698D01*
Y92703D01*
Y92712D01*
X145872Y92730D01*
X145877Y92753D01*
X145881Y92780D01*
X145890Y92816D01*
X145895Y92853D01*
X145904Y92898D01*
X145918Y92948D01*
X145931Y93003D01*
X145963Y93130D01*
X146000Y93267D01*
X146050Y93422D01*
Y93426D01*
X146054Y93440D01*
X146063Y93463D01*
X146077Y93494D01*
X146091Y93531D01*
X146104Y93572D01*
X146123Y93617D01*
X146141Y93672D01*
X146186Y93781D01*
X146241Y93904D01*
X146295Y94027D01*
X146355Y94140D01*
Y94145D01*
X146364Y94154D01*
X146373Y94168D01*
X146382Y94191D01*
X146400Y94213D01*
X146418Y94245D01*
X146464Y94313D01*
X146518Y94386D01*
X146587Y94468D01*
X146664Y94550D01*
X146746Y94623D01*
X146750D01*
X146755Y94632D01*
X146769Y94641D01*
X146787Y94655D01*
X146810Y94668D01*
X146837Y94686D01*
X146905Y94727D01*
X146983Y94768D01*
X147078Y94814D01*
X147187Y94855D01*
X147306Y94891D01*
X147310D01*
X147319Y94896D01*
X147337Y94900D01*
X147365Y94905D01*
X147397Y94909D01*
X147433Y94919D01*
X147478Y94928D01*
X147529Y94937D01*
X147583Y94941D01*
X147647Y94950D01*
X147711Y94959D01*
X147783Y94964D01*
X147938Y94973D01*
X148106Y94978D01*
X148184D01*
X148225Y94973D01*
D02*
G37*
G36*
X205866Y81002D02*
X205288Y80925D01*
Y79319D01*
X205866Y78846D01*
Y78013D01*
X202877Y80493D01*
Y81362D01*
X205866Y81812D01*
Y81002D01*
D02*
G37*
G36*
X203427Y75274D02*
X203482Y75265D01*
X203546Y75256D01*
X203618Y75238D01*
X203700Y75210D01*
X203709Y75206D01*
X203728Y75201D01*
X203764Y75188D01*
X203805Y75169D01*
X203851Y75151D01*
X203905Y75124D01*
X204010Y75065D01*
X204014Y75060D01*
X204032Y75051D01*
X204055Y75033D01*
X204087Y75010D01*
X204128Y74978D01*
X204169Y74946D01*
X204251Y74865D01*
X204255Y74860D01*
X204269Y74842D01*
X204292Y74819D01*
X204319Y74787D01*
X204351Y74746D01*
X204383Y74696D01*
X204419Y74646D01*
X204456Y74587D01*
X204460Y74578D01*
X204474Y74560D01*
X204492Y74528D01*
X204515Y74482D01*
X204542Y74428D01*
X204578Y74364D01*
X204610Y74296D01*
X204647Y74218D01*
X205238Y72953D01*
Y74673D01*
X205866Y74460D01*
Y71588D01*
X205206Y71816D01*
X204078Y74109D01*
X204073Y74114D01*
X204064Y74132D01*
X204051Y74159D01*
X204032Y74187D01*
X203992Y74259D01*
X203964Y74291D01*
X203937Y74318D01*
X203932Y74323D01*
X203923Y74332D01*
X203905Y74341D01*
X203887Y74360D01*
X203832Y74391D01*
X203764Y74423D01*
X203760D01*
X203741Y74428D01*
X203718Y74437D01*
X203691Y74441D01*
X203632D01*
X203605Y74432D01*
X203582Y74419D01*
X203577D01*
X203573Y74410D01*
X203564Y74396D01*
X203555Y74382D01*
X203546Y74355D01*
X203537Y74328D01*
X203527Y74291D01*
Y74246D01*
Y72371D01*
X202877Y72594D01*
Y74614D01*
Y74619D01*
Y74623D01*
Y74646D01*
Y74682D01*
X202881Y74733D01*
X202886Y74783D01*
X202895Y74842D01*
X202909Y74901D01*
X202922Y74955D01*
Y74960D01*
X202931Y74978D01*
X202941Y75006D01*
X202954Y75042D01*
X202972Y75078D01*
X203000Y75115D01*
X203027Y75156D01*
X203063Y75188D01*
X203068Y75192D01*
X203081Y75201D01*
X203104Y75215D01*
X203132Y75229D01*
X203172Y75247D01*
X203214Y75260D01*
X203263Y75274D01*
X203323Y75279D01*
X203382D01*
X203427Y75274D01*
D02*
G37*
G36*
X203655Y78509D02*
X203668D01*
X203687Y78505D01*
X203709Y78500D01*
X203737Y78495D01*
X203769Y78491D01*
X203809Y78482D01*
X203855Y78473D01*
X203905Y78459D01*
X203960Y78445D01*
X204082Y78413D01*
X204219Y78377D01*
X204374Y78327D01*
X204378D01*
X204392Y78322D01*
X204415Y78313D01*
X204447Y78300D01*
X204483Y78291D01*
X204524Y78272D01*
X204574Y78254D01*
X204624Y78236D01*
X204738Y78191D01*
X204861Y78136D01*
X204979Y78081D01*
X205097Y78022D01*
X205102D01*
X205111Y78013D01*
X205124Y78004D01*
X205147Y77995D01*
X205197Y77959D01*
X205265Y77913D01*
X205343Y77858D01*
X205420Y77790D01*
X205502Y77713D01*
X205575Y77631D01*
Y77626D01*
X205584Y77622D01*
X205593Y77608D01*
X205607Y77590D01*
X205620Y77567D01*
X205639Y77540D01*
X205680Y77476D01*
X205720Y77394D01*
X205766Y77299D01*
X205807Y77190D01*
X205843Y77071D01*
Y77067D01*
X205848Y77058D01*
X205853Y77039D01*
X205857Y77012D01*
X205862Y76980D01*
X205871Y76944D01*
X205875Y76898D01*
X205884Y76853D01*
X205893Y76794D01*
X205898Y76735D01*
X205907Y76671D01*
X205912Y76598D01*
X205921Y76443D01*
X205925Y76275D01*
Y76271D01*
Y76252D01*
Y76230D01*
Y76198D01*
X205921Y76157D01*
Y76111D01*
X205916Y76057D01*
Y76002D01*
X205907Y75884D01*
X205889Y75761D01*
X205871Y75638D01*
X205857Y75583D01*
X205843Y75529D01*
Y75524D01*
X205839Y75515D01*
X205834Y75502D01*
X205830Y75483D01*
X205807Y75438D01*
X205780Y75383D01*
X205743Y75319D01*
X205693Y75260D01*
X205639Y75201D01*
X205575Y75156D01*
X205566Y75151D01*
X205543Y75142D01*
X205502Y75124D01*
X205443Y75110D01*
X205375Y75097D01*
X205293Y75083D01*
X205202D01*
X205097Y75092D01*
X205083D01*
X205065Y75097D01*
X205043Y75101D01*
X205015Y75106D01*
X204979Y75115D01*
X204942Y75119D01*
X204897Y75128D01*
X204847Y75142D01*
X204792Y75156D01*
X204665Y75188D01*
X204528Y75224D01*
X204374Y75274D01*
X204369D01*
X204356Y75279D01*
X204333Y75288D01*
X204301Y75301D01*
X204264Y75315D01*
X204224Y75329D01*
X204178Y75347D01*
X204123Y75365D01*
X204014Y75410D01*
X203891Y75465D01*
X203769Y75520D01*
X203655Y75579D01*
X203650D01*
X203641Y75588D01*
X203627Y75597D01*
X203605Y75606D01*
X203582Y75624D01*
X203550Y75643D01*
X203482Y75688D01*
X203409Y75743D01*
X203327Y75811D01*
X203245Y75888D01*
X203172Y75970D01*
Y75975D01*
X203163Y75979D01*
X203154Y75993D01*
X203141Y76011D01*
X203127Y76034D01*
X203109Y76061D01*
X203068Y76129D01*
X203027Y76207D01*
X202981Y76302D01*
X202941Y76411D01*
X202904Y76530D01*
Y76534D01*
X202900Y76543D01*
X202895Y76562D01*
X202890Y76589D01*
X202886Y76621D01*
X202877Y76657D01*
X202868Y76703D01*
X202859Y76753D01*
X202854Y76807D01*
X202845Y76871D01*
X202836Y76935D01*
X202831Y77008D01*
X202822Y77162D01*
X202818Y77331D01*
Y77335D01*
Y77353D01*
Y77376D01*
Y77408D01*
X202822Y77449D01*
Y77494D01*
X202827Y77549D01*
Y77604D01*
X202840Y77722D01*
X202854Y77849D01*
X202877Y77968D01*
X202890Y78022D01*
X202904Y78077D01*
Y78081D01*
X202909Y78091D01*
X202913Y78104D01*
X202918Y78122D01*
X202941Y78168D01*
X202968Y78222D01*
X203004Y78286D01*
X203050Y78350D01*
X203109Y78404D01*
X203172Y78450D01*
X203182Y78455D01*
X203204Y78464D01*
X203245Y78482D01*
X203305Y78495D01*
X203373Y78509D01*
X203455Y78518D01*
X203550D01*
X203655Y78509D01*
D02*
G37*
G36*
X205866Y28150D02*
Y27281D01*
X202877Y26844D01*
Y27727D01*
X205061Y27986D01*
X202877Y29751D01*
Y30643D01*
X205866Y28150D01*
D02*
G37*
G36*
X203523Y33500D02*
Y31539D01*
X204082Y31348D01*
Y33305D01*
X204660Y33109D01*
Y31153D01*
X205220Y30962D01*
Y32932D01*
X205866Y32713D01*
Y29942D01*
X202877Y30957D01*
Y33723D01*
X203523Y33500D01*
D02*
G37*
G36*
X205866Y25511D02*
Y24537D01*
X203819Y23773D01*
X205866Y23081D01*
Y22335D01*
X202877Y23349D01*
Y24300D01*
X204997Y25065D01*
X202877Y25788D01*
Y26530D01*
X205866Y25511D01*
D02*
G37*
G36*
X205347Y20569D02*
Y20801D01*
X205866Y20624D01*
Y19154D01*
Y19150D01*
Y19132D01*
Y19109D01*
Y19077D01*
X205862Y19041D01*
Y19000D01*
X205853Y18918D01*
Y18913D01*
X205848Y18900D01*
Y18881D01*
X205843Y18859D01*
X205830Y18795D01*
X205816Y18727D01*
X206717Y18449D01*
Y17717D01*
X203973Y18649D01*
Y19386D01*
X204993Y19036D01*
X204997D01*
X205015Y19031D01*
X205038Y19022D01*
X205070Y19018D01*
X205138D01*
X205174Y19022D01*
X205206Y19036D01*
X205211Y19041D01*
X205216Y19050D01*
X205229Y19063D01*
X205243Y19091D01*
X205256Y19123D01*
X205265Y19173D01*
X205275Y19232D01*
X205279Y19305D01*
Y19855D01*
X203973Y20296D01*
Y21034D01*
X205347Y20569D01*
D02*
G37*
G36*
X205866Y21775D02*
Y20974D01*
X202877Y21989D01*
Y22794D01*
X205866Y21775D01*
D02*
G37*
G36*
X203527Y46882D02*
X203609Y46873D01*
X203705Y46850D01*
X203809Y46818D01*
X203814D01*
X203819Y46814D01*
X203832Y46809D01*
X203851Y46800D01*
X203901Y46782D01*
X203960Y46755D01*
X204028Y46723D01*
X204096Y46686D01*
X204169Y46641D01*
X204237Y46595D01*
X204246Y46591D01*
X204264Y46573D01*
X204296Y46545D01*
X204337Y46509D01*
X204383Y46463D01*
X204428Y46413D01*
X204474Y46359D01*
X204515Y46300D01*
X204519Y46304D01*
X204528Y46318D01*
X204547Y46336D01*
X204565Y46363D01*
X204597Y46386D01*
X204628Y46413D01*
X204669Y46432D01*
X204715Y46450D01*
X204719D01*
X204738Y46454D01*
X204765Y46459D01*
X204847D01*
X204906Y46450D01*
X204970Y46441D01*
X205043Y46418D01*
X205866Y46136D01*
Y45335D01*
X205129Y45585D01*
X205124D01*
X205106Y45594D01*
X205083Y45599D01*
X205052Y45603D01*
X205020Y45608D01*
X204988Y45613D01*
X204956Y45608D01*
X204933Y45594D01*
X204929D01*
X204924Y45585D01*
X204915Y45572D01*
X204906Y45549D01*
X204897Y45522D01*
X204888Y45481D01*
X204879Y45426D01*
Y45362D01*
Y44234D01*
X205866Y43897D01*
Y43096D01*
X202877Y44111D01*
Y45986D01*
Y45990D01*
Y45995D01*
Y46008D01*
Y46027D01*
Y46068D01*
X202881Y46122D01*
X202886Y46190D01*
X202890Y46259D01*
X202913Y46409D01*
Y46413D01*
Y46418D01*
X202918Y46441D01*
X202927Y46477D01*
X202941Y46523D01*
X202959Y46573D01*
X202981Y46627D01*
X203009Y46677D01*
X203045Y46727D01*
X203050Y46732D01*
X203063Y46750D01*
X203086Y46768D01*
X203118Y46796D01*
X203159Y46823D01*
X203209Y46850D01*
X203263Y46873D01*
X203332Y46887D01*
X203341D01*
X203364Y46891D01*
X203459D01*
X203527Y46882D01*
D02*
G37*
G36*
X205866Y51864D02*
Y51132D01*
X203891Y51801D01*
X205866Y50308D01*
Y49521D01*
X203882Y49380D01*
X205866Y48707D01*
Y47974D01*
X202877Y48989D01*
Y50058D01*
X205011Y50204D01*
X202877Y51828D01*
Y52879D01*
X205866Y51864D01*
D02*
G37*
G36*
X203523Y43383D02*
Y41422D01*
X204082Y41231D01*
Y43187D01*
X204660Y42992D01*
Y41035D01*
X205220Y40844D01*
Y42814D01*
X205866Y42596D01*
Y39825D01*
X202877Y40840D01*
Y43606D01*
X203523Y43383D01*
D02*
G37*
G36*
X203527Y36999D02*
X203609Y36990D01*
X203705Y36968D01*
X203809Y36936D01*
X203814D01*
X203819Y36931D01*
X203832Y36927D01*
X203851Y36917D01*
X203901Y36899D01*
X203960Y36872D01*
X204028Y36840D01*
X204096Y36804D01*
X204169Y36758D01*
X204237Y36713D01*
X204246Y36708D01*
X204264Y36690D01*
X204296Y36663D01*
X204337Y36626D01*
X204383Y36581D01*
X204428Y36531D01*
X204474Y36476D01*
X204515Y36417D01*
X204519Y36422D01*
X204528Y36435D01*
X204547Y36453D01*
X204565Y36481D01*
X204597Y36503D01*
X204628Y36531D01*
X204669Y36549D01*
X204715Y36567D01*
X204719D01*
X204738Y36572D01*
X204765Y36576D01*
X204847D01*
X204906Y36567D01*
X204970Y36558D01*
X205043Y36535D01*
X205866Y36253D01*
Y35452D01*
X205129Y35703D01*
X205124D01*
X205106Y35712D01*
X205083Y35716D01*
X205052Y35721D01*
X205020Y35725D01*
X204988Y35730D01*
X204956Y35725D01*
X204933Y35712D01*
X204929D01*
X204924Y35703D01*
X204915Y35689D01*
X204906Y35666D01*
X204897Y35639D01*
X204888Y35598D01*
X204879Y35543D01*
Y35480D01*
Y34351D01*
X205866Y34015D01*
Y33214D01*
X202877Y34229D01*
Y36103D01*
Y36108D01*
Y36112D01*
Y36126D01*
Y36144D01*
Y36185D01*
X202881Y36240D01*
X202886Y36308D01*
X202890Y36376D01*
X202913Y36526D01*
Y36531D01*
Y36535D01*
X202918Y36558D01*
X202927Y36595D01*
X202941Y36640D01*
X202959Y36690D01*
X202981Y36745D01*
X203009Y36795D01*
X203045Y36845D01*
X203050Y36849D01*
X203063Y36867D01*
X203086Y36886D01*
X203118Y36913D01*
X203159Y36940D01*
X203209Y36968D01*
X203263Y36990D01*
X203332Y37004D01*
X203341D01*
X203364Y37009D01*
X203459D01*
X203527Y36999D01*
D02*
G37*
G36*
X203523Y40280D02*
Y39220D01*
X205866Y38419D01*
Y37618D01*
X203523Y38414D01*
Y37354D01*
X202877Y37573D01*
Y40498D01*
X203523Y40280D01*
D02*
G37*
G36*
X149047Y97759D02*
X149688D01*
X149520Y97263D01*
X148878D01*
X148642Y96567D01*
Y96562D01*
X148637Y96553D01*
X148633Y96535D01*
Y96512D01*
Y96490D01*
Y96467D01*
X148642Y96444D01*
X148655Y96426D01*
X148660D01*
X148664Y96421D01*
X148678Y96412D01*
X148701Y96408D01*
X148728Y96399D01*
X148764Y96389D01*
X148805Y96385D01*
X149137D01*
X148960Y95866D01*
X148505D01*
X148446Y95871D01*
X148378Y95875D01*
X148309Y95880D01*
X148237Y95889D01*
X148173Y95898D01*
X148164D01*
X148146Y95907D01*
X148118Y95912D01*
X148082Y95925D01*
X148000Y95962D01*
X147959Y95980D01*
X147923Y96007D01*
X147918Y96012D01*
X147909Y96021D01*
X147895Y96039D01*
X147882Y96062D01*
X147863Y96089D01*
X147850Y96126D01*
X147836Y96162D01*
X147832Y96207D01*
Y96212D01*
Y96230D01*
Y96257D01*
X147836Y96289D01*
X147845Y96335D01*
X147854Y96385D01*
X147868Y96444D01*
X147886Y96508D01*
X148146Y97263D01*
X147795D01*
X147964Y97759D01*
X148314D01*
X148541Y98432D01*
X149274D01*
X149047Y97759D01*
D02*
G37*
G36*
X165527Y97304D02*
X164280D01*
X164262Y97299D01*
X164216Y97290D01*
X164171Y97272D01*
X164162Y97268D01*
X164143Y97249D01*
X164116Y97213D01*
X164102Y97190D01*
X164093Y97163D01*
Y97158D01*
X164089Y97149D01*
X164084Y97136D01*
Y97117D01*
Y97076D01*
Y97058D01*
X164093Y97045D01*
X164098Y97040D01*
X164121Y97031D01*
X164134Y97022D01*
X164157Y97017D01*
X164180Y97013D01*
X164894D01*
X164940Y97008D01*
X164990Y97004D01*
X165044Y96999D01*
X165094Y96990D01*
X165140Y96976D01*
X165144D01*
X165158Y96972D01*
X165181Y96963D01*
X165204Y96949D01*
X165263Y96917D01*
X165286Y96894D01*
X165308Y96867D01*
X165313Y96863D01*
X165317Y96854D01*
X165326Y96840D01*
X165336Y96822D01*
X165345Y96794D01*
X165354Y96763D01*
X165358Y96731D01*
Y96690D01*
Y96685D01*
Y96671D01*
X165354Y96649D01*
X165349Y96622D01*
X165345Y96580D01*
X165336Y96539D01*
X165322Y96494D01*
X165308Y96439D01*
Y96435D01*
X165299Y96417D01*
X165290Y96389D01*
X165276Y96358D01*
X165258Y96317D01*
X165235Y96276D01*
X165190Y96189D01*
X165185Y96185D01*
X165176Y96171D01*
X165163Y96153D01*
X165144Y96130D01*
X165117Y96098D01*
X165090Y96071D01*
X165022Y96012D01*
X165017Y96007D01*
X165003Y95998D01*
X164981Y95989D01*
X164953Y95971D01*
X164917Y95953D01*
X164876Y95934D01*
X164831Y95916D01*
X164776Y95903D01*
X164771D01*
X164753Y95898D01*
X164721Y95893D01*
X164680Y95884D01*
X164630Y95880D01*
X164576Y95871D01*
X164512Y95866D01*
X162997D01*
X163156Y96326D01*
X164453D01*
X164471Y96330D01*
X164521Y96339D01*
X164562Y96362D01*
X164567D01*
X164571Y96371D01*
X164594Y96389D01*
X164621Y96426D01*
X164644Y96480D01*
Y96485D01*
X164648Y96494D01*
X164653Y96508D01*
Y96526D01*
X164658Y96562D01*
X164653Y96580D01*
X164644Y96594D01*
X164639Y96599D01*
X164630Y96608D01*
X164621Y96612D01*
X164603Y96622D01*
X164585Y96626D01*
X164558Y96631D01*
X163839D01*
X163793Y96635D01*
X163743Y96640D01*
X163693Y96644D01*
X163638Y96653D01*
X163593Y96662D01*
X163588D01*
X163575Y96671D01*
X163552Y96676D01*
X163529Y96690D01*
X163475Y96722D01*
X163447Y96744D01*
X163425Y96767D01*
Y96772D01*
X163415Y96781D01*
X163411Y96794D01*
X163402Y96817D01*
X163393Y96844D01*
X163384Y96872D01*
X163379Y96908D01*
Y96944D01*
Y96949D01*
Y96963D01*
X163384Y96986D01*
X163388Y97017D01*
X163393Y97054D01*
X163402Y97099D01*
X163415Y97145D01*
X163429Y97199D01*
X163434Y97204D01*
X163438Y97222D01*
X163447Y97249D01*
X163461Y97281D01*
X163479Y97322D01*
X163497Y97359D01*
X163543Y97440D01*
X163547Y97445D01*
X163557Y97459D01*
X163570Y97477D01*
X163588Y97504D01*
X163616Y97531D01*
X163643Y97559D01*
X163711Y97618D01*
X163716Y97623D01*
X163729Y97632D01*
X163752Y97641D01*
X163779Y97659D01*
X163816Y97677D01*
X163857Y97691D01*
X163902Y97709D01*
X163952Y97723D01*
X163957D01*
X163980Y97727D01*
X164007Y97736D01*
X164048Y97741D01*
X164098Y97750D01*
X164157Y97754D01*
X164221Y97759D01*
X165681D01*
X165527Y97304D01*
D02*
G37*
G36*
X152919Y95866D02*
X152181D01*
X152828Y97759D01*
X153565D01*
X152919Y95866D01*
D02*
G37*
G36*
X162592D02*
X161855D01*
X162501Y97759D01*
X163238D01*
X162592Y95866D01*
D02*
G37*
G36*
X151763Y95375D02*
X148965D01*
X149115Y95825D01*
X151918D01*
X151763Y95375D01*
D02*
G37*
G36*
X158046Y97754D02*
X158128Y97750D01*
X158219Y97741D01*
X158306Y97727D01*
X158388Y97714D01*
X158397D01*
X158424Y97704D01*
X158460Y97695D01*
X158506Y97677D01*
X158556Y97659D01*
X158611Y97636D01*
X158656Y97604D01*
X158702Y97572D01*
X158706Y97568D01*
X158720Y97554D01*
X158733Y97536D01*
X158756Y97509D01*
X158774Y97477D01*
X158793Y97436D01*
X158806Y97386D01*
X158815Y97336D01*
Y97331D01*
Y97313D01*
Y97281D01*
X158811Y97240D01*
X158806Y97190D01*
X158793Y97131D01*
X158779Y97067D01*
X158756Y96995D01*
X158370Y95866D01*
X156731D01*
X156686Y95871D01*
X156636Y95875D01*
X156581Y95880D01*
X156531Y95889D01*
X156481Y95898D01*
X156477D01*
X156463Y95907D01*
X156440Y95912D01*
X156418Y95925D01*
X156363Y95957D01*
X156336Y95980D01*
X156313Y96003D01*
Y96007D01*
X156304Y96016D01*
X156295Y96030D01*
X156286Y96053D01*
X156277Y96080D01*
X156272Y96112D01*
X156267Y96148D01*
Y96189D01*
Y96194D01*
X156272Y96212D01*
Y96235D01*
X156281Y96267D01*
X156286Y96307D01*
X156299Y96358D01*
X156313Y96408D01*
X156331Y96467D01*
X156336Y96476D01*
X156340Y96494D01*
X156354Y96521D01*
X156368Y96558D01*
X156386Y96603D01*
X156404Y96644D01*
X156427Y96690D01*
X156449Y96731D01*
X156454Y96735D01*
X156463Y96749D01*
X156477Y96767D01*
X156495Y96790D01*
X156522Y96817D01*
X156550Y96844D01*
X156618Y96899D01*
X156622Y96904D01*
X156636Y96908D01*
X156659Y96922D01*
X156686Y96935D01*
X156718Y96949D01*
X156759Y96963D01*
X156804Y96976D01*
X156854Y96986D01*
X156859D01*
X156877Y96990D01*
X156909Y96995D01*
X156950Y96999D01*
X156995Y97004D01*
X157054Y97008D01*
X157118Y97013D01*
X158101D01*
X158106Y97031D01*
Y97035D01*
X158110Y97040D01*
X158115Y97067D01*
X158124Y97104D01*
Y97145D01*
Y97149D01*
Y97154D01*
X158119Y97172D01*
X158101Y97199D01*
X158092Y97213D01*
X158074Y97227D01*
X158065Y97231D01*
X158055Y97236D01*
X158037Y97245D01*
X158019Y97254D01*
X157992Y97259D01*
X157965Y97268D01*
X157928Y97272D01*
X157924D01*
X157910Y97277D01*
X157887D01*
X157860Y97281D01*
X157824D01*
X157778Y97286D01*
X156882D01*
X157041Y97759D01*
X157969D01*
X158046Y97754D01*
D02*
G37*
G36*
X161072D02*
X161150Y97750D01*
X161231Y97741D01*
X161313Y97727D01*
X161391Y97714D01*
X161400D01*
X161423Y97704D01*
X161459Y97695D01*
X161500Y97682D01*
X161595Y97636D01*
X161641Y97609D01*
X161682Y97577D01*
X161686Y97572D01*
X161696Y97559D01*
X161714Y97540D01*
X161732Y97513D01*
X161750Y97481D01*
X161768Y97440D01*
X161782Y97390D01*
X161786Y97340D01*
Y97336D01*
Y97313D01*
Y97286D01*
X161782Y97245D01*
X161777Y97195D01*
X161764Y97136D01*
X161750Y97072D01*
X161727Y96999D01*
X161341Y95866D01*
X160603D01*
X160958Y96908D01*
Y96913D01*
X160963Y96931D01*
X160972Y96958D01*
X160977Y96986D01*
Y97017D01*
X160972Y97054D01*
X160968Y97081D01*
X160949Y97108D01*
X160945Y97113D01*
X160940Y97117D01*
X160922Y97127D01*
X160899Y97140D01*
X160867Y97154D01*
X160822Y97163D01*
X160763Y97167D01*
X160695Y97172D01*
X160067D01*
X159621Y95866D01*
X158884D01*
X159530Y97759D01*
X160999D01*
X161072Y97754D01*
D02*
G37*
G36*
X154957Y95866D02*
X154147D01*
X153860Y97759D01*
X154616D01*
X154752Y96449D01*
X155790Y97759D01*
X156550D01*
X154957Y95866D01*
D02*
G37*
G36*
X163311Y98077D02*
X162628D01*
X162833Y98673D01*
X163511D01*
X163311Y98077D01*
D02*
G37*
G36*
X152520Y94291D02*
X150996D01*
X150964Y94286D01*
X150927D01*
X150886Y94282D01*
X150804Y94263D01*
X150800D01*
X150786Y94259D01*
X150768Y94254D01*
X150741Y94245D01*
X150677Y94218D01*
X150604Y94177D01*
X150600Y94172D01*
X150591Y94168D01*
X150572Y94154D01*
X150550Y94136D01*
X150522Y94109D01*
X150495Y94081D01*
X150463Y94049D01*
X150431Y94008D01*
X150427Y94004D01*
X150418Y93990D01*
X150404Y93967D01*
X150386Y93936D01*
X150363Y93899D01*
X150336Y93849D01*
X150313Y93799D01*
X150286Y93740D01*
X151628D01*
X151660Y93735D01*
X151701D01*
X151751Y93731D01*
X151856Y93713D01*
X151969Y93685D01*
X152083Y93649D01*
X152133Y93622D01*
X152179Y93594D01*
X152219Y93558D01*
X152256Y93522D01*
Y93517D01*
X152265Y93512D01*
X152270Y93499D01*
X152279Y93481D01*
X152288Y93458D01*
X152301Y93431D01*
X152311Y93399D01*
X152320Y93362D01*
X152329Y93321D01*
X152333Y93271D01*
X152338Y93221D01*
X152333Y93162D01*
X152329Y93098D01*
X152320Y93035D01*
X152301Y92962D01*
X152279Y92885D01*
X152274Y92875D01*
X152265Y92848D01*
X152251Y92807D01*
X152229Y92757D01*
X152201Y92698D01*
X152165Y92634D01*
X152129Y92566D01*
X152083Y92498D01*
X152078Y92489D01*
X152060Y92471D01*
X152038Y92439D01*
X152001Y92398D01*
X151956Y92348D01*
X151906Y92298D01*
X151846Y92248D01*
X151783Y92198D01*
X151774Y92193D01*
X151751Y92175D01*
X151715Y92152D01*
X151660Y92125D01*
X151601Y92093D01*
X151528Y92061D01*
X151446Y92029D01*
X151355Y91997D01*
X151350D01*
X151346Y91993D01*
X151332D01*
X151314Y91988D01*
X151287Y91984D01*
X151260Y91975D01*
X151191Y91966D01*
X151109Y91952D01*
X151014Y91938D01*
X150905Y91934D01*
X150791Y91929D01*
X150140D01*
X150108Y91934D01*
X150026Y91938D01*
X149931Y91943D01*
X149835Y91956D01*
X149735Y91970D01*
X149644Y91988D01*
X149640D01*
X149635Y91993D01*
X149608Y92002D01*
X149567Y92016D01*
X149517Y92038D01*
X149462Y92066D01*
X149403Y92107D01*
X149353Y92152D01*
X149308Y92207D01*
X149303Y92216D01*
X149294Y92238D01*
X149276Y92275D01*
X149258Y92325D01*
X149244Y92389D01*
X149230Y92466D01*
X149221Y92557D01*
X149226Y92662D01*
Y92666D01*
Y92675D01*
X149230Y92694D01*
X149235Y92716D01*
Y92744D01*
X149244Y92780D01*
X149248Y92821D01*
X149258Y92866D01*
X149271Y92917D01*
X149285Y92971D01*
X149298Y93035D01*
X149317Y93103D01*
X149335Y93171D01*
X149358Y93249D01*
X149412Y93412D01*
Y93417D01*
X149421Y93435D01*
X149430Y93458D01*
X149440Y93490D01*
X149453Y93531D01*
X149471Y93576D01*
X149489Y93626D01*
X149512Y93685D01*
X149562Y93804D01*
X149621Y93931D01*
X149681Y94054D01*
X149744Y94172D01*
Y94177D01*
X149753Y94186D01*
X149762Y94200D01*
X149776Y94222D01*
X149813Y94272D01*
X149863Y94341D01*
X149917Y94413D01*
X149986Y94491D01*
X150063Y94564D01*
X150140Y94632D01*
X150145D01*
X150149Y94641D01*
X150163Y94650D01*
X150177Y94659D01*
X150222Y94686D01*
X150281Y94723D01*
X150354Y94759D01*
X150436Y94800D01*
X150527Y94832D01*
X150627Y94859D01*
X150632D01*
X150641Y94864D01*
X150654D01*
X150672Y94868D01*
X150700Y94873D01*
X150732Y94877D01*
X150768Y94882D01*
X150804Y94891D01*
X150896Y94900D01*
X151005Y94909D01*
X151123Y94914D01*
X151250Y94919D01*
X152734D01*
X152520Y94291D01*
D02*
G37*
G36*
X160391Y94973D02*
X160437D01*
X160491Y94968D01*
X160546D01*
X160664Y94955D01*
X160792Y94941D01*
X160910Y94919D01*
X160965Y94905D01*
X161019Y94891D01*
X161024D01*
X161033Y94887D01*
X161047Y94882D01*
X161065Y94877D01*
X161110Y94855D01*
X161165Y94828D01*
X161229Y94791D01*
X161292Y94746D01*
X161347Y94686D01*
X161392Y94623D01*
X161397Y94614D01*
X161406Y94591D01*
X161424Y94550D01*
X161438Y94491D01*
X161451Y94423D01*
X161461Y94341D01*
Y94245D01*
X161451Y94140D01*
Y94136D01*
Y94127D01*
X161447Y94109D01*
X161442Y94086D01*
X161438Y94059D01*
X161433Y94027D01*
X161424Y93986D01*
X161415Y93940D01*
X161401Y93890D01*
X161388Y93836D01*
X161356Y93713D01*
X161319Y93576D01*
X161269Y93422D01*
Y93417D01*
X161265Y93403D01*
X161256Y93381D01*
X161242Y93349D01*
X161233Y93312D01*
X161215Y93271D01*
X161197Y93221D01*
X161179Y93171D01*
X161133Y93058D01*
X161078Y92935D01*
X161024Y92816D01*
X160965Y92698D01*
Y92694D01*
X160956Y92684D01*
X160946Y92671D01*
X160937Y92648D01*
X160901Y92598D01*
X160855Y92530D01*
X160801Y92452D01*
X160733Y92375D01*
X160655Y92293D01*
X160573Y92220D01*
X160569D01*
X160564Y92211D01*
X160551Y92202D01*
X160532Y92189D01*
X160510Y92175D01*
X160482Y92157D01*
X160419Y92116D01*
X160337Y92075D01*
X160241Y92029D01*
X160132Y91988D01*
X160014Y91952D01*
X160009D01*
X160000Y91947D01*
X159982Y91943D01*
X159955Y91938D01*
X159923Y91934D01*
X159886Y91925D01*
X159841Y91920D01*
X159795Y91911D01*
X159736Y91902D01*
X159677Y91897D01*
X159613Y91888D01*
X159540Y91884D01*
X159386Y91874D01*
X159217Y91870D01*
X159140D01*
X159099Y91874D01*
X159054D01*
X158999Y91879D01*
X158944D01*
X158826Y91888D01*
X158703Y91906D01*
X158580Y91925D01*
X158526Y91938D01*
X158471Y91952D01*
X158467D01*
X158458Y91956D01*
X158444Y91961D01*
X158426Y91966D01*
X158380Y91988D01*
X158326Y92016D01*
X158262Y92052D01*
X158203Y92102D01*
X158144Y92157D01*
X158098Y92220D01*
X158094Y92229D01*
X158084Y92252D01*
X158066Y92293D01*
X158053Y92352D01*
X158039Y92421D01*
X158025Y92502D01*
Y92593D01*
X158034Y92698D01*
Y92703D01*
Y92712D01*
X158039Y92730D01*
X158044Y92753D01*
X158048Y92780D01*
X158057Y92816D01*
X158062Y92853D01*
X158071Y92898D01*
X158084Y92948D01*
X158098Y93003D01*
X158130Y93130D01*
X158166Y93267D01*
X158216Y93422D01*
Y93426D01*
X158221Y93440D01*
X158230Y93463D01*
X158244Y93494D01*
X158257Y93531D01*
X158271Y93572D01*
X158289Y93617D01*
X158307Y93672D01*
X158353Y93781D01*
X158407Y93904D01*
X158462Y94027D01*
X158521Y94140D01*
Y94145D01*
X158530Y94154D01*
X158539Y94168D01*
X158549Y94191D01*
X158567Y94213D01*
X158585Y94245D01*
X158631Y94313D01*
X158685Y94386D01*
X158753Y94468D01*
X158831Y94550D01*
X158913Y94623D01*
X158917D01*
X158922Y94632D01*
X158935Y94641D01*
X158953Y94655D01*
X158976Y94668D01*
X159004Y94686D01*
X159072Y94727D01*
X159149Y94768D01*
X159245Y94814D01*
X159354Y94855D01*
X159472Y94891D01*
X159477D01*
X159486Y94896D01*
X159504Y94900D01*
X159531Y94905D01*
X159563Y94909D01*
X159600Y94919D01*
X159645Y94928D01*
X159695Y94937D01*
X159750Y94941D01*
X159813Y94950D01*
X159877Y94959D01*
X159950Y94964D01*
X160105Y94973D01*
X160273Y94978D01*
X160350D01*
X160391Y94973D01*
D02*
G37*
G36*
X157675Y94914D02*
X157725Y94909D01*
X157784Y94900D01*
X157843Y94887D01*
X157898Y94873D01*
X157903D01*
X157921Y94864D01*
X157948Y94855D01*
X157984Y94841D01*
X158021Y94823D01*
X158057Y94796D01*
X158098Y94768D01*
X158130Y94732D01*
X158134Y94727D01*
X158144Y94714D01*
X158157Y94691D01*
X158171Y94664D01*
X158189Y94623D01*
X158203Y94582D01*
X158216Y94532D01*
X158221Y94473D01*
Y94463D01*
Y94445D01*
Y94413D01*
X158216Y94368D01*
X158207Y94313D01*
X158198Y94250D01*
X158180Y94177D01*
X158153Y94095D01*
X158148Y94086D01*
X158144Y94068D01*
X158130Y94031D01*
X158112Y93990D01*
X158094Y93945D01*
X158066Y93890D01*
X158007Y93786D01*
X158003Y93781D01*
X157993Y93763D01*
X157975Y93740D01*
X157952Y93708D01*
X157921Y93667D01*
X157889Y93626D01*
X157807Y93544D01*
X157802Y93540D01*
X157784Y93526D01*
X157761Y93503D01*
X157730Y93476D01*
X157689Y93444D01*
X157639Y93412D01*
X157589Y93376D01*
X157529Y93340D01*
X157520Y93335D01*
X157502Y93321D01*
X157470Y93303D01*
X157425Y93281D01*
X157370Y93253D01*
X157306Y93217D01*
X157238Y93185D01*
X157161Y93148D01*
X155896Y92557D01*
X157616D01*
X157402Y91929D01*
X154531D01*
X154758Y92589D01*
X157052Y93717D01*
X157056Y93722D01*
X157074Y93731D01*
X157102Y93745D01*
X157129Y93763D01*
X157202Y93804D01*
X157234Y93831D01*
X157261Y93858D01*
X157265Y93863D01*
X157275Y93872D01*
X157284Y93890D01*
X157302Y93908D01*
X157334Y93963D01*
X157366Y94031D01*
Y94036D01*
X157370Y94054D01*
X157379Y94077D01*
X157384Y94104D01*
Y94131D01*
Y94163D01*
X157375Y94191D01*
X157361Y94213D01*
Y94218D01*
X157352Y94222D01*
X157338Y94231D01*
X157325Y94240D01*
X157297Y94250D01*
X157270Y94259D01*
X157234Y94268D01*
X155314D01*
X155536Y94919D01*
X157625D01*
X157675Y94914D01*
D02*
G37*
G36*
X165583D02*
X165665Y94909D01*
X165756Y94905D01*
X165856Y94896D01*
X165951Y94877D01*
X166042Y94859D01*
X166047D01*
X166051Y94855D01*
X166079Y94846D01*
X166120Y94832D01*
X166170Y94809D01*
X166229Y94777D01*
X166284Y94741D01*
X166334Y94691D01*
X166379Y94636D01*
X166384Y94627D01*
X166397Y94609D01*
X166411Y94573D01*
X166429Y94523D01*
X166443Y94454D01*
X166456Y94382D01*
X166461Y94291D01*
X166456Y94186D01*
Y94181D01*
Y94172D01*
X166452Y94154D01*
Y94131D01*
X166447Y94104D01*
X166443Y94068D01*
X166434Y94031D01*
X166425Y93981D01*
X166416Y93931D01*
X166402Y93876D01*
X166388Y93813D01*
X166370Y93745D01*
X166352Y93676D01*
X166329Y93599D01*
X166279Y93435D01*
Y93431D01*
X166270Y93412D01*
X166265Y93390D01*
X166252Y93358D01*
X166238Y93317D01*
X166220Y93271D01*
X166202Y93221D01*
X166179Y93162D01*
X166129Y93044D01*
X166070Y92917D01*
X166006Y92789D01*
X165942Y92671D01*
Y92666D01*
X165933Y92657D01*
X165924Y92643D01*
X165910Y92621D01*
X165874Y92571D01*
X165829Y92502D01*
X165769Y92430D01*
X165706Y92352D01*
X165633Y92279D01*
X165551Y92211D01*
X165547D01*
X165542Y92202D01*
X165528Y92198D01*
X165515Y92184D01*
X165469Y92157D01*
X165410Y92120D01*
X165337Y92084D01*
X165251Y92047D01*
X165160Y92016D01*
X165060Y91988D01*
X165055D01*
X165046Y91984D01*
X165032D01*
X165010Y91979D01*
X164987Y91975D01*
X164955Y91970D01*
X164919Y91966D01*
X164882Y91961D01*
X164787Y91947D01*
X164682Y91938D01*
X164568Y91934D01*
X164441Y91929D01*
X162971D01*
X163185Y92557D01*
X164705D01*
X164737Y92562D01*
X164773D01*
X164814Y92566D01*
X164896Y92580D01*
X164900D01*
X164914Y92584D01*
X164932Y92589D01*
X164960Y92598D01*
X165023Y92625D01*
X165092Y92666D01*
X165096Y92671D01*
X165110Y92680D01*
X165128Y92694D01*
X165151Y92716D01*
X165178Y92739D01*
X165205Y92771D01*
X165237Y92807D01*
X165269Y92848D01*
X165273Y92853D01*
X165283Y92871D01*
X165301Y92894D01*
X165319Y92930D01*
X165346Y92971D01*
X165374Y93021D01*
X165401Y93080D01*
X165433Y93148D01*
X164122D01*
X164091Y93153D01*
X164049D01*
X163999Y93158D01*
X163945Y93167D01*
X163890Y93171D01*
X163772Y93199D01*
X163658Y93230D01*
X163599Y93253D01*
X163549Y93281D01*
X163504Y93308D01*
X163463Y93344D01*
Y93349D01*
X163453Y93353D01*
X163444Y93367D01*
X163435Y93381D01*
X163422Y93403D01*
X163408Y93431D01*
X163399Y93463D01*
X163385Y93499D01*
X163376Y93544D01*
X163367Y93590D01*
X163363Y93644D01*
X163367Y93704D01*
X163372Y93767D01*
X163381Y93836D01*
X163399Y93913D01*
X163422Y93995D01*
Y93999D01*
X163426Y94004D01*
X163435Y94027D01*
X163449Y94068D01*
X163472Y94118D01*
X163494Y94172D01*
X163526Y94236D01*
X163563Y94300D01*
X163604Y94363D01*
X163608Y94372D01*
X163626Y94391D01*
X163649Y94423D01*
X163686Y94463D01*
X163726Y94513D01*
X163777Y94559D01*
X163831Y94609D01*
X163895Y94659D01*
X163904Y94664D01*
X163927Y94677D01*
X163963Y94700D01*
X164013Y94727D01*
X164077Y94759D01*
X164150Y94791D01*
X164232Y94823D01*
X164318Y94850D01*
X164322D01*
X164332Y94855D01*
X164345D01*
X164364Y94859D01*
X164386Y94868D01*
X164413Y94873D01*
X164486Y94887D01*
X164568Y94896D01*
X164668Y94909D01*
X164782Y94914D01*
X164900Y94919D01*
X165547D01*
X165583Y94914D01*
D02*
G37*
G36*
X162284Y91929D02*
X161520D01*
X162320Y94291D01*
X161788D01*
X162002Y94919D01*
X163303D01*
X162284Y91929D01*
D02*
G37*
G36*
X153638Y98077D02*
X152955D01*
X153160Y98673D01*
X153838D01*
X153638Y98077D01*
D02*
G37*
%LPC*%
G36*
X203696Y66024D02*
X203655D01*
X203614Y66019D01*
X203577Y66006D01*
X203550Y65983D01*
X203546Y65978D01*
X203541Y65969D01*
X203532Y65951D01*
X203518Y65928D01*
X203505Y65896D01*
X203496Y65855D01*
X203491Y65810D01*
X203486Y65760D01*
Y65023D01*
Y65018D01*
Y64996D01*
X203491Y64968D01*
X203496Y64932D01*
X203500Y64891D01*
X203514Y64845D01*
X203527Y64795D01*
X203550Y64750D01*
X203555Y64745D01*
X203564Y64732D01*
X203582Y64709D01*
X203605Y64682D01*
X203641Y64654D01*
X203682Y64622D01*
X203737Y64595D01*
X203800Y64568D01*
X203805D01*
X203814Y64563D01*
X203832Y64559D01*
X203855Y64554D01*
X203905Y64545D01*
X203955Y64541D01*
X203964D01*
X203987Y64550D01*
X204014Y64563D01*
X204042Y64582D01*
X204046Y64586D01*
X204060Y64609D01*
X204073Y64636D01*
X204087Y64677D01*
Y64682D01*
Y64686D01*
X204092Y64714D01*
X204096Y64754D01*
X204101Y64805D01*
Y65560D01*
Y65564D01*
Y65573D01*
Y65587D01*
Y65601D01*
X204096Y65646D01*
X204087Y65692D01*
Y65696D01*
X204082Y65705D01*
X204078Y65733D01*
X204060Y65774D01*
X204042Y65815D01*
Y65819D01*
X204037Y65824D01*
X204019Y65851D01*
X203992Y65883D01*
X203951Y65919D01*
X203946Y65924D01*
X203941Y65928D01*
X203928Y65937D01*
X203910Y65947D01*
X203860Y65974D01*
X203796Y66001D01*
X203787Y66006D01*
X203764Y66010D01*
X203737Y66019D01*
X203696Y66024D01*
D02*
G37*
G36*
X204806Y65674D02*
X204719D01*
X204683Y65660D01*
X204651Y65637D01*
X204647Y65633D01*
X204642Y65623D01*
X204628Y65605D01*
X204615Y65583D01*
X204606Y65551D01*
X204592Y65514D01*
X204588Y65469D01*
X204583Y65414D01*
Y64622D01*
Y64618D01*
Y64595D01*
X204588Y64568D01*
X204592Y64531D01*
X204601Y64486D01*
X204610Y64441D01*
X204628Y64390D01*
X204651Y64345D01*
X204656Y64340D01*
X204665Y64327D01*
X204683Y64304D01*
X204710Y64277D01*
X204742Y64249D01*
X204788Y64218D01*
X204842Y64190D01*
X204906Y64163D01*
X204915Y64158D01*
X204938Y64154D01*
X204970Y64145D01*
X205011Y64140D01*
X205056Y64136D01*
X205102Y64140D01*
X205138Y64149D01*
X205170Y64172D01*
X205174Y64177D01*
X205179Y64186D01*
X205193Y64208D01*
X205202Y64231D01*
X205216Y64268D01*
X205229Y64309D01*
X205234Y64354D01*
X205238Y64409D01*
Y65182D01*
Y65191D01*
Y65209D01*
X205234Y65237D01*
X205229Y65273D01*
X205220Y65319D01*
X205211Y65364D01*
X205193Y65414D01*
X205170Y65460D01*
X205165Y65464D01*
X205156Y65478D01*
X205138Y65501D01*
X205111Y65528D01*
X205074Y65560D01*
X205029Y65592D01*
X204974Y65623D01*
X204906Y65651D01*
X204897Y65655D01*
X204874Y65660D01*
X204842Y65669D01*
X204806Y65674D01*
D02*
G37*
G36*
X203418Y62470D02*
X204619Y60937D01*
Y62061D01*
X203418Y62470D01*
D02*
G37*
G36*
X147974Y94332D02*
X147847D01*
X147801Y94327D01*
X147742D01*
X147674Y94318D01*
X147606Y94309D01*
X147538Y94300D01*
X147469Y94282D01*
X147460D01*
X147442Y94272D01*
X147410Y94259D01*
X147369Y94245D01*
X147324Y94222D01*
X147274Y94195D01*
X147228Y94159D01*
X147178Y94122D01*
X147174Y94118D01*
X147160Y94104D01*
X147137Y94081D01*
X147110Y94049D01*
X147078Y94008D01*
X147042Y93963D01*
X147005Y93908D01*
X146973Y93845D01*
X146969Y93836D01*
X146960Y93813D01*
X146941Y93776D01*
X146923Y93726D01*
X146896Y93667D01*
X146869Y93594D01*
X146837Y93512D01*
X146805Y93422D01*
Y93417D01*
X146800Y93412D01*
X146796Y93399D01*
X146791Y93381D01*
X146778Y93335D01*
X146759Y93276D01*
X146737Y93208D01*
X146719Y93139D01*
X146700Y93067D01*
X146687Y92998D01*
Y92989D01*
X146682Y92971D01*
X146678Y92939D01*
Y92898D01*
Y92853D01*
Y92807D01*
X146687Y92762D01*
X146700Y92716D01*
X146705Y92712D01*
X146710Y92698D01*
X146723Y92680D01*
X146741Y92657D01*
X146769Y92634D01*
X146800Y92607D01*
X146837Y92584D01*
X146882Y92562D01*
X146887D01*
X146910Y92553D01*
X146937Y92548D01*
X146983Y92539D01*
X147037Y92530D01*
X147105Y92521D01*
X147183Y92516D01*
X147269Y92511D01*
X147310D01*
X147356Y92516D01*
X147415D01*
X147483Y92525D01*
X147551Y92534D01*
X147619Y92543D01*
X147688Y92562D01*
X147697Y92566D01*
X147715Y92571D01*
X147747Y92584D01*
X147788Y92598D01*
X147833Y92621D01*
X147879Y92648D01*
X147929Y92680D01*
X147974Y92716D01*
X147979Y92721D01*
X147993Y92734D01*
X148015Y92762D01*
X148043Y92794D01*
X148074Y92835D01*
X148111Y92880D01*
X148147Y92935D01*
X148179Y92998D01*
X148184Y93007D01*
X148193Y93030D01*
X148211Y93067D01*
X148234Y93117D01*
X148257Y93176D01*
X148288Y93249D01*
X148316Y93331D01*
X148347Y93422D01*
Y93426D01*
X148352Y93431D01*
X148357Y93444D01*
X148361Y93463D01*
X148375Y93508D01*
X148393Y93567D01*
X148416Y93635D01*
X148434Y93704D01*
X148452Y93776D01*
X148466Y93845D01*
Y93854D01*
X148470Y93872D01*
X148475Y93904D01*
Y93945D01*
Y93990D01*
Y94036D01*
X148466Y94081D01*
X148452Y94122D01*
Y94127D01*
X148443Y94140D01*
X148429Y94159D01*
X148411Y94181D01*
X148388Y94209D01*
X148357Y94236D01*
X148316Y94259D01*
X148270Y94282D01*
X148266Y94286D01*
X148247Y94291D01*
X148215Y94300D01*
X148175Y94309D01*
X148120Y94318D01*
X148052Y94322D01*
X147974Y94332D01*
D02*
G37*
G36*
X204679Y80839D02*
X203587Y80693D01*
X204679Y79815D01*
Y80839D01*
D02*
G37*
G36*
X203891Y77699D02*
X203760D01*
X203714Y77690D01*
X203673Y77676D01*
X203668D01*
X203655Y77667D01*
X203637Y77654D01*
X203614Y77636D01*
X203587Y77613D01*
X203559Y77581D01*
X203537Y77540D01*
X203514Y77494D01*
X203509Y77490D01*
X203505Y77472D01*
X203496Y77440D01*
X203486Y77399D01*
X203477Y77344D01*
X203473Y77276D01*
X203464Y77199D01*
Y77112D01*
Y77108D01*
Y77103D01*
Y77090D01*
Y77071D01*
X203468Y77026D01*
Y76967D01*
X203477Y76898D01*
X203486Y76830D01*
X203496Y76762D01*
X203514Y76694D01*
Y76684D01*
X203523Y76666D01*
X203537Y76635D01*
X203550Y76594D01*
X203573Y76548D01*
X203600Y76498D01*
X203637Y76452D01*
X203673Y76402D01*
X203678Y76398D01*
X203691Y76384D01*
X203714Y76362D01*
X203746Y76334D01*
X203787Y76302D01*
X203832Y76266D01*
X203887Y76230D01*
X203951Y76198D01*
X203960Y76193D01*
X203982Y76184D01*
X204019Y76166D01*
X204069Y76148D01*
X204128Y76120D01*
X204201Y76093D01*
X204283Y76061D01*
X204374Y76029D01*
X204378D01*
X204383Y76025D01*
X204397Y76020D01*
X204415Y76016D01*
X204460Y76002D01*
X204519Y75984D01*
X204588Y75961D01*
X204656Y75943D01*
X204729Y75925D01*
X204797Y75911D01*
X204806D01*
X204824Y75906D01*
X204856Y75902D01*
X204988D01*
X205033Y75911D01*
X205079Y75925D01*
X205083Y75929D01*
X205097Y75934D01*
X205115Y75947D01*
X205138Y75966D01*
X205161Y75993D01*
X205188Y76025D01*
X205211Y76061D01*
X205234Y76107D01*
Y76111D01*
X205243Y76134D01*
X205247Y76161D01*
X205256Y76207D01*
X205265Y76261D01*
X205275Y76330D01*
X205279Y76407D01*
X205284Y76493D01*
Y76498D01*
Y76503D01*
Y76516D01*
Y76534D01*
X205279Y76580D01*
Y76639D01*
X205270Y76707D01*
X205261Y76775D01*
X205252Y76844D01*
X205234Y76912D01*
X205229Y76921D01*
X205225Y76939D01*
X205211Y76971D01*
X205197Y77012D01*
X205174Y77058D01*
X205147Y77103D01*
X205115Y77153D01*
X205079Y77199D01*
X205074Y77203D01*
X205061Y77217D01*
X205033Y77240D01*
X205002Y77267D01*
X204961Y77299D01*
X204915Y77335D01*
X204861Y77372D01*
X204797Y77403D01*
X204788Y77408D01*
X204765Y77417D01*
X204729Y77435D01*
X204679Y77458D01*
X204619Y77481D01*
X204547Y77513D01*
X204465Y77540D01*
X204374Y77572D01*
X204369D01*
X204365Y77576D01*
X204351Y77581D01*
X204333Y77585D01*
X204287Y77599D01*
X204228Y77617D01*
X204160Y77640D01*
X204092Y77658D01*
X204019Y77676D01*
X203951Y77690D01*
X203941D01*
X203923Y77695D01*
X203891Y77699D01*
D02*
G37*
G36*
X203718Y46049D02*
X203705D01*
X203678Y46045D01*
X203641Y46036D01*
X203605Y46018D01*
X203600Y46013D01*
X203582Y45995D01*
X203564Y45968D01*
X203550Y45926D01*
Y45922D01*
X203546Y45917D01*
X203541Y45890D01*
X203537Y45845D01*
X203532Y45795D01*
Y44689D01*
X204274Y44439D01*
Y45540D01*
Y45544D01*
Y45553D01*
Y45567D01*
Y45585D01*
X204269Y45631D01*
X204260Y45681D01*
Y45685D01*
X204255Y45695D01*
X204251Y45708D01*
X204246Y45726D01*
X204228Y45767D01*
X204201Y45813D01*
Y45817D01*
X204192Y45822D01*
X204173Y45849D01*
X204137Y45886D01*
X204092Y45926D01*
X204087Y45931D01*
X204078Y45936D01*
X204064Y45945D01*
X204042Y45958D01*
X204014Y45972D01*
X203978Y45986D01*
X203941Y46004D01*
X203901Y46018D01*
X203896D01*
X203882Y46022D01*
X203860Y46031D01*
X203837Y46036D01*
X203778Y46045D01*
X203718Y46049D01*
D02*
G37*
G36*
Y36167D02*
X203705D01*
X203678Y36162D01*
X203641Y36153D01*
X203605Y36135D01*
X203600Y36130D01*
X203582Y36112D01*
X203564Y36085D01*
X203550Y36044D01*
Y36039D01*
X203546Y36035D01*
X203541Y36007D01*
X203537Y35962D01*
X203532Y35912D01*
Y34806D01*
X204274Y34556D01*
Y35657D01*
Y35662D01*
Y35671D01*
Y35684D01*
Y35703D01*
X204269Y35748D01*
X204260Y35798D01*
Y35803D01*
X204255Y35812D01*
X204251Y35825D01*
X204246Y35844D01*
X204228Y35885D01*
X204201Y35930D01*
Y35935D01*
X204192Y35939D01*
X204173Y35967D01*
X204137Y36003D01*
X204092Y36044D01*
X204087Y36048D01*
X204078Y36053D01*
X204064Y36062D01*
X204042Y36076D01*
X204014Y36089D01*
X203978Y36103D01*
X203941Y36121D01*
X203901Y36135D01*
X203896D01*
X203882Y36140D01*
X203860Y36149D01*
X203837Y36153D01*
X203778Y36162D01*
X203718Y36167D01*
D02*
G37*
G36*
X157978Y96649D02*
X157182D01*
X157159Y96644D01*
X157105Y96635D01*
X157082Y96626D01*
X157059Y96612D01*
X157050Y96603D01*
X157032Y96580D01*
X157018Y96562D01*
X157004Y96539D01*
X156991Y96512D01*
X156977Y96480D01*
Y96476D01*
X156973Y96462D01*
X156968Y96449D01*
X156964Y96426D01*
X156954Y96380D01*
X156959Y96358D01*
X156964Y96339D01*
X156968Y96335D01*
X156977Y96326D01*
X156991Y96321D01*
X157009Y96312D01*
X157032Y96303D01*
X157059Y96298D01*
X157860D01*
X157978Y96649D01*
D02*
G37*
G36*
X151350Y93281D02*
X150113D01*
Y93276D01*
X150108Y93271D01*
X150104Y93244D01*
X150090Y93203D01*
X150076Y93153D01*
X150063Y93094D01*
X150049Y93030D01*
X150040Y92971D01*
X150031Y92912D01*
Y92907D01*
Y92889D01*
Y92862D01*
Y92830D01*
X150040Y92757D01*
X150049Y92721D01*
X150063Y92684D01*
X150067Y92680D01*
X150072Y92671D01*
X150081Y92657D01*
X150099Y92639D01*
X150117Y92621D01*
X150140Y92602D01*
X150172Y92584D01*
X150204Y92571D01*
X150208D01*
X150222Y92566D01*
X150245Y92562D01*
X150272Y92557D01*
X150309Y92553D01*
X150349Y92548D01*
X150395Y92543D01*
X151096D01*
X151128Y92548D01*
X151169Y92557D01*
X151214Y92566D01*
X151264Y92584D01*
X151314Y92612D01*
X151360Y92643D01*
X151364Y92648D01*
X151378Y92662D01*
X151400Y92684D01*
X151428Y92721D01*
X151455Y92762D01*
X151487Y92812D01*
X151514Y92871D01*
X151542Y92935D01*
X151546Y92944D01*
X151551Y92967D01*
X151560Y92998D01*
X151569Y93035D01*
X151573Y93080D01*
Y93121D01*
X151564Y93162D01*
X151551Y93199D01*
X151546Y93203D01*
X151542Y93212D01*
X151528Y93226D01*
X151505Y93239D01*
X151478Y93253D01*
X151442Y93267D01*
X151400Y93276D01*
X151350Y93281D01*
D02*
G37*
G36*
X160141Y94332D02*
X160014D01*
X159968Y94327D01*
X159909D01*
X159841Y94318D01*
X159773Y94309D01*
X159704Y94300D01*
X159636Y94282D01*
X159627D01*
X159609Y94272D01*
X159577Y94259D01*
X159536Y94245D01*
X159490Y94222D01*
X159440Y94195D01*
X159395Y94159D01*
X159345Y94122D01*
X159340Y94118D01*
X159327Y94104D01*
X159304Y94081D01*
X159277Y94049D01*
X159245Y94008D01*
X159208Y93963D01*
X159172Y93908D01*
X159140Y93845D01*
X159135Y93836D01*
X159126Y93813D01*
X159108Y93776D01*
X159090Y93726D01*
X159063Y93667D01*
X159035Y93594D01*
X159004Y93512D01*
X158972Y93422D01*
Y93417D01*
X158967Y93412D01*
X158963Y93399D01*
X158958Y93381D01*
X158944Y93335D01*
X158926Y93276D01*
X158904Y93208D01*
X158885Y93139D01*
X158867Y93067D01*
X158853Y92998D01*
Y92989D01*
X158849Y92971D01*
X158844Y92939D01*
Y92898D01*
Y92853D01*
Y92807D01*
X158853Y92762D01*
X158867Y92716D01*
X158872Y92712D01*
X158876Y92698D01*
X158890Y92680D01*
X158908Y92657D01*
X158935Y92634D01*
X158967Y92607D01*
X159004Y92584D01*
X159049Y92562D01*
X159054D01*
X159076Y92553D01*
X159104Y92548D01*
X159149Y92539D01*
X159204Y92530D01*
X159272Y92521D01*
X159349Y92516D01*
X159436Y92511D01*
X159477D01*
X159522Y92516D01*
X159581D01*
X159650Y92525D01*
X159718Y92534D01*
X159786Y92543D01*
X159854Y92562D01*
X159863Y92566D01*
X159882Y92571D01*
X159914Y92584D01*
X159955Y92598D01*
X160000Y92621D01*
X160046Y92648D01*
X160096Y92680D01*
X160141Y92716D01*
X160146Y92721D01*
X160159Y92734D01*
X160182Y92762D01*
X160209Y92794D01*
X160241Y92835D01*
X160278Y92880D01*
X160314Y92935D01*
X160346Y92998D01*
X160350Y93007D01*
X160360Y93030D01*
X160378Y93067D01*
X160400Y93117D01*
X160423Y93176D01*
X160455Y93249D01*
X160482Y93331D01*
X160514Y93422D01*
Y93426D01*
X160519Y93431D01*
X160523Y93444D01*
X160528Y93463D01*
X160541Y93508D01*
X160560Y93567D01*
X160582Y93635D01*
X160601Y93704D01*
X160619Y93776D01*
X160633Y93845D01*
Y93854D01*
X160637Y93872D01*
X160642Y93904D01*
Y93945D01*
Y93990D01*
Y94036D01*
X160633Y94081D01*
X160619Y94122D01*
Y94127D01*
X160610Y94140D01*
X160596Y94159D01*
X160578Y94181D01*
X160555Y94209D01*
X160523Y94236D01*
X160482Y94259D01*
X160437Y94282D01*
X160432Y94286D01*
X160414Y94291D01*
X160382Y94300D01*
X160341Y94309D01*
X160287Y94318D01*
X160218Y94322D01*
X160141Y94332D01*
D02*
G37*
G36*
X165301Y94304D02*
X164605D01*
X164568Y94300D01*
X164527Y94291D01*
X164482Y94282D01*
X164436Y94263D01*
X164386Y94240D01*
X164341Y94209D01*
X164336Y94204D01*
X164322Y94191D01*
X164304Y94172D01*
X164277Y94140D01*
X164250Y94104D01*
X164222Y94059D01*
X164195Y94004D01*
X164172Y93945D01*
X164168Y93936D01*
X164163Y93918D01*
X164154Y93881D01*
X164150Y93845D01*
X164145Y93804D01*
Y93758D01*
X164150Y93717D01*
X164168Y93685D01*
X164172Y93681D01*
X164181Y93672D01*
X164195Y93663D01*
X164218Y93649D01*
X164245Y93631D01*
X164282Y93622D01*
X164322Y93613D01*
X164373Y93608D01*
X165596D01*
Y93613D01*
X165601Y93617D01*
X165606Y93644D01*
X165619Y93685D01*
X165628Y93735D01*
X165642Y93790D01*
X165651Y93849D01*
X165660Y93908D01*
X165665Y93963D01*
Y93967D01*
Y93986D01*
Y94008D01*
Y94040D01*
X165656Y94113D01*
X165642Y94145D01*
X165628Y94177D01*
Y94181D01*
X165619Y94191D01*
X165592Y94218D01*
X165574Y94236D01*
X165551Y94250D01*
X165519Y94268D01*
X165487Y94277D01*
X165483D01*
X165469Y94282D01*
X165451Y94286D01*
X165424Y94291D01*
X165387Y94295D01*
X165346Y94300D01*
X165301Y94304D01*
D02*
G37*
%LPD*%
D68*
X28900Y169300D02*
X32000D01*
X26535Y168110D02*
Y169235D01*
D69*
X185787Y119882D02*
D03*
X185787Y128882D02*
D03*
X90315Y68898D02*
D03*
X90315Y59898D02*
D03*
X137264Y98228D02*
D03*
X137264Y89228D02*
D03*
X26400Y119300D02*
D03*
X26400Y128300D02*
D03*
X50200Y124200D02*
D03*
Y133200D02*
D03*
X159000Y124400D02*
D03*
Y133400D02*
D03*
X140905Y67224D02*
D03*
Y58224D02*
D03*
D70*
X189500Y228500D02*
D03*
Y192949D02*
D03*
X21000Y228500D02*
D03*
Y192949D02*
D03*
D71*
X63642Y70276D02*
D03*
X72642D02*
D03*
X106205Y47835D02*
D03*
X97205D02*
D03*
X65555Y49705D02*
D03*
X56555D02*
D03*
X35000Y88287D02*
D03*
X44000Y88287D02*
D03*
X35941Y73622D02*
D03*
X44941Y73622D02*
D03*
X63740Y92224D02*
D03*
X72740Y92224D02*
D03*
X63598Y81299D02*
D03*
X72598D02*
D03*
X106303Y38780D02*
D03*
X97303D02*
D03*
X106303Y29823D02*
D03*
X97303D02*
D03*
X106358Y20881D02*
D03*
X97358Y20881D02*
D03*
X101600Y140000D02*
D03*
X110600Y140000D02*
D03*
X35000Y20441D02*
D03*
X44000D02*
D03*
X159354Y58071D02*
D03*
X150354Y58071D02*
D03*
X156111Y46949D02*
D03*
X147111Y46949D02*
D03*
X147117Y37992D02*
D03*
X156117Y37992D02*
D03*
X147117Y29035D02*
D03*
X156117Y29035D02*
D03*
X175161Y20768D02*
D03*
X166161Y20768D02*
D03*
X175206Y30020D02*
D03*
X166206D02*
D03*
X175299Y39567D02*
D03*
X166299D02*
D03*
X34902Y29429D02*
D03*
X43902D02*
D03*
X34902Y59252D02*
D03*
X43902D02*
D03*
X34902Y38484D02*
D03*
X43902D02*
D03*
X77595Y40764D02*
D03*
X68595Y40764D02*
D03*
X34902Y49705D02*
D03*
X43902Y49705D02*
D03*
X44000Y97342D02*
D03*
X35000D02*
D03*
X141398Y76673D02*
D03*
X150398Y76673D02*
D03*
X150311Y67126D02*
D03*
X159311Y67126D02*
D03*
X147119Y19980D02*
D03*
X156119Y19980D02*
D03*
D72*
X121122Y75689D02*
D03*
X114823Y75689D02*
D03*
D73*
X145630Y178543D02*
D03*
X145630Y193307D02*
D03*
X101929Y178740D02*
D03*
Y193504D02*
D03*
X59114Y178740D02*
D03*
Y193504D02*
D03*
D74*
X17402Y168860D02*
D03*
X32402D02*
D03*
X32402Y145923D02*
D03*
X27402Y145925D02*
D03*
X22402Y145925D02*
D03*
X17402D02*
D03*
X63779Y145374D02*
D03*
X48779Y145374D02*
D03*
Y168311D02*
D03*
X53780Y168309D02*
D03*
X58780Y168309D02*
D03*
X63779D02*
D03*
X98090Y145471D02*
D03*
X83091Y145470D02*
D03*
Y168408D02*
D03*
X88090Y168406D02*
D03*
X93090Y168406D02*
D03*
X98090D02*
D03*
X193957Y145667D02*
D03*
X178957Y145667D02*
D03*
Y168604D02*
D03*
X183957Y168602D02*
D03*
X188957Y168602D02*
D03*
X193957D02*
D03*
X147008Y168604D02*
D03*
X162008Y168604D02*
D03*
Y145667D02*
D03*
X157008Y145669D02*
D03*
X152008Y145669D02*
D03*
X147008D02*
D03*
X114626Y168506D02*
D03*
X129626Y168506D02*
D03*
Y145569D02*
D03*
X124626Y145571D02*
D03*
X119626Y145571D02*
D03*
X114626D02*
D03*
D75*
X24882Y160591D02*
D03*
X56299Y153644D02*
D03*
X90610Y153740D02*
D03*
X186476Y153937D02*
D03*
X154488Y160335D02*
D03*
X122106Y160236D02*
D03*
D76*
X15728Y155078D02*
D03*
X34035D02*
D03*
X65453Y159156D02*
D03*
X47146D02*
D03*
X99764Y159252D02*
D03*
X81457D02*
D03*
X195630Y159449D02*
D03*
X177323D02*
D03*
X145335Y154823D02*
D03*
X163642D02*
D03*
X112953Y154724D02*
D03*
X131260D02*
D03*
D77*
X127864Y110636D02*
D03*
X121500Y117000D02*
D03*
X144364Y130636D02*
D03*
X138000Y137000D02*
D03*
D78*
X74500Y128200D02*
D03*
X80864Y134564D02*
D03*
D79*
X103896Y102869D02*
D03*
D80*
X118651Y100642D02*
D03*
X117259Y99250D02*
D03*
X115867Y97858D02*
D03*
X114475Y96466D02*
D03*
X113083Y95074D02*
D03*
X111691Y93682D02*
D03*
X110299Y92290D02*
D03*
X108907Y90898D02*
D03*
X107515Y89506D02*
D03*
X106123Y88114D02*
D03*
X89141Y105096D02*
D03*
X90533Y106488D02*
D03*
X91925Y107880D02*
D03*
X93317Y109272D02*
D03*
X94709Y110664D02*
D03*
X96101Y112056D02*
D03*
X97493Y113448D02*
D03*
X98885Y114840D02*
D03*
X100277Y116232D02*
D03*
X101669Y117624D02*
D03*
D81*
X101669Y88114D02*
D03*
X100277Y89506D02*
D03*
X98885Y90898D02*
D03*
X97493Y92290D02*
D03*
X96101Y93682D02*
D03*
X94709Y95074D02*
D03*
X93317Y96466D02*
D03*
X91925Y97858D02*
D03*
X90533Y99250D02*
D03*
X89141Y100642D02*
D03*
X106123Y117624D02*
D03*
X107515Y116232D02*
D03*
X108907Y114840D02*
D03*
X110299Y113448D02*
D03*
X111691Y112056D02*
D03*
X113083Y110664D02*
D03*
X114475Y109272D02*
D03*
X115867Y107880D02*
D03*
X117259Y106488D02*
D03*
X118651Y105096D02*
D03*
D82*
X120433Y57966D02*
D03*
Y70866D02*
D03*
D83*
X112114Y64632D02*
D03*
X100303D02*
D03*
D84*
X55000Y33100D02*
D03*
X55000Y28100D02*
D03*
Y23100D02*
D03*
X55000Y18100D02*
D03*
X77047Y33100D02*
D03*
Y28100D02*
D03*
Y23100D02*
D03*
Y18100D02*
D03*
D85*
X137854Y20276D02*
D03*
Y25276D02*
D03*
X137854Y30276D02*
D03*
X137854Y35276D02*
D03*
X137854Y40276D02*
D03*
X137854Y45276D02*
D03*
X137854Y50276D02*
D03*
X116595Y20276D02*
D03*
Y25276D02*
D03*
X116595Y30276D02*
D03*
X116595Y35276D02*
D03*
Y40276D02*
D03*
Y45276D02*
D03*
Y50276D02*
D03*
D86*
X194900Y6000D02*
D03*
Y16000D02*
D03*
Y26000D02*
D03*
Y36000D02*
D03*
Y46000D02*
D03*
Y56000D02*
D03*
Y66000D02*
D03*
Y76000D02*
D03*
Y86000D02*
D03*
Y96000D02*
D03*
X184900Y6000D02*
D03*
Y16000D02*
D03*
Y26000D02*
D03*
Y36000D02*
D03*
Y46000D02*
D03*
Y56000D02*
D03*
Y66000D02*
D03*
Y76000D02*
D03*
Y86000D02*
D03*
X24900Y6000D02*
D03*
Y16000D02*
D03*
Y26000D02*
D03*
Y36000D02*
D03*
Y46000D02*
D03*
Y56000D02*
D03*
Y66000D02*
D03*
Y76000D02*
D03*
Y86000D02*
D03*
Y96000D02*
D03*
X14900Y6000D02*
D03*
Y16000D02*
D03*
Y26000D02*
D03*
Y36000D02*
D03*
Y46000D02*
D03*
Y56000D02*
D03*
Y66000D02*
D03*
Y76000D02*
D03*
Y86000D02*
D03*
D87*
X184900Y96000D02*
D03*
X14900D02*
D03*
D88*
X54900Y11000D02*
D03*
X104900D02*
D03*
D89*
X64900D02*
D03*
X74900D02*
D03*
X114900D02*
D03*
X124900Y11000D02*
D03*
X134900Y11000D02*
D03*
X144900D02*
D03*
X154900D02*
D03*
D90*
X154488Y222441D02*
D03*
X110394Y222342D02*
D03*
D91*
X134803Y222441D02*
D03*
X71024Y222342D02*
D03*
X90709D02*
D03*
D92*
X100000Y171500D02*
D03*
X122957Y175252D02*
D03*
X119020D02*
D03*
X115083D02*
D03*
X111146D02*
D03*
X93429Y179190D02*
D03*
X91461Y175252D02*
D03*
X44217Y183126D02*
D03*
X40280D02*
D03*
X38311Y179190D02*
D03*
X36343Y183126D02*
D03*
X34374Y179190D02*
D03*
X32406Y175252D02*
D03*
X28469D02*
D03*
X93429Y214623D02*
D03*
Y206749D02*
D03*
X95398Y202812D02*
D03*
X93429Y198875D02*
D03*
X89492Y214623D02*
D03*
X91461Y210686D02*
D03*
X89492Y206749D02*
D03*
X91461Y202812D02*
D03*
X89492Y198875D02*
D03*
X91461Y194938D02*
D03*
X69807Y214623D02*
D03*
X71776Y210686D02*
D03*
X69807Y206749D02*
D03*
X71776Y202812D02*
D03*
X69807Y198875D02*
D03*
X65870Y214623D02*
D03*
X67839Y210686D02*
D03*
X65870Y206749D02*
D03*
X67839Y202812D02*
D03*
Y194938D02*
D03*
X63902Y218560D02*
D03*
X61933Y214623D02*
D03*
X63902Y210686D02*
D03*
X61933Y206749D02*
D03*
X63902Y202812D02*
D03*
X59965Y210686D02*
D03*
Y202812D02*
D03*
X136737Y198875D02*
D03*
X132799D02*
D03*
X134768Y194938D02*
D03*
X128863Y198875D02*
D03*
X130831Y194938D02*
D03*
X124925Y198875D02*
D03*
X126894Y194938D02*
D03*
X120989Y206749D02*
D03*
X122957Y202812D02*
D03*
X119020Y210686D02*
D03*
X117051Y206749D02*
D03*
X119020Y202812D02*
D03*
X113115Y214623D02*
D03*
X115083Y210686D02*
D03*
X109177Y214623D02*
D03*
X111146Y210686D02*
D03*
X176107Y179190D02*
D03*
X172170D02*
D03*
X170201Y183126D02*
D03*
X168233Y179190D02*
D03*
X166264Y183126D02*
D03*
X164296Y179190D02*
D03*
X162327Y183126D02*
D03*
X160359Y179190D02*
D03*
X162327Y175252D02*
D03*
X156422Y179190D02*
D03*
X158390Y175252D02*
D03*
X96087Y171500D02*
D03*
X92543D02*
D03*
X89000D02*
D03*
X26535Y168110D02*
D03*
Y164567D02*
D03*
X145728Y58169D02*
D03*
X120335Y61516D02*
D03*
X86476Y59941D02*
D03*
X160591Y46949D02*
D03*
X136516Y67618D02*
D03*
X136417Y58465D02*
D03*
X145236Y67224D02*
D03*
X94842Y70473D02*
D03*
X94842Y67323D02*
D03*
X63642Y65453D02*
D03*
X72795D02*
D03*
X100354Y53642D02*
D03*
X136799Y76650D02*
D03*
X154657Y77681D02*
D03*
X3701Y190551D02*
D03*
X7244D02*
D03*
X10787D02*
D03*
X14331D02*
D03*
Y194095D02*
D03*
X10787D02*
D03*
X7244D02*
D03*
X3701D02*
D03*
X14331Y197638D02*
D03*
X10787D02*
D03*
X7244D02*
D03*
X3701D02*
D03*
X14331Y201181D02*
D03*
X10787D02*
D03*
X7244D02*
D03*
X3701D02*
D03*
X17874Y204724D02*
D03*
X14331D02*
D03*
X10787D02*
D03*
X7244D02*
D03*
X28504D02*
D03*
X24961D02*
D03*
X21417D02*
D03*
X28504Y201181D02*
D03*
Y197638D02*
D03*
Y194095D02*
D03*
Y190551D02*
D03*
X206063Y197638D02*
D03*
X202520D02*
D03*
X198976D02*
D03*
X195433D02*
D03*
X206063Y194095D02*
D03*
X202520D02*
D03*
X198976D02*
D03*
X195433D02*
D03*
X206063Y190551D02*
D03*
X202520D02*
D03*
X198976D02*
D03*
X195433D02*
D03*
X202520Y204724D02*
D03*
X198976D02*
D03*
X195433D02*
D03*
X206063Y201181D02*
D03*
X202520D02*
D03*
X198976D02*
D03*
X195433D02*
D03*
X184803Y204724D02*
D03*
X188347D02*
D03*
X191890D02*
D03*
X184803Y190551D02*
D03*
Y194095D02*
D03*
Y197638D02*
D03*
Y201181D02*
D03*
X19449Y168110D02*
D03*
X22992D02*
D03*
X30079D02*
D03*
X19449Y164567D02*
D03*
X22992D02*
D03*
X30079D02*
D03*
X19449Y161024D02*
D03*
X22992D02*
D03*
X26535D02*
D03*
X30079D02*
D03*
Y157480D02*
D03*
X26535D02*
D03*
X22992D02*
D03*
X19449D02*
D03*
X50945Y157087D02*
D03*
X54488D02*
D03*
X58031D02*
D03*
X61575D02*
D03*
X50945Y153543D02*
D03*
X54488D02*
D03*
X58031D02*
D03*
X61575D02*
D03*
X50945Y150000D02*
D03*
X54488D02*
D03*
X58031D02*
D03*
X61575D02*
D03*
Y146457D02*
D03*
X58031D02*
D03*
X54488D02*
D03*
X50945D02*
D03*
X116693Y168110D02*
D03*
X120236D02*
D03*
X123779D02*
D03*
X127323D02*
D03*
X116693Y164567D02*
D03*
X120236D02*
D03*
X123779D02*
D03*
X127323D02*
D03*
X116693Y161024D02*
D03*
X120236D02*
D03*
X123779D02*
D03*
X127323D02*
D03*
Y157480D02*
D03*
X123779D02*
D03*
X120236D02*
D03*
X116693D02*
D03*
X149370Y168110D02*
D03*
X152913D02*
D03*
X156457D02*
D03*
X160000D02*
D03*
X149370Y164567D02*
D03*
X152913D02*
D03*
X156457D02*
D03*
X160000D02*
D03*
X149370Y161024D02*
D03*
X152913D02*
D03*
X156457D02*
D03*
X160000D02*
D03*
Y157480D02*
D03*
X156457D02*
D03*
X152913D02*
D03*
X149370D02*
D03*
X28330Y141000D02*
D03*
X24787D02*
D03*
X21243D02*
D03*
X17700D02*
D03*
X125930Y140300D02*
D03*
X122387D02*
D03*
X118843D02*
D03*
X115300D02*
D03*
X156430Y140700D02*
D03*
X152887D02*
D03*
X149343D02*
D03*
X145800D02*
D03*
X107524Y53689D02*
D03*
X167500Y62500D02*
D03*
X186230Y218100D02*
D03*
X182687D02*
D03*
X179143D02*
D03*
X175600D02*
D03*
X196787Y218000D02*
D03*
X193243D02*
D03*
X189700D02*
D03*
X182630Y222000D02*
D03*
X179087D02*
D03*
X175543D02*
D03*
X172000D02*
D03*
X182630Y226000D02*
D03*
X179087D02*
D03*
X175543D02*
D03*
X172000D02*
D03*
X182630Y230000D02*
D03*
X179087D02*
D03*
X175543D02*
D03*
X172000D02*
D03*
X182630Y234000D02*
D03*
X179087D02*
D03*
X175543D02*
D03*
X172000D02*
D03*
X196800Y221900D02*
D03*
Y226000D02*
D03*
Y230000D02*
D03*
Y234000D02*
D03*
X28013D02*
D03*
Y230000D02*
D03*
Y226000D02*
D03*
Y221900D02*
D03*
X13843Y234000D02*
D03*
Y230000D02*
D03*
Y226000D02*
D03*
Y222000D02*
D03*
X20913Y218000D02*
D03*
X24457D02*
D03*
X28000D02*
D03*
X13900Y218100D02*
D03*
X17443D02*
D03*
X31700Y234000D02*
D03*
X35243D02*
D03*
X38787D02*
D03*
X31700Y230000D02*
D03*
X35243D02*
D03*
X38787D02*
D03*
X31700Y226000D02*
D03*
X35243D02*
D03*
X38787D02*
D03*
X31700Y222000D02*
D03*
X35243D02*
D03*
X38787D02*
D03*
X35300Y218100D02*
D03*
X31600Y218000D02*
D03*
X94400Y188400D02*
D03*
Y182800D02*
D03*
X65087Y172300D02*
D03*
X61543D02*
D03*
X58000D02*
D03*
X54457D02*
D03*
X181400Y146800D02*
D03*
X184943D02*
D03*
X188487D02*
D03*
X192030D02*
D03*
Y150343D02*
D03*
X188487D02*
D03*
X184943D02*
D03*
X181400D02*
D03*
X192030Y153887D02*
D03*
X188487D02*
D03*
X184943D02*
D03*
X181400D02*
D03*
X192030Y157430D02*
D03*
X188487D02*
D03*
X184943D02*
D03*
X181400D02*
D03*
X66900Y188800D02*
D03*
Y183200D02*
D03*
X85100Y146370D02*
D03*
X88643D02*
D03*
X92187D02*
D03*
X95730D02*
D03*
Y149913D02*
D03*
X92187D02*
D03*
X88643D02*
D03*
X85100D02*
D03*
X95730Y153457D02*
D03*
X92187D02*
D03*
X88643D02*
D03*
X85100D02*
D03*
X95730Y157000D02*
D03*
X92187D02*
D03*
X88643D02*
D03*
X85100D02*
D03*
X62559Y40748D02*
D03*
X167500Y72600D02*
D03*
Y69200D02*
D03*
Y65900D02*
D03*
X181800Y174800D02*
D03*
X185343D02*
D03*
X188887D02*
D03*
X192430D02*
D03*
D93*
X97402Y34350D02*
D03*
X178898Y29724D02*
D03*
X137854Y16732D02*
D03*
X60000Y28150D02*
D03*
X72106Y26673D02*
D03*
X35000Y16929D02*
D03*
X35197Y25886D02*
D03*
X37362Y76968D02*
D03*
X37264Y62402D02*
D03*
X35197Y34744D02*
D03*
X106161Y17323D02*
D03*
X155374Y16634D02*
D03*
X106457Y35335D02*
D03*
X165905Y24114D02*
D03*
X165850Y33366D02*
D03*
X62362Y24311D02*
D03*
X166244Y42913D02*
D03*
X126634Y45472D02*
D03*
X122205Y20965D02*
D03*
X122795Y32087D02*
D03*
X123189Y46063D02*
D03*
X132146Y27165D02*
D03*
X91004Y38780D02*
D03*
X91102Y20768D02*
D03*
X97402Y16043D02*
D03*
X129488Y50886D02*
D03*
X160098Y42028D02*
D03*
X160230Y24672D02*
D03*
X97205Y44488D02*
D03*
X97303Y26476D02*
D03*
X106358Y25477D02*
D03*
X125650Y28445D02*
D03*
X175256Y43799D02*
D03*
X174961Y16535D02*
D03*
X72402Y21949D02*
D03*
X67087Y32776D02*
D03*
X110912Y42789D02*
D03*
X176732Y96000D02*
D03*
X174665Y93898D02*
D03*
X164724Y84547D02*
D03*
X167382Y87106D02*
D03*
X170039Y89370D02*
D03*
X172402Y91634D02*
D03*
X125847Y68110D02*
D03*
X120335Y102165D02*
D03*
X50256Y50098D02*
D03*
X46319Y25787D02*
D03*
X46417Y16732D02*
D03*
X51634Y59055D02*
D03*
X56358Y73721D02*
D03*
X32539Y93110D02*
D03*
X56030Y56529D02*
D03*
X148878Y15536D02*
D03*
X98386Y79134D02*
D03*
X102028Y75197D02*
D03*
X100157Y77165D02*
D03*
X91004Y84941D02*
D03*
X92579Y82579D02*
D03*
X94449Y80413D02*
D03*
X40413Y10728D02*
D03*
X34803Y46850D02*
D03*
X57835Y38484D02*
D03*
X99370Y97047D02*
D03*
X106982Y95607D02*
D03*
X93850Y103171D02*
D03*
X104095Y120276D02*
D03*
X103898Y113779D02*
D03*
X43071Y116043D02*
D03*
X78799Y70276D02*
D03*
X72697Y89173D02*
D03*
X84705Y100984D02*
D03*
X93268Y117717D02*
D03*
X64921Y96752D02*
D03*
X85590Y81988D02*
D03*
X79783Y92323D02*
D03*
X87067Y79626D02*
D03*
X84705Y104232D02*
D03*
X84508Y92421D02*
D03*
X72598Y77854D02*
D03*
X133819Y35335D02*
D03*
Y40354D02*
D03*
X77028Y35827D02*
D03*
X41890Y63779D02*
D03*
X41988Y78740D02*
D03*
X41398Y15945D02*
D03*
X41594Y24902D02*
D03*
X42283Y45374D02*
D03*
X128799Y37402D02*
D03*
X121221Y40354D02*
D03*
X131161Y23524D02*
D03*
X69500Y49500D02*
D03*
X39429Y123425D02*
D03*
X36600Y92000D02*
D03*
X41200Y93000D02*
D03*
X123500Y95700D02*
D03*
X120700Y93200D02*
D03*
X53500Y108700D02*
D03*
X57600Y108900D02*
D03*
X8996Y103328D02*
D03*
X31434Y44366D02*
D03*
Y68166D02*
D03*
X31534Y78834D02*
D03*
X49000Y93000D02*
D03*
X49640Y79500D02*
D03*
X49540Y66900D02*
D03*
X50179Y41784D02*
D03*
X174032Y102287D02*
D03*
X152000Y104700D02*
D03*
X145401Y102000D02*
D03*
X114048Y113000D02*
D03*
X115928Y114880D02*
D03*
X106358Y43489D02*
D03*
X75939Y100638D02*
D03*
X42000Y101000D02*
D03*
X200888Y103345D02*
D03*
X146000Y112000D02*
D03*
X161100Y38000D02*
D03*
X161000Y29000D02*
D03*
X147100Y25400D02*
D03*
Y41700D02*
D03*
D94*
X97215Y102869D02*
D03*
X99442Y105096D02*
D03*
X101669Y107323D02*
D03*
X103896Y109550D02*
D03*
X99442Y100642D02*
D03*
X101669Y102869D02*
D03*
X103896Y105096D02*
D03*
X106123Y107323D02*
D03*
X101669Y98415D02*
D03*
X103896Y100642D02*
D03*
X108350Y105096D02*
D03*
X103896Y96188D02*
D03*
X106123Y98415D02*
D03*
X110577Y102869D02*
D03*
X108350Y100642D02*
D03*
X106123Y102869D02*
D03*
M02*
