G04 Layer_Color=16711935*
%FSLAX25Y25*%
%MOIN*%
G70*
G01*
G75*
%ADD68C,0.01969*%
%ADD104C,0.00394*%
D68*
X0Y3000D02*
X147Y2073D01*
X573Y1237D01*
X1237Y573D01*
X2073Y147D01*
X3000Y0D01*
X3000Y240000D02*
X2073Y239853D01*
X1237Y239427D01*
X573Y238763D01*
X147Y237927D01*
X0Y237000D01*
X210000Y237000D02*
X209853Y237927D01*
X209427Y238763D01*
X208763Y239427D01*
X207927Y239853D01*
X207000Y240000D01*
X207000Y0D02*
X207927Y147D01*
X208763Y573D01*
X209427Y1237D01*
X209853Y2073D01*
X210000Y3000D01*
X0Y3000D02*
Y237000D01*
X3000Y240000D02*
X207000Y240000D01*
X210000Y3000D02*
X210000Y237000D01*
X3000Y0D02*
X207000Y0D01*
D104*
X117974Y102869D02*
X117711Y103853D01*
X116990Y104574D01*
X116006Y104838D01*
X115022Y104574D01*
X114301Y103853D01*
X114037Y102869D01*
X114301Y101885D01*
X115022Y101164D01*
X116006Y100900D01*
X116990Y101164D01*
X117711Y101885D01*
X117974Y102869D01*
X34201Y136779D02*
X46799Y136779D01*
X34201Y146621D02*
X46799D01*
X34201Y136779D02*
Y146621D01*
X46799Y136779D02*
Y146621D01*
X167892Y137479D02*
X180491Y137479D01*
X167892Y147321D02*
X180491D01*
X167892D02*
X167892Y137479D01*
X180491Y147321D02*
X180491Y137479D01*
X86775Y102869D02*
X103896Y119990D01*
X103896Y85748D02*
X121017Y102869D01*
X86775D02*
X103896Y85748D01*
X103896Y119990D02*
X121017Y102869D01*
X99992Y147021D02*
X112591D01*
X99992Y137179D02*
X112591D01*
X112591Y147021D02*
X112591Y137179D01*
X99992D02*
Y147021D01*
M02*
