G04 Layer_Physical_Order=2*
G04 Layer_Color=39107*
%FSLAX25Y25*%
%MOIN*%
G70*
G01*
G75*
%ADD43C,0.04921*%
%ADD46C,0.06890*%
%ADD48C,0.10827*%
%ADD49C,0.02953*%
%ADD50C,0.01772*%
%ADD51C,0.01969*%
G36*
X208000Y2000D02*
X198387D01*
X198226Y2473D01*
X198340Y2560D01*
X199113Y3568D01*
X199599Y4741D01*
X199765Y6000D01*
X199599Y7259D01*
X199113Y8432D01*
X198340Y9440D01*
X197332Y10213D01*
X196159Y10699D01*
X195786Y10748D01*
Y11252D01*
X196159Y11301D01*
X197332Y11787D01*
X198340Y12560D01*
X199113Y13568D01*
X199599Y14741D01*
X199765Y16000D01*
X199599Y17259D01*
X199113Y18432D01*
X198340Y19440D01*
X197332Y20213D01*
X196159Y20699D01*
X195786Y20748D01*
Y21252D01*
X196159Y21301D01*
X197332Y21787D01*
X198340Y22560D01*
X199113Y23568D01*
X199599Y24741D01*
X199765Y26000D01*
X199599Y27259D01*
X199113Y28432D01*
X198340Y29440D01*
X197332Y30213D01*
X196159Y30699D01*
X195786Y30748D01*
Y31252D01*
X196159Y31301D01*
X197332Y31787D01*
X198340Y32560D01*
X199113Y33568D01*
X199599Y34741D01*
X199765Y36000D01*
X199599Y37259D01*
X199113Y38432D01*
X198340Y39440D01*
X197332Y40213D01*
X196159Y40699D01*
X195786Y40748D01*
Y41252D01*
X196159Y41301D01*
X197332Y41787D01*
X198340Y42560D01*
X199113Y43568D01*
X199599Y44741D01*
X199765Y46000D01*
X199599Y47259D01*
X199113Y48432D01*
X198340Y49440D01*
X197332Y50213D01*
X196159Y50699D01*
X195786Y50748D01*
Y51252D01*
X196159Y51301D01*
X197332Y51787D01*
X198340Y52560D01*
X199113Y53568D01*
X199599Y54741D01*
X199765Y56000D01*
X199599Y57259D01*
X199113Y58432D01*
X198340Y59440D01*
X197332Y60213D01*
X196159Y60699D01*
X195786Y60748D01*
Y61252D01*
X196159Y61301D01*
X197332Y61787D01*
X198340Y62560D01*
X199113Y63568D01*
X199599Y64741D01*
X199765Y66000D01*
X199599Y67259D01*
X199113Y68432D01*
X198340Y69440D01*
X197332Y70213D01*
X196159Y70699D01*
X195786Y70748D01*
Y71252D01*
X196159Y71301D01*
X197332Y71787D01*
X198340Y72560D01*
X199113Y73568D01*
X199599Y74741D01*
X199765Y76000D01*
X199599Y77259D01*
X199113Y78432D01*
X198340Y79440D01*
X197332Y80213D01*
X196159Y80699D01*
X195786Y80748D01*
Y81252D01*
X196159Y81301D01*
X197332Y81787D01*
X198340Y82560D01*
X199113Y83568D01*
X199599Y84741D01*
X199765Y86000D01*
X199599Y87259D01*
X199113Y88432D01*
X198340Y89440D01*
X197332Y90213D01*
X196159Y90699D01*
X194900Y90864D01*
X193641Y90699D01*
X192468Y90213D01*
X191460Y89440D01*
X190687Y88432D01*
X190201Y87259D01*
X190152Y86886D01*
X189648D01*
X189599Y87259D01*
X189113Y88432D01*
X188340Y89440D01*
X187332Y90213D01*
X186159Y90699D01*
X186254Y91177D01*
X189723D01*
Y100823D01*
X180077D01*
Y97719D01*
X179577Y97619D01*
X179569Y97638D01*
X179049Y98317D01*
X178370Y98837D01*
X177580Y99164D01*
X176732Y99276D01*
X175884Y99164D01*
X175094Y98837D01*
X174416Y98317D01*
X173895Y97638D01*
X173623Y96982D01*
X173027Y96735D01*
X172349Y96214D01*
X171828Y95536D01*
X171516Y94783D01*
X170764Y94471D01*
X170085Y93950D01*
X169564Y93272D01*
X169263Y92544D01*
X169192Y92535D01*
X168401Y92207D01*
X167723Y91687D01*
X167202Y91008D01*
X166918Y90321D01*
X166534Y90271D01*
X165744Y89943D01*
X165065Y89423D01*
X164545Y88744D01*
X164217Y87954D01*
X164191Y87753D01*
X163876Y87712D01*
X163086Y87384D01*
X162408Y86864D01*
X161887Y86185D01*
X161560Y85395D01*
X161448Y84547D01*
X161560Y83699D01*
X161887Y82909D01*
X162408Y82231D01*
X163086Y81710D01*
X163876Y81383D01*
X164724Y81271D01*
X165572Y81383D01*
X166362Y81710D01*
X167041Y82231D01*
X167562Y82909D01*
X167889Y83699D01*
X167915Y83900D01*
X168230Y83942D01*
X169020Y84269D01*
X169698Y84790D01*
X170219Y85468D01*
X170503Y86155D01*
X170887Y86206D01*
X171677Y86533D01*
X172356Y87054D01*
X172877Y87732D01*
X173178Y88460D01*
X173249Y88469D01*
X174040Y88797D01*
X174718Y89317D01*
X175239Y89996D01*
X175550Y90749D01*
X176303Y91061D01*
X176982Y91581D01*
X177503Y92260D01*
X177774Y92916D01*
X178370Y93163D01*
X179049Y93683D01*
X179569Y94362D01*
X179577Y94381D01*
X180077Y94281D01*
Y91177D01*
X183546D01*
X183641Y90699D01*
X182468Y90213D01*
X181460Y89440D01*
X180687Y88432D01*
X180201Y87259D01*
X180035Y86000D01*
X180201Y84741D01*
X180687Y83568D01*
X181460Y82560D01*
X182468Y81787D01*
X183641Y81301D01*
X184014Y81252D01*
Y80748D01*
X183641Y80699D01*
X182468Y80213D01*
X181460Y79440D01*
X180687Y78432D01*
X180201Y77259D01*
X180035Y76000D01*
X180201Y74741D01*
X180687Y73568D01*
X181460Y72560D01*
X182468Y71787D01*
X183641Y71301D01*
X184014Y71252D01*
Y70748D01*
X183641Y70699D01*
X182468Y70213D01*
X181460Y69440D01*
X180687Y68432D01*
X180201Y67259D01*
X180035Y66000D01*
X180201Y64741D01*
X180687Y63568D01*
X181460Y62560D01*
X182468Y61787D01*
X183641Y61301D01*
X184014Y61252D01*
Y60748D01*
X183641Y60699D01*
X182468Y60213D01*
X181460Y59440D01*
X180687Y58432D01*
X180201Y57259D01*
X180035Y56000D01*
X180201Y54741D01*
X180687Y53568D01*
X181460Y52560D01*
X182468Y51787D01*
X183641Y51301D01*
X184014Y51252D01*
Y50748D01*
X183641Y50699D01*
X182468Y50213D01*
X181460Y49440D01*
X180687Y48432D01*
X180201Y47259D01*
X180035Y46000D01*
X180201Y44741D01*
X180687Y43568D01*
X181460Y42560D01*
X182468Y41787D01*
X183641Y41301D01*
X184014Y41252D01*
Y40748D01*
X183641Y40699D01*
X182468Y40213D01*
X181460Y39440D01*
X180687Y38432D01*
X180201Y37259D01*
X180035Y36000D01*
X180201Y34741D01*
X180687Y33568D01*
X181460Y32560D01*
X182468Y31787D01*
X183641Y31301D01*
X184014Y31252D01*
Y30748D01*
X183641Y30699D01*
X182606Y30270D01*
X182075Y30473D01*
X182062Y30572D01*
X181735Y31362D01*
X181214Y32041D01*
X180536Y32561D01*
X179745Y32889D01*
X178898Y33000D01*
X178050Y32889D01*
X177260Y32561D01*
X176581Y32041D01*
X176060Y31362D01*
X175733Y30572D01*
X175622Y29724D01*
X175733Y28877D01*
X176060Y28086D01*
X176581Y27408D01*
X177260Y26887D01*
X178050Y26560D01*
X178898Y26448D01*
X179603Y26541D01*
X180063Y26210D01*
X180035Y26000D01*
X180201Y24741D01*
X180687Y23568D01*
X181460Y22560D01*
X182468Y21787D01*
X183641Y21301D01*
X184014Y21252D01*
Y20748D01*
X183641Y20699D01*
X182468Y20213D01*
X181460Y19440D01*
X180687Y18432D01*
X180201Y17259D01*
X180035Y16000D01*
X180201Y14741D01*
X180687Y13568D01*
X181460Y12560D01*
X182468Y11787D01*
X183641Y11301D01*
X184014Y11252D01*
Y10748D01*
X183641Y10699D01*
X182468Y10213D01*
X181460Y9440D01*
X180687Y8432D01*
X180201Y7259D01*
X180035Y6000D01*
X180201Y4741D01*
X180687Y3568D01*
X181460Y2560D01*
X181573Y2473D01*
X181413Y2000D01*
X28387D01*
X28227Y2473D01*
X28340Y2560D01*
X29113Y3568D01*
X29599Y4741D01*
X29764Y6000D01*
X29599Y7259D01*
X29113Y8432D01*
X28340Y9440D01*
X27332Y10213D01*
X26159Y10699D01*
X25786Y10748D01*
Y11252D01*
X26159Y11301D01*
X27332Y11787D01*
X28340Y12560D01*
X29113Y13568D01*
X29599Y14741D01*
X29764Y16000D01*
X29599Y17259D01*
X29113Y18432D01*
X28340Y19440D01*
X27332Y20213D01*
X26159Y20699D01*
X25786Y20748D01*
Y21252D01*
X26159Y21301D01*
X27332Y21787D01*
X28340Y22560D01*
X29113Y23568D01*
X29599Y24741D01*
X29764Y26000D01*
X29599Y27259D01*
X29113Y28432D01*
X28340Y29440D01*
X27332Y30213D01*
X26159Y30699D01*
X25786Y30748D01*
Y31252D01*
X26159Y31301D01*
X27332Y31787D01*
X28340Y32560D01*
X29113Y33568D01*
X29599Y34741D01*
X29764Y36000D01*
X29599Y37259D01*
X29113Y38432D01*
X28340Y39440D01*
X27332Y40213D01*
X26159Y40699D01*
X25786Y40748D01*
Y41252D01*
X26159Y41301D01*
X27332Y41787D01*
X28340Y42560D01*
X29113Y43568D01*
X29599Y44741D01*
X29764Y46000D01*
X29599Y47259D01*
X29113Y48432D01*
X28340Y49440D01*
X27332Y50213D01*
X26159Y50699D01*
X25786Y50748D01*
Y51252D01*
X26159Y51301D01*
X27332Y51787D01*
X28340Y52560D01*
X29113Y53568D01*
X29599Y54741D01*
X29764Y56000D01*
X29599Y57259D01*
X29113Y58432D01*
X28340Y59440D01*
X27332Y60213D01*
X26159Y60699D01*
X25786Y60748D01*
Y61252D01*
X26159Y61301D01*
X27332Y61787D01*
X28340Y62560D01*
X29113Y63568D01*
X29599Y64741D01*
X29764Y66000D01*
X29599Y67259D01*
X29113Y68432D01*
X28340Y69440D01*
X27332Y70213D01*
X26159Y70699D01*
X25786Y70748D01*
Y71252D01*
X26159Y71301D01*
X27332Y71787D01*
X28340Y72560D01*
X29113Y73568D01*
X29599Y74741D01*
X29764Y76000D01*
X29599Y77259D01*
X29113Y78432D01*
X28340Y79440D01*
X27332Y80213D01*
X26159Y80699D01*
X24900Y80864D01*
X23641Y80699D01*
X22468Y80213D01*
X21460Y79440D01*
X20687Y78432D01*
X20201Y77259D01*
X20152Y76886D01*
X19648D01*
X19599Y77259D01*
X19113Y78432D01*
X18340Y79440D01*
X17332Y80213D01*
X16159Y80699D01*
X15786Y80748D01*
Y81252D01*
X16159Y81301D01*
X17332Y81787D01*
X18340Y82560D01*
X19113Y83568D01*
X19599Y84741D01*
X19764Y86000D01*
X19599Y87259D01*
X19113Y88432D01*
X18340Y89440D01*
X17332Y90213D01*
X16159Y90699D01*
X16254Y91177D01*
X19723D01*
Y94646D01*
X20201Y94741D01*
X20687Y93568D01*
X21460Y92560D01*
X22468Y91787D01*
X23641Y91301D01*
X24900Y91136D01*
X26159Y91301D01*
X27332Y91787D01*
X28340Y92560D01*
X29113Y93568D01*
X29599Y94741D01*
X29764Y96000D01*
X29599Y97259D01*
X29113Y98432D01*
X28340Y99440D01*
X27332Y100213D01*
X26159Y100699D01*
X24900Y100864D01*
X23641Y100699D01*
X22468Y100213D01*
X21460Y99440D01*
X20687Y98432D01*
X20201Y97259D01*
X19723Y97354D01*
Y100823D01*
X10077D01*
Y91177D01*
X13546D01*
X13641Y90699D01*
X12468Y90213D01*
X11460Y89440D01*
X10687Y88432D01*
X10201Y87259D01*
X10036Y86000D01*
X10201Y84741D01*
X10687Y83568D01*
X11460Y82560D01*
X12468Y81787D01*
X13641Y81301D01*
X14014Y81252D01*
Y80748D01*
X13641Y80699D01*
X12468Y80213D01*
X11460Y79440D01*
X10687Y78432D01*
X10201Y77259D01*
X10036Y76000D01*
X10201Y74741D01*
X10687Y73568D01*
X11460Y72560D01*
X12468Y71787D01*
X13641Y71301D01*
X14014Y71252D01*
Y70748D01*
X13641Y70699D01*
X12468Y70213D01*
X11460Y69440D01*
X10687Y68432D01*
X10201Y67259D01*
X10036Y66000D01*
X10201Y64741D01*
X10687Y63568D01*
X11460Y62560D01*
X12468Y61787D01*
X13641Y61301D01*
X14014Y61252D01*
Y60748D01*
X13641Y60699D01*
X12468Y60213D01*
X11460Y59440D01*
X10687Y58432D01*
X10201Y57259D01*
X10036Y56000D01*
X10201Y54741D01*
X10687Y53568D01*
X11460Y52560D01*
X12468Y51787D01*
X13641Y51301D01*
X14014Y51252D01*
Y50748D01*
X13641Y50699D01*
X12468Y50213D01*
X11460Y49440D01*
X10687Y48432D01*
X10201Y47259D01*
X10036Y46000D01*
X10201Y44741D01*
X10687Y43568D01*
X11460Y42560D01*
X12468Y41787D01*
X13641Y41301D01*
X14014Y41252D01*
Y40748D01*
X13641Y40699D01*
X12468Y40213D01*
X11460Y39440D01*
X10687Y38432D01*
X10201Y37259D01*
X10036Y36000D01*
X10201Y34741D01*
X10687Y33568D01*
X11460Y32560D01*
X12468Y31787D01*
X13641Y31301D01*
X14014Y31252D01*
Y30748D01*
X13641Y30699D01*
X12468Y30213D01*
X11460Y29440D01*
X10687Y28432D01*
X10201Y27259D01*
X10036Y26000D01*
X10201Y24741D01*
X10687Y23568D01*
X11460Y22560D01*
X12468Y21787D01*
X13641Y21301D01*
X14014Y21252D01*
Y20748D01*
X13641Y20699D01*
X12468Y20213D01*
X11460Y19440D01*
X10687Y18432D01*
X10201Y17259D01*
X10036Y16000D01*
X10201Y14741D01*
X10687Y13568D01*
X11460Y12560D01*
X12468Y11787D01*
X13641Y11301D01*
X14014Y11252D01*
Y10748D01*
X13641Y10699D01*
X12468Y10213D01*
X11460Y9440D01*
X10687Y8432D01*
X10201Y7259D01*
X10036Y6000D01*
X10201Y4741D01*
X10687Y3568D01*
X11460Y2560D01*
X11574Y2473D01*
X11413Y2000D01*
X2000D01*
Y238000D01*
X12163D01*
X12262Y237500D01*
X11908Y237353D01*
X11106Y236738D01*
X10490Y235936D01*
X10103Y235002D01*
X9972Y234000D01*
X10103Y232998D01*
X10490Y232064D01*
X10539Y232000D01*
X10490Y231936D01*
X10103Y231002D01*
X9972Y230000D01*
X10103Y228998D01*
X10490Y228064D01*
X10539Y228000D01*
X10490Y227936D01*
X10103Y227002D01*
X9972Y226000D01*
X10103Y224998D01*
X10490Y224064D01*
X10539Y224000D01*
X10490Y223936D01*
X10103Y223002D01*
X9972Y222000D01*
X10103Y220998D01*
X10490Y220064D01*
X10535Y220006D01*
X10160Y219102D01*
X10028Y218100D01*
X10160Y217098D01*
X10547Y216164D01*
X11162Y215362D01*
X11964Y214747D01*
X12898Y214360D01*
X13900Y214228D01*
X14902Y214360D01*
X15672Y214679D01*
X16441Y214360D01*
X17443Y214228D01*
X18445Y214360D01*
X19058Y214614D01*
X19911Y214260D01*
X20913Y214128D01*
X21915Y214260D01*
X22685Y214579D01*
X23455Y214260D01*
X24457Y214128D01*
X25459Y214260D01*
X26228Y214579D01*
X26998Y214260D01*
X28000Y214128D01*
X29002Y214260D01*
X29800Y214591D01*
X30598Y214260D01*
X31600Y214128D01*
X32602Y214260D01*
X33536Y214647D01*
X33560Y214666D01*
X34298Y214360D01*
X35300Y214228D01*
X36302Y214360D01*
X37236Y214747D01*
X38038Y215362D01*
X38653Y216164D01*
X39040Y217098D01*
X39172Y218100D01*
X39162Y218178D01*
X39789Y218260D01*
X40723Y218647D01*
X41524Y219262D01*
X42140Y220064D01*
X42526Y220998D01*
X42658Y222000D01*
X42526Y223002D01*
X42140Y223936D01*
X42090Y224000D01*
X42140Y224064D01*
X42526Y224998D01*
X42658Y226000D01*
X42526Y227002D01*
X42140Y227936D01*
X42090Y228000D01*
X42140Y228064D01*
X42526Y228998D01*
X42658Y230000D01*
X42526Y231002D01*
X42140Y231936D01*
X42090Y232000D01*
X42140Y232064D01*
X42526Y232998D01*
X42658Y234000D01*
X42526Y235002D01*
X42140Y235936D01*
X41524Y236738D01*
X40723Y237353D01*
X40368Y237500D01*
X40467Y238000D01*
X170320D01*
X170419Y237500D01*
X170064Y237353D01*
X169262Y236738D01*
X168647Y235936D01*
X168260Y235002D01*
X168128Y234000D01*
X168260Y232998D01*
X168647Y232064D01*
X168696Y232000D01*
X168647Y231936D01*
X168260Y231002D01*
X168128Y230000D01*
X168260Y228998D01*
X168647Y228064D01*
X168696Y228000D01*
X168647Y227936D01*
X168260Y227002D01*
X168128Y226000D01*
X168260Y224998D01*
X168647Y224064D01*
X168696Y224000D01*
X168647Y223936D01*
X168260Y223002D01*
X168128Y222000D01*
X168260Y220998D01*
X168647Y220064D01*
X169262Y219262D01*
X170064Y218647D01*
X170998Y218260D01*
X171737Y218163D01*
X171728Y218100D01*
X171860Y217098D01*
X172247Y216164D01*
X172862Y215362D01*
X173664Y214747D01*
X174598Y214360D01*
X175600Y214228D01*
X176602Y214360D01*
X177372Y214679D01*
X178141Y214360D01*
X179143Y214228D01*
X180145Y214360D01*
X180915Y214679D01*
X181685Y214360D01*
X182687Y214228D01*
X183689Y214360D01*
X184458Y214679D01*
X185228Y214360D01*
X186230Y214228D01*
X187232Y214360D01*
X187844Y214614D01*
X188698Y214260D01*
X189700Y214128D01*
X190702Y214260D01*
X191472Y214579D01*
X192241Y214260D01*
X193243Y214128D01*
X194245Y214260D01*
X195015Y214579D01*
X195784Y214260D01*
X196787Y214128D01*
X197789Y214260D01*
X198723Y214647D01*
X199524Y215262D01*
X200140Y216064D01*
X200526Y216998D01*
X200658Y218000D01*
X200526Y219002D01*
X200140Y219936D01*
X200135Y219941D01*
X200153Y219964D01*
X200540Y220898D01*
X200672Y221900D01*
X200540Y222902D01*
X200153Y223836D01*
X200065Y223950D01*
X200153Y224064D01*
X200540Y224998D01*
X200672Y226000D01*
X200540Y227002D01*
X200153Y227936D01*
X200104Y228000D01*
X200153Y228064D01*
X200540Y228998D01*
X200672Y230000D01*
X200540Y231002D01*
X200153Y231936D01*
X200104Y232000D01*
X200153Y232064D01*
X200540Y232998D01*
X200672Y234000D01*
X200540Y235002D01*
X200153Y235936D01*
X199538Y236738D01*
X198736Y237353D01*
X198381Y237500D01*
X198480Y238000D01*
X208000D01*
Y2000D01*
D02*
G37*
%LPC*%
G36*
X160591Y50820D02*
X159589Y50689D01*
X158655Y50302D01*
X157853Y49687D01*
X157238Y48885D01*
X156851Y47951D01*
X156719Y46949D01*
X156851Y45947D01*
X157238Y45013D01*
X157766Y44324D01*
X157261Y43666D01*
X156934Y42875D01*
X156822Y42028D01*
X156934Y41180D01*
X157261Y40389D01*
X157782Y39711D01*
X158460Y39190D01*
X159250Y38863D01*
X160098Y38752D01*
X160946Y38863D01*
X161737Y39190D01*
X162415Y39711D01*
X162936Y40389D01*
X163118Y40830D01*
X163691Y40906D01*
X163928Y40597D01*
X164606Y40076D01*
X165396Y39749D01*
X166244Y39637D01*
X167092Y39749D01*
X167882Y40076D01*
X168561Y40597D01*
X169081Y41275D01*
X169409Y42066D01*
X169520Y42913D01*
X169409Y43761D01*
X169081Y44551D01*
X168561Y45230D01*
X167882Y45750D01*
X167092Y46078D01*
X166244Y46189D01*
X165396Y46078D01*
X164796Y45829D01*
X164367Y46149D01*
X164359Y46163D01*
X164462Y46949D01*
X164330Y47951D01*
X163944Y48885D01*
X163328Y49687D01*
X162526Y50302D01*
X161593Y50689D01*
X160591Y50820D01*
D02*
G37*
G36*
X106358Y46765D02*
X105510Y46653D01*
X104720Y46326D01*
X104042Y45805D01*
X103521Y45127D01*
X103194Y44337D01*
X103082Y43489D01*
X103194Y42641D01*
X103521Y41851D01*
X104042Y41172D01*
X104720Y40652D01*
X105510Y40325D01*
X106358Y40213D01*
X107206Y40325D01*
X107996Y40652D01*
X108287Y40875D01*
X108595Y40472D01*
X109274Y39952D01*
X110064Y39625D01*
X110912Y39513D01*
X111760Y39625D01*
X112550Y39952D01*
X113228Y40472D01*
X113749Y41151D01*
X114076Y41941D01*
X114188Y42789D01*
X114076Y43637D01*
X113749Y44427D01*
X113228Y45105D01*
X112550Y45626D01*
X111760Y45953D01*
X110912Y46065D01*
X110064Y45953D01*
X109274Y45626D01*
X108984Y45403D01*
X108675Y45805D01*
X107996Y46326D01*
X107206Y46653D01*
X106358Y46765D01*
D02*
G37*
G36*
X97205Y47764D02*
X96357Y47653D01*
X95567Y47325D01*
X94888Y46805D01*
X94368Y46126D01*
X94040Y45336D01*
X93929Y44488D01*
X94040Y43640D01*
X94368Y42850D01*
X94888Y42172D01*
X95567Y41651D01*
X96357Y41324D01*
X97205Y41212D01*
X98053Y41324D01*
X98843Y41651D01*
X99521Y42172D01*
X100042Y42850D01*
X100369Y43640D01*
X100481Y44488D01*
X100369Y45336D01*
X100042Y46126D01*
X99521Y46805D01*
X98843Y47325D01*
X98053Y47653D01*
X97205Y47764D01*
D02*
G37*
G36*
X175256Y47075D02*
X174408Y46964D01*
X173618Y46636D01*
X172939Y46116D01*
X172419Y45437D01*
X172091Y44647D01*
X171980Y43799D01*
X172091Y42951D01*
X172419Y42161D01*
X172939Y41483D01*
X173618Y40962D01*
X174408Y40635D01*
X175256Y40523D01*
X176104Y40635D01*
X176894Y40962D01*
X177572Y41483D01*
X178093Y42161D01*
X178420Y42951D01*
X178532Y43799D01*
X178420Y44647D01*
X178093Y45437D01*
X177572Y46116D01*
X176894Y46636D01*
X176104Y46964D01*
X175256Y47075D01*
D02*
G37*
G36*
X106457Y38611D02*
X105609Y38499D01*
X104819Y38172D01*
X104140Y37651D01*
X103620Y36973D01*
X103292Y36182D01*
X103181Y35335D01*
X103292Y34487D01*
X103620Y33697D01*
X104140Y33018D01*
X104819Y32498D01*
X105609Y32170D01*
X106457Y32059D01*
X107305Y32170D01*
X108095Y32498D01*
X108773Y33018D01*
X109294Y33697D01*
X109621Y34487D01*
X109733Y35335D01*
X109621Y36182D01*
X109294Y36973D01*
X108773Y37651D01*
X108095Y38172D01*
X107305Y38499D01*
X106457Y38611D01*
D02*
G37*
G36*
X35197Y38020D02*
X34349Y37909D01*
X33559Y37581D01*
X32880Y37061D01*
X32360Y36382D01*
X32032Y35592D01*
X31921Y34744D01*
X32032Y33896D01*
X32360Y33106D01*
X32880Y32428D01*
X33559Y31907D01*
X34349Y31580D01*
X35197Y31468D01*
X36045Y31580D01*
X36835Y31907D01*
X37513Y32428D01*
X38034Y33106D01*
X38361Y33896D01*
X38473Y34744D01*
X38361Y35592D01*
X38034Y36382D01*
X37513Y37061D01*
X36835Y37581D01*
X36045Y37909D01*
X35197Y38020D01*
D02*
G37*
G36*
X147100Y44976D02*
X146252Y44864D01*
X145462Y44537D01*
X144783Y44017D01*
X144263Y43338D01*
X143936Y42548D01*
X143824Y41700D01*
X143936Y40852D01*
X144263Y40062D01*
X144783Y39384D01*
X145462Y38863D01*
X146252Y38536D01*
X147100Y38424D01*
X147948Y38536D01*
X148738Y38863D01*
X149416Y39384D01*
X149937Y40062D01*
X150264Y40852D01*
X150376Y41700D01*
X150264Y42548D01*
X149937Y43338D01*
X149416Y44017D01*
X148738Y44537D01*
X147948Y44864D01*
X147100Y44976D01*
D02*
G37*
G36*
X133819Y38611D02*
X132971Y38499D01*
X132181Y38172D01*
X131502Y37651D01*
X130982Y36973D01*
X130655Y36182D01*
X130543Y35335D01*
X130655Y34487D01*
X130982Y33697D01*
X131502Y33018D01*
X132181Y32498D01*
X132971Y32170D01*
X133819Y32059D01*
X134667Y32170D01*
X135457Y32498D01*
X136135Y33018D01*
X136656Y33697D01*
X136983Y34487D01*
X137095Y35335D01*
X136983Y36182D01*
X136656Y36973D01*
X136135Y37651D01*
X135457Y38172D01*
X134667Y38499D01*
X133819Y38611D01*
D02*
G37*
G36*
X62559Y44620D02*
X61557Y44488D01*
X60623Y44101D01*
X59821Y43486D01*
X59206Y42684D01*
X58819Y41750D01*
X58308Y41698D01*
X57835Y41760D01*
X56987Y41649D01*
X56197Y41321D01*
X55518Y40801D01*
X54997Y40122D01*
X54670Y39332D01*
X54559Y38484D01*
X54670Y37636D01*
X54997Y36846D01*
X55518Y36168D01*
X56197Y35647D01*
X56987Y35320D01*
X57835Y35208D01*
X58683Y35320D01*
X59473Y35647D01*
X60151Y36168D01*
X60672Y36846D01*
X60723Y36971D01*
X61185Y37162D01*
X61557Y37008D01*
X62559Y36876D01*
X63561Y37008D01*
X64495Y37395D01*
X65297Y38010D01*
X65912Y38812D01*
X66299Y39746D01*
X66431Y40748D01*
X66299Y41750D01*
X65912Y42684D01*
X65297Y43486D01*
X64495Y44101D01*
X63561Y44488D01*
X62559Y44620D01*
D02*
G37*
G36*
X50256Y53374D02*
X49408Y53263D01*
X48618Y52936D01*
X47939Y52415D01*
X47419Y51736D01*
X47091Y50946D01*
X46980Y50098D01*
X47091Y49251D01*
X47419Y48460D01*
X47939Y47782D01*
X48618Y47261D01*
X49408Y46934D01*
X50256Y46822D01*
X51104Y46934D01*
X51894Y47261D01*
X52572Y47782D01*
X53093Y48460D01*
X53420Y49251D01*
X53532Y50098D01*
X53420Y50946D01*
X53093Y51736D01*
X52572Y52415D01*
X51894Y52936D01*
X51104Y53263D01*
X50256Y53374D01*
D02*
G37*
G36*
X69500Y52776D02*
X68652Y52664D01*
X67862Y52337D01*
X67184Y51816D01*
X66663Y51138D01*
X66336Y50348D01*
X66224Y49500D01*
X66336Y48652D01*
X66663Y47862D01*
X67184Y47183D01*
X67862Y46663D01*
X68652Y46336D01*
X69500Y46224D01*
X70348Y46336D01*
X71138Y46663D01*
X71816Y47183D01*
X72337Y47862D01*
X72664Y48652D01*
X72776Y49500D01*
X72664Y50348D01*
X72337Y51138D01*
X71816Y51816D01*
X71138Y52337D01*
X70348Y52664D01*
X69500Y52776D01*
D02*
G37*
G36*
X51634Y62331D02*
X50786Y62220D01*
X49996Y61892D01*
X49317Y61372D01*
X48797Y60693D01*
X48469Y59903D01*
X48358Y59055D01*
X48469Y58207D01*
X48797Y57417D01*
X49317Y56739D01*
X49996Y56218D01*
X50786Y55891D01*
X51634Y55779D01*
X52336Y55872D01*
X52644Y55761D01*
X52927Y55534D01*
X53193Y54891D01*
X53714Y54212D01*
X54392Y53692D01*
X55182Y53364D01*
X56030Y53253D01*
X56878Y53364D01*
X57668Y53692D01*
X58347Y54212D01*
X58867Y54891D01*
X59195Y55681D01*
X59306Y56529D01*
X59195Y57377D01*
X58867Y58167D01*
X58347Y58845D01*
X57668Y59366D01*
X56878Y59693D01*
X56030Y59805D01*
X55328Y59712D01*
X54798Y59903D01*
X54471Y60693D01*
X53950Y61372D01*
X53272Y61892D01*
X52482Y62220D01*
X51634Y62331D01*
D02*
G37*
G36*
X107524Y57561D02*
X106521Y57429D01*
X105588Y57042D01*
X104786Y56427D01*
X104171Y55625D01*
X103784Y54691D01*
X103652Y53689D01*
X103784Y52687D01*
X104171Y51753D01*
X104786Y50951D01*
X105588Y50336D01*
X106521Y49949D01*
X107524Y49817D01*
X108526Y49949D01*
X109459Y50336D01*
X110261Y50951D01*
X110877Y51753D01*
X111263Y52687D01*
X111395Y53689D01*
X111263Y54691D01*
X110877Y55625D01*
X110261Y56427D01*
X109459Y57042D01*
X108526Y57429D01*
X107524Y57561D01*
D02*
G37*
G36*
X42283Y48650D02*
X41436Y48538D01*
X40645Y48211D01*
X39967Y47690D01*
X39446Y47012D01*
X39119Y46222D01*
X39007Y45374D01*
X39119Y44526D01*
X39446Y43736D01*
X39967Y43058D01*
X40645Y42537D01*
X41436Y42210D01*
X42283Y42098D01*
X43131Y42210D01*
X43922Y42537D01*
X44600Y43058D01*
X45121Y43736D01*
X45448Y44526D01*
X45559Y45374D01*
X45448Y46222D01*
X45121Y47012D01*
X44600Y47690D01*
X43922Y48211D01*
X43131Y48538D01*
X42283Y48650D01*
D02*
G37*
G36*
X77913Y48553D02*
X77040Y48438D01*
X76226Y48100D01*
X75527Y47564D01*
X74990Y46865D01*
X74653Y46051D01*
X74538Y45177D01*
X74653Y44304D01*
X74990Y43490D01*
X75527Y42790D01*
X76226Y42254D01*
X77040Y41917D01*
X77913Y41802D01*
X78787Y41917D01*
X79601Y42254D01*
X80300Y42790D01*
X80836Y43490D01*
X81174Y44304D01*
X81289Y45177D01*
X81174Y46051D01*
X80836Y46865D01*
X80300Y47564D01*
X79601Y48100D01*
X78787Y48438D01*
X77913Y48553D01*
D02*
G37*
G36*
X34803Y50126D02*
X33955Y50015D01*
X33165Y49687D01*
X32487Y49167D01*
X31966Y48488D01*
X31639Y47698D01*
X31527Y46850D01*
X31639Y46003D01*
X31966Y45212D01*
X32487Y44534D01*
X33165Y44013D01*
X33955Y43686D01*
X34803Y43574D01*
X35651Y43686D01*
X36441Y44013D01*
X37120Y44534D01*
X37640Y45212D01*
X37968Y46003D01*
X38079Y46850D01*
X37968Y47698D01*
X37640Y48488D01*
X37120Y49167D01*
X36441Y49687D01*
X35651Y50015D01*
X34803Y50126D01*
D02*
G37*
G36*
X123189Y49339D02*
X122341Y49227D01*
X121551Y48900D01*
X120872Y48379D01*
X120352Y47701D01*
X120025Y46911D01*
X119913Y46063D01*
X120025Y45215D01*
X120352Y44425D01*
X120634Y44058D01*
X120413Y43524D01*
X120373Y43519D01*
X119582Y43191D01*
X118904Y42671D01*
X118383Y41992D01*
X118056Y41202D01*
X117944Y40354D01*
X118056Y39506D01*
X118383Y38716D01*
X118904Y38038D01*
X119582Y37517D01*
X120373Y37190D01*
X121221Y37078D01*
X122068Y37190D01*
X122859Y37517D01*
X123537Y38038D01*
X124058Y38716D01*
X124385Y39506D01*
X124496Y40354D01*
X124385Y41202D01*
X124058Y41992D01*
X123776Y42360D01*
X123997Y42893D01*
X124037Y42899D01*
X124437Y43064D01*
X124996Y42635D01*
X125786Y42308D01*
X126634Y42196D01*
X127482Y42308D01*
X128272Y42635D01*
X128950Y43156D01*
X129471Y43834D01*
X129798Y44625D01*
X129910Y45472D01*
X129798Y46320D01*
X129471Y47111D01*
X128950Y47789D01*
X128272Y48310D01*
X127482Y48637D01*
X126634Y48748D01*
X125786Y48637D01*
X125386Y48471D01*
X124827Y48900D01*
X124037Y49227D01*
X123189Y49339D01*
D02*
G37*
G36*
X155374Y19910D02*
X154526Y19798D01*
X153736Y19471D01*
X153058Y18950D01*
X152537Y18272D01*
X152210Y17482D01*
X152190Y17334D01*
X151888Y17232D01*
X151672Y17230D01*
X151195Y17853D01*
X150516Y18373D01*
X149726Y18701D01*
X148878Y18812D01*
X148030Y18701D01*
X147240Y18373D01*
X146562Y17853D01*
X146041Y17174D01*
X145714Y16384D01*
X145602Y15536D01*
X145714Y14688D01*
X146041Y13898D01*
X146562Y13220D01*
X147240Y12699D01*
X148030Y12372D01*
X148878Y12260D01*
X149726Y12372D01*
X150516Y12699D01*
X151195Y13220D01*
X151715Y13898D01*
X152042Y14688D01*
X152062Y14836D01*
X152364Y14938D01*
X152580Y14940D01*
X153058Y14317D01*
X153736Y13797D01*
X154526Y13469D01*
X155374Y13358D01*
X156222Y13469D01*
X157012Y13797D01*
X157691Y14317D01*
X158211Y14996D01*
X158538Y15786D01*
X158650Y16634D01*
X158538Y17482D01*
X158211Y18272D01*
X157691Y18950D01*
X157012Y19471D01*
X156222Y19798D01*
X155374Y19910D01*
D02*
G37*
G36*
X106161Y20599D02*
X105314Y20487D01*
X104523Y20160D01*
X103845Y19639D01*
X103324Y18961D01*
X102997Y18171D01*
X102885Y17323D01*
X102904Y17183D01*
X102574Y16807D01*
X100577D01*
X100566Y16891D01*
X100239Y17681D01*
X99718Y18360D01*
X99040Y18880D01*
X98250Y19208D01*
X97402Y19319D01*
X96554Y19208D01*
X95763Y18880D01*
X95085Y18360D01*
X94564Y17681D01*
X94237Y16891D01*
X94125Y16043D01*
X94237Y15195D01*
X94564Y14405D01*
X95085Y13727D01*
X95763Y13206D01*
X96554Y12879D01*
X97402Y12767D01*
X98250Y12879D01*
X98593Y13021D01*
X99093Y12687D01*
Y5193D01*
X110707D01*
Y6282D01*
X111207Y6518D01*
X111658Y6148D01*
X112667Y5609D01*
X113762Y5277D01*
X114900Y5165D01*
X116038Y5277D01*
X117133Y5609D01*
X118142Y6148D01*
X119026Y6874D01*
X119588Y7559D01*
X119666Y7592D01*
X120134Y7592D01*
X120212Y7559D01*
X120774Y6874D01*
X121658Y6148D01*
X122667Y5609D01*
X123762Y5277D01*
X124900Y5165D01*
X126038Y5277D01*
X127133Y5609D01*
X128142Y6148D01*
X129026Y6874D01*
X129588Y7559D01*
X129666Y7592D01*
X130134Y7592D01*
X130212Y7559D01*
X130774Y6874D01*
X131658Y6148D01*
X132667Y5609D01*
X133762Y5277D01*
X134900Y5165D01*
X136038Y5277D01*
X137133Y5609D01*
X138142Y6148D01*
X139026Y6874D01*
X139752Y7758D01*
X140291Y8767D01*
X140623Y9862D01*
X140735Y11000D01*
X140623Y12138D01*
X140291Y13233D01*
X139808Y14137D01*
X140171Y14416D01*
X140691Y15094D01*
X141019Y15884D01*
X141130Y16732D01*
X141019Y17580D01*
X140691Y18370D01*
X140171Y19049D01*
X139492Y19569D01*
X138702Y19897D01*
X137854Y20008D01*
X137006Y19897D01*
X136216Y19569D01*
X135538Y19049D01*
X135017Y18370D01*
X134690Y17580D01*
X134588Y16804D01*
X133762Y16723D01*
X132667Y16391D01*
X131658Y15852D01*
X130774Y15126D01*
X130212Y14442D01*
X130134Y14408D01*
X129666Y14408D01*
X129588Y14442D01*
X129026Y15126D01*
X128142Y15852D01*
X127133Y16391D01*
X126038Y16723D01*
X124900Y16835D01*
X123762Y16723D01*
X122667Y16391D01*
X121658Y15852D01*
X120774Y15126D01*
X120212Y14442D01*
X120134Y14408D01*
X119666Y14408D01*
X119588Y14442D01*
X119026Y15126D01*
X118142Y15852D01*
X117133Y16391D01*
X116038Y16723D01*
X114900Y16835D01*
X113762Y16723D01*
X112667Y16391D01*
X111658Y15852D01*
X111207Y15482D01*
X110707Y15718D01*
Y16807D01*
X109749D01*
X109419Y17183D01*
X109437Y17323D01*
X109326Y18171D01*
X108999Y18961D01*
X108478Y19639D01*
X107799Y20160D01*
X107009Y20487D01*
X106161Y20599D01*
D02*
G37*
G36*
X122795Y35363D02*
X121947Y35251D01*
X121157Y34924D01*
X120479Y34403D01*
X119958Y33725D01*
X119631Y32934D01*
X119519Y32087D01*
X119631Y31239D01*
X119958Y30449D01*
X120479Y29770D01*
X121157Y29250D01*
X121947Y28922D01*
X122428Y28859D01*
X122374Y28445D01*
X122485Y27597D01*
X122812Y26807D01*
X123333Y26128D01*
X124012Y25608D01*
X124802Y25280D01*
X125650Y25169D01*
X126497Y25280D01*
X127288Y25608D01*
X127966Y26128D01*
X128423Y26724D01*
X128731Y26701D01*
X128943Y26610D01*
X128981Y26318D01*
X129098Y26035D01*
X128845Y25840D01*
X128324Y25162D01*
X127997Y24372D01*
X127885Y23524D01*
X127997Y22676D01*
X128324Y21886D01*
X128845Y21207D01*
X129523Y20686D01*
X130314Y20359D01*
X131161Y20248D01*
X132009Y20359D01*
X132799Y20686D01*
X133478Y21207D01*
X133999Y21886D01*
X134326Y22676D01*
X134438Y23524D01*
X134326Y24372D01*
X134209Y24654D01*
X134462Y24849D01*
X134983Y25527D01*
X135310Y26318D01*
X135422Y27165D01*
X135310Y28013D01*
X134983Y28803D01*
X134462Y29482D01*
X133784Y30002D01*
X132994Y30330D01*
X132146Y30441D01*
X131298Y30330D01*
X130508Y30002D01*
X129829Y29482D01*
X129372Y28886D01*
X129065Y28909D01*
X128852Y29001D01*
X128814Y29293D01*
X128487Y30083D01*
X127966Y30761D01*
X127288Y31282D01*
X126497Y31609D01*
X126017Y31673D01*
X126071Y32087D01*
X125960Y32934D01*
X125632Y33725D01*
X125112Y34403D01*
X124433Y34924D01*
X123643Y35251D01*
X122795Y35363D01*
D02*
G37*
G36*
X72106Y29949D02*
X71258Y29838D01*
X70468Y29510D01*
X69790Y28990D01*
X69269Y28311D01*
X68942Y27521D01*
X68830Y26673D01*
X68942Y25825D01*
X69269Y25035D01*
X69790Y24357D01*
X70020Y24180D01*
X69564Y23587D01*
X69237Y22797D01*
X69125Y21949D01*
X69237Y21101D01*
X69564Y20311D01*
X70085Y19632D01*
X70763Y19112D01*
X71554Y18784D01*
X72402Y18673D01*
X73250Y18784D01*
X74040Y19112D01*
X74718Y19632D01*
X75239Y20311D01*
X75566Y21101D01*
X75678Y21949D01*
X75566Y22797D01*
X75239Y23587D01*
X74718Y24265D01*
X74488Y24442D01*
X74943Y25035D01*
X75271Y25825D01*
X75382Y26673D01*
X75271Y27521D01*
X74943Y28311D01*
X74423Y28990D01*
X73744Y29510D01*
X72954Y29838D01*
X72106Y29949D01*
D02*
G37*
G36*
X40413Y14004D02*
X39566Y13893D01*
X38775Y13566D01*
X38097Y13045D01*
X37576Y12366D01*
X37249Y11576D01*
X37137Y10728D01*
X37249Y9881D01*
X37576Y9090D01*
X38097Y8412D01*
X38775Y7891D01*
X39566Y7564D01*
X40413Y7452D01*
X41261Y7564D01*
X42051Y7891D01*
X42730Y8412D01*
X43251Y9090D01*
X43578Y9881D01*
X43689Y10728D01*
X43578Y11576D01*
X43251Y12366D01*
X42730Y13045D01*
X42051Y13566D01*
X41261Y13893D01*
X40413Y14004D01*
D02*
G37*
G36*
X46417Y20008D02*
X45569Y19897D01*
X44779Y19569D01*
X44101Y19049D01*
X43580Y18370D01*
X43253Y17580D01*
X43141Y16732D01*
X43253Y15884D01*
X43580Y15094D01*
X44101Y14416D01*
X44779Y13895D01*
X45569Y13568D01*
X46417Y13456D01*
X47265Y13568D01*
X48055Y13895D01*
X48593Y14308D01*
X49093Y14114D01*
Y5193D01*
X60707D01*
Y6282D01*
X61207Y6518D01*
X61658Y6148D01*
X62667Y5609D01*
X63762Y5277D01*
X64900Y5165D01*
X66038Y5277D01*
X67133Y5609D01*
X68142Y6148D01*
X69026Y6874D01*
X69752Y7758D01*
X70291Y8767D01*
X70623Y9862D01*
X70735Y11000D01*
X70623Y12138D01*
X70291Y13233D01*
X69752Y14242D01*
X69026Y15126D01*
X68142Y15852D01*
X67133Y16391D01*
X66038Y16723D01*
X64900Y16835D01*
X63762Y16723D01*
X62667Y16391D01*
X61658Y15852D01*
X61207Y15482D01*
X60707Y15718D01*
Y16807D01*
X49683D01*
X49582Y17580D01*
X49255Y18370D01*
X48734Y19049D01*
X48055Y19569D01*
X47265Y19897D01*
X46417Y20008D01*
D02*
G37*
G36*
X35000Y20205D02*
X34152Y20094D01*
X33362Y19766D01*
X32684Y19246D01*
X32163Y18567D01*
X31836Y17777D01*
X31724Y16929D01*
X31836Y16081D01*
X32163Y15291D01*
X32684Y14613D01*
X33362Y14092D01*
X34152Y13765D01*
X35000Y13653D01*
X35848Y13765D01*
X36638Y14092D01*
X37317Y14613D01*
X37837Y15291D01*
X38164Y16081D01*
X38276Y16929D01*
X38164Y17777D01*
X37837Y18567D01*
X37317Y19246D01*
X36638Y19766D01*
X35848Y20094D01*
X35000Y20205D01*
D02*
G37*
G36*
X174961Y19812D02*
X174113Y19700D01*
X173323Y19373D01*
X172644Y18852D01*
X172124Y18173D01*
X171796Y17383D01*
X171685Y16535D01*
X171796Y15687D01*
X172124Y14897D01*
X172644Y14219D01*
X173323Y13698D01*
X174113Y13371D01*
X174961Y13259D01*
X175809Y13371D01*
X176599Y13698D01*
X177277Y14219D01*
X177798Y14897D01*
X178125Y15687D01*
X178237Y16535D01*
X178125Y17383D01*
X177798Y18173D01*
X177277Y18852D01*
X176599Y19373D01*
X175809Y19700D01*
X174961Y19812D01*
D02*
G37*
G36*
X160230Y27948D02*
X159382Y27836D01*
X158592Y27509D01*
X157913Y26988D01*
X157393Y26310D01*
X157065Y25520D01*
X156954Y24672D01*
X157065Y23824D01*
X157393Y23034D01*
X157913Y22355D01*
X158592Y21835D01*
X159382Y21507D01*
X160230Y21396D01*
X161078Y21507D01*
X161868Y21835D01*
X162546Y22355D01*
X162603Y22429D01*
X163169Y22345D01*
X163589Y21798D01*
X164268Y21277D01*
X165058Y20950D01*
X165905Y20838D01*
X166753Y20950D01*
X167543Y21277D01*
X168222Y21798D01*
X168743Y22476D01*
X169070Y23266D01*
X169182Y24114D01*
X169070Y24962D01*
X168743Y25752D01*
X168222Y26431D01*
X167543Y26951D01*
X166753Y27279D01*
X165905Y27390D01*
X165058Y27279D01*
X164268Y26951D01*
X163589Y26431D01*
X163532Y26357D01*
X162967Y26441D01*
X162546Y26988D01*
X161868Y27509D01*
X161078Y27836D01*
X160230Y27948D01*
D02*
G37*
G36*
X97303Y29752D02*
X96455Y29641D01*
X95665Y29313D01*
X94987Y28793D01*
X94466Y28114D01*
X94139Y27324D01*
X94027Y26476D01*
X94139Y25629D01*
X94466Y24838D01*
X94987Y24160D01*
X95665Y23639D01*
X96455Y23312D01*
X97303Y23200D01*
X98151Y23312D01*
X98941Y23639D01*
X99620Y24160D01*
X100140Y24838D01*
X100468Y25629D01*
X100579Y26476D01*
X100468Y27324D01*
X100140Y28114D01*
X99620Y28793D01*
X98941Y29313D01*
X98151Y29641D01*
X97303Y29752D01*
D02*
G37*
G36*
X35197Y29162D02*
X34349Y29050D01*
X33559Y28723D01*
X32880Y28202D01*
X32360Y27524D01*
X32032Y26734D01*
X31921Y25886D01*
X32032Y25038D01*
X32360Y24248D01*
X32880Y23569D01*
X33559Y23049D01*
X34349Y22721D01*
X35197Y22610D01*
X36045Y22721D01*
X36835Y23049D01*
X37513Y23569D01*
X38034Y24248D01*
X38361Y25038D01*
X38473Y25886D01*
X38361Y26734D01*
X38034Y27524D01*
X37513Y28202D01*
X36835Y28723D01*
X36045Y29050D01*
X35197Y29162D01*
D02*
G37*
G36*
X97402Y37626D02*
X96554Y37515D01*
X95763Y37187D01*
X95085Y36667D01*
X94564Y35988D01*
X94237Y35198D01*
X94125Y34350D01*
X94237Y33503D01*
X94564Y32712D01*
X95085Y32034D01*
X95763Y31513D01*
X96554Y31186D01*
X97402Y31074D01*
X98250Y31186D01*
X99040Y31513D01*
X99718Y32034D01*
X100239Y32712D01*
X100566Y33503D01*
X100678Y34350D01*
X100566Y35198D01*
X100239Y35988D01*
X99718Y36667D01*
X99040Y37187D01*
X98250Y37515D01*
X97402Y37626D01*
D02*
G37*
G36*
X165850Y36642D02*
X165003Y36531D01*
X164212Y36203D01*
X163534Y35683D01*
X163013Y35004D01*
X162686Y34214D01*
X162574Y33366D01*
X162686Y32518D01*
X163013Y31728D01*
X163534Y31050D01*
X164212Y30529D01*
X165003Y30202D01*
X165850Y30090D01*
X166698Y30202D01*
X167488Y30529D01*
X168167Y31050D01*
X168687Y31728D01*
X169015Y32518D01*
X169126Y33366D01*
X169015Y34214D01*
X168687Y35004D01*
X168167Y35683D01*
X167488Y36203D01*
X166698Y36531D01*
X165850Y36642D01*
D02*
G37*
G36*
X147100Y28676D02*
X146252Y28564D01*
X145462Y28237D01*
X144783Y27716D01*
X144263Y27038D01*
X143936Y26248D01*
X143824Y25400D01*
X143936Y24552D01*
X144263Y23762D01*
X144783Y23084D01*
X145462Y22563D01*
X146252Y22236D01*
X147100Y22124D01*
X147948Y22236D01*
X148738Y22563D01*
X149416Y23084D01*
X149937Y23762D01*
X150264Y24552D01*
X150376Y25400D01*
X150264Y26248D01*
X149937Y27038D01*
X149416Y27716D01*
X148738Y28237D01*
X147948Y28564D01*
X147100Y28676D01*
D02*
G37*
G36*
X60000Y31426D02*
X59152Y31314D01*
X58362Y30987D01*
X57683Y30466D01*
X57163Y29788D01*
X56836Y28997D01*
X56724Y28150D01*
X56836Y27302D01*
X57163Y26512D01*
X57683Y25833D01*
X58362Y25313D01*
X59152Y24985D01*
X59175Y24982D01*
X59086Y24311D01*
X59198Y23463D01*
X59525Y22673D01*
X60046Y21994D01*
X60724Y21474D01*
X61514Y21147D01*
X62362Y21035D01*
X63210Y21147D01*
X64000Y21474D01*
X64679Y21994D01*
X65199Y22673D01*
X65527Y23463D01*
X65638Y24311D01*
X65527Y25159D01*
X65199Y25949D01*
X64679Y26627D01*
X64000Y27148D01*
X63210Y27475D01*
X63188Y27478D01*
X63276Y28150D01*
X63164Y28997D01*
X62837Y29788D01*
X62317Y30466D01*
X61638Y30987D01*
X60848Y31314D01*
X60000Y31426D01*
D02*
G37*
G36*
X46319Y29063D02*
X45471Y28952D01*
X44681Y28624D01*
X44002Y28104D01*
X43482Y27425D01*
X43154Y26635D01*
X43043Y25787D01*
X43154Y24939D01*
X43482Y24149D01*
X44002Y23471D01*
X44681Y22950D01*
X45471Y22623D01*
X46319Y22511D01*
X47167Y22623D01*
X47957Y22950D01*
X48635Y23471D01*
X49156Y24149D01*
X49483Y24939D01*
X49595Y25787D01*
X49483Y26635D01*
X49156Y27425D01*
X48635Y28104D01*
X47957Y28624D01*
X47167Y28952D01*
X46319Y29063D01*
D02*
G37*
G36*
X106358Y28753D02*
X105510Y28642D01*
X104720Y28314D01*
X104042Y27794D01*
X103521Y27115D01*
X103194Y26325D01*
X103082Y25477D01*
X103194Y24629D01*
X103521Y23839D01*
X104042Y23161D01*
X104720Y22640D01*
X105510Y22313D01*
X106358Y22201D01*
X107206Y22313D01*
X107996Y22640D01*
X108675Y23161D01*
X109195Y23839D01*
X109523Y24629D01*
X109634Y25477D01*
X109523Y26325D01*
X109195Y27115D01*
X108675Y27794D01*
X107996Y28314D01*
X107206Y28642D01*
X106358Y28753D01*
D02*
G37*
G36*
X167500Y76472D02*
X166498Y76340D01*
X165564Y75953D01*
X164762Y75338D01*
X164147Y74536D01*
X163760Y73602D01*
X163628Y72600D01*
X163760Y71598D01*
X164049Y70900D01*
X163760Y70202D01*
X163628Y69200D01*
X163760Y68198D01*
X164029Y67550D01*
X163760Y66902D01*
X163628Y65900D01*
X163760Y64898D01*
X164049Y64200D01*
X163760Y63502D01*
X163628Y62500D01*
X163760Y61498D01*
X164147Y60564D01*
X164762Y59762D01*
X165564Y59147D01*
X166498Y58760D01*
X167500Y58628D01*
X168502Y58760D01*
X169436Y59147D01*
X170238Y59762D01*
X170853Y60564D01*
X171240Y61498D01*
X171372Y62500D01*
X171240Y63502D01*
X170951Y64200D01*
X171240Y64898D01*
X171372Y65900D01*
X171240Y66902D01*
X170971Y67550D01*
X171240Y68198D01*
X171372Y69200D01*
X171240Y70202D01*
X170951Y70900D01*
X171240Y71598D01*
X171372Y72600D01*
X171240Y73602D01*
X170853Y74536D01*
X170238Y75338D01*
X169436Y75953D01*
X168502Y76340D01*
X167500Y76472D01*
D02*
G37*
G36*
X39429Y126701D02*
X38581Y126590D01*
X37791Y126262D01*
X37113Y125742D01*
X36592Y125063D01*
X36265Y124273D01*
X36153Y123425D01*
X36265Y122577D01*
X36592Y121787D01*
X37113Y121109D01*
X37791Y120588D01*
X38581Y120261D01*
X39429Y120149D01*
X40277Y120261D01*
X41067Y120588D01*
X41746Y121109D01*
X42266Y121787D01*
X42594Y122577D01*
X42705Y123425D01*
X42594Y124273D01*
X42266Y125063D01*
X41746Y125742D01*
X41067Y126262D01*
X40277Y126590D01*
X39429Y126701D01*
D02*
G37*
G36*
X93268Y120993D02*
X92420Y120881D01*
X91630Y120554D01*
X90951Y120033D01*
X90431Y119355D01*
X90103Y118564D01*
X89992Y117717D01*
X90103Y116869D01*
X90431Y116078D01*
X90951Y115400D01*
X91630Y114879D01*
X92420Y114552D01*
X93268Y114441D01*
X94116Y114552D01*
X94906Y114879D01*
X95584Y115400D01*
X96105Y116078D01*
X96432Y116869D01*
X96544Y117717D01*
X96432Y118564D01*
X96105Y119355D01*
X95584Y120033D01*
X94906Y120554D01*
X94116Y120881D01*
X93268Y120993D01*
D02*
G37*
G36*
X61575Y160958D02*
X60573Y160826D01*
X59803Y160508D01*
X59034Y160826D01*
X58031Y160958D01*
X57029Y160826D01*
X56260Y160508D01*
X55490Y160826D01*
X54488Y160958D01*
X53486Y160826D01*
X52716Y160508D01*
X51947Y160826D01*
X50945Y160958D01*
X49943Y160826D01*
X49009Y160440D01*
X48207Y159824D01*
X47592Y159022D01*
X47205Y158089D01*
X47073Y157087D01*
X47205Y156085D01*
X47524Y155315D01*
X47205Y154545D01*
X47073Y153543D01*
X47205Y152541D01*
X47524Y151772D01*
X47205Y151002D01*
X47073Y150000D01*
X47205Y148998D01*
X47524Y148228D01*
X47205Y147459D01*
X47073Y146457D01*
X47205Y145455D01*
X47592Y144521D01*
X48207Y143719D01*
X49009Y143104D01*
X49943Y142717D01*
X50945Y142585D01*
X51947Y142717D01*
X52716Y143036D01*
X53486Y142717D01*
X54488Y142585D01*
X55490Y142717D01*
X56260Y143036D01*
X57029Y142717D01*
X58031Y142585D01*
X59034Y142717D01*
X59803Y143036D01*
X60573Y142717D01*
X61575Y142585D01*
X62577Y142717D01*
X63511Y143104D01*
X64312Y143719D01*
X64928Y144521D01*
X65315Y145455D01*
X65447Y146457D01*
X65315Y147459D01*
X64996Y148228D01*
X65315Y148998D01*
X65447Y150000D01*
X65315Y151002D01*
X64996Y151772D01*
X65315Y152541D01*
X65447Y153543D01*
X65315Y154545D01*
X64996Y155315D01*
X65315Y156085D01*
X65447Y157087D01*
X65315Y158089D01*
X64928Y159022D01*
X64312Y159824D01*
X63511Y160440D01*
X62577Y160826D01*
X61575Y160958D01*
D02*
G37*
G36*
X95730Y160872D02*
X94728Y160740D01*
X93958Y160421D01*
X93189Y160740D01*
X92187Y160872D01*
X91185Y160740D01*
X90415Y160421D01*
X89645Y160740D01*
X88643Y160872D01*
X87641Y160740D01*
X86872Y160421D01*
X86102Y160740D01*
X85100Y160872D01*
X84098Y160740D01*
X83164Y160353D01*
X82362Y159738D01*
X81747Y158936D01*
X81360Y158002D01*
X81228Y157000D01*
X81360Y155998D01*
X81679Y155228D01*
X81360Y154459D01*
X81228Y153457D01*
X81360Y152455D01*
X81679Y151685D01*
X81360Y150916D01*
X81228Y149913D01*
X81360Y148911D01*
X81679Y148142D01*
X81360Y147372D01*
X81228Y146370D01*
X81360Y145368D01*
X81747Y144434D01*
X82362Y143632D01*
X83164Y143017D01*
X84098Y142630D01*
X85100Y142498D01*
X86102Y142630D01*
X86872Y142949D01*
X87641Y142630D01*
X88643Y142498D01*
X89645Y142630D01*
X90415Y142949D01*
X91185Y142630D01*
X92187Y142498D01*
X93189Y142630D01*
X93958Y142949D01*
X94728Y142630D01*
X95730Y142498D01*
X96732Y142630D01*
X97666Y143017D01*
X98468Y143632D01*
X99083Y144434D01*
X99470Y145368D01*
X99602Y146370D01*
X99470Y147372D01*
X99151Y148142D01*
X99470Y148911D01*
X99602Y149913D01*
X99470Y150916D01*
X99151Y151685D01*
X99470Y152455D01*
X99602Y153457D01*
X99470Y154459D01*
X99151Y155228D01*
X99470Y155998D01*
X99602Y157000D01*
X99470Y158002D01*
X99083Y158936D01*
X98468Y159738D01*
X97666Y160353D01*
X96732Y160740D01*
X95730Y160872D01*
D02*
G37*
G36*
X53500Y111976D02*
X52652Y111864D01*
X51862Y111537D01*
X51183Y111016D01*
X50663Y110338D01*
X50336Y109548D01*
X50224Y108700D01*
X50336Y107852D01*
X50663Y107062D01*
X51183Y106384D01*
X51862Y105863D01*
X52652Y105536D01*
X53500Y105424D01*
X54348Y105536D01*
X55138Y105863D01*
X55817Y106384D01*
X56337Y107062D01*
X56664Y107852D01*
X56776Y108700D01*
X56664Y109548D01*
X56337Y110338D01*
X55817Y111016D01*
X55138Y111537D01*
X54348Y111864D01*
X53500Y111976D01*
D02*
G37*
G36*
X145401Y105276D02*
X144553Y105164D01*
X143763Y104837D01*
X143084Y104316D01*
X142564Y103638D01*
X142236Y102848D01*
X142125Y102000D01*
X142236Y101152D01*
X142564Y100362D01*
X143084Y99683D01*
X143763Y99163D01*
X144553Y98836D01*
X145401Y98724D01*
X146249Y98836D01*
X147039Y99163D01*
X147717Y99683D01*
X148238Y100362D01*
X148565Y101152D01*
X148677Y102000D01*
X148565Y102848D01*
X148238Y103638D01*
X147717Y104316D01*
X147039Y104837D01*
X146249Y105164D01*
X145401Y105276D01*
D02*
G37*
G36*
X43071Y119319D02*
X42223Y119208D01*
X41433Y118880D01*
X40754Y118360D01*
X40234Y117681D01*
X39906Y116891D01*
X39795Y116043D01*
X39906Y115195D01*
X40234Y114405D01*
X40754Y113727D01*
X41433Y113206D01*
X42223Y112879D01*
X43071Y112767D01*
X43919Y112879D01*
X44709Y113206D01*
X45387Y113727D01*
X45908Y114405D01*
X46235Y115195D01*
X46347Y116043D01*
X46235Y116891D01*
X45908Y117681D01*
X45387Y118360D01*
X44709Y118880D01*
X43919Y119208D01*
X43071Y119319D01*
D02*
G37*
G36*
X115928Y118156D02*
X115080Y118044D01*
X114290Y117717D01*
X113611Y117197D01*
X113091Y116518D01*
X112891Y116037D01*
X112410Y115837D01*
X111731Y115316D01*
X111211Y114638D01*
X110883Y113848D01*
X110772Y113000D01*
X110883Y112152D01*
X111211Y111362D01*
X111731Y110684D01*
X112410Y110163D01*
X113200Y109836D01*
X114048Y109724D01*
X114896Y109836D01*
X115686Y110163D01*
X116365Y110684D01*
X116885Y111362D01*
X117085Y111843D01*
X117566Y112043D01*
X118244Y112563D01*
X118765Y113242D01*
X119092Y114032D01*
X119204Y114880D01*
X119092Y115728D01*
X118765Y116518D01*
X118244Y117197D01*
X117566Y117717D01*
X116776Y118044D01*
X115928Y118156D01*
D02*
G37*
G36*
X192030Y161302D02*
X191028Y161170D01*
X190258Y160851D01*
X189489Y161170D01*
X188487Y161302D01*
X187485Y161170D01*
X186715Y160851D01*
X185945Y161170D01*
X184943Y161302D01*
X183941Y161170D01*
X183172Y160851D01*
X182402Y161170D01*
X181400Y161302D01*
X180398Y161170D01*
X179464Y160783D01*
X178662Y160168D01*
X178047Y159366D01*
X177660Y158432D01*
X177528Y157430D01*
X177660Y156428D01*
X177979Y155658D01*
X177660Y154889D01*
X177528Y153887D01*
X177660Y152884D01*
X177979Y152115D01*
X177660Y151345D01*
X177528Y150343D01*
X177660Y149341D01*
X177979Y148572D01*
X177660Y147802D01*
X177528Y146800D01*
X177660Y145798D01*
X178047Y144864D01*
X178662Y144062D01*
X179464Y143447D01*
X180398Y143060D01*
X181400Y142928D01*
X182402Y143060D01*
X183172Y143379D01*
X183941Y143060D01*
X184943Y142928D01*
X185945Y143060D01*
X186715Y143379D01*
X187485Y143060D01*
X188487Y142928D01*
X189489Y143060D01*
X190258Y143379D01*
X191028Y143060D01*
X192030Y142928D01*
X193032Y143060D01*
X193966Y143447D01*
X194768Y144062D01*
X195383Y144864D01*
X195770Y145798D01*
X195902Y146800D01*
X195770Y147802D01*
X195451Y148572D01*
X195770Y149341D01*
X195902Y150343D01*
X195770Y151345D01*
X195451Y152115D01*
X195770Y152884D01*
X195902Y153887D01*
X195770Y154889D01*
X195451Y155658D01*
X195770Y156428D01*
X195902Y157430D01*
X195770Y158432D01*
X195383Y159366D01*
X194768Y160168D01*
X193966Y160783D01*
X193032Y161170D01*
X192030Y161302D01*
D02*
G37*
G36*
X170201Y186998D02*
X169199Y186866D01*
X168265Y186479D01*
X168233Y186454D01*
X168200Y186479D01*
X167266Y186866D01*
X166264Y186998D01*
X165262Y186866D01*
X164328Y186479D01*
X164296Y186454D01*
X164263Y186479D01*
X163329Y186866D01*
X162327Y186998D01*
X161325Y186866D01*
X160391Y186479D01*
X159589Y185864D01*
X158974Y185062D01*
X158587Y184129D01*
X158455Y183126D01*
X158467Y183038D01*
X158009Y182687D01*
X157424Y182929D01*
X156422Y183061D01*
X155420Y182929D01*
X154486Y182543D01*
X153684Y181927D01*
X153069Y181125D01*
X152682Y180192D01*
X152550Y179190D01*
X152682Y178187D01*
X153069Y177254D01*
X153684Y176452D01*
X154486Y175837D01*
X154590Y175794D01*
X154518Y175252D01*
X154650Y174250D01*
X155037Y173317D01*
X155652Y172515D01*
X155845Y172367D01*
X155715Y171884D01*
X155455Y171850D01*
X154685Y171531D01*
X153916Y171850D01*
X152913Y171982D01*
X151911Y171850D01*
X151142Y171531D01*
X150372Y171850D01*
X149370Y171982D01*
X148368Y171850D01*
X147434Y171463D01*
X146632Y170848D01*
X146017Y170046D01*
X145630Y169112D01*
X145498Y168110D01*
X145630Y167108D01*
X145949Y166339D01*
X145630Y165569D01*
X145498Y164567D01*
X145630Y163565D01*
X145949Y162795D01*
X145630Y162026D01*
X145498Y161024D01*
X145630Y160022D01*
X145949Y159252D01*
X145630Y158482D01*
X145498Y157480D01*
X145630Y156478D01*
X146017Y155544D01*
X146632Y154743D01*
X147434Y154127D01*
X148368Y153741D01*
X149370Y153609D01*
X150372Y153741D01*
X151142Y154059D01*
X151911Y153741D01*
X152913Y153609D01*
X153916Y153741D01*
X154685Y154059D01*
X155455Y153741D01*
X156457Y153609D01*
X157459Y153741D01*
X158228Y154059D01*
X158998Y153741D01*
X160000Y153609D01*
X161002Y153741D01*
X161936Y154127D01*
X162738Y154743D01*
X163353Y155544D01*
X163740Y156478D01*
X163872Y157480D01*
X163740Y158482D01*
X163421Y159252D01*
X163740Y160022D01*
X163872Y161024D01*
X163740Y162026D01*
X163421Y162795D01*
X163740Y163565D01*
X163872Y164567D01*
X163740Y165569D01*
X163421Y166339D01*
X163740Y167108D01*
X163872Y168110D01*
X163740Y169112D01*
X163353Y170046D01*
X162738Y170848D01*
X162646Y170918D01*
X162786Y171441D01*
X163329Y171513D01*
X164263Y171899D01*
X165065Y172515D01*
X165680Y173317D01*
X166067Y174250D01*
X166199Y175252D01*
X166187Y175341D01*
X166645Y175692D01*
X167231Y175450D01*
X168233Y175318D01*
X169235Y175450D01*
X170168Y175837D01*
X170201Y175862D01*
X170234Y175837D01*
X171168Y175450D01*
X172170Y175318D01*
X173172Y175450D01*
X174106Y175837D01*
X174138Y175862D01*
X174171Y175837D01*
X175105Y175450D01*
X176107Y175318D01*
X177109Y175450D01*
X177533Y175625D01*
X177991Y175274D01*
X177928Y174800D01*
X178060Y173798D01*
X178447Y172864D01*
X179062Y172062D01*
X179864Y171447D01*
X180798Y171060D01*
X181800Y170928D01*
X182802Y171060D01*
X183572Y171379D01*
X184341Y171060D01*
X185343Y170928D01*
X186345Y171060D01*
X187115Y171379D01*
X187884Y171060D01*
X188887Y170928D01*
X189889Y171060D01*
X190658Y171379D01*
X191428Y171060D01*
X192430Y170928D01*
X193432Y171060D01*
X194366Y171447D01*
X195168Y172062D01*
X195783Y172864D01*
X196170Y173798D01*
X196302Y174800D01*
X196170Y175802D01*
X195783Y176736D01*
X195168Y177538D01*
X194366Y178153D01*
X193432Y178540D01*
X192430Y178672D01*
X191428Y178540D01*
X190658Y178221D01*
X189889Y178540D01*
X188887Y178672D01*
X187884Y178540D01*
X187115Y178221D01*
X186345Y178540D01*
X185343Y178672D01*
X184341Y178540D01*
X183572Y178221D01*
X182802Y178540D01*
X181800Y178672D01*
X180798Y178540D01*
X180374Y178364D01*
X179916Y178716D01*
X179978Y179190D01*
X179846Y180192D01*
X179460Y181125D01*
X178844Y181927D01*
X178042Y182543D01*
X177109Y182929D01*
X176107Y183061D01*
X175105Y182929D01*
X174519Y182687D01*
X174061Y183038D01*
X174073Y183126D01*
X173941Y184129D01*
X173554Y185062D01*
X172939Y185864D01*
X172137Y186479D01*
X171203Y186866D01*
X170201Y186998D01*
D02*
G37*
G36*
X44217D02*
X43215Y186866D01*
X42281Y186479D01*
X42248Y186454D01*
X42216Y186479D01*
X41282Y186866D01*
X40280Y186998D01*
X39278Y186866D01*
X38344Y186479D01*
X38311Y186454D01*
X38279Y186479D01*
X37345Y186866D01*
X36343Y186998D01*
X35341Y186866D01*
X34407Y186479D01*
X33605Y185864D01*
X32990Y185062D01*
X32603Y184129D01*
X32471Y183126D01*
X32542Y182586D01*
X32438Y182543D01*
X31637Y181927D01*
X31021Y181125D01*
X30634Y180192D01*
X30503Y179190D01*
X30514Y179101D01*
X30056Y178750D01*
X29471Y178992D01*
X28469Y179124D01*
X27467Y178992D01*
X26533Y178605D01*
X25731Y177990D01*
X25116Y177188D01*
X24729Y176255D01*
X24597Y175252D01*
X24729Y174250D01*
X25116Y173317D01*
X25731Y172515D01*
X25923Y172367D01*
X25794Y171884D01*
X25533Y171850D01*
X24764Y171531D01*
X23994Y171850D01*
X22992Y171982D01*
X21990Y171850D01*
X21220Y171531D01*
X20451Y171850D01*
X19449Y171982D01*
X18447Y171850D01*
X17513Y171463D01*
X16711Y170848D01*
X16096Y170046D01*
X15709Y169112D01*
X15577Y168110D01*
X15709Y167108D01*
X16028Y166339D01*
X15709Y165569D01*
X15577Y164567D01*
X15709Y163565D01*
X16028Y162795D01*
X15709Y162026D01*
X15577Y161024D01*
X15709Y160022D01*
X16028Y159252D01*
X15709Y158482D01*
X15577Y157480D01*
X15709Y156478D01*
X16096Y155544D01*
X16711Y154743D01*
X17513Y154127D01*
X18447Y153741D01*
X19449Y153609D01*
X20451Y153741D01*
X21220Y154059D01*
X21990Y153741D01*
X22992Y153609D01*
X23994Y153741D01*
X24764Y154059D01*
X25533Y153741D01*
X26535Y153609D01*
X27538Y153741D01*
X28307Y154059D01*
X29077Y153741D01*
X30079Y153609D01*
X31081Y153741D01*
X32015Y154127D01*
X32816Y154743D01*
X33432Y155544D01*
X33819Y156478D01*
X33950Y157480D01*
X33819Y158482D01*
X33500Y159252D01*
X33819Y160022D01*
X33950Y161024D01*
X33819Y162026D01*
X33500Y162795D01*
X33819Y163565D01*
X33950Y164567D01*
X33819Y165569D01*
X33500Y166339D01*
X33819Y167108D01*
X33950Y168110D01*
X33819Y169112D01*
X33432Y170046D01*
X32816Y170848D01*
X32725Y170919D01*
X32865Y171441D01*
X33408Y171513D01*
X34342Y171899D01*
X35144Y172515D01*
X35759Y173317D01*
X36146Y174250D01*
X36277Y175252D01*
X36266Y175341D01*
X36724Y175692D01*
X37309Y175450D01*
X38311Y175318D01*
X39313Y175450D01*
X40247Y175837D01*
X41049Y176452D01*
X41664Y177254D01*
X42051Y178187D01*
X42183Y179190D01*
X42171Y179278D01*
X42629Y179629D01*
X43215Y179387D01*
X44217Y179255D01*
X45219Y179387D01*
X46153Y179773D01*
X46955Y180389D01*
X47570Y181191D01*
X47957Y182124D01*
X48088Y183126D01*
X47957Y184129D01*
X47570Y185062D01*
X46955Y185864D01*
X46153Y186479D01*
X45219Y186866D01*
X44217Y186998D01*
D02*
G37*
G36*
X162264Y230217D02*
X146713D01*
Y214665D01*
X162264D01*
Y230217D01*
D02*
G37*
G36*
X118169Y230118D02*
X102618D01*
Y214567D01*
X105313D01*
X105438Y213620D01*
X105824Y212687D01*
X106440Y211885D01*
X107242Y211270D01*
X107345Y211227D01*
X107274Y210686D01*
X107406Y209683D01*
X107793Y208750D01*
X108408Y207948D01*
X109210Y207333D01*
X110144Y206946D01*
X111146Y206814D01*
X112148Y206946D01*
X112733Y207188D01*
X113191Y206837D01*
X113180Y206749D01*
X113312Y205747D01*
X113698Y204813D01*
X114314Y204011D01*
X115116Y203396D01*
X115219Y203353D01*
X115148Y202812D01*
X115280Y201810D01*
X115667Y200876D01*
X116282Y200074D01*
X117084Y199459D01*
X118018Y199072D01*
X119020Y198940D01*
X120022Y199072D01*
X120607Y199314D01*
X121065Y198963D01*
X121054Y198875D01*
X121186Y197872D01*
X121572Y196939D01*
X122188Y196137D01*
X122990Y195522D01*
X123093Y195478D01*
X123022Y194938D01*
X123154Y193936D01*
X123541Y193002D01*
X124156Y192200D01*
X124958Y191585D01*
X125892Y191198D01*
X126894Y191066D01*
X127896Y191198D01*
X128830Y191585D01*
X128863Y191610D01*
X128895Y191585D01*
X129829Y191198D01*
X130831Y191066D01*
X131833Y191198D01*
X132767Y191585D01*
X132799Y191610D01*
X132832Y191585D01*
X133766Y191198D01*
X134768Y191066D01*
X135770Y191198D01*
X136704Y191585D01*
X137506Y192200D01*
X138121Y193002D01*
X138508Y193936D01*
X138640Y194938D01*
X138568Y195478D01*
X138672Y195522D01*
X139474Y196137D01*
X140089Y196939D01*
X140476Y197872D01*
X140608Y198875D01*
X140476Y199877D01*
X140089Y200810D01*
X139474Y201612D01*
X138672Y202227D01*
X137739Y202614D01*
X136737Y202746D01*
X135734Y202614D01*
X134801Y202227D01*
X134768Y202203D01*
X134735Y202227D01*
X133802Y202614D01*
X132799Y202746D01*
X131798Y202614D01*
X130864Y202227D01*
X130831Y202203D01*
X130798Y202227D01*
X129865Y202614D01*
X128863Y202746D01*
X127860Y202614D01*
X127275Y202372D01*
X126817Y202723D01*
X126829Y202812D01*
X126697Y203814D01*
X126310Y204747D01*
X125695Y205549D01*
X124893Y206165D01*
X124789Y206208D01*
X124860Y206749D01*
X124728Y207751D01*
X124341Y208684D01*
X123726Y209486D01*
X122924Y210102D01*
X122820Y210145D01*
X122892Y210686D01*
X122760Y211688D01*
X122373Y212621D01*
X121758Y213423D01*
X120956Y214039D01*
X120022Y214425D01*
X119020Y214557D01*
X118645Y214508D01*
X118169Y214950D01*
Y230118D01*
D02*
G37*
G36*
X65087Y176172D02*
X64085Y176040D01*
X63315Y175721D01*
X62545Y176040D01*
X61543Y176172D01*
X60541Y176040D01*
X59772Y175721D01*
X59002Y176040D01*
X58000Y176172D01*
X56998Y176040D01*
X56228Y175721D01*
X55459Y176040D01*
X54457Y176172D01*
X53455Y176040D01*
X52521Y175653D01*
X51719Y175038D01*
X51104Y174236D01*
X50717Y173302D01*
X50585Y172300D01*
X50717Y171298D01*
X51104Y170364D01*
X51719Y169562D01*
X52521Y168947D01*
X53455Y168560D01*
X54457Y168428D01*
X55459Y168560D01*
X56228Y168879D01*
X56998Y168560D01*
X58000Y168428D01*
X59002Y168560D01*
X59772Y168879D01*
X60541Y168560D01*
X61543Y168428D01*
X62545Y168560D01*
X63315Y168879D01*
X64085Y168560D01*
X65087Y168428D01*
X66089Y168560D01*
X67023Y168947D01*
X67824Y169562D01*
X68440Y170364D01*
X68826Y171298D01*
X68958Y172300D01*
X68826Y173302D01*
X68440Y174236D01*
X67824Y175038D01*
X67023Y175653D01*
X66089Y176040D01*
X65087Y176172D01*
D02*
G37*
G36*
X90709Y230156D02*
X89184Y230006D01*
X87719Y229561D01*
X86368Y228839D01*
X85184Y227867D01*
X84212Y226683D01*
X83490Y225332D01*
X83046Y223867D01*
X82895Y222342D01*
X83046Y220818D01*
X83490Y219353D01*
X84212Y218002D01*
X85184Y216818D01*
X85977Y216167D01*
X85753Y215625D01*
X85621Y214623D01*
X85753Y213620D01*
X86139Y212687D01*
X86755Y211885D01*
X87557Y211270D01*
X87660Y211227D01*
X87589Y210686D01*
X87660Y210145D01*
X87557Y210102D01*
X86755Y209486D01*
X86139Y208684D01*
X85753Y207751D01*
X85621Y206749D01*
X85753Y205747D01*
X86139Y204813D01*
X86755Y204011D01*
X87557Y203396D01*
X87660Y203353D01*
X87589Y202812D01*
X87660Y202271D01*
X87557Y202227D01*
X86755Y201612D01*
X86139Y200810D01*
X85753Y199877D01*
X85621Y198875D01*
X85753Y197872D01*
X86139Y196939D01*
X86755Y196137D01*
X87557Y195522D01*
X87660Y195478D01*
X87589Y194938D01*
X87721Y193936D01*
X88108Y193002D01*
X88723Y192200D01*
X89525Y191585D01*
X90459Y191198D01*
X91021Y191124D01*
X91242Y190590D01*
X91047Y190336D01*
X90660Y189402D01*
X90528Y188400D01*
X90660Y187398D01*
X91047Y186464D01*
X91662Y185662D01*
Y185538D01*
X91047Y184736D01*
X90660Y183802D01*
X90528Y182800D01*
X90650Y181873D01*
X90076Y181125D01*
X89690Y180192D01*
X89558Y179190D01*
X89629Y178648D01*
X89525Y178605D01*
X88723Y177990D01*
X88108Y177188D01*
X87721Y176255D01*
X87589Y175252D01*
X87612Y175080D01*
X87064Y174853D01*
X86262Y174238D01*
X85647Y173436D01*
X85260Y172502D01*
X85128Y171500D01*
X85260Y170498D01*
X85647Y169564D01*
X86262Y168762D01*
X87064Y168147D01*
X87998Y167760D01*
X89000Y167628D01*
X90002Y167760D01*
X90772Y168079D01*
X91541Y167760D01*
X92543Y167628D01*
X93545Y167760D01*
X94315Y168079D01*
X95085Y167760D01*
X96087Y167628D01*
X97089Y167760D01*
X98023Y168147D01*
X98043Y168163D01*
X98064Y168147D01*
X98998Y167760D01*
X100000Y167628D01*
X101002Y167760D01*
X101936Y168147D01*
X102738Y168762D01*
X103353Y169564D01*
X103740Y170498D01*
X103872Y171500D01*
X103740Y172502D01*
X103353Y173436D01*
X102738Y174238D01*
X101936Y174853D01*
X101002Y175240D01*
X100000Y175372D01*
X98998Y175240D01*
X98064Y174853D01*
X98043Y174837D01*
X98023Y174853D01*
X97089Y175240D01*
X96087Y175372D01*
X95330Y175272D01*
X95261Y175794D01*
X95365Y175837D01*
X96167Y176452D01*
X96782Y177254D01*
X97169Y178187D01*
X97301Y179190D01*
X97179Y180116D01*
X97753Y180864D01*
X98140Y181798D01*
X98272Y182800D01*
X98140Y183802D01*
X97753Y184736D01*
X97138Y185538D01*
Y185662D01*
X97753Y186464D01*
X98140Y187398D01*
X98272Y188400D01*
X98140Y189402D01*
X97753Y190336D01*
X97138Y191138D01*
X96336Y191753D01*
X95402Y192140D01*
X94840Y192214D01*
X94619Y192747D01*
X94814Y193002D01*
X95201Y193936D01*
X95333Y194938D01*
X95261Y195478D01*
X95365Y195522D01*
X96167Y196137D01*
X96782Y196939D01*
X97169Y197872D01*
X97301Y198875D01*
X97230Y199416D01*
X97334Y199459D01*
X98136Y200074D01*
X98751Y200876D01*
X99138Y201810D01*
X99270Y202812D01*
X99138Y203814D01*
X98751Y204747D01*
X98136Y205549D01*
X97334Y206165D01*
X97230Y206208D01*
X97301Y206749D01*
X97169Y207751D01*
X96782Y208684D01*
X96167Y209486D01*
X95365Y210102D01*
X95261Y210145D01*
X95333Y210686D01*
X95261Y211227D01*
X95365Y211270D01*
X96167Y211885D01*
X96782Y212687D01*
X97169Y213620D01*
X97301Y214623D01*
X97169Y215625D01*
X96782Y216558D01*
X96414Y217038D01*
X97205Y218002D01*
X97927Y219353D01*
X98372Y220818D01*
X98522Y222342D01*
X98372Y223867D01*
X97927Y225332D01*
X97205Y226683D01*
X96233Y227867D01*
X95049Y228839D01*
X93699Y229561D01*
X92233Y230006D01*
X90709Y230156D01*
D02*
G37*
G36*
X71024D02*
X69499Y230006D01*
X68034Y229561D01*
X66683Y228839D01*
X65499Y227867D01*
X64527Y226683D01*
X63805Y225332D01*
X63361Y223867D01*
X63210Y222342D01*
X63211Y222340D01*
X62900Y222299D01*
X61966Y221913D01*
X61164Y221297D01*
X60549Y220496D01*
X60162Y219562D01*
X60030Y218560D01*
X60101Y218019D01*
X59997Y217976D01*
X59196Y217360D01*
X58580Y216558D01*
X58194Y215625D01*
X58062Y214623D01*
X58133Y214082D01*
X58029Y214039D01*
X57227Y213423D01*
X56612Y212621D01*
X56225Y211688D01*
X56093Y210686D01*
X56225Y209683D01*
X56612Y208750D01*
X57227Y207948D01*
X58029Y207333D01*
X58133Y207290D01*
X58062Y206749D01*
X58133Y206208D01*
X58029Y206165D01*
X57227Y205549D01*
X56612Y204747D01*
X56225Y203814D01*
X56093Y202812D01*
X56225Y201810D01*
X56612Y200876D01*
X57227Y200074D01*
X58029Y199459D01*
X58963Y199072D01*
X59965Y198940D01*
X60967Y199072D01*
X61901Y199459D01*
X61933Y199484D01*
X61966Y199459D01*
X62900Y199072D01*
X63902Y198940D01*
X64904Y199072D01*
X65489Y199314D01*
X65947Y198963D01*
X65936Y198875D01*
X66007Y198334D01*
X65903Y198291D01*
X65101Y197675D01*
X64486Y196873D01*
X64099Y195940D01*
X63967Y194938D01*
X64099Y193936D01*
X64486Y193002D01*
X64803Y192588D01*
X64676Y191932D01*
X64162Y191538D01*
X63547Y190736D01*
X63160Y189802D01*
X63028Y188800D01*
X63160Y187798D01*
X63547Y186864D01*
X64162Y186062D01*
Y185938D01*
X63547Y185136D01*
X63160Y184202D01*
X63028Y183200D01*
X63160Y182198D01*
X63547Y181264D01*
X64162Y180462D01*
X64964Y179847D01*
X65898Y179460D01*
X66900Y179328D01*
X67902Y179460D01*
X68836Y179847D01*
X69638Y180462D01*
X70253Y181264D01*
X70640Y182198D01*
X70772Y183200D01*
X70640Y184202D01*
X70253Y185136D01*
X69638Y185938D01*
Y186062D01*
X70253Y186864D01*
X70640Y187798D01*
X70772Y188800D01*
X70640Y189802D01*
X70253Y190736D01*
X69936Y191149D01*
X70063Y191805D01*
X70577Y192200D01*
X71192Y193002D01*
X71579Y193936D01*
X71711Y194938D01*
X71639Y195478D01*
X71743Y195522D01*
X72545Y196137D01*
X73160Y196939D01*
X73547Y197872D01*
X73679Y198875D01*
X73608Y199416D01*
X73712Y199459D01*
X74514Y200074D01*
X75129Y200876D01*
X75516Y201810D01*
X75648Y202812D01*
X75516Y203814D01*
X75129Y204747D01*
X74514Y205549D01*
X73712Y206165D01*
X73608Y206208D01*
X73679Y206749D01*
X73608Y207290D01*
X73712Y207333D01*
X74514Y207948D01*
X75129Y208750D01*
X75516Y209683D01*
X75648Y210686D01*
X75516Y211688D01*
X75129Y212621D01*
X74514Y213423D01*
X73712Y214039D01*
X73608Y214082D01*
X73679Y214623D01*
X73628Y215007D01*
X74014Y215124D01*
X75364Y215846D01*
X76548Y216818D01*
X77520Y218002D01*
X78242Y219353D01*
X78687Y220818D01*
X78837Y222342D01*
X78687Y223867D01*
X78242Y225332D01*
X77520Y226683D01*
X76548Y227867D01*
X75364Y228839D01*
X74014Y229561D01*
X72548Y230006D01*
X71024Y230156D01*
D02*
G37*
G36*
X122957Y179124D02*
X121955Y178992D01*
X121021Y178605D01*
X120989Y178580D01*
X120956Y178605D01*
X120022Y178992D01*
X119020Y179124D01*
X118018Y178992D01*
X117084Y178605D01*
X117051Y178580D01*
X117019Y178605D01*
X116085Y178992D01*
X115083Y179124D01*
X114081Y178992D01*
X113147Y178605D01*
X113115Y178580D01*
X113082Y178605D01*
X112148Y178992D01*
X111146Y179124D01*
X110144Y178992D01*
X109210Y178605D01*
X108408Y177990D01*
X107793Y177188D01*
X107406Y176255D01*
X107274Y175252D01*
X107406Y174250D01*
X107793Y173317D01*
X108408Y172515D01*
X109210Y171899D01*
X110144Y171513D01*
X111146Y171381D01*
X112148Y171513D01*
X113082Y171899D01*
X113115Y171925D01*
X113147Y171899D01*
X114029Y171534D01*
X114173Y171168D01*
X114207Y171041D01*
X113955Y170848D01*
X113340Y170046D01*
X112953Y169112D01*
X112821Y168110D01*
X112953Y167108D01*
X113272Y166339D01*
X112953Y165569D01*
X112821Y164567D01*
X112953Y163565D01*
X113272Y162795D01*
X112953Y162026D01*
X112821Y161024D01*
X112953Y160022D01*
X113272Y159252D01*
X112953Y158482D01*
X112821Y157480D01*
X112953Y156478D01*
X113340Y155544D01*
X113955Y154743D01*
X114757Y154127D01*
X115691Y153741D01*
X116693Y153609D01*
X117695Y153741D01*
X118465Y154059D01*
X119234Y153741D01*
X120236Y153609D01*
X121238Y153741D01*
X122008Y154059D01*
X122777Y153741D01*
X123779Y153609D01*
X124782Y153741D01*
X125551Y154059D01*
X126321Y153741D01*
X127323Y153609D01*
X128325Y153741D01*
X129259Y154127D01*
X130061Y154743D01*
X130676Y155544D01*
X131063Y156478D01*
X131194Y157480D01*
X131063Y158482D01*
X130744Y159252D01*
X131063Y160022D01*
X131194Y161024D01*
X131063Y162026D01*
X130744Y162795D01*
X131063Y163565D01*
X131194Y164567D01*
X131063Y165569D01*
X130744Y166339D01*
X131063Y167108D01*
X131194Y168110D01*
X131063Y169112D01*
X130676Y170046D01*
X130061Y170848D01*
X129259Y171463D01*
X128325Y171850D01*
X127323Y171982D01*
X126321Y171850D01*
X125832Y171648D01*
X125570Y171791D01*
X125517Y172378D01*
X125695Y172515D01*
X126310Y173317D01*
X126697Y174250D01*
X126829Y175252D01*
X126697Y176255D01*
X126310Y177188D01*
X125695Y177990D01*
X124893Y178605D01*
X123959Y178992D01*
X122957Y179124D01*
D02*
G37*
G36*
X78799Y73552D02*
X77951Y73440D01*
X77161Y73113D01*
X76483Y72592D01*
X75962Y71914D01*
X75635Y71123D01*
X75523Y70276D01*
X75635Y69428D01*
X75962Y68638D01*
X76483Y67959D01*
X77161Y67439D01*
X77951Y67111D01*
X78799Y67000D01*
X79647Y67111D01*
X80437Y67439D01*
X81116Y67959D01*
X81636Y68638D01*
X81964Y69428D01*
X82075Y70276D01*
X81964Y71123D01*
X81636Y71914D01*
X81116Y72592D01*
X80437Y73113D01*
X79647Y73440D01*
X78799Y73552D01*
D02*
G37*
G36*
X41890Y67056D02*
X41042Y66944D01*
X40252Y66617D01*
X39573Y66096D01*
X39053Y65418D01*
X38505Y65403D01*
X38112Y65566D01*
X37264Y65678D01*
X36416Y65566D01*
X35626Y65239D01*
X34947Y64718D01*
X34427Y64040D01*
X34099Y63249D01*
X33988Y62402D01*
X34099Y61554D01*
X34427Y60764D01*
X34947Y60085D01*
X35626Y59564D01*
X36416Y59237D01*
X37264Y59126D01*
X38112Y59237D01*
X38902Y59564D01*
X39580Y60085D01*
X40101Y60764D01*
X40648Y60778D01*
X41042Y60615D01*
X41890Y60504D01*
X42738Y60615D01*
X43528Y60942D01*
X44206Y61463D01*
X44727Y62142D01*
X45054Y62932D01*
X45166Y63779D01*
X45054Y64627D01*
X44727Y65418D01*
X44206Y66096D01*
X43528Y66617D01*
X42738Y66944D01*
X41890Y67056D01*
D02*
G37*
G36*
X136799Y80522D02*
X135797Y80389D01*
X134863Y80003D01*
X134062Y79387D01*
X133446Y78586D01*
X133060Y77652D01*
X132928Y76650D01*
X133060Y75648D01*
X133446Y74714D01*
X134062Y73912D01*
X134863Y73297D01*
X135797Y72910D01*
X136799Y72778D01*
X137801Y72910D01*
X138735Y73297D01*
X139537Y73912D01*
X140152Y74714D01*
X140539Y75648D01*
X140671Y76650D01*
X140539Y77652D01*
X140152Y78586D01*
X139537Y79387D01*
X138735Y80003D01*
X137801Y80389D01*
X136799Y80522D01*
D02*
G37*
G36*
X56358Y76996D02*
X55510Y76885D01*
X54720Y76558D01*
X54042Y76037D01*
X53521Y75358D01*
X53194Y74568D01*
X53082Y73721D01*
X53194Y72873D01*
X53521Y72082D01*
X54042Y71404D01*
X54720Y70883D01*
X55510Y70556D01*
X56358Y70444D01*
X57206Y70556D01*
X57996Y70883D01*
X58675Y71404D01*
X59195Y72082D01*
X59523Y72873D01*
X59634Y73721D01*
X59523Y74568D01*
X59195Y75358D01*
X58675Y76037D01*
X57996Y76558D01*
X57206Y76885D01*
X56358Y76996D01*
D02*
G37*
G36*
X94842Y74344D02*
X93840Y74212D01*
X92907Y73826D01*
X92105Y73210D01*
X91489Y72408D01*
X91103Y71475D01*
X90971Y70473D01*
X91103Y69471D01*
X91340Y68898D01*
X91103Y68325D01*
X90971Y67323D01*
X91103Y66321D01*
X91489Y65387D01*
X92105Y64585D01*
X92907Y63970D01*
X93840Y63583D01*
X94842Y63451D01*
X95845Y63583D01*
X96778Y63970D01*
X97580Y64585D01*
X98195Y65387D01*
X98582Y66321D01*
X98714Y67323D01*
X98582Y68325D01*
X98345Y68898D01*
X98582Y69471D01*
X98714Y70473D01*
X98582Y71475D01*
X98195Y72408D01*
X97580Y73210D01*
X96778Y73826D01*
X95845Y74212D01*
X94842Y74344D01*
D02*
G37*
G36*
X145236Y71096D02*
X144234Y70964D01*
X143300Y70577D01*
X142499Y69962D01*
X141883Y69160D01*
X141496Y68226D01*
X141365Y67224D01*
X141496Y66222D01*
X141883Y65289D01*
X142499Y64487D01*
X143300Y63871D01*
X144234Y63485D01*
X145236Y63353D01*
X146238Y63485D01*
X147172Y63871D01*
X147974Y64487D01*
X148589Y65289D01*
X148976Y66222D01*
X149108Y67224D01*
X148976Y68226D01*
X148589Y69160D01*
X147974Y69962D01*
X147172Y70577D01*
X146238Y70964D01*
X145236Y71096D01*
D02*
G37*
G36*
X125847Y71386D02*
X124999Y71275D01*
X124208Y70947D01*
X123530Y70427D01*
X123009Y69748D01*
X122682Y68958D01*
X122570Y68110D01*
X122682Y67262D01*
X123009Y66472D01*
X123530Y65794D01*
X124208Y65273D01*
X124999Y64946D01*
X125847Y64834D01*
X126694Y64946D01*
X127485Y65273D01*
X128163Y65794D01*
X128684Y66472D01*
X129011Y67262D01*
X129122Y68110D01*
X129011Y68958D01*
X128684Y69748D01*
X128163Y70427D01*
X127485Y70947D01*
X126694Y71275D01*
X125847Y71386D01*
D02*
G37*
G36*
X136516Y71490D02*
X135514Y71358D01*
X134580Y70971D01*
X133778Y70356D01*
X133163Y69554D01*
X132776Y68620D01*
X132644Y67618D01*
X132776Y66616D01*
X133163Y65682D01*
X133778Y64880D01*
X134580Y64265D01*
X135514Y63878D01*
X136516Y63746D01*
X137518Y63878D01*
X138452Y64265D01*
X139253Y64880D01*
X139869Y65682D01*
X140255Y66616D01*
X140387Y67618D01*
X140255Y68620D01*
X139869Y69554D01*
X139253Y70356D01*
X138452Y70971D01*
X137518Y71358D01*
X136516Y71490D01*
D02*
G37*
G36*
X72598Y81130D02*
X71750Y81019D01*
X70960Y80691D01*
X70282Y80171D01*
X69761Y79492D01*
X69434Y78702D01*
X69322Y77854D01*
X69434Y77006D01*
X69761Y76216D01*
X70282Y75538D01*
X70960Y75017D01*
X71750Y74690D01*
X72598Y74578D01*
X73446Y74690D01*
X74237Y75017D01*
X74915Y75538D01*
X75436Y76216D01*
X75763Y77006D01*
X75875Y77854D01*
X75763Y78702D01*
X75436Y79492D01*
X74915Y80171D01*
X74237Y80691D01*
X73446Y81019D01*
X72598Y81130D01*
D02*
G37*
G36*
X84508Y95697D02*
X83660Y95586D01*
X82870Y95258D01*
X82191Y94738D01*
X81713Y94936D01*
X81422Y95160D01*
X80631Y95487D01*
X79783Y95599D01*
X78936Y95487D01*
X78145Y95160D01*
X77467Y94639D01*
X76946Y93961D01*
X76619Y93171D01*
X76507Y92323D01*
X76619Y91475D01*
X76946Y90685D01*
X77467Y90006D01*
X78145Y89486D01*
X78936Y89158D01*
X79783Y89047D01*
X80631Y89158D01*
X81422Y89486D01*
X81816Y89788D01*
X82100Y90006D01*
X82578Y89808D01*
X82870Y89584D01*
X83660Y89257D01*
X84508Y89145D01*
X85356Y89257D01*
X86146Y89584D01*
X86824Y90105D01*
X87345Y90783D01*
X87672Y91573D01*
X87784Y92421D01*
X87672Y93269D01*
X87345Y94059D01*
X86824Y94738D01*
X86146Y95258D01*
X85356Y95586D01*
X84508Y95697D01*
D02*
G37*
G36*
X41200Y96276D02*
X40352Y96164D01*
X39562Y95837D01*
X38884Y95316D01*
X38413Y94703D01*
X38238Y94837D01*
X37448Y95164D01*
X36600Y95276D01*
X35752Y95164D01*
X34962Y94837D01*
X34284Y94317D01*
X33763Y93638D01*
X33436Y92848D01*
X33324Y92000D01*
X33436Y91152D01*
X33763Y90362D01*
X34284Y89684D01*
X34962Y89163D01*
X35752Y88836D01*
X36600Y88724D01*
X37448Y88836D01*
X38238Y89163D01*
X38917Y89684D01*
X39387Y90297D01*
X39562Y90163D01*
X40352Y89836D01*
X41200Y89724D01*
X42048Y89836D01*
X42838Y90163D01*
X43516Y90684D01*
X44037Y91362D01*
X44364Y92152D01*
X44476Y93000D01*
X44364Y93848D01*
X44037Y94638D01*
X43516Y95316D01*
X42838Y95837D01*
X42048Y96164D01*
X41200Y96276D01*
D02*
G37*
G36*
X42000Y104276D02*
X41152Y104164D01*
X40362Y103837D01*
X39683Y103316D01*
X39163Y102638D01*
X38836Y101848D01*
X38724Y101000D01*
X38836Y100152D01*
X39163Y99362D01*
X39683Y98684D01*
X40362Y98163D01*
X41152Y97836D01*
X42000Y97724D01*
X42848Y97836D01*
X43638Y98163D01*
X44317Y98684D01*
X44837Y99362D01*
X45164Y100152D01*
X45276Y101000D01*
X45164Y101848D01*
X44837Y102638D01*
X44317Y103316D01*
X43638Y103837D01*
X42848Y104164D01*
X42000Y104276D01*
D02*
G37*
G36*
X84705Y107508D02*
X83857Y107397D01*
X83067Y107069D01*
X82388Y106549D01*
X81868Y105870D01*
X81540Y105080D01*
X81429Y104232D01*
X81540Y103384D01*
X81862Y102608D01*
X81540Y101832D01*
X81429Y100984D01*
X81540Y100136D01*
X81868Y99346D01*
X82388Y98668D01*
X83067Y98147D01*
X83857Y97820D01*
X84705Y97708D01*
X85553Y97820D01*
X86343Y98147D01*
X87021Y98668D01*
X87542Y99346D01*
X87869Y100136D01*
X87981Y100984D01*
X87869Y101832D01*
X87548Y102608D01*
X87869Y103384D01*
X87981Y104232D01*
X87869Y105080D01*
X87542Y105870D01*
X87021Y106549D01*
X86343Y107069D01*
X85553Y107397D01*
X84705Y107508D01*
D02*
G37*
G36*
X91004Y88217D02*
X90156Y88105D01*
X89366Y87778D01*
X88687Y87257D01*
X88167Y86579D01*
X87840Y85789D01*
X87744Y85060D01*
X87294Y84775D01*
X87229Y84825D01*
X86439Y85153D01*
X85590Y85264D01*
X84743Y85153D01*
X83952Y84825D01*
X83274Y84305D01*
X82753Y83626D01*
X82426Y82836D01*
X82314Y81988D01*
X82426Y81140D01*
X82753Y80350D01*
X83274Y79672D01*
X83842Y79236D01*
X83903Y78778D01*
X84230Y77988D01*
X84750Y77310D01*
X85429Y76789D01*
X86219Y76462D01*
X87067Y76350D01*
X87915Y76462D01*
X88705Y76789D01*
X89384Y77310D01*
X89904Y77988D01*
X90231Y78778D01*
X90336Y79575D01*
X90489Y79690D01*
X90820Y79834D01*
X90941Y79742D01*
X91280Y79601D01*
X91284Y79566D01*
X91612Y78775D01*
X92132Y78097D01*
X92811Y77576D01*
X93601Y77249D01*
X94449Y77137D01*
X95297Y77249D01*
X95632Y77388D01*
X96069Y76817D01*
X96748Y76297D01*
X97054Y76170D01*
X97320Y75527D01*
X97841Y74849D01*
X98519Y74328D01*
X98945Y74152D01*
X99190Y73559D01*
X99711Y72880D01*
X100390Y72360D01*
X101180Y72032D01*
X102028Y71921D01*
X102875Y72032D01*
X103666Y72360D01*
X104344Y72880D01*
X104865Y73559D01*
X105192Y74349D01*
X105304Y75197D01*
X105192Y76045D01*
X104865Y76835D01*
X104344Y77513D01*
X103666Y78034D01*
X103240Y78210D01*
X102995Y78803D01*
X102474Y79482D01*
X101795Y80002D01*
X101489Y80129D01*
X101223Y80772D01*
X100702Y81450D01*
X100024Y81971D01*
X99234Y82298D01*
X98386Y82410D01*
X97538Y82298D01*
X97203Y82160D01*
X96765Y82730D01*
X96087Y83250D01*
X95748Y83391D01*
X95743Y83427D01*
X95416Y84217D01*
X94895Y84895D01*
X94217Y85415D01*
X94168Y85789D01*
X93841Y86579D01*
X93321Y87257D01*
X92642Y87778D01*
X91852Y88105D01*
X91004Y88217D01*
D02*
G37*
G36*
X41988Y82016D02*
X41140Y81905D01*
X40350Y81577D01*
X39672Y81057D01*
X39151Y80378D01*
X38927Y79836D01*
X38210Y80133D01*
X37362Y80245D01*
X36514Y80133D01*
X35724Y79806D01*
X35046Y79285D01*
X34525Y78606D01*
X34198Y77816D01*
X34086Y76968D01*
X34198Y76121D01*
X34525Y75331D01*
X35046Y74652D01*
X35724Y74131D01*
X36514Y73804D01*
X37362Y73692D01*
X38210Y73804D01*
X39000Y74131D01*
X39679Y74652D01*
X40199Y75331D01*
X40424Y75872D01*
X41140Y75576D01*
X41988Y75464D01*
X42836Y75576D01*
X43626Y75903D01*
X44305Y76424D01*
X44825Y77102D01*
X45153Y77892D01*
X45264Y78740D01*
X45153Y79588D01*
X44825Y80378D01*
X44305Y81057D01*
X43626Y81577D01*
X42836Y81905D01*
X41988Y82016D01*
D02*
G37*
G36*
X123500Y98976D02*
X122652Y98864D01*
X121862Y98537D01*
X121184Y98017D01*
X120663Y97338D01*
X120336Y96548D01*
X120319Y96426D01*
X119852Y96364D01*
X119062Y96037D01*
X118384Y95517D01*
X117863Y94838D01*
X117536Y94048D01*
X117424Y93200D01*
X117536Y92352D01*
X117863Y91562D01*
X118384Y90883D01*
X119062Y90363D01*
X119852Y90036D01*
X120700Y89924D01*
X121548Y90036D01*
X122338Y90363D01*
X123017Y90883D01*
X123537Y91562D01*
X123864Y92352D01*
X123881Y92474D01*
X124348Y92536D01*
X125138Y92863D01*
X125817Y93384D01*
X126337Y94062D01*
X126664Y94852D01*
X126776Y95700D01*
X126664Y96548D01*
X126337Y97338D01*
X125817Y98017D01*
X125138Y98537D01*
X124348Y98864D01*
X123500Y98976D01*
D02*
G37*
G36*
X72697Y92449D02*
X71849Y92338D01*
X71059Y92010D01*
X70380Y91490D01*
X69860Y90811D01*
X69532Y90021D01*
X69421Y89173D01*
X69532Y88325D01*
X69860Y87535D01*
X70380Y86857D01*
X71059Y86336D01*
X71849Y86009D01*
X72697Y85897D01*
X73545Y86009D01*
X74335Y86336D01*
X75013Y86857D01*
X75534Y87535D01*
X75861Y88325D01*
X75973Y89173D01*
X75861Y90021D01*
X75534Y90811D01*
X75013Y91490D01*
X74335Y92010D01*
X73545Y92338D01*
X72697Y92449D01*
D02*
G37*
%LPD*%
D43*
X194900Y96000D02*
D03*
X24900Y86000D02*
D03*
D46*
X74900Y11000D02*
D03*
X144900D02*
D03*
X154900D02*
D03*
D48*
X134803Y222441D02*
D03*
D49*
X145728Y58169D02*
D03*
X120335Y61516D02*
D03*
X86476Y59941D02*
D03*
X136417Y58465D02*
D03*
X63642Y65453D02*
D03*
X72795D02*
D03*
X100354Y53642D02*
D03*
X154657Y77681D02*
D03*
X3701Y190551D02*
D03*
X7244D02*
D03*
X10787D02*
D03*
X14331D02*
D03*
Y194095D02*
D03*
X10787D02*
D03*
X7244D02*
D03*
X3701D02*
D03*
X14331Y197638D02*
D03*
X10787D02*
D03*
X7244D02*
D03*
X3701D02*
D03*
X14331Y201181D02*
D03*
X10787D02*
D03*
X7244D02*
D03*
X3701D02*
D03*
X17874Y204724D02*
D03*
X14331D02*
D03*
X10787D02*
D03*
X7244D02*
D03*
X28504D02*
D03*
X24961D02*
D03*
X21417D02*
D03*
X28504Y201181D02*
D03*
Y197638D02*
D03*
Y194095D02*
D03*
Y190551D02*
D03*
X206063Y197638D02*
D03*
X202520D02*
D03*
X198976D02*
D03*
X195433D02*
D03*
X206063Y194095D02*
D03*
X202520D02*
D03*
X198976D02*
D03*
X195433D02*
D03*
X206063Y190551D02*
D03*
X202520D02*
D03*
X198976D02*
D03*
X195433D02*
D03*
X202520Y204724D02*
D03*
X198976D02*
D03*
X195433D02*
D03*
X206063Y201181D02*
D03*
X202520D02*
D03*
X198976D02*
D03*
X195433D02*
D03*
X184803Y204724D02*
D03*
X188347D02*
D03*
X191890D02*
D03*
X184803Y190551D02*
D03*
Y194095D02*
D03*
Y197638D02*
D03*
Y201181D02*
D03*
X28330Y141000D02*
D03*
X24787D02*
D03*
X21243D02*
D03*
X17700D02*
D03*
X125930Y140300D02*
D03*
X122387D02*
D03*
X118843D02*
D03*
X115300D02*
D03*
X156430Y140700D02*
D03*
X152887D02*
D03*
X149343D02*
D03*
X145800D02*
D03*
D50*
X122205Y20965D02*
D03*
X91004Y38780D02*
D03*
X91102Y20768D02*
D03*
X129488Y50886D02*
D03*
X67087Y32776D02*
D03*
X120335Y102165D02*
D03*
X32539Y93110D02*
D03*
X99370Y97047D02*
D03*
X106982Y95607D02*
D03*
X93850Y103171D02*
D03*
X104095Y120276D02*
D03*
X103898Y113779D02*
D03*
X64921Y96752D02*
D03*
X133819Y40354D02*
D03*
X77028Y35827D02*
D03*
X41398Y15945D02*
D03*
X41594Y24902D02*
D03*
X128799Y37402D02*
D03*
X57600Y108900D02*
D03*
X8996Y103328D02*
D03*
X31434Y44366D02*
D03*
Y68166D02*
D03*
X31534Y78834D02*
D03*
X49000Y93000D02*
D03*
X49640Y79500D02*
D03*
X49540Y66900D02*
D03*
X50179Y41784D02*
D03*
X174032Y102287D02*
D03*
X152000Y104700D02*
D03*
X75939Y100638D02*
D03*
X200888Y103345D02*
D03*
X146000Y112000D02*
D03*
X161100Y38000D02*
D03*
X161000Y29000D02*
D03*
D51*
X97215Y102869D02*
D03*
X99442Y105096D02*
D03*
X101669Y107323D02*
D03*
X103896Y109550D02*
D03*
X99442Y100642D02*
D03*
X101669Y102869D02*
D03*
X103896Y105096D02*
D03*
X106123Y107323D02*
D03*
X101669Y98415D02*
D03*
X103896Y100642D02*
D03*
X108350Y105096D02*
D03*
X103896Y96188D02*
D03*
X106123Y98415D02*
D03*
X110577Y102869D02*
D03*
X108350Y100642D02*
D03*
X106123Y102869D02*
D03*
M02*
