G04 Layer_Physical_Order=3*
G04 Layer_Color=16440176*
%FSLAX25Y25*%
%MOIN*%
G70*
G01*
G75*
%ADD27C,0.01155*%
%ADD28C,0.03000*%
%ADD30C,0.02000*%
%ADD38C,0.01575*%
%ADD44R,0.04921X0.04921*%
%ADD45R,0.06890X0.06890*%
%ADD47R,0.10827X0.10827*%
%ADD49C,0.02953*%
%ADD50C,0.01772*%
G36*
X44993Y105169D02*
Y101831D01*
X44388Y101226D01*
X43845Y101391D01*
X43776Y101736D01*
X43360Y102360D01*
X42736Y102776D01*
X42500Y102823D01*
Y101000D01*
X41500D01*
Y102823D01*
X41264Y102776D01*
X40640Y102360D01*
X40224Y101736D01*
X40093Y101080D01*
X40093Y101080D01*
X39939Y100906D01*
X39647Y100707D01*
X39626Y100703D01*
X39570Y100700D01*
X39498Y100718D01*
X38868Y100755D01*
X38809Y100747D01*
X38751Y100758D01*
X38423Y100693D01*
X38092Y100647D01*
X38041Y100617D01*
X37983Y100605D01*
X37705Y100420D01*
X37417Y100250D01*
X37381Y100203D01*
X37332Y100170D01*
X33647Y96485D01*
X33592Y96403D01*
X33516Y96341D01*
X33376Y96080D01*
X33253Y95895D01*
X32539Y95989D01*
X31794Y95891D01*
X31100Y95604D01*
X30504Y95146D01*
X30046Y94550D01*
X29759Y93855D01*
X29660Y93110D01*
X29759Y92365D01*
X29974Y91845D01*
X29885Y91786D01*
X29745Y91646D01*
X29581Y91536D01*
X29471Y91372D01*
X29331Y91232D01*
X29256Y91050D01*
X29146Y90885D01*
X29107Y90691D01*
X29032Y90509D01*
Y90311D01*
X28993Y90117D01*
Y88763D01*
X28493Y88593D01*
X28059Y89159D01*
X27134Y89869D01*
X26056Y90315D01*
X24900Y90467D01*
X23744Y90315D01*
X22666Y89869D01*
X21741Y89159D01*
X21031Y88234D01*
X20585Y87156D01*
X20433Y86000D01*
X20585Y84844D01*
X21031Y83766D01*
X21741Y82841D01*
X22666Y82131D01*
X23744Y81685D01*
X24900Y81533D01*
X26056Y81685D01*
X27134Y82131D01*
X28059Y82841D01*
X28493Y83407D01*
X28993Y83237D01*
Y82022D01*
X29006Y81957D01*
X28997Y81891D01*
X29082Y81575D01*
X29146Y81254D01*
X29183Y81199D01*
X29200Y81134D01*
X29399Y80875D01*
X29447Y80803D01*
X29041Y80274D01*
X28754Y79579D01*
X28697Y79149D01*
X28174Y79009D01*
X28059Y79159D01*
X27134Y79869D01*
X26056Y80315D01*
X24900Y80467D01*
X23744Y80315D01*
X22666Y79869D01*
X21741Y79159D01*
X21031Y78234D01*
X20585Y77156D01*
X20433Y76000D01*
X20585Y74844D01*
X21031Y73766D01*
X21741Y72841D01*
X22666Y72131D01*
X23744Y71685D01*
X24900Y71533D01*
X26056Y71685D01*
X27134Y72131D01*
X28059Y72841D01*
X28493Y73407D01*
X28993Y73237D01*
Y71367D01*
X29006Y71301D01*
X28997Y71235D01*
X29082Y70919D01*
X29146Y70599D01*
X29183Y70543D01*
X29200Y70479D01*
X29399Y70201D01*
X28941Y69605D01*
X28733Y69102D01*
X28192Y68986D01*
X28059Y69159D01*
X27134Y69869D01*
X26056Y70315D01*
X24900Y70467D01*
X23744Y70315D01*
X22666Y69869D01*
X21741Y69159D01*
X21031Y68234D01*
X20585Y67156D01*
X20433Y66000D01*
X20585Y64844D01*
X21031Y63766D01*
X21741Y62841D01*
X22666Y62131D01*
X23744Y61685D01*
X24900Y61533D01*
X26056Y61685D01*
X27134Y62131D01*
X28059Y62841D01*
X28493Y63407D01*
X28993Y63237D01*
Y58763D01*
X28493Y58593D01*
X28059Y59159D01*
X27134Y59869D01*
X26056Y60315D01*
X24900Y60467D01*
X23744Y60315D01*
X22666Y59869D01*
X21741Y59159D01*
X21031Y58234D01*
X20585Y57156D01*
X20433Y56000D01*
X20585Y54844D01*
X21031Y53766D01*
X21741Y52841D01*
X22666Y52131D01*
X23744Y51685D01*
X24900Y51533D01*
X26056Y51685D01*
X27134Y52131D01*
X28059Y52841D01*
X28493Y53407D01*
X28993Y53237D01*
Y48763D01*
X28493Y48593D01*
X28059Y49159D01*
X27134Y49869D01*
X26056Y50315D01*
X24900Y50467D01*
X23744Y50315D01*
X22666Y49869D01*
X21741Y49159D01*
X21031Y48234D01*
X20585Y47156D01*
X20433Y46000D01*
X20585Y44844D01*
X21031Y43766D01*
X21741Y42841D01*
X22666Y42131D01*
X23744Y41685D01*
X24900Y41533D01*
X26056Y41685D01*
X27134Y42131D01*
X28059Y42841D01*
X28350Y43221D01*
X28846Y43156D01*
X28941Y42926D01*
X29399Y42330D01*
X29995Y41872D01*
X30689Y41585D01*
X31434Y41487D01*
X32179Y41585D01*
X32874Y41872D01*
X33470Y42330D01*
X33928Y42926D01*
X34215Y43620D01*
X34222Y43677D01*
X34749Y43979D01*
X34803Y43971D01*
X35020Y44000D01*
X35839D01*
X35900Y43909D01*
X36116Y43585D01*
X36118Y43583D01*
X36119Y43581D01*
X36443Y43365D01*
X36766Y43148D01*
X36768Y43147D01*
X36771Y43146D01*
X37153Y43070D01*
X37533Y42993D01*
X37536Y42994D01*
X37539Y42993D01*
X40054D01*
X40151Y43012D01*
X40251Y43003D01*
X40533Y43088D01*
X40565Y43095D01*
X40844Y42881D01*
X41538Y42593D01*
X42283Y42495D01*
X43029Y42593D01*
X43723Y42881D01*
X44002Y43095D01*
X44034Y43088D01*
X44317Y43003D01*
X44416Y43012D01*
X44513Y42993D01*
X47140D01*
X47380Y42635D01*
X47393Y42493D01*
X47300Y41784D01*
X47398Y41039D01*
X47686Y40344D01*
X48143Y39748D01*
X48739Y39290D01*
X49434Y39003D01*
X50179Y38905D01*
X50924Y39003D01*
X51618Y39290D01*
X52215Y39748D01*
X52672Y40344D01*
X52960Y41039D01*
X53058Y41784D01*
X52965Y42493D01*
X52978Y42635D01*
X53218Y42993D01*
X60630D01*
X60747Y42493D01*
X60226Y41714D01*
X60082Y40988D01*
X59561Y40757D01*
X59274Y40977D01*
X58580Y41265D01*
X57835Y41363D01*
X57090Y41265D01*
X56395Y40977D01*
X55799Y40520D01*
X55341Y39924D01*
X55054Y39229D01*
X54956Y38484D01*
X55054Y37739D01*
X55341Y37045D01*
X55799Y36448D01*
X56395Y35991D01*
X57090Y35703D01*
X57835Y35605D01*
X58580Y35703D01*
X59274Y35991D01*
X59870Y36448D01*
X60328Y37045D01*
X60615Y37739D01*
X60704Y38408D01*
X60918Y38569D01*
X61192Y38683D01*
X61593Y38415D01*
X62059Y38323D01*
Y40748D01*
X62559D01*
Y41248D01*
X64985D01*
X64892Y41714D01*
X64372Y42493D01*
X64488Y42993D01*
X70000D01*
X70768Y43146D01*
X71419Y43581D01*
X73419Y45581D01*
X73854Y46232D01*
X74007Y47000D01*
Y49000D01*
Y53000D01*
X73854Y53768D01*
X73419Y54419D01*
X71419Y56419D01*
X70768Y56854D01*
X70000Y57007D01*
X58846D01*
X58811Y57274D01*
X58523Y57968D01*
X58066Y58565D01*
X57470Y59022D01*
X56775Y59310D01*
X56030Y59408D01*
X55285Y59310D01*
X54999Y59191D01*
X54453Y59506D01*
X54415Y59800D01*
X54127Y60495D01*
X53670Y61091D01*
X53073Y61548D01*
X52379Y61836D01*
X51634Y61934D01*
X50889Y61836D01*
X50194Y61548D01*
X49598Y61091D01*
X49507Y60972D01*
X49007Y61142D01*
Y63712D01*
X49383Y64042D01*
X49540Y64021D01*
X50285Y64119D01*
X50980Y64407D01*
X51576Y64864D01*
X52033Y65460D01*
X52321Y66155D01*
X52419Y66900D01*
X52321Y67645D01*
X52033Y68340D01*
X51576Y68936D01*
X50980Y69393D01*
X50285Y69681D01*
X49540Y69779D01*
X49383Y69758D01*
X49007Y70088D01*
Y76325D01*
X49383Y76655D01*
X49640Y76621D01*
X50385Y76719D01*
X51080Y77007D01*
X51676Y77464D01*
X52124Y78049D01*
X52196Y78044D01*
X52453Y77993D01*
X69598D01*
X69719Y77854D01*
X69818Y77109D01*
X70105Y76415D01*
X70563Y75819D01*
X71159Y75361D01*
X71853Y75073D01*
X72598Y74975D01*
X73344Y75073D01*
X74038Y75361D01*
X74634Y75819D01*
X75092Y76415D01*
X75379Y77109D01*
X75477Y77854D01*
X75599Y77993D01*
X82888D01*
X83035Y78022D01*
X83185Y78015D01*
X83406Y78094D01*
X89500Y72000D01*
X92355D01*
X92590Y71559D01*
X92510Y71439D01*
X92417Y70973D01*
X97268D01*
X97175Y71439D01*
X97095Y71559D01*
X97331Y72000D01*
X102856D01*
X102969Y71853D01*
X103151Y71581D01*
X103206Y71544D01*
X103247Y71491D01*
X103530Y71327D01*
X103802Y71146D01*
X103867Y71133D01*
X103925Y71099D01*
X104249Y71057D01*
X104570Y70993D01*
X124093Y70993D01*
X124263Y70493D01*
X123811Y70146D01*
X123353Y69550D01*
X123066Y68855D01*
X122968Y68110D01*
X123066Y67365D01*
X123353Y66671D01*
X123811Y66075D01*
X124407Y65617D01*
X125101Y65329D01*
X125847Y65231D01*
X126592Y65329D01*
X127286Y65617D01*
X127882Y66075D01*
X128340Y66671D01*
X128627Y67365D01*
X128725Y68110D01*
X128627Y68855D01*
X128340Y69550D01*
X127882Y70146D01*
X127430Y70493D01*
X127600Y70993D01*
X129000D01*
X129768Y71146D01*
X130419Y71581D01*
X134210Y75372D01*
X134708Y75323D01*
X135014Y74864D01*
X135833Y74317D01*
X136299Y74224D01*
Y76650D01*
X137299D01*
Y74224D01*
X137348Y74234D01*
X137543Y73763D01*
X137028Y73419D01*
X136609Y73000D01*
X136000D01*
X134000Y71000D01*
Y69998D01*
X133507Y69355D01*
X133159Y68517D01*
X133041Y67618D01*
X133159Y66719D01*
X133507Y65881D01*
X133554Y65820D01*
X133471Y65565D01*
X133382Y65376D01*
X133379Y65302D01*
X133327Y65156D01*
X133305Y65005D01*
X133312Y64856D01*
X133283Y64710D01*
X133331Y64469D01*
X133343Y64223D01*
X133406Y64088D01*
X133435Y63942D01*
X133572Y63737D01*
X133678Y63515D01*
X133788Y63415D01*
X133871Y63291D01*
X135074Y62087D01*
X134977Y61597D01*
X134680Y61474D01*
X133960Y60922D01*
X133408Y60202D01*
X133061Y59364D01*
X132943Y58465D01*
X133061Y57565D01*
X133408Y56727D01*
X133960Y56008D01*
X134680Y55455D01*
X135518Y55108D01*
X136417Y54990D01*
X137317Y55108D01*
X138155Y55455D01*
X138874Y56008D01*
X139426Y56727D01*
X139773Y57565D01*
X139892Y58465D01*
X139773Y59364D01*
X139426Y60202D01*
X139203Y60493D01*
X139450Y60993D01*
X142983D01*
X143169Y60493D01*
X142719Y59907D01*
X142372Y59069D01*
X142254Y58169D01*
X142372Y57270D01*
X142719Y56432D01*
X143271Y55712D01*
X143991Y55160D01*
X144829Y54813D01*
X145728Y54695D01*
X146628Y54813D01*
X147253Y55072D01*
X147581Y54581D01*
X156219Y45943D01*
X156464Y45779D01*
X156692Y45592D01*
X156787Y45563D01*
X156870Y45508D01*
X157159Y45450D01*
X157441Y45365D01*
X157515Y45372D01*
X157581Y45211D01*
X158134Y44492D01*
X158766Y44007D01*
X158851Y43462D01*
X158739Y43387D01*
X158322Y42763D01*
X158275Y42528D01*
X160098D01*
Y41528D01*
X158275D01*
X158322Y41292D01*
X158739Y40668D01*
X158969Y40514D01*
X158970Y39912D01*
X158607Y39439D01*
X158319Y38745D01*
X158221Y38000D01*
X158319Y37255D01*
X158607Y36560D01*
X159064Y35964D01*
X159660Y35507D01*
X160355Y35219D01*
X161100Y35121D01*
X161845Y35219D01*
X162540Y35507D01*
X163136Y35964D01*
X163593Y36560D01*
X163881Y37255D01*
X163918Y37536D01*
X164446Y37716D01*
X165463Y36698D01*
X165284Y36171D01*
X165105Y36147D01*
X164411Y35859D01*
X163815Y35402D01*
X163357Y34806D01*
X163070Y34111D01*
X162971Y33366D01*
X163070Y32621D01*
X163357Y31927D01*
X163815Y31330D01*
X164411Y30873D01*
X165105Y30585D01*
X165850Y30487D01*
X166595Y30585D01*
X167290Y30873D01*
X167493Y31029D01*
X167993Y30782D01*
Y26741D01*
X167493Y26494D01*
X167345Y26607D01*
X166651Y26895D01*
X165905Y26993D01*
X165160Y26895D01*
X164466Y26607D01*
X163870Y26150D01*
X163412Y25554D01*
X163125Y24859D01*
X163027Y24114D01*
X163125Y23369D01*
X163412Y22675D01*
X163870Y22078D01*
X164466Y21621D01*
X165160Y21333D01*
X165905Y21235D01*
X166651Y21333D01*
X167345Y21621D01*
X167493Y21734D01*
X167993Y21488D01*
Y6000D01*
X167493Y6000D01*
X158098D01*
X157928Y6500D01*
X158761Y7139D01*
X159629Y8270D01*
X160174Y9587D01*
X160360Y11000D01*
X160174Y12413D01*
X159629Y13730D01*
X158761Y14861D01*
X157978Y15462D01*
X158155Y15889D01*
X158253Y16634D01*
X158155Y17379D01*
X157867Y18073D01*
X157410Y18670D01*
X156814Y19127D01*
X156119Y19415D01*
X155374Y19513D01*
X154629Y19415D01*
X153935Y19127D01*
X153338Y18670D01*
X152881Y18073D01*
X152593Y17379D01*
X152495Y16634D01*
X152591Y15903D01*
X152170Y15729D01*
X151201Y14985D01*
X151119Y15036D01*
X148878D01*
Y15536D01*
X148378D01*
Y17359D01*
X148142Y17313D01*
X147519Y16896D01*
X147102Y16272D01*
X146760Y16089D01*
X146313Y16274D01*
X144900Y16460D01*
X143487Y16274D01*
X142170Y15729D01*
X141039Y14861D01*
X140381Y14003D01*
X139758Y13970D01*
X139693Y14048D01*
X139760Y14597D01*
X139890Y14696D01*
X140348Y15293D01*
X140635Y15987D01*
X140733Y16732D01*
X140635Y17477D01*
X140348Y18172D01*
X139890Y18768D01*
X139294Y19226D01*
X138600Y19513D01*
X137854Y19611D01*
X137109Y19513D01*
X136415Y19226D01*
X135819Y18768D01*
X135361Y18172D01*
X135073Y17477D01*
X134975Y16732D01*
X134514Y16409D01*
X133487Y16274D01*
X132170Y15729D01*
X131039Y14861D01*
X130171Y13730D01*
X130150Y13678D01*
X129650D01*
X129629Y13730D01*
X128761Y14861D01*
X127630Y15729D01*
X126313Y16274D01*
X124900Y16460D01*
X123487Y16274D01*
X122170Y15729D01*
X121039Y14861D01*
X120171Y13730D01*
X120150Y13678D01*
X119650D01*
X119629Y13730D01*
X118761Y14861D01*
X117630Y15729D01*
X116313Y16274D01*
X114900Y16460D01*
X113487Y16274D01*
X112170Y15729D01*
X111039Y14861D01*
X110171Y13730D01*
X109845Y12942D01*
X109345Y13041D01*
Y15445D01*
X108871D01*
X108865Y15457D01*
X108680Y15945D01*
X108942Y16578D01*
X109040Y17323D01*
X108942Y18068D01*
X108655Y18762D01*
X108197Y19359D01*
X107601Y19816D01*
X106906Y20104D01*
X106161Y20202D01*
X105416Y20104D01*
X104722Y19816D01*
X104126Y19359D01*
X103668Y18762D01*
X103381Y18068D01*
X103282Y17323D01*
X103381Y16578D01*
X103643Y15945D01*
X103458Y15457D01*
X103452Y15445D01*
X100455D01*
Y11500D01*
X104900D01*
Y11000D01*
X105400D01*
Y6555D01*
X109345D01*
Y8959D01*
X109845Y9058D01*
X110171Y8270D01*
X111039Y7139D01*
X111872Y6500D01*
X111702Y6000D01*
X78098Y6000D01*
X77928Y6500D01*
X78761Y7139D01*
X79629Y8270D01*
X80174Y9587D01*
X80360Y11000D01*
X80174Y12413D01*
X79629Y13730D01*
X78761Y14861D01*
X77630Y15729D01*
X76313Y16274D01*
X74900Y16460D01*
X73487Y16274D01*
X72170Y15729D01*
X71039Y14861D01*
X70171Y13730D01*
X70150Y13678D01*
X69650D01*
X69629Y13730D01*
X68761Y14861D01*
X67630Y15729D01*
X66313Y16274D01*
X64900Y16460D01*
X63487Y16274D01*
X62170Y15729D01*
X61039Y14861D01*
X60171Y13730D01*
X59845Y12942D01*
X59345Y13041D01*
Y15445D01*
X55400D01*
Y11000D01*
Y6555D01*
X59345D01*
Y8959D01*
X59845Y9058D01*
X60171Y8270D01*
X61039Y7139D01*
X61872Y6500D01*
X61702Y6000D01*
X29367D01*
X29367Y6000D01*
X29215Y7156D01*
X28769Y8234D01*
X28059Y9159D01*
X27134Y9869D01*
X26056Y10315D01*
X24900Y10467D01*
X23744Y10315D01*
X22666Y9869D01*
X21741Y9159D01*
X21031Y8234D01*
X20585Y7156D01*
X20433Y6000D01*
X20433Y6000D01*
X19367D01*
X19367Y6000D01*
X19215Y7156D01*
X18769Y8234D01*
X18059Y9159D01*
X17134Y9869D01*
X16056Y10315D01*
X14900Y10467D01*
X13744Y10315D01*
X12666Y9869D01*
X11741Y9159D01*
X11031Y8234D01*
X10585Y7156D01*
X10433Y6000D01*
X10433Y6000D01*
X5000D01*
X5000Y89493D01*
X5000Y89993D01*
X12007D01*
X12176Y89493D01*
X11741Y89159D01*
X11031Y88234D01*
X10585Y87156D01*
X10433Y86000D01*
X10585Y84844D01*
X11031Y83766D01*
X11741Y82841D01*
X12666Y82131D01*
X13744Y81685D01*
X14900Y81533D01*
X16056Y81685D01*
X17134Y82131D01*
X18059Y82841D01*
X18769Y83766D01*
X19215Y84844D01*
X19367Y86000D01*
X19215Y87156D01*
X18769Y88234D01*
X18059Y89159D01*
X17416Y89652D01*
X17395Y89786D01*
X17474Y90238D01*
X17501Y90256D01*
X17515Y90262D01*
X17541Y90269D01*
X17548Y90275D01*
X17684Y90331D01*
X17823Y90471D01*
X17988Y90581D01*
X18069Y90703D01*
X18146Y90766D01*
X18178Y90826D01*
X18237Y90885D01*
X18263Y90925D01*
X18339Y91107D01*
X18423Y91232D01*
X18439Y91314D01*
X18515Y91457D01*
X18522Y91522D01*
X18571Y91571D01*
X19329D01*
Y93916D01*
X19591Y93968D01*
X20230Y94395D01*
X20244Y94404D01*
X20410Y94434D01*
X20786Y94359D01*
X21031Y93766D01*
X21741Y92841D01*
X22666Y92131D01*
X23744Y91685D01*
X24900Y91533D01*
X26056Y91685D01*
X27134Y92131D01*
X28059Y92841D01*
X28769Y93766D01*
X29215Y94844D01*
X29367Y96000D01*
X29215Y97156D01*
X28769Y98234D01*
X28059Y99159D01*
X27134Y99869D01*
X26541Y100114D01*
X26443Y100605D01*
X26831Y100993D01*
X34000D01*
X34768Y101146D01*
X35419Y101581D01*
X38419Y104581D01*
X39831Y105993D01*
X44169D01*
X44993Y105169D01*
D02*
G37*
G36*
X205000Y208225D02*
X204552Y208004D01*
X204455Y208077D01*
X203522Y208464D01*
X202520Y208596D01*
X201518Y208464D01*
X200748Y208145D01*
X199978Y208464D01*
X198976Y208596D01*
X197974Y208464D01*
X197205Y208145D01*
X196435Y208464D01*
X195433Y208596D01*
X194431Y208464D01*
X193661Y208145D01*
X192892Y208464D01*
X191890Y208596D01*
X190888Y208464D01*
X190118Y208145D01*
X189348Y208464D01*
X188347Y208596D01*
X187344Y208464D01*
X186575Y208145D01*
X185805Y208464D01*
X184803Y208596D01*
X183801Y208464D01*
X182867Y208077D01*
X182065Y207462D01*
X181450Y206660D01*
X181063Y205727D01*
X180931Y204724D01*
X181063Y203722D01*
X181382Y202953D01*
X181063Y202183D01*
X180931Y201181D01*
X181063Y200179D01*
X181382Y199409D01*
X181063Y198640D01*
X180931Y197638D01*
X181063Y196636D01*
X181382Y195866D01*
X181063Y195097D01*
X180931Y194095D01*
X181063Y193092D01*
X181382Y192323D01*
X181063Y191553D01*
X180931Y190551D01*
X181063Y189549D01*
X181450Y188615D01*
X182065Y187813D01*
X182867Y187198D01*
X183801Y186811D01*
X184803Y186679D01*
X185805Y186811D01*
X186739Y187198D01*
X187541Y187813D01*
X188156Y188615D01*
X188543Y189549D01*
X188675Y190551D01*
X188543Y191553D01*
X188224Y192323D01*
X188543Y193092D01*
X188675Y194095D01*
X188543Y195097D01*
X188224Y195866D01*
X188543Y196636D01*
X188675Y197638D01*
X188543Y198640D01*
X188224Y199409D01*
X188543Y200179D01*
X188637Y200891D01*
X189348Y200985D01*
X190118Y201303D01*
X190888Y200985D01*
X191600Y200891D01*
X191693Y200179D01*
X192012Y199409D01*
X191693Y198640D01*
X191561Y197638D01*
X191693Y196636D01*
X192012Y195866D01*
X191693Y195097D01*
X191561Y194095D01*
X191693Y193092D01*
X192012Y192323D01*
X191693Y191553D01*
X191561Y190551D01*
X191693Y189549D01*
X192080Y188615D01*
X192695Y187813D01*
X193497Y187198D01*
X194431Y186811D01*
X195433Y186679D01*
X196435Y186811D01*
X197205Y187130D01*
X197974Y186811D01*
X198976Y186679D01*
X199978Y186811D01*
X200748Y187130D01*
X201518Y186811D01*
X202520Y186679D01*
X203522Y186811D01*
X204291Y187130D01*
X205000Y186837D01*
X205000Y123000D01*
X200000Y118000D01*
X131000D01*
X125000Y112000D01*
Y99136D01*
X124599Y98760D01*
X124348Y98864D01*
X123500Y98976D01*
X122652Y98864D01*
X121862Y98537D01*
X121184Y98017D01*
X120663Y97338D01*
X120336Y96548D01*
X120224Y95700D01*
X120336Y94852D01*
X120663Y94062D01*
X121184Y93384D01*
X121862Y92863D01*
X122652Y92536D01*
X123500Y92424D01*
X124348Y92536D01*
X124420Y92565D01*
X124878Y92274D01*
X124904Y91904D01*
X123000Y90000D01*
X115000Y90000D01*
X113000Y92000D01*
Y97000D01*
Y100529D01*
X113500Y101181D01*
X113838Y101995D01*
X113953Y102869D01*
X113838Y103743D01*
X113500Y104557D01*
X113000Y105209D01*
Y120000D01*
X111000Y122000D01*
X106865D01*
X106411Y122592D01*
X105733Y123113D01*
X104942Y123440D01*
X104095Y123552D01*
X103247Y123440D01*
X102456Y123113D01*
X101778Y122592D01*
X101324Y122000D01*
X42804Y122000D01*
X42527Y122416D01*
X42594Y122577D01*
X42705Y123425D01*
X42594Y124273D01*
X42266Y125063D01*
X41746Y125742D01*
X41067Y126262D01*
X40277Y126590D01*
X39429Y126701D01*
X38581Y126590D01*
X37791Y126262D01*
X37113Y125742D01*
X36592Y125063D01*
X36265Y124273D01*
X36153Y123425D01*
X36265Y122577D01*
X36332Y122416D01*
X36054Y122000D01*
X11000Y122000D01*
X5000Y128000D01*
Y186934D01*
X5472Y187130D01*
X6242Y186811D01*
X7244Y186679D01*
X8246Y186811D01*
X9016Y187130D01*
X9785Y186811D01*
X10787Y186679D01*
X11789Y186811D01*
X12559Y187130D01*
X13329Y186811D01*
X14331Y186679D01*
X15333Y186811D01*
X16267Y187198D01*
X17068Y187813D01*
X17684Y188615D01*
X18070Y189549D01*
X18202Y190551D01*
X18070Y191553D01*
X17752Y192323D01*
X18070Y193092D01*
X18202Y194095D01*
X18070Y195097D01*
X17752Y195866D01*
X18070Y196636D01*
X18202Y197638D01*
X18070Y198640D01*
X17752Y199409D01*
X18070Y200179D01*
X18164Y200891D01*
X18876Y200985D01*
X19646Y201303D01*
X20415Y200985D01*
X21417Y200853D01*
X22419Y200985D01*
X23189Y201303D01*
X23958Y200985D01*
X24670Y200891D01*
X24764Y200179D01*
X25083Y199409D01*
X24764Y198640D01*
X24632Y197638D01*
X24764Y196636D01*
X25083Y195866D01*
X24764Y195097D01*
X24632Y194095D01*
X24764Y193092D01*
X25083Y192323D01*
X24764Y191553D01*
X24632Y190551D01*
X24764Y189549D01*
X25151Y188615D01*
X25766Y187813D01*
X26568Y187198D01*
X27502Y186811D01*
X28504Y186679D01*
X29506Y186811D01*
X30440Y187198D01*
X31242Y187813D01*
X31857Y188615D01*
X32244Y189549D01*
X32376Y190551D01*
X32244Y191553D01*
X31925Y192323D01*
X32244Y193092D01*
X32376Y194095D01*
X32244Y195097D01*
X31925Y195866D01*
X32244Y196636D01*
X32376Y197638D01*
X32244Y198640D01*
X31925Y199409D01*
X32244Y200179D01*
X32376Y201181D01*
X32244Y202183D01*
X31925Y202953D01*
X32244Y203722D01*
X32376Y204724D01*
X32244Y205727D01*
X31857Y206660D01*
X31242Y207462D01*
X30440Y208077D01*
X29506Y208464D01*
X28504Y208596D01*
X27502Y208464D01*
X26732Y208145D01*
X25963Y208464D01*
X24961Y208596D01*
X23958Y208464D01*
X23189Y208145D01*
X22419Y208464D01*
X21417Y208596D01*
X20415Y208464D01*
X19646Y208145D01*
X18876Y208464D01*
X17874Y208596D01*
X16872Y208464D01*
X16102Y208145D01*
X15333Y208464D01*
X14331Y208596D01*
X13329Y208464D01*
X12559Y208145D01*
X11789Y208464D01*
X10787Y208596D01*
X9785Y208464D01*
X9016Y208145D01*
X8246Y208464D01*
X7244Y208596D01*
X6242Y208464D01*
X5500Y208157D01*
X5000Y208422D01*
Y235000D01*
X205000D01*
Y208225D01*
D02*
G37*
G36*
X90944Y116056D02*
X91232Y115681D01*
X91607Y115393D01*
X92997Y114003D01*
X93005Y105910D01*
X92411Y105664D01*
X91815Y105207D01*
X91357Y104611D01*
X91070Y103916D01*
X90971Y103171D01*
X91070Y102426D01*
X91357Y101732D01*
X91815Y101135D01*
X92411Y100678D01*
X93105Y100390D01*
X93686Y100314D01*
X96545Y97455D01*
X96491Y97047D01*
X96589Y96302D01*
X96877Y95608D01*
X97334Y95012D01*
X97931Y94554D01*
X98625Y94266D01*
X99370Y94168D01*
X99778Y94222D01*
X102000Y92000D01*
X104991Y92000D01*
X112502Y84500D01*
X125504Y84500D01*
X129882Y88878D01*
X129882Y109153D01*
X133721Y112992D01*
X142828D01*
X143186Y112492D01*
X143121Y112000D01*
X143219Y111255D01*
X143507Y110561D01*
X143964Y109964D01*
X144561Y109507D01*
X145255Y109219D01*
X146000Y109121D01*
X146745Y109219D01*
X147440Y109507D01*
X148036Y109964D01*
X148493Y110561D01*
X148781Y111255D01*
X148879Y112000D01*
X148814Y112492D01*
X149172Y112992D01*
X200008Y112992D01*
X205000Y108000D01*
X205000Y6000D01*
X199367D01*
X199367Y6000D01*
X199215Y7156D01*
X198769Y8234D01*
X198059Y9159D01*
X197134Y9869D01*
X196056Y10315D01*
X194900Y10467D01*
X193744Y10315D01*
X192666Y9869D01*
X191741Y9159D01*
X191031Y8234D01*
X190585Y7156D01*
X190433Y6000D01*
X190433Y6000D01*
X189367D01*
X189367Y6000D01*
X189215Y7156D01*
X188769Y8234D01*
X188059Y9159D01*
X187134Y9869D01*
X186056Y10315D01*
X184900Y10467D01*
X183744Y10315D01*
X182666Y9869D01*
X181741Y9159D01*
X181031Y8234D01*
X180585Y7156D01*
X180433Y6000D01*
X179933Y6000D01*
X170000D01*
Y35000D01*
X165329Y39671D01*
X165421Y39921D01*
X165586Y40121D01*
X166244Y40034D01*
X166989Y40132D01*
X167684Y40420D01*
X168280Y40878D01*
X168737Y41474D01*
X169025Y42168D01*
X169123Y42913D01*
X169025Y43659D01*
X168737Y44353D01*
X168280Y44949D01*
X167684Y45407D01*
X166989Y45694D01*
X166244Y45792D01*
X165499Y45694D01*
X164805Y45407D01*
X164208Y44949D01*
X163751Y44353D01*
X163463Y43659D01*
X163365Y42913D01*
X163378Y42817D01*
X163056Y42518D01*
X162915Y42500D01*
X162915Y42500D01*
X162879Y42773D01*
X162592Y43467D01*
X162134Y44063D01*
X161899Y44244D01*
X161919Y44858D01*
X162376Y45164D01*
X162923Y45983D01*
X163016Y46449D01*
X160591D01*
Y46949D01*
X160091D01*
Y49374D01*
X159624Y49281D01*
X158805Y48734D01*
X158258Y47915D01*
X158181Y47526D01*
X157638Y47362D01*
X149000Y56000D01*
Y57066D01*
X149085Y57270D01*
X149203Y58169D01*
X149085Y59069D01*
X149000Y59273D01*
Y60000D01*
X146000Y63000D01*
X137000D01*
X135290Y64710D01*
X135312Y64862D01*
X135331Y64895D01*
X135871Y65221D01*
X136016Y65193D01*
Y67618D01*
X136516D01*
Y68118D01*
X138941D01*
X138848Y68584D01*
X138301Y69403D01*
X137482Y69951D01*
X137098Y70027D01*
X136953Y70506D01*
X138447Y72000D01*
X139000D01*
X140000Y73000D01*
Y73963D01*
X140179Y74394D01*
X140238Y74847D01*
X140298Y75299D01*
Y76650D01*
X140179Y77555D01*
X140000Y77986D01*
Y79000D01*
X139000Y80000D01*
X137775Y80000D01*
X137705Y80029D01*
X136799Y80148D01*
X135894Y80029D01*
X135050Y79680D01*
X134326Y79124D01*
X133770Y78399D01*
X133420Y77555D01*
X133400Y77400D01*
X129000Y73000D01*
X104570Y73000D01*
X104323Y73500D01*
X104521Y73757D01*
X104808Y74452D01*
X104906Y75197D01*
X104808Y75942D01*
X104521Y76636D01*
X104063Y77233D01*
X103467Y77690D01*
X102938Y77909D01*
X102938Y77911D01*
X102651Y78605D01*
X102193Y79201D01*
X101597Y79659D01*
X101173Y79834D01*
X101167Y79879D01*
X100879Y80573D01*
X100422Y81170D01*
X99825Y81627D01*
X99131Y81915D01*
X98386Y82013D01*
X97641Y81915D01*
X97022Y81659D01*
X96942Y81853D01*
X96485Y82449D01*
X95888Y82907D01*
X95387Y83114D01*
X95360Y83324D01*
X95072Y84018D01*
X94614Y84614D01*
X94018Y85072D01*
X93857Y85139D01*
X93785Y85686D01*
X93497Y86380D01*
X93040Y86977D01*
X92443Y87434D01*
X91749Y87722D01*
X91004Y87820D01*
X90259Y87722D01*
X89565Y87434D01*
X88968Y86977D01*
X88511Y86380D01*
X88223Y85686D01*
X88125Y84941D01*
X88223Y84196D01*
X88339Y83917D01*
X87902Y83665D01*
X87626Y84024D01*
X87030Y84481D01*
X86336Y84769D01*
X85590Y84867D01*
X84845Y84769D01*
X84151Y84481D01*
X83555Y84024D01*
X83097Y83428D01*
X82810Y82733D01*
X82712Y81988D01*
X82810Y81243D01*
X83097Y80549D01*
X83197Y80418D01*
X82888Y80000D01*
X74491D01*
X74038Y80348D01*
X73344Y80635D01*
X72598Y80733D01*
X71853Y80635D01*
X71159Y80348D01*
X70706Y80000D01*
X52453D01*
X52421Y80245D01*
X52133Y80940D01*
X51676Y81536D01*
X51080Y81993D01*
X50385Y82281D01*
X49640Y82379D01*
X48895Y82281D01*
X48201Y81993D01*
X47604Y81536D01*
X47147Y80940D01*
X46859Y80245D01*
X46761Y79500D01*
X46859Y78755D01*
X47122Y78122D01*
X47000Y78000D01*
Y68226D01*
X46759Y67645D01*
X46661Y66900D01*
X46759Y66155D01*
X47000Y65574D01*
Y58000D01*
X50000Y55000D01*
X53606D01*
X53995Y54493D01*
X54591Y54036D01*
X55285Y53748D01*
X56030Y53650D01*
X56775Y53748D01*
X57470Y54036D01*
X58066Y54493D01*
X58455Y55000D01*
X70000D01*
X72000Y53000D01*
Y49000D01*
Y47000D01*
X70000Y45000D01*
X44513D01*
X44206Y45374D01*
X44060Y46110D01*
X43643Y46734D01*
X43019Y47150D01*
X42783Y47197D01*
Y45374D01*
X41783D01*
Y47197D01*
X41548Y47150D01*
X40924Y46734D01*
X40507Y46110D01*
X40361Y45374D01*
X40054Y45000D01*
X37539D01*
X37333Y45500D01*
X37584Y46105D01*
X37682Y46850D01*
X37584Y47596D01*
X37296Y48290D01*
X36839Y48886D01*
X36243Y49344D01*
X35548Y49631D01*
X34803Y49729D01*
X34058Y49631D01*
X33364Y49344D01*
X32767Y48886D01*
X32310Y48290D01*
X32022Y47596D01*
X31967Y47175D01*
X31434Y47245D01*
X31376Y47237D01*
X31000Y47567D01*
Y64965D01*
X31376Y65294D01*
X31434Y65287D01*
X32179Y65385D01*
X32874Y65672D01*
X33470Y66130D01*
X33928Y66726D01*
X34215Y67421D01*
X34313Y68166D01*
X34215Y68911D01*
X33928Y69605D01*
X33470Y70201D01*
X32874Y70659D01*
X32179Y70947D01*
X31434Y71045D01*
X31376Y71037D01*
X31000Y71367D01*
Y75647D01*
X31376Y75976D01*
X31534Y75955D01*
X32280Y76054D01*
X32974Y76341D01*
X33570Y76799D01*
X34028Y77395D01*
X34039Y77421D01*
X34526Y77291D01*
X34483Y76968D01*
X34581Y76223D01*
X34869Y75529D01*
X35326Y74933D01*
X35923Y74475D01*
X36617Y74188D01*
X37362Y74089D01*
X38107Y74188D01*
X38802Y74475D01*
X39398Y74933D01*
X39855Y75529D01*
X40143Y76223D01*
X40241Y76968D01*
X40224Y77095D01*
X40436Y77245D01*
X40697Y77335D01*
X41252Y76964D01*
X41488Y76917D01*
Y78740D01*
Y80563D01*
X41252Y80517D01*
X40629Y80100D01*
X40212Y79476D01*
X40099Y78911D01*
X39592Y78751D01*
X39398Y79004D01*
X38802Y79462D01*
X38107Y79749D01*
X37362Y79848D01*
X36617Y79749D01*
X35923Y79462D01*
X35326Y79004D01*
X34869Y78408D01*
X34858Y78381D01*
X34371Y78512D01*
X34413Y78834D01*
X34315Y79579D01*
X34028Y80274D01*
X33570Y80870D01*
X32974Y81328D01*
X32280Y81615D01*
X31534Y81713D01*
X31376Y81692D01*
X31000Y82022D01*
Y90117D01*
X31500Y90451D01*
X31794Y90329D01*
X32539Y90231D01*
X33285Y90329D01*
X33606Y90463D01*
X34107Y90561D01*
X34564Y89964D01*
X35160Y89507D01*
X35855Y89219D01*
X36600Y89121D01*
X37345Y89219D01*
X38039Y89507D01*
X38636Y89964D01*
X39093Y90561D01*
X39381Y91255D01*
X39400Y91400D01*
X39581Y91498D01*
X39928Y91582D01*
X40464Y91224D01*
X40700Y91177D01*
Y93000D01*
Y94823D01*
X40464Y94776D01*
X39840Y94360D01*
X39457Y93786D01*
X39184Y93713D01*
X38904Y93686D01*
X38636Y94036D01*
X38039Y94493D01*
X37345Y94781D01*
X36600Y94879D01*
X35855Y94781D01*
X35533Y94648D01*
X35311Y94604D01*
X35066Y95066D01*
X38751Y98751D01*
X39382Y98715D01*
X39526Y98526D01*
X40251Y97970D01*
X41094Y97621D01*
X42000Y97502D01*
X42906Y97621D01*
X43749Y97970D01*
X44474Y98526D01*
X44837Y99000D01*
X45000D01*
X47000Y101000D01*
Y106000D01*
X45000Y108000D01*
X39000D01*
X37000Y106000D01*
X34000Y103000D01*
X26000D01*
X23012Y100012D01*
X22666Y99869D01*
X21741Y99159D01*
X21031Y98234D01*
X20888Y97888D01*
X18823Y95823D01*
X18361Y96014D01*
Y99461D01*
X15400D01*
Y96000D01*
Y92539D01*
X16327D01*
X16595Y92039D01*
X16568Y92000D01*
X5000D01*
X5000Y112500D01*
X9500Y117000D01*
X40887Y117000D01*
X41208Y116543D01*
X44933D01*
X45255Y117000D01*
X90000Y117000D01*
X90944Y116056D01*
D02*
G37*
%LPC*%
G36*
X133319Y34835D02*
X131996D01*
X132043Y34599D01*
X132459Y33975D01*
X133083Y33558D01*
X133319Y33511D01*
Y34835D01*
D02*
G37*
G36*
X135642D02*
X134319D01*
Y33511D01*
X134555Y33558D01*
X135178Y33975D01*
X135595Y34599D01*
X135642Y34835D01*
D02*
G37*
G36*
X99225Y33850D02*
X97902D01*
Y32527D01*
X98137Y32574D01*
X98761Y32991D01*
X99178Y33615D01*
X99225Y33850D01*
D02*
G37*
G36*
X77028Y38706D02*
X76282Y38608D01*
X75588Y38320D01*
X74992Y37863D01*
X74534Y37266D01*
X74247Y36572D01*
X74149Y35827D01*
X74247Y35082D01*
X74534Y34387D01*
X74992Y33791D01*
X75588Y33334D01*
X76282Y33046D01*
X77028Y32948D01*
X77773Y33046D01*
X78467Y33334D01*
X79063Y33791D01*
X79521Y34387D01*
X79808Y35082D01*
X79906Y35827D01*
X79808Y36572D01*
X79521Y37266D01*
X79063Y37863D01*
X78467Y38320D01*
X77773Y38608D01*
X77028Y38706D01*
D02*
G37*
G36*
X96902Y36174D02*
X96666Y36127D01*
X96042Y35710D01*
X95625Y35086D01*
X95578Y34850D01*
X96902D01*
Y36174D01*
D02*
G37*
G36*
X120721Y39854D02*
X119397D01*
X119444Y39619D01*
X119861Y38995D01*
X120485Y38578D01*
X120721Y38531D01*
Y39854D01*
D02*
G37*
G36*
X123044D02*
X121721D01*
Y38531D01*
X121956Y38578D01*
X122580Y38995D01*
X122997Y39619D01*
X123044Y39854D01*
D02*
G37*
G36*
X64985Y40248D02*
X63059D01*
Y38323D01*
X63525Y38415D01*
X64344Y38963D01*
X64892Y39782D01*
X64985Y40248D01*
D02*
G37*
G36*
X97902Y36174D02*
Y34850D01*
X99225D01*
X99178Y35086D01*
X98761Y35710D01*
X98137Y36127D01*
X97902Y36174D01*
D02*
G37*
G36*
X91004Y41658D02*
X90259Y41560D01*
X89565Y41273D01*
X88968Y40815D01*
X88511Y40219D01*
X88223Y39525D01*
X88125Y38780D01*
X88223Y38034D01*
X88511Y37340D01*
X88968Y36744D01*
X89565Y36286D01*
X90259Y35999D01*
X91004Y35901D01*
X91749Y35999D01*
X92443Y36286D01*
X93040Y36744D01*
X93497Y37340D01*
X93785Y38034D01*
X93883Y38780D01*
X93785Y39525D01*
X93497Y40219D01*
X93040Y40815D01*
X92443Y41273D01*
X91749Y41560D01*
X91004Y41658D01*
D02*
G37*
G36*
X14900Y40467D02*
X13744Y40315D01*
X12666Y39869D01*
X11741Y39159D01*
X11031Y38234D01*
X10585Y37156D01*
X10433Y36000D01*
X10585Y34844D01*
X11031Y33766D01*
X11741Y32841D01*
X12666Y32131D01*
X13744Y31685D01*
X14900Y31533D01*
X16056Y31685D01*
X17134Y32131D01*
X18059Y32841D01*
X18769Y33766D01*
X19215Y34844D01*
X19367Y36000D01*
X19215Y37156D01*
X18769Y38234D01*
X18059Y39159D01*
X17134Y39869D01*
X16056Y40315D01*
X14900Y40467D01*
D02*
G37*
G36*
X67087Y35655D02*
X66342Y35556D01*
X65647Y35269D01*
X65051Y34811D01*
X64593Y34215D01*
X64306Y33521D01*
X64208Y32776D01*
X64306Y32030D01*
X64593Y31336D01*
X65051Y30740D01*
X65647Y30282D01*
X66342Y29995D01*
X67087Y29897D01*
X67832Y29995D01*
X68526Y30282D01*
X69122Y30740D01*
X69580Y31336D01*
X69867Y32030D01*
X69966Y32776D01*
X69867Y33521D01*
X69580Y34215D01*
X69122Y34811D01*
X68526Y35269D01*
X67832Y35556D01*
X67087Y35655D01*
D02*
G37*
G36*
X24900Y40467D02*
X23744Y40315D01*
X22666Y39869D01*
X21741Y39159D01*
X21031Y38234D01*
X20585Y37156D01*
X20433Y36000D01*
X20585Y34844D01*
X21031Y33766D01*
X21741Y32841D01*
X22666Y32131D01*
X23744Y31685D01*
X24900Y31533D01*
X26056Y31685D01*
X27134Y32131D01*
X28059Y32841D01*
X28769Y33766D01*
X29215Y34844D01*
X29367Y36000D01*
X29215Y37156D01*
X28769Y38234D01*
X28059Y39159D01*
X27134Y39869D01*
X26056Y40315D01*
X24900Y40467D01*
D02*
G37*
G36*
X106457Y38214D02*
X105712Y38116D01*
X105017Y37828D01*
X104421Y37370D01*
X103963Y36774D01*
X103676Y36080D01*
X103578Y35335D01*
X103676Y34589D01*
X103963Y33895D01*
X104421Y33299D01*
X105017Y32841D01*
X105712Y32554D01*
X106457Y32456D01*
X107202Y32554D01*
X107896Y32841D01*
X108492Y33299D01*
X108950Y33895D01*
X109238Y34589D01*
X109336Y35335D01*
X109238Y36080D01*
X108950Y36774D01*
X108492Y37370D01*
X107896Y37828D01*
X107202Y38116D01*
X106457Y38214D01*
D02*
G37*
G36*
X96902Y33850D02*
X95578D01*
X95625Y33615D01*
X96042Y32991D01*
X96666Y32574D01*
X96902Y32527D01*
Y33850D01*
D02*
G37*
G36*
X35197Y37623D02*
X34452Y37525D01*
X33757Y37237D01*
X33161Y36780D01*
X32704Y36184D01*
X32416Y35489D01*
X32318Y34744D01*
X32416Y33999D01*
X32704Y33305D01*
X33161Y32708D01*
X33757Y32251D01*
X34452Y31963D01*
X35197Y31865D01*
X35942Y31963D01*
X36636Y32251D01*
X37233Y32708D01*
X37690Y33305D01*
X37978Y33999D01*
X38076Y34744D01*
X37978Y35489D01*
X37690Y36184D01*
X37233Y36780D01*
X36636Y37237D01*
X35942Y37525D01*
X35197Y37623D01*
D02*
G37*
G36*
X147100Y44579D02*
X146355Y44481D01*
X145660Y44193D01*
X145064Y43736D01*
X144607Y43139D01*
X144319Y42445D01*
X144221Y41700D01*
X144319Y40955D01*
X144607Y40260D01*
X145064Y39664D01*
X145660Y39207D01*
X146355Y38919D01*
X147100Y38821D01*
X147845Y38919D01*
X148539Y39207D01*
X149136Y39664D01*
X149593Y40260D01*
X149881Y40955D01*
X149979Y41700D01*
X149881Y42445D01*
X149593Y43139D01*
X149136Y43736D01*
X148539Y44193D01*
X147845Y44481D01*
X147100Y44579D01*
D02*
G37*
G36*
X110412Y44612D02*
X110176Y44565D01*
X109552Y44148D01*
X109135Y43525D01*
X109089Y43289D01*
X110412D01*
Y44612D01*
D02*
G37*
G36*
X111412D02*
Y43289D01*
X112735D01*
X112688Y43525D01*
X112271Y44148D01*
X111648Y44565D01*
X111412Y44612D01*
D02*
G37*
G36*
X77913Y48155D02*
X77143Y48054D01*
X76424Y47756D01*
X75807Y47283D01*
X75334Y46666D01*
X75037Y45948D01*
X74935Y45177D01*
X75037Y44406D01*
X75334Y43688D01*
X75807Y43071D01*
X76424Y42598D01*
X77143Y42300D01*
X77913Y42199D01*
X78684Y42300D01*
X79403Y42598D01*
X80019Y43071D01*
X80493Y43688D01*
X80790Y44406D01*
X80892Y45177D01*
X80790Y45948D01*
X80493Y46666D01*
X80019Y47283D01*
X79403Y47756D01*
X78684Y48054D01*
X77913Y48155D01*
D02*
G37*
G36*
X105858Y45312D02*
X105622Y45265D01*
X104999Y44849D01*
X104582Y44225D01*
X104535Y43989D01*
X105858D01*
Y45312D01*
D02*
G37*
G36*
X106858D02*
Y43989D01*
X108182D01*
X108135Y44225D01*
X107718Y44849D01*
X107094Y45265D01*
X106858Y45312D01*
D02*
G37*
G36*
X108182Y42989D02*
X106858D01*
Y41666D01*
X107094Y41713D01*
X107718Y42129D01*
X108135Y42753D01*
X108182Y42989D01*
D02*
G37*
G36*
X110412Y42289D02*
X109089D01*
X109135Y42053D01*
X109552Y41429D01*
X110176Y41012D01*
X110412Y40966D01*
Y42289D01*
D02*
G37*
G36*
X112735D02*
X111412D01*
Y40966D01*
X111648Y41012D01*
X112271Y41429D01*
X112688Y42053D01*
X112735Y42289D01*
D02*
G37*
G36*
X121721Y42178D02*
Y40854D01*
X123044D01*
X122997Y41090D01*
X122580Y41714D01*
X121956Y42131D01*
X121721Y42178D01*
D02*
G37*
G36*
X133819Y43233D02*
X133074Y43135D01*
X132379Y42848D01*
X131783Y42390D01*
X131326Y41794D01*
X131038Y41100D01*
X130940Y40354D01*
X130994Y39946D01*
X130525Y39675D01*
X130239Y39895D01*
X129544Y40182D01*
X128799Y40281D01*
X128054Y40182D01*
X127360Y39895D01*
X126763Y39437D01*
X126306Y38841D01*
X126018Y38147D01*
X125920Y37402D01*
X126018Y36656D01*
X126306Y35962D01*
X126763Y35366D01*
X127360Y34908D01*
X128054Y34621D01*
X128799Y34523D01*
X129544Y34621D01*
X130239Y34908D01*
X130835Y35366D01*
X131292Y35962D01*
X131580Y36656D01*
X131678Y37402D01*
X131624Y37810D01*
X132093Y38081D01*
X132379Y37861D01*
X133000Y37604D01*
X133050Y37312D01*
X133029Y37075D01*
X132459Y36694D01*
X132043Y36070D01*
X131996Y35835D01*
X135642D01*
X135595Y36070D01*
X135178Y36694D01*
X134609Y37075D01*
X134587Y37312D01*
X134638Y37604D01*
X135258Y37861D01*
X135855Y38319D01*
X136312Y38915D01*
X136600Y39609D01*
X136698Y40354D01*
X136600Y41100D01*
X136312Y41794D01*
X135855Y42390D01*
X135258Y42848D01*
X134564Y43135D01*
X133819Y43233D01*
D02*
G37*
G36*
X120721Y42178D02*
X120485Y42131D01*
X119861Y41714D01*
X119444Y41090D01*
X119397Y40854D01*
X120721D01*
Y42178D01*
D02*
G37*
G36*
X97205Y47367D02*
X96460Y47269D01*
X95765Y46981D01*
X95169Y46524D01*
X94712Y45928D01*
X94424Y45233D01*
X94326Y44488D01*
X94424Y43743D01*
X94712Y43049D01*
X95169Y42452D01*
X95765Y41995D01*
X96460Y41707D01*
X97205Y41609D01*
X97950Y41707D01*
X98644Y41995D01*
X99240Y42452D01*
X99698Y43049D01*
X99986Y43743D01*
X100084Y44488D01*
X99986Y45233D01*
X99698Y45928D01*
X99240Y46524D01*
X98644Y46981D01*
X97950Y47269D01*
X97205Y47367D01*
D02*
G37*
G36*
X105858Y42989D02*
X104535D01*
X104582Y42753D01*
X104999Y42129D01*
X105622Y41713D01*
X105858Y41666D01*
Y42989D01*
D02*
G37*
G36*
X14900Y50467D02*
X13744Y50315D01*
X12666Y49869D01*
X11741Y49159D01*
X11031Y48234D01*
X10585Y47156D01*
X10433Y46000D01*
X10585Y44844D01*
X11031Y43766D01*
X11741Y42841D01*
X12666Y42131D01*
X13744Y41685D01*
X14900Y41533D01*
X16056Y41685D01*
X17134Y42131D01*
X18059Y42841D01*
X18769Y43766D01*
X19215Y44844D01*
X19367Y46000D01*
X19215Y47156D01*
X18769Y48234D01*
X18059Y49159D01*
X17134Y49869D01*
X16056Y50315D01*
X14900Y50467D01*
D02*
G37*
G36*
X97902Y17867D02*
Y16543D01*
X99225D01*
X99178Y16779D01*
X98761Y17403D01*
X98137Y17820D01*
X97902Y17867D01*
D02*
G37*
G36*
X96902D02*
X96666Y17820D01*
X96042Y17403D01*
X95625Y16779D01*
X95578Y16543D01*
X96902D01*
Y17867D01*
D02*
G37*
G36*
X149378Y17359D02*
Y16036D01*
X150701D01*
X150654Y16272D01*
X150238Y16896D01*
X149614Y17313D01*
X149378Y17359D01*
D02*
G37*
G36*
X122205Y23844D02*
X121460Y23745D01*
X120765Y23458D01*
X120169Y23000D01*
X119711Y22404D01*
X119424Y21710D01*
X119326Y20965D01*
X119424Y20219D01*
X119711Y19525D01*
X120169Y18929D01*
X120765Y18471D01*
X121460Y18184D01*
X122205Y18086D01*
X122950Y18184D01*
X123644Y18471D01*
X124241Y18929D01*
X124698Y19525D01*
X124986Y20219D01*
X125084Y20965D01*
X124986Y21710D01*
X124698Y22404D01*
X124241Y23000D01*
X123644Y23458D01*
X122950Y23745D01*
X122205Y23844D01*
D02*
G37*
G36*
X72106Y29552D02*
X71361Y29454D01*
X70667Y29166D01*
X70071Y28709D01*
X69613Y28113D01*
X69326Y27418D01*
X69227Y26673D01*
X69326Y25928D01*
X69613Y25234D01*
X70071Y24637D01*
X70366Y24411D01*
Y23984D01*
X69908Y23388D01*
X69621Y22694D01*
X69523Y21949D01*
X69621Y21204D01*
X69908Y20509D01*
X70366Y19913D01*
X70962Y19456D01*
X71656Y19168D01*
X72402Y19070D01*
X73147Y19168D01*
X73841Y19456D01*
X74437Y19913D01*
X74895Y20509D01*
X75182Y21204D01*
X75280Y21949D01*
X75182Y22694D01*
X74895Y23388D01*
X74437Y23984D01*
X74142Y24211D01*
X74142Y24637D01*
X74599Y25234D01*
X74887Y25928D01*
X74985Y26673D01*
X74887Y27418D01*
X74599Y28113D01*
X74142Y28709D01*
X73546Y29166D01*
X72851Y29454D01*
X72106Y29552D01*
D02*
G37*
G36*
X46417Y19611D02*
X45672Y19513D01*
X44978Y19226D01*
X44382Y18768D01*
X43924Y18172D01*
X43896Y18103D01*
X43335Y18056D01*
X42837Y18438D01*
X42143Y18726D01*
X41398Y18824D01*
X40652Y18726D01*
X39958Y18438D01*
X39362Y17981D01*
X38904Y17384D01*
X38617Y16690D01*
X38519Y15945D01*
X38617Y15200D01*
X38904Y14505D01*
X39362Y13909D01*
X39274Y13346D01*
X38974Y13222D01*
X38378Y12764D01*
X37920Y12168D01*
X37633Y11473D01*
X37534Y10728D01*
X37633Y9983D01*
X37920Y9289D01*
X38378Y8693D01*
X38974Y8235D01*
X39668Y7948D01*
X40413Y7849D01*
X41159Y7948D01*
X41853Y8235D01*
X42449Y8693D01*
X42907Y9289D01*
X43194Y9983D01*
X43292Y10728D01*
X43194Y11473D01*
X42907Y12168D01*
X42449Y12764D01*
X42537Y13327D01*
X42837Y13452D01*
X43433Y13909D01*
X43891Y14505D01*
X43919Y14574D01*
X44480Y14621D01*
X44978Y14239D01*
X45672Y13951D01*
X46417Y13853D01*
X47163Y13951D01*
X47857Y14239D01*
X48453Y14696D01*
X48911Y15293D01*
X49198Y15987D01*
X49296Y16732D01*
X49198Y17477D01*
X48911Y18172D01*
X48453Y18768D01*
X47857Y19226D01*
X47163Y19513D01*
X46417Y19611D01*
D02*
G37*
G36*
X91102Y23647D02*
X90357Y23549D01*
X89663Y23261D01*
X89067Y22804D01*
X88609Y22207D01*
X88322Y21513D01*
X88223Y20768D01*
X88322Y20023D01*
X88609Y19328D01*
X89067Y18732D01*
X89663Y18274D01*
X90357Y17987D01*
X91102Y17889D01*
X91847Y17987D01*
X92542Y18274D01*
X93138Y18732D01*
X93596Y19328D01*
X93883Y20023D01*
X93981Y20768D01*
X93883Y21513D01*
X93596Y22207D01*
X93138Y22804D01*
X92542Y23261D01*
X91847Y23549D01*
X91102Y23647D01*
D02*
G37*
G36*
X14900Y20467D02*
X13744Y20315D01*
X12666Y19869D01*
X11741Y19159D01*
X11031Y18234D01*
X10585Y17156D01*
X10433Y16000D01*
X10585Y14844D01*
X11031Y13766D01*
X11741Y12841D01*
X12666Y12131D01*
X13744Y11685D01*
X14900Y11533D01*
X16056Y11685D01*
X17134Y12131D01*
X18059Y12841D01*
X18769Y13766D01*
X19215Y14844D01*
X19367Y16000D01*
X19215Y17156D01*
X18769Y18234D01*
X18059Y19159D01*
X17134Y19869D01*
X16056Y20315D01*
X14900Y20467D01*
D02*
G37*
G36*
X24900D02*
X23744Y20315D01*
X22666Y19869D01*
X21741Y19159D01*
X21031Y18234D01*
X20585Y17156D01*
X20433Y16000D01*
X20585Y14844D01*
X21031Y13766D01*
X21741Y12841D01*
X22666Y12131D01*
X23744Y11685D01*
X24900Y11533D01*
X26056Y11685D01*
X27134Y12131D01*
X28059Y12841D01*
X28769Y13766D01*
X29215Y14844D01*
X29367Y16000D01*
X29215Y17156D01*
X28769Y18234D01*
X28059Y19159D01*
X27134Y19869D01*
X26056Y20315D01*
X24900Y20467D01*
D02*
G37*
G36*
X54400Y15445D02*
X50455D01*
Y11500D01*
X54400D01*
Y15445D01*
D02*
G37*
G36*
Y10500D02*
X50455D01*
Y6555D01*
X54400D01*
Y10500D01*
D02*
G37*
G36*
X104400D02*
X100455D01*
Y6555D01*
X104400D01*
Y10500D01*
D02*
G37*
G36*
X96902Y15543D02*
X95578D01*
X95625Y15307D01*
X96042Y14684D01*
X96666Y14267D01*
X96902Y14220D01*
Y15543D01*
D02*
G37*
G36*
X99225D02*
X97902D01*
Y14220D01*
X98137Y14267D01*
X98761Y14684D01*
X99178Y15307D01*
X99225Y15543D01*
D02*
G37*
G36*
X35000Y19808D02*
X34255Y19710D01*
X33560Y19422D01*
X32964Y18965D01*
X32507Y18369D01*
X32219Y17674D01*
X32121Y16929D01*
X32219Y16184D01*
X32507Y15490D01*
X32964Y14893D01*
X33560Y14436D01*
X34255Y14148D01*
X35000Y14050D01*
X35745Y14148D01*
X36439Y14436D01*
X37036Y14893D01*
X37493Y15490D01*
X37781Y16184D01*
X37879Y16929D01*
X37781Y17674D01*
X37493Y18369D01*
X37036Y18965D01*
X36439Y19422D01*
X35745Y19710D01*
X35000Y19808D01*
D02*
G37*
G36*
X14900Y30467D02*
X13744Y30315D01*
X12666Y29869D01*
X11741Y29159D01*
X11031Y28234D01*
X10585Y27156D01*
X10433Y26000D01*
X10585Y24844D01*
X11031Y23766D01*
X11741Y22841D01*
X12666Y22131D01*
X13744Y21685D01*
X14900Y21533D01*
X16056Y21685D01*
X17134Y22131D01*
X18059Y22841D01*
X18769Y23766D01*
X19215Y24844D01*
X19367Y26000D01*
X19215Y27156D01*
X18769Y28234D01*
X18059Y29159D01*
X17134Y29869D01*
X16056Y30315D01*
X14900Y30467D01*
D02*
G37*
G36*
X132146Y30044D02*
X131401Y29946D01*
X130706Y29659D01*
X130110Y29201D01*
X129652Y28605D01*
X129365Y27911D01*
X129267Y27165D01*
X129365Y26420D01*
X129652Y25726D01*
X129825Y25500D01*
X129802Y24883D01*
X129385Y24259D01*
X129338Y24024D01*
X132985D01*
X132938Y24259D01*
X133333Y24568D01*
X133585Y24672D01*
X134181Y25130D01*
X134639Y25726D01*
X134926Y26420D01*
X135025Y27165D01*
X134926Y27911D01*
X134639Y28605D01*
X134181Y29201D01*
X133585Y29659D01*
X132891Y29946D01*
X132146Y30044D01*
D02*
G37*
G36*
X60000Y31029D02*
X59255Y30931D01*
X58561Y30643D01*
X57964Y30185D01*
X57507Y29589D01*
X57219Y28895D01*
X57121Y28150D01*
X57219Y27404D01*
X57507Y26710D01*
X57964Y26114D01*
X58561Y25656D01*
X59255Y25369D01*
X60000Y25271D01*
X60164Y25292D01*
X60229Y25254D01*
X60544Y24838D01*
X60539Y24811D01*
X64186D01*
X64139Y25047D01*
X63722Y25671D01*
X63098Y26087D01*
X62706Y26166D01*
X62493Y26710D01*
X62781Y27404D01*
X62879Y28150D01*
X62781Y28895D01*
X62493Y29589D01*
X62036Y30185D01*
X61440Y30643D01*
X60745Y30931D01*
X60000Y31029D01*
D02*
G37*
G36*
X108182Y24977D02*
X106858D01*
Y23654D01*
X107094Y23701D01*
X107718Y24118D01*
X108135Y24741D01*
X108182Y24977D01*
D02*
G37*
G36*
X97303Y29355D02*
X96558Y29257D01*
X95864Y28970D01*
X95267Y28512D01*
X94810Y27916D01*
X94522Y27222D01*
X94424Y26476D01*
X94522Y25731D01*
X94810Y25037D01*
X95267Y24441D01*
X95864Y23983D01*
X96558Y23696D01*
X97303Y23597D01*
X98048Y23696D01*
X98743Y23983D01*
X99339Y24441D01*
X99796Y25037D01*
X100084Y25731D01*
X100182Y26476D01*
X100084Y27222D01*
X99796Y27916D01*
X99339Y28512D01*
X98743Y28970D01*
X98048Y29257D01*
X97303Y29355D01*
D02*
G37*
G36*
X105858Y24977D02*
X104535D01*
X104582Y24741D01*
X104999Y24118D01*
X105622Y23701D01*
X105858Y23654D01*
Y24977D01*
D02*
G37*
G36*
X106858Y27301D02*
Y25977D01*
X108182D01*
X108135Y26213D01*
X107718Y26837D01*
X107094Y27254D01*
X106858Y27301D01*
D02*
G37*
G36*
X46319Y28666D02*
X45574Y28568D01*
X44879Y28281D01*
X44283Y27823D01*
X43826Y27227D01*
X43277Y27209D01*
X43034Y27395D01*
X42340Y27682D01*
X41594Y27781D01*
X40849Y27682D01*
X40155Y27395D01*
X39559Y26937D01*
X39101Y26341D01*
X38814Y25647D01*
X38715Y24902D01*
X38814Y24156D01*
X39101Y23462D01*
X39559Y22866D01*
X40155Y22408D01*
X40849Y22121D01*
X41594Y22023D01*
X42340Y22121D01*
X43034Y22408D01*
X43630Y22866D01*
X43996Y23342D01*
X44423Y23473D01*
X44637Y23481D01*
X44879Y23294D01*
X45574Y23007D01*
X46319Y22908D01*
X47064Y23007D01*
X47758Y23294D01*
X48355Y23752D01*
X48812Y24348D01*
X49100Y25042D01*
X49198Y25787D01*
X49100Y26533D01*
X48812Y27227D01*
X48355Y27823D01*
X47758Y28281D01*
X47064Y28568D01*
X46319Y28666D01*
D02*
G37*
G36*
X105858Y27301D02*
X105622Y27254D01*
X104999Y26837D01*
X104582Y26213D01*
X104535Y25977D01*
X105858D01*
Y27301D01*
D02*
G37*
G36*
X161000Y31879D02*
X160255Y31781D01*
X159561Y31493D01*
X158964Y31036D01*
X158507Y30439D01*
X158219Y29745D01*
X158121Y29000D01*
X158219Y28255D01*
X158507Y27560D01*
X158964Y26964D01*
X159151Y26821D01*
X159131Y26206D01*
X158870Y26031D01*
X158453Y25408D01*
X158406Y25172D01*
X162053D01*
X162006Y25408D01*
X161796Y25722D01*
X161788Y25798D01*
X161989Y26320D01*
X162440Y26507D01*
X163036Y26964D01*
X163493Y27560D01*
X163781Y28255D01*
X163879Y29000D01*
X163781Y29745D01*
X163493Y30439D01*
X163036Y31036D01*
X162440Y31493D01*
X161745Y31781D01*
X161000Y31879D01*
D02*
G37*
G36*
X122795Y34966D02*
X122050Y34868D01*
X121356Y34580D01*
X120759Y34122D01*
X120302Y33526D01*
X120014Y32832D01*
X119916Y32087D01*
X120014Y31341D01*
X120302Y30647D01*
X120759Y30051D01*
X121356Y29593D01*
X122050Y29306D01*
X122407Y29259D01*
X122795Y29201D01*
X122808Y28726D01*
X122771Y28445D01*
X122869Y27700D01*
X123156Y27005D01*
X123614Y26409D01*
X124210Y25952D01*
X124905Y25664D01*
X125650Y25566D01*
X126395Y25664D01*
X127089Y25952D01*
X127685Y26409D01*
X128143Y27005D01*
X128430Y27700D01*
X128529Y28445D01*
X128430Y29190D01*
X128143Y29884D01*
X127685Y30481D01*
X127089Y30938D01*
X126395Y31226D01*
X126038Y31273D01*
X125649Y31331D01*
X125637Y31805D01*
X125674Y32087D01*
X125576Y32832D01*
X125288Y33526D01*
X124831Y34122D01*
X124235Y34580D01*
X123540Y34868D01*
X122795Y34966D01*
D02*
G37*
G36*
X35197Y28765D02*
X34452Y28667D01*
X33757Y28379D01*
X33161Y27922D01*
X32704Y27325D01*
X32416Y26631D01*
X32318Y25886D01*
X32416Y25141D01*
X32704Y24446D01*
X33161Y23850D01*
X33757Y23393D01*
X34452Y23105D01*
X35197Y23007D01*
X35942Y23105D01*
X36636Y23393D01*
X37233Y23850D01*
X37690Y24446D01*
X37978Y25141D01*
X38076Y25886D01*
X37978Y26631D01*
X37690Y27325D01*
X37233Y27922D01*
X36636Y28379D01*
X35942Y28667D01*
X35197Y28765D01*
D02*
G37*
G36*
X130661Y23024D02*
X129338D01*
X129385Y22788D01*
X129802Y22164D01*
X130426Y21747D01*
X130661Y21700D01*
Y23024D01*
D02*
G37*
G36*
X132985D02*
X131661D01*
Y21700D01*
X131897Y21747D01*
X132521Y22164D01*
X132938Y22788D01*
X132985Y23024D01*
D02*
G37*
G36*
X24900Y30467D02*
X23744Y30315D01*
X22666Y29869D01*
X21741Y29159D01*
X21031Y28234D01*
X20585Y27156D01*
X20433Y26000D01*
X20585Y24844D01*
X21031Y23766D01*
X21741Y22841D01*
X22666Y22131D01*
X23744Y21685D01*
X24900Y21533D01*
X26056Y21685D01*
X27134Y22131D01*
X28059Y22841D01*
X28769Y23766D01*
X29215Y24844D01*
X29367Y26000D01*
X29215Y27156D01*
X28769Y28234D01*
X28059Y29159D01*
X27134Y29869D01*
X26056Y30315D01*
X24900Y30467D01*
D02*
G37*
G36*
X159730Y24172D02*
X158406D01*
X158453Y23936D01*
X158870Y23312D01*
X159494Y22895D01*
X159730Y22849D01*
Y24172D01*
D02*
G37*
G36*
X162053D02*
X160730D01*
Y22849D01*
X160966Y22895D01*
X161589Y23312D01*
X162006Y23936D01*
X162053Y24172D01*
D02*
G37*
G36*
X147100Y28279D02*
X146355Y28181D01*
X145660Y27893D01*
X145064Y27436D01*
X144607Y26840D01*
X144319Y26145D01*
X144221Y25400D01*
X144319Y24655D01*
X144607Y23960D01*
X145064Y23364D01*
X145660Y22907D01*
X146355Y22619D01*
X147100Y22521D01*
X147845Y22619D01*
X148539Y22907D01*
X149136Y23364D01*
X149593Y23960D01*
X149881Y24655D01*
X149979Y25400D01*
X149881Y26145D01*
X149593Y26840D01*
X149136Y27436D01*
X148539Y27893D01*
X147845Y28181D01*
X147100Y28279D01*
D02*
G37*
G36*
X61862Y23811D02*
X60539D01*
X60586Y23575D01*
X61003Y22951D01*
X61626Y22535D01*
X61862Y22488D01*
Y23811D01*
D02*
G37*
G36*
X64186D02*
X62862D01*
Y22488D01*
X63098Y22535D01*
X63722Y22951D01*
X64139Y23575D01*
X64186Y23811D01*
D02*
G37*
G36*
X86476Y63416D02*
X85577Y63297D01*
X84739Y62950D01*
X84020Y62398D01*
X83467Y61678D01*
X83120Y60840D01*
X83002Y59941D01*
X83120Y59042D01*
X83467Y58204D01*
X84020Y57484D01*
X84739Y56932D01*
X85577Y56585D01*
X86476Y56466D01*
X87376Y56585D01*
X88214Y56932D01*
X88933Y57484D01*
X89486Y58204D01*
X89833Y59042D01*
X89951Y59941D01*
X89833Y60840D01*
X89486Y61678D01*
X88933Y62398D01*
X88214Y62950D01*
X87376Y63297D01*
X86476Y63416D01*
D02*
G37*
G36*
X120335Y64990D02*
X119435Y64872D01*
X118597Y64525D01*
X117878Y63973D01*
X117326Y63253D01*
X116979Y62415D01*
X116860Y61516D01*
X116979Y60616D01*
X117326Y59778D01*
X117878Y59059D01*
X118597Y58507D01*
X119435Y58159D01*
X120335Y58041D01*
X121234Y58159D01*
X122072Y58507D01*
X122792Y59059D01*
X123344Y59778D01*
X123691Y60616D01*
X123809Y61516D01*
X123691Y62415D01*
X123344Y63253D01*
X122792Y63973D01*
X122072Y64525D01*
X121234Y64872D01*
X120335Y64990D01*
D02*
G37*
G36*
X108024Y56115D02*
Y54189D01*
X109949D01*
X109856Y54655D01*
X109309Y55474D01*
X108490Y56022D01*
X108024Y56115D01*
D02*
G37*
G36*
X107024D02*
X106557Y56022D01*
X105738Y55474D01*
X105191Y54655D01*
X105098Y54189D01*
X107024D01*
Y56115D01*
D02*
G37*
G36*
X14900Y70467D02*
X13744Y70315D01*
X12666Y69869D01*
X11741Y69159D01*
X11031Y68234D01*
X10585Y67156D01*
X10433Y66000D01*
X10585Y64844D01*
X11031Y63766D01*
X11741Y62841D01*
X12666Y62131D01*
X13744Y61685D01*
X14900Y61533D01*
X16056Y61685D01*
X17134Y62131D01*
X18059Y62841D01*
X18769Y63766D01*
X19215Y64844D01*
X19367Y66000D01*
X19215Y67156D01*
X18769Y68234D01*
X18059Y69159D01*
X17134Y69869D01*
X16056Y70315D01*
X14900Y70467D01*
D02*
G37*
G36*
X129488Y53765D02*
X128743Y53667D01*
X128049Y53379D01*
X127453Y52922D01*
X126995Y52325D01*
X126707Y51631D01*
X126609Y50886D01*
X126707Y50141D01*
X126995Y49446D01*
X127453Y48850D01*
X127696Y48663D01*
X127444Y48226D01*
X127379Y48253D01*
X126634Y48351D01*
X125889Y48253D01*
X125295Y48007D01*
X125225Y48099D01*
X124628Y48556D01*
X123934Y48844D01*
X123189Y48942D01*
X122444Y48844D01*
X121749Y48556D01*
X121153Y48099D01*
X120696Y47502D01*
X120408Y46808D01*
X120310Y46063D01*
X120408Y45318D01*
X120696Y44624D01*
X121153Y44027D01*
X121749Y43570D01*
X122444Y43282D01*
X123189Y43184D01*
X123934Y43282D01*
X124528Y43528D01*
X124598Y43437D01*
X125194Y42979D01*
X125889Y42692D01*
X126634Y42594D01*
X127379Y42692D01*
X128073Y42979D01*
X128670Y43437D01*
X129127Y44033D01*
X129415Y44727D01*
X129513Y45472D01*
X129415Y46218D01*
X129127Y46912D01*
X128670Y47508D01*
X128426Y47695D01*
X128678Y48132D01*
X128743Y48105D01*
X129488Y48007D01*
X130233Y48105D01*
X130928Y48393D01*
X131524Y48850D01*
X131981Y49446D01*
X132269Y50141D01*
X132367Y50886D01*
X132269Y51631D01*
X131981Y52325D01*
X131524Y52922D01*
X130928Y53379D01*
X130233Y53667D01*
X129488Y53765D01*
D02*
G37*
G36*
X109949Y53189D02*
X108024D01*
Y51264D01*
X108490Y51356D01*
X109309Y51904D01*
X109856Y52723D01*
X109949Y53189D01*
D02*
G37*
G36*
X14900Y60467D02*
X13744Y60315D01*
X12666Y59869D01*
X11741Y59159D01*
X11031Y58234D01*
X10585Y57156D01*
X10433Y56000D01*
X10585Y54844D01*
X11031Y53766D01*
X11741Y52841D01*
X12666Y52131D01*
X13744Y51685D01*
X14900Y51533D01*
X16056Y51685D01*
X17134Y52131D01*
X18059Y52841D01*
X18769Y53766D01*
X19215Y54844D01*
X19367Y56000D01*
X19215Y57156D01*
X18769Y58234D01*
X18059Y59159D01*
X17134Y59869D01*
X16056Y60315D01*
X14900Y60467D01*
D02*
G37*
G36*
X107024Y53189D02*
X105098D01*
X105191Y52723D01*
X105738Y51904D01*
X106557Y51356D01*
X107024Y51264D01*
Y53189D01*
D02*
G37*
G36*
X100354Y57116D02*
X99455Y56998D01*
X98617Y56651D01*
X97897Y56099D01*
X97345Y55379D01*
X96998Y54541D01*
X96880Y53642D01*
X96998Y52742D01*
X97345Y51904D01*
X97897Y51185D01*
X98617Y50633D01*
X99455Y50286D01*
X100354Y50167D01*
X101254Y50286D01*
X102092Y50633D01*
X102811Y51185D01*
X103363Y51904D01*
X103710Y52742D01*
X103829Y53642D01*
X103710Y54541D01*
X103363Y55379D01*
X102811Y56099D01*
X102092Y56651D01*
X101254Y56998D01*
X100354Y57116D01*
D02*
G37*
G36*
X97268Y69972D02*
X92417D01*
X92510Y69506D01*
X92917Y68898D01*
X92510Y68289D01*
X92417Y67823D01*
X97268D01*
X97175Y68289D01*
X96769Y68898D01*
X97175Y69506D01*
X97268Y69972D01*
D02*
G37*
G36*
X78799Y73155D02*
X78054Y73057D01*
X77360Y72769D01*
X76763Y72311D01*
X76306Y71715D01*
X76018Y71021D01*
X75920Y70276D01*
X76018Y69530D01*
X76306Y68836D01*
X76763Y68240D01*
X77360Y67782D01*
X78054Y67495D01*
X78799Y67397D01*
X79544Y67495D01*
X80239Y67782D01*
X80835Y68240D01*
X81292Y68836D01*
X81580Y69530D01*
X81678Y70276D01*
X81580Y71021D01*
X81292Y71715D01*
X80835Y72311D01*
X80239Y72769D01*
X79544Y73057D01*
X78799Y73155D01*
D02*
G37*
G36*
X56358Y76599D02*
X55613Y76501D01*
X54919Y76214D01*
X54322Y75756D01*
X53865Y75160D01*
X53577Y74466D01*
X53479Y73721D01*
X53577Y72975D01*
X53865Y72281D01*
X54322Y71685D01*
X54919Y71227D01*
X55613Y70940D01*
X56358Y70841D01*
X57103Y70940D01*
X57798Y71227D01*
X58394Y71685D01*
X58851Y72281D01*
X59139Y72975D01*
X59237Y73721D01*
X59139Y74466D01*
X58851Y75160D01*
X58394Y75756D01*
X57798Y76214D01*
X57103Y76501D01*
X56358Y76599D01*
D02*
G37*
G36*
X14900Y80467D02*
X13744Y80315D01*
X12666Y79869D01*
X11741Y79159D01*
X11031Y78234D01*
X10585Y77156D01*
X10433Y76000D01*
X10585Y74844D01*
X11031Y73766D01*
X11741Y72841D01*
X12666Y72131D01*
X13744Y71685D01*
X14900Y71533D01*
X16056Y71685D01*
X17134Y72131D01*
X18059Y72841D01*
X18769Y73766D01*
X19215Y74844D01*
X19367Y76000D01*
X19215Y77156D01*
X18769Y78234D01*
X18059Y79159D01*
X17134Y79869D01*
X16056Y80315D01*
X14900Y80467D01*
D02*
G37*
G36*
X63642Y68927D02*
X62742Y68809D01*
X61904Y68462D01*
X61185Y67910D01*
X60633Y67190D01*
X60286Y66352D01*
X60167Y65453D01*
X60286Y64553D01*
X60633Y63715D01*
X61185Y62996D01*
X61904Y62444D01*
X62742Y62097D01*
X63642Y61978D01*
X64541Y62097D01*
X65379Y62444D01*
X66099Y62996D01*
X66651Y63715D01*
X66998Y64553D01*
X67116Y65453D01*
X66998Y66352D01*
X66651Y67190D01*
X66099Y67910D01*
X65379Y68462D01*
X64541Y68809D01*
X63642Y68927D01*
D02*
G37*
G36*
X72795D02*
X71896Y68809D01*
X71058Y68462D01*
X70338Y67910D01*
X69786Y67190D01*
X69439Y66352D01*
X69321Y65453D01*
X69439Y64553D01*
X69786Y63715D01*
X70338Y62996D01*
X71058Y62444D01*
X71896Y62097D01*
X72795Y61978D01*
X73694Y62097D01*
X74533Y62444D01*
X75252Y62996D01*
X75804Y63715D01*
X76151Y64553D01*
X76270Y65453D01*
X76151Y66352D01*
X75804Y67190D01*
X75252Y67910D01*
X74533Y68462D01*
X73694Y68809D01*
X72795Y68927D01*
D02*
G37*
G36*
X97268Y66823D02*
X95342D01*
Y64897D01*
X95809Y64990D01*
X96628Y65538D01*
X97175Y66357D01*
X97268Y66823D01*
D02*
G37*
G36*
X94342D02*
X92417D01*
X92510Y66357D01*
X93057Y65538D01*
X93876Y64990D01*
X94342Y64897D01*
Y66823D01*
D02*
G37*
G36*
X120335Y105441D02*
X119487Y105330D01*
X118697Y105003D01*
X118018Y104482D01*
X117498Y103804D01*
X117170Y103013D01*
X117059Y102165D01*
X117170Y101318D01*
X117498Y100527D01*
X118018Y99849D01*
X118697Y99328D01*
X119487Y99001D01*
X120335Y98889D01*
X121183Y99001D01*
X121973Y99328D01*
X122651Y99849D01*
X123172Y100527D01*
X123499Y101318D01*
X123611Y102165D01*
X123499Y103013D01*
X123172Y103804D01*
X122651Y104482D01*
X121973Y105003D01*
X121183Y105330D01*
X120335Y105441D01*
D02*
G37*
G36*
X65087Y176172D02*
X64085Y176040D01*
X63315Y175721D01*
X62545Y176040D01*
X61543Y176172D01*
X60541Y176040D01*
X59772Y175721D01*
X59002Y176040D01*
X58000Y176172D01*
X56998Y176040D01*
X56228Y175721D01*
X55459Y176040D01*
X54457Y176172D01*
X53455Y176040D01*
X52521Y175653D01*
X51719Y175038D01*
X51104Y174236D01*
X50717Y173302D01*
X50585Y172300D01*
X50717Y171298D01*
X51104Y170364D01*
X51719Y169562D01*
X52521Y168947D01*
X53455Y168560D01*
X54457Y168428D01*
X55459Y168560D01*
X56228Y168879D01*
X56998Y168560D01*
X58000Y168428D01*
X59002Y168560D01*
X59772Y168879D01*
X60541Y168560D01*
X61543Y168428D01*
X62545Y168560D01*
X63315Y168879D01*
X64085Y168560D01*
X65087Y168428D01*
X66089Y168560D01*
X67023Y168947D01*
X67824Y169562D01*
X68440Y170364D01*
X68826Y171298D01*
X68958Y172300D01*
X68826Y173302D01*
X68440Y174236D01*
X67824Y175038D01*
X67023Y175653D01*
X66089Y176040D01*
X65087Y176172D01*
D02*
G37*
G36*
X122957Y179124D02*
X121955Y178992D01*
X121021Y178605D01*
X120989Y178580D01*
X120956Y178605D01*
X120022Y178992D01*
X119020Y179124D01*
X118018Y178992D01*
X117084Y178605D01*
X117051Y178580D01*
X117019Y178605D01*
X116085Y178992D01*
X115083Y179124D01*
X114081Y178992D01*
X113147Y178605D01*
X113115Y178580D01*
X113082Y178605D01*
X112148Y178992D01*
X111146Y179124D01*
X110144Y178992D01*
X109210Y178605D01*
X108408Y177990D01*
X107793Y177188D01*
X107406Y176255D01*
X107274Y175252D01*
X107406Y174250D01*
X107793Y173317D01*
X108408Y172515D01*
X109210Y171899D01*
X110144Y171513D01*
X111146Y171381D01*
X112148Y171513D01*
X113082Y171899D01*
X113115Y171925D01*
X113147Y171899D01*
X114029Y171534D01*
X114173Y171168D01*
X114207Y171041D01*
X113955Y170848D01*
X113340Y170046D01*
X112953Y169112D01*
X112821Y168110D01*
X112953Y167108D01*
X113272Y166339D01*
X112953Y165569D01*
X112821Y164567D01*
X112953Y163565D01*
X113272Y162795D01*
X112953Y162026D01*
X112821Y161024D01*
X112953Y160022D01*
X113272Y159252D01*
X112953Y158482D01*
X112821Y157480D01*
X112953Y156478D01*
X113340Y155544D01*
X113955Y154743D01*
X114757Y154127D01*
X115691Y153741D01*
X116693Y153609D01*
X117695Y153741D01*
X118465Y154059D01*
X119234Y153741D01*
X120236Y153609D01*
X121238Y153741D01*
X122008Y154059D01*
X122777Y153741D01*
X123779Y153609D01*
X124782Y153741D01*
X125551Y154059D01*
X126321Y153741D01*
X127323Y153609D01*
X128325Y153741D01*
X129259Y154127D01*
X130061Y154743D01*
X130676Y155544D01*
X131063Y156478D01*
X131194Y157480D01*
X131063Y158482D01*
X130744Y159252D01*
X131063Y160022D01*
X131194Y161024D01*
X131063Y162026D01*
X130744Y162795D01*
X131063Y163565D01*
X131194Y164567D01*
X131063Y165569D01*
X130744Y166339D01*
X131063Y167108D01*
X131194Y168110D01*
X131063Y169112D01*
X130676Y170046D01*
X130061Y170848D01*
X129259Y171463D01*
X128325Y171850D01*
X127323Y171982D01*
X126321Y171850D01*
X125832Y171648D01*
X125570Y171791D01*
X125517Y172378D01*
X125695Y172515D01*
X126310Y173317D01*
X126697Y174250D01*
X126829Y175252D01*
X126697Y176255D01*
X126310Y177188D01*
X125695Y177990D01*
X124893Y178605D01*
X123959Y178992D01*
X122957Y179124D01*
D02*
G37*
G36*
X90709Y230156D02*
X89184Y230006D01*
X87719Y229561D01*
X86368Y228839D01*
X85184Y227867D01*
X84212Y226683D01*
X83490Y225332D01*
X83046Y223867D01*
X82895Y222342D01*
X83046Y220818D01*
X83490Y219353D01*
X84212Y218002D01*
X85184Y216818D01*
X85977Y216167D01*
X85753Y215625D01*
X85621Y214623D01*
X85753Y213620D01*
X86139Y212687D01*
X86755Y211885D01*
X87557Y211270D01*
X87660Y211227D01*
X87589Y210686D01*
X87660Y210145D01*
X87557Y210102D01*
X86755Y209486D01*
X86139Y208684D01*
X85753Y207751D01*
X85621Y206749D01*
X85753Y205747D01*
X86139Y204813D01*
X86755Y204011D01*
X87557Y203396D01*
X87660Y203353D01*
X87589Y202812D01*
X87660Y202271D01*
X87557Y202227D01*
X86755Y201612D01*
X86139Y200810D01*
X85753Y199877D01*
X85621Y198875D01*
X85753Y197872D01*
X86139Y196939D01*
X86755Y196137D01*
X87557Y195522D01*
X87660Y195478D01*
X87589Y194938D01*
X87721Y193936D01*
X88108Y193002D01*
X88723Y192200D01*
X89525Y191585D01*
X90459Y191198D01*
X91021Y191124D01*
X91242Y190590D01*
X91047Y190336D01*
X90660Y189402D01*
X90528Y188400D01*
X90660Y187398D01*
X91047Y186464D01*
X91662Y185662D01*
Y185538D01*
X91047Y184736D01*
X90660Y183802D01*
X90528Y182800D01*
X90650Y181873D01*
X90076Y181125D01*
X89690Y180192D01*
X89558Y179190D01*
X89629Y178648D01*
X89525Y178605D01*
X88723Y177990D01*
X88108Y177188D01*
X87721Y176255D01*
X87589Y175252D01*
X87612Y175080D01*
X87064Y174853D01*
X86262Y174238D01*
X85647Y173436D01*
X85260Y172502D01*
X85128Y171500D01*
X85260Y170498D01*
X85647Y169564D01*
X86262Y168762D01*
X87064Y168147D01*
X87998Y167760D01*
X89000Y167628D01*
X90002Y167760D01*
X90772Y168079D01*
X91541Y167760D01*
X92543Y167628D01*
X93545Y167760D01*
X94315Y168079D01*
X95085Y167760D01*
X96087Y167628D01*
X97089Y167760D01*
X98023Y168147D01*
X98043Y168163D01*
X98064Y168147D01*
X98998Y167760D01*
X100000Y167628D01*
X101002Y167760D01*
X101936Y168147D01*
X102738Y168762D01*
X103353Y169564D01*
X103740Y170498D01*
X103872Y171500D01*
X103740Y172502D01*
X103353Y173436D01*
X102738Y174238D01*
X101936Y174853D01*
X101002Y175240D01*
X100000Y175372D01*
X98998Y175240D01*
X98064Y174853D01*
X98043Y174837D01*
X98023Y174853D01*
X97089Y175240D01*
X96087Y175372D01*
X95330Y175272D01*
X95261Y175794D01*
X95365Y175837D01*
X96167Y176452D01*
X96782Y177254D01*
X97169Y178187D01*
X97301Y179190D01*
X97179Y180116D01*
X97753Y180864D01*
X98140Y181798D01*
X98272Y182800D01*
X98140Y183802D01*
X97753Y184736D01*
X97138Y185538D01*
Y185662D01*
X97753Y186464D01*
X98140Y187398D01*
X98272Y188400D01*
X98140Y189402D01*
X97753Y190336D01*
X97138Y191138D01*
X96336Y191753D01*
X95402Y192140D01*
X94840Y192214D01*
X94619Y192747D01*
X94814Y193002D01*
X95201Y193936D01*
X95333Y194938D01*
X95261Y195478D01*
X95365Y195522D01*
X96167Y196137D01*
X96782Y196939D01*
X97169Y197872D01*
X97301Y198875D01*
X97230Y199416D01*
X97334Y199459D01*
X98136Y200074D01*
X98751Y200876D01*
X99138Y201810D01*
X99270Y202812D01*
X99138Y203814D01*
X98751Y204747D01*
X98136Y205549D01*
X97334Y206165D01*
X97230Y206208D01*
X97301Y206749D01*
X97169Y207751D01*
X96782Y208684D01*
X96167Y209486D01*
X95365Y210102D01*
X95261Y210145D01*
X95333Y210686D01*
X95261Y211227D01*
X95365Y211270D01*
X96167Y211885D01*
X96782Y212687D01*
X97169Y213620D01*
X97301Y214623D01*
X97169Y215625D01*
X96782Y216558D01*
X96414Y217038D01*
X97205Y218002D01*
X97927Y219353D01*
X98372Y220818D01*
X98522Y222342D01*
X98372Y223867D01*
X97927Y225332D01*
X97205Y226683D01*
X96233Y227867D01*
X95049Y228839D01*
X93699Y229561D01*
X92233Y230006D01*
X90709Y230156D01*
D02*
G37*
G36*
X156430Y144572D02*
X155428Y144440D01*
X154658Y144121D01*
X153889Y144440D01*
X152887Y144572D01*
X151884Y144440D01*
X151115Y144121D01*
X150345Y144440D01*
X149343Y144572D01*
X148341Y144440D01*
X147572Y144121D01*
X146802Y144440D01*
X145800Y144572D01*
X144798Y144440D01*
X143864Y144053D01*
X143062Y143438D01*
X142447Y142636D01*
X142060Y141702D01*
X141928Y140700D01*
X142060Y139698D01*
X142447Y138764D01*
X143062Y137962D01*
X143864Y137347D01*
X144798Y136960D01*
X145800Y136828D01*
X146802Y136960D01*
X147572Y137279D01*
X148341Y136960D01*
X149343Y136828D01*
X150345Y136960D01*
X151115Y137279D01*
X151884Y136960D01*
X152887Y136828D01*
X153889Y136960D01*
X154658Y137279D01*
X155428Y136960D01*
X156430Y136828D01*
X157432Y136960D01*
X158366Y137347D01*
X159168Y137962D01*
X159783Y138764D01*
X160170Y139698D01*
X160302Y140700D01*
X160170Y141702D01*
X159783Y142636D01*
X159168Y143438D01*
X158366Y144053D01*
X157432Y144440D01*
X156430Y144572D01*
D02*
G37*
G36*
X28330Y144872D02*
X27328Y144740D01*
X26558Y144421D01*
X25789Y144740D01*
X24787Y144872D01*
X23785Y144740D01*
X23015Y144421D01*
X22245Y144740D01*
X21243Y144872D01*
X20241Y144740D01*
X19472Y144421D01*
X18702Y144740D01*
X17700Y144872D01*
X16698Y144740D01*
X15764Y144353D01*
X14962Y143738D01*
X14347Y142936D01*
X13960Y142002D01*
X13828Y141000D01*
X13960Y139998D01*
X14347Y139064D01*
X14962Y138262D01*
X15764Y137647D01*
X16698Y137260D01*
X17700Y137128D01*
X18702Y137260D01*
X19472Y137579D01*
X20241Y137260D01*
X21243Y137128D01*
X22245Y137260D01*
X23015Y137579D01*
X23785Y137260D01*
X24787Y137128D01*
X25789Y137260D01*
X26558Y137579D01*
X27328Y137260D01*
X28330Y137128D01*
X29332Y137260D01*
X30266Y137647D01*
X31068Y138262D01*
X31683Y139064D01*
X32070Y139998D01*
X32202Y141000D01*
X32070Y142002D01*
X31683Y142936D01*
X31068Y143738D01*
X30266Y144353D01*
X29332Y144740D01*
X28330Y144872D01*
D02*
G37*
G36*
X118169Y230118D02*
X102618D01*
Y214567D01*
X105313D01*
X105438Y213620D01*
X105824Y212687D01*
X106440Y211885D01*
X107242Y211270D01*
X107345Y211227D01*
X107274Y210686D01*
X107406Y209683D01*
X107793Y208750D01*
X108408Y207948D01*
X109210Y207333D01*
X110144Y206946D01*
X111146Y206814D01*
X112148Y206946D01*
X112733Y207188D01*
X113191Y206837D01*
X113180Y206749D01*
X113312Y205747D01*
X113698Y204813D01*
X114314Y204011D01*
X115116Y203396D01*
X115219Y203353D01*
X115148Y202812D01*
X115280Y201810D01*
X115667Y200876D01*
X116282Y200074D01*
X117084Y199459D01*
X118018Y199072D01*
X119020Y198940D01*
X120022Y199072D01*
X120607Y199314D01*
X121065Y198963D01*
X121054Y198875D01*
X121186Y197872D01*
X121572Y196939D01*
X122188Y196137D01*
X122990Y195522D01*
X123093Y195478D01*
X123022Y194938D01*
X123154Y193936D01*
X123541Y193002D01*
X124156Y192200D01*
X124958Y191585D01*
X125892Y191198D01*
X126894Y191066D01*
X127896Y191198D01*
X128830Y191585D01*
X128863Y191610D01*
X128895Y191585D01*
X129829Y191198D01*
X130831Y191066D01*
X131833Y191198D01*
X132767Y191585D01*
X132799Y191610D01*
X132832Y191585D01*
X133766Y191198D01*
X134768Y191066D01*
X135770Y191198D01*
X136704Y191585D01*
X137506Y192200D01*
X138121Y193002D01*
X138508Y193936D01*
X138640Y194938D01*
X138568Y195478D01*
X138672Y195522D01*
X139474Y196137D01*
X140089Y196939D01*
X140476Y197872D01*
X140608Y198875D01*
X140476Y199877D01*
X140089Y200810D01*
X139474Y201612D01*
X138672Y202227D01*
X137739Y202614D01*
X136737Y202746D01*
X135734Y202614D01*
X134801Y202227D01*
X134768Y202203D01*
X134735Y202227D01*
X133802Y202614D01*
X132799Y202746D01*
X131798Y202614D01*
X130864Y202227D01*
X130831Y202203D01*
X130798Y202227D01*
X129865Y202614D01*
X128863Y202746D01*
X127860Y202614D01*
X127275Y202372D01*
X126817Y202723D01*
X126829Y202812D01*
X126697Y203814D01*
X126310Y204747D01*
X125695Y205549D01*
X124893Y206165D01*
X124789Y206208D01*
X124860Y206749D01*
X124728Y207751D01*
X124341Y208684D01*
X123726Y209486D01*
X122924Y210102D01*
X122820Y210145D01*
X122892Y210686D01*
X122760Y211688D01*
X122373Y212621D01*
X121758Y213423D01*
X120956Y214039D01*
X120022Y214425D01*
X119020Y214557D01*
X118645Y214508D01*
X118169Y214950D01*
Y230118D01*
D02*
G37*
G36*
X134803Y230254D02*
X133279Y230104D01*
X131813Y229659D01*
X130462Y228937D01*
X129278Y227966D01*
X128307Y226782D01*
X127585Y225431D01*
X127140Y223965D01*
X126990Y222441D01*
X127140Y220917D01*
X127585Y219451D01*
X128307Y218100D01*
X129278Y216916D01*
X130462Y215945D01*
X131813Y215223D01*
X133279Y214778D01*
X134803Y214628D01*
X136327Y214778D01*
X137793Y215223D01*
X139144Y215945D01*
X140328Y216916D01*
X141300Y218100D01*
X142022Y219451D01*
X142466Y220917D01*
X142616Y222441D01*
X142466Y223965D01*
X142022Y225431D01*
X141300Y226782D01*
X140328Y227966D01*
X139144Y228937D01*
X137793Y229659D01*
X136327Y230104D01*
X134803Y230254D01*
D02*
G37*
G36*
X170201Y186998D02*
X169199Y186866D01*
X168265Y186479D01*
X168233Y186454D01*
X168200Y186479D01*
X167266Y186866D01*
X166264Y186998D01*
X165262Y186866D01*
X164328Y186479D01*
X164296Y186454D01*
X164263Y186479D01*
X163329Y186866D01*
X162327Y186998D01*
X161325Y186866D01*
X160391Y186479D01*
X159589Y185864D01*
X158974Y185062D01*
X158587Y184129D01*
X158455Y183126D01*
X158467Y183038D01*
X158009Y182687D01*
X157424Y182929D01*
X156422Y183061D01*
X155420Y182929D01*
X154486Y182543D01*
X153684Y181927D01*
X153069Y181125D01*
X152682Y180192D01*
X152550Y179190D01*
X152682Y178187D01*
X153069Y177254D01*
X153684Y176452D01*
X154486Y175837D01*
X154590Y175794D01*
X154518Y175252D01*
X154650Y174250D01*
X155037Y173317D01*
X155652Y172515D01*
X155845Y172367D01*
X155715Y171884D01*
X155455Y171850D01*
X154685Y171531D01*
X153916Y171850D01*
X152913Y171982D01*
X151911Y171850D01*
X151142Y171531D01*
X150372Y171850D01*
X149370Y171982D01*
X148368Y171850D01*
X147434Y171463D01*
X146632Y170848D01*
X146017Y170046D01*
X145630Y169112D01*
X145498Y168110D01*
X145630Y167108D01*
X145949Y166339D01*
X145630Y165569D01*
X145498Y164567D01*
X145630Y163565D01*
X145949Y162795D01*
X145630Y162026D01*
X145498Y161024D01*
X145630Y160022D01*
X145949Y159252D01*
X145630Y158482D01*
X145498Y157480D01*
X145630Y156478D01*
X146017Y155544D01*
X146632Y154743D01*
X147434Y154127D01*
X148368Y153741D01*
X149370Y153609D01*
X150372Y153741D01*
X151142Y154059D01*
X151911Y153741D01*
X152913Y153609D01*
X153916Y153741D01*
X154685Y154059D01*
X155455Y153741D01*
X156457Y153609D01*
X157459Y153741D01*
X158228Y154059D01*
X158998Y153741D01*
X160000Y153609D01*
X161002Y153741D01*
X161936Y154127D01*
X162738Y154743D01*
X163353Y155544D01*
X163740Y156478D01*
X163872Y157480D01*
X163740Y158482D01*
X163421Y159252D01*
X163740Y160022D01*
X163872Y161024D01*
X163740Y162026D01*
X163421Y162795D01*
X163740Y163565D01*
X163872Y164567D01*
X163740Y165569D01*
X163421Y166339D01*
X163740Y167108D01*
X163872Y168110D01*
X163740Y169112D01*
X163353Y170046D01*
X162738Y170848D01*
X162646Y170918D01*
X162786Y171441D01*
X163329Y171513D01*
X164263Y171899D01*
X165065Y172515D01*
X165680Y173317D01*
X166067Y174250D01*
X166199Y175252D01*
X166187Y175341D01*
X166645Y175692D01*
X167231Y175450D01*
X168233Y175318D01*
X169235Y175450D01*
X170168Y175837D01*
X170201Y175862D01*
X170234Y175837D01*
X171168Y175450D01*
X172170Y175318D01*
X173172Y175450D01*
X174106Y175837D01*
X174138Y175862D01*
X174171Y175837D01*
X175105Y175450D01*
X176107Y175318D01*
X177109Y175450D01*
X177533Y175625D01*
X177991Y175274D01*
X177928Y174800D01*
X178060Y173798D01*
X178447Y172864D01*
X179062Y172062D01*
X179864Y171447D01*
X180798Y171060D01*
X181800Y170928D01*
X182802Y171060D01*
X183572Y171379D01*
X184341Y171060D01*
X185343Y170928D01*
X186345Y171060D01*
X187115Y171379D01*
X187884Y171060D01*
X188887Y170928D01*
X189889Y171060D01*
X190658Y171379D01*
X191428Y171060D01*
X192430Y170928D01*
X193432Y171060D01*
X194366Y171447D01*
X195168Y172062D01*
X195783Y172864D01*
X196170Y173798D01*
X196302Y174800D01*
X196170Y175802D01*
X195783Y176736D01*
X195168Y177538D01*
X194366Y178153D01*
X193432Y178540D01*
X192430Y178672D01*
X191428Y178540D01*
X190658Y178221D01*
X189889Y178540D01*
X188887Y178672D01*
X187884Y178540D01*
X187115Y178221D01*
X186345Y178540D01*
X185343Y178672D01*
X184341Y178540D01*
X183572Y178221D01*
X182802Y178540D01*
X181800Y178672D01*
X180798Y178540D01*
X180374Y178364D01*
X179916Y178716D01*
X179978Y179190D01*
X179846Y180192D01*
X179460Y181125D01*
X178844Y181927D01*
X178042Y182543D01*
X177109Y182929D01*
X176107Y183061D01*
X175105Y182929D01*
X174519Y182687D01*
X174061Y183038D01*
X174073Y183126D01*
X173941Y184129D01*
X173554Y185062D01*
X172939Y185864D01*
X172137Y186479D01*
X171203Y186866D01*
X170201Y186998D01*
D02*
G37*
G36*
X71024Y230156D02*
X69499Y230006D01*
X68034Y229561D01*
X66683Y228839D01*
X65499Y227867D01*
X64527Y226683D01*
X63805Y225332D01*
X63361Y223867D01*
X63210Y222342D01*
X63211Y222340D01*
X62900Y222299D01*
X61966Y221913D01*
X61164Y221297D01*
X60549Y220496D01*
X60162Y219562D01*
X60030Y218560D01*
X60101Y218019D01*
X59997Y217976D01*
X59196Y217360D01*
X58580Y216558D01*
X58194Y215625D01*
X58062Y214623D01*
X58133Y214082D01*
X58029Y214039D01*
X57227Y213423D01*
X56612Y212621D01*
X56225Y211688D01*
X56093Y210686D01*
X56225Y209683D01*
X56612Y208750D01*
X57227Y207948D01*
X58029Y207333D01*
X58133Y207290D01*
X58062Y206749D01*
X58133Y206208D01*
X58029Y206165D01*
X57227Y205549D01*
X56612Y204747D01*
X56225Y203814D01*
X56093Y202812D01*
X56225Y201810D01*
X56612Y200876D01*
X57227Y200074D01*
X58029Y199459D01*
X58963Y199072D01*
X59965Y198940D01*
X60967Y199072D01*
X61901Y199459D01*
X61933Y199484D01*
X61966Y199459D01*
X62900Y199072D01*
X63902Y198940D01*
X64904Y199072D01*
X65489Y199314D01*
X65947Y198963D01*
X65936Y198875D01*
X66007Y198334D01*
X65903Y198291D01*
X65101Y197675D01*
X64486Y196873D01*
X64099Y195940D01*
X63967Y194938D01*
X64099Y193936D01*
X64486Y193002D01*
X64803Y192588D01*
X64676Y191932D01*
X64162Y191538D01*
X63547Y190736D01*
X63160Y189802D01*
X63028Y188800D01*
X63160Y187798D01*
X63547Y186864D01*
X64162Y186062D01*
Y185938D01*
X63547Y185136D01*
X63160Y184202D01*
X63028Y183200D01*
X63160Y182198D01*
X63547Y181264D01*
X64162Y180462D01*
X64964Y179847D01*
X65898Y179460D01*
X66900Y179328D01*
X67902Y179460D01*
X68836Y179847D01*
X69638Y180462D01*
X70253Y181264D01*
X70640Y182198D01*
X70772Y183200D01*
X70640Y184202D01*
X70253Y185136D01*
X69638Y185938D01*
Y186062D01*
X70253Y186864D01*
X70640Y187798D01*
X70772Y188800D01*
X70640Y189802D01*
X70253Y190736D01*
X69936Y191149D01*
X70063Y191805D01*
X70577Y192200D01*
X71192Y193002D01*
X71579Y193936D01*
X71711Y194938D01*
X71639Y195478D01*
X71743Y195522D01*
X72545Y196137D01*
X73160Y196939D01*
X73547Y197872D01*
X73679Y198875D01*
X73608Y199416D01*
X73712Y199459D01*
X74514Y200074D01*
X75129Y200876D01*
X75516Y201810D01*
X75648Y202812D01*
X75516Y203814D01*
X75129Y204747D01*
X74514Y205549D01*
X73712Y206165D01*
X73608Y206208D01*
X73679Y206749D01*
X73608Y207290D01*
X73712Y207333D01*
X74514Y207948D01*
X75129Y208750D01*
X75516Y209683D01*
X75648Y210686D01*
X75516Y211688D01*
X75129Y212621D01*
X74514Y213423D01*
X73712Y214039D01*
X73608Y214082D01*
X73679Y214623D01*
X73628Y215007D01*
X74014Y215124D01*
X75364Y215846D01*
X76548Y216818D01*
X77520Y218002D01*
X78242Y219353D01*
X78687Y220818D01*
X78837Y222342D01*
X78687Y223867D01*
X78242Y225332D01*
X77520Y226683D01*
X76548Y227867D01*
X75364Y228839D01*
X74014Y229561D01*
X72548Y230006D01*
X71024Y230156D01*
D02*
G37*
G36*
X44217Y186998D02*
X43215Y186866D01*
X42281Y186479D01*
X42248Y186454D01*
X42216Y186479D01*
X41282Y186866D01*
X40280Y186998D01*
X39278Y186866D01*
X38344Y186479D01*
X38311Y186454D01*
X38279Y186479D01*
X37345Y186866D01*
X36343Y186998D01*
X35341Y186866D01*
X34407Y186479D01*
X33605Y185864D01*
X32990Y185062D01*
X32603Y184129D01*
X32471Y183126D01*
X32542Y182586D01*
X32438Y182543D01*
X31637Y181927D01*
X31021Y181125D01*
X30634Y180192D01*
X30503Y179190D01*
X30514Y179101D01*
X30056Y178750D01*
X29471Y178992D01*
X28469Y179124D01*
X27467Y178992D01*
X26533Y178605D01*
X25731Y177990D01*
X25116Y177188D01*
X24729Y176255D01*
X24597Y175252D01*
X24729Y174250D01*
X25116Y173317D01*
X25731Y172515D01*
X25923Y172367D01*
X25794Y171884D01*
X25533Y171850D01*
X24764Y171531D01*
X23994Y171850D01*
X22992Y171982D01*
X21990Y171850D01*
X21220Y171531D01*
X20451Y171850D01*
X19449Y171982D01*
X18447Y171850D01*
X17513Y171463D01*
X16711Y170848D01*
X16096Y170046D01*
X15709Y169112D01*
X15577Y168110D01*
X15709Y167108D01*
X16028Y166339D01*
X15709Y165569D01*
X15577Y164567D01*
X15709Y163565D01*
X16028Y162795D01*
X15709Y162026D01*
X15577Y161024D01*
X15709Y160022D01*
X16028Y159252D01*
X15709Y158482D01*
X15577Y157480D01*
X15709Y156478D01*
X16096Y155544D01*
X16711Y154743D01*
X17513Y154127D01*
X18447Y153741D01*
X19449Y153609D01*
X20451Y153741D01*
X21220Y154059D01*
X21990Y153741D01*
X22992Y153609D01*
X23994Y153741D01*
X24764Y154059D01*
X25533Y153741D01*
X26535Y153609D01*
X27538Y153741D01*
X28307Y154059D01*
X29077Y153741D01*
X30079Y153609D01*
X31081Y153741D01*
X32015Y154127D01*
X32816Y154743D01*
X33432Y155544D01*
X33819Y156478D01*
X33950Y157480D01*
X33819Y158482D01*
X33500Y159252D01*
X33819Y160022D01*
X33950Y161024D01*
X33819Y162026D01*
X33500Y162795D01*
X33819Y163565D01*
X33950Y164567D01*
X33819Y165569D01*
X33500Y166339D01*
X33819Y167108D01*
X33950Y168110D01*
X33819Y169112D01*
X33432Y170046D01*
X32816Y170848D01*
X32725Y170919D01*
X32865Y171441D01*
X33408Y171513D01*
X34342Y171899D01*
X35144Y172515D01*
X35759Y173317D01*
X36146Y174250D01*
X36277Y175252D01*
X36266Y175341D01*
X36724Y175692D01*
X37309Y175450D01*
X38311Y175318D01*
X39313Y175450D01*
X40247Y175837D01*
X41049Y176452D01*
X41664Y177254D01*
X42051Y178187D01*
X42183Y179190D01*
X42171Y179278D01*
X42629Y179629D01*
X43215Y179387D01*
X44217Y179255D01*
X45219Y179387D01*
X46153Y179773D01*
X46955Y180389D01*
X47570Y181191D01*
X47957Y182124D01*
X48088Y183126D01*
X47957Y184129D01*
X47570Y185062D01*
X46955Y185864D01*
X46153Y186479D01*
X45219Y186866D01*
X44217Y186998D01*
D02*
G37*
G36*
X125930Y144172D02*
X124928Y144040D01*
X124158Y143721D01*
X123389Y144040D01*
X122387Y144172D01*
X121385Y144040D01*
X120615Y143721D01*
X119845Y144040D01*
X118843Y144172D01*
X117841Y144040D01*
X117072Y143721D01*
X116302Y144040D01*
X115300Y144172D01*
X114298Y144040D01*
X113364Y143653D01*
X112562Y143038D01*
X111947Y142236D01*
X111560Y141302D01*
X111428Y140300D01*
X111560Y139298D01*
X111947Y138364D01*
X112562Y137562D01*
X113364Y136947D01*
X114298Y136560D01*
X115300Y136428D01*
X116302Y136560D01*
X117072Y136879D01*
X117841Y136560D01*
X118843Y136428D01*
X119845Y136560D01*
X120615Y136879D01*
X121385Y136560D01*
X122387Y136428D01*
X123389Y136560D01*
X124158Y136879D01*
X124928Y136560D01*
X125930Y136428D01*
X126932Y136560D01*
X127866Y136947D01*
X128668Y137562D01*
X129283Y138364D01*
X129670Y139298D01*
X129802Y140300D01*
X129670Y141302D01*
X129283Y142236D01*
X128668Y143038D01*
X127866Y143653D01*
X126932Y144040D01*
X125930Y144172D01*
D02*
G37*
G36*
X179398Y31548D02*
Y30224D01*
X180721D01*
X180674Y30460D01*
X180257Y31084D01*
X179633Y31501D01*
X179398Y31548D01*
D02*
G37*
G36*
X178398D02*
X178162Y31501D01*
X177538Y31084D01*
X177121Y30460D01*
X177074Y30224D01*
X178398D01*
Y31548D01*
D02*
G37*
G36*
X180721Y29224D02*
X179398D01*
Y27901D01*
X179633Y27948D01*
X180257Y28365D01*
X180674Y28989D01*
X180721Y29224D01*
D02*
G37*
G36*
X184900Y40467D02*
X183744Y40315D01*
X182666Y39869D01*
X181741Y39159D01*
X181031Y38234D01*
X180585Y37156D01*
X180433Y36000D01*
X180585Y34844D01*
X181031Y33766D01*
X181741Y32841D01*
X182666Y32131D01*
X183744Y31685D01*
X184900Y31533D01*
X186056Y31685D01*
X187134Y32131D01*
X188059Y32841D01*
X188769Y33766D01*
X189215Y34844D01*
X189367Y36000D01*
X189215Y37156D01*
X188769Y38234D01*
X188059Y39159D01*
X187134Y39869D01*
X186056Y40315D01*
X184900Y40467D01*
D02*
G37*
G36*
X194900D02*
X193744Y40315D01*
X192666Y39869D01*
X191741Y39159D01*
X191031Y38234D01*
X190585Y37156D01*
X190433Y36000D01*
X190585Y34844D01*
X191031Y33766D01*
X191741Y32841D01*
X192666Y32131D01*
X193744Y31685D01*
X194900Y31533D01*
X196056Y31685D01*
X197134Y32131D01*
X198059Y32841D01*
X198769Y33766D01*
X199215Y34844D01*
X199367Y36000D01*
X199215Y37156D01*
X198769Y38234D01*
X198059Y39159D01*
X197134Y39869D01*
X196056Y40315D01*
X194900Y40467D01*
D02*
G37*
G36*
X174756Y43299D02*
X173433D01*
X173479Y43063D01*
X173896Y42440D01*
X174520Y42023D01*
X174756Y41976D01*
Y43299D01*
D02*
G37*
G36*
X177079D02*
X175756D01*
Y41976D01*
X175992Y42023D01*
X176616Y42440D01*
X177032Y43063D01*
X177079Y43299D01*
D02*
G37*
G36*
X175756Y45623D02*
Y44299D01*
X177079D01*
X177032Y44535D01*
X176616Y45159D01*
X175992Y45576D01*
X175756Y45623D01*
D02*
G37*
G36*
X50256Y52977D02*
X49511Y52879D01*
X48816Y52592D01*
X48220Y52134D01*
X47763Y51538D01*
X47475Y50844D01*
X47377Y50098D01*
X47475Y49353D01*
X47763Y48659D01*
X48220Y48063D01*
X48816Y47605D01*
X49511Y47318D01*
X50256Y47219D01*
X51001Y47318D01*
X51695Y47605D01*
X52292Y48063D01*
X52749Y48659D01*
X53037Y49353D01*
X53135Y50098D01*
X53037Y50844D01*
X52749Y51538D01*
X52292Y52134D01*
X51695Y52592D01*
X51001Y52879D01*
X50256Y52977D01*
D02*
G37*
G36*
X174756Y45623D02*
X174520Y45576D01*
X173896Y45159D01*
X173479Y44535D01*
X173433Y44299D01*
X174756D01*
Y45623D01*
D02*
G37*
G36*
X194900Y50467D02*
X193744Y50315D01*
X192666Y49869D01*
X191741Y49159D01*
X191031Y48234D01*
X190585Y47156D01*
X190433Y46000D01*
X190585Y44844D01*
X191031Y43766D01*
X191741Y42841D01*
X192666Y42131D01*
X193744Y41685D01*
X194900Y41533D01*
X196056Y41685D01*
X197134Y42131D01*
X198059Y42841D01*
X198769Y43766D01*
X199215Y44844D01*
X199367Y46000D01*
X199215Y47156D01*
X198769Y48234D01*
X198059Y49159D01*
X197134Y49869D01*
X196056Y50315D01*
X194900Y50467D01*
D02*
G37*
G36*
X184900D02*
X183744Y50315D01*
X182666Y49869D01*
X181741Y49159D01*
X181031Y48234D01*
X180585Y47156D01*
X180433Y46000D01*
X180585Y44844D01*
X181031Y43766D01*
X181741Y42841D01*
X182666Y42131D01*
X183744Y41685D01*
X184900Y41533D01*
X186056Y41685D01*
X187134Y42131D01*
X188059Y42841D01*
X188769Y43766D01*
X189215Y44844D01*
X189367Y46000D01*
X189215Y47156D01*
X188769Y48234D01*
X188059Y49159D01*
X187134Y49869D01*
X186056Y50315D01*
X184900Y50467D01*
D02*
G37*
G36*
X178398Y29224D02*
X177074D01*
X177121Y28989D01*
X177538Y28365D01*
X178162Y27948D01*
X178398Y27901D01*
Y29224D01*
D02*
G37*
G36*
X174461Y18359D02*
X174225Y18312D01*
X173601Y17895D01*
X173184Y17271D01*
X173137Y17035D01*
X174461D01*
Y18359D01*
D02*
G37*
G36*
X176784Y16035D02*
X175461D01*
Y14712D01*
X175696Y14759D01*
X176320Y15176D01*
X176737Y15800D01*
X176784Y16035D01*
D02*
G37*
G36*
X175461Y18359D02*
Y17035D01*
X176784D01*
X176737Y17271D01*
X176320Y17895D01*
X175696Y18312D01*
X175461Y18359D01*
D02*
G37*
G36*
X174461Y16035D02*
X173137D01*
X173184Y15800D01*
X173601Y15176D01*
X174225Y14759D01*
X174461Y14712D01*
Y16035D01*
D02*
G37*
G36*
X184900Y20467D02*
X183744Y20315D01*
X182666Y19869D01*
X181741Y19159D01*
X181031Y18234D01*
X180585Y17156D01*
X180433Y16000D01*
X180585Y14844D01*
X181031Y13766D01*
X181741Y12841D01*
X182666Y12131D01*
X183744Y11685D01*
X184900Y11533D01*
X186056Y11685D01*
X187134Y12131D01*
X188059Y12841D01*
X188769Y13766D01*
X189215Y14844D01*
X189367Y16000D01*
X189215Y17156D01*
X188769Y18234D01*
X188059Y19159D01*
X187134Y19869D01*
X186056Y20315D01*
X184900Y20467D01*
D02*
G37*
G36*
X194900D02*
X193744Y20315D01*
X192666Y19869D01*
X191741Y19159D01*
X191031Y18234D01*
X190585Y17156D01*
X190433Y16000D01*
X190585Y14844D01*
X191031Y13766D01*
X191741Y12841D01*
X192666Y12131D01*
X193744Y11685D01*
X194900Y11533D01*
X196056Y11685D01*
X197134Y12131D01*
X198059Y12841D01*
X198769Y13766D01*
X199215Y14844D01*
X199367Y16000D01*
X199215Y17156D01*
X198769Y18234D01*
X198059Y19159D01*
X197134Y19869D01*
X196056Y20315D01*
X194900Y20467D01*
D02*
G37*
G36*
Y30467D02*
X193744Y30315D01*
X192666Y29869D01*
X191741Y29159D01*
X191031Y28234D01*
X190585Y27156D01*
X190433Y26000D01*
X190585Y24844D01*
X191031Y23766D01*
X191741Y22841D01*
X192666Y22131D01*
X193744Y21685D01*
X194900Y21533D01*
X196056Y21685D01*
X197134Y22131D01*
X198059Y22841D01*
X198769Y23766D01*
X199215Y24844D01*
X199367Y26000D01*
X199215Y27156D01*
X198769Y28234D01*
X198059Y29159D01*
X197134Y29869D01*
X196056Y30315D01*
X194900Y30467D01*
D02*
G37*
G36*
X184900D02*
X183744Y30315D01*
X182666Y29869D01*
X181741Y29159D01*
X181031Y28234D01*
X180585Y27156D01*
X180433Y26000D01*
X180585Y24844D01*
X181031Y23766D01*
X181741Y22841D01*
X182666Y22131D01*
X183744Y21685D01*
X184900Y21533D01*
X186056Y21685D01*
X187134Y22131D01*
X188059Y22841D01*
X188769Y23766D01*
X189215Y24844D01*
X189367Y26000D01*
X189215Y27156D01*
X188769Y28234D01*
X188059Y29159D01*
X187134Y29869D01*
X186056Y30315D01*
X184900Y30467D01*
D02*
G37*
G36*
X84508Y95300D02*
X83763Y95202D01*
X83068Y94915D01*
X82472Y94457D01*
X82358Y94308D01*
X81858D01*
X81819Y94359D01*
X81223Y94816D01*
X80529Y95104D01*
X79783Y95202D01*
X79038Y95104D01*
X78344Y94816D01*
X77748Y94359D01*
X77290Y93762D01*
X77003Y93068D01*
X76904Y92323D01*
X77003Y91578D01*
X77290Y90883D01*
X77748Y90287D01*
X78344Y89830D01*
X79038Y89542D01*
X79783Y89444D01*
X80529Y89542D01*
X81223Y89830D01*
X81819Y90287D01*
X81933Y90436D01*
X82433D01*
X82472Y90386D01*
X83068Y89928D01*
X83763Y89640D01*
X84508Y89542D01*
X85253Y89640D01*
X85947Y89928D01*
X86544Y90386D01*
X87001Y90982D01*
X87289Y91676D01*
X87387Y92421D01*
X87289Y93166D01*
X87001Y93861D01*
X86544Y94457D01*
X85947Y94915D01*
X85253Y95202D01*
X84508Y95300D01*
D02*
G37*
G36*
X14400Y99461D02*
X11439D01*
Y96500D01*
X14400D01*
Y99461D01*
D02*
G37*
G36*
X64921Y99631D02*
X64176Y99533D01*
X63482Y99245D01*
X62885Y98788D01*
X62428Y98191D01*
X62140Y97497D01*
X62042Y96752D01*
X62140Y96007D01*
X62428Y95312D01*
X62885Y94716D01*
X63482Y94259D01*
X64176Y93971D01*
X64921Y93873D01*
X65666Y93971D01*
X66361Y94259D01*
X66957Y94716D01*
X67414Y95312D01*
X67702Y96007D01*
X67800Y96752D01*
X67702Y97497D01*
X67414Y98191D01*
X66957Y98788D01*
X66361Y99245D01*
X65666Y99533D01*
X64921Y99631D01*
D02*
G37*
G36*
X14400Y95500D02*
X11439D01*
Y92539D01*
X14400D01*
Y95500D01*
D02*
G37*
G36*
X41700Y94823D02*
Y93500D01*
X43023D01*
X42976Y93736D01*
X42560Y94360D01*
X41936Y94776D01*
X41700Y94823D01*
D02*
G37*
G36*
X174032Y105166D02*
X173286Y105068D01*
X172592Y104780D01*
X171996Y104322D01*
X171538Y103726D01*
X171251Y103032D01*
X171153Y102287D01*
X171251Y101541D01*
X171538Y100847D01*
X171996Y100251D01*
X172592Y99793D01*
X173286Y99506D01*
X174032Y99408D01*
X174777Y99506D01*
X175471Y99793D01*
X176067Y100251D01*
X176525Y100847D01*
X176812Y101541D01*
X176910Y102287D01*
X176812Y103032D01*
X176525Y103726D01*
X176067Y104322D01*
X175471Y104780D01*
X174777Y105068D01*
X174032Y105166D01*
D02*
G37*
G36*
X144901Y101500D02*
X143578D01*
X143624Y101264D01*
X144041Y100640D01*
X144665Y100224D01*
X144901Y100177D01*
Y101500D01*
D02*
G37*
G36*
X75939Y103517D02*
X75194Y103419D01*
X74500Y103131D01*
X73904Y102673D01*
X73446Y102077D01*
X73159Y101383D01*
X73060Y100638D01*
X73159Y99893D01*
X73446Y99198D01*
X73904Y98602D01*
X74500Y98145D01*
X75194Y97857D01*
X75939Y97759D01*
X76684Y97857D01*
X77379Y98145D01*
X77975Y98602D01*
X78433Y99198D01*
X78720Y99893D01*
X78818Y100638D01*
X78720Y101383D01*
X78433Y102077D01*
X77975Y102673D01*
X77379Y103131D01*
X76684Y103419D01*
X75939Y103517D01*
D02*
G37*
G36*
X84705Y107111D02*
X83960Y107013D01*
X83265Y106726D01*
X82669Y106268D01*
X82212Y105672D01*
X81924Y104977D01*
X81826Y104232D01*
X81924Y103487D01*
X82212Y102793D01*
X82353Y102608D01*
X82212Y102424D01*
X81924Y101729D01*
X81826Y100984D01*
X81924Y100239D01*
X82212Y99545D01*
X82669Y98949D01*
X83265Y98491D01*
X83960Y98203D01*
X84705Y98105D01*
X85450Y98203D01*
X86144Y98491D01*
X86740Y98949D01*
X87198Y99545D01*
X87486Y100239D01*
X87584Y100984D01*
X87486Y101729D01*
X87198Y102424D01*
X87056Y102608D01*
X87198Y102793D01*
X87486Y103487D01*
X87584Y104232D01*
X87486Y104977D01*
X87198Y105672D01*
X86740Y106268D01*
X86144Y106726D01*
X85450Y107013D01*
X84705Y107111D01*
D02*
G37*
G36*
X189329Y100429D02*
X180471D01*
Y91571D01*
X189329D01*
Y100429D01*
D02*
G37*
G36*
X184900Y90467D02*
X183744Y90315D01*
X182666Y89869D01*
X181741Y89159D01*
X181031Y88234D01*
X180585Y87156D01*
X180433Y86000D01*
X180585Y84844D01*
X181031Y83766D01*
X181741Y82841D01*
X182666Y82131D01*
X183744Y81685D01*
X184900Y81533D01*
X186056Y81685D01*
X187134Y82131D01*
X188059Y82841D01*
X188769Y83766D01*
X189215Y84844D01*
X189367Y86000D01*
X189215Y87156D01*
X188769Y88234D01*
X188059Y89159D01*
X187134Y89869D01*
X186056Y90315D01*
X184900Y90467D01*
D02*
G37*
G36*
X194900D02*
X193744Y90315D01*
X192666Y89869D01*
X191741Y89159D01*
X191031Y88234D01*
X190585Y87156D01*
X190433Y86000D01*
X190585Y84844D01*
X191031Y83766D01*
X191741Y82841D01*
X192666Y82131D01*
X193744Y81685D01*
X194900Y81533D01*
X196056Y81685D01*
X197134Y82131D01*
X198059Y82841D01*
X198769Y83766D01*
X199215Y84844D01*
X199367Y86000D01*
X199215Y87156D01*
X198769Y88234D01*
X198059Y89159D01*
X197134Y89869D01*
X196056Y90315D01*
X194900Y90467D01*
D02*
G37*
G36*
X42488Y80563D02*
Y79240D01*
X43812D01*
X43765Y79476D01*
X43348Y80100D01*
X42724Y80517D01*
X42488Y80563D01*
D02*
G37*
G36*
X154657Y81156D02*
X153758Y81037D01*
X152920Y80690D01*
X152200Y80138D01*
X151648Y79418D01*
X151301Y78580D01*
X151183Y77681D01*
X151301Y76782D01*
X151648Y75944D01*
X152200Y75224D01*
X152920Y74672D01*
X153758Y74325D01*
X154657Y74206D01*
X155557Y74325D01*
X156395Y74672D01*
X157114Y75224D01*
X157667Y75944D01*
X158014Y76782D01*
X158132Y77681D01*
X158014Y78580D01*
X157667Y79418D01*
X157114Y80138D01*
X156395Y80690D01*
X155557Y81037D01*
X154657Y81156D01*
D02*
G37*
G36*
X43812Y78240D02*
X42488D01*
Y76917D01*
X42724Y76964D01*
X43348Y77381D01*
X43765Y78004D01*
X43812Y78240D01*
D02*
G37*
G36*
X43023Y92500D02*
X41700D01*
Y91177D01*
X41936Y91224D01*
X42560Y91640D01*
X42976Y92264D01*
X43023Y92500D01*
D02*
G37*
G36*
X194900Y100467D02*
X193744Y100315D01*
X192666Y99869D01*
X191741Y99159D01*
X191031Y98234D01*
X190585Y97156D01*
X190433Y96000D01*
X190585Y94844D01*
X191031Y93766D01*
X191741Y92841D01*
X192666Y92131D01*
X193744Y91685D01*
X194900Y91533D01*
X196056Y91685D01*
X197134Y92131D01*
X198059Y92841D01*
X198769Y93766D01*
X199215Y94844D01*
X199367Y96000D01*
X199215Y97156D01*
X198769Y98234D01*
X198059Y99159D01*
X197134Y99869D01*
X196056Y100315D01*
X194900Y100467D01*
D02*
G37*
G36*
X49000Y95879D02*
X48255Y95781D01*
X47561Y95493D01*
X46964Y95036D01*
X46507Y94440D01*
X46219Y93745D01*
X46121Y93000D01*
X46219Y92255D01*
X46507Y91561D01*
X46964Y90964D01*
X47561Y90507D01*
X48255Y90219D01*
X49000Y90121D01*
X49745Y90219D01*
X50440Y90507D01*
X51036Y90964D01*
X51493Y91561D01*
X51781Y92255D01*
X51879Y93000D01*
X51781Y93745D01*
X51493Y94440D01*
X51036Y95036D01*
X50440Y95493D01*
X49745Y95781D01*
X49000Y95879D01*
D02*
G37*
G36*
X176732Y98879D02*
X175987Y98781D01*
X175293Y98493D01*
X174697Y98036D01*
X174239Y97439D01*
X173951Y96745D01*
X173943Y96681D01*
X173920Y96679D01*
X173226Y96391D01*
X172630Y95933D01*
X172172Y95337D01*
X171885Y94643D01*
X171858Y94441D01*
X171656Y94415D01*
X170962Y94127D01*
X170366Y93670D01*
X169908Y93073D01*
X169621Y92379D01*
X169596Y92191D01*
X169294Y92151D01*
X168600Y91863D01*
X168004Y91406D01*
X167546Y90810D01*
X167259Y90115D01*
X167239Y89966D01*
X166637Y89887D01*
X165942Y89600D01*
X165346Y89142D01*
X164889Y88546D01*
X164601Y87851D01*
X164542Y87402D01*
X163979Y87328D01*
X163285Y87041D01*
X162689Y86583D01*
X162231Y85987D01*
X161944Y85292D01*
X161846Y84547D01*
X161944Y83802D01*
X162231Y83108D01*
X162689Y82512D01*
X163285Y82054D01*
X163979Y81766D01*
X164724Y81668D01*
X165470Y81766D01*
X166164Y82054D01*
X166760Y82512D01*
X167218Y83108D01*
X167505Y83802D01*
X167564Y84251D01*
X168127Y84325D01*
X168821Y84613D01*
X169418Y85071D01*
X169875Y85667D01*
X170163Y86361D01*
X170182Y86510D01*
X170784Y86589D01*
X171479Y86877D01*
X172075Y87334D01*
X172533Y87931D01*
X172820Y88625D01*
X172845Y88813D01*
X173147Y88853D01*
X173841Y89141D01*
X174437Y89598D01*
X174895Y90194D01*
X175182Y90889D01*
X175209Y91090D01*
X175410Y91117D01*
X176105Y91404D01*
X176701Y91862D01*
X177159Y92458D01*
X177446Y93152D01*
X177455Y93216D01*
X177477Y93219D01*
X178172Y93507D01*
X178768Y93964D01*
X179226Y94560D01*
X179513Y95255D01*
X179611Y96000D01*
X179513Y96745D01*
X179226Y97439D01*
X178768Y98036D01*
X178172Y98493D01*
X177477Y98781D01*
X176732Y98879D01*
D02*
G37*
G36*
X72697Y92052D02*
X71952Y91954D01*
X71257Y91667D01*
X70661Y91209D01*
X70204Y90613D01*
X69916Y89918D01*
X69818Y89173D01*
X69916Y88428D01*
X70204Y87734D01*
X70661Y87138D01*
X71257Y86680D01*
X71952Y86392D01*
X72697Y86294D01*
X73442Y86392D01*
X74136Y86680D01*
X74733Y87138D01*
X75190Y87734D01*
X75478Y88428D01*
X75576Y89173D01*
X75478Y89918D01*
X75190Y90613D01*
X74733Y91209D01*
X74136Y91667D01*
X73442Y91954D01*
X72697Y92052D01*
D02*
G37*
G36*
X147224Y101500D02*
X145901D01*
Y100177D01*
X146137Y100224D01*
X146760Y100640D01*
X147177Y101264D01*
X147224Y101500D01*
D02*
G37*
G36*
X144901Y103823D02*
X144665Y103776D01*
X144041Y103360D01*
X143624Y102736D01*
X143578Y102500D01*
X144901D01*
Y103823D01*
D02*
G37*
G36*
X145901D02*
Y102500D01*
X147224D01*
X147177Y102736D01*
X146760Y103360D01*
X146137Y103776D01*
X145901Y103823D01*
D02*
G37*
G36*
X152000Y107579D02*
X151255Y107481D01*
X150560Y107193D01*
X149964Y106736D01*
X149507Y106140D01*
X149219Y105445D01*
X149121Y104700D01*
X149219Y103955D01*
X149507Y103261D01*
X149964Y102664D01*
X150560Y102207D01*
X151255Y101919D01*
X152000Y101821D01*
X152745Y101919D01*
X153439Y102207D01*
X154036Y102664D01*
X154493Y103261D01*
X154781Y103955D01*
X154879Y104700D01*
X154781Y105445D01*
X154493Y106140D01*
X154036Y106736D01*
X153439Y107193D01*
X152745Y107481D01*
X152000Y107579D01*
D02*
G37*
G36*
X8996Y106207D02*
X8251Y106109D01*
X7557Y105822D01*
X6960Y105364D01*
X6503Y104768D01*
X6215Y104074D01*
X6117Y103328D01*
X6215Y102583D01*
X6503Y101889D01*
X6960Y101293D01*
X7557Y100835D01*
X8251Y100548D01*
X8996Y100450D01*
X9741Y100548D01*
X10435Y100835D01*
X11032Y101293D01*
X11489Y101889D01*
X11777Y102583D01*
X11875Y103328D01*
X11777Y104074D01*
X11489Y104768D01*
X11032Y105364D01*
X10435Y105822D01*
X9741Y106109D01*
X8996Y106207D01*
D02*
G37*
G36*
X200888Y106224D02*
X200143Y106126D01*
X199449Y105838D01*
X198853Y105381D01*
X198395Y104784D01*
X198107Y104090D01*
X198009Y103345D01*
X198107Y102600D01*
X198395Y101905D01*
X198853Y101309D01*
X199449Y100852D01*
X200143Y100564D01*
X200888Y100466D01*
X201633Y100564D01*
X202328Y100852D01*
X202924Y101309D01*
X203381Y101905D01*
X203669Y102600D01*
X203767Y103345D01*
X203669Y104090D01*
X203381Y104784D01*
X202924Y105381D01*
X202328Y105838D01*
X201633Y106126D01*
X200888Y106224D01*
D02*
G37*
G36*
X42571Y115543D02*
X41248D01*
X41295Y115307D01*
X41711Y114684D01*
X42335Y114267D01*
X42571Y114220D01*
Y115543D01*
D02*
G37*
G36*
X44894D02*
X43571D01*
Y114220D01*
X43807Y114267D01*
X44431Y114684D01*
X44847Y115307D01*
X44894Y115543D01*
D02*
G37*
G36*
X57600Y111779D02*
X56855Y111681D01*
X56160Y111393D01*
X55564Y110936D01*
X55163Y110413D01*
X55099Y110339D01*
X54539Y110274D01*
X54236Y110476D01*
X54000Y110523D01*
Y108700D01*
Y106877D01*
X54236Y106924D01*
X54688Y107226D01*
X54879Y107333D01*
X55339Y107158D01*
X55564Y106864D01*
X56160Y106407D01*
X56855Y106119D01*
X57600Y106021D01*
X58345Y106119D01*
X59039Y106407D01*
X59636Y106864D01*
X60093Y107460D01*
X60381Y108155D01*
X60479Y108900D01*
X60381Y109645D01*
X60093Y110339D01*
X59636Y110936D01*
X59039Y111393D01*
X58345Y111681D01*
X57600Y111779D01*
D02*
G37*
G36*
X53000Y108200D02*
X51677D01*
X51724Y107964D01*
X52140Y107340D01*
X52764Y106924D01*
X53000Y106877D01*
Y108200D01*
D02*
G37*
G36*
Y110523D02*
X52764Y110476D01*
X52140Y110060D01*
X51724Y109436D01*
X51677Y109200D01*
X53000D01*
Y110523D01*
D02*
G37*
G36*
X168000Y75025D02*
Y73100D01*
X169925D01*
X169833Y73566D01*
X169285Y74385D01*
X168466Y74933D01*
X168000Y75025D01*
D02*
G37*
G36*
X194900Y60467D02*
X193744Y60315D01*
X192666Y59869D01*
X191741Y59159D01*
X191031Y58234D01*
X190585Y57156D01*
X190433Y56000D01*
X190585Y54844D01*
X191031Y53766D01*
X191741Y52841D01*
X192666Y52131D01*
X193744Y51685D01*
X194900Y51533D01*
X196056Y51685D01*
X197134Y52131D01*
X198059Y52841D01*
X198769Y53766D01*
X199215Y54844D01*
X199367Y56000D01*
X199215Y57156D01*
X198769Y58234D01*
X198059Y59159D01*
X197134Y59869D01*
X196056Y60315D01*
X194900Y60467D01*
D02*
G37*
G36*
X184900Y70467D02*
X183744Y70315D01*
X182666Y69869D01*
X181741Y69159D01*
X181031Y68234D01*
X180585Y67156D01*
X180433Y66000D01*
X180585Y64844D01*
X181031Y63766D01*
X181741Y62841D01*
X182666Y62131D01*
X183744Y61685D01*
X184900Y61533D01*
X186056Y61685D01*
X187134Y62131D01*
X188059Y62841D01*
X188769Y63766D01*
X189215Y64844D01*
X189367Y66000D01*
X189215Y67156D01*
X188769Y68234D01*
X188059Y69159D01*
X187134Y69869D01*
X186056Y70315D01*
X184900Y70467D01*
D02*
G37*
G36*
X194900D02*
X193744Y70315D01*
X192666Y69869D01*
X191741Y69159D01*
X191031Y68234D01*
X190585Y67156D01*
X190433Y66000D01*
X190585Y64844D01*
X191031Y63766D01*
X191741Y62841D01*
X192666Y62131D01*
X193744Y61685D01*
X194900Y61533D01*
X196056Y61685D01*
X197134Y62131D01*
X198059Y62841D01*
X198769Y63766D01*
X199215Y64844D01*
X199367Y66000D01*
X199215Y67156D01*
X198769Y68234D01*
X198059Y69159D01*
X197134Y69869D01*
X196056Y70315D01*
X194900Y70467D01*
D02*
G37*
G36*
X167000Y62000D02*
X165075D01*
X165167Y61534D01*
X165715Y60715D01*
X166534Y60167D01*
X167000Y60075D01*
Y62000D01*
D02*
G37*
G36*
X169925D02*
X168000D01*
Y60075D01*
X168466Y60167D01*
X169285Y60715D01*
X169833Y61534D01*
X169925Y62000D01*
D02*
G37*
G36*
X184900Y60467D02*
X183744Y60315D01*
X182666Y59869D01*
X181741Y59159D01*
X181031Y58234D01*
X180585Y57156D01*
X180433Y56000D01*
X180585Y54844D01*
X181031Y53766D01*
X181741Y52841D01*
X182666Y52131D01*
X183744Y51685D01*
X184900Y51533D01*
X186056Y51685D01*
X187134Y52131D01*
X188059Y52841D01*
X188769Y53766D01*
X189215Y54844D01*
X189367Y56000D01*
X189215Y57156D01*
X188769Y58234D01*
X188059Y59159D01*
X187134Y59869D01*
X186056Y60315D01*
X184900Y60467D01*
D02*
G37*
G36*
X69000Y51323D02*
X68764Y51276D01*
X68140Y50860D01*
X67724Y50236D01*
X67677Y50000D01*
X69000D01*
Y51323D01*
D02*
G37*
G36*
X71323Y49000D02*
X70000D01*
Y47677D01*
X70236Y47724D01*
X70860Y48140D01*
X71276Y48764D01*
X71323Y49000D01*
D02*
G37*
G36*
X161091Y49374D02*
Y47449D01*
X163016D01*
X162923Y47915D01*
X162376Y48734D01*
X161557Y49281D01*
X161091Y49374D01*
D02*
G37*
G36*
X69000Y49000D02*
X67677D01*
X67724Y48764D01*
X68140Y48140D01*
X68764Y47724D01*
X69000Y47677D01*
Y49000D01*
D02*
G37*
G36*
X70000Y51323D02*
Y50000D01*
X71323D01*
X71276Y50236D01*
X70860Y50860D01*
X70236Y51276D01*
X70000Y51323D01*
D02*
G37*
G36*
X43713Y63279D02*
X42390D01*
Y61956D01*
X42626Y62003D01*
X43249Y62420D01*
X43666Y63044D01*
X43713Y63279D01*
D02*
G37*
G36*
X169925Y72100D02*
X165075D01*
X165167Y71634D01*
X165658Y70900D01*
X165167Y70166D01*
X165075Y69700D01*
X169925D01*
X169833Y70166D01*
X169342Y70900D01*
X169833Y71634D01*
X169925Y72100D01*
D02*
G37*
G36*
X145736Y69650D02*
Y67724D01*
X147662D01*
X147569Y68191D01*
X147022Y69010D01*
X146203Y69557D01*
X145736Y69650D01*
D02*
G37*
G36*
X144736D02*
X144270Y69557D01*
X143451Y69010D01*
X142903Y68191D01*
X142811Y67724D01*
X144736D01*
Y69650D01*
D02*
G37*
G36*
X194900Y80467D02*
X193744Y80315D01*
X192666Y79869D01*
X191741Y79159D01*
X191031Y78234D01*
X190585Y77156D01*
X190433Y76000D01*
X190585Y74844D01*
X191031Y73766D01*
X191741Y72841D01*
X192666Y72131D01*
X193744Y71685D01*
X194900Y71533D01*
X196056Y71685D01*
X197134Y72131D01*
X198059Y72841D01*
X198769Y73766D01*
X199215Y74844D01*
X199367Y76000D01*
X199215Y77156D01*
X198769Y78234D01*
X198059Y79159D01*
X197134Y79869D01*
X196056Y80315D01*
X194900Y80467D01*
D02*
G37*
G36*
X167000Y75025D02*
X166534Y74933D01*
X165715Y74385D01*
X165167Y73566D01*
X165075Y73100D01*
X167000D01*
Y75025D01*
D02*
G37*
G36*
X184900Y80467D02*
X183744Y80315D01*
X182666Y79869D01*
X181741Y79159D01*
X181031Y78234D01*
X180585Y77156D01*
X180433Y76000D01*
X180585Y74844D01*
X181031Y73766D01*
X181741Y72841D01*
X182666Y72131D01*
X183744Y71685D01*
X184900Y71533D01*
X186056Y71685D01*
X187134Y72131D01*
X188059Y72841D01*
X188769Y73766D01*
X189215Y74844D01*
X189367Y76000D01*
X189215Y77156D01*
X188769Y78234D01*
X188059Y79159D01*
X187134Y79869D01*
X186056Y80315D01*
X184900Y80467D01*
D02*
G37*
G36*
X169925Y68700D02*
X165075D01*
X165167Y68234D01*
X165624Y67550D01*
X165167Y66866D01*
X165075Y66400D01*
X169925D01*
X169833Y66866D01*
X169376Y67550D01*
X169833Y68234D01*
X169925Y68700D01*
D02*
G37*
G36*
X41390Y65603D02*
X41154Y65556D01*
X40530Y65139D01*
X40113Y64515D01*
X40063Y64263D01*
X39529Y64139D01*
X39299Y64437D01*
X38703Y64895D01*
X38009Y65182D01*
X37264Y65280D01*
X36519Y65182D01*
X35824Y64895D01*
X35228Y64437D01*
X34771Y63841D01*
X34483Y63147D01*
X34385Y62402D01*
X34483Y61656D01*
X34771Y60962D01*
X35228Y60366D01*
X35824Y59908D01*
X36519Y59621D01*
X37264Y59523D01*
X38009Y59621D01*
X38703Y59908D01*
X39299Y60366D01*
X39757Y60962D01*
X40045Y61656D01*
X40110Y62150D01*
X40260Y62246D01*
X40635Y62350D01*
X41154Y62003D01*
X41390Y61956D01*
Y63779D01*
Y65603D01*
D02*
G37*
G36*
X42390D02*
Y64280D01*
X43713D01*
X43666Y64515D01*
X43249Y65139D01*
X42626Y65556D01*
X42390Y65603D01*
D02*
G37*
G36*
X169925Y65400D02*
X165075D01*
X165167Y64934D01*
X165658Y64200D01*
X165167Y63466D01*
X165075Y63000D01*
X169925D01*
X169833Y63466D01*
X169342Y64200D01*
X169833Y64934D01*
X169925Y65400D01*
D02*
G37*
G36*
X138941Y67118D02*
X137016D01*
Y65193D01*
X137482Y65285D01*
X138301Y65833D01*
X138848Y66652D01*
X138941Y67118D01*
D02*
G37*
G36*
X144736Y66724D02*
X142811D01*
X142903Y66258D01*
X143451Y65439D01*
X144270Y64892D01*
X144736Y64799D01*
Y66724D01*
D02*
G37*
G36*
X147662D02*
X145736D01*
Y64799D01*
X146203Y64892D01*
X147022Y65439D01*
X147569Y66258D01*
X147662Y66724D01*
D02*
G37*
%LPD*%
D27*
X174961Y33858D02*
X175256Y34154D01*
D28*
X20000Y83000D02*
Y90000D01*
X14900Y96000D02*
X15600D01*
X136799Y75299D02*
Y76650D01*
X42000Y101000D02*
Y104500D01*
X132000Y70500D02*
X136799Y75299D01*
D30*
X102445Y11000D02*
X104900D01*
D38*
X27500Y91000D02*
X32000Y98000D01*
D44*
X14900Y96000D02*
D03*
D45*
X54900Y11000D02*
D03*
X104900D02*
D03*
D47*
X154488Y222441D02*
D03*
D49*
X160591Y46949D02*
D03*
X136516Y67618D02*
D03*
X145236Y67224D02*
D03*
X94842Y70473D02*
D03*
X94842Y67323D02*
D03*
X136799Y76650D02*
D03*
X50945Y157087D02*
D03*
X54488D02*
D03*
X58031D02*
D03*
X61575D02*
D03*
X50945Y153543D02*
D03*
X54488D02*
D03*
X58031D02*
D03*
X61575D02*
D03*
X50945Y150000D02*
D03*
X54488D02*
D03*
X58031D02*
D03*
X61575D02*
D03*
Y146457D02*
D03*
X58031D02*
D03*
X54488D02*
D03*
X50945D02*
D03*
X107524Y53689D02*
D03*
X167500Y62500D02*
D03*
X186230Y218100D02*
D03*
X182687D02*
D03*
X179143D02*
D03*
X175600D02*
D03*
X196787Y218000D02*
D03*
X193243D02*
D03*
X189700D02*
D03*
X182630Y222000D02*
D03*
X179087D02*
D03*
X175543D02*
D03*
X172000D02*
D03*
X182630Y226000D02*
D03*
X179087D02*
D03*
X175543D02*
D03*
X172000D02*
D03*
X182630Y230000D02*
D03*
X179087D02*
D03*
X175543D02*
D03*
X172000D02*
D03*
X182630Y234000D02*
D03*
X179087D02*
D03*
X175543D02*
D03*
X172000D02*
D03*
X196800Y221900D02*
D03*
Y226000D02*
D03*
Y230000D02*
D03*
Y234000D02*
D03*
X28013D02*
D03*
Y230000D02*
D03*
Y226000D02*
D03*
Y221900D02*
D03*
X13843Y234000D02*
D03*
Y230000D02*
D03*
Y226000D02*
D03*
Y222000D02*
D03*
X20913Y218000D02*
D03*
X24457D02*
D03*
X28000D02*
D03*
X13900Y218100D02*
D03*
X17443D02*
D03*
X31700Y234000D02*
D03*
X35243D02*
D03*
X38787D02*
D03*
X31700Y230000D02*
D03*
X35243D02*
D03*
X38787D02*
D03*
X31700Y226000D02*
D03*
X35243D02*
D03*
X38787D02*
D03*
X31700Y222000D02*
D03*
X35243D02*
D03*
X38787D02*
D03*
X35300Y218100D02*
D03*
X31600Y218000D02*
D03*
X181400Y146800D02*
D03*
X184943D02*
D03*
X188487D02*
D03*
X192030D02*
D03*
Y150343D02*
D03*
X188487D02*
D03*
X184943D02*
D03*
X181400D02*
D03*
X192030Y153887D02*
D03*
X188487D02*
D03*
X184943D02*
D03*
X181400D02*
D03*
X192030Y157430D02*
D03*
X188487D02*
D03*
X184943D02*
D03*
X181400D02*
D03*
X85100Y146370D02*
D03*
X88643D02*
D03*
X92187D02*
D03*
X95730D02*
D03*
Y149913D02*
D03*
X92187D02*
D03*
X88643D02*
D03*
X85100D02*
D03*
X95730Y153457D02*
D03*
X92187D02*
D03*
X88643D02*
D03*
X85100D02*
D03*
X95730Y157000D02*
D03*
X92187D02*
D03*
X88643D02*
D03*
X85100D02*
D03*
X62559Y40748D02*
D03*
X167500Y72600D02*
D03*
Y69200D02*
D03*
Y65900D02*
D03*
D50*
X97402Y34350D02*
D03*
X178898Y29724D02*
D03*
X62362Y24311D02*
D03*
X97402Y16043D02*
D03*
X160098Y42028D02*
D03*
X160230Y24672D02*
D03*
X106358Y25477D02*
D03*
X175256Y43799D02*
D03*
X174961Y16535D02*
D03*
X110912Y42789D02*
D03*
X148878Y15536D02*
D03*
X43071Y116043D02*
D03*
X133819Y35335D02*
D03*
X41890Y63779D02*
D03*
X41988Y78740D02*
D03*
X42283Y45374D02*
D03*
X121221Y40354D02*
D03*
X131161Y23524D02*
D03*
X69500Y49500D02*
D03*
X41200Y93000D02*
D03*
X120700Y93200D02*
D03*
X53500Y108700D02*
D03*
X145401Y102000D02*
D03*
X114048Y113000D02*
D03*
X115928Y114880D02*
D03*
X106358Y43489D02*
D03*
X42000Y101000D02*
D03*
M02*
